<svg xmlns="http://www.w3.org/2000/svg" viewBox="0 0 576 602"><defs><style>.cls-1{fill:#0c5b00;}.cls-2{fill:#8ad300;}.cls-3{fill:none;}</style></defs><title>Recurso 25</title><g id="Capa_2" data-name="Capa 2"><g id="Capa_3" data-name="Capa 3"><path class="cls-1" d="M354.23,364.84H228.32A52.83,52.83,0,0,1,175.49,312h0a52.83,52.83,0,0,1,52.83-52.83H354.23A52.83,52.83,0,0,1,407.06,312h0A52.83,52.83,0,0,1,354.23,364.84Z"/><path class="cls-2" d="M354.23,355H228.32a52.83,52.83,0,0,1-52.83-52.83h0a52.83,52.83,0,0,1,52.83-52.83H354.23a52.83,52.83,0,0,1,52.83,52.83h0A52.83,52.83,0,0,1,354.23,355Z"/><path class="cls-1" d="M284.21,303.69c6.35,13.91-4.37,27.47-23.94,30.29s-40.58-6.18-46.93-20.1,4.37-27.47,23.94-30.29S277.86,289.77,284.21,303.69Z"/><path class="cls-1" d="M375,291.36c10.46,5.26,8,16.37-5.45,24.82s-32.89,11-43.35,5.78-8-16.37,5.46-24.82S364.52,286.1,375,291.36Z"/><rect class="cls-3" width="576" height="602"/></g></g></svg>