<svg xmlns="http://www.w3.org/2000/svg" viewBox="0 0 576 602"><defs><style>.cls-1{fill:none;}.cls-2{fill:#7a4c26;}.cls-3{fill:#54331c;}</style></defs><title>Recurso 5</title><g id="Capa_2" data-name="Capa 2"><g id="Capa_3" data-name="Capa 3"><rect class="cls-1" width="576" height="602"/><path class="cls-2" d="M123.8,76.18a9.81,9.81,0,0,0-6.75,4.72l-9.81,18.54c-3.85,7.29-3.59,15.73.72,23.79s12.18,14.75,22.13,18.86a51.06,51.06,0,0,0,30.58,2.9c9.76-2.24,17.26-7.49,21.11-14.77h0c3.85-7.28,3.6-15.73-.72-23.78s-12.17-14.76-22.13-18.87L133.57,77.1A16.3,16.3,0,0,0,123.8,76.18Z"/><path class="cls-3" d="M129.44,86.54a5.26,5.26,0,0,0-4,3.35l-5,13.66c-1.94,5.36-1.19,11.73,2.13,17.92a36.24,36.24,0,0,0,15.44,14.86c6.64,3.39,13.63,4.49,19.7,3.1s10.49-5.12,12.44-10.48h0c1.94-5.36,1.19-11.73-2.13-17.92a36.24,36.24,0,0,0-15.44-14.86l-16.91-8.64A9.34,9.34,0,0,0,129.44,86.54Z"/><path class="cls-2" d="M441.45,77.1,416.09,87.57c-9.95,4.11-17.81,10.81-22.13,18.87s-4.57,16.5-.72,23.78h0c3.85,7.28,11.35,12.53,21.11,14.77a51.05,51.05,0,0,0,30.58-2.9c10-4.11,17.82-10.81,22.13-18.86s4.57-16.5.72-23.79L458,80.9a9.81,9.81,0,0,0-6.74-4.72A16.34,16.34,0,0,0,441.45,77.1Z"/><path class="cls-3" d="M439.28,87.53l-16.91,8.64A36.24,36.24,0,0,0,406.93,111c-3.31,6.19-4.07,12.56-2.12,17.92h0c1.94,5.36,6.36,9.08,12.43,10.48s13.07.29,19.71-3.1a36.24,36.24,0,0,0,15.44-14.86c3.31-6.19,4.07-12.56,2.12-17.92l-5-13.66a5.26,5.26,0,0,0-4-3.35A9.34,9.34,0,0,0,439.28,87.53Z"/></g></g></svg>