<svg xmlns="http://www.w3.org/2000/svg" viewBox="0 0 576 602"><defs><style>.cls-1{fill:none;}.cls-2{fill:#f8f9d2;stroke:#d2d2a0;stroke-miterlimit:10;stroke-width:6px;}.cls-3{fill:#009145;}</style></defs><title>Recurso 38</title><g id="Capa_2" data-name="Capa 2"><g id="Capa_3" data-name="Capa 3"><rect class="cls-1" width="576" height="602"/><path class="cls-2" d="M290.86,283c0,19.55-13.84,35.39-30.91,35.39S229,302.53,229,283s13.84-35.4,30.91-35.4S290.86,263.43,290.86,283Z"/><path class="cls-3" d="M275.73,279.32c0,9.39-5.18,17-11.57,17s-11.57-7.62-11.57-17,5.18-17,11.57-17S275.73,269.92,275.73,279.32Z"/><path class="cls-2" d="M362.45,283c0,19.55-13.24,35.39-29.57,35.39S303.31,302.53,303.31,283s13.24-35.4,29.57-35.4S362.45,263.43,362.45,283Z"/><path class="cls-3" d="M336.24,279.32c0,9.39-5.18,17-11.57,17s-11.57-7.62-11.57-17,5.18-17,11.57-17S336.24,269.92,336.24,279.32Z"/></g></g></svg>