<svg xmlns="http://www.w3.org/2000/svg" viewBox="0 0 576 602">
	<defs>
		<style>
			.cls-1{fill:none;}
			.cls-2{opacity:0.3;}
			.cls-3{fill:#e2e2e2;}
			.cls-4{fill:#ccc;}
			.cls-5{fill:#7acca9;}
			.cls-6{fill:#4c7f68;}
			.cls-7{fill:#f8f9d2;}
			.cls-8{fill:#b276ac;}
			.cls-9{fill:#fdc325;}
			.cls-10{fill:#e0aad6;}
		</style>
	</defs>
	<title>
		02Recurso 1
	</title>
	<g id="Capa_2" data-name="Capa 2">
		<g id="Capa_1-2" data-name="Capa 1">
			<rect class="cls-1" width="576" height="602"/>
			<ellipse class="cls-2" cx="287.8" cy="430.41" rx="253.91" ry="122.44"/>
			<path class="cls-3" d="M515.1,418.74c0,53.9-101.59,97.59-226.92,97.59S61.27,472.63,61.27,418.74c0-9.07-.79-194-.86-211.4-.33-86.1,233.59-86,233.59-86,29.07,1.94,220.69,2.35,221.66,89.37C515.87,230.15,515.1,408.91,515.1,418.74Z"/>
			<ellipse class="cls-3" cx="288.18" cy="207.81" rx="226.92" ry="111.05"/>
			<path class="cls-4" d="M288.39,521.33c-7.52,0-14.11-4.64-19.92-8.74-4.25-3-8.64-6.09-12-6.31-3.7-.24-8.65,2.32-13.44,4.81-6.45,3.35-13.13,6.81-20.25,5.83-7.6-1.05-13.53-6.66-18.76-11.61-3.72-3.52-7.56-7.15-10.74-7.85-3.73-.82-9.08.93-14.25,2.62-6.91,2.27-14.06,4.61-20.85,2.42-7.65-2.47-12.53-9.34-16.83-15.4-2.85-4-5.79-8.17-8.57-9.46-3.67-1.71-9.32-1.39-14.78-1.08-7.41.42-15.07.85-20.92-3.34-7.55-5.4-9.47-14.49-11.16-22.52-.89-4.21-1.8-8.57-3.37-10.77-2.08-2.93-5.82-5.81-9.43-8.6C66.25,426,58.47,420,58.47,410.74a6,6,0,0,1,12,0c0,3.38,5.07,7.29,10,11.08,4.31,3.32,8.77,6.76,11.88,11.15s4.19,9.84,5.33,15.25c1.3,6.17,2.64,12.55,6.4,15.23,2.42,1.73,7.93,1.42,13.27,1.12,6.62-.37,14.12-.79,20.52,2.19,5.66,2.64,9.54,8.11,13.29,13.39,3.38,4.76,6.87,9.68,10.72,10.92,3.09,1,8.35-.73,13.44-2.4,6.39-2.09,13.63-4.47,20.57-2.94,6.44,1.42,11.51,6.22,16.41,10.86,4.11,3.89,8.37,7.92,12.16,8.44,3.33.46,8.29-2.11,13.08-4.59,6.25-3.25,12.72-6.6,19.76-6.13,6.72.45,12.51,4.53,18.11,8.48,4.57,3.22,9.29,6.55,13,6.55s8.44-3.33,13-6.55c5.6-3.95,11.39-8,18.11-8.48,7-.47,13.5,2.89,19.76,6.13,4.79,2.48,9.74,5.05,13.08,4.59,3.79-.52,8-4.55,12.16-8.44,4.9-4.64,10-9.44,16.41-10.86,6.93-1.53,14.18.84,20.56,2.94,5.09,1.67,10.35,3.39,13.43,2.4,3.86-1.24,7.35-6.16,10.72-10.92,3.75-5.29,7.63-10.76,13.29-13.39,6.4-3,13.9-2.56,20.52-2.19,5.34.3,10.85.61,13.27-1.12,3.75-2.68,5.1-9.06,6.4-15.23,1.14-5.41,2.32-11,5.33-15.25s7.58-7.82,11.88-11.15c4.91-3.79,10-7.7,10-11.08a6,6,0,1,1,12,0c0,9.28-7.79,15.29-14.65,20.58-3.61,2.79-7.35,5.67-9.43,8.6-1.57,2.21-2.48,6.56-3.37,10.77-1.69,8-3.61,17.12-11.16,22.52-5.85,4.19-13.51,3.76-20.92,3.34-5.46-.31-11.11-.62-14.78,1.08-2.78,1.29-5.73,5.45-8.57,9.46-4.3,6.06-9.18,12.93-16.83,15.4-6.79,2.19-13.94-.15-20.85-2.42-5.17-1.69-10.51-3.45-14.24-2.62-3.19.7-7,4.34-10.75,7.85-5.23,4.95-11.16,10.56-18.76,11.61-7.12,1-13.79-2.48-20.25-5.83-4.79-2.49-9.76-5.06-13.43-4.81-3.36.22-7.75,3.32-12,6.31C302.5,516.68,295.91,521.33,288.39,521.33Z"/>
			<path class="cls-4" d="M288.39,473.33c-7.52,0-14.11-4.64-19.92-8.74-4.25-3-8.64-6.09-12-6.31-3.7-.25-8.65,2.32-13.44,4.81-6.45,3.35-13.13,6.81-20.25,5.83-7.6-1.05-13.53-6.66-18.76-11.61-3.72-3.52-7.56-7.15-10.74-7.85-3.73-.82-9.08.93-14.25,2.62-6.91,2.27-14.06,4.61-20.85,2.42-7.65-2.47-12.53-9.34-16.83-15.4-2.85-4-5.79-8.17-8.57-9.46-3.67-1.71-9.32-1.39-14.78-1.08-7.41.42-15.07.85-20.92-3.34-7.55-5.4-9.47-14.49-11.16-22.52-.89-4.21-1.8-8.57-3.37-10.77-2.08-2.93-5.82-5.81-9.43-8.6C66.25,378,58.47,372,58.47,362.74a6,6,0,0,1,12,0c0,3.38,5.07,7.29,10,11.08,4.31,3.32,8.77,6.76,11.88,11.15s4.19,9.84,5.33,15.25c1.3,6.17,2.64,12.55,6.4,15.23,2.42,1.73,7.93,1.42,13.27,1.12,6.62-.37,14.12-.79,20.52,2.19,5.66,2.64,9.54,8.11,13.29,13.39,3.38,4.76,6.87,9.68,10.72,10.92,3.09,1,8.35-.73,13.44-2.4,6.39-2.09,13.63-4.47,20.57-2.94,6.44,1.42,11.51,6.22,16.41,10.86,4.11,3.89,8.37,7.92,12.16,8.44,3.33.46,8.29-2.11,13.08-4.59,6.25-3.25,12.72-6.6,19.76-6.13,6.72.45,12.51,4.53,18.11,8.48,4.57,3.22,9.29,6.55,13,6.55s8.44-3.33,13-6.55c5.6-3.95,11.39-8,18.11-8.48,7-.47,13.5,2.89,19.76,6.13,4.79,2.48,9.74,5.05,13.08,4.59,3.79-.52,8-4.55,12.16-8.44,4.9-4.64,10-9.44,16.41-10.86,6.93-1.53,14.18.84,20.56,2.94,5.09,1.67,10.35,3.39,13.43,2.4,3.86-1.24,7.35-6.16,10.72-10.92,3.75-5.29,7.63-10.76,13.29-13.39,6.4-3,13.9-2.56,20.52-2.19,5.34.3,10.85.61,13.27-1.12,3.75-2.68,5.1-9.06,6.4-15.23,1.14-5.41,2.32-11,5.33-15.25s7.58-7.82,11.88-11.15c4.91-3.79,10-7.7,10-11.08a6,6,0,1,1,12,0c0,9.28-7.79,15.29-14.65,20.58-3.61,2.79-7.35,5.67-9.43,8.6-1.57,2.21-2.48,6.56-3.37,10.77-1.69,8-3.61,17.12-11.16,22.52-5.85,4.19-13.51,3.76-20.92,3.34-5.46-.31-11.11-.62-14.78,1.08-2.78,1.29-5.73,5.45-8.57,9.46-4.3,6.06-9.18,12.93-16.83,15.4-6.79,2.19-13.94-.15-20.85-2.42-5.17-1.69-10.51-3.45-14.24-2.62-3.19.7-7,4.34-10.75,7.85-5.23,4.95-11.16,10.56-18.76,11.61-7.12,1-13.79-2.48-20.25-5.83-4.79-2.49-9.76-5.06-13.43-4.81-3.36.22-7.75,3.32-12,6.31C302.5,468.68,295.91,473.33,288.39,473.33Z"/>
			<path class="cls-4" d="M288.39,427.33c-7.52,0-14.11-4.64-19.92-8.74-4.25-3-8.64-6.09-12-6.31-3.7-.24-8.65,2.32-13.44,4.81-6.45,3.35-13.13,6.81-20.25,5.83-7.6-1.05-13.53-6.66-18.76-11.61-3.72-3.52-7.56-7.15-10.74-7.85-3.73-.82-9.08.93-14.25,2.62-6.91,2.27-14.06,4.61-20.85,2.42-7.65-2.47-12.53-9.34-16.83-15.4-2.85-4-5.79-8.17-8.57-9.46-3.67-1.71-9.32-1.39-14.78-1.08-7.41.42-15.07.85-20.92-3.34-7.55-5.4-9.47-14.49-11.16-22.52-.89-4.21-1.8-8.57-3.37-10.77-2.08-2.93-5.82-5.81-9.43-8.6C66.25,332,58.47,326,58.47,316.74a6,6,0,0,1,12,0c0,3.38,5.07,7.29,10,11.08,4.31,3.32,8.77,6.76,11.88,11.15s4.19,9.84,5.33,15.25c1.3,6.17,2.64,12.55,6.4,15.23,2.42,1.73,7.93,1.42,13.27,1.12,6.62-.37,14.12-.79,20.52,2.19,5.66,2.64,9.54,8.11,13.29,13.39,3.38,4.76,6.87,9.68,10.72,10.92,3.09,1,8.35-.73,13.44-2.4,6.39-2.09,13.63-4.47,20.57-2.94,6.44,1.42,11.51,6.22,16.41,10.86,4.11,3.89,8.37,7.92,12.16,8.44,3.33.46,8.29-2.11,13.08-4.59,6.25-3.25,12.72-6.6,19.76-6.13,6.72.45,12.51,4.53,18.11,8.48,4.57,3.22,9.29,6.55,13,6.55s8.44-3.33,13-6.55c5.6-3.95,11.39-8,18.11-8.48,7-.47,13.5,2.89,19.76,6.13,4.79,2.48,9.74,5.05,13.08,4.59,3.79-.52,8-4.55,12.16-8.44,4.9-4.64,10-9.44,16.41-10.86,6.93-1.53,14.18.84,20.56,2.94,5.09,1.67,10.35,3.39,13.43,2.4,3.86-1.24,7.35-6.16,10.72-10.92,3.75-5.29,7.63-10.76,13.29-13.39,6.4-3,13.9-2.56,20.52-2.19,5.34.3,10.85.61,13.27-1.12,3.75-2.68,5.1-9.06,6.4-15.23,1.14-5.41,2.32-11,5.33-15.25s7.58-7.82,11.88-11.15c4.91-3.79,10-7.7,10-11.08a6,6,0,1,1,12,0c0,9.28-7.79,15.29-14.65,20.58-3.61,2.79-7.35,5.67-9.43,8.6-1.57,2.21-2.48,6.56-3.37,10.77-1.69,8-3.61,17.12-11.16,22.52-5.85,4.19-13.51,3.76-20.92,3.34-5.46-.31-11.11-.62-14.78,1.08-2.78,1.29-5.73,5.45-8.57,9.46-4.3,6.06-9.18,12.93-16.83,15.4-6.79,2.19-13.94-.15-20.85-2.42-5.17-1.69-10.51-3.45-14.24-2.62-3.19.7-7,4.34-10.75,7.85-5.23,4.95-11.16,10.56-18.76,11.61-7.12,1-13.79-2.48-20.25-5.83-4.79-2.49-9.76-5.06-13.43-4.81-3.36.22-7.75,3.32-12,6.31C302.5,422.68,295.91,427.33,288.39,427.33Z"/>
			<path class="cls-4" d="M288.39,381.33c-7.52,0-14.11-4.64-19.92-8.74-4.25-3-8.64-6.09-12-6.31-3.7-.24-8.65,2.32-13.44,4.81-6.45,3.35-13.13,6.81-20.25,5.83-7.6-1.05-13.53-6.66-18.76-11.61-3.72-3.52-7.56-7.15-10.74-7.85-3.73-.82-9.08.93-14.25,2.62-6.91,2.27-14.06,4.61-20.85,2.42-7.65-2.47-12.53-9.34-16.83-15.4-2.85-4-5.79-8.17-8.57-9.46-3.67-1.71-9.32-1.39-14.78-1.08-7.41.42-15.07.85-20.92-3.34-7.55-5.4-9.47-14.49-11.16-22.52-.89-4.21-1.8-8.57-3.37-10.77-2.08-2.93-5.82-5.81-9.43-8.6C66.25,286,58.47,280,58.47,270.74a6,6,0,0,1,12,0c0,3.38,5.07,7.29,10,11.08,4.31,3.32,8.77,6.76,11.88,11.15s4.19,9.84,5.33,15.25c1.3,6.17,2.64,12.55,6.4,15.23,2.42,1.73,7.93,1.42,13.27,1.12,6.62-.37,14.12-.79,20.52,2.19,5.66,2.64,9.54,8.11,13.29,13.39,3.38,4.76,6.87,9.68,10.72,10.92,3.09,1,8.35-.73,13.44-2.4,6.39-2.09,13.63-4.47,20.57-2.94,6.44,1.42,11.51,6.22,16.41,10.86,4.11,3.89,8.37,7.92,12.16,8.44,3.33.46,8.29-2.11,13.08-4.59,6.25-3.25,12.72-6.6,19.76-6.13,6.72.45,12.51,4.53,18.11,8.48,4.57,3.22,9.29,6.55,13,6.55s8.44-3.33,13-6.55c5.6-3.95,11.39-8,18.11-8.48,7-.47,13.5,2.89,19.76,6.13,4.79,2.48,9.74,5.05,13.08,4.59,3.79-.52,8-4.55,12.16-8.44,4.9-4.64,10-9.44,16.41-10.86,6.93-1.53,14.18.84,20.56,2.94,5.09,1.67,10.35,3.39,13.43,2.4,3.86-1.24,7.35-6.16,10.72-10.92,3.75-5.29,7.63-10.76,13.29-13.39,6.4-3,13.9-2.56,20.52-2.19,5.34.3,10.85.61,13.27-1.12,3.75-2.68,5.1-9.06,6.4-15.23,1.14-5.41,2.32-11,5.33-15.25s7.58-7.82,11.88-11.15c4.91-3.79,10-7.7,10-11.08a6,6,0,1,1,12,0c0,9.28-7.79,15.29-14.65,20.58-3.61,2.79-7.35,5.67-9.43,8.6-1.57,2.21-2.48,6.56-3.37,10.77-1.69,8-3.61,17.12-11.16,22.52-5.85,4.19-13.51,3.76-20.92,3.34-5.46-.31-11.11-.62-14.78,1.08-2.78,1.29-5.73,5.45-8.57,9.46-4.3,6.06-9.18,12.93-16.83,15.4-6.79,2.19-13.94-.15-20.85-2.42-5.17-1.69-10.51-3.45-14.24-2.62-3.19.7-7,4.34-10.75,7.85-5.23,4.95-11.16,10.56-18.76,11.61-7.12,1-13.79-2.48-20.25-5.83-4.79-2.49-9.76-5.06-13.43-4.81-3.36.22-7.75,3.32-12,6.31C302.5,376.68,295.91,381.33,288.39,381.33Z"/>
			<path class="cls-4" d="M288.39,333.33c-7.52,0-14.11-4.64-19.92-8.74-4.25-3-8.64-6.09-12-6.31-3.7-.24-8.65,2.33-13.44,4.81-6.45,3.35-13.13,6.81-20.25,5.83-7.6-1.05-13.53-6.66-18.76-11.61-3.72-3.52-7.56-7.15-10.74-7.85-3.73-.82-9.08.93-14.25,2.62-6.91,2.27-14.06,4.61-20.85,2.42-7.65-2.47-12.53-9.34-16.83-15.4-2.85-4-5.79-8.17-8.57-9.46-3.67-1.71-9.32-1.39-14.78-1.08-7.41.42-15.07.85-20.92-3.34-7.55-5.4-9.47-14.49-11.16-22.52-.89-4.21-1.8-8.57-3.37-10.77-2.08-2.93-5.82-5.81-9.43-8.6C66.25,238,58.47,232,58.47,222.74a6,6,0,1,1,12,0c0,3.38,5.07,7.29,10,11.08,4.31,3.32,8.77,6.76,11.88,11.15s4.19,9.84,5.33,15.25c1.3,6.17,2.64,12.55,6.4,15.23,2.42,1.73,7.93,1.42,13.27,1.12,6.62-.37,14.12-.79,20.52,2.19,5.66,2.64,9.54,8.11,13.29,13.39,3.38,4.76,6.87,9.68,10.72,10.92,3.09,1,8.35-.73,13.44-2.4,6.39-2.09,13.63-4.47,20.57-2.94,6.44,1.42,11.51,6.22,16.41,10.86,4.11,3.89,8.37,7.92,12.16,8.44,3.33.46,8.29-2.11,13.08-4.59,6.25-3.25,12.72-6.6,19.76-6.13,6.72.45,12.51,4.53,18.11,8.48,4.57,3.22,9.29,6.55,13,6.55s8.44-3.33,13-6.55c5.6-3.95,11.39-8,18.11-8.48,7-.47,13.5,2.89,19.76,6.13,4.79,2.48,9.74,5.05,13.08,4.59,3.79-.52,8-4.55,12.16-8.44,4.9-4.64,10-9.44,16.41-10.86,6.93-1.53,14.18.84,20.56,2.94,5.09,1.67,10.35,3.39,13.43,2.4,3.86-1.24,7.35-6.16,10.72-10.92,3.75-5.29,7.63-10.76,13.29-13.39,6.4-3,13.9-2.56,20.52-2.19,5.34.3,10.85.61,13.27-1.12,3.75-2.68,5.1-9.06,6.4-15.23,1.14-5.41,2.32-11,5.33-15.25s7.58-7.82,11.88-11.15c4.91-3.79,10-7.7,10-11.08a6,6,0,1,1,12,0c0,9.28-7.79,15.29-14.65,20.58-3.61,2.79-7.35,5.67-9.43,8.6-1.57,2.21-2.48,6.56-3.37,10.77-1.69,8-3.61,17.12-11.16,22.52-5.85,4.19-13.51,3.76-20.92,3.34-5.46-.31-11.11-.62-14.78,1.08-2.78,1.29-5.73,5.45-8.57,9.46-4.3,6.06-9.18,12.93-16.83,15.4-6.79,2.19-13.94-.15-20.85-2.42-5.17-1.69-10.51-3.45-14.24-2.62-3.19.7-7,4.34-10.75,7.85-5.23,4.95-11.16,10.56-18.76,11.61-7.12,1-13.79-2.48-20.25-5.83-4.79-2.49-9.76-5.06-13.43-4.81-3.36.22-7.75,3.32-12,6.31C302.5,328.68,295.91,333.33,288.39,333.33Z"/>
			<path class="cls-5" d="M467.75,95.79,431,109.89c-14.44,5.54-25.83,14.56-32.09,25.41s-6.63,22.22-1,32h0c5.59,9.81,16.46,16.87,30.62,19.89s29.91,1.63,44.34-3.9,25.83-14.56,32.09-25.41,6.63-22.22,1-32l-14.23-25c-1.78-3.13-5.26-5.39-9.78-6.36A25.34,25.34,0,0,0,467.75,95.79Z"/>
			<path class="cls-6" d="M464.6,109.83l-24.52,11.64c-9.63,4.57-17.58,11.68-22.39,20s-5.91,16.91-3.08,24.13h0c2.82,7.22,9.23,12.24,18,14.11s19,.4,28.58-4.17,17.58-11.68,22.39-20,5.91-16.91,3.08-24.13L479.5,113a7.53,7.53,0,0,0-5.76-4.51A14.54,14.54,0,0,0,464.6,109.83Z"/>
			<path class="cls-5" d="M102.85,94.54c-4.52,1-8,3.22-9.78,6.36l-14.23,25c-5.58,9.81-5.21,21.18,1,32S97.54,177.78,112,183.32s30.19,6.92,44.34,3.9,25-10.08,30.62-19.89h0c5.59-9.81,5.21-21.18-1-32s-17.66-19.87-32.09-25.41L117,95.79A25.34,25.34,0,0,0,102.85,94.54Z"/>
			<path class="cls-6" d="M111,108.5a7.53,7.53,0,0,0-5.76,4.51l-7.19,18.4c-2.82,7.22-1.73,15.79,3.08,24.13s12.76,15.45,22.39,20,19.78,6.05,28.58,4.17,15.21-6.89,18-14.11h0c2.82-7.22,1.73-15.79-3.08-24.13s-12.76-15.45-22.39-20l-24.52-11.64A14.54,14.54,0,0,0,111,108.5Z"/>
			<ellipse class="cls-7" cx="245.21" cy="163.72" rx="33.82" ry="19.15"/>
			<ellipse cx="252.33" cy="164.39" rx="11.57" ry="6.55"/>
			<ellipse class="cls-7" cx="325.3" cy="163.72" rx="33.82" ry="19.15"/>
			<ellipse cx="312.84" cy="164.39" rx="11.57" ry="6.55"/>
			<path class="cls-8" d="M329.39,272.9h-85.9c-40.23,0-72.83-18.47-72.83-41.24v-7c0-22.78,32.61-41.24,72.83-41.24h85.9c40.23,0,72.83,18.47,72.83,41.24v7C402.23,254.44,369.62,272.9,329.39,272.9Z"/>
			<path class="cls-9" d="M287.88,126.34c-24,0-42.46,1.51-42.68-19.92s26.92-57.63,44.88-57.69,42.25,35.69,42.47,57.12S316.56,126.34,287.88,126.34Z"/><path class="cls-10" d="M329.39,267.24h-85.9c-40.23,0-72.83-18.47-72.83-41.24v-7c0-22.78,32.61-41.24,72.83-41.24h85.9c40.23,0,72.83,18.47,72.83,41.24v7C402.23,248.78,369.62,267.24,329.39,267.24Z"/>
			<ellipse class="cls-8" cx="229.74" cy="215.08" rx="23.97" ry="13.57"/>
			<ellipse class="cls-8" cx="343.14" cy="215.08" rx="23.97" ry="13.57"/>
		</g>
	</g>
</svg>