<svg xmlns="http://www.w3.org/2000/svg" viewBox="0 0 576 602"><defs><style>.cls-1{opacity:0.3;}.cls-2{fill:#0d141c;}.cls-3{fill:#a5070d;}.cls-4{fill:#d1d1d1;}.cls-10,.cls-5,.cls-6,.cls-7,.cls-8{fill:none;}.cls-5,.cls-6,.cls-7,.cls-8{stroke:#0d141c;stroke-linecap:round;stroke-miterlimit:10;}.cls-5{stroke-width:2.96px;}.cls-6{stroke-width:1.43px;}.cls-7{stroke-width:1.88px;}.cls-8{stroke-width:2.29px;}.cls-9{fill:#fff;}</style></defs><title>02Recurso 9</title><g id="Capa_2" data-name="Capa 2"><g id="Capa_1-2" data-name="Capa 1"><ellipse class="cls-1" cx="287.8" cy="406.47" rx="253.91" ry="122.44"/><path class="cls-2" d="M515.1,394.79c0,53.9-101.59,97.59-226.92,97.59S61.26,448.69,61.26,394.79c0-9.07-.79-194-.86-211.4-.33-86.1,233.59-86,233.59-86,29.07,1.94,220.69,2.35,221.66,89.37C515.87,206.21,515.1,385,515.1,394.79Z"/><ellipse class="cls-2" cx="288.18" cy="183.86" rx="226.92" ry="111.05"/><path d="M288.39,497.38c-7.52,0-14.11-4.64-19.92-8.74-4.25-3-8.64-6.09-12-6.31-3.7-.24-8.65,2.32-13.44,4.81-6.45,3.35-13.13,6.81-20.25,5.83-7.6-1.05-13.53-6.66-18.76-11.61-3.72-3.52-7.56-7.15-10.74-7.85-3.73-.82-9.08.93-14.25,2.62-6.91,2.27-14.06,4.61-20.85,2.42-7.65-2.47-12.53-9.34-16.83-15.4-2.85-4-5.79-8.17-8.57-9.46-3.67-1.71-9.32-1.39-14.78-1.08-7.41.42-15.07.85-20.92-3.34-7.55-5.4-9.47-14.49-11.16-22.52-.89-4.21-1.8-8.57-3.37-10.77-2.08-2.93-5.82-5.81-9.43-8.6-6.87-5.3-14.65-11.3-14.65-20.58a6,6,0,0,1,12,0c0,3.38,5.07,7.29,10,11.08,4.31,3.32,8.77,6.76,11.88,11.15s4.19,9.84,5.33,15.25c1.3,6.17,2.64,12.55,6.4,15.23,2.42,1.73,7.93,1.42,13.27,1.12,6.62-.37,14.12-.79,20.52,2.19,5.66,2.64,9.54,8.11,13.29,13.39,3.38,4.76,6.87,9.68,10.72,10.92,3.09,1,8.35-.73,13.44-2.4,6.39-2.09,13.63-4.47,20.57-2.94,6.44,1.42,11.51,6.22,16.41,10.86,4.11,3.89,8.37,7.92,12.16,8.44,3.33.46,8.29-2.11,13.08-4.59,6.25-3.24,12.72-6.6,19.76-6.13,6.72.45,12.51,4.53,18.11,8.48,4.57,3.22,9.29,6.55,13,6.55s8.44-3.33,13-6.55c5.6-3.95,11.39-8,18.11-8.48,7-.47,13.5,2.89,19.76,6.13,4.79,2.48,9.74,5.05,13.08,4.59,3.79-.52,8-4.55,12.16-8.44,4.9-4.64,10-9.44,16.41-10.86,6.93-1.53,14.18.84,20.56,2.94,5.09,1.67,10.35,3.39,13.43,2.4,3.86-1.24,7.35-6.16,10.72-10.92,3.75-5.29,7.63-10.76,13.29-13.39,6.4-3,13.9-2.56,20.52-2.19,5.34.3,10.85.61,13.27-1.12,3.75-2.68,5.1-9.06,6.4-15.23,1.14-5.41,2.32-11,5.33-15.25s7.58-7.82,11.88-11.15c4.91-3.78,10-7.7,10-11.08a6,6,0,0,1,12,0c0,9.28-7.79,15.29-14.65,20.58-3.61,2.79-7.35,5.67-9.43,8.6-1.57,2.2-2.48,6.56-3.37,10.77-1.69,8-3.61,17.12-11.16,22.52-5.85,4.19-13.51,3.76-20.92,3.34-5.46-.31-11.11-.62-14.78,1.08-2.78,1.3-5.73,5.45-8.57,9.46-4.3,6.06-9.18,12.93-16.83,15.4-6.79,2.19-13.94-.15-20.85-2.42-5.17-1.69-10.51-3.45-14.24-2.62-3.19.7-7,4.34-10.75,7.85-5.23,4.95-11.16,10.56-18.76,11.61-7.12,1-13.79-2.48-20.25-5.83-4.79-2.49-9.76-5.06-13.43-4.81-3.36.22-7.75,3.32-12,6.31C302.5,492.74,295.91,497.38,288.39,497.38Z"/><path d="M288.39,449.38c-7.52,0-14.11-4.64-19.92-8.74-4.25-3-8.64-6.09-12-6.31-3.7-.25-8.65,2.32-13.44,4.81-6.45,3.35-13.13,6.81-20.25,5.83-7.6-1.05-13.53-6.66-18.76-11.61-3.72-3.52-7.56-7.15-10.74-7.85-3.73-.82-9.08.93-14.25,2.62-6.91,2.27-14.06,4.61-20.85,2.42-7.65-2.47-12.53-9.34-16.83-15.4-2.85-4-5.79-8.17-8.57-9.46-3.67-1.71-9.32-1.39-14.78-1.08-7.41.42-15.07.85-20.92-3.34-7.55-5.4-9.47-14.49-11.16-22.52-.89-4.21-1.8-8.57-3.37-10.77-2.08-2.93-5.82-5.81-9.43-8.6-6.87-5.3-14.65-11.3-14.65-20.58a6,6,0,0,1,12,0c0,3.38,5.07,7.29,10,11.08,4.31,3.32,8.77,6.76,11.88,11.15s4.19,9.84,5.33,15.25c1.3,6.17,2.64,12.55,6.4,15.23,2.42,1.73,7.93,1.42,13.27,1.12,6.62-.37,14.12-.79,20.52,2.19,5.66,2.64,9.54,8.11,13.29,13.39,3.38,4.76,6.87,9.68,10.72,10.92,3.09,1,8.35-.73,13.44-2.4,6.39-2.09,13.63-4.47,20.57-2.94,6.44,1.42,11.51,6.22,16.41,10.86,4.11,3.89,8.37,7.92,12.16,8.44,3.33.46,8.29-2.11,13.08-4.59,6.25-3.24,12.72-6.6,19.76-6.13,6.72.45,12.51,4.53,18.11,8.48,4.57,3.22,9.29,6.55,13,6.55s8.44-3.33,13-6.55c5.6-3.95,11.39-8,18.11-8.48,7-.47,13.5,2.89,19.76,6.13,4.79,2.48,9.74,5.05,13.08,4.59,3.79-.52,8-4.55,12.16-8.44,4.9-4.64,10-9.44,16.41-10.86,6.93-1.53,14.18.84,20.56,2.94,5.09,1.67,10.35,3.39,13.43,2.4,3.86-1.24,7.35-6.16,10.72-10.92,3.75-5.29,7.63-10.76,13.29-13.39,6.4-3,13.9-2.56,20.52-2.19,5.34.3,10.85.61,13.27-1.12,3.75-2.68,5.1-9.06,6.4-15.23,1.14-5.41,2.32-11,5.33-15.25s7.58-7.82,11.88-11.15c4.91-3.78,10-7.7,10-11.08a6,6,0,0,1,12,0c0,9.28-7.79,15.29-14.65,20.58-3.61,2.79-7.35,5.67-9.43,8.6-1.57,2.2-2.48,6.56-3.37,10.77-1.69,8-3.61,17.12-11.16,22.52-5.85,4.19-13.51,3.76-20.92,3.34-5.46-.31-11.11-.63-14.78,1.08-2.78,1.3-5.73,5.45-8.57,9.46-4.3,6.06-9.18,12.93-16.83,15.4-6.79,2.19-13.94-.15-20.85-2.42-5.17-1.69-10.51-3.45-14.24-2.62-3.19.7-7,4.34-10.75,7.85-5.23,4.95-11.16,10.56-18.76,11.61-7.12,1-13.79-2.48-20.25-5.83-4.79-2.49-9.76-5.06-13.43-4.81-3.36.22-7.75,3.32-12,6.31C302.5,444.74,295.91,449.38,288.39,449.38Z"/><path d="M288.39,403.38c-7.52,0-14.11-4.64-19.92-8.74-4.25-3-8.64-6.09-12-6.31-3.7-.24-8.65,2.32-13.44,4.81-6.45,3.35-13.13,6.81-20.25,5.83-7.6-1.05-13.53-6.66-18.76-11.61-3.72-3.52-7.56-7.15-10.74-7.85-3.73-.82-9.08.93-14.25,2.62-6.91,2.27-14.06,4.61-20.85,2.42-7.65-2.47-12.53-9.34-16.83-15.4-2.85-4-5.79-8.17-8.57-9.46-3.67-1.71-9.32-1.39-14.78-1.08-7.41.42-15.07.85-20.92-3.34-7.55-5.4-9.47-14.49-11.16-22.52-.89-4.21-1.8-8.57-3.37-10.77-2.08-2.93-5.82-5.81-9.43-8.6-6.87-5.3-14.65-11.3-14.65-20.58a6,6,0,0,1,12,0c0,3.38,5.07,7.29,10,11.08,4.31,3.32,8.77,6.76,11.88,11.15s4.19,9.84,5.33,15.25c1.3,6.17,2.64,12.55,6.4,15.23,2.42,1.73,7.93,1.42,13.27,1.12,6.62-.37,14.12-.79,20.52,2.19,5.66,2.64,9.54,8.11,13.29,13.39,3.38,4.76,6.87,9.68,10.72,10.92,3.09,1,8.35-.73,13.44-2.4,6.39-2.09,13.63-4.47,20.57-2.94,6.44,1.42,11.51,6.22,16.41,10.86,4.11,3.89,8.37,7.92,12.16,8.44,3.33.46,8.29-2.11,13.08-4.59,6.25-3.24,12.72-6.6,19.76-6.13,6.72.45,12.51,4.53,18.11,8.48,4.57,3.22,9.29,6.55,13,6.55s8.44-3.33,13-6.55c5.6-3.95,11.39-8,18.11-8.48,7-.47,13.5,2.89,19.76,6.13,4.79,2.48,9.74,5.05,13.08,4.59,3.79-.52,8-4.55,12.16-8.44,4.9-4.64,10-9.44,16.41-10.86,6.93-1.53,14.18.84,20.56,2.94,5.09,1.67,10.35,3.39,13.43,2.4,3.86-1.24,7.35-6.16,10.72-10.92,3.75-5.29,7.63-10.76,13.29-13.39,6.4-3,13.9-2.56,20.52-2.19,5.34.3,10.85.61,13.27-1.12,3.75-2.68,5.1-9.06,6.4-15.23,1.14-5.41,2.32-11,5.33-15.25s7.58-7.82,11.88-11.15c4.91-3.78,10-7.7,10-11.08a6,6,0,0,1,12,0c0,9.28-7.79,15.29-14.65,20.58-3.61,2.79-7.35,5.67-9.43,8.6-1.57,2.2-2.48,6.56-3.37,10.77-1.69,8-3.61,17.12-11.16,22.52-5.85,4.19-13.51,3.76-20.92,3.34-5.46-.31-11.11-.62-14.78,1.08-2.78,1.3-5.73,5.45-8.57,9.46-4.3,6.06-9.18,12.93-16.83,15.4-6.79,2.19-13.94-.15-20.85-2.42-5.17-1.69-10.51-3.45-14.24-2.62-3.19.7-7,4.34-10.75,7.85-5.23,4.95-11.16,10.56-18.76,11.61-7.12,1-13.79-2.48-20.25-5.83-4.79-2.49-9.76-5.06-13.43-4.81-3.36.22-7.75,3.32-12,6.31C302.5,398.74,295.91,403.38,288.39,403.38Z"/><path d="M288.39,357.38c-7.52,0-14.11-4.64-19.92-8.74-4.25-3-8.64-6.09-12-6.31-3.7-.24-8.65,2.32-13.44,4.81-6.45,3.35-13.13,6.81-20.25,5.83-7.6-1.05-13.53-6.66-18.76-11.61-3.72-3.52-7.56-7.15-10.74-7.85-3.73-.82-9.08.93-14.25,2.62-6.91,2.27-14.06,4.61-20.85,2.42-7.65-2.47-12.53-9.34-16.83-15.4-2.85-4-5.79-8.17-8.57-9.46-3.67-1.71-9.32-1.39-14.78-1.08-7.41.42-15.07.85-20.92-3.34-7.55-5.4-9.47-14.49-11.16-22.52-.89-4.21-1.8-8.57-3.37-10.77-2.08-2.93-5.82-5.81-9.43-8.6-6.87-5.3-14.65-11.3-14.65-20.58a6,6,0,0,1,12,0c0,3.38,5.07,7.29,10,11.08,4.31,3.32,8.77,6.76,11.88,11.15s4.19,9.84,5.33,15.25c1.3,6.17,2.64,12.55,6.4,15.23,2.42,1.73,7.93,1.42,13.27,1.12,6.62-.37,14.12-.79,20.52,2.19,5.66,2.64,9.54,8.11,13.29,13.39,3.38,4.76,6.87,9.68,10.72,10.92,3.09,1,8.35-.73,13.44-2.4,6.39-2.09,13.63-4.47,20.57-2.94,6.44,1.42,11.51,6.22,16.41,10.86,4.11,3.89,8.37,7.92,12.16,8.44,3.33.46,8.29-2.11,13.08-4.59,6.25-3.24,12.72-6.6,19.76-6.13,6.72.45,12.51,4.53,18.11,8.48,4.57,3.22,9.29,6.55,13,6.55s8.44-3.33,13-6.55c5.6-3.95,11.39-8,18.11-8.48,7-.47,13.5,2.89,19.76,6.13,4.79,2.48,9.74,5.05,13.08,4.59,3.79-.52,8-4.55,12.16-8.44,4.9-4.64,10-9.44,16.41-10.86,6.93-1.53,14.18.84,20.56,2.94,5.09,1.67,10.35,3.39,13.43,2.4,3.86-1.24,7.35-6.16,10.72-10.92,3.75-5.29,7.63-10.76,13.29-13.39,6.4-3,13.9-2.56,20.52-2.19,5.34.3,10.85.61,13.27-1.12,3.75-2.68,5.1-9.06,6.4-15.23,1.14-5.41,2.32-11,5.33-15.25s7.58-7.82,11.88-11.15c4.91-3.78,10-7.7,10-11.08a6,6,0,1,1,12,0c0,9.28-7.79,15.29-14.65,20.58-3.61,2.79-7.35,5.67-9.43,8.6-1.57,2.2-2.48,6.56-3.37,10.77-1.69,8-3.61,17.12-11.16,22.52-5.85,4.19-13.51,3.76-20.92,3.34-5.46-.31-11.11-.62-14.78,1.08-2.78,1.3-5.73,5.45-8.57,9.46-4.3,6.06-9.18,12.93-16.83,15.4-6.79,2.19-13.94-.15-20.85-2.42-5.17-1.69-10.51-3.45-14.24-2.62-3.19.7-7,4.34-10.75,7.85-5.23,4.95-11.16,10.56-18.76,11.61-7.12,1-13.79-2.48-20.25-5.83-4.79-2.49-9.76-5.06-13.43-4.81-3.36.22-7.75,3.32-12,6.31C302.5,352.74,295.91,357.38,288.39,357.38Z"/><path d="M288.39,309.38c-7.52,0-14.11-4.64-19.92-8.74-4.25-3-8.64-6.09-12-6.31-3.7-.24-8.65,2.32-13.44,4.81-6.45,3.35-13.13,6.81-20.25,5.83-7.6-1.05-13.53-6.66-18.76-11.61-3.72-3.52-7.56-7.15-10.74-7.85-3.73-.82-9.08.93-14.25,2.62-6.91,2.27-14.06,4.61-20.85,2.42-7.65-2.47-12.53-9.34-16.83-15.4-2.85-4-5.79-8.17-8.57-9.46-3.67-1.71-9.32-1.39-14.78-1.08-7.41.42-15.07.85-20.92-3.34-7.55-5.4-9.47-14.49-11.16-22.52-.89-4.21-1.8-8.57-3.37-10.77-2.08-2.93-5.82-5.81-9.43-8.6-6.87-5.3-14.65-11.3-14.65-20.58a6,6,0,0,1,12,0c0,3.38,5.07,7.29,10,11.08,4.31,3.32,8.77,6.76,11.88,11.15s4.19,9.84,5.33,15.25c1.3,6.17,2.64,12.55,6.4,15.23,2.42,1.73,7.93,1.42,13.27,1.12,6.62-.37,14.12-.79,20.52,2.19,5.66,2.64,9.54,8.11,13.29,13.4,3.38,4.76,6.87,9.68,10.72,10.92,3.09,1,8.35-.73,13.44-2.4,6.39-2.09,13.63-4.47,20.57-2.94,6.44,1.42,11.51,6.22,16.41,10.86,4.11,3.89,8.37,7.92,12.16,8.44,3.33.46,8.29-2.11,13.08-4.59,6.25-3.24,12.72-6.6,19.76-6.13,6.72.45,12.51,4.53,18.11,8.48,4.57,3.22,9.29,6.55,13,6.55s8.44-3.33,13-6.55c5.6-3.95,11.39-8,18.11-8.48,7-.47,13.5,2.89,19.76,6.13,4.79,2.48,9.74,5.05,13.08,4.59,3.79-.52,8-4.55,12.16-8.44,4.9-4.64,10-9.44,16.41-10.86,6.93-1.53,14.18.84,20.56,2.94,5.09,1.67,10.35,3.39,13.43,2.4,3.86-1.24,7.35-6.16,10.72-10.92,3.75-5.29,7.63-10.76,13.29-13.39,6.4-3,13.9-2.56,20.52-2.19,5.34.3,10.85.61,13.27-1.12,3.75-2.68,5.1-9.06,6.4-15.23,1.14-5.41,2.32-11,5.33-15.25s7.58-7.82,11.88-11.15c4.91-3.78,10-7.7,10-11.08a6,6,0,1,1,12,0c0,9.28-7.79,15.29-14.65,20.58-3.61,2.79-7.35,5.67-9.43,8.6-1.57,2.2-2.48,6.56-3.37,10.77-1.69,8-3.61,17.12-11.16,22.52-5.85,4.19-13.51,3.76-20.92,3.34-5.46-.31-11.11-.63-14.78,1.08-2.78,1.3-5.73,5.45-8.57,9.46-4.3,6.06-9.18,12.93-16.83,15.4-6.79,2.19-13.94-.15-20.85-2.42-5.17-1.69-10.51-3.45-14.24-2.62-3.19.7-7,4.34-10.75,7.85-5.23,4.95-11.16,10.56-18.76,11.61-7.12,1-13.79-2.48-20.25-5.83-4.79-2.49-9.76-5.06-13.43-4.81-3.36.22-7.75,3.32-12,6.31C302.5,304.74,295.91,309.38,288.39,309.38Z"/><path class="cls-2" d="M515.75,184.15c0,61.57-101.87,47.55-227.54,47.55s-227.54,14-227.54-47.55S162.54,72.67,288.21,72.67,515.75,122.58,515.75,184.15Z"/><path class="cls-2" d="M285.23,156.27h19.49V73q-8.18-.29-16.51-.29a455.61,455.61,0,0,0-56.57,3.47c17.65-1.9,35.68-3.06,53.59-3.38Z"/><path class="cls-3" d="M515.75,184.15c0-58.85-93.07-107-211-111.19v83.31h-7c100,0,191.93,34.57,214.73,44.94A41.64,41.64,0,0,0,515.75,184.15Z"/><path class="cls-3" d="M285.23,156.27V72.76c-17.91.32-35.95,1.48-53.59,3.38-98.3,12.32-171,56-171,108A41.67,41.67,0,0,0,64,201.21c24.07-10.36,132.6-44.92,233.71-44.94Z"/><path class="cls-2" d="M304.72,156.27V72.75q-4.63-.08-9.31-.08-5.12,0-10.18.09v83.51Z"/><ellipse class="cls-4" cx="258.85" cy="168.49" rx="36.24" ry="17.98"/><ellipse class="cls-4" cx="331.65" cy="168.49" rx="36.24" ry="17.98"/><path class="cls-5" d="M424.19,147.42c0,4.87-10.73,8.83-24,8.83-10.59,0-19.17-3.16-19.17-7.06,0-3.12,6.87-5.65,15.34-5.65,6.78,0,12.27,2,12.27,4.52,0,2-4.4,3.61-9.82,3.61-4.34,0-7.85-1.29-7.85-2.89,0-1.28,2.81-2.31,6.28-2.31,2.78,0,5,.83,5,1.85,0,.82-1.8,1.48-4,1.48-1.78,0-3.22-.53-3.22-1.19s1.15-.95,2.57-.95c1.14,0,2.06.34,2.06.76S399,149,398,149c-.73,0-1.32-.22-1.32-.48"/><path class="cls-6" d="M481.29,146.18c0,2.36-5.2,4.28-11.61,4.28-5.13,0-9.29-1.53-9.29-3.42,0-1.51,3.33-2.74,7.43-2.74,3.28,0,5.95,1,5.95,2.19,0,1-2.13,1.75-4.76,1.75-2.1,0-3.81-.63-3.81-1.4,0-.62,1.36-1.12,3-1.12,1.35,0,2.44.4,2.44.9s-.87.72-1.95.72c-.86,0-1.56-.26-1.56-.57s.56-.46,1.25-.46,1,.16,1,.37-.36.29-.8.29-.64-.11-.64-.23"/><path class="cls-6" d="M410.15,123.21c0,2.36-5.2,4.28-11.61,4.28-5.13,0-9.29-1.53-9.29-3.42,0-1.51,3.33-2.74,7.43-2.74,3.28,0,5.95,1,5.95,2.19,0,1-2.13,1.75-4.76,1.75-2.1,0-3.8-.63-3.8-1.4,0-.62,1.36-1.12,3-1.12,1.34,0,2.44.4,2.44.9s-.87.72-1.95.72c-.86,0-1.56-.26-1.56-.57s.56-.46,1.25-.46,1,.16,1,.37-.36.29-.8.29-.64-.11-.64-.24"/><path class="cls-7" d="M340.31,88c0,3.1-6.82,5.61-15.22,5.61-6.73,0-12.18-2-12.18-4.48,0-2,4.36-3.59,9.74-3.59,4.3,0,7.79,1.29,7.79,2.87,0,1.27-2.79,2.3-6.24,2.3-2.75,0-5-.82-5-1.84,0-.81,1.79-1.47,4-1.47,1.76,0,3.19.53,3.19,1.18s-1.14.94-2.55.94c-1.13,0-2-.34-2-.75s.73-.6,1.63-.6c.72,0,1.31.22,1.31.48s-.47.39-1,.39-.84-.14-.84-.31"/><path class="cls-8" d="M483.64,168.43c0,3.77-8.31,6.83-18.55,6.83-8.2,0-14.84-2.45-14.84-5.46,0-2.42,5.31-4.37,11.87-4.37,5.25,0,9.5,1.57,9.5,3.5,0,1.55-3.4,2.8-7.6,2.8-3.36,0-6.08-1-6.08-2.24,0-1,2.18-1.79,4.86-1.79,2.15,0,3.89.64,3.89,1.43,0,.63-1.39,1.15-3.11,1.15-1.37,0-2.49-.41-2.49-.92s.89-.73,2-.73c.88,0,1.59.26,1.59.59s-.57.47-1.28.47-1-.17-1-.38"/><path class="cls-5" d="M363.77,121.94c0,4.87-10.73,8.83-24,8.83-10.59,0-19.17-3.16-19.17-7.06,0-3.12,6.87-5.65,15.34-5.65,6.78,0,12.27,2,12.27,4.52,0,2-4.4,3.61-9.82,3.61-4.34,0-7.85-1.29-7.85-2.89,0-1.28,2.81-2.31,6.28-2.31,2.78,0,5,.83,5,1.85,0,.82-1.8,1.48-4,1.48-1.78,0-3.22-.53-3.22-1.18s1.15-.95,2.57-.95c1.14,0,2.06.34,2.06.76s-.74.61-1.65.61c-.73,0-1.32-.22-1.32-.49"/><path class="cls-5" d="M402.75,93.59c0,4.87-10.73,8.82-24,8.82-10.59,0-19.17-3.16-19.17-7.06,0-3.12,6.87-5.65,15.34-5.65,6.78,0,12.27,2,12.27,4.52,0,2-4.39,3.62-9.82,3.62-4.34,0-7.85-1.29-7.85-2.89,0-1.28,2.81-2.31,6.28-2.31,2.78,0,5,.83,5,1.85,0,.82-1.8,1.48-4,1.48-1.78,0-3.22-.53-3.22-1.18s1.15-.95,2.57-.95c1.14,0,2.06.34,2.06.76s-.74.61-1.65.61c-.73,0-1.32-.22-1.32-.49"/><path class="cls-5" d="M469.59,120.86c0,4.87-10.73,8.83-24,8.83-10.59,0-19.17-3.16-19.17-7.06,0-3.12,6.87-5.65,15.34-5.65,6.78,0,12.27,2,12.27,4.52,0,2-4.39,3.62-9.81,3.62-4.34,0-7.85-1.29-7.85-2.89,0-1.28,2.81-2.31,6.28-2.31,2.78,0,5,.83,5,1.85,0,.82-1.8,1.48-4,1.48-1.78,0-3.22-.53-3.22-1.18s1.15-.95,2.57-.95c1.14,0,2.06.34,2.06.76s-.74.61-1.65.61c-.73,0-1.32-.22-1.32-.49"/><path class="cls-5" d="M163.81,147.78c0,4.87,10.73,8.83,24,8.83,10.59,0,19.17-3.16,19.17-7.06,0-3.12-6.87-5.65-15.34-5.65-6.78,0-12.27,2-12.27,4.52,0,2,4.4,3.62,9.82,3.62,4.34,0,7.85-1.29,7.85-2.89,0-1.28-2.81-2.31-6.28-2.31-2.78,0-5,.83-5,1.85,0,.82,1.8,1.48,4,1.48,1.78,0,3.22-.53,3.22-1.18s-1.15-.95-2.57-.95c-1.14,0-2.06.34-2.06.76s.74.61,1.65.61c.73,0,1.32-.22,1.32-.49"/><path class="cls-6" d="M106.71,146.54c0,2.36,5.2,4.28,11.61,4.28,5.13,0,9.29-1.53,9.29-3.42,0-1.51-3.33-2.74-7.43-2.74-3.28,0-5.95,1-5.95,2.19,0,1,2.13,1.75,4.76,1.75,2.1,0,3.8-.63,3.8-1.4,0-.62-1.36-1.12-3-1.12-1.35,0-2.44.4-2.44.9s.87.72,1.95.72c.86,0,1.56-.26,1.56-.57s-.56-.46-1.25-.46-1,.16-1,.37.36.29.8.29.64-.1.64-.23"/><path class="cls-6" d="M177.85,123.57c0,2.36,5.2,4.28,11.61,4.28,5.13,0,9.29-1.53,9.29-3.42,0-1.51-3.33-2.74-7.43-2.74-3.28,0-5.95,1-5.95,2.19,0,1,2.13,1.75,4.76,1.75,2.1,0,3.8-.63,3.8-1.4,0-.62-1.36-1.12-3-1.12-1.35,0-2.44.4-2.44.9s.87.72,1.95.72c.86,0,1.56-.26,1.56-.57s-.56-.46-1.25-.46-1,.16-1,.37.36.29.8.29.64-.1.64-.23"/><path class="cls-7" d="M247.69,88.39c0,3.1,6.82,5.61,15.22,5.61,6.72,0,12.18-2,12.18-4.48,0-2-4.36-3.59-9.74-3.59-4.3,0-7.79,1.29-7.79,2.87,0,1.27,2.79,2.3,6.23,2.3,2.75,0,5-.82,5-1.84,0-.81-1.79-1.47-4-1.47-1.76,0-3.19.53-3.19,1.18s1.14.94,2.55.94c1.13,0,2-.34,2-.75s-.73-.6-1.63-.6c-.72,0-1.31.22-1.31.48s.47.39,1,.39.84-.14.84-.31"/><path class="cls-8" d="M104.36,168.79c0,3.77,8.31,6.83,18.55,6.83,8.2,0,14.84-2.45,14.84-5.46,0-2.42-5.32-4.37-11.87-4.37-5.25,0-9.5,1.57-9.5,3.5,0,1.55,3.4,2.8,7.6,2.8,3.36,0,6.08-1,6.08-2.24,0-1-2.18-1.79-4.86-1.79-2.15,0-3.89.64-3.89,1.43,0,.63,1.39,1.15,3.11,1.15,1.37,0,2.49-.41,2.49-.92s-.89-.73-2-.73c-.88,0-1.59.26-1.59.59s.57.47,1.27.47,1-.17,1-.38"/><path class="cls-5" d="M224.23,122.3c0,4.87,10.73,8.83,24,8.83,10.59,0,19.17-3.16,19.17-7.06,0-3.12-6.87-5.65-15.34-5.65-6.78,0-12.27,2-12.27,4.52,0,2,4.4,3.61,9.82,3.61,4.34,0,7.85-1.29,7.85-2.89,0-1.28-2.81-2.31-6.28-2.31-2.78,0-5,.83-5,1.85,0,.82,1.8,1.48,4,1.48,1.78,0,3.22-.53,3.22-1.18s-1.15-.95-2.57-.95c-1.14,0-2.06.34-2.06.76s.74.61,1.65.61c.73,0,1.32-.22,1.32-.48"/><path class="cls-5" d="M185.25,93.95c0,4.87,10.73,8.83,24,8.83,10.59,0,19.17-3.16,19.17-7.06,0-3.12-6.87-5.65-15.34-5.65-6.78,0-12.27,2-12.27,4.52,0,2,4.4,3.61,9.82,3.61,4.34,0,7.85-1.29,7.85-2.89,0-1.28-2.81-2.31-6.28-2.31-2.78,0-5,.83-5,1.85,0,.82,1.8,1.48,4,1.48,1.78,0,3.22-.53,3.22-1.18s-1.15-.95-2.57-.95c-1.14,0-2.06.34-2.06.76s.74.61,1.65.61c.73,0,1.32-.22,1.32-.49"/><path class="cls-5" d="M113.13,121.22c0,4.87,10.73,8.83,24,8.83,10.59,0,19.17-3.16,19.17-7.06,0-3.12-6.87-5.65-15.34-5.65-6.78,0-12.27,2-12.27,4.52,0,2,4.39,3.61,9.82,3.61,4.34,0,7.85-1.29,7.85-2.89,0-1.28-2.81-2.31-6.28-2.31-2.78,0-5,.83-5,1.85,0,.82,1.8,1.48,4,1.48,1.78,0,3.22-.53,3.22-1.18s-1.15-.95-2.57-.95c-1.14,0-2.06.34-2.06.76s.74.61,1.65.61c.73,0,1.32-.22,1.32-.49"/><ellipse class="cls-9" cx="258.85" cy="163.86" rx="36.24" ry="13.35"/><ellipse cx="267.36" cy="167.8" rx="16.57" ry="6.1"/><ellipse class="cls-9" cx="331.65" cy="163.86" rx="36.24" ry="13.35"/><ellipse cx="323.13" cy="167.8" rx="16.57" ry="6.1"/><rect class="cls-10" width="576" height="602"/></g></g></svg>