<svg xmlns="http://www.w3.org/2000/svg" viewBox="0 0 507.82 502.52"><defs><style>.cls-1{opacity:0.3;}.cls-2{fill:#eeedd9;}.cls-3{fill:#fbfbe2;}.cls-4{fill:#ff7bab;}.cls-5{fill:#c61a4b;}.cls-6{fill:#ff3960;}</style></defs><title>Recurso 19</title><g id="Capa_2" data-name="Capa 2"><g id="Capa_1-2" data-name="Capa 1"><ellipse class="cls-1" cx="253.91" cy="380.07" rx="253.91" ry="122.44"/><path class="cls-2" d="M481.21,368.4c0,53.9-101.59,97.59-226.92,97.59S27.38,422.3,27.38,368.4c0-9.07-.79-194-.86-211.4-.33-86.1,233.59-86,233.59-86C289.18,73,480.8,73.39,481.77,160.41,482,179.81,481.21,358.57,481.21,368.4Z"/><ellipse class="cls-2" cx="254.29" cy="157.47" rx="226.92" ry="111.05"/><path class="cls-3" d="M254.5,471c-7.52,0-14.11-4.64-19.92-8.74-4.25-3-8.64-6.09-12-6.31-3.7-.24-8.65,2.32-13.44,4.81-6.45,3.35-13.13,6.81-20.25,5.83-7.6-1.05-13.53-6.66-18.76-11.61-3.72-3.52-7.56-7.15-10.74-7.85-3.73-.82-9.08.93-14.25,2.62-6.91,2.27-14.06,4.61-20.85,2.42-7.65-2.47-12.53-9.34-16.83-15.4-2.85-4-5.79-8.16-8.57-9.46-3.67-1.71-9.32-1.39-14.78-1.08-7.41.42-15.07.85-20.92-3.34-7.55-5.4-9.47-14.49-11.16-22.52-.89-4.21-1.8-8.57-3.37-10.77-2.08-2.93-5.82-5.81-9.43-8.6-6.87-5.3-14.65-11.3-14.65-20.58a6,6,0,0,1,12,0c0,3.38,5.07,7.29,10,11.08,4.31,3.32,8.77,6.76,11.88,11.15s4.19,9.84,5.33,15.25c1.3,6.17,2.64,12.55,6.4,15.23,2.42,1.73,7.93,1.42,13.27,1.12,6.62-.37,14.12-.79,20.52,2.19,5.66,2.64,9.54,8.11,13.29,13.39,3.38,4.76,6.87,9.68,10.72,10.92,3.09,1,8.35-.73,13.44-2.4,6.39-2.09,13.63-4.47,20.57-2.94,6.44,1.42,11.51,6.22,16.41,10.86,4.11,3.89,8.37,7.92,12.16,8.44,3.33.46,8.29-2.11,13.08-4.59,6.25-3.25,12.72-6.6,19.76-6.13,6.72.45,12.51,4.53,18.11,8.48,4.57,3.22,9.29,6.55,13,6.55s8.44-3.33,13-6.55c5.6-3.95,11.39-8,18.11-8.48,7-.47,13.5,2.89,19.76,6.13,4.79,2.48,9.74,5.05,13.08,4.59,3.79-.52,8-4.55,12.16-8.44,4.9-4.64,10-9.44,16.41-10.86,6.93-1.53,14.18.84,20.56,2.94,5.09,1.67,10.35,3.39,13.43,2.4,3.86-1.24,7.35-6.16,10.72-10.92,3.75-5.29,7.63-10.76,13.29-13.39,6.4-3,13.9-2.56,20.52-2.19,5.34.3,10.85.61,13.27-1.12,3.75-2.68,5.1-9.06,6.4-15.23,1.14-5.41,2.32-11,5.33-15.25s7.58-7.82,11.88-11.15c4.91-3.79,10-7.7,10-11.08a6,6,0,0,1,12,0c0,9.28-7.79,15.29-14.65,20.58-3.61,2.79-7.35,5.67-9.43,8.6-1.57,2.21-2.48,6.56-3.37,10.77-1.69,8-3.61,17.12-11.16,22.52-5.85,4.19-13.51,3.76-20.92,3.34-5.46-.31-11.11-.62-14.78,1.08-2.78,1.29-5.73,5.45-8.57,9.46-4.3,6.06-9.18,12.93-16.83,15.4-6.79,2.19-13.94-.15-20.85-2.42-5.17-1.69-10.51-3.45-14.24-2.62-3.19.7-7,4.34-10.75,7.85-5.23,4.95-11.16,10.56-18.76,11.61-7.12,1-13.79-2.48-20.25-5.83-4.79-2.49-9.76-5.06-13.43-4.81-3.36.22-7.75,3.32-12,6.31C268.61,466.35,262,471,254.5,471Z"/><path class="cls-3" d="M254.5,423c-7.52,0-14.11-4.64-19.92-8.74-4.25-3-8.64-6.09-12-6.31-3.7-.25-8.65,2.32-13.44,4.81-6.45,3.35-13.13,6.81-20.25,5.83-7.6-1.05-13.53-6.66-18.76-11.61-3.72-3.52-7.56-7.15-10.74-7.85-3.73-.82-9.08.93-14.25,2.62-6.91,2.27-14.06,4.61-20.85,2.42-7.65-2.47-12.53-9.34-16.83-15.4-2.85-4-5.79-8.16-8.57-9.46-3.67-1.71-9.32-1.39-14.78-1.08-7.41.42-15.07.85-20.92-3.34-7.55-5.4-9.47-14.49-11.16-22.52-.89-4.21-1.8-8.57-3.37-10.77-2.08-2.93-5.82-5.81-9.43-8.6-6.87-5.3-14.65-11.3-14.65-20.58a6,6,0,0,1,12,0c0,3.38,5.07,7.29,10,11.08,4.31,3.32,8.77,6.76,11.88,11.15s4.19,9.84,5.33,15.25c1.3,6.17,2.64,12.55,6.4,15.23,2.42,1.73,7.93,1.42,13.27,1.12,6.62-.37,14.12-.79,20.52,2.19,5.66,2.64,9.54,8.11,13.29,13.39,3.38,4.76,6.87,9.68,10.72,10.92,3.09,1,8.35-.73,13.44-2.4,6.39-2.09,13.63-4.47,20.57-2.94,6.44,1.42,11.51,6.22,16.41,10.86,4.11,3.89,8.37,7.92,12.16,8.44,3.33.46,8.29-2.11,13.08-4.59,6.25-3.25,12.72-6.6,19.76-6.13,6.72.45,12.51,4.53,18.11,8.48,4.57,3.22,9.29,6.55,13,6.55s8.44-3.33,13-6.55c5.6-3.95,11.39-8,18.11-8.48,7-.47,13.5,2.89,19.76,6.13,4.79,2.48,9.74,5.05,13.08,4.59,3.79-.52,8-4.55,12.16-8.44,4.9-4.64,10-9.44,16.41-10.86,6.93-1.53,14.18.84,20.56,2.94,5.09,1.67,10.35,3.39,13.43,2.4,3.86-1.24,7.35-6.16,10.72-10.92,3.75-5.29,7.63-10.76,13.29-13.39,6.4-3,13.9-2.56,20.52-2.19,5.34.3,10.85.61,13.27-1.12,3.75-2.68,5.1-9.06,6.4-15.23,1.14-5.41,2.32-11,5.33-15.25s7.58-7.82,11.88-11.15c4.91-3.79,10-7.7,10-11.08a6,6,0,0,1,12,0c0,9.28-7.79,15.29-14.65,20.58-3.61,2.79-7.35,5.67-9.43,8.6-1.57,2.21-2.48,6.56-3.37,10.77-1.69,8-3.61,17.12-11.16,22.52-5.85,4.19-13.51,3.76-20.92,3.34-5.46-.31-11.11-.62-14.78,1.08-2.78,1.29-5.73,5.45-8.57,9.46-4.3,6.06-9.18,12.93-16.83,15.4-6.79,2.19-13.94-.15-20.85-2.42-5.17-1.69-10.51-3.45-14.24-2.62-3.19.7-7,4.34-10.75,7.85-5.23,4.95-11.16,10.56-18.76,11.61-7.12,1-13.79-2.48-20.25-5.83-4.79-2.49-9.76-5.06-13.43-4.81-3.36.22-7.75,3.32-12,6.31C268.61,418.35,262,423,254.5,423Z"/><path class="cls-3" d="M254.5,377c-7.52,0-14.11-4.64-19.92-8.74-4.25-3-8.64-6.09-12-6.31-3.7-.24-8.65,2.32-13.44,4.81-6.45,3.35-13.13,6.81-20.25,5.83-7.6-1.05-13.53-6.66-18.76-11.61-3.72-3.52-7.56-7.15-10.74-7.85-3.73-.82-9.08.93-14.25,2.62-6.91,2.27-14.06,4.61-20.85,2.42-7.65-2.47-12.53-9.34-16.83-15.4-2.85-4-5.79-8.16-8.57-9.46-3.67-1.71-9.32-1.39-14.78-1.08-7.41.42-15.07.85-20.92-3.34-7.55-5.4-9.47-14.49-11.16-22.52-.89-4.21-1.8-8.57-3.37-10.77-2.08-2.93-5.82-5.81-9.43-8.6-6.87-5.3-14.65-11.3-14.65-20.58a6,6,0,0,1,12,0c0,3.38,5.07,7.29,10,11.08,4.31,3.32,8.77,6.76,11.88,11.15s4.19,9.84,5.33,15.25c1.3,6.17,2.64,12.55,6.4,15.23,2.42,1.73,7.93,1.42,13.27,1.12,6.62-.37,14.12-.79,20.52,2.19,5.66,2.64,9.54,8.11,13.29,13.39,3.38,4.76,6.87,9.68,10.72,10.92,3.09,1,8.35-.73,13.44-2.4,6.39-2.09,13.63-4.47,20.57-2.94,6.44,1.42,11.51,6.22,16.41,10.86,4.11,3.89,8.37,7.92,12.16,8.44,3.33.46,8.29-2.11,13.08-4.59,6.25-3.25,12.72-6.6,19.76-6.13,6.72.45,12.51,4.53,18.11,8.48,4.57,3.22,9.29,6.55,13,6.55s8.44-3.33,13-6.55c5.6-3.95,11.39-8,18.11-8.48,7-.47,13.5,2.89,19.76,6.13,4.79,2.48,9.74,5.05,13.08,4.59,3.79-.52,8-4.55,12.16-8.44,4.9-4.64,10-9.44,16.41-10.86,6.93-1.53,14.18.84,20.56,2.94,5.09,1.67,10.35,3.39,13.43,2.4,3.86-1.24,7.35-6.16,10.72-10.92,3.75-5.29,7.63-10.76,13.29-13.39,6.4-3,13.9-2.56,20.52-2.19,5.34.3,10.85.61,13.27-1.12,3.75-2.68,5.1-9.06,6.4-15.23,1.14-5.41,2.32-11,5.33-15.25s7.58-7.82,11.88-11.15c4.91-3.79,10-7.7,10-11.08a6,6,0,0,1,12,0c0,9.28-7.79,15.29-14.65,20.58-3.61,2.79-7.35,5.67-9.43,8.6-1.57,2.21-2.48,6.56-3.37,10.77-1.69,8-3.61,17.12-11.16,22.52-5.85,4.19-13.51,3.76-20.92,3.34-5.46-.31-11.11-.62-14.78,1.08-2.78,1.29-5.73,5.45-8.57,9.46-4.3,6.06-9.18,12.93-16.83,15.4-6.79,2.19-13.94-.15-20.85-2.42-5.17-1.69-10.51-3.45-14.24-2.62-3.19.7-7,4.34-10.75,7.85-5.23,4.95-11.16,10.56-18.76,11.61-7.12,1-13.79-2.48-20.25-5.83-4.79-2.49-9.76-5.06-13.43-4.81-3.36.22-7.75,3.32-12,6.31C268.61,372.35,262,377,254.5,377Z"/><path class="cls-3" d="M254.5,331c-7.52,0-14.11-4.64-19.92-8.74-4.25-3-8.64-6.09-12-6.31-3.7-.24-8.65,2.32-13.44,4.81-6.45,3.35-13.13,6.81-20.25,5.83-7.6-1.05-13.53-6.66-18.76-11.61-3.72-3.52-7.56-7.15-10.74-7.85-3.73-.82-9.08.93-14.25,2.62-6.91,2.27-14.06,4.61-20.85,2.42-7.65-2.47-12.53-9.34-16.83-15.4-2.85-4-5.79-8.16-8.57-9.46-3.67-1.71-9.32-1.39-14.78-1.08-7.41.42-15.07.85-20.92-3.34-7.55-5.4-9.47-14.49-11.16-22.52-.89-4.21-1.8-8.57-3.37-10.77-2.08-2.93-5.82-5.81-9.43-8.6-6.87-5.3-14.65-11.3-14.65-20.58a6,6,0,0,1,12,0c0,3.38,5.07,7.29,10,11.08,4.31,3.32,8.77,6.76,11.88,11.15s4.19,9.84,5.33,15.25c1.3,6.17,2.64,12.55,6.4,15.23,2.42,1.73,7.93,1.42,13.27,1.12,6.62-.37,14.12-.79,20.52,2.19,5.66,2.64,9.54,8.11,13.29,13.39,3.38,4.76,6.87,9.68,10.72,10.92,3.09,1,8.35-.73,13.44-2.4,6.39-2.09,13.63-4.47,20.57-2.94,6.44,1.42,11.51,6.22,16.41,10.86,4.11,3.89,8.37,7.92,12.16,8.44,3.33.46,8.29-2.11,13.08-4.59,6.25-3.25,12.72-6.6,19.76-6.13,6.72.45,12.51,4.53,18.11,8.48,4.57,3.22,9.29,6.55,13,6.55s8.44-3.33,13-6.55c5.6-3.95,11.39-8,18.11-8.48,7-.47,13.5,2.89,19.76,6.13,4.79,2.48,9.74,5.05,13.08,4.59,3.79-.52,8-4.55,12.16-8.44,4.9-4.64,10-9.44,16.41-10.86,6.93-1.53,14.18.84,20.56,2.94,5.09,1.67,10.35,3.39,13.43,2.4,3.86-1.24,7.35-6.16,10.72-10.92,3.75-5.29,7.63-10.76,13.29-13.39,6.4-3,13.9-2.56,20.52-2.19,5.34.3,10.85.61,13.27-1.12,3.75-2.68,5.1-9.06,6.4-15.23,1.14-5.41,2.32-11,5.33-15.25s7.58-7.82,11.88-11.15c4.91-3.79,10-7.7,10-11.08a6,6,0,0,1,12,0c0,9.28-7.79,15.29-14.65,20.58-3.61,2.79-7.35,5.67-9.43,8.6-1.57,2.21-2.48,6.56-3.37,10.77-1.69,8-3.61,17.12-11.16,22.52-5.85,4.19-13.51,3.76-20.92,3.34-5.46-.31-11.11-.62-14.78,1.08-2.78,1.29-5.73,5.45-8.57,9.46-4.3,6.06-9.18,12.93-16.83,15.4-6.79,2.19-13.94-.15-20.85-2.42-5.17-1.69-10.51-3.45-14.24-2.62-3.19.7-7,4.34-10.75,7.85-5.23,4.95-11.16,10.56-18.76,11.61-7.12,1-13.79-2.48-20.25-5.83-4.79-2.49-9.76-5.06-13.43-4.81-3.36.22-7.75,3.32-12,6.31C268.61,326.35,262,331,254.5,331Z"/><path class="cls-3" d="M254.5,283c-7.52,0-14.11-4.64-19.92-8.74-4.25-3-8.64-6.09-12-6.31-3.7-.24-8.65,2.33-13.44,4.81-6.45,3.35-13.13,6.81-20.25,5.83-7.6-1.05-13.53-6.66-18.76-11.61-3.72-3.52-7.56-7.15-10.74-7.85-3.73-.82-9.08.93-14.25,2.62-6.91,2.27-14.06,4.61-20.85,2.42-7.65-2.47-12.53-9.34-16.83-15.4-2.85-4-5.79-8.16-8.57-9.46-3.67-1.71-9.32-1.39-14.78-1.08-7.41.42-15.07.85-20.92-3.34-7.55-5.4-9.47-14.49-11.16-22.52-.89-4.21-1.8-8.57-3.37-10.77-2.08-2.93-5.82-5.81-9.43-8.6-6.87-5.3-14.65-11.3-14.65-20.58a6,6,0,0,1,12,0c0,3.38,5.07,7.29,10,11.08,4.31,3.32,8.77,6.76,11.88,11.15s4.19,9.84,5.33,15.25c1.3,6.17,2.64,12.55,6.4,15.23,2.42,1.73,7.93,1.42,13.27,1.12,6.62-.37,14.12-.79,20.52,2.19,5.66,2.64,9.54,8.11,13.29,13.39,3.38,4.76,6.87,9.68,10.72,10.92,3.09,1,8.35-.73,13.44-2.4,6.39-2.09,13.63-4.47,20.57-2.94,6.44,1.42,11.51,6.22,16.41,10.86,4.11,3.89,8.37,7.92,12.16,8.44,3.33.46,8.29-2.11,13.08-4.59,6.25-3.25,12.72-6.6,19.76-6.13,6.72.45,12.51,4.53,18.11,8.48,4.57,3.22,9.29,6.55,13,6.55s8.44-3.33,13-6.55c5.6-3.95,11.39-8,18.11-8.48,7-.47,13.5,2.89,19.76,6.13,4.79,2.48,9.74,5.05,13.08,4.59,3.79-.52,8-4.55,12.16-8.44,4.9-4.64,10-9.44,16.41-10.86,6.93-1.53,14.18.84,20.56,2.94,5.09,1.67,10.35,3.39,13.43,2.4,3.86-1.24,7.35-6.16,10.72-10.92,3.75-5.29,7.63-10.76,13.29-13.39,6.4-3,13.9-2.56,20.52-2.19,5.34.3,10.85.61,13.27-1.12,3.75-2.68,5.1-9.06,6.4-15.23,1.14-5.41,2.32-11,5.33-15.25s7.58-7.82,11.88-11.15c4.91-3.79,10-7.7,10-11.08a6,6,0,0,1,12,0c0,9.28-7.79,15.29-14.65,20.58-3.61,2.79-7.35,5.67-9.43,8.6-1.57,2.21-2.48,6.56-3.37,10.77-1.69,8-3.61,17.12-11.16,22.52-5.85,4.19-13.51,3.76-20.92,3.34-5.46-.31-11.11-.62-14.78,1.08-2.78,1.29-5.73,5.45-8.57,9.46-4.3,6.06-9.18,12.93-16.83,15.4-6.79,2.19-13.94-.15-20.85-2.42-5.17-1.69-10.51-3.45-14.24-2.62-3.19.7-7,4.34-10.75,7.85-5.23,4.95-11.16,10.56-18.76,11.61-7.12,1-13.79-2.48-20.25-5.83-4.79-2.49-9.76-5.06-13.43-4.81-3.36.22-7.75,3.32-12,6.31C268.61,278.35,262,283,254.5,283Z"/><path class="cls-3" d="M104,40l48.86,20.05.15.06c7,2.93,8.31,8.53,2.76,11.15L92.23,101.34c-5.1,2.41-14.13,0-15.66-4.24l0-.09-15-43.49C56.56,39.08,82,31,104,40Z"/><path class="cls-3" d="M402.77,41.5,351.29,53.3l-.15,0c-7.4,1.74-9.6,7.05-4.55,10.55l57.78,40.06c4.64,3.22,13.94,2.32,16.14-1.62l0-.08,21.91-40.46C449.74,48.34,426,36.19,402.77,41.5Z"/><path d="M110.53,148.54q-24.36-2-48.06-5.71c-9.31-1.47-13.28,6.64-4,8.11q23.69,3.74,48.06,5.71c4,.33,8-.56,9.23-2.94,1-2-1.23-4.85-5.24-5.17Z"/><path d="M102,164l-47.94-2.1c-9.62-.42-9.58,8,0,8.41l47.94,2.1c9.63.42,9.58-8,0-8.41Z"/><path d="M104.5,179c-15.11.88-30.27,2.12-45.48,2.3-9.64.12-9.67,8.53,0,8.41,15.21-.18,30.36-1.42,45.48-2.3,4-.23,7.5-1.77,7.5-4.21,0-2.09-3.45-4.44-7.5-4.21Z"/><path d="M406.35,148.54q24.36-2,48.06-5.71c9.31-1.47,13.28,6.64,4,8.11q-23.69,3.74-48.06,5.71c-4,.33-8-.56-9.23-2.94-1-2,1.23-4.85,5.24-5.17Z"/><path d="M414.87,164l47.94-2.1c9.63-.42,9.58,8,0,8.41l-47.94,2.1c-9.63.42-9.58-8,0-8.41Z"/><path d="M412.38,179c15.11.88,30.27,2.12,45.48,2.3,9.64.12,9.67,8.53,0,8.41-15.21-.18-30.36-1.42-45.48-2.3-4-.23-7.5-1.77-7.5-4.21,0-2.09,3.45-4.44,7.5-4.21Z"/><ellipse class="cls-4" cx="261.89" cy="159.22" rx="16.08" ry="10.77"/><path class="cls-5" d="M483.59,74.16c-13.81-7.74-42.08-13.26-64.56-11-.9-3.12-3.48-6.11-7.76-8.51A38.53,38.53,0,0,0,396.1,50.3c4-12.6-5.84-28.47-19.65-36.21-18.86-10.58-37.94-2-59.13,9.87s-36.47,22.58-17.61,33.15c13.81,7.74,42.08,13.26,64.56,11,.9,3.12,3.48,6.11,7.76,8.51A38.54,38.54,0,0,0,387.2,81c-4,12.6,5.84,28.47,19.65,36.21,18.86,10.58,37.94,2,59.13-9.87S502.46,84.73,483.59,74.16Z"/><path class="cls-6" d="M385.63,53c-21.19,11.88-67.05,5.43-85.92-5.14s-3.58-21.27,17.61-33.15,40.27-20.45,59.13-9.87S406.82,41.08,385.63,53Z"/><path class="cls-6" d="M397.68,59.72c21.19-11.88,67.05-5.43,85.92,5.14S487.18,86.14,466,98s-40.27,20.45-59.13,9.87S376.48,71.6,397.68,59.72Z"/><path class="cls-5" d="M411.27,67.34c-10.83,6.08-28.4,6.08-39.24,0s-10.83-15.92,0-22,28.4-6.07,39.24,0S422.11,61.27,411.27,67.34Z"/><ellipse cx="170.1" cy="128.28" rx="15.94" ry="12.16"/><ellipse cx="348.79" cy="128.28" rx="15.94" ry="12.16"/></g></g></svg>