<svg xmlns="http://www.w3.org/2000/svg" viewBox="0 0 507.82 478.67"><defs><style>.cls-1{fill:#ff7bab;}.cls-2{opacity:0.3;}.cls-3{fill:#ff3960;}.cls-4{fill:#fc7292;}.cls-5{fill:#fff;}.cls-6{fill:#f8f9d2;}.cls-7{fill:#c98224;}.cls-8{fill:#faaf3b;}</style></defs><title>Recurso 21</title><g id="Capa_2" data-name="Capa 2"><g id="Capa_1-2" data-name="Capa 1"><path d="M142.14,2,204,26.31c4.27,1.68,6.75,4.2,6.75,6.86V84.33c0,7.69-18.89,11.71-30.62,6.52L118.27,63.5c-3.79-1.67-5.94-4-5.94-6.52V8.86C112.33,1.41,130.2-2.7,142.14,2Z"/><path d="M376.9,2,315.07,26.31c-4.27,1.68-6.75,4.2-6.75,6.86V84.33c0,7.69,18.89,11.71,30.62,6.52L400.77,63.5c3.79-1.67,5.94-4,5.94-6.52V8.86C406.71,1.41,388.84-2.7,376.9,2Z"/><path class="cls-1" d="M147.49,13.58l45.95,18.07c3.17,1.25,5,3.12,5,5.1v38c0,5.71-14,8.71-22.76,4.85L129.74,59.28c-2.81-1.24-4.42-3-4.42-4.85V18.68C125.33,13.14,138.61,10.08,147.49,13.58Z"/><path class="cls-1" d="M372.39,13.09,326.44,31.16c-3.17,1.25-5,3.12-5,5.1v38c0,5.72,14,8.71,22.76,4.85L390.14,58.8c2.81-1.25,4.42-3,4.42-4.85V18.19C394.55,12.66,381.27,9.6,372.39,13.09Z"/><ellipse class="cls-2" cx="253.91" cy="356.22" rx="253.91" ry="122.44"/><path class="cls-3" d="M481.21,344.55c0,53.9-101.59,97.59-226.92,97.59S27.38,398.44,27.38,344.55c0-9.07-.79-194-.86-211.4-.33-86.1,233.59-86,233.59-86,29.07,1.94,220.69,2.35,221.66,89.37C482,156,481.21,334.72,481.21,344.55Z"/><ellipse class="cls-3" cx="254.29" cy="133.62" rx="226.92" ry="111.05"/><path class="cls-4" d="M254.5,447.14c-7.52,0-14.11-4.64-19.92-8.74-4.25-3-8.64-6.09-12-6.31-3.7-.24-8.65,2.32-13.44,4.81-6.45,3.35-13.13,6.81-20.25,5.83-7.6-1.05-13.53-6.66-18.76-11.61-3.72-3.52-7.56-7.15-10.74-7.85-3.73-.82-9.08.93-14.25,2.62-6.91,2.27-14.06,4.61-20.85,2.42-7.65-2.47-12.53-9.34-16.83-15.4-2.85-4-5.79-8.17-8.57-9.46-3.67-1.71-9.32-1.39-14.78-1.08-7.41.42-15.07.85-20.92-3.34-7.55-5.4-9.47-14.49-11.16-22.52-.89-4.21-1.8-8.57-3.37-10.77-2.08-2.93-5.82-5.81-9.43-8.6-6.87-5.3-14.65-11.3-14.65-20.58a6,6,0,0,1,12,0c0,3.38,5.07,7.29,10,11.08,4.31,3.32,8.77,6.76,11.88,11.15s4.19,9.84,5.33,15.25c1.3,6.17,2.64,12.55,6.4,15.23,2.42,1.73,7.93,1.42,13.27,1.12,6.62-.37,14.12-.79,20.52,2.19,5.66,2.64,9.54,8.11,13.29,13.39,3.38,4.76,6.87,9.68,10.72,10.92,3.09,1,8.35-.73,13.44-2.4C147.8,412.38,155,410,162,411.54c6.44,1.42,11.51,6.22,16.41,10.86,4.11,3.89,8.37,7.92,12.16,8.44,3.33.46,8.29-2.11,13.08-4.59,6.25-3.25,12.72-6.6,19.76-6.13,6.72.45,12.51,4.53,18.11,8.48,4.57,3.22,9.29,6.55,13,6.55s8.44-3.33,13-6.55c5.6-3.95,11.39-8,18.11-8.48,7-.47,13.5,2.89,19.76,6.13,4.79,2.48,9.74,5.05,13.08,4.59,3.79-.52,8-4.55,12.16-8.44,4.9-4.64,10-9.44,16.41-10.86,6.93-1.53,14.18.84,20.56,2.94,5.09,1.67,10.35,3.39,13.43,2.4,3.86-1.24,7.35-6.16,10.72-10.92,3.75-5.29,7.63-10.76,13.29-13.39,6.4-3,13.9-2.56,20.52-2.19,5.34.3,10.85.61,13.27-1.12,3.75-2.68,5.1-9.06,6.4-15.23,1.14-5.41,2.32-11,5.33-15.25s7.58-7.82,11.88-11.15c4.91-3.79,10-7.7,10-11.08a6,6,0,0,1,12,0c0,9.28-7.79,15.29-14.65,20.58-3.61,2.79-7.35,5.67-9.43,8.6-1.57,2.21-2.48,6.56-3.37,10.77-1.69,8-3.61,17.12-11.16,22.52-5.85,4.19-13.51,3.76-20.92,3.34-5.46-.31-11.11-.62-14.78,1.08-2.78,1.29-5.73,5.45-8.57,9.46-4.3,6.06-9.18,12.93-16.83,15.4-6.79,2.19-13.94-.15-20.85-2.42-5.17-1.69-10.51-3.45-14.24-2.62-3.19.7-7,4.34-10.75,7.85-5.23,4.95-11.16,10.56-18.76,11.61-7.12,1-13.79-2.48-20.25-5.83-4.79-2.49-9.76-5.06-13.43-4.81-3.36.22-7.75,3.32-12,6.31C268.61,442.49,262,447.14,254.5,447.14Z"/><path class="cls-4" d="M254.5,399.14c-7.52,0-14.11-4.64-19.92-8.74-4.25-3-8.64-6.09-12-6.31-3.7-.25-8.65,2.32-13.44,4.81-6.45,3.35-13.13,6.81-20.25,5.83-7.6-1.05-13.53-6.66-18.76-11.61-3.72-3.52-7.56-7.15-10.74-7.85-3.73-.82-9.08.93-14.25,2.62-6.91,2.27-14.06,4.61-20.85,2.42-7.65-2.47-12.53-9.34-16.83-15.4-2.85-4-5.79-8.17-8.57-9.46-3.67-1.71-9.32-1.39-14.78-1.08-7.41.42-15.07.85-20.92-3.34-7.55-5.4-9.47-14.49-11.16-22.52-.89-4.21-1.8-8.57-3.37-10.77-2.08-2.93-5.82-5.81-9.43-8.6-6.87-5.3-14.65-11.3-14.65-20.58a6,6,0,0,1,12,0c0,3.38,5.07,7.29,10,11.08,4.31,3.32,8.77,6.76,11.88,11.15s4.19,9.84,5.33,15.25c1.3,6.17,2.64,12.55,6.4,15.23,2.42,1.73,7.93,1.42,13.27,1.12,6.62-.37,14.12-.79,20.52,2.19,5.66,2.64,9.54,8.11,13.29,13.39,3.38,4.76,6.87,9.68,10.72,10.92,3.09,1,8.35-.73,13.44-2.4C147.8,364.38,155,362,162,363.54c6.44,1.42,11.51,6.22,16.41,10.86,4.11,3.89,8.37,7.92,12.16,8.44,3.33.46,8.29-2.11,13.08-4.59,6.25-3.25,12.72-6.6,19.76-6.13,6.72.45,12.51,4.53,18.11,8.48,4.57,3.22,9.29,6.55,13,6.55s8.44-3.33,13-6.55c5.6-3.95,11.39-8,18.11-8.48,7-.47,13.5,2.89,19.76,6.13,4.79,2.48,9.74,5.05,13.08,4.59,3.79-.52,8-4.55,12.16-8.44,4.9-4.64,10-9.44,16.41-10.86,6.93-1.53,14.18.84,20.56,2.94,5.09,1.67,10.35,3.39,13.43,2.4,3.86-1.24,7.35-6.16,10.72-10.92,3.75-5.29,7.63-10.76,13.29-13.39,6.4-3,13.9-2.56,20.52-2.19,5.34.3,10.85.61,13.27-1.12,3.75-2.68,5.1-9.06,6.4-15.23,1.14-5.41,2.32-11,5.33-15.25s7.58-7.82,11.88-11.15c4.91-3.79,10-7.7,10-11.08a6,6,0,0,1,12,0c0,9.28-7.79,15.29-14.65,20.58-3.61,2.79-7.35,5.67-9.43,8.6-1.57,2.21-2.48,6.56-3.37,10.77-1.69,8-3.61,17.12-11.16,22.52-5.85,4.19-13.51,3.76-20.92,3.34-5.46-.31-11.11-.62-14.78,1.08-2.78,1.29-5.73,5.45-8.57,9.46-4.3,6.06-9.18,12.93-16.83,15.4-6.79,2.19-13.94-.15-20.85-2.42-5.17-1.69-10.51-3.45-14.24-2.62-3.19.7-7,4.34-10.75,7.85-5.23,4.95-11.16,10.56-18.76,11.61-7.12,1-13.79-2.48-20.25-5.83-4.79-2.49-9.76-5.06-13.43-4.81-3.36.22-7.75,3.32-12,6.31C268.61,394.49,262,399.14,254.5,399.14Z"/><path class="cls-4" d="M254.5,353.14c-7.52,0-14.11-4.64-19.92-8.74-4.25-3-8.64-6.09-12-6.31-3.7-.24-8.65,2.32-13.44,4.81-6.45,3.35-13.13,6.81-20.25,5.83-7.6-1.05-13.53-6.66-18.76-11.61-3.72-3.52-7.56-7.15-10.74-7.85-3.73-.82-9.08.93-14.25,2.62-6.91,2.27-14.06,4.61-20.85,2.42-7.65-2.47-12.53-9.34-16.83-15.4-2.85-4-5.79-8.17-8.57-9.46-3.67-1.71-9.32-1.39-14.78-1.08-7.41.42-15.07.85-20.92-3.34-7.55-5.4-9.47-14.49-11.16-22.52-.89-4.21-1.8-8.57-3.37-10.77-2.08-2.93-5.82-5.81-9.43-8.6-6.87-5.3-14.65-11.3-14.65-20.58a6,6,0,0,1,12,0c0,3.38,5.07,7.29,10,11.08,4.31,3.32,8.77,6.76,11.88,11.15s4.19,9.84,5.33,15.25c1.3,6.17,2.64,12.55,6.4,15.23,2.42,1.73,7.93,1.42,13.27,1.12,6.62-.37,14.12-.79,20.52,2.19,5.66,2.64,9.54,8.11,13.29,13.39,3.38,4.76,6.87,9.68,10.72,10.92,3.09,1,8.35-.73,13.44-2.4C147.8,318.38,155,316,162,317.54c6.44,1.42,11.51,6.22,16.41,10.86,4.11,3.89,8.37,7.92,12.16,8.44,3.33.46,8.29-2.11,13.08-4.59,6.25-3.25,12.72-6.6,19.76-6.13,6.72.45,12.51,4.53,18.11,8.48,4.57,3.22,9.29,6.55,13,6.55s8.44-3.33,13-6.55c5.6-3.95,11.39-8,18.11-8.48,7-.47,13.5,2.89,19.76,6.13,4.79,2.48,9.74,5.05,13.08,4.59,3.79-.52,8-4.55,12.16-8.44,4.9-4.64,10-9.44,16.41-10.86,6.93-1.53,14.18.84,20.56,2.94,5.09,1.67,10.35,3.39,13.43,2.4,3.86-1.24,7.35-6.16,10.72-10.92,3.75-5.29,7.63-10.76,13.29-13.39,6.4-3,13.9-2.56,20.52-2.19,5.34.3,10.85.61,13.27-1.12,3.75-2.68,5.1-9.06,6.4-15.23,1.14-5.41,2.32-11,5.33-15.25s7.58-7.82,11.88-11.15c4.91-3.79,10-7.7,10-11.08a6,6,0,0,1,12,0c0,9.28-7.79,15.29-14.65,20.58-3.61,2.79-7.35,5.67-9.43,8.6-1.57,2.21-2.48,6.56-3.37,10.77-1.69,8-3.61,17.12-11.16,22.52-5.85,4.19-13.51,3.76-20.92,3.34-5.46-.31-11.11-.62-14.78,1.08-2.78,1.29-5.73,5.45-8.57,9.46-4.3,6.06-9.18,12.93-16.83,15.4-6.79,2.19-13.94-.15-20.85-2.42-5.17-1.69-10.51-3.45-14.24-2.62-3.19.7-7,4.34-10.75,7.85-5.23,4.95-11.16,10.56-18.76,11.61-7.12,1-13.79-2.48-20.25-5.83-4.79-2.49-9.76-5.06-13.43-4.81-3.36.22-7.75,3.32-12,6.31C268.61,348.49,262,353.14,254.5,353.14Z"/><path class="cls-4" d="M254.5,307.14c-7.52,0-14.11-4.64-19.92-8.74-4.25-3-8.64-6.09-12-6.31-3.7-.24-8.65,2.32-13.44,4.81-6.45,3.35-13.13,6.81-20.25,5.83-7.6-1.05-13.53-6.66-18.76-11.61-3.72-3.52-7.56-7.15-10.74-7.85-3.73-.82-9.08.93-14.25,2.62-6.91,2.27-14.06,4.61-20.85,2.42-7.65-2.47-12.53-9.34-16.83-15.4-2.85-4-5.79-8.17-8.57-9.46-3.67-1.71-9.32-1.39-14.78-1.08-7.41.42-15.07.85-20.92-3.34-7.55-5.4-9.47-14.49-11.16-22.52-.89-4.21-1.8-8.57-3.37-10.77-2.08-2.93-5.82-5.81-9.43-8.6-6.87-5.3-14.65-11.3-14.65-20.58a6,6,0,0,1,12,0c0,3.38,5.07,7.29,10,11.08,4.31,3.32,8.77,6.76,11.88,11.15s4.19,9.84,5.33,15.25c1.3,6.17,2.64,12.55,6.4,15.23,2.42,1.73,7.93,1.42,13.27,1.12,6.62-.37,14.12-.79,20.52,2.19,5.66,2.64,9.54,8.11,13.29,13.39,3.38,4.76,6.87,9.68,10.72,10.92,3.09,1,8.35-.73,13.44-2.4C147.8,272.38,155,270,162,271.54c6.44,1.42,11.51,6.22,16.41,10.86,4.11,3.89,8.37,7.92,12.16,8.44,3.33.46,8.29-2.11,13.08-4.59,6.25-3.25,12.72-6.6,19.76-6.13,6.72.45,12.51,4.53,18.11,8.48,4.57,3.22,9.29,6.55,13,6.55s8.44-3.33,13-6.55c5.6-3.95,11.39-8,18.11-8.48,7-.47,13.5,2.89,19.76,6.13,4.79,2.48,9.74,5.05,13.08,4.59,3.79-.52,8-4.55,12.16-8.44,4.9-4.64,10-9.44,16.41-10.86,6.93-1.53,14.18.84,20.56,2.94,5.09,1.67,10.35,3.39,13.43,2.4,3.86-1.24,7.35-6.16,10.72-10.92,3.75-5.29,7.63-10.76,13.29-13.39,6.4-3,13.9-2.56,20.52-2.19,5.34.3,10.85.61,13.27-1.12,3.75-2.68,5.1-9.06,6.4-15.23,1.14-5.41,2.32-11,5.33-15.25s7.58-7.82,11.88-11.15c4.91-3.79,10-7.7,10-11.08a6,6,0,0,1,12,0c0,9.28-7.79,15.29-14.65,20.58-3.61,2.79-7.35,5.67-9.43,8.6-1.57,2.21-2.48,6.56-3.37,10.77-1.69,8-3.61,17.12-11.16,22.52-5.85,4.19-13.51,3.76-20.92,3.34-5.46-.31-11.11-.62-14.78,1.08-2.78,1.29-5.73,5.45-8.57,9.46-4.3,6.06-9.18,12.93-16.83,15.4-6.79,2.19-13.94-.15-20.85-2.42-5.17-1.69-10.51-3.45-14.24-2.62-3.19.7-7,4.34-10.75,7.85-5.23,4.95-11.16,10.56-18.76,11.61-7.12,1-13.79-2.48-20.25-5.83-4.79-2.49-9.76-5.06-13.43-4.81-3.36.22-7.75,3.32-12,6.31C268.61,302.49,262,307.14,254.5,307.14Z"/><path class="cls-4" d="M254.5,259.14c-7.52,0-14.11-4.64-19.92-8.74-4.25-3-8.64-6.09-12-6.31-3.7-.24-8.65,2.33-13.44,4.81-6.45,3.35-13.13,6.81-20.25,5.83-7.6-1.05-13.53-6.66-18.76-11.61-3.72-3.52-7.56-7.15-10.74-7.85-3.73-.82-9.08.93-14.25,2.62-6.91,2.27-14.06,4.61-20.85,2.42-7.65-2.47-12.53-9.34-16.83-15.4-2.85-4-5.79-8.16-8.57-9.46-3.67-1.71-9.32-1.39-14.78-1.08-7.41.42-15.07.85-20.92-3.34-7.55-5.4-9.47-14.49-11.16-22.52-.89-4.21-1.8-8.57-3.37-10.77-2.08-2.93-5.82-5.81-9.43-8.6-6.87-5.3-14.65-11.3-14.65-20.58a6,6,0,0,1,12,0c0,3.38,5.07,7.29,10,11.08,4.31,3.32,8.77,6.76,11.88,11.15s4.19,9.84,5.33,15.25c1.3,6.17,2.64,12.55,6.4,15.23,2.42,1.73,7.93,1.42,13.27,1.12,6.62-.37,14.12-.79,20.52,2.19,5.66,2.64,9.54,8.11,13.29,13.39,3.38,4.76,6.87,9.68,10.72,10.92,3.09,1,8.35-.73,13.44-2.4C147.8,224.38,155,222,162,223.54c6.44,1.42,11.51,6.22,16.41,10.86,4.11,3.89,8.37,7.92,12.16,8.44,3.33.46,8.29-2.11,13.08-4.59,6.25-3.25,12.72-6.6,19.76-6.13,6.72.45,12.51,4.53,18.11,8.48,4.57,3.22,9.29,6.55,13,6.55s8.44-3.33,13-6.55c5.6-3.95,11.39-8,18.11-8.48,7-.47,13.5,2.89,19.76,6.13,4.79,2.48,9.74,5.05,13.08,4.59,3.79-.52,8-4.55,12.16-8.44,4.9-4.64,10-9.44,16.41-10.86,6.93-1.53,14.18.84,20.56,2.94,5.09,1.67,10.35,3.39,13.43,2.4,3.86-1.24,7.35-6.16,10.72-10.92,3.75-5.29,7.63-10.76,13.29-13.39,6.4-3,13.9-2.56,20.52-2.19,5.34.3,10.85.61,13.27-1.12,3.75-2.68,5.1-9.06,6.4-15.23,1.14-5.41,2.32-11,5.33-15.25s7.58-7.82,11.88-11.15c4.91-3.79,10-7.7,10-11.08a6,6,0,0,1,12,0c0,9.28-7.79,15.29-14.65,20.58-3.61,2.79-7.35,5.67-9.43,8.6-1.57,2.21-2.48,6.56-3.37,10.77-1.69,8-3.61,17.12-11.16,22.52-5.85,4.19-13.51,3.76-20.92,3.34-5.46-.31-11.11-.62-14.78,1.08-2.78,1.29-5.73,5.45-8.57,9.46-4.3,6.06-9.18,12.93-16.83,15.4-6.79,2.19-13.94-.15-20.85-2.42-5.17-1.69-10.51-3.45-14.24-2.62-3.19.7-7,4.34-10.75,7.85-5.23,4.95-11.16,10.56-18.76,11.61-7.12,1-13.79-2.48-20.25-5.83-4.79-2.49-9.76-5.06-13.43-4.81-3.36.22-7.75,3.32-12,6.31C268.61,254.49,262,259.14,254.5,259.14Z"/><path class="cls-5" d="M121.23,96.08A339,339,0,0,1,85.43,90c-6.93-1.57-9.89,7.08-3,8.64a339,339,0,0,0,35.8,6.09c3,.35,6-.6,6.87-3.13.75-2.1-.92-5.17-3.9-5.51Z"/><path class="cls-5" d="M112.64,112.5l-35.57-2.24c-7.14-.45-7.11,8.52,0,9l35.57,2.24c7.14.45,7.11-8.52,0-9Z"/><path class="cls-5" d="M110.59,128.55c-14.08.94-28.19,2.26-42.36,2.45-9,.12-9,9.09,0,9,14.16-.19,28.28-1.51,42.36-2.45,3.75-.25,7-1.88,7-4.48,0-2.23-3.21-4.73-7-4.48Z"/><path class="cls-5" d="M395.66,96.08A332.69,332.69,0,0,0,431.11,90c6.87-1.57,9.8,7.08,2.94,8.64a332.71,332.71,0,0,1-35.45,6.09c-3,.35-5.91-.6-6.81-3.13-.74-2.1.91-5.17,3.86-5.51Z"/><path class="cls-5" d="M403.7,112.5,442,110.27c7.68-.45,7.64,8.52,0,9l-38.27,2.24c-7.68.45-7.64-8.52,0-9Z"/><path class="cls-5" d="M405.76,128.55c13.1.94,26.23,2.26,39.41,2.45,8.35.12,8.38,9.09,0,9-13.18-.19-26.31-1.51-39.41-2.45-3.49-.25-6.5-1.88-6.5-4.48,0-2.23,3-4.73,6.5-4.48Z"/><ellipse class="cls-6" cx="220.53" cy="72.32" rx="33.82" ry="25.78"/><ellipse cx="227.65" cy="73.22" rx="11.57" ry="8.82"/><ellipse class="cls-6" cx="300.62" cy="72.32" rx="33.82" ry="25.78"/><ellipse cx="288.16" cy="73.22" rx="11.57" ry="8.82"/><path class="cls-7" d="M318.15,98.13c-23.68,0-44.91,5.43-59.29,14-14.37-8.58-35.6-14-59.29-14-43.3,0-78.39,18.14-78.39,40.51s35.1,40.51,78.39,40.51c23.68,0,44.91-5.43,59.29-14,14.37,8.58,35.6,14,59.29,14,43.29,0,78.39-18.14,78.39-40.51S361.44,98.13,318.15,98.13Z"/><path class="cls-8" d="M318.15,81.13c-23.68,0-44.91,5.43-59.29,14-14.37-8.58-35.6-14-59.29-14-43.3,0-78.39,18.14-78.39,40.51s35.1,40.51,78.39,40.51c23.68,0,44.91-5.43,59.29-14,14.37,8.58,35.6,14,59.29,14,43.29,0,78.39-18.14,78.39-40.51S361.44,81.13,318.15,81.13Z"/><path class="cls-3" d="M232.48,99.7c4.38-3.12,13.23-7.32,22.93-.56a4.22,4.22,0,0,0,4.54.08c6.24-3.82,16.72-5.91,24.87,0a4.36,4.36,0,0,1,.37,7c-6.5,5.65-19.38,10.43-24.31,12.13a6.16,6.16,0,0,1-4,0c-5.13-1.74-18.89-6.69-24.83-11.75A4.28,4.28,0,0,1,232.48,99.7Z"/><ellipse class="cls-7" cx="170.68" cy="103.1" rx="6.63" ry="3.43"/><ellipse class="cls-7" cx="200.68" cy="118.6" rx="6.63" ry="3.43"/><ellipse class="cls-7" cx="157.68" cy="118.6" rx="6.63" ry="3.43"/><ellipse class="cls-7" cx="184.68" cy="132.55" rx="6.63" ry="3.43"/><ellipse class="cls-7" cx="340.68" cy="103.1" rx="6.63" ry="3.43"/><ellipse class="cls-7" cx="370.68" cy="118.6" rx="6.63" ry="3.43"/><ellipse class="cls-7" cx="327.68" cy="118.6" rx="6.63" ry="3.43"/><ellipse class="cls-7" cx="354.68" cy="132.55" rx="6.63" ry="3.43"/></g></g></svg>