<svg xmlns="http://www.w3.org/2000/svg" xmlns:xlink="http://www.w3.org/1999/xlink" viewBox="0 0 443.56 549.62"><defs><style>.cls-1{fill:none;}.cls-2{fill:#d60028;}.cls-3{fill:#c5022c;}.cls-4{clip-path:url(#clip-path);}.cls-5{fill:#f8f9d2;}.cls-6{clip-path:url(#clip-path-2);}.cls-7{fill:#e1e1b4;}.cls-8,.cls-9{fill:#fdc325;}.cls-9{stroke:#d09b18;stroke-miterlimit:10;stroke-width:9px;}</style><clipPath id="clip-path"><ellipse class="cls-1" cx="220.86" cy="287.09" rx="217.28" ry="213.1" transform="translate(-72.25 499.9) rotate(-88.41)"/></clipPath><clipPath id="clip-path-2"><ellipse class="cls-1" cx="196.77" cy="457.26" rx="92.3" ry="150.96" transform="translate(-265.77 641.27) rotate(-88.41)"/></clipPath></defs><title>Recurso 6</title><g id="Capa_2" data-name="Capa 2"><g id="Capa_1-2" data-name="Capa 1"><circle class="cls-2" cx="221.78" cy="289.93" r="213.1" transform="translate(-74.19 503.58) rotate(-88.41)"/><path class="cls-3" d="M215.63,511.71c-5.75-.16-9.67-5.5-13.46-10.67-1.7-2.32-4.87-6.64-6.25-6.86s-5.68,3.3-8,5.18c-4.89,4-10,8.19-15.48,6.93s-8.39-7.26-11.09-13.06c-1.22-2.62-3.5-7.51-4.83-8s-6.19,2.12-8.78,3.51c-5.6,3-11.39,6.08-16.58,3.77s-6.78-8.75-8.29-15c-.69-2.83-2-8.09-3.18-8.8s-6.46.87-9.27,1.72c-6.09,1.84-12.38,3.74-17,.45s-4.93-9.89-5.2-16.26c-.12-2.92-.35-8.35-1.41-9.28s-6.49-.4-9.4-.11c-6.34.62-12.89,1.27-16.81-2.88s-2.91-10.65-1.94-16.94c.45-2.89,1.28-8.28.41-9.4s-6.28-1.64-9.18-1.93c-6.34-.62-12.9-1.26-15.95-6.09s-.78-11,1.39-17c1-2.75,2.87-7.88,2.23-9.16s-5.82-2.82-8.61-3.67c-6.11-1.85-12.43-3.76-14.47-9.11s1.38-10.92,4.68-16.34c1.53-2.51,4.37-7.18,4-8.58S18,340.32,15.45,339C9.81,335.94,4,332.82,3,327.16s3.49-10.4,7.78-15.07c2-2.17,5.71-6.21,5.61-7.66s-4.28-4.8-6.5-6.62c-5-4.07-10.07-8.27-9.91-14s5.5-9.67,10.67-13.46c2.32-1.7,6.64-4.87,6.86-6.25s-3.3-5.69-5.18-8c-4-4.89-8.19-10-6.93-15.48s7.27-8.39,13.06-11.09c2.62-1.22,7.51-3.5,8-4.83s-2.12-6.19-3.51-8.78c-3-5.6-6.09-11.39-3.77-16.58s8.75-6.78,15-8.29c2.83-.69,8.09-2,8.8-3.18s-.87-6.46-1.72-9.27c-1.84-6.09-3.74-12.38-.45-17s9.89-4.93,16.26-5.2c2.92-.12,8.35-.35,9.28-1.41s.4-6.49.11-9.4c-.62-6.34-1.27-12.89,2.88-16.81s10.65-2.91,16.94-1.94c2.89.45,8.27,1.28,9.4.41s1.64-6.28,1.93-9.18c.62-6.34,1.26-12.9,6.09-15.95s11-.78,17,1.39c2.75,1,7.88,2.87,9.16,2.23s2.82-5.82,3.67-8.61c1.85-6.11,3.76-12.43,9.11-14.48s10.92,1.38,16.34,4.68c2.51,1.53,7.19,4.37,8.58,4s3.89-5.14,5.26-7.7c3-5.64,6.14-11.47,11.8-12.43S195,74.66,199.62,79c2.17,2,6.18,5.71,7.66,5.61s4.8-4.28,6.62-6.5c4.07-5,8.27-10.07,14-9.91s9.67,5.5,13.46,10.67c1.7,2.32,4.87,6.64,6.25,6.86s5.69-3.3,8-5.18c4.89-4,10-8.19,15.48-6.93s8.39,7.27,11.09,13.06c1.22,2.62,3.5,7.51,4.83,8s6.19-2.12,8.78-3.51c5.6-3,11.39-6.09,16.58-3.77s6.78,8.75,8.29,15c.69,2.83,2,8.09,3.18,8.8s6.47-.87,9.27-1.72c6.09-1.84,12.38-3.74,17-.45s4.93,9.89,5.2,16.26c.12,2.92.35,8.35,1.41,9.28s6.49.4,9.4.11c6.34-.62,12.89-1.26,16.8,2.88s2.91,10.65,1.94,16.94c-.45,2.89-1.28,8.27-.41,9.4s6.28,1.64,9.18,1.93c6.34.62,12.9,1.26,15.95,6.09s.79,11-1.39,17c-1,2.75-2.87,7.88-2.23,9.16s5.83,2.82,8.61,3.67c6.11,1.85,12.43,3.76,14.47,9.11s-1.38,10.92-4.68,16.34c-1.53,2.51-4.37,7.18-4,8.58s5.14,3.89,7.7,5.26c5.64,3,11.47,6.14,12.43,11.8s-3.49,10.4-7.78,15.07c-2,2.17-5.71,6.21-5.61,7.66s4.28,4.8,6.5,6.62c5,4.07,10.07,8.27,9.91,14s-5.5,9.67-10.67,13.46c-2.32,1.7-6.64,4.87-6.86,6.25s3.3,5.69,5.18,8c4,4.9,8.19,10,6.93,15.48s-7.26,8.39-13.06,11.09c-2.62,1.22-7.51,3.5-8,4.83s2.12,6.19,3.51,8.78c3,5.6,6.09,11.39,3.77,16.58s-8.75,6.78-15,8.29c-2.83.69-8.09,2-8.8,3.18s.87,6.46,1.72,9.27c1.84,6.09,3.74,12.38.45,17s-9.89,4.93-16.26,5.2c-2.92.12-8.35.35-9.28,1.41s-.4,6.49-.11,9.4c.62,6.34,1.27,12.89-2.88,16.81S363.6,454,357.31,453c-2.89-.45-8.27-1.28-9.4-.41s-1.64,6.28-1.93,9.18c-.62,6.34-1.26,12.9-6.09,15.95s-11,.79-17-1.39c-2.75-1-7.88-2.87-9.16-2.23s-2.82,5.82-3.67,8.61c-1.85,6.11-3.76,12.43-9.11,14.47s-10.92-1.38-16.34-4.68c-2.51-1.53-7.19-4.36-8.58-4s-3.89,5.14-5.26,7.7c-3,5.64-6.14,11.47-11.8,12.43s-10.4-3.49-15.07-7.78c-2.17-2-6.21-5.67-7.66-5.61s-4.8,4.28-6.62,6.5C225.59,506.75,221.38,511.87,215.63,511.71Zm-19.5-26.53c.3,0,.61,0,.91.07,5.2.65,8.86,5.64,12.39,10.47,1.63,2.23,5,6.88,6.45,7,1.41,0,5.06-4.49,6.82-6.63,3.8-4.62,7.72-9.4,13-9.76s9.93,3.87,14.38,8c2.09,1.93,6,5.49,7.43,5.53h.06c1.35-.33,4.05-5.38,5.35-7.8,2.83-5.28,5.75-10.75,10.82-12.13s10.46,1.84,15.62,5c2.48,1.51,7.1,4.31,8.47,4,1.26-.61,2.9-6.05,3.7-8.67,1.74-5.75,3.54-11.69,8.25-14.05s10.6-.24,16.27,1.82c2.74,1,7.84,2.85,9.1,2.23,1.11-.85,1.66-6.49,1.92-9.2.59-6,1.19-12.18,5.37-15.42s10.34-2.3,16.29-1.38c2.89.45,8.27,1.28,9.39.41.91-1.05.38-6.47.1-9.38-.59-6-1.2-12.19,2.28-16.19s9.68-4.25,15.69-4.5c2.72-.11,8.39-.35,9.31-1.43.68-1.21-.89-6.41-1.73-9.2-1.74-5.77-3.55-11.74-.91-16.34s8.65-6,14.49-7.46c2.66-.65,8.19-2,8.87-3.23.42-1.32-2.12-6.09-3.49-8.65-2.85-5.32-5.79-10.83-4.11-15.87s7.28-7.6,12.71-10.14c2.49-1.16,7.68-3.58,8.09-4.93.14-1.38-3.27-5.53-5.11-7.76-3.84-4.67-7.82-9.51-7.15-14.8s5.64-8.86,10.47-12.39c2.23-1.64,6.87-5,7-6.45,0-1.42-4.49-5.07-6.63-6.82-4.62-3.8-9.4-7.72-9.77-13s3.87-9.93,8-14.38c2-2.13,5.6-6.08,5.53-7.49-.33-1.35-5.38-4.05-7.8-5.35-5.28-2.83-10.75-5.75-12.13-10.82s1.84-10.46,5-15.62c1.51-2.48,4.32-7.1,4-8.47-.61-1.26-6.05-2.9-8.67-3.7-5.75-1.74-11.69-3.54-14.05-8.25s-.24-10.6,1.82-16.27c1-2.74,2.85-7.84,2.23-9.11-.85-1.11-6.49-1.66-9.2-1.92-6-.59-12.18-1.19-15.42-5.37S375.08,159,376,153c.45-2.89,1.28-8.27.41-9.39-1.05-.91-6.47-.38-9.38-.1-6,.59-12.19,1.2-16.19-2.28s-4.25-9.68-4.5-15.69c-.11-2.72-.35-8.39-1.43-9.31-1.21-.68-6.41.89-9.2,1.73-5.77,1.74-11.74,3.55-16.34.91s-6-8.65-7.46-14.49c-.65-2.66-2-8.19-3.23-8.87-1.33-.42-6.09,2.12-8.65,3.49-5.33,2.84-10.83,5.79-15.87,4.1s-7.6-7.28-10.14-12.71c-1.16-2.49-3.58-7.68-4.93-8.09-1.33-.14-5.53,3.27-7.76,5.11-4.67,3.84-9.5,7.83-14.8,7.15S237.66,89,234.13,84.14c-1.63-2.23-5-6.88-6.45-7-1.41,0-5.06,4.49-6.82,6.63-3.8,4.62-7.72,9.4-13,9.77s-9.93-3.87-14.38-8c-2.13-2-6.08-5.59-7.49-5.53-1.35.33-4.05,5.38-5.35,7.8-2.83,5.28-5.75,10.75-10.83,12.13s-10.46-1.84-15.62-5c-2.48-1.51-7.11-4.31-8.47-4-1.26.61-2.9,6.05-3.7,8.67-1.74,5.75-3.54,11.69-8.25,14.05s-10.6.24-16.27-1.82c-2.74-1-7.84-2.85-9.11-2.23-1.11.85-1.66,6.49-1.92,9.2-.59,6-1.19,12.18-5.37,15.42s-10.34,2.3-16.29,1.38c-2.89-.45-8.27-1.28-9.39-.41-.91,1-.38,6.47-.1,9.38.59,6,1.2,12.19-2.28,16.19s-9.68,4.25-15.69,4.5c-2.72.11-8.39.35-9.31,1.43-.68,1.21.89,6.41,1.73,9.2,1.74,5.77,3.55,11.74.91,16.34s-8.65,6-14.49,7.46c-2.66.65-8.19,2-8.87,3.23-.42,1.32,2.12,6.09,3.49,8.65,2.85,5.33,5.79,10.83,4.1,15.87s-7.28,7.6-12.71,10.14c-2.49,1.16-7.68,3.58-8.09,4.93-.14,1.38,3.27,5.53,5.11,7.76,3.84,4.67,7.82,9.51,7.15,14.8S20.82,274,16,277.58c-2.23,1.64-6.88,5-7,6.45,0,1.41,4.49,5.06,6.63,6.82,4.62,3.8,9.4,7.72,9.77,13s-3.87,9.93-8,14.38c-2,2.13-5.6,6.08-5.53,7.49.33,1.35,5.38,4.05,7.8,5.35,5.28,2.83,10.75,5.75,12.13,10.83s-1.84,10.46-5,15.62c-1.51,2.48-4.32,7.1-4,8.47.61,1.26,6.05,2.9,8.67,3.7,5.75,1.74,11.69,3.54,14.05,8.25s.24,10.6-1.82,16.27c-1,2.74-2.85,7.84-2.23,9.1.85,1.11,6.49,1.66,9.2,1.92,6,.59,12.18,1.19,15.42,5.37s2.3,10.34,1.38,16.29c-.45,2.89-1.28,8.27-.41,9.39,1.05.92,6.47.38,9.38.1,6-.59,12.19-1.2,16.19,2.28s4.25,9.68,4.5,15.69c.11,2.72.35,8.39,1.43,9.31,1.21.68,6.41-.89,9.2-1.73,5.77-1.74,11.74-3.55,16.34-.91s6,8.65,7.46,14.49c.65,2.66,2,8.19,3.23,8.87,1.32.42,6.09-2.12,8.65-3.49,5.32-2.84,10.83-5.79,15.87-4.11S167,484,169.54,489.42c1.16,2.49,3.58,7.68,4.93,8.09h.06c1.44,0,5.5-3.3,7.7-5.11C186.64,488.78,191.19,485,196.13,485.18Z"/><path class="cls-3" d="M216.8,479.8c-5.24-.15-8.71-4.8-12.06-9.29-1.43-1.92-3.82-5.12-5-5.54-1.22.08-4.45,2.63-6.21,4-4.29,3.39-8.73,6.9-13.74,5.66s-7.45-6.44-9.82-11.47c-1-2.08-2.8-5.95-3.85-6.51-1.1-.21-4.88,1.74-6.92,2.78-4.86,2.49-9.89,5.05-14.56,3s-6.15-7.6-7.54-12.91c-.57-2.19-1.64-6.26-2.57-7-1.06-.39-5.2.85-7.43,1.51-5.3,1.58-10.78,3.21-15,.33s-4.66-8.86-5-14.09c-.14-2.2-.39-6.26-1.12-7.22-1.09-.6-5.28-.22-7.54,0-5.55.5-11.3,1-14.87-2.76s-2.73-9.48-1.93-15c.33-2.25.94-6.41.4-7.53-.92-.78-5-1.26-7.15-1.52-5.21-.61-11.11-1.31-13.8-5.76s-.71-9.76,1.16-15c.79-2.19,2.25-6.26,1.88-7.41-.63-.89-4.64-2.18-6.8-2.88-5.23-1.68-10.63-3.43-12.47-8.24s1-9.66,3.77-14.37c1.15-2,3.3-5.66,3.13-6.83-.48-1-4.24-3-6.26-4.13-4.89-2.64-10-5.38-10.91-10.44s2.78-9.3,6.41-13.4c1.48-1.67,4.21-4.76,4.36-6-.36-1.17-3.42-3.73-5.26-5.27-4.3-3.6-8.76-7.32-8.61-12.56s4.8-8.71,9.29-12.06c1.92-1.43,5.12-3.82,5.54-5-.08-1.22-2.63-4.46-4-6.21C39,256.46,35.47,252,36.71,247s6.44-7.45,11.47-9.82c2.08-1,5.95-2.8,6.51-3.85.2-1.09-1.74-4.88-2.78-6.92-2.49-4.86-5.06-9.89-3-14.56s7.6-6.15,12.91-7.54c2.19-.57,6.26-1.64,7-2.57.39-1.05-.85-5.2-1.51-7.43-1.58-5.3-3.21-10.78-.33-15s8.86-4.66,14.09-5c2.2-.13,6.26-.39,7.22-1.12.6-1.09.22-5.28,0-7.54-.5-5.55-1-11.3,2.76-14.87h0c3.77-3.57,9.48-2.73,15-1.93,2.25.33,6.41.94,7.53.4.78-.92,1.26-5,1.52-7.15.61-5.21,1.31-11.11,5.76-13.8s9.76-.71,15,1.16c2.19.79,6.26,2.25,7.41,1.88.89-.63,2.19-4.64,2.88-6.8,1.69-5.23,3.43-10.63,8.24-12.47s9.66,1,14.37,3.77c2,1.15,5.67,3.31,6.83,3.14,1-.48,3-4.24,4.13-6.26,2.65-4.89,5.38-10,10.45-10.91s9.3,2.78,13.4,6.41c1.67,1.48,4.76,4.21,6,4.36,1.17-.36,3.73-3.42,5.27-5.26,3.6-4.3,7.31-8.76,12.56-8.61s8.71,4.8,12.06,9.29c1.43,1.92,3.81,5.12,5,5.54,1.22-.08,4.46-2.64,6.21-4,4.29-3.39,8.72-6.9,13.74-5.66s7.45,6.44,9.82,11.47c1,2.08,2.8,5.95,3.85,6.51,1.07.21,4.88-1.74,6.92-2.78,4.86-2.49,9.89-5.05,14.56-3s6.15,7.6,7.54,12.91c.57,2.19,1.64,6.27,2.57,7,1,.39,5.2-.85,7.43-1.51,5.3-1.58,10.78-3.21,15-.33s4.66,8.86,5,14.09c.14,2.2.39,6.26,1.12,7.22,1.09.6,5.28.22,7.54,0,5.55-.5,11.3-1,14.87,2.76s2.74,9.48,1.93,15c-.33,2.25-.94,6.41-.4,7.53.92.78,5,1.26,7.15,1.52,5.21.61,11.11,1.31,13.8,5.76s.71,9.76-1.16,15c-.79,2.19-2.25,6.26-1.88,7.41.63.89,4.64,2.19,6.8,2.88,5.23,1.69,10.63,3.43,12.47,8.24s-1,9.66-3.77,14.37c-1.15,2-3.3,5.66-3.14,6.83.48,1,4.24,3,6.26,4.13,4.89,2.64,10,5.38,10.91,10.45s-2.79,9.3-6.41,13.4c-1.48,1.67-4.21,4.76-4.36,6,.36,1.17,3.42,3.73,5.26,5.27,4.3,3.6,8.76,7.32,8.61,12.56s-4.8,8.71-9.29,12.06c-1.92,1.43-5.12,3.82-5.54,5,.08,1.22,2.63,4.45,4,6.21,3.39,4.29,6.9,8.73,5.66,13.74S401,339,396,341.35c-2.08,1-5.95,2.8-6.51,3.85-.2,1.09,1.74,4.88,2.78,6.92,2.48,4.86,5.06,9.89,3,14.56s-7.6,6.15-12.91,7.54c-2.19.57-6.26,1.64-7,2.57-.39,1.05.85,5.2,1.51,7.43,1.58,5.3,3.21,10.78.33,15s-8.86,4.66-14.09,5c-2.2.14-6.26.39-7.22,1.12-.6,1.09-.22,5.28,0,7.54.5,5.55,1,11.3-2.76,14.86s-9.48,2.73-15,1.93c-2.25-.33-6.41-.94-7.53-.4-.78.92-1.26,5-1.52,7.15-.61,5.21-1.31,11.11-5.76,13.79s-9.76.71-15-1.16c-2.19-.79-6.26-2.25-7.41-1.88-.89.63-2.19,4.64-2.88,6.8-1.69,5.23-3.43,10.63-8.24,12.47s-9.66-1-14.37-3.77c-2-1.15-5.65-3.29-6.83-3.14-1,.48-3,4.24-4.13,6.26-2.64,4.89-5.38,10-10.44,10.91s-9.3-2.78-13.4-6.41c-1.67-1.48-4.76-4.21-6-4.36-1.17.36-3.73,3.42-5.27,5.26C225.76,475.5,222,479.95,216.8,479.8ZM200,456a8.93,8.93,0,0,1,1,.08c4.65.67,7.83,4.95,10.91,9.08,1.37,1.83,3.88,5.21,5.09,5.66,1.23-.38,3.93-3.61,5.4-5.37,3.31-4,6.72-8,11.39-8.46s8.84,3.15,12.73,6.59c1.62,1.43,4.6,4.07,5.81,4.28,1-.56,3.06-4.3,4.15-6.32,2.48-4.58,5-9.32,9.58-10.63s9.31,1.38,13.83,4c1.91,1.11,5.41,3.17,6.66,3.11.89-.7,2.17-4.66,2.86-6.8,1.6-5,3.25-10.08,7.58-12.16s9.38-.23,14.32,1.54c2.11.76,6,2.15,7.26,1.91.77-1,1.23-5,1.49-7.12.6-5.13,1.23-10.43,5-13.3s9.11-2.05,14.24-1.3c2.22.32,6.29.92,7.49.42.56-1.17.2-5.27,0-7.5-.47-5.17-.95-10.51,2.08-14.14s8.41-4,13.57-4.31c2.17-.13,6.15-.38,7.19-1.09.31-1.26-.86-5.2-1.5-7.35-1.5-5-3-10.22-.74-14.39s7.52-5.57,12.56-6.89c2.14-.56,6.08-1.59,7-2.51.08-1.26-1.75-4.84-2.74-6.78-2.38-4.66-4.85-9.48-3.24-14s6.43-6.74,11.15-9c2.05-1,5.81-2.74,6.54-3.83-.19-1.24-2.62-4.33-4-6-3.22-4.07-6.55-8.29-5.87-13.06s4.95-7.83,9.08-10.91c1.83-1.37,5.21-3.88,5.66-5.09-.38-1.23-3.61-3.93-5.37-5.4-4-3.31-8-6.72-8.46-11.39-.41-4.81,3.15-8.84,6.59-12.73,1.43-1.62,4.07-4.6,4.28-5.81-.56-1-4.3-3.06-6.32-4.15-4.58-2.48-9.32-5-10.63-9.58s1.38-9.31,4-13.84c1.11-1.91,3.16-5.42,3.11-6.66-.7-.89-4.66-2.17-6.8-2.86-5-1.6-10.08-3.25-12.16-7.58s-.23-9.38,1.54-14.32c.76-2.11,2.15-6,1.91-7.26-1-.77-5-1.23-7.12-1.48-5.13-.6-10.43-1.23-13.3-5s-2.06-9.11-1.3-14.24c.32-2.22.92-6.29.42-7.49-1.17-.57-5.27-.2-7.5,0-5.17.46-10.51.95-14.14-2.08s-4-8.41-4.31-13.57c-.13-2.17-.38-6.15-1.09-7.19-1.26-.31-5.2.86-7.35,1.5-5,1.5-10.22,3-14.39.74s-5.57-7.32-6.89-12.36c-.56-2.14-1.6-5.73-2.52-6.76h0c-1.3,0-4.81,1.56-6.73,2.54-4.66,2.38-9.47,4.75-14,3.14s-6.74-6.48-9-11.2c-1-2.05-2.74-5.84-3.83-6.57-1.24.19-4.33,2.61-6,3.94-4.07,3.22-8.28,6.54-13.06,5.87s-7.83-4.95-10.91-9.08c-1.37-1.83-3.88-5.21-5.09-5.66-1.23.38-3.93,3.61-5.4,5.37-3.31,4-6.72,8-11.39,8.46-4.81.41-8.84-3.15-12.73-6.59-1.62-1.43-4.6-4.07-5.81-4.28-1,.56-3.06,4.3-4.15,6.32-2.48,4.58-5,9.32-9.58,10.64s-9.31-1.38-13.84-4c-1.91-1.11-5.42-3.18-6.66-3.11-.89.7-2.17,4.66-2.86,6.8-1.6,5-3.25,10.08-7.58,12.16s-9.38.23-14.32-1.54c-2.11-.76-6-2.15-7.26-1.91-.77,1-1.23,5-1.49,7.12-.6,5.13-1.23,10.43-5,13.3s-9.1,2.06-14.24,1.3c-2.22-.32-6.29-.92-7.49-.42-.57,1.17-.2,5.27,0,7.5.47,5.17.95,10.51-2.08,14.14s-8.41,4-13.57,4.31c-2.17.13-6.15.38-7.19,1.09-.31,1.26.86,5.2,1.5,7.35,1.5,5,3,10.22.74,14.39s-7.52,5.57-12.56,6.89c-2.14.56-6.08,1.59-7,2.51-.08,1.26,1.75,4.84,2.74,6.78,2.38,4.66,4.85,9.48,3.24,14s-6.43,6.74-11.15,9c-2.05,1-5.81,2.74-6.54,3.83.19,1.24,2.62,4.33,4,6,3.22,4.07,6.55,8.29,5.87,13.06s-4.95,7.83-9.08,10.91c-1.83,1.37-5.21,3.88-5.66,5.09.38,1.23,3.61,3.93,5.37,5.4,4,3.31,8,6.72,8.46,11.39s-3.15,8.84-6.59,12.73c-1.43,1.62-4.07,4.6-4.28,5.81.56,1,4.3,3.06,6.32,4.15,4.58,2.48,9.32,5,10.64,9.58s-1.38,9.31-4,13.84c-1.11,1.91-3.16,5.42-3.11,6.66.7.89,4.66,2.17,6.8,2.86,5,1.6,10.08,3.25,12.16,7.58s.23,9.38-1.54,14.32c-.76,2.11-2.15,6-1.91,7.26,1,.77,5,1.23,7.12,1.49,5.13.6,10.43,1.23,13.3,5s2.06,9.11,1.3,14.24c-.32,2.22-.92,6.29-.42,7.49,1.17.56,5.27.2,7.5,0,5.17-.46,10.51-.95,14.14,2.08s4,8.41,4.31,13.57c.13,2.17.38,6.15,1.09,7.19,1.26.31,5.2-.86,7.35-1.5,5-1.5,10.22-3,14.39-.74s5.56,7.84,6.88,12.88c.56,2.14,1.59,6.25,2.5,7.28h0c1.3,0,4.82-2.08,6.75-3.07,4.66-2.38,9.49-5,14.05-3.4s6.75,6.35,9,11.07c1,2.05,2.74,5.77,3.83,6.5,1.24-.19,4.33-2.64,6-4C191.77,459,195.68,455.84,200,456Z"/><path class="cls-3" d="M218,447.9c-4.72-.13-7.87-4.26-10.65-7.9-1.06-1.38-2.79-3.65-3.71-4.21a21.83,21.83,0,0,0-4.48,2.86c-3.52,2.62-7.51,5.6-12,4.34s-6.57-5.81-8.51-9.87c-.77-1.61-2-4.24-2.83-5-1.05.05-3.59,1.26-5.14,2-3.93,1.87-8.37,4-12.51,2.15s-5.55-6.63-6.78-10.83c-.47-1.63-1.25-4.3-1.9-5.12-1.1-.1-3.93.71-5.66,1.22-4.29,1.25-9.16,2.67-13,.23s-4.39-7.5-4.79-11.89a22.06,22.06,0,0,0-.84-5.18c-1-.32-3.92-.1-5.69,0-4.54.36-9.69.76-12.91-2.64s-2.52-8.52-1.91-13c.24-1.75.62-4.62.36-5.67a22.13,22.13,0,0,0-5.12-1.12c-4.36-.64-9.31-1.37-11.61-5.45-2.22-3.92-.54-8.7.95-12.92.6-1.7,1.58-4.49,1.53-5.59-.78-.69-3.4-1.62-5-2.18-4.13-1.45-8.8-3.1-10.43-7.36s.75-8.56,2.84-12.37c.82-1.51,2.17-4,2.29-5-.7-.84-3.25-2.24-4.82-3.1-3.94-2.16-8.42-4.61-9.38-9.06s2.19-8.36,5-11.73a21.82,21.82,0,0,0,3.1-4.32c-.51-.95-2.67-2.8-4-3.93-3.48-3-7.43-6.35-7.3-11.07s4.26-7.87,7.9-10.65c1.39-1.06,3.65-2.79,4.21-3.71-.26-1-1.87-3.15-2.86-4.48-2.62-3.52-5.59-7.51-4.34-12s5.81-6.57,9.87-8.51c1.61-.77,4.24-2,5-2.83-.05-1.05-1.26-3.59-2-5.14-1.87-3.93-4-8.38-2.15-12.51s6.63-5.55,10.83-6.78c1.63-.47,4.3-1.25,5.12-1.9.11-1.1-.71-3.93-1.22-5.66-1.25-4.29-2.67-9.16-.23-13s7.5-4.39,11.89-4.79a22.09,22.09,0,0,0,5.18-.84c.32-1,.1-3.92,0-5.68-.36-4.54-.76-9.69,2.63-12.91h0c3.4-3.22,8.52-2.53,13-1.91,1.75.24,4.62.62,5.67.36a22.09,22.09,0,0,0,1.12-5.12c.64-4.36,1.37-9.31,5.45-11.61,3.92-2.22,8.7-.54,12.92.95,1.7.6,4.49,1.57,5.59,1.53.69-.78,1.62-3.41,2.18-5,1.45-4.13,3.1-8.8,7.37-10.43s8.55.75,12.37,2.84c1.51.82,4,2.17,5,2.29.84-.7,2.24-3.25,3.1-4.82,2.16-3.94,4.61-8.41,9.06-9.38s8.36,2.19,11.73,5c1.27,1.06,3.34,2.79,4.32,3.1.95-.51,2.8-2.67,3.94-4,3-3.48,6.35-7.43,11.07-7.3s7.87,4.26,10.65,7.9c1.06,1.39,2.79,3.65,3.71,4.21,1-.26,3.16-1.87,4.48-2.86,3.52-2.62,7.5-5.59,12-4.34s6.57,5.81,8.51,9.87c.77,1.61,2,4.24,2.83,5,1.05-.05,3.59-1.26,5.14-2,3.93-1.87,8.38-4,12.51-2.15s5.55,6.63,6.78,10.83c.47,1.63,1.25,4.3,1.9,5.12,1.08.12,3.93-.71,5.66-1.21,4.29-1.25,9.16-2.67,13-.23s4.39,7.5,4.79,11.89a22,22,0,0,0,.84,5.18c1,.32,3.92.1,5.69,0,4.55-.36,9.69-.76,12.91,2.63s2.52,8.52,1.92,13c-.24,1.75-.62,4.62-.36,5.67a22.12,22.12,0,0,0,5.13,1.12c4.36.64,9.31,1.37,11.61,5.45,2.22,3.92.54,8.7-.95,12.92-.6,1.7-1.58,4.49-1.53,5.59.78.69,3.4,1.62,5,2.18,4.13,1.45,8.8,3.1,10.43,7.36s-.75,8.56-2.84,12.37c-.82,1.51-2.17,4-2.29,5,.7.84,3.25,2.24,4.82,3.1,3.95,2.16,8.42,4.61,9.38,9.06s-2.19,8.36-5,11.73a21.8,21.8,0,0,0-3.1,4.32c.51.95,2.67,2.8,4,3.94,3.48,3,7.43,6.35,7.3,11.07s-4.26,7.87-7.9,10.65c-1.39,1.06-3.65,2.79-4.21,3.71.26,1,1.87,3.15,2.86,4.48,2.62,3.52,5.59,7.51,4.34,12s-5.81,6.57-9.86,8.51c-1.61.77-4.24,2-5,2.83.05,1.05,1.26,3.59,2,5.14,1.87,3.93,4,8.37,2.15,12.51s-6.63,5.55-10.83,6.78c-1.63.47-4.3,1.25-5.12,1.9-.11,1.1.71,3.93,1.22,5.66,1.25,4.29,2.67,9.16.23,13s-7.5,4.39-11.89,4.79a22,22,0,0,0-5.18.84c-.32,1-.1,3.92,0,5.68.36,4.54.76,9.69-2.64,12.91s-8.52,2.53-13,1.91c-1.75-.24-4.62-.62-5.67-.36a22.06,22.06,0,0,0-1.12,5.13c-.64,4.36-1.37,9.31-5.45,11.61-3.92,2.22-8.7.54-12.92-.95-1.7-.6-4.47-1.59-5.59-1.53-.69.78-1.62,3.4-2.18,5-1.45,4.13-3.1,8.8-7.36,10.43s-8.55-.75-12.37-2.84c-1.51-.82-4-2.17-5-2.29-.84.7-2.24,3.25-3.1,4.82-2.16,3.94-4.61,8.41-9.05,9.38s-8.36-2.19-11.73-5c-1.27-1.06-3.34-2.78-4.32-3.1-.95.51-2.8,2.67-3.94,4C226.06,444.08,222.68,448,218,447.9Zm-14-21.14a8.13,8.13,0,0,1,1.13.11c4,.68,6.76,4.23,9.38,7.67a25,25,0,0,0,3.75,4.27,24.93,24.93,0,0,0,4-4.06c2.81-3.29,5.72-6.68,9.79-7.14,4.28-.47,7.88,2.53,11.06,5.18a25,25,0,0,0,4.08,3,26.28,26.28,0,0,0,3-4.79c2.12-3.87,4.31-7.87,8.28-9.12,4.15-1.31,8.35,1,12,3a24.39,24.39,0,0,0,4.81,2.24,24.16,24.16,0,0,0,2.12-4.93c1.4-4,3-8.45,6.91-10.24s8.15-.21,12.33,1.26a26.46,26.46,0,0,0,5.41,1.52,24.54,24.54,0,0,0,1.06-5c.6-4.07,1.28-8.69,4.76-11.17s7.83-1.79,12.14-1.21a25.78,25.78,0,0,0,5.57.39,25.92,25.92,0,0,0-.08-5.58c-.34-4.34-.69-8.82,1.88-12.06s7.31-3.77,11.41-4.14a24.66,24.66,0,0,0,5.06-.78,26.45,26.45,0,0,0-1.22-5.48c-1.24-4.26-2.52-8.67-.58-12.38s6.57-5.16,10.61-6.33a24.23,24.23,0,0,0,5-1.84,24.43,24.43,0,0,0-2-4.93c-1.82-3.81-3.88-8.12-2.34-12.2,1.47-3.9,5.58-5.86,9.56-7.77a26.23,26.23,0,0,0,5-2.78,24.93,24.93,0,0,0-2.77-4.24c-2.47-3.32-5.27-7.08-4.56-11.33.68-4,4.23-6.76,7.67-9.38a25,25,0,0,0,4.27-3.75,25,25,0,0,0-4.06-4c-3.29-2.81-6.68-5.72-7.14-9.79-.47-4.28,2.53-7.88,5.18-11.06a24.9,24.9,0,0,0,3-4.08,26.27,26.27,0,0,0-4.79-3c-3.87-2.12-7.87-4.31-9.12-8.28-1.31-4.15,1-8.35,3-12a24.42,24.42,0,0,0,2.24-4.81,24.16,24.16,0,0,0-4.93-2.12c-4-1.4-8.45-3-10.24-6.91s-.21-8.15,1.26-12.34a26.45,26.45,0,0,0,1.52-5.41,24.64,24.64,0,0,0-5-1.06c-4.07-.6-8.69-1.28-11.17-4.76s-1.79-7.83-1.21-12.14a25.92,25.92,0,0,0,.39-5.57,26,26,0,0,0-5.58.08c-4.34.34-8.83.69-12.06-1.88s-3.76-7.31-4.14-11.41a24.63,24.63,0,0,0-.78-5.06,26.49,26.49,0,0,0-5.48,1.22c-4.26,1.24-8.67,2.52-12.38.57s-5.16-6.57-6.33-10.61a24.17,24.17,0,0,0-1.84-5,24.39,24.39,0,0,0-4.93,2c-3.81,1.82-8.12,3.88-12.2,2.34-3.89-1.47-5.86-5.58-7.77-9.56a26.29,26.29,0,0,0-2.78-5A25,25,0,0,0,251,145.8c-3.32,2.47-7.09,5.27-11.33,4.56-4-.68-6.76-4.23-9.38-7.67a25,25,0,0,0-3.75-4.27,25,25,0,0,0-4,4.06c-2.81,3.29-5.72,6.68-9.79,7.14-4.28.48-7.88-2.53-11.06-5.18a24.93,24.93,0,0,0-4.08-3,26.31,26.31,0,0,0-3,4.79c-2.12,3.87-4.31,7.87-8.28,9.12-4.15,1.31-8.35-1-12-3a24.38,24.38,0,0,0-4.81-2.24,24.17,24.17,0,0,0-2.12,4.93c-1.4,4-3,8.45-6.91,10.24s-8.15.21-12.33-1.26a26.45,26.45,0,0,0-5.41-1.52,24.61,24.61,0,0,0-1.06,5c-.6,4.07-1.28,8.69-4.76,11.17s-7.83,1.79-12.14,1.21a25.88,25.88,0,0,0-5.57-.39,25.89,25.89,0,0,0,.08,5.58c.34,4.34.69,8.82-1.88,12.06s-7.31,3.76-11.41,4.14a24.64,24.64,0,0,0-5.06.78,26.51,26.51,0,0,0,1.22,5.48c1.24,4.26,2.52,8.67.58,12.38s-6.57,5.16-10.6,6.33a24.17,24.17,0,0,0-5,1.84A24.37,24.37,0,0,0,89,233c1.82,3.81,3.88,8.12,2.34,12.2-1.47,3.9-5.58,5.86-9.56,7.77a26.31,26.31,0,0,0-5,2.78A25,25,0,0,0,79.58,260c2.47,3.32,5.27,7.08,4.56,11.33-.68,4-4.23,6.76-7.67,9.38a25,25,0,0,0-4.27,3.75,25,25,0,0,0,4.06,4c3.29,2.81,6.68,5.72,7.14,9.79.48,4.28-2.53,7.88-5.18,11.06a24.92,24.92,0,0,0-3,4.08,26.23,26.23,0,0,0,4.79,3c3.87,2.12,7.87,4.31,9.12,8.28,1.31,4.15-1,8.35-3,12a24.37,24.37,0,0,0-2.24,4.81,24.14,24.14,0,0,0,4.93,2.12c4,1.4,8.45,3,10.24,6.91s.21,8.15-1.26,12.34a26.5,26.5,0,0,0-1.52,5.41,24.62,24.62,0,0,0,5,1.06c4.07.6,8.69,1.28,11.17,4.76s1.79,7.83,1.21,12.14a25.89,25.89,0,0,0-.39,5.57,26.08,26.08,0,0,0,5.58-.08c4.34-.34,8.82-.7,12.06,1.88s3.76,7.31,4.14,11.41a24.63,24.63,0,0,0,.79,5.06,26.56,26.56,0,0,0,5.48-1.22c4.26-1.24,8.67-2.52,12.38-.58s5.16,6.57,6.33,10.6a24.17,24.17,0,0,0,1.84,5,24.35,24.35,0,0,0,4.93-2c3.81-1.82,8.13-3.88,12.2-2.34,3.9,1.47,5.86,5.58,7.77,9.56a26.28,26.28,0,0,0,2.78,5,25,25,0,0,0,4.24-2.77C196.78,429.17,200.17,426.65,204,426.76Z"/><path class="cls-3" d="M219.14,416c-4.18-.12-6.86-3.5-9.23-6.49a26,26,0,0,0-2.49-2.86,23.37,23.37,0,0,0-2.79,1.7c-2.81,1.89-6.31,4.23-10.25,3-3.69-1.18-5.52-4.92-7.14-8.22a26.29,26.29,0,0,0-1.9-3.46,23.46,23.46,0,0,0-3.35,1.24c-3.2,1.36-6.83,2.9-10.38,1.31s-4.91-5.52-6-8.67a23.59,23.59,0,0,0-1.29-3.29,26,26,0,0,0-3.88.89c-3.51,1-7.5,2.1-10.83.15-3.59-2.09-4.18-6.28-4.65-9.64a23.65,23.65,0,0,0-.58-3.17,25.76,25.76,0,0,0-3.84.05c-3.79.23-8.08.49-10.93-2.52s-2.35-7.28-1.91-11.05a25.68,25.68,0,0,0,.27-3.83,23.73,23.73,0,0,0-3.13-.76c-3.33-.66-7.48-1.47-9.38-5.18-1.76-3.43-.42-7.34.76-10.79a26,26,0,0,0,1.11-3.83,23.67,23.67,0,0,0-3.22-1.47c-3.08-1.24-6.92-2.78-8.33-6.45s.35-7.18,1.88-10.29a23.25,23.25,0,0,0,1.42-3.28,26.1,26.1,0,0,0-3.35-2.09c-3.2-1.79-6.82-3.82-7.81-7.58-1.05-4,1.48-7.36,3.52-10.06a23.27,23.27,0,0,0,1.85-2.7,25.83,25.83,0,0,0-2.71-2.64c-2.85-2.53-6.08-5.4-6-9.57s3.5-6.86,6.49-9.23a25.86,25.86,0,0,0,2.86-2.48,23.28,23.28,0,0,0-1.7-2.79c-1.89-2.81-4.24-6.31-3-10.25,1.18-3.69,4.92-5.52,8.22-7.14a26.29,26.29,0,0,0,3.46-1.9,23.33,23.33,0,0,0-1.24-3.35c-1.36-3.2-2.9-6.82-1.31-10.38s5.52-4.91,8.67-6a23.64,23.64,0,0,0,3.29-1.29,26,26,0,0,0-.89-3.88c-1-3.51-2.1-7.49-.15-10.83,2.09-3.59,6.28-4.18,9.64-4.65a23.56,23.56,0,0,0,3.17-.58,25.7,25.7,0,0,0-.05-3.84c-.23-3.79-.49-8.08,2.52-10.93s7.29-2.35,11.05-1.91a26,26,0,0,0,3.83.27,23.78,23.78,0,0,0,.76-3.13c.66-3.33,1.47-7.48,5.18-9.38,3.43-1.76,7.34-.42,10.8.76a26,26,0,0,0,3.83,1.11,23.61,23.61,0,0,0,1.47-3.22c1.24-3.09,2.78-6.92,6.45-8.33s7.18.35,10.29,1.88a23.34,23.34,0,0,0,3.28,1.42,26.27,26.27,0,0,0,2.09-3.35c1.79-3.2,3.82-6.82,7.58-7.81,4-1,7.36,1.48,10.06,3.52a23.32,23.32,0,0,0,2.7,1.85,25.9,25.9,0,0,0,2.64-2.71c2.53-2.85,5.4-6.08,9.57-6s6.86,3.5,9.23,6.49a25.92,25.92,0,0,0,2.49,2.86,23.33,23.33,0,0,0,2.79-1.7c2.81-1.89,6.3-4.24,10.25-3,3.69,1.19,5.52,4.92,7.14,8.22a26.33,26.33,0,0,0,1.9,3.46,23.37,23.37,0,0,0,3.35-1.24c3.2-1.36,6.82-2.9,10.38-1.31s4.91,5.52,6,8.67A23.67,23.67,0,0,0,281,185.7a25.92,25.92,0,0,0,3.88-.89c3.52-1,7.5-2.1,10.83-.15,3.59,2.09,4.18,6.28,4.65,9.64a23.73,23.73,0,0,0,.58,3.17,25.29,25.29,0,0,0,3.84-.05c3.79-.23,8.08-.49,10.93,2.52s2.35,7.28,1.91,11.05a25.81,25.81,0,0,0-.27,3.83,23.58,23.58,0,0,0,3.13.76c3.33.66,7.48,1.47,9.38,5.18,1.76,3.43.42,7.34-.76,10.8a26.11,26.11,0,0,0-1.11,3.83,23.68,23.68,0,0,0,3.22,1.47c3.09,1.24,6.92,2.78,8.33,6.45s-.35,7.18-1.88,10.29a23.35,23.35,0,0,0-1.42,3.28,26.36,26.36,0,0,0,3.35,2.09c3.2,1.79,6.82,3.82,7.81,7.58,1,4-1.48,7.36-3.52,10.06a23.18,23.18,0,0,0-1.85,2.7,25.88,25.88,0,0,0,2.71,2.64c2.85,2.53,6.08,5.4,6,9.57s-3.5,6.86-6.49,9.23a26,26,0,0,0-2.86,2.48,23.28,23.28,0,0,0,1.7,2.79c1.89,2.81,4.24,6.3,3,10.24-1.19,3.69-4.92,5.52-8.22,7.14a26.25,26.25,0,0,0-3.46,1.9,23.29,23.29,0,0,0,1.24,3.35c1.36,3.2,2.9,6.83,1.31,10.38s-5.52,4.91-8.67,6a23.63,23.63,0,0,0-3.29,1.29,26.07,26.07,0,0,0,.89,3.88c1,3.51,2.1,7.49.15,10.83-2.09,3.59-6.28,4.18-9.64,4.65a23.73,23.73,0,0,0-3.17.58,25.64,25.64,0,0,0,.05,3.84c.23,3.79.49,8.08-2.52,10.93s-7.28,2.35-11.05,1.91a26.16,26.16,0,0,0-3.83-.27,23.71,23.71,0,0,0-.76,3.13c-.66,3.33-1.47,7.48-5.18,9.38-3.43,1.76-7.34.42-10.79-.76a26,26,0,0,0-3.83-1.11,23.66,23.66,0,0,0-1.47,3.22c-1.24,3.08-2.78,6.92-6.45,8.33s-7.17-.35-10.29-1.88a23.44,23.44,0,0,0-3.28-1.42,26.24,26.24,0,0,0-2.09,3.35c-1.79,3.2-3.82,6.82-7.58,7.81-4,1-7.36-1.48-10.06-3.52a23.16,23.16,0,0,0-2.7-1.85,25.75,25.75,0,0,0-2.64,2.71C226.18,412.88,223.31,416.11,219.14,416Zm-11.27-18.45a7.61,7.61,0,0,1,1.31.15c3.4.7,5.73,3.63,7.78,6.22a28.81,28.81,0,0,0,2.43,2.82,28.9,28.9,0,0,0,2.59-2.68c2.19-2.47,4.68-5.27,8.11-5.78,3.73-.56,6.86,1.81,9.38,3.71a29,29,0,0,0,2.41,1.69,31,31,0,0,0,2-3.2c1.68-3,3.58-6.39,6.95-7.57,3.64-1.28,7.15.45,10.24,2a26.84,26.84,0,0,0,3,1.35,26.79,26.79,0,0,0,1.38-3.07c1.28-3.19,2.73-6.8,6.27-8.27,3.32-1.38,7-.12,10.29,1a31,31,0,0,0,3.56,1.06,28.58,28.58,0,0,0,.68-2.9c.61-3.08,1.36-6.92,4.5-9,2.92-1.92,6.66-1.48,10-1.09a30.42,30.42,0,0,0,3.62.28,30.34,30.34,0,0,0-.08-3.63c-.2-3.32-.43-7.08,1.64-9.89,2.23-3,6.1-3.56,9.21-4a28.19,28.19,0,0,0,2.94-.52,31.15,31.15,0,0,0-.86-3.61c-.93-3.32-2-7.09-.43-10.33,1.67-3.45,5.35-4.7,8.6-5.8a26.7,26.7,0,0,0,3.15-1.21,27,27,0,0,0-1.18-3.11c-1.35-3.17-2.88-6.77-1.4-10.34,1.37-3.3,4.86-5,7.95-6.51a31,31,0,0,0,3.3-1.78,28.52,28.52,0,0,0-1.56-2.49c-1.76-2.62-3.95-5.88-3.19-9.57.7-3.4,3.63-5.73,6.22-7.78a28.88,28.88,0,0,0,2.82-2.43,28.91,28.91,0,0,0-2.68-2.59c-2.47-2.19-5.27-4.68-5.78-8.11-.55-3.73,1.81-6.86,3.71-9.38a28.71,28.71,0,0,0,1.69-2.41,30.87,30.87,0,0,0-3.2-2c-3-1.68-6.39-3.58-7.57-6.94-1.28-3.64.45-7.15,2-10.24a27,27,0,0,0,1.35-3,26.53,26.53,0,0,0-3.07-1.38c-3.19-1.28-6.8-2.73-8.27-6.27-1.38-3.33-.12-7,1-10.29a31.2,31.2,0,0,0,1.06-3.56,28.46,28.46,0,0,0-2.9-.68c-3.08-.61-6.92-1.36-9-4.5-1.92-2.92-1.48-6.66-1.09-10a30.23,30.23,0,0,0,.28-3.62,30.47,30.47,0,0,0-3.63.08c-3.32.2-7.08.43-9.89-1.64-3-2.23-3.56-6.1-4-9.21a28.34,28.34,0,0,0-.52-2.94,30.8,30.8,0,0,0-3.61.86c-3.32.93-7.09,2-10.33.43-3.45-1.67-4.7-5.35-5.8-8.6a26.58,26.58,0,0,0-1.21-3.14,27,27,0,0,0-3.11,1.18c-3.17,1.35-6.77,2.88-10.34,1.4-3.3-1.37-5-4.86-6.51-7.94a31,31,0,0,0-1.78-3.31,28.93,28.93,0,0,0-2.5,1.56c-2.62,1.76-5.87,4-9.57,3.19-3.4-.7-5.73-3.63-7.78-6.22a28.94,28.94,0,0,0-2.43-2.82,29,29,0,0,0-2.59,2.68c-2.19,2.47-4.68,5.27-8.11,5.78-3.73.56-6.86-1.81-9.38-3.71a28.68,28.68,0,0,0-2.41-1.69,30.75,30.75,0,0,0-2,3.2c-1.68,3-3.58,6.38-6.94,7.57-3.64,1.28-7.15-.45-10.24-2a26.85,26.85,0,0,0-3-1.35,26.47,26.47,0,0,0-1.38,3.07c-1.28,3.19-2.73,6.8-6.27,8.27-3.32,1.38-7,.12-10.29-1a30.94,30.94,0,0,0-3.56-1.06,28.46,28.46,0,0,0-.68,2.9c-.61,3.08-1.36,6.92-4.5,9-2.92,1.92-6.66,1.48-10,1.09a30,30,0,0,0-3.62-.28,30.24,30.24,0,0,0,.08,3.63c.2,3.32.43,7.08-1.64,9.89-2.23,3-6.1,3.56-9.21,4a28.14,28.14,0,0,0-2.94.52,31,31,0,0,0,.86,3.61c.93,3.32,2,7.09.43,10.33-1.66,3.45-5.35,4.7-8.6,5.8a26.66,26.66,0,0,0-3.14,1.21,27,27,0,0,0,1.18,3.11c1.35,3.17,2.88,6.77,1.4,10.34-1.37,3.3-4.86,5-7.94,6.51a30.92,30.92,0,0,0-3.31,1.78,29.08,29.08,0,0,0,1.56,2.49c1.76,2.62,4,5.88,3.19,9.57-.7,3.4-3.63,5.73-6.22,7.78a28.89,28.89,0,0,0-2.82,2.43,29.07,29.07,0,0,0,2.68,2.59c2.47,2.19,5.27,4.68,5.78,8.11.55,3.73-1.81,6.86-3.71,9.38a28.77,28.77,0,0,0-1.69,2.41,30.82,30.82,0,0,0,3.2,2c3,1.68,6.39,3.58,7.57,6.95,1.28,3.64-.45,7.15-2,10.24a27,27,0,0,0-1.35,3,26.72,26.72,0,0,0,3.07,1.38c3.19,1.28,6.8,2.73,8.27,6.27,1.38,3.32.12,7-1,10.29a31.13,31.13,0,0,0-1.06,3.56,28.32,28.32,0,0,0,2.9.68c3.08.61,6.92,1.36,9,4.5,1.92,2.92,1.48,6.66,1.09,10a30.26,30.26,0,0,0-.28,3.62,30.77,30.77,0,0,0,3.63-.08c3.32-.2,7.08-.43,9.89,1.64,3,2.23,3.56,6.1,4,9.21a28.39,28.39,0,0,0,.52,2.94,31.16,31.16,0,0,0,3.61-.86c3.32-.93,7.09-2,10.33-.43,3.45,1.67,4.7,5.35,5.8,8.6a26.62,26.62,0,0,0,1.21,3.14,26.79,26.79,0,0,0,3.11-1.18c3.17-1.35,6.77-2.87,10.34-1.4,3.3,1.37,5,4.86,6.51,7.95a30.87,30.87,0,0,0,1.78,3.31,29.07,29.07,0,0,0,2.49-1.56C201.92,399.33,204.72,397.45,207.87,397.54Z"/><path class="cls-3" d="M220.31,384.09c-3.61-.1-5.92-2.84-7.78-5-.4-.47-.94-1.11-1.36-1.54-.39.18-.86.44-1.22.64-2,1.1-5.1,2.77-8.42,1.43-2.92-1.18-4.36-4-5.63-6.49-.31-.6-.72-1.42-1.06-2-.5.13-1.17.35-1.66.51-2.31.77-5.19,1.72-8.08.43S181,368,180,365.7c-.2-.47-.48-1.1-.71-1.56-.65.11-1.57.36-2.19.52-2.69.71-5.73,1.51-8.54.12-3.22-1.59-4-5-4.58-7.24-.09-.39-.22-.9-.33-1.3-.61,0-1.46,0-2.09,0-2.87.09-6.44.19-8.91-2.41s-2.16-6.17-1.91-9c.05-.62.13-1.47.13-2.08-.4-.14-.89-.29-1.27-.4-2.22-.66-5.58-1.66-7-5-1.23-2.87-.26-5.87.6-8.52.2-.61.49-1.52.64-2.16-.44-.26-1.06-.57-1.52-.8-2.2-1.1-4.93-2.46-6.07-5.44s0-5.78.88-8c.19-.48.45-1.13.6-1.63-.53-.37-1.32-.83-1.9-1.16-2.42-1.41-5.16-3-6.17-6-1.15-3.39.67-6.36,1.88-8.33.22-.35.5-.81.7-1.19-.4-.44-1-1-1.46-1.44-2.09-2-4.69-4.44-4.59-8s2.84-5.92,5-7.78c.47-.4,1.11-.94,1.53-1.36-.18-.39-.44-.86-.64-1.22-1.1-2-2.76-5.1-1.43-8.42,1.18-2.92,4-4.36,6.49-5.63.6-.31,1.42-.72,2-1.06-.13-.5-.35-1.17-.51-1.66-.77-2.31-1.72-5.19-.43-8.08s4.11-4.12,6.36-5.1c.47-.2,1.1-.48,1.56-.71-.11-.65-.36-1.57-.52-2.19-.71-2.69-1.51-5.73-.12-8.54,1.59-3.23,5-4,7.24-4.58.39-.09.9-.21,1.3-.33,0-.61,0-1.46,0-2.09-.09-2.87-.19-6.44,2.41-8.91h0c2.61-2.47,6.17-2.16,9-1.91.62.05,1.47.13,2.08.13.14-.4.29-.9.4-1.28.66-2.22,1.66-5.58,5-7,2.86-1.23,5.87-.26,8.52.6.61.2,1.51.49,2.16.64.26-.44.57-1.06.8-1.52,1.1-2.2,2.46-4.93,5.44-6.07s5.78,0,8,.88c.48.19,1.13.45,1.63.6.37-.53.83-1.32,1.17-1.9,1.41-2.42,3-5.16,6-6.17,3.39-1.15,6.36.67,8.33,1.88.35.21.81.5,1.19.7.44-.4,1-1,1.44-1.46,2-2.09,4.44-4.69,8-4.59s5.92,2.84,7.78,5c.4.47.94,1.11,1.36,1.53.39-.18.86-.44,1.22-.64,2-1.1,5.1-2.76,8.42-1.43,2.92,1.18,4.36,4,5.63,6.49.31.6.72,1.42,1.06,2,.5-.13,1.17-.35,1.66-.51,2.31-.77,5.2-1.72,8.08-.43s4.12,4.11,5.1,6.36c.2.47.48,1.1.71,1.56.65-.11,1.57-.36,2.19-.52,2.69-.71,5.73-1.51,8.54-.12,3.23,1.59,4,5,4.58,7.24.09.39.22.9.33,1.3.61,0,1.46,0,2.09,0,2.87-.09,6.44-.19,8.91,2.41s2.16,6.17,1.91,9c-.05.62-.13,1.47-.13,2.08.4.14.89.29,1.28.4,2.22.66,5.58,1.66,7,5,1.23,2.87.26,5.87-.6,8.52-.2.61-.49,1.52-.64,2.16.44.26,1.06.57,1.52.8,2.2,1.1,4.93,2.46,6.07,5.44s0,5.78-.88,8c-.19.48-.45,1.13-.6,1.63.53.37,1.32.83,1.9,1.17,2.42,1.41,5.15,3,6.17,6,1.15,3.39-.67,6.36-1.88,8.33-.21.35-.5.81-.7,1.19.4.45,1,1,1.46,1.44,2.09,2,4.7,4.44,4.59,8s-2.84,5.92-5,7.78c-.47.4-1.11.94-1.54,1.36.18.39.44.86.64,1.22,1.1,2,2.76,5.1,1.43,8.42-1.18,2.92-4,4.36-6.49,5.63-.6.31-1.42.72-2,1.06.13.5.35,1.17.51,1.66.77,2.31,1.72,5.19.43,8.08s-4.11,4.12-6.37,5.1c-.47.2-1.1.48-1.56.71.11.65.36,1.57.52,2.19.71,2.69,1.51,5.73.12,8.53-1.59,3.23-5,4-7.24,4.58-.39.09-.9.21-1.3.33,0,.61,0,1.46,0,2.09.09,2.87.19,6.44-2.41,8.91s-6.16,2.16-9,1.91c-.62-.05-1.47-.13-2.08-.13-.14.4-.29.89-.4,1.28-.66,2.22-1.66,5.58-5,7-2.87,1.23-5.87.26-8.52-.6-.61-.2-1.52-.49-2.16-.64-.26.44-.57,1.06-.8,1.52-1.1,2.2-2.46,4.93-5.44,6.07s-5.78,0-8-.88c-.48-.19-1.13-.45-1.63-.6-.37.53-.83,1.32-1.17,1.9-1.41,2.42-3,5.15-6,6.17-3.39,1.15-6.36-.67-8.33-1.88-.35-.21-.81-.5-1.19-.7-.44.4-1,1-1.44,1.46C226.38,381.59,223.91,384.19,220.31,384.09Zm-8.57-15.78a7.06,7.06,0,0,1,1.65.24c2.65.72,4.44,2.83,6,4.69.32.38.77.91,1.18,1.34.42-.41.9-.91,1.25-1.28,1.68-1.77,3.57-3.78,6.26-4.35,3.11-.66,5.72.94,7.62,2.11l.82.5c.34-.52.72-1.17,1-1.64,1.32-2.27,2.81-4.84,5.5-6,3.08-1.28,6.14-.07,8.38.81.42.16,1,.38,1.42.53.24-.42.51-1,.72-1.38,1.07-2.14,2.53-5.08,5.65-6.18,2.77-1,5.61-.06,8.13.76.51.16,1.22.39,1.81.55.1-.32.21-.66.29-.94.64-2.14,1.5-5.06,4.26-6.63,2.4-1.36,5.17-1.13,7.61-.92.48,0,1.13.1,1.7.12,0-.57,0-1.22,0-1.7-.07-2.45-.16-5.23,1.34-7.55,1.72-2.67,4.68-3.38,6.85-3.89l1-.24c-.13-.6-.31-1.32-.45-1.83-.67-2.55-1.43-5.45-.3-8.16,1.27-3.05,4.28-4.35,6.48-5.3.42-.18,1-.42,1.41-.64-.13-.46-.31-1-.45-1.44-.76-2.28-1.79-5.41-.34-8.41,1.26-2.62,3.91-4,6.25-5.16.48-.24,1.15-.59,1.69-.9-.15-.29-.31-.59-.45-.84-1.07-2-2.53-4.66-1.69-7.73.72-2.65,2.83-4.43,4.69-6,.38-.32.91-.77,1.34-1.17-.41-.42-.91-.9-1.28-1.25-1.77-1.68-3.78-3.57-4.35-6.26-.66-3.11.94-5.72,2.11-7.62.15-.24.33-.54.5-.82-.52-.34-1.17-.72-1.64-1-2.27-1.32-4.84-2.81-6-5.5-1.28-3.08-.07-6.14.81-8.38.16-.42.38-1,.53-1.42-.43-.24-1-.51-1.38-.71-2.14-1.07-5.08-2.53-6.18-5.65-1-2.77-.06-5.62.76-8.13.16-.51.39-1.21.55-1.81l-.94-.29c-2.14-.63-5.06-1.5-6.63-4.26-1.36-2.4-1.13-5.17-.92-7.61,0-.48.1-1.13.12-1.7-.57,0-1.22,0-1.7,0-2.45.07-5.23.16-7.55-1.34-2.67-1.72-3.38-4.68-3.9-6.85-.07-.28-.15-.63-.24-1-.6.13-1.32.31-1.84.45-2.55.67-5.45,1.43-8.15.3-3.05-1.27-4.35-4.28-5.3-6.48-.18-.42-.42-1-.64-1.41-.46.13-1,.31-1.44.45-2.28.76-5.41,1.79-8.41.34-2.62-1.27-4-3.91-5.16-6.25-.25-.48-.59-1.15-.9-1.69l-.84.45c-2,1.07-4.66,2.52-7.73,1.69-2.65-.72-4.43-2.83-6-4.69-.32-.38-.77-.91-1.18-1.34-.42.41-.9.91-1.25,1.27-1.68,1.77-3.57,3.78-6.26,4.35-3.11.66-5.72-.94-7.62-2.11l-.82-.5c-.34.52-.72,1.18-1,1.64-1.32,2.27-2.81,4.84-5.5,6-3.08,1.28-6.14.07-8.38-.81-.42-.16-1-.38-1.42-.53-.24.42-.51,1-.71,1.37-1.07,2.14-2.53,5.08-5.66,6.18-2.77,1-5.61.06-8.13-.76-.51-.16-1.22-.39-1.81-.55-.1.32-.2.66-.29.94-.64,2.14-1.5,5.06-4.26,6.63-2.4,1.36-5.17,1.13-7.61.92-.48,0-1.13-.1-1.7-.12,0,.57,0,1.22,0,1.7.07,2.45.16,5.23-1.34,7.55-1.72,2.67-4.68,3.38-6.85,3.9l-1,.24c.13.6.31,1.32.45,1.84.67,2.55,1.43,5.44.3,8.15-1.27,3.05-4.28,4.35-6.48,5.3-.42.18-1,.42-1.41.64.13.46.31,1,.45,1.44.76,2.28,1.79,5.41.34,8.41-1.27,2.62-3.91,4-6.25,5.16-.48.24-1.15.59-1.69.9.15.29.31.59.45.84,1.07,2,2.53,4.66,1.69,7.73-.72,2.65-2.83,4.43-4.69,6-.38.32-.91.77-1.34,1.18.41.42.91.9,1.28,1.25,1.77,1.68,3.78,3.57,4.35,6.26.66,3.11-.94,5.72-2.11,7.62-.15.24-.33.54-.5.82.52.34,1.17.72,1.64,1,2.27,1.32,4.84,2.81,6,5.5,1.28,3.08.07,6.14-.81,8.38-.17.42-.38,1-.53,1.42.42.24,1,.51,1.37.71,2.14,1.07,5.08,2.53,6.18,5.66,1,2.77.06,5.61-.76,8.13-.16.51-.39,1.21-.55,1.81l.94.29c2.14.64,5.06,1.5,6.63,4.26,1.36,2.4,1.13,5.17.92,7.61,0,.48-.1,1.13-.12,1.7.57,0,1.22,0,1.7,0,2.45-.07,5.23-.16,7.55,1.34,2.67,1.72,3.38,4.68,3.9,6.85.07.28.15.63.24,1,.6-.13,1.32-.31,1.84-.45,2.55-.67,5.45-1.43,8.15-.3,3.05,1.27,4.35,4.28,5.3,6.48.18.42.42,1,.64,1.41.46-.13,1-.31,1.44-.45,2.28-.76,5.41-1.79,8.41-.34,2.62,1.26,4,3.91,5.16,6.25.25.48.59,1.15.9,1.69l.84-.45A12.19,12.19,0,0,1,211.73,368.31Z"/><path class="cls-3" d="M221.48,352.19c-3-.08-4.95-2.13-6.27-3.48l-.55-.55-.1,0a8,8,0,0,1-6.19-.5,10.94,10.94,0,0,1-3.79-4.51l-.44-.78-.37,0a8.11,8.11,0,0,1-9.06-4.09l-.21-.3-.88.19a10.9,10.9,0,0,1-5.84.17,8,8,0,0,1-4.51-4.27l0-.07-.8,0c-1.89-.07-4.75-.18-6.77-2.32s-2-5-1.94-6.89c0-.23,0-.53,0-.79l-.06,0a8,8,0,0,1-4-4.73,10.9,10.9,0,0,1,.49-5.83c.07-.26.16-.58.24-.87l-.29-.22a8.11,8.11,0,0,1-3.58-9.28l.06-.37-.75-.48a10.94,10.94,0,0,1-4.29-4,8,8,0,0,1-.17-6.2l0-.11-.53-.58c-1.28-1.39-3.21-3.5-3.13-6.45s2.13-4.95,3.48-6.27l.55-.55,0-.1a8,8,0,0,1,.5-6.19,10.94,10.94,0,0,1,4.51-3.79l.78-.44,0-.37a8.11,8.11,0,0,1,4.09-9.06l.3-.21c-.06-.29-.13-.62-.19-.88a10.89,10.89,0,0,1-.17-5.84,8,8,0,0,1,4.27-4.51l.07,0c0-.27,0-.56,0-.8.07-1.89.18-4.75,2.32-6.77h0c2.14-2,5-2,6.89-1.94h.79l0-.06a8,8,0,0,1,4.73-4,10.91,10.91,0,0,1,5.83.49l.87.24.23-.29a8.11,8.11,0,0,1,9.28-3.58l.37.06.48-.75a10.93,10.93,0,0,1,4-4.29,8,8,0,0,1,6.2-.17l.11,0,.58-.53c1.39-1.28,3.49-3.21,6.45-3.13s4.95,2.13,6.27,3.48l.55.55.1,0a8,8,0,0,1,6.19.5,10.94,10.94,0,0,1,3.79,4.51l.44.78.37,0a8.11,8.11,0,0,1,9.06,4.09l.21.3.88-.19a10.89,10.89,0,0,1,5.84-.17,8,8,0,0,1,4.51,4.27l0,.07.8,0c1.89.07,4.74.18,6.77,2.32s2,5,1.94,6.89c0,.23,0,.53,0,.79l.06,0a8,8,0,0,1,4,4.73,10.9,10.9,0,0,1-.49,5.83c-.07.26-.16.58-.24.87l.29.23a8.11,8.11,0,0,1,3.58,9.28l-.06.37.75.48a10.93,10.93,0,0,1,4.29,4,8,8,0,0,1,.17,6.2l0,.11.53.58c1.28,1.39,3.21,3.5,3.13,6.45s-2.13,5-3.48,6.27l-.55.55,0,.1a8,8,0,0,1-.5,6.19,11,11,0,0,1-4.51,3.79l-.78.44c0,.13,0,.26,0,.37a8.11,8.11,0,0,1-4.09,9.06l-.3.21c.06.3.13.62.19.88a10.88,10.88,0,0,1,.17,5.84,8,8,0,0,1-4.27,4.51l-.07,0c0,.27,0,.56,0,.8-.07,1.89-.18,4.75-2.32,6.77s-5,2-6.89,1.94h-.79l0,.06a8,8,0,0,1-4.73,4,10.93,10.93,0,0,1-5.83-.49l-.87-.24-.22.29a8.11,8.11,0,0,1-9.28,3.58l-.37-.06-.48.75a10.94,10.94,0,0,1-4,4.29,8,8,0,0,1-6.2.17l-.11,0-.58.53C226.54,350.34,224.44,352.27,221.48,352.19ZM215.43,339a6.81,6.81,0,0,1,2.42.5,11.59,11.59,0,0,1,3.8,2.89l.09.09.09-.09a11.6,11.6,0,0,1,4-2.68,8.14,8.14,0,0,1,5.09.1l.34-.54a11.18,11.18,0,0,1,3.79-4.14,9,9,0,0,1,6.24-.61l.37.06.25-.31a9,9,0,0,1,5-3.72,11.22,11.22,0,0,1,5.64.54l.6.17a7.59,7.59,0,0,1,3.74-3.12c1.65-.68,3.37-.31,4.76-.28l-.87,0,0-.74a12.6,12.6,0,0,1,1.34-4.71,8.43,8.43,0,0,1,3.9-3.55c0-.21,0-.42,0-.6a11.21,11.21,0,0,1-.17-5.66,9,9,0,0,1,4-4.79l.34-.23c0-.13,0-.26,0-.37a9,9,0,0,1,1-6.19,11.19,11.19,0,0,1,4.35-3.56l.55-.31a8.11,8.11,0,0,1,.18-5.09,11.61,11.61,0,0,1,2.9-3.8l.09-.09-.09-.1a11.6,11.6,0,0,1-2.68-4,8.14,8.14,0,0,1,.1-5.1l-.54-.34a11.18,11.18,0,0,1-4.14-3.79,9,9,0,0,1-.61-6.24l.06-.37-.31-.25a9,9,0,0,1-3.72-5,11.18,11.18,0,0,1,.54-5.64l.17-.6c-1.08-.67-3.11-1.76-3.93-3.76a12.58,12.58,0,0,1-1.08-4.78l0,.63.87,0a12.25,12.25,0,0,1-4.71-1.22,8.33,8.33,0,0,1-3.55-3.84c-.21,0-.43,0-.61,0a11.2,11.2,0,0,1-5.66.18,9,9,0,0,1-4.79-4l-.23-.34-.37,0a9,9,0,0,1-6.19-1,11.2,11.2,0,0,1-3.56-4.35l-.31-.55a8.11,8.11,0,0,1-5.09-.18,11.62,11.62,0,0,1-3.81-2.89l-.09-.09-.09.09a11.6,11.6,0,0,1-4,2.68,8.14,8.14,0,0,1-5.1-.1l-.34.54a11.16,11.16,0,0,1-3.79,4.14,9,9,0,0,1-6.24.61l-.37-.06-.25.31a9,9,0,0,1-5,3.71,11.2,11.2,0,0,1-5.64-.54l-.6-.17c-.67,1.08-1.76,3-3.76,3.81a12.26,12.26,0,0,1-4.77,1l-1,0,0-.63c0,1.39.35,3.12-.42,4.73a7.77,7.77,0,0,1-3.44,3.56c0,.21.21.43.25.61a11.14,11.14,0,0,1,.28,5.66,8.94,8.94,0,0,1-4,4.79l-.31.23c0,.13,0,.26.05.37a9,9,0,0,1-1,6.2,11.19,11.19,0,0,1-4.35,3.56l-.55.31a8.11,8.11,0,0,1-.18,5.09,11.61,11.61,0,0,1-2.89,3.8l-.09.09.09.09a11.6,11.6,0,0,1,2.68,4,8.14,8.14,0,0,1-.1,5.09l.54.34a11.16,11.16,0,0,1,4.14,3.79,9,9,0,0,1,.61,6.24l-.06.37.31.25a9,9,0,0,1,3.71,5,11.19,11.19,0,0,1-.54,5.64l-.17.6a7.45,7.45,0,0,1,3,3.73c.68,1.65.19,3.37.15,4.75l0,.74,1,0c1.39,0,3.12-.23,4.73.54a7.84,7.84,0,0,1,3.56,3.5c.21,0,.43-.18.61-.22a11.18,11.18,0,0,1,5.66-.27,9,9,0,0,1,4.79,4l.23.32.37,0a9,9,0,0,1,6.19,1,11.18,11.18,0,0,1,3.56,4.35l.31.55A10.27,10.27,0,0,1,215.43,339Z"/><path class="cls-3" d="M222.65,320.28c-4.24-.12-6.8-3.57-8.67-6.09a16.16,16.16,0,0,0-2-2.36,15.84,15.84,0,0,0-3.24.09c-3.07.27-7.27.63-10.1-2.36s-2.23-7.17-1.8-10.22a16,16,0,0,0,.27-3.24A16.22,16.22,0,0,0,194.9,294c-2.41-2-5.72-4.75-5.6-9s3.57-6.81,6.09-8.67a16.24,16.24,0,0,0,2.36-2,16,16,0,0,0-.09-3.24c-.27-3.07-.63-7.27,2.36-10.1s7.17-2.23,10.22-1.8a15.83,15.83,0,0,0,3.23.27,16.23,16.23,0,0,0,2.08-2.24c2-2.41,4.75-5.72,9-5.6s6.8,3.57,8.68,6.09a16.13,16.13,0,0,0,2,2.36,16.11,16.11,0,0,0,3.24-.09c3.07-.27,7.27-.63,10.1,2.36s2.23,7.17,1.8,10.22a15.94,15.94,0,0,0-.27,3.23,16.23,16.23,0,0,0,2.24,2.08c2.41,2,5.72,4.75,5.6,9s-3.57,6.81-6.09,8.67a16.2,16.2,0,0,0-2.36,2,15.93,15.93,0,0,0,.09,3.24c.27,3.07.63,7.27-2.36,10.1s-7.17,2.23-10.22,1.8a15.93,15.93,0,0,0-3.23-.27,16.12,16.12,0,0,0-2.08,2.24C229.64,317.1,226.89,320.4,222.65,320.28Zm-11-17.5a10.6,10.6,0,0,1,4.08.84c2.43,1.09,4.05,3.28,5.49,5.21a26.46,26.46,0,0,0,1.7,2.14,26.33,26.33,0,0,0,1.82-2c1.54-1.85,3.28-3.94,5.76-4.9s5.32-.58,7.75-.23c.7.1,1.73.25,2.48.29,0-.75-.09-1.79-.15-2.49-.21-2.45-.45-5.22.66-7.72s3.28-4.05,5.21-5.49a26.5,26.5,0,0,0,2.14-1.7,26.35,26.35,0,0,0-2-1.82c-1.85-1.54-3.95-3.28-4.9-5.77s-.58-5.31-.23-7.75c.1-.7.25-1.73.29-2.48-.75,0-1.79.09-2.49.15-2.45.21-5.23.45-7.72-.66s-4.05-3.28-5.49-5.21a26.63,26.63,0,0,0-1.7-2.14,26.62,26.62,0,0,0-1.82,2c-1.54,1.85-3.28,3.95-5.77,4.9s-5.32.58-7.75.23c-.7-.1-1.73-.25-2.48-.29,0,.75.09,1.79.15,2.49.21,2.45.46,5.22-.66,7.72s-3.28,4.05-5.21,5.49a26.67,26.67,0,0,0-2.14,1.7,26.62,26.62,0,0,0,2,1.82c1.85,1.54,3.95,3.28,4.9,5.77s.58,5.31.23,7.75c-.1.7-.25,1.73-.29,2.48.75,0,1.79-.09,2.49-.15A31.75,31.75,0,0,1,211.64,302.78Z"/><g class="cls-4"><ellipse class="cls-5" cx="196.77" cy="457.26" rx="92.3" ry="150.96" transform="translate(-265.77 641.27) rotate(-88.41)"/><g class="cls-6"><path class="cls-7" d="M215.63,511.71c-5.75-.16-9.67-5.5-13.46-10.67-1.7-2.32-4.87-6.64-6.25-6.86s-5.68,3.3-8,5.18c-4.89,4-10,8.19-15.48,6.93s-8.39-7.26-11.09-13.06c-1.22-2.62-3.5-7.51-4.83-8s-6.19,2.12-8.78,3.51c-5.6,3-11.39,6.08-16.58,3.77s-6.78-8.75-8.29-15c-.69-2.83-2-8.09-3.18-8.8s-6.46.87-9.27,1.72c-6.09,1.84-12.38,3.74-17,.45s-4.93-9.89-5.2-16.26c-.12-2.92-.35-8.35-1.41-9.28s-6.49-.4-9.4-.11c-6.34.62-12.89,1.27-16.81-2.88s-2.91-10.65-1.94-16.94c.45-2.89,1.28-8.28.41-9.4s-6.28-1.64-9.18-1.93c-6.34-.62-12.9-1.26-15.95-6.09s-.78-11,1.39-17c1-2.75,2.87-7.88,2.23-9.16s-5.82-2.82-8.61-3.67c-6.11-1.85-12.43-3.76-14.47-9.11s1.38-10.92,4.68-16.34c1.53-2.51,4.37-7.18,4-8.58S18,340.32,15.45,339C9.81,335.94,4,332.82,3,327.16s3.49-10.4,7.78-15.07c2-2.17,5.71-6.21,5.61-7.66s-4.28-4.8-6.5-6.62c-5-4.07-10.07-8.27-9.91-14s5.5-9.67,10.67-13.46c2.32-1.7,6.64-4.87,6.86-6.25s-3.3-5.69-5.18-8c-4-4.89-8.19-10-6.93-15.48s7.27-8.39,13.06-11.09c2.62-1.22,7.51-3.5,8-4.83s-2.12-6.19-3.51-8.78c-3-5.6-6.09-11.39-3.77-16.58s8.75-6.78,15-8.29c2.83-.69,8.09-2,8.8-3.18s-.87-6.46-1.72-9.27c-1.84-6.09-3.74-12.38-.45-17s9.89-4.93,16.26-5.2c2.92-.12,8.35-.35,9.28-1.41s.4-6.49.11-9.4c-.62-6.34-1.27-12.89,2.88-16.81s10.65-2.91,16.94-1.94c2.89.45,8.27,1.28,9.4.41s1.64-6.28,1.93-9.18c.62-6.34,1.26-12.9,6.09-15.95s11-.78,17,1.39c2.75,1,7.88,2.87,9.16,2.23s2.82-5.82,3.67-8.61c1.85-6.11,3.76-12.43,9.11-14.48s10.92,1.38,16.34,4.68c2.51,1.53,7.19,4.37,8.58,4s3.89-5.14,5.26-7.7c3-5.64,6.14-11.47,11.8-12.43S195,74.66,199.62,79c2.17,2,6.18,5.71,7.66,5.61s4.8-4.28,6.62-6.5c4.07-5,8.27-10.07,14-9.91s9.67,5.5,13.46,10.67c1.7,2.32,4.87,6.64,6.25,6.86s5.69-3.3,8-5.18c4.89-4,10-8.19,15.48-6.93s8.39,7.27,11.09,13.06c1.22,2.62,3.5,7.51,4.83,8s6.19-2.12,8.78-3.51c5.6-3,11.39-6.09,16.58-3.77s6.78,8.75,8.29,15c.69,2.83,2,8.09,3.18,8.8s6.47-.87,9.27-1.72c6.09-1.84,12.38-3.74,17-.45s4.93,9.89,5.2,16.26c.12,2.92.35,8.35,1.41,9.28s6.49.4,9.4.11c6.34-.62,12.89-1.26,16.8,2.88s2.91,10.65,1.94,16.94c-.45,2.89-1.28,8.27-.41,9.4s6.28,1.64,9.18,1.93c6.34.62,12.9,1.26,15.95,6.09s.79,11-1.39,17c-1,2.75-2.87,7.88-2.23,9.16s5.83,2.82,8.61,3.67c6.11,1.85,12.43,3.76,14.47,9.11s-1.38,10.92-4.68,16.34c-1.53,2.51-4.37,7.18-4,8.58s5.14,3.89,7.7,5.26c5.64,3,11.47,6.14,12.43,11.8s-3.49,10.4-7.78,15.07c-2,2.17-5.71,6.21-5.61,7.66s4.28,4.8,6.5,6.62c5,4.07,10.07,8.27,9.91,14s-5.5,9.67-10.67,13.46c-2.32,1.7-6.64,4.87-6.86,6.25s3.3,5.69,5.18,8c4,4.9,8.19,10,6.93,15.48s-7.26,8.39-13.06,11.09c-2.62,1.22-7.51,3.5-8,4.83s2.12,6.19,3.51,8.78c3,5.6,6.09,11.39,3.77,16.58s-8.75,6.78-15,8.29c-2.83.69-8.09,2-8.8,3.18s.87,6.46,1.72,9.27c1.84,6.09,3.74,12.38.45,17s-9.89,4.93-16.26,5.2c-2.92.12-8.35.35-9.28,1.41s-.4,6.49-.11,9.4c.62,6.34,1.27,12.89-2.88,16.81S363.6,454,357.31,453c-2.89-.45-8.27-1.28-9.4-.41s-1.64,6.28-1.93,9.18c-.62,6.34-1.26,12.9-6.09,15.95s-11,.79-17-1.39c-2.75-1-7.88-2.87-9.16-2.23s-2.82,5.82-3.67,8.61c-1.85,6.11-3.76,12.43-9.11,14.47s-10.92-1.38-16.34-4.68c-2.51-1.53-7.19-4.36-8.58-4s-3.89,5.14-5.26,7.7c-3,5.64-6.14,11.47-11.8,12.43s-10.4-3.49-15.07-7.78c-2.17-2-6.21-5.67-7.66-5.61s-4.8,4.28-6.62,6.5C225.59,506.75,221.38,511.87,215.63,511.71Zm-19.5-26.53c.3,0,.61,0,.91.07,5.2.65,8.86,5.64,12.39,10.47,1.63,2.23,5,6.88,6.45,7,1.41,0,5.06-4.49,6.82-6.63,3.8-4.62,7.72-9.4,13-9.76s9.93,3.87,14.38,8c2.09,1.93,6,5.49,7.43,5.53h.06c1.35-.33,4.05-5.38,5.35-7.8,2.83-5.28,5.75-10.75,10.82-12.13s10.46,1.84,15.62,5c2.48,1.51,7.1,4.31,8.47,4,1.26-.61,2.9-6.05,3.7-8.67,1.74-5.75,3.54-11.69,8.25-14.05s10.6-.24,16.27,1.82c2.74,1,7.84,2.85,9.1,2.23,1.11-.85,1.66-6.49,1.92-9.2.59-6,1.19-12.18,5.37-15.42s10.34-2.3,16.29-1.38c2.89.45,8.27,1.28,9.39.41.91-1.05.38-6.47.1-9.38-.59-6-1.2-12.19,2.28-16.19s9.68-4.25,15.69-4.5c2.72-.11,8.39-.35,9.31-1.43.68-1.21-.89-6.41-1.73-9.2-1.74-5.77-3.55-11.74-.91-16.34s8.65-6,14.49-7.46c2.66-.65,8.19-2,8.87-3.23.42-1.32-2.12-6.09-3.49-8.65-2.85-5.32-5.79-10.83-4.11-15.87s7.28-7.6,12.71-10.14c2.49-1.16,7.68-3.58,8.09-4.93.14-1.38-3.27-5.53-5.11-7.76-3.84-4.67-7.82-9.51-7.15-14.8s5.64-8.86,10.47-12.39c2.23-1.64,6.87-5,7-6.45,0-1.42-4.49-5.07-6.63-6.82-4.62-3.8-9.4-7.72-9.77-13s3.87-9.93,8-14.38c2-2.13,5.6-6.08,5.53-7.49-.33-1.35-5.38-4.05-7.8-5.35-5.28-2.83-10.75-5.75-12.13-10.82s1.84-10.46,5-15.62c1.51-2.48,4.32-7.1,4-8.47-.61-1.26-6.05-2.9-8.67-3.7-5.75-1.74-11.69-3.54-14.05-8.25s-.24-10.6,1.82-16.27c1-2.74,2.85-7.84,2.23-9.11-.85-1.11-6.49-1.66-9.2-1.92-6-.59-12.18-1.19-15.42-5.37S375.08,159,376,153c.45-2.89,1.28-8.27.41-9.39-1.05-.91-6.47-.38-9.38-.1-6,.59-12.19,1.2-16.19-2.28s-4.25-9.68-4.5-15.69c-.11-2.72-.35-8.39-1.43-9.31-1.21-.68-6.41.89-9.2,1.73-5.77,1.74-11.74,3.55-16.34.91s-6-8.65-7.46-14.49c-.65-2.66-2-8.19-3.23-8.87-1.33-.42-6.09,2.12-8.65,3.49-5.33,2.84-10.83,5.79-15.87,4.1s-7.6-7.28-10.14-12.71c-1.16-2.49-3.58-7.68-4.93-8.09-1.33-.14-5.53,3.27-7.76,5.11-4.67,3.84-9.5,7.83-14.8,7.15S237.66,89,234.13,84.14c-1.63-2.23-5-6.88-6.45-7-1.41,0-5.06,4.49-6.82,6.63-3.8,4.62-7.72,9.4-13,9.77s-9.93-3.87-14.38-8c-2.13-2-6.08-5.59-7.49-5.53-1.35.33-4.05,5.38-5.35,7.8-2.83,5.28-5.75,10.75-10.83,12.13s-10.46-1.84-15.62-5c-2.48-1.51-7.11-4.31-8.47-4-1.26.61-2.9,6.05-3.7,8.67-1.74,5.75-3.54,11.69-8.25,14.05s-10.6.24-16.27-1.82c-2.74-1-7.84-2.85-9.11-2.23-1.11.85-1.66,6.49-1.92,9.2-.59,6-1.19,12.18-5.37,15.42s-10.34,2.3-16.29,1.38c-2.89-.45-8.27-1.28-9.39-.41-.91,1-.38,6.47-.1,9.38.59,6,1.2,12.19-2.28,16.19s-9.68,4.25-15.69,4.5c-2.72.11-8.39.35-9.31,1.43-.68,1.21.89,6.41,1.73,9.2,1.74,5.77,3.55,11.74.91,16.34s-8.65,6-14.49,7.46c-2.66.65-8.19,2-8.87,3.23-.42,1.32,2.12,6.09,3.49,8.65,2.85,5.33,5.79,10.83,4.1,15.87s-7.28,7.6-12.71,10.14c-2.49,1.16-7.68,3.58-8.09,4.93-.14,1.38,3.27,5.53,5.11,7.76,3.84,4.67,7.82,9.51,7.15,14.8S20.82,274,16,277.58c-2.23,1.64-6.88,5-7,6.45,0,1.41,4.49,5.06,6.63,6.82,4.62,3.8,9.4,7.72,9.77,13s-3.87,9.93-8,14.38c-2,2.13-5.6,6.08-5.53,7.49.33,1.35,5.38,4.05,7.8,5.35,5.28,2.83,10.75,5.75,12.13,10.83s-1.84,10.46-5,15.62c-1.51,2.48-4.32,7.1-4,8.47.61,1.26,6.05,2.9,8.67,3.7,5.75,1.74,11.69,3.54,14.05,8.25s.24,10.6-1.82,16.27c-1,2.74-2.85,7.84-2.23,9.1.85,1.11,6.49,1.66,9.2,1.92,6,.59,12.18,1.19,15.42,5.37s2.3,10.34,1.38,16.29c-.45,2.89-1.28,8.27-.41,9.39,1.05.92,6.47.38,9.38.1,6-.59,12.19-1.2,16.19,2.28s4.25,9.68,4.5,15.69c.11,2.72.35,8.39,1.43,9.31,1.21.68,6.41-.89,9.2-1.73,5.77-1.74,11.74-3.55,16.34-.91s6,8.65,7.46,14.49c.65,2.66,2,8.19,3.23,8.87,1.32.42,6.09-2.12,8.65-3.49,5.32-2.84,10.83-5.79,15.87-4.11S167,484,169.54,489.42c1.16,2.49,3.58,7.68,4.93,8.09h.06c1.44,0,5.5-3.3,7.7-5.11C186.64,488.78,191.19,485,196.13,485.18Z"/><path class="cls-7" d="M216.8,479.8c-5.24-.15-8.71-4.8-12.06-9.29-1.43-1.92-3.82-5.12-5-5.54-1.22.08-4.45,2.63-6.21,4-4.29,3.39-8.73,6.9-13.74,5.66s-7.45-6.44-9.82-11.47c-1-2.08-2.8-5.95-3.85-6.51-1.1-.21-4.88,1.74-6.92,2.78-4.86,2.49-9.89,5.05-14.56,3s-6.15-7.6-7.54-12.91c-.57-2.19-1.64-6.26-2.57-7-1.06-.39-5.2.85-7.43,1.51-5.3,1.58-10.78,3.21-15,.33s-4.66-8.86-5-14.09c-.14-2.2-.39-6.26-1.12-7.22-1.09-.6-5.28-.22-7.54,0-5.55.5-11.3,1-14.87-2.76s-2.73-9.48-1.93-15c.33-2.25.94-6.41.4-7.53-.92-.78-5-1.26-7.15-1.52-5.21-.61-11.11-1.31-13.8-5.76s-.71-9.76,1.16-15c.79-2.19,2.25-6.26,1.88-7.41-.63-.89-4.64-2.18-6.8-2.88-5.23-1.68-10.63-3.43-12.47-8.24s1-9.66,3.77-14.37c1.15-2,3.3-5.66,3.13-6.83-.48-1-4.24-3-6.26-4.13-4.89-2.64-10-5.38-10.91-10.44s2.78-9.3,6.41-13.4c1.48-1.67,4.21-4.76,4.36-6-.36-1.17-3.42-3.73-5.26-5.27-4.3-3.6-8.76-7.32-8.61-12.56s4.8-8.71,9.29-12.06c1.92-1.43,5.12-3.82,5.54-5-.08-1.22-2.63-4.46-4-6.21C39,256.46,35.47,252,36.71,247s6.44-7.45,11.47-9.82c2.08-1,5.95-2.8,6.51-3.85.2-1.09-1.74-4.88-2.78-6.92-2.49-4.86-5.06-9.89-3-14.56s7.6-6.15,12.91-7.54c2.19-.57,6.26-1.64,7-2.57.39-1.05-.85-5.2-1.51-7.43-1.58-5.3-3.21-10.78-.33-15s8.86-4.66,14.09-5c2.2-.13,6.26-.39,7.22-1.12.6-1.09.22-5.28,0-7.54-.5-5.55-1-11.3,2.76-14.87h0c3.77-3.57,9.48-2.73,15-1.93,2.25.33,6.41.94,7.53.4.78-.92,1.26-5,1.52-7.15.61-5.21,1.31-11.11,5.76-13.8s9.76-.71,15,1.16c2.19.79,6.26,2.25,7.41,1.88.89-.63,2.19-4.64,2.88-6.8,1.69-5.23,3.43-10.63,8.24-12.47s9.66,1,14.37,3.77c2,1.15,5.67,3.31,6.83,3.14,1-.48,3-4.24,4.13-6.26,2.65-4.89,5.38-10,10.45-10.91s9.3,2.78,13.4,6.41c1.67,1.48,4.76,4.21,6,4.36,1.17-.36,3.73-3.42,5.27-5.26,3.6-4.3,7.31-8.76,12.56-8.61s8.71,4.8,12.06,9.29c1.43,1.92,3.81,5.12,5,5.54,1.22-.08,4.46-2.64,6.21-4,4.29-3.39,8.72-6.9,13.74-5.66s7.45,6.44,9.82,11.47c1,2.08,2.8,5.95,3.85,6.51,1.07.21,4.88-1.74,6.92-2.78,4.86-2.49,9.89-5.05,14.56-3s6.15,7.6,7.54,12.91c.57,2.19,1.64,6.27,2.57,7,1,.39,5.2-.85,7.43-1.51,5.3-1.58,10.78-3.21,15-.33s4.66,8.86,5,14.09c.14,2.2.39,6.26,1.12,7.22,1.09.6,5.28.22,7.54,0,5.55-.5,11.3-1,14.87,2.76s2.74,9.48,1.93,15c-.33,2.25-.94,6.41-.4,7.53.92.78,5,1.26,7.15,1.52,5.21.61,11.11,1.31,13.8,5.76s.71,9.76-1.16,15c-.79,2.19-2.25,6.26-1.88,7.41.63.89,4.64,2.19,6.8,2.88,5.23,1.69,10.63,3.43,12.47,8.24s-1,9.66-3.77,14.37c-1.15,2-3.3,5.66-3.14,6.83.48,1,4.24,3,6.26,4.13,4.89,2.64,10,5.38,10.91,10.45s-2.79,9.3-6.41,13.4c-1.48,1.67-4.21,4.76-4.36,6,.36,1.17,3.42,3.73,5.26,5.27,4.3,3.6,8.76,7.32,8.61,12.56s-4.8,8.71-9.29,12.06c-1.92,1.43-5.12,3.82-5.54,5,.08,1.22,2.63,4.45,4,6.21,3.39,4.29,6.9,8.73,5.66,13.74S401,339,396,341.35c-2.08,1-5.95,2.8-6.51,3.85-.2,1.09,1.74,4.88,2.78,6.92,2.48,4.86,5.06,9.89,3,14.56s-7.6,6.15-12.91,7.54c-2.19.57-6.26,1.64-7,2.57-.39,1.05.85,5.2,1.51,7.43,1.58,5.3,3.21,10.78.33,15s-8.86,4.66-14.09,5c-2.2.14-6.26.39-7.22,1.12-.6,1.09-.22,5.28,0,7.54.5,5.55,1,11.3-2.76,14.86s-9.48,2.73-15,1.93c-2.25-.33-6.41-.94-7.53-.4-.78.92-1.26,5-1.52,7.15-.61,5.21-1.31,11.11-5.76,13.79s-9.76.71-15-1.16c-2.19-.79-6.26-2.25-7.41-1.88-.89.63-2.19,4.64-2.88,6.8-1.69,5.23-3.43,10.63-8.24,12.47s-9.66-1-14.37-3.77c-2-1.15-5.65-3.29-6.83-3.14-1,.48-3,4.24-4.13,6.26-2.64,4.89-5.38,10-10.44,10.91s-9.3-2.78-13.4-6.41c-1.67-1.48-4.76-4.21-6-4.36-1.17.36-3.73,3.42-5.27,5.26C225.76,475.5,222,479.95,216.8,479.8ZM200,456a8.93,8.93,0,0,1,1,.08c4.65.67,7.83,4.95,10.91,9.08,1.37,1.83,3.88,5.21,5.09,5.66,1.23-.38,3.93-3.61,5.4-5.37,3.31-4,6.72-8,11.39-8.46s8.84,3.15,12.73,6.59c1.62,1.43,4.6,4.07,5.81,4.28,1-.56,3.06-4.3,4.15-6.32,2.48-4.58,5-9.32,9.58-10.63s9.31,1.38,13.83,4c1.91,1.11,5.41,3.17,6.66,3.11.89-.7,2.17-4.66,2.86-6.8,1.6-5,3.25-10.08,7.58-12.16s9.38-.23,14.32,1.54c2.11.76,6,2.15,7.26,1.91.77-1,1.23-5,1.49-7.12.6-5.13,1.23-10.43,5-13.3s9.11-2.05,14.24-1.3c2.22.32,6.29.92,7.49.42.56-1.17.2-5.27,0-7.5-.47-5.17-.95-10.51,2.08-14.14s8.41-4,13.57-4.31c2.17-.13,6.15-.38,7.19-1.09.31-1.26-.86-5.2-1.5-7.35-1.5-5-3-10.22-.74-14.39s7.52-5.57,12.56-6.89c2.14-.56,6.08-1.59,7-2.51.08-1.26-1.75-4.84-2.74-6.78-2.38-4.66-4.85-9.48-3.24-14s6.43-6.74,11.15-9c2.05-1,5.81-2.74,6.54-3.83-.19-1.24-2.62-4.33-4-6-3.22-4.07-6.55-8.29-5.87-13.06s4.95-7.83,9.08-10.91c1.83-1.37,5.21-3.88,5.66-5.09-.38-1.23-3.61-3.93-5.37-5.4-4-3.31-8-6.72-8.46-11.39-.41-4.81,3.15-8.84,6.59-12.73,1.43-1.62,4.07-4.6,4.28-5.81-.56-1-4.3-3.06-6.32-4.15-4.58-2.48-9.32-5-10.63-9.58s1.38-9.31,4-13.84c1.11-1.91,3.16-5.42,3.11-6.66-.7-.89-4.66-2.17-6.8-2.86-5-1.6-10.08-3.25-12.16-7.58s-.23-9.38,1.54-14.32c.76-2.11,2.15-6,1.91-7.26-1-.77-5-1.23-7.12-1.48-5.13-.6-10.43-1.23-13.3-5s-2.06-9.11-1.3-14.24c.32-2.22.92-6.29.42-7.49-1.17-.57-5.27-.2-7.5,0-5.17.46-10.51.95-14.14-2.08s-4-8.41-4.31-13.57c-.13-2.17-.38-6.15-1.09-7.19-1.26-.31-5.2.86-7.35,1.5-5,1.5-10.22,3-14.39.74s-5.57-7.32-6.89-12.36c-.56-2.14-1.6-5.73-2.52-6.76h0c-1.3,0-4.81,1.56-6.73,2.54-4.66,2.38-9.47,4.75-14,3.14s-6.74-6.48-9-11.2c-1-2.05-2.74-5.84-3.83-6.57-1.24.19-4.33,2.61-6,3.94-4.07,3.22-8.28,6.54-13.06,5.87s-7.83-4.95-10.91-9.08c-1.37-1.83-3.88-5.21-5.09-5.66-1.23.38-3.93,3.61-5.4,5.37-3.31,4-6.72,8-11.39,8.46-4.81.41-8.84-3.15-12.73-6.59-1.62-1.43-4.6-4.07-5.81-4.28-1,.56-3.06,4.3-4.15,6.32-2.48,4.58-5,9.32-9.58,10.64s-9.31-1.38-13.84-4c-1.91-1.11-5.42-3.18-6.66-3.11-.89.7-2.17,4.66-2.86,6.8-1.6,5-3.25,10.08-7.58,12.16s-9.38.23-14.32-1.54c-2.11-.76-6-2.15-7.26-1.91-.77,1-1.23,5-1.49,7.12-.6,5.13-1.23,10.43-5,13.3s-9.1,2.06-14.24,1.3c-2.22-.32-6.29-.92-7.49-.42-.57,1.17-.2,5.27,0,7.5.47,5.17.95,10.51-2.08,14.14s-8.41,4-13.57,4.31c-2.17.13-6.15.38-7.19,1.09-.31,1.26.86,5.2,1.5,7.35,1.5,5,3,10.22.74,14.39s-7.52,5.57-12.56,6.89c-2.14.56-6.08,1.59-7,2.51-.08,1.26,1.75,4.84,2.74,6.78,2.38,4.66,4.85,9.48,3.24,14s-6.43,6.74-11.15,9c-2.05,1-5.81,2.74-6.54,3.83.19,1.24,2.62,4.33,4,6,3.22,4.07,6.55,8.29,5.87,13.06s-4.95,7.83-9.08,10.91c-1.83,1.37-5.21,3.88-5.66,5.09.38,1.23,3.61,3.93,5.37,5.4,4,3.31,8,6.72,8.46,11.39s-3.15,8.84-6.59,12.73c-1.43,1.62-4.07,4.6-4.28,5.81.56,1,4.3,3.06,6.32,4.15,4.58,2.48,9.32,5,10.64,9.58s-1.38,9.31-4,13.84c-1.11,1.91-3.16,5.42-3.11,6.66.7.89,4.66,2.17,6.8,2.86,5,1.6,10.08,3.25,12.16,7.58s.23,9.38-1.54,14.32c-.76,2.11-2.15,6-1.91,7.26,1,.77,5,1.23,7.12,1.49,5.13.6,10.43,1.23,13.3,5s2.06,9.11,1.3,14.24c-.32,2.22-.92,6.29-.42,7.49,1.17.56,5.27.2,7.5,0,5.17-.46,10.51-.95,14.14,2.08s4,8.41,4.31,13.57c.13,2.17.38,6.15,1.09,7.19,1.26.31,5.2-.86,7.35-1.5,5-1.5,10.22-3,14.39-.74s5.56,7.84,6.88,12.88c.56,2.14,1.59,6.25,2.5,7.28h0c1.3,0,4.82-2.08,6.75-3.07,4.66-2.38,9.49-5,14.05-3.4s6.75,6.35,9,11.07c1,2.05,2.74,5.77,3.83,6.5,1.24-.19,4.33-2.64,6-4C191.77,459,195.68,455.84,200,456Z"/><path class="cls-7" d="M218,447.9c-4.72-.13-7.87-4.26-10.65-7.9-1.06-1.38-2.79-3.65-3.71-4.21a21.83,21.83,0,0,0-4.48,2.86c-3.52,2.62-7.51,5.6-12,4.34s-6.57-5.81-8.51-9.87c-.77-1.61-2-4.24-2.83-5-1.05.05-3.59,1.26-5.14,2-3.93,1.87-8.37,4-12.51,2.15s-5.55-6.63-6.78-10.83c-.47-1.63-1.25-4.3-1.9-5.12-1.1-.1-3.93.71-5.66,1.22-4.29,1.25-9.16,2.67-13,.23s-4.39-7.5-4.79-11.89a22.06,22.06,0,0,0-.84-5.18c-1-.32-3.92-.1-5.69,0-4.54.36-9.69.76-12.91-2.64s-2.52-8.52-1.91-13c.24-1.75.62-4.62.36-5.67a22.13,22.13,0,0,0-5.12-1.12c-4.36-.64-9.31-1.37-11.61-5.45-2.22-3.92-.54-8.7.95-12.92.6-1.7,1.58-4.49,1.53-5.59-.78-.69-3.4-1.62-5-2.18-4.13-1.45-8.8-3.1-10.43-7.36s.75-8.56,2.84-12.37c.82-1.51,2.17-4,2.29-5-.7-.84-3.25-2.24-4.82-3.1-3.94-2.16-8.42-4.61-9.38-9.06s2.19-8.36,5-11.73a21.82,21.82,0,0,0,3.1-4.32c-.51-.95-2.67-2.8-4-3.93-3.48-3-7.43-6.35-7.3-11.07s4.26-7.87,7.9-10.65c1.39-1.06,3.65-2.79,4.21-3.71-.26-1-1.87-3.15-2.86-4.48-2.62-3.52-5.59-7.51-4.34-12s5.81-6.57,9.87-8.51c1.61-.77,4.24-2,5-2.83-.05-1.05-1.26-3.59-2-5.14-1.87-3.93-4-8.38-2.15-12.51s6.63-5.55,10.83-6.78c1.63-.47,4.3-1.25,5.12-1.9.11-1.1-.71-3.93-1.22-5.66-1.25-4.29-2.67-9.16-.23-13s7.5-4.39,11.89-4.79a22.09,22.09,0,0,0,5.18-.84c.32-1,.1-3.92,0-5.68-.36-4.54-.76-9.69,2.63-12.91h0c3.4-3.22,8.52-2.53,13-1.91,1.75.24,4.62.62,5.67.36a22.09,22.09,0,0,0,1.12-5.12c.64-4.36,1.37-9.31,5.45-11.61,3.92-2.22,8.7-.54,12.92.95,1.7.6,4.49,1.57,5.59,1.53.69-.78,1.62-3.41,2.18-5,1.45-4.13,3.1-8.8,7.37-10.43s8.55.75,12.37,2.84c1.51.82,4,2.17,5,2.29.84-.7,2.24-3.25,3.1-4.82,2.16-3.94,4.61-8.41,9.06-9.38s8.36,2.19,11.73,5c1.27,1.06,3.34,2.79,4.32,3.1.95-.51,2.8-2.67,3.94-4,3-3.48,6.35-7.43,11.07-7.3s7.87,4.26,10.65,7.9c1.06,1.39,2.79,3.65,3.71,4.21,1-.26,3.16-1.87,4.48-2.86,3.52-2.62,7.5-5.59,12-4.34s6.57,5.81,8.51,9.87c.77,1.61,2,4.24,2.83,5,1.05-.05,3.59-1.26,5.14-2,3.93-1.87,8.38-4,12.51-2.15s5.55,6.63,6.78,10.83c.47,1.63,1.25,4.3,1.9,5.12,1.08.12,3.93-.71,5.66-1.21,4.29-1.25,9.16-2.67,13-.23s4.39,7.5,4.79,11.89a22,22,0,0,0,.84,5.18c1,.32,3.92.1,5.69,0,4.55-.36,9.69-.76,12.91,2.63s2.52,8.52,1.92,13c-.24,1.75-.62,4.62-.36,5.67a22.12,22.12,0,0,0,5.13,1.12c4.36.64,9.31,1.37,11.61,5.45,2.22,3.92.54,8.7-.95,12.92-.6,1.7-1.58,4.49-1.53,5.59.78.69,3.4,1.62,5,2.18,4.13,1.45,8.8,3.1,10.43,7.36s-.75,8.56-2.84,12.37c-.82,1.51-2.17,4-2.29,5,.7.84,3.25,2.24,4.82,3.1,3.95,2.16,8.42,4.61,9.38,9.06s-2.19,8.36-5,11.73a21.8,21.8,0,0,0-3.1,4.32c.51.95,2.67,2.8,4,3.94,3.48,3,7.43,6.35,7.3,11.07s-4.26,7.87-7.9,10.65c-1.39,1.06-3.65,2.79-4.21,3.71.26,1,1.87,3.15,2.86,4.48,2.62,3.52,5.59,7.51,4.34,12s-5.81,6.57-9.86,8.51c-1.61.77-4.24,2-5,2.83.05,1.05,1.26,3.59,2,5.14,1.87,3.93,4,8.37,2.15,12.51s-6.63,5.55-10.83,6.78c-1.63.47-4.3,1.25-5.12,1.9-.11,1.1.71,3.93,1.22,5.66,1.25,4.29,2.67,9.16.23,13s-7.5,4.39-11.89,4.79a22,22,0,0,0-5.18.84c-.32,1-.1,3.92,0,5.68.36,4.54.76,9.69-2.64,12.91s-8.52,2.53-13,1.91c-1.75-.24-4.62-.62-5.67-.36a22.06,22.06,0,0,0-1.12,5.13c-.64,4.36-1.37,9.31-5.45,11.61-3.92,2.22-8.7.54-12.92-.95-1.7-.6-4.47-1.59-5.59-1.53-.69.78-1.62,3.4-2.18,5-1.45,4.13-3.1,8.8-7.36,10.43s-8.55-.75-12.37-2.84c-1.51-.82-4-2.17-5-2.29-.84.7-2.24,3.25-3.1,4.82-2.16,3.94-4.61,8.41-9.05,9.38s-8.36-2.19-11.73-5c-1.27-1.06-3.34-2.78-4.32-3.1-.95.51-2.8,2.67-3.94,4C226.06,444.08,222.68,448,218,447.9Zm-14-21.14a8.13,8.13,0,0,1,1.13.11c4,.68,6.76,4.23,9.38,7.67a25,25,0,0,0,3.75,4.27,24.93,24.93,0,0,0,4-4.06c2.81-3.29,5.72-6.68,9.79-7.14,4.28-.47,7.88,2.53,11.06,5.18a25,25,0,0,0,4.08,3,26.28,26.28,0,0,0,3-4.79c2.12-3.87,4.31-7.87,8.28-9.12,4.15-1.31,8.35,1,12,3a24.39,24.39,0,0,0,4.81,2.24,24.16,24.16,0,0,0,2.12-4.93c1.4-4,3-8.45,6.91-10.24s8.15-.21,12.33,1.26a26.46,26.46,0,0,0,5.41,1.52,24.54,24.54,0,0,0,1.06-5c.6-4.07,1.28-8.69,4.76-11.17s7.83-1.79,12.14-1.21a25.78,25.78,0,0,0,5.57.39,25.92,25.92,0,0,0-.08-5.58c-.34-4.34-.69-8.82,1.88-12.06s7.31-3.77,11.41-4.14a24.66,24.66,0,0,0,5.06-.78,26.45,26.45,0,0,0-1.22-5.48c-1.24-4.26-2.52-8.67-.58-12.38s6.57-5.16,10.61-6.33a24.23,24.23,0,0,0,5-1.84,24.43,24.43,0,0,0-2-4.93c-1.82-3.81-3.88-8.12-2.34-12.2,1.47-3.9,5.58-5.86,9.56-7.77a26.23,26.23,0,0,0,5-2.78,24.93,24.93,0,0,0-2.77-4.24c-2.47-3.32-5.27-7.08-4.56-11.33.68-4,4.23-6.76,7.67-9.38a25,25,0,0,0,4.27-3.75,25,25,0,0,0-4.06-4c-3.29-2.81-6.68-5.72-7.14-9.79-.47-4.28,2.53-7.88,5.18-11.06a24.9,24.9,0,0,0,3-4.08,26.27,26.27,0,0,0-4.79-3c-3.87-2.12-7.87-4.31-9.12-8.28-1.31-4.15,1-8.35,3-12a24.42,24.42,0,0,0,2.24-4.81,24.16,24.16,0,0,0-4.93-2.12c-4-1.4-8.45-3-10.24-6.91s-.21-8.15,1.26-12.34a26.45,26.45,0,0,0,1.52-5.41,24.64,24.64,0,0,0-5-1.06c-4.07-.6-8.69-1.28-11.17-4.76s-1.79-7.83-1.21-12.14a25.92,25.92,0,0,0,.39-5.57,26,26,0,0,0-5.58.08c-4.34.34-8.83.69-12.06-1.88s-3.76-7.31-4.14-11.41a24.63,24.63,0,0,0-.78-5.06,26.49,26.49,0,0,0-5.48,1.22c-4.26,1.24-8.67,2.52-12.38.57s-5.16-6.57-6.33-10.61a24.17,24.17,0,0,0-1.84-5,24.39,24.39,0,0,0-4.93,2c-3.81,1.82-8.12,3.88-12.2,2.34-3.89-1.47-5.86-5.58-7.77-9.56a26.29,26.29,0,0,0-2.78-5A25,25,0,0,0,251,145.8c-3.32,2.47-7.09,5.27-11.33,4.56-4-.68-6.76-4.23-9.38-7.67a25,25,0,0,0-3.75-4.27,25,25,0,0,0-4,4.06c-2.81,3.29-5.72,6.68-9.79,7.14-4.28.48-7.88-2.53-11.06-5.18a24.93,24.93,0,0,0-4.08-3,26.31,26.31,0,0,0-3,4.79c-2.12,3.87-4.31,7.87-8.28,9.12-4.15,1.31-8.35-1-12-3a24.38,24.38,0,0,0-4.81-2.24,24.17,24.17,0,0,0-2.12,4.93c-1.4,4-3,8.45-6.91,10.24s-8.15.21-12.33-1.26a26.45,26.45,0,0,0-5.41-1.52,24.61,24.61,0,0,0-1.06,5c-.6,4.07-1.28,8.69-4.76,11.17s-7.83,1.79-12.14,1.21a25.88,25.88,0,0,0-5.57-.39,25.89,25.89,0,0,0,.08,5.58c.34,4.34.69,8.82-1.88,12.06s-7.31,3.76-11.41,4.14a24.64,24.64,0,0,0-5.06.78,26.51,26.51,0,0,0,1.22,5.48c1.24,4.26,2.52,8.67.58,12.38s-6.57,5.16-10.6,6.33a24.17,24.17,0,0,0-5,1.84A24.37,24.37,0,0,0,89,233c1.82,3.81,3.88,8.12,2.34,12.2-1.47,3.9-5.58,5.86-9.56,7.77a26.31,26.31,0,0,0-5,2.78A25,25,0,0,0,79.58,260c2.47,3.32,5.27,7.08,4.56,11.33-.68,4-4.23,6.76-7.67,9.38a25,25,0,0,0-4.27,3.75,25,25,0,0,0,4.06,4c3.29,2.81,6.68,5.72,7.14,9.79.48,4.28-2.53,7.88-5.18,11.06a24.92,24.92,0,0,0-3,4.08,26.23,26.23,0,0,0,4.79,3c3.87,2.12,7.87,4.31,9.12,8.28,1.31,4.15-1,8.35-3,12a24.37,24.37,0,0,0-2.24,4.81,24.14,24.14,0,0,0,4.93,2.12c4,1.4,8.45,3,10.24,6.91s.21,8.15-1.26,12.34a26.5,26.5,0,0,0-1.52,5.41,24.62,24.62,0,0,0,5,1.06c4.07.6,8.69,1.28,11.17,4.76s1.79,7.83,1.21,12.14a25.89,25.89,0,0,0-.39,5.57,26.08,26.08,0,0,0,5.58-.08c4.34-.34,8.82-.7,12.06,1.88s3.76,7.31,4.14,11.41a24.63,24.63,0,0,0,.79,5.06,26.56,26.56,0,0,0,5.48-1.22c4.26-1.24,8.67-2.52,12.38-.58s5.16,6.57,6.33,10.6a24.17,24.17,0,0,0,1.84,5,24.35,24.35,0,0,0,4.93-2c3.81-1.82,8.13-3.88,12.2-2.34,3.9,1.47,5.86,5.58,7.77,9.56a26.28,26.28,0,0,0,2.78,5,25,25,0,0,0,4.24-2.77C196.78,429.17,200.17,426.65,204,426.76Z"/><path class="cls-7" d="M219.14,416c-4.18-.12-6.86-3.5-9.23-6.49a26,26,0,0,0-2.49-2.86,23.37,23.37,0,0,0-2.79,1.7c-2.81,1.89-6.31,4.23-10.25,3-3.69-1.18-5.52-4.92-7.14-8.22a26.29,26.29,0,0,0-1.9-3.46,23.46,23.46,0,0,0-3.35,1.24c-3.2,1.36-6.83,2.9-10.38,1.31s-4.91-5.52-6-8.67a23.59,23.59,0,0,0-1.29-3.29,26,26,0,0,0-3.88.89c-3.51,1-7.5,2.1-10.83.15-3.59-2.09-4.18-6.28-4.65-9.64a23.65,23.65,0,0,0-.58-3.17,25.76,25.76,0,0,0-3.84.05c-3.79.23-8.08.49-10.93-2.52s-2.35-7.28-1.91-11.05a25.68,25.68,0,0,0,.27-3.83,23.73,23.73,0,0,0-3.13-.76c-3.33-.66-7.48-1.47-9.38-5.18-1.76-3.43-.42-7.34.76-10.79a26,26,0,0,0,1.11-3.83,23.67,23.67,0,0,0-3.22-1.47c-3.08-1.24-6.92-2.78-8.33-6.45s.35-7.18,1.88-10.29a23.25,23.25,0,0,0,1.42-3.28,26.1,26.1,0,0,0-3.35-2.09c-3.2-1.79-6.82-3.82-7.81-7.58-1.05-4,1.48-7.36,3.52-10.06a23.27,23.27,0,0,0,1.85-2.7,25.83,25.83,0,0,0-2.71-2.64c-2.85-2.53-6.08-5.4-6-9.57s3.5-6.86,6.49-9.23a25.86,25.86,0,0,0,2.86-2.48,23.28,23.28,0,0,0-1.7-2.79c-1.89-2.81-4.24-6.31-3-10.25,1.18-3.69,4.92-5.52,8.22-7.14a26.29,26.29,0,0,0,3.46-1.9,23.33,23.33,0,0,0-1.24-3.35c-1.36-3.2-2.9-6.82-1.31-10.38s5.52-4.91,8.67-6a23.64,23.64,0,0,0,3.29-1.29,26,26,0,0,0-.89-3.88c-1-3.51-2.1-7.49-.15-10.83,2.09-3.59,6.28-4.18,9.64-4.65a23.56,23.56,0,0,0,3.17-.58,25.7,25.7,0,0,0-.05-3.84c-.23-3.79-.49-8.08,2.52-10.93s7.29-2.35,11.05-1.91a26,26,0,0,0,3.83.27,23.78,23.78,0,0,0,.76-3.13c.66-3.33,1.47-7.48,5.18-9.38,3.43-1.76,7.34-.42,10.8.76a26,26,0,0,0,3.83,1.11,23.61,23.61,0,0,0,1.47-3.22c1.24-3.09,2.78-6.92,6.45-8.33s7.18.35,10.29,1.88a23.34,23.34,0,0,0,3.28,1.42,26.27,26.27,0,0,0,2.09-3.35c1.79-3.2,3.82-6.82,7.58-7.81,4-1,7.36,1.48,10.06,3.52a23.32,23.32,0,0,0,2.7,1.85,25.9,25.9,0,0,0,2.64-2.71c2.53-2.85,5.4-6.08,9.57-6s6.86,3.5,9.23,6.49a25.92,25.92,0,0,0,2.49,2.86,23.33,23.33,0,0,0,2.79-1.7c2.81-1.89,6.3-4.24,10.25-3,3.69,1.19,5.52,4.92,7.14,8.22a26.33,26.33,0,0,0,1.9,3.46,23.37,23.37,0,0,0,3.35-1.24c3.2-1.36,6.82-2.9,10.38-1.31s4.91,5.52,6,8.67A23.67,23.67,0,0,0,281,185.7a25.92,25.92,0,0,0,3.88-.89c3.52-1,7.5-2.1,10.83-.15,3.59,2.09,4.18,6.28,4.65,9.64a23.73,23.73,0,0,0,.58,3.17,25.29,25.29,0,0,0,3.84-.05c3.79-.23,8.08-.49,10.93,2.52s2.35,7.28,1.91,11.05a25.81,25.81,0,0,0-.27,3.83,23.58,23.58,0,0,0,3.13.76c3.33.66,7.48,1.47,9.38,5.18,1.76,3.43.42,7.34-.76,10.8a26.11,26.11,0,0,0-1.11,3.83,23.68,23.68,0,0,0,3.22,1.47c3.09,1.24,6.92,2.78,8.33,6.45s-.35,7.18-1.88,10.29a23.35,23.35,0,0,0-1.42,3.28,26.36,26.36,0,0,0,3.35,2.09c3.2,1.79,6.82,3.82,7.81,7.58,1,4-1.48,7.36-3.52,10.06a23.18,23.18,0,0,0-1.85,2.7,25.88,25.88,0,0,0,2.71,2.64c2.85,2.53,6.08,5.4,6,9.57s-3.5,6.86-6.49,9.23a26,26,0,0,0-2.86,2.48,23.28,23.28,0,0,0,1.7,2.79c1.89,2.81,4.24,6.3,3,10.24-1.19,3.69-4.92,5.52-8.22,7.14a26.25,26.25,0,0,0-3.46,1.9,23.29,23.29,0,0,0,1.24,3.35c1.36,3.2,2.9,6.83,1.31,10.38s-5.52,4.91-8.67,6a23.63,23.63,0,0,0-3.29,1.29,26.07,26.07,0,0,0,.89,3.88c1,3.51,2.1,7.49.15,10.83-2.09,3.59-6.28,4.18-9.64,4.65a23.73,23.73,0,0,0-3.17.58,25.64,25.64,0,0,0,.05,3.84c.23,3.79.49,8.08-2.52,10.93s-7.28,2.35-11.05,1.91a26.16,26.16,0,0,0-3.83-.27,23.71,23.71,0,0,0-.76,3.13c-.66,3.33-1.47,7.48-5.18,9.38-3.43,1.76-7.34.42-10.79-.76a26,26,0,0,0-3.83-1.11,23.66,23.66,0,0,0-1.47,3.22c-1.24,3.08-2.78,6.92-6.45,8.33s-7.17-.35-10.29-1.88a23.44,23.44,0,0,0-3.28-1.42,26.24,26.24,0,0,0-2.09,3.35c-1.79,3.2-3.82,6.82-7.58,7.81-4,1-7.36-1.48-10.06-3.52a23.16,23.16,0,0,0-2.7-1.85,25.75,25.75,0,0,0-2.64,2.71C226.18,412.88,223.31,416.11,219.14,416Zm-11.27-18.45a7.61,7.61,0,0,1,1.31.15c3.4.7,5.73,3.63,7.78,6.22a28.81,28.81,0,0,0,2.43,2.82,28.9,28.9,0,0,0,2.59-2.68c2.19-2.47,4.68-5.27,8.11-5.78,3.73-.56,6.86,1.81,9.38,3.71a29,29,0,0,0,2.41,1.69,31,31,0,0,0,2-3.2c1.68-3,3.58-6.39,6.95-7.57,3.64-1.28,7.15.45,10.24,2a26.84,26.84,0,0,0,3,1.35,26.79,26.79,0,0,0,1.38-3.07c1.28-3.19,2.73-6.8,6.27-8.27,3.32-1.38,7-.12,10.29,1a31,31,0,0,0,3.56,1.06,28.58,28.58,0,0,0,.68-2.9c.61-3.08,1.36-6.92,4.5-9,2.92-1.92,6.66-1.48,10-1.09a30.42,30.42,0,0,0,3.62.28,30.34,30.34,0,0,0-.08-3.63c-.2-3.32-.43-7.08,1.64-9.89,2.23-3,6.1-3.56,9.21-4a28.19,28.19,0,0,0,2.94-.52,31.15,31.15,0,0,0-.86-3.61c-.93-3.32-2-7.09-.43-10.33,1.67-3.45,5.35-4.7,8.6-5.8a26.7,26.7,0,0,0,3.15-1.21,27,27,0,0,0-1.18-3.11c-1.35-3.17-2.88-6.77-1.4-10.34,1.37-3.3,4.86-5,7.95-6.51a31,31,0,0,0,3.3-1.78,28.52,28.52,0,0,0-1.56-2.49c-1.76-2.62-3.95-5.88-3.19-9.57.7-3.4,3.63-5.73,6.22-7.78a28.88,28.88,0,0,0,2.82-2.43,28.91,28.91,0,0,0-2.68-2.59c-2.47-2.19-5.27-4.68-5.78-8.11-.55-3.73,1.81-6.86,3.71-9.38a28.71,28.71,0,0,0,1.69-2.41,30.87,30.87,0,0,0-3.2-2c-3-1.68-6.39-3.58-7.57-6.94-1.28-3.64.45-7.15,2-10.24a27,27,0,0,0,1.35-3,26.53,26.53,0,0,0-3.07-1.38c-3.19-1.28-6.8-2.73-8.27-6.27-1.38-3.33-.12-7,1-10.29a31.2,31.2,0,0,0,1.06-3.56,28.46,28.46,0,0,0-2.9-.68c-3.08-.61-6.92-1.36-9-4.5-1.92-2.92-1.48-6.66-1.09-10a30.23,30.23,0,0,0,.28-3.62,30.47,30.47,0,0,0-3.63.08c-3.32.2-7.08.43-9.89-1.64-3-2.23-3.56-6.1-4-9.21a28.34,28.34,0,0,0-.52-2.94,30.8,30.8,0,0,0-3.61.86c-3.32.93-7.09,2-10.33.43-3.45-1.67-4.7-5.35-5.8-8.6a26.58,26.58,0,0,0-1.21-3.14,27,27,0,0,0-3.11,1.18c-3.17,1.35-6.77,2.88-10.34,1.4-3.3-1.37-5-4.86-6.51-7.94a31,31,0,0,0-1.78-3.31,28.93,28.93,0,0,0-2.5,1.56c-2.62,1.76-5.87,4-9.57,3.19-3.4-.7-5.73-3.63-7.78-6.22a28.94,28.94,0,0,0-2.43-2.82,29,29,0,0,0-2.59,2.68c-2.19,2.47-4.68,5.27-8.11,5.78-3.73.56-6.86-1.81-9.38-3.71a28.68,28.68,0,0,0-2.41-1.69,30.75,30.75,0,0,0-2,3.2c-1.68,3-3.58,6.38-6.94,7.57-3.64,1.28-7.15-.45-10.24-2a26.85,26.85,0,0,0-3-1.35,26.47,26.47,0,0,0-1.38,3.07c-1.28,3.19-2.73,6.8-6.27,8.27-3.32,1.38-7,.12-10.29-1a30.94,30.94,0,0,0-3.56-1.06,28.46,28.46,0,0,0-.68,2.9c-.61,3.08-1.36,6.92-4.5,9-2.92,1.92-6.66,1.48-10,1.09a30,30,0,0,0-3.62-.28,30.24,30.24,0,0,0,.08,3.63c.2,3.32.43,7.08-1.64,9.89-2.23,3-6.1,3.56-9.21,4a28.14,28.14,0,0,0-2.94.52,31,31,0,0,0,.86,3.61c.93,3.32,2,7.09.43,10.33-1.66,3.45-5.35,4.7-8.6,5.8a26.66,26.66,0,0,0-3.14,1.21,27,27,0,0,0,1.18,3.11c1.35,3.17,2.88,6.77,1.4,10.34-1.37,3.3-4.86,5-7.94,6.51a30.92,30.92,0,0,0-3.31,1.78,29.08,29.08,0,0,0,1.56,2.49c1.76,2.62,4,5.88,3.19,9.57-.7,3.4-3.63,5.73-6.22,7.78a28.89,28.89,0,0,0-2.82,2.43,29.07,29.07,0,0,0,2.68,2.59c2.47,2.19,5.27,4.68,5.78,8.11.55,3.73-1.81,6.86-3.71,9.38a28.77,28.77,0,0,0-1.69,2.41,30.82,30.82,0,0,0,3.2,2c3,1.68,6.39,3.58,7.57,6.95,1.28,3.64-.45,7.15-2,10.24a27,27,0,0,0-1.35,3,26.72,26.72,0,0,0,3.07,1.38c3.19,1.28,6.8,2.73,8.27,6.27,1.38,3.32.12,7-1,10.29a31.13,31.13,0,0,0-1.06,3.56,28.32,28.32,0,0,0,2.9.68c3.08.61,6.92,1.36,9,4.5,1.92,2.92,1.48,6.66,1.09,10a30.26,30.26,0,0,0-.28,3.62,30.77,30.77,0,0,0,3.63-.08c3.32-.2,7.08-.43,9.89,1.64,3,2.23,3.56,6.1,4,9.21a28.39,28.39,0,0,0,.52,2.94,31.16,31.16,0,0,0,3.61-.86c3.32-.93,7.09-2,10.33-.43,3.45,1.67,4.7,5.35,5.8,8.6a26.62,26.62,0,0,0,1.21,3.14,26.79,26.79,0,0,0,3.11-1.18c3.17-1.35,6.77-2.87,10.34-1.4,3.3,1.37,5,4.86,6.51,7.95a30.87,30.87,0,0,0,1.78,3.31,29.07,29.07,0,0,0,2.49-1.56C201.92,399.33,204.72,397.45,207.87,397.54Z"/><path class="cls-7" d="M220.31,384.09c-3.61-.1-5.92-2.84-7.78-5-.4-.47-.94-1.11-1.36-1.54-.39.18-.86.44-1.22.64-2,1.1-5.1,2.77-8.42,1.43-2.92-1.18-4.36-4-5.63-6.49-.31-.6-.72-1.42-1.06-2-.5.13-1.17.35-1.66.51-2.31.77-5.19,1.72-8.08.43S181,368,180,365.7c-.2-.47-.48-1.1-.71-1.56-.65.11-1.57.36-2.19.52-2.69.71-5.73,1.51-8.54.12-3.22-1.59-4-5-4.58-7.24-.09-.39-.22-.9-.33-1.3-.61,0-1.46,0-2.09,0-2.87.09-6.44.19-8.91-2.41s-2.16-6.17-1.91-9c.05-.62.13-1.47.13-2.08-.4-.14-.89-.29-1.27-.4-2.22-.66-5.58-1.66-7-5-1.23-2.87-.26-5.87.6-8.52.2-.61.49-1.52.64-2.16-.44-.26-1.06-.57-1.52-.8-2.2-1.1-4.93-2.46-6.07-5.44s0-5.78.88-8c.19-.48.45-1.13.6-1.63-.53-.37-1.32-.83-1.9-1.16-2.42-1.41-5.16-3-6.17-6-1.15-3.39.67-6.36,1.88-8.33.22-.35.5-.81.7-1.19-.4-.44-1-1-1.46-1.44-2.09-2-4.69-4.44-4.59-8s2.84-5.92,5-7.78c.47-.4,1.11-.94,1.53-1.36-.18-.39-.44-.86-.64-1.22-1.1-2-2.76-5.1-1.43-8.42,1.18-2.92,4-4.36,6.49-5.63.6-.31,1.42-.72,2-1.06-.13-.5-.35-1.17-.51-1.66-.77-2.31-1.72-5.19-.43-8.08s4.11-4.12,6.36-5.1c.47-.2,1.1-.48,1.56-.71-.11-.65-.36-1.57-.52-2.19-.71-2.69-1.51-5.73-.12-8.54,1.59-3.23,5-4,7.24-4.58.39-.09.9-.21,1.3-.33,0-.61,0-1.46,0-2.09-.09-2.87-.19-6.44,2.41-8.91h0c2.61-2.47,6.17-2.16,9-1.91.62.05,1.47.13,2.08.13.14-.4.29-.9.4-1.28.66-2.22,1.66-5.58,5-7,2.86-1.23,5.87-.26,8.52.6.61.2,1.51.49,2.16.64.26-.44.57-1.06.8-1.52,1.1-2.2,2.46-4.93,5.44-6.07s5.78,0,8,.88c.48.19,1.13.45,1.63.6.37-.53.83-1.32,1.17-1.9,1.41-2.42,3-5.16,6-6.17,3.39-1.15,6.36.67,8.33,1.88.35.21.81.5,1.19.7.44-.4,1-1,1.44-1.46,2-2.09,4.44-4.69,8-4.59s5.92,2.84,7.78,5c.4.47.94,1.11,1.36,1.53.39-.18.86-.44,1.22-.64,2-1.1,5.1-2.76,8.42-1.43,2.92,1.18,4.36,4,5.63,6.49.31.6.72,1.42,1.06,2,.5-.13,1.17-.35,1.66-.51,2.31-.77,5.2-1.72,8.08-.43s4.12,4.11,5.1,6.36c.2.47.48,1.1.71,1.56.65-.11,1.57-.36,2.19-.52,2.69-.71,5.73-1.51,8.54-.12,3.23,1.59,4,5,4.58,7.24.09.39.22.9.33,1.3.61,0,1.46,0,2.09,0,2.87-.09,6.44-.19,8.91,2.41s2.16,6.17,1.91,9c-.05.62-.13,1.47-.13,2.08.4.14.89.29,1.28.4,2.22.66,5.58,1.66,7,5,1.23,2.87.26,5.87-.6,8.52-.2.61-.49,1.52-.64,2.16.44.26,1.06.57,1.52.8,2.2,1.1,4.93,2.46,6.07,5.44s0,5.78-.88,8c-.19.48-.45,1.13-.6,1.63.53.37,1.32.83,1.9,1.17,2.42,1.41,5.15,3,6.17,6,1.15,3.39-.67,6.36-1.88,8.33-.21.35-.5.81-.7,1.19.4.45,1,1,1.46,1.44,2.09,2,4.7,4.44,4.59,8s-2.84,5.92-5,7.78c-.47.4-1.11.94-1.54,1.36.18.39.44.86.64,1.22,1.1,2,2.76,5.1,1.43,8.42-1.18,2.92-4,4.36-6.49,5.63-.6.31-1.42.72-2,1.06.13.5.35,1.17.51,1.66.77,2.31,1.72,5.19.43,8.08s-4.11,4.12-6.37,5.1c-.47.2-1.1.48-1.56.71.11.65.36,1.57.52,2.19.71,2.69,1.51,5.73.12,8.53-1.59,3.23-5,4-7.24,4.58-.39.09-.9.21-1.3.33,0,.61,0,1.46,0,2.09.09,2.87.19,6.44-2.41,8.91s-6.16,2.16-9,1.91c-.62-.05-1.47-.13-2.08-.13-.14.4-.29.89-.4,1.28-.66,2.22-1.66,5.58-5,7-2.87,1.23-5.87.26-8.52-.6-.61-.2-1.52-.49-2.16-.64-.26.44-.57,1.06-.8,1.52-1.1,2.2-2.46,4.93-5.44,6.07s-5.78,0-8-.88c-.48-.19-1.13-.45-1.63-.6-.37.53-.83,1.32-1.17,1.9-1.41,2.42-3,5.15-6,6.17-3.39,1.15-6.36-.67-8.33-1.88-.35-.21-.81-.5-1.19-.7-.44.4-1,1-1.44,1.46C226.38,381.59,223.91,384.19,220.31,384.09Zm-8.57-15.78a7.06,7.06,0,0,1,1.65.24c2.65.72,4.44,2.83,6,4.69.32.38.77.91,1.18,1.34.42-.41.9-.91,1.25-1.28,1.68-1.77,3.57-3.78,6.26-4.35,3.11-.66,5.72.94,7.62,2.11l.82.5c.34-.52.72-1.17,1-1.64,1.32-2.27,2.81-4.84,5.5-6,3.08-1.28,6.14-.07,8.38.81.42.16,1,.38,1.42.53.24-.42.51-1,.72-1.38,1.07-2.14,2.53-5.08,5.65-6.18,2.77-1,5.61-.06,8.13.76.51.16,1.22.39,1.81.55.1-.32.21-.66.29-.94.64-2.14,1.5-5.06,4.26-6.63,2.4-1.36,5.17-1.13,7.61-.92.48,0,1.13.1,1.7.12,0-.57,0-1.22,0-1.7-.07-2.45-.16-5.23,1.34-7.55,1.72-2.67,4.68-3.38,6.85-3.89l1-.24c-.13-.6-.31-1.32-.45-1.83-.67-2.55-1.43-5.45-.3-8.16,1.27-3.05,4.28-4.35,6.48-5.3.42-.18,1-.42,1.41-.64-.13-.46-.31-1-.45-1.44-.76-2.28-1.79-5.41-.34-8.41,1.26-2.62,3.91-4,6.25-5.16.48-.24,1.15-.59,1.69-.9-.15-.29-.31-.59-.45-.84-1.07-2-2.53-4.66-1.69-7.73.72-2.65,2.83-4.43,4.69-6,.38-.32.91-.77,1.34-1.17-.41-.42-.91-.9-1.28-1.25-1.77-1.68-3.78-3.57-4.35-6.26-.66-3.11.94-5.72,2.11-7.62.15-.24.33-.54.5-.82-.52-.34-1.17-.72-1.64-1-2.27-1.32-4.84-2.81-6-5.5-1.28-3.08-.07-6.14.81-8.38.16-.42.38-1,.53-1.42-.43-.24-1-.51-1.38-.71-2.14-1.07-5.08-2.53-6.18-5.65-1-2.77-.06-5.62.76-8.13.16-.51.39-1.21.55-1.81l-.94-.29c-2.14-.63-5.06-1.5-6.63-4.26-1.36-2.4-1.13-5.17-.92-7.61,0-.48.1-1.13.12-1.7-.57,0-1.22,0-1.7,0-2.45.07-5.23.16-7.55-1.34-2.67-1.72-3.38-4.68-3.9-6.85-.07-.28-.15-.63-.24-1-.6.13-1.32.31-1.84.45-2.55.67-5.45,1.43-8.15.3-3.05-1.27-4.35-4.28-5.3-6.48-.18-.42-.42-1-.64-1.41-.46.13-1,.31-1.44.45-2.28.76-5.41,1.79-8.41.34-2.62-1.27-4-3.91-5.16-6.25-.25-.48-.59-1.15-.9-1.69l-.84.45c-2,1.07-4.66,2.52-7.73,1.69-2.65-.72-4.43-2.83-6-4.69-.32-.38-.77-.91-1.18-1.34-.42.41-.9.91-1.25,1.27-1.68,1.77-3.57,3.78-6.26,4.35-3.11.66-5.72-.94-7.62-2.11l-.82-.5c-.34.52-.72,1.18-1,1.64-1.32,2.27-2.81,4.84-5.5,6-3.08,1.28-6.14.07-8.38-.81-.42-.16-1-.38-1.42-.53-.24.42-.51,1-.71,1.37-1.07,2.14-2.53,5.08-5.66,6.18-2.77,1-5.61.06-8.13-.76-.51-.16-1.22-.39-1.81-.55-.1.32-.2.66-.29.94-.64,2.14-1.5,5.06-4.26,6.63-2.4,1.36-5.17,1.13-7.61.92-.48,0-1.13-.1-1.7-.12,0,.57,0,1.22,0,1.7.07,2.45.16,5.23-1.34,7.55-1.72,2.67-4.68,3.38-6.85,3.9l-1,.24c.13.6.31,1.32.45,1.84.67,2.55,1.43,5.44.3,8.15-1.27,3.05-4.28,4.35-6.48,5.3-.42.18-1,.42-1.41.64.13.46.31,1,.45,1.44.76,2.28,1.79,5.41.34,8.41-1.27,2.62-3.91,4-6.25,5.16-.48.24-1.15.59-1.69.9.15.29.31.59.45.84,1.07,2,2.53,4.66,1.69,7.73-.72,2.65-2.83,4.43-4.69,6-.38.32-.91.77-1.34,1.18.41.42.91.9,1.28,1.25,1.77,1.68,3.78,3.57,4.35,6.26.66,3.11-.94,5.72-2.11,7.62-.15.24-.33.54-.5.82.52.34,1.17.72,1.64,1,2.27,1.32,4.84,2.81,6,5.5,1.28,3.08.07,6.14-.81,8.38-.17.42-.38,1-.53,1.42.42.24,1,.51,1.37.71,2.14,1.07,5.08,2.53,6.18,5.66,1,2.77.06,5.61-.76,8.13-.16.51-.39,1.21-.55,1.81l.94.29c2.14.64,5.06,1.5,6.63,4.26,1.36,2.4,1.13,5.17.92,7.61,0,.48-.1,1.13-.12,1.7.57,0,1.22,0,1.7,0,2.45-.07,5.23-.16,7.55,1.34,2.67,1.72,3.38,4.68,3.9,6.85.07.28.15.63.24,1,.6-.13,1.32-.31,1.84-.45,2.55-.67,5.45-1.43,8.15-.3,3.05,1.27,4.35,4.28,5.3,6.48.18.42.42,1,.64,1.41.46-.13,1-.31,1.44-.45,2.28-.76,5.41-1.79,8.41-.34,2.62,1.26,4,3.91,5.16,6.25.25.48.59,1.15.9,1.69l.84-.45A12.19,12.19,0,0,1,211.73,368.31Z"/><path class="cls-7" d="M221.48,352.19c-3-.08-4.95-2.13-6.27-3.48l-.55-.55-.1,0a8,8,0,0,1-6.19-.5,10.94,10.94,0,0,1-3.79-4.51l-.44-.78-.37,0a8.11,8.11,0,0,1-9.06-4.09l-.21-.3-.88.19a10.9,10.9,0,0,1-5.84.17,8,8,0,0,1-4.51-4.27l0-.07-.8,0c-1.89-.07-4.75-.18-6.77-2.32s-2-5-1.94-6.89c0-.23,0-.53,0-.79l-.06,0a8,8,0,0,1-4-4.73,10.9,10.9,0,0,1,.49-5.83c.07-.26.16-.58.24-.87l-.29-.22a8.11,8.11,0,0,1-3.58-9.28l.06-.37-.75-.48a10.94,10.94,0,0,1-4.29-4,8,8,0,0,1-.17-6.2l0-.11-.53-.58c-1.28-1.39-3.21-3.5-3.13-6.45s2.13-4.95,3.48-6.27l.55-.55,0-.1a8,8,0,0,1,.5-6.19,10.94,10.94,0,0,1,4.51-3.79l.78-.44,0-.37a8.11,8.11,0,0,1,4.09-9.06l.3-.21c-.06-.29-.13-.62-.19-.88a10.89,10.89,0,0,1-.17-5.84,8,8,0,0,1,4.27-4.51l.07,0c0-.27,0-.56,0-.8.07-1.89.18-4.75,2.32-6.77h0c2.14-2,5-2,6.89-1.94h.79l0-.06a8,8,0,0,1,4.73-4,10.91,10.91,0,0,1,5.83.49l.87.24.23-.29a8.11,8.11,0,0,1,9.28-3.58l.37.06.48-.75a10.93,10.93,0,0,1,4-4.29,8,8,0,0,1,6.2-.17l.11,0,.58-.53c1.39-1.28,3.49-3.21,6.45-3.13s4.95,2.13,6.27,3.48l.55.55.1,0a8,8,0,0,1,6.19.5,10.94,10.94,0,0,1,3.79,4.51l.44.78.37,0a8.11,8.11,0,0,1,9.06,4.09l.21.3.88-.19a10.89,10.89,0,0,1,5.84-.17,8,8,0,0,1,4.51,4.27l0,.07.8,0c1.89.07,4.74.18,6.77,2.32s2,5,1.94,6.89c0,.23,0,.53,0,.79l.06,0a8,8,0,0,1,4,4.73,10.9,10.9,0,0,1-.49,5.83c-.07.26-.16.58-.24.87l.29.23a8.11,8.11,0,0,1,3.58,9.28l-.06.37.75.48a10.93,10.93,0,0,1,4.29,4,8,8,0,0,1,.17,6.2l0,.11.53.58c1.28,1.39,3.21,3.5,3.13,6.45s-2.13,5-3.48,6.27l-.55.55,0,.1a8,8,0,0,1-.5,6.19,11,11,0,0,1-4.51,3.79l-.78.44c0,.13,0,.26,0,.37a8.11,8.11,0,0,1-4.09,9.06l-.3.21c.06.3.13.62.19.88a10.88,10.88,0,0,1,.17,5.84,8,8,0,0,1-4.27,4.51l-.07,0c0,.27,0,.56,0,.8-.07,1.89-.18,4.75-2.32,6.77s-5,2-6.89,1.94h-.79l0,.06a8,8,0,0,1-4.73,4,10.93,10.93,0,0,1-5.83-.49l-.87-.24-.22.29a8.11,8.11,0,0,1-9.28,3.58l-.37-.06-.48.75a10.94,10.94,0,0,1-4,4.29,8,8,0,0,1-6.2.17l-.11,0-.58.53C226.54,350.34,224.44,352.27,221.48,352.19ZM215.43,339a6.81,6.81,0,0,1,2.42.5,11.59,11.59,0,0,1,3.8,2.89l.09.09.09-.09a11.6,11.6,0,0,1,4-2.68,8.14,8.14,0,0,1,5.09.1l.34-.54a11.18,11.18,0,0,1,3.79-4.14,9,9,0,0,1,6.24-.61l.37.06.25-.31a9,9,0,0,1,5-3.72,11.22,11.22,0,0,1,5.64.54l.6.17a7.59,7.59,0,0,1,3.74-3.12c1.65-.68,3.37-.31,4.76-.28l-.87,0,0-.74a12.6,12.6,0,0,1,1.34-4.71,8.43,8.43,0,0,1,3.9-3.55c0-.21,0-.42,0-.6a11.21,11.21,0,0,1-.17-5.66,9,9,0,0,1,4-4.79l.34-.23c0-.13,0-.26,0-.37a9,9,0,0,1,1-6.19,11.19,11.19,0,0,1,4.35-3.56l.55-.31a8.11,8.11,0,0,1,.18-5.09,11.61,11.61,0,0,1,2.9-3.8l.09-.09-.09-.1a11.6,11.6,0,0,1-2.68-4,8.14,8.14,0,0,1,.1-5.1l-.54-.34a11.18,11.18,0,0,1-4.14-3.79,9,9,0,0,1-.61-6.24l.06-.37-.31-.25a9,9,0,0,1-3.72-5,11.18,11.18,0,0,1,.54-5.64l.17-.6c-1.08-.67-3.11-1.76-3.93-3.76a12.58,12.58,0,0,1-1.08-4.78l0,.63.87,0a12.25,12.25,0,0,1-4.71-1.22,8.33,8.33,0,0,1-3.55-3.84c-.21,0-.43,0-.61,0a11.2,11.2,0,0,1-5.66.18,9,9,0,0,1-4.79-4l-.23-.34-.37,0a9,9,0,0,1-6.19-1,11.2,11.2,0,0,1-3.56-4.35l-.31-.55a8.11,8.11,0,0,1-5.09-.18,11.62,11.62,0,0,1-3.81-2.89l-.09-.09-.09.09a11.6,11.6,0,0,1-4,2.68,8.14,8.14,0,0,1-5.1-.1l-.34.54a11.16,11.16,0,0,1-3.79,4.14,9,9,0,0,1-6.24.61l-.37-.06-.25.31a9,9,0,0,1-5,3.71,11.2,11.2,0,0,1-5.64-.54l-.6-.17c-.67,1.08-1.76,3-3.76,3.81a12.26,12.26,0,0,1-4.77,1l-1,0,0-.63c0,1.39.35,3.12-.42,4.73a7.77,7.77,0,0,1-3.44,3.56c0,.21.21.43.25.61a11.14,11.14,0,0,1,.28,5.66,8.94,8.94,0,0,1-4,4.79l-.31.23c0,.13,0,.26.05.37a9,9,0,0,1-1,6.2,11.19,11.19,0,0,1-4.35,3.56l-.55.31a8.11,8.11,0,0,1-.18,5.09,11.61,11.61,0,0,1-2.89,3.8l-.09.09.09.09a11.6,11.6,0,0,1,2.68,4,8.14,8.14,0,0,1-.1,5.09l.54.34a11.16,11.16,0,0,1,4.14,3.79,9,9,0,0,1,.61,6.24l-.06.37.31.25a9,9,0,0,1,3.71,5,11.19,11.19,0,0,1-.54,5.64l-.17.6a7.45,7.45,0,0,1,3,3.73c.68,1.65.19,3.37.15,4.75l0,.74,1,0c1.39,0,3.12-.23,4.73.54a7.84,7.84,0,0,1,3.56,3.5c.21,0,.43-.18.61-.22a11.18,11.18,0,0,1,5.66-.27,9,9,0,0,1,4.79,4l.23.32.37,0a9,9,0,0,1,6.19,1,11.18,11.18,0,0,1,3.56,4.35l.31.55A10.27,10.27,0,0,1,215.43,339Z"/><path class="cls-7" d="M222.65,320.28c-4.24-.12-6.8-3.57-8.67-6.09a16.16,16.16,0,0,0-2-2.36,15.84,15.84,0,0,0-3.24.09c-3.07.27-7.27.63-10.1-2.36s-2.23-7.17-1.8-10.22a16,16,0,0,0,.27-3.24A16.22,16.22,0,0,0,194.9,294c-2.41-2-5.72-4.75-5.6-9s3.57-6.81,6.09-8.67a16.24,16.24,0,0,0,2.36-2,16,16,0,0,0-.09-3.24c-.27-3.07-.63-7.27,2.36-10.1s7.17-2.23,10.22-1.8a15.83,15.83,0,0,0,3.23.27,16.23,16.23,0,0,0,2.08-2.24c2-2.41,4.75-5.72,9-5.6s6.8,3.57,8.68,6.09a16.13,16.13,0,0,0,2,2.36,16.11,16.11,0,0,0,3.24-.09c3.07-.27,7.27-.63,10.1,2.36s2.23,7.17,1.8,10.22a15.94,15.94,0,0,0-.27,3.23,16.23,16.23,0,0,0,2.24,2.08c2.41,2,5.72,4.75,5.6,9s-3.57,6.81-6.09,8.67a16.2,16.2,0,0,0-2.36,2,15.93,15.93,0,0,0,.09,3.24c.27,3.07.63,7.27-2.36,10.1s-7.17,2.23-10.22,1.8a15.93,15.93,0,0,0-3.23-.27,16.12,16.12,0,0,0-2.08,2.24C229.64,317.1,226.89,320.4,222.65,320.28Zm-11-17.5a10.6,10.6,0,0,1,4.08.84c2.43,1.09,4.05,3.28,5.49,5.21a26.46,26.46,0,0,0,1.7,2.14,26.33,26.33,0,0,0,1.82-2c1.54-1.85,3.28-3.94,5.76-4.9s5.32-.58,7.75-.23c.7.1,1.73.25,2.48.29,0-.75-.09-1.79-.15-2.49-.21-2.45-.45-5.22.66-7.72s3.28-4.05,5.21-5.49a26.5,26.5,0,0,0,2.14-1.7,26.35,26.35,0,0,0-2-1.82c-1.85-1.54-3.95-3.28-4.9-5.77s-.58-5.31-.23-7.75c.1-.7.25-1.73.29-2.48-.75,0-1.79.09-2.49.15-2.45.21-5.23.45-7.72-.66s-4.05-3.28-5.49-5.21a26.63,26.63,0,0,0-1.7-2.14,26.62,26.62,0,0,0-1.82,2c-1.54,1.85-3.28,3.95-5.77,4.9s-5.32.58-7.75.23c-.7-.1-1.73-.25-2.48-.29,0,.75.09,1.79.15,2.49.21,2.45.46,5.22-.66,7.72s-3.28,4.05-5.21,5.49a26.67,26.67,0,0,0-2.14,1.7,26.62,26.62,0,0,0,2,1.82c1.85,1.54,3.95,3.28,4.9,5.77s.58,5.31.23,7.75c-.1.7-.25,1.73-.29,2.48.75,0,1.79-.09,2.49-.15A31.75,31.75,0,0,1,211.64,302.78Z"/></g></g><ellipse class="cls-2" cx="232.42" cy="64.65" rx="32.51" ry="68.53" transform="translate(24.68 187.3) rotate(-46.1)"/><ellipse class="cls-2" cx="282.4" cy="66.03" rx="32.51" ry="68.53" transform="translate(-6.7 89.13) rotate(-17.73)"/><circle class="cls-5" cx="231.75" cy="266.8" r="45.34" transform="translate(-41.38 491.06) rotate(-88.41)"/><circle cx="241.24" cy="268.65" r="15.51" transform="translate(-34 502.35) rotate(-88.41)"/><circle class="cls-5" cx="339.08" cy="269.78" r="45.34" transform="translate(60.01 601.25) rotate(-88.41)"/><circle cx="322.34" cy="270.9" r="15.51" transform="translate(42.6 585.61) rotate(-88.41)"/><polygon points="285.14 268.4 189.07 223.87 202.53 194.84 296.07 244.81 285.14 268.4"/><polygon points="285.15 268.4 383.54 229.26 371.71 199.53 275.54 244.25 285.15 268.4"/><path class="cls-8" d="M216.57,339.8c-.55,1.32-37,40.32,60.61,80.38,52.15-28.56,61.22-43,61.22-43Z"/><path class="cls-9" d="M211.54,346.67s32.23-55.79,70.88-54.72,85.32,49.72,82.6,99.66C339.89,383.57,206,355.27,211.54,346.67Z"/></g></g></svg>