<svg xmlns="http://www.w3.org/2000/svg" viewBox="0 0 576 602">
	<defs>
		<style>
			.bar1cls-1{fill:#ffd071;}
			.bar1cls-2,.bar1cls-6{fill:none;}
			.bar1cls-2{stroke:#603813;stroke-linecap:round;stroke-linejoin:round;stroke-width:2px;}
			.bar1cls-3{fill:#8b6239;}
			.colorcls-1{fill:#ff0;}
			.colorcls-2{fill:#fcf8a9;}
		</style>
	</defs>
	<title>
		Recurso 208
	</title>
	<g id="Capa_2" data-name="Capa 2">
		<g id="Capa_4" data-name="Capa 4">
			<path class="bar1cls-1" d="M444.07,37.05h41.87a5.69,5.69,0,0,1,5.69,5.69v175.9a.94.94,0,0,1-.94.94H440.31a.94.94,0,0,1-.94-.94V41.76a4.71,4.71,0,0,1,4.71-4.71Z" transform="translate(196.03 -272.36) rotate(40.67)"/>
			<line class="bar1cls-2" x1="463.21" y1="92.06" x2="521.43" y2="102.14"/>
			<line class="bar1cls-2" x1="446.76" y1="111.21" x2="504.98" y2="121.29"/>
			<line class="bar1cls-2" x1="430.31" y1="130.36" x2="488.53" y2="140.43"/>
			<line class="bar1cls-2" x1="413.86" y1="149.51" x2="472.08" y2="159.58"/>
			<line class="bar1cls-2" x1="397.41" y1="168.66" x2="455.63" y2="178.73"/>
			<ellipse class="bar1cls-3" cx="516.8" cy="67.43" rx="8.98" ry="19.98" transform="translate(128.88 415.49) rotate(-49.33)"/>
		</g>
		<g id="Capa_3" data-name="Capa 3">
			<path class="colorcls-1" d="M504.27,292.14c0,100-95.9,77.22-214.19,77.22S75.89,392.14,75.89,292.14s95.9-181.07,214.19-181.07S504.27,192.13,504.27,292.14Z"/>
			<path class="colorcls-2" d="M333.3,155.81l-75.74,6c-33.58,2.65-63.56-16.47-67-42.73l-1.52-11.77C185.68,81,257.16,9.56,290.75,6.9L319.48,49c33.58-2.65,63.56,16.47,67,42.73L388,103.47C391.35,129.72,366.88,153.15,333.3,155.81Z"/>
			<path class="colorcls-1" d="M414.5,215l-238.15,21.5c-33.58,3-63.56-18.81-67-48.79l-1.52-13.44c-3.4-30,21.07-56.73,54.66-59.76L400.68,93c33.58-3,63.56,18.81,67,48.79l1.52,13.44C472.56,185.19,448.09,211.95,414.5,215Z"/>
			<path class="colorcls-2" d="M456.36,287.88,134.49,316.94c-33.58,3-63.56-18.81-67-48.79L66,254.71c-3.4-30,21.07-56.73,54.66-59.76l321.87-29.05c33.58-3,63.56,18.81,67,48.79L511,228.12C514.42,258.09,489.95,284.85,456.36,287.88Z"/>
		</g>
		<g id="Capa_1-2" data-name="Capa 1">
			<rect class="bar1cls-6" width="576" height="602"/>
		</g>
	</g>
</svg>