<svg xmlns="http://www.w3.org/2000/svg" viewBox="0 0 576 602">
	<defs>
		<style>
			.b2cls-1{fill:#e57393;}
			.b2cls-2{fill:#ff97b0;}
			.b2cls-3,.b2cls-4{fill:none;}
			.b2cls-3{stroke:#000;stroke-linecap:round;stroke-miterlimit:10;stroke-width:20px;}
		</style>
	</defs>
	<title>
		Recurso 91
	</title>
	<g id="Capa_2" data-name="Capa 2">
		<g id="Capa_3" data-name="Capa 3">
			<path class="b2cls-1" d="M404.67,327.39h0c-18.39,5.61-43.23,1.36-55.48-9.5l-23.52-20.82,1.14-12.95,65.46-7.36,24.38,10.87C428.9,298.48,423.06,321.79,404.67,327.39Z"/>
			<path class="b2cls-2" d="M405.89,313.45h0c-18.39,5.6-43.23,1.35-55.48-9.5l-23.52-20.83,66.6-20.3L417,283.64C429.25,294.5,424.28,307.84,405.89,313.45Z"/><path class="b2cls-1" d="M399.09,300.5a5.57,5.57,0,0,1-4.83-.83l-31.75-28.12c-1.07-.94-.64-2.1,1-2.59a5.6,5.6,0,0,1,4.83.82l31.75,28.13C401.12,298.85,400.69,300,399.09,300.5Z"/>
			<path class="b2cls-3" d="M399.44,230.34c0,34.33-52.13,62-116.43,62s-116.43-27.68-116.43-62"/>
			<rect class="b2cls-4" width="576" height="602"/>
		</g>
	</g>
</svg>