<svg xmlns="http://www.w3.org/2000/svg" viewBox="0 0 576 602">
	<defs>
		<style>
			.b6cls-1{fill:none;}
			.b6cls-2{fill:#ff3960;}
		</style>
	</defs>
	<title>
		Recurso 56
	</title>
	<g id="Capa_2" data-name="Capa 2">
		<g id="Capa_3" data-name="Capa 3">
			<rect class="b6cls-1" width="576" height="602"/>
			<path d="M268,301.61c-3.44,0-6.44-1.87-6.93-4.45-.52-2.82,2.15-5.43,6-5.82,10.13-1,21.15-3.93,23-6-2.16-1.88-13-4.25-22.7-4.9-3.54-.23-6.28-2.39-6.36-5s2.52-4.88,6-5.24c9.93-1,20.71-3.82,22.9-5.86-2.86-1.79-14.06-3.64-24.29-3.93-3.86-.11-6.87-2.51-6.72-5.35s3.4-5.07,7.26-5a151.64,151.64,0,0,1,16.95,1.57c14.2,2.24,21.29,6.52,21.06,12.73-.17,4.69-4.64,8.07-10.44,10.49,6,2.31,10.62,5.69,10.44,10.65-.42,11.58-27.08,15.19-35.24,16A8,8,0,0,1,268,301.61Z"/>
			<path class="b6cls-2" d="M422.57,309.69c9.63-15.67-3-37.88-21.92-38.52,1-13.16-9.12-25.82-22.27-27.86-13.77-2.14-22.74,6.89-26.6,18.89-5.18,16.12-3.55,35.47.35,52.4l.38-.26-.3.35a135.79,135.79,0,0,0,27.33,6.36c13,1.64,36.88,2.69,43-11.36C428,300.84,421.84,311.35,422.57,309.69Z"/>
		</g>
	</g>
</svg>