<svg xmlns="http://www.w3.org/2000/svg" viewBox="0 0 576 602"><defs><style>.cls-1{fill:#b2b2b2;}.cls-2{fill:#fff;opacity:0.5;}.cls-3{fill:none;}</style></defs><title>Recurso 186</title><g id="Capa_2" data-name="Capa 2"><g id="Capa_1-2" data-name="Capa 1"><circle class="cls-1" cx="212.51" cy="233.63" r="19.54"/><circle class="cls-1" cx="264.76" cy="269.74" r="19.54"/><circle class="cls-1" cx="333.76" cy="315.74" r="19.54"/><circle class="cls-1" cx="192.76" cy="315.74" r="19.54"/><circle class="cls-1" cx="383.07" cy="272.04" r="19.54"/><circle class="cls-1" cx="441.46" cy="229.02" r="19.54"/><circle class="cls-1" cx="470.46" cy="301.02" r="19.54"/><circle class="cls-1" cx="129.54" cy="255.14" r="19.54"/><circle class="cls-1" cx="97.54" cy="319.14" r="19.54"/><circle class="cls-1" cx="136.45" cy="195.21" r="19.54"/><circle class="cls-1" cx="200.49" cy="145.3" r="19.54"/><circle class="cls-1" cx="264.59" cy="117.83" r="19.54"/><circle class="cls-1" cx="277.41" cy="173.99" r="19.54"/><circle class="cls-1" cx="334.19" cy="128.21" r="19.54"/><circle class="cls-1" cx="382.42" cy="184.37" r="19.54"/><circle class="cls-1" cx="334.19" cy="227.1" r="19.54"/><circle class="cls-1" cx="237.59" cy="57.83" r="19.54"/><circle class="cls-1" cx="324.19" cy="62.21" r="19.54"/><circle class="cls-2" cx="94.5" cy="314.5" r="5.5"/><circle class="cls-2" cx="197.5" cy="310.5" r="5.5"/><circle class="cls-2" cx="219.5" cy="229.5" r="5.5"/><circle class="cls-2" cx="135.5" cy="249.5" r="5.5"/><circle class="cls-2" cx="140.5" cy="189.5" r="5.5"/><circle class="cls-2" cx="208.5" cy="136.5" r="5.5"/><circle class="cls-2" cx="271.5" cy="112.5" r="5.5"/><circle class="cls-2" cx="342.5" cy="125.5" r="5.5"/><circle class="cls-2" cx="390.5" cy="180.5" r="5.5"/><circle class="cls-2" cx="286.5" cy="169.5" r="5.5"/><circle class="cls-2" cx="271.5" cy="264.5" r="5.5"/><circle class="cls-2" cx="341.5" cy="224.5" r="5.5"/><circle class="cls-2" cx="341.5" cy="312.5" r="5.5"/><circle class="cls-2" cx="391.5" cy="269.5" r="5.5"/><circle class="cls-2" cx="478.5" cy="298.5" r="5.5"/><circle class="cls-2" cx="450.5" cy="224.5" r="5.5"/><circle class="cls-2" cx="242.5" cy="51.5" r="5.5"/><circle class="cls-2" cx="331.5" cy="56.5" r="5.5"/><rect class="cls-3" width="576" height="602"/></g></g></svg>