<svg xmlns="http://www.w3.org/2000/svg" viewBox="0 0 576 602"><defs><style>.cls-1{fill:#feeeff;}.cls-2{fill:#29aae1;}.cls-3{fill:#ff83cd;}.cls-4{fill:#ff0068;}.cls-5{fill:none;}</style></defs><title>Recurso 195</title><g id="Capa_2" data-name="Capa 2"><g id="Capa_1-2" data-name="Capa 1"><circle class="cls-1" cx="354.81" cy="205.35" r="12.42"/><circle class="cls-2" cx="321.59" cy="228.32" r="12.42"/><circle class="cls-1" cx="277.71" cy="257.57" r="12.42"/><circle class="cls-1" cx="367.37" cy="257.57" r="12.42"/><circle class="cls-3" cx="246.35" cy="229.78" r="12.42"/><circle class="cls-4" cx="209.21" cy="202.42" r="12.42"/><circle class="cls-3" cx="190.77" cy="248.21" r="12.42"/><circle class="cls-3" cx="407.58" cy="219.04" r="12.42"/><circle class="cls-1" cx="427.93" cy="259.73" r="12.42"/><circle class="cls-4" cx="403.18" cy="180.93" r="12.42"/><circle class="cls-2" cx="496.58" cy="231.04" r="12.42"/><circle class="cls-1" cx="486.93" cy="280.73" r="12.42"/><circle class="cls-1" cx="450.18" cy="201.93" r="12.42"/><circle class="cls-1" cx="371.45" cy="119.18" r="12.42"/><circle class="cls-3" cx="321.69" cy="111.71" r="12.42"/><circle class="cls-2" cx="331.54" cy="164.43" r="12.42"/><circle class="cls-1" cx="247.43" cy="128.31" r="12.42"/><circle class="cls-4" cx="266.76" cy="174.03" r="12.42"/><circle class="cls-1" cx="277.43" cy="201.21" r="12.42"/><circle class="cls-3" cx="144.21" cy="202.42" r="12.42"/><circle class="cls-1" cx="125.77" cy="248.21" r="12.42"/><circle class="cls-1" cx="181.76" cy="164.03" r="12.42"/><circle class="cls-4" cx="247.71" cy="304.57" r="12.42"/><circle class="cls-3" cx="337.37" cy="304.57" r="12.42"/><circle class="cls-2" cx="160.77" cy="295.21" r="12.42"/><circle class="cls-3" cx="397.93" cy="306.73" r="12.42"/><circle class="cls-4" cx="456.93" cy="327.73" r="12.42"/><circle class="cls-2" cx="95.77" cy="295.21" r="12.42"/><circle class="cls-1" cx="202.71" cy="343.57" r="12.42"/><circle class="cls-1" cx="292.37" cy="343.57" r="12.42"/><circle class="cls-2" cx="352.93" cy="345.73" r="12.42"/><circle class="cls-2" cx="327.54" cy="66.43" r="12.42"/><circle class="cls-1" cx="295.43" cy="30.31" r="12.42"/><circle class="cls-4" cx="262.76" cy="76.03" r="12.42"/><rect class="cls-5" width="576" height="602"/></g></g></svg>