<svg xmlns="http://www.w3.org/2000/svg" viewBox="0 0 576 602">
	<defs>
		<style>
			.colorcls-1{fill:#ff0;}
			.colorcls-2{fill:#fcf8a9;}
			.bolveclacls-3{fill:#c9ff6c;}
			.bolveclacls-4{fill:none;}
		</style>
	</defs>
	<title>
		Recurso 223
	</title>
	<g id="Capa_2" data-name="Capa 2">
		<g id="Capa_3" data-name="Capa 3">
			<path class="colorcls-1" d="M504.27,292.14c0,100-95.9,77.22-214.19,77.22S75.89,392.14,75.89,292.14s95.9-181.07,214.19-181.07S504.27,192.13,504.27,292.14Z"/>
			<path class="colorcls-2" d="M333.3,155.81l-75.74,6c-33.58,2.65-63.56-16.47-67-42.73l-1.52-11.77C185.68,81,257.16,9.56,290.75,6.9L319.48,49c33.58-2.65,63.56,16.47,67,42.73L388,103.47C391.35,129.72,366.88,153.15,333.3,155.81Z"/>
			<path class="colorcls-1" d="M414.5,215l-238.15,21.5c-33.58,3-63.56-18.81-67-48.79l-1.52-13.44c-3.4-30,21.07-56.73,54.66-59.76L400.68,93c33.58-3,63.56,18.81,67,48.79l1.52,13.44C472.56,185.19,448.09,211.95,414.5,215Z"/>
			<path class="colorcls-2" d="M456.36,287.88,134.49,316.94c-33.58,3-63.56-18.81-67-48.79L66,254.71c-3.4-30,21.07-56.73,54.66-59.76l321.87-29.05c33.58-3,63.56,18.81,67,48.79L511,228.12C514.42,258.09,489.95,284.85,456.36,287.88Z"/>
		</g>
		<g id="Capa_1-2" data-name="Capa 1">
			<circle class="bolveclacls-3" cx="365.49" cy="233.63" r="19.54"/>
			<circle class="bolveclacls-3" cx="313.24" cy="269.74" r="19.54"/>
			<circle class="bolveclacls-3" cx="244.24" cy="315.74" r="19.54"/>
			<circle class="bolveclacls-3" cx="385.24" cy="315.74" r="19.54"/>
			<circle class="bolveclacls-3" cx="194.93" cy="272.04" r="19.54"/>
			<circle class="bolveclacls-3" cx="136.54" cy="229.02" r="19.54"/>
			<circle class="bolveclacls-3" cx="107.54" cy="301.02" r="19.54"/>
			<circle class="bolveclacls-3" cx="448.46" cy="255.14" r="19.54"/>
			<circle class="bolveclacls-3" cx="480.46" cy="319.14" r="19.54"/>
			<circle class="bolveclacls-3" cx="451.55" cy="185.21" r="19.54"/>
			<circle class="bolveclacls-3" cx="377.51" cy="145.3" r="19.54"/>
			<circle class="bolveclacls-3" cx="313.41" cy="117.83" r="19.54"/>
			<circle class="bolveclacls-3" cx="345.41" cy="59.83" r="19.54"/>
			<circle class="bolveclacls-3" cx="300.59" cy="173.99" r="19.54"/>
			<circle class="bolveclacls-3" cx="243.81" cy="128.21" r="19.54"/>
			<circle class="bolveclacls-3" cx="255.81" cy="60.21" r="19.54"/>
			<circle class="bolveclacls-3" cx="195.58" cy="184.37" r="19.54"/>
			<circle class="bolveclacls-3" cx="144.58" cy="128.37" r="19.54"/>
			<circle class="bolveclacls-3" cx="243.81" cy="227.1" r="19.54"/>
			<rect class="bolveclacls-4" width="576" height="602"/>
		</g>
	</g>
</svg>