<svg xmlns="http://www.w3.org/2000/svg" viewBox="0 0 576 602">
	<defs>
		<style>
			.colorcls-1{fill:#ff0;}
			.colorcls-2{fill:#fcf8a9;}
			.chorallcls-3{fill:#754c24;}
			.chorallcls-4{fill:none;}
		</style>
	</defs>
	<title>
		Recurso 216
	</title>
	<g id="Capa_2" data-name="Capa 2">
		<g id="Capa_3" data-name="Capa 3">
			<path class="colorcls-1" d="M504.27,292.14c0,100-95.9,77.22-214.19,77.22S75.89,392.14,75.89,292.14s95.9-181.07,214.19-181.07S504.27,192.13,504.27,292.14Z"/>
			<path class="colorcls-2" d="M333.3,155.81l-75.74,6c-33.58,2.65-63.56-16.47-67-42.73l-1.52-11.77C185.68,81,257.16,9.56,290.75,6.9L319.48,49c33.58-2.65,63.56,16.47,67,42.73L388,103.47C391.35,129.72,366.88,153.15,333.3,155.81Z"/>
			<path class="colorcls-1" d="M414.5,215l-238.15,21.5c-33.58,3-63.56-18.81-67-48.79l-1.52-13.44c-3.4-30,21.07-56.73,54.66-59.76L400.68,93c33.58-3,63.56,18.81,67,48.79l1.52,13.44C472.56,185.19,448.09,211.95,414.5,215Z"/>
			<path class="colorcls-2" d="M456.36,287.88,134.49,316.94c-33.58,3-63.56-18.81-67-48.79L66,254.71c-3.4-30,21.07-56.73,54.66-59.76l321.87-29.05c33.58-3,63.56,18.81,67,48.79L511,228.12C514.42,258.09,489.95,284.85,456.36,287.88Z"/>
		</g>
		<g id="Capa_1-2" data-name="Capa 1">
			<rect class="chorallcls-3" x="202" y="197" width="16" height="68" rx="1.59" ry="1.59" transform="translate(-61.61 77.08) rotate(-18.19)"/>
			<rect class="chorallcls-3" x="363" y="267" width="16" height="68" rx="1.59" ry="1.59" transform="matrix(0.83, 0.56, -0.56, 0.83, 232.12, -156.12)"/>
			<rect class="chorallcls-3" x="286" y="131" width="17" height="50" rx="1.69" ry="1.69" transform="translate(12.15 333.05) rotate(-60)"/>
			<rect class="chorallcls-3" x="254" y="63" width="17" height="50" rx="1.69" ry="1.69" transform="translate(55.04 271.33) rotate(-60)"/>
			<rect class="chorallcls-3" x="244" y="295" width="17" height="50" rx="1.69" ry="1.69" transform="translate(-150.88 378.67) rotate(-60)"/>
			<rect class="chorallcls-3" x="374" y="147" width="17" height="50" rx="1.69" ry="1.69" transform="translate(801.89 169.91) rotate(155.5)"/>
			<rect class="chorallcls-3" x="340" y="204" width="15" height="52" rx="1.49" ry="1.49" transform="translate(457.55 -171.93) rotate(71.81)"/>
			<rect class="chorallcls-3" x="297" y="262" width="15" height="52" rx="1.49" ry="1.49" transform="translate(483.08 -91.18) rotate(71.81)"/>
			<rect class="chorallcls-3" x="435" y="207" width="11" height="58" rx="1.09" ry="1.09" transform="translate(132.35 -157.42) rotate(23.75)"/>
			<rect class="chorallcls-3" x="457" y="272" width="11" height="58" rx="1.09" ry="1.09"/>
			<rect class="chorallcls-3" x="159" y="290" width="15" height="54" rx="1.49" ry="1.49" transform="translate(-133.09 513.11) rotate(-95.5)"/>
			<rect class="chorallcls-3" x="90" y="271" width="15" height="54" rx="1.49" ry="1.49" transform="translate(-88.14 45.32) rotate(-18.19)"/>
			<rect class="chorallcls-3" x="187" y="120" width="15" height="54" rx="1.49" ry="1.49" transform="translate(-36.2 225.86) rotate(-55.95)"/>
			<rect class="chorallcls-3" x="137" y="178" width="14" height="36" rx="1.39" ry="1.39" transform="translate(164.73 -46.33) rotate(41.19)"/>
			<rect class="chorallcls-3" x="145" y="247" width="14" height="36" rx="1.39" ry="1.39" transform="translate(212.15 -34.52) rotate(41.19)"/>
			<rect class="chorallcls-3" x="483" y="238" width="14" height="36" rx="1.39" ry="1.39" transform="translate(289.88 -259.35) rotate(41.19)"/>
			<rect class="chorallcls-3" x="89" y="218" width="14" height="36" rx="1.39" ry="1.39" transform="translate(350.68 243.18) rotate(113.75)"/>
			<rect class="chorallcls-3" x="271" y="207" width="14" height="36" rx="1.39" ry="1.39" transform="translate(635.38 211.22) rotate(138.81)"/>
			<rect class="chorallcls-3" x="271" y="5" width="14" height="36" rx="1.39" ry="1.39" transform="translate(502.34 -142.78) rotate(138.81)"/>
			<rect class="chorallcls-3" x="324" y="42" width="14" height="36" rx="1.39" ry="1.39" transform="translate(619.59 -112.85) rotate(138.81)"/>
			<rect class="chorallcls-3" x="329" y="103" width="14" height="36" rx="1.39" ry="1.39" transform="translate(668.53 -9.24) rotate(138.81)"/>
			<rect class="chorallcls-4" width="576" height="602"/>
		</g>
	</g>
</svg>