<svg xmlns="http://www.w3.org/2000/svg" viewBox="0 0 576 602"><defs><style>.cls-1{fill:#754c24;}.cls-2{fill:none;}</style></defs><title>Recurso 176</title><g id="Capa_2" data-name="Capa 2"><g id="Capa_1-2" data-name="Capa 1"><rect class="cls-1" x="202" y="197" width="16" height="68" rx="1.59" ry="1.59" transform="translate(-61.61 77.08) rotate(-18.19)"/><rect class="cls-1" x="363" y="267" width="16" height="68" rx="1.59" ry="1.59" transform="matrix(0.83, 0.56, -0.56, 0.83, 232.12, -156.12)"/><rect class="cls-1" x="286" y="131" width="17" height="50" rx="1.69" ry="1.69" transform="translate(12.15 333.05) rotate(-60)"/><rect class="cls-1" x="254" y="63" width="17" height="50" rx="1.69" ry="1.69" transform="translate(55.04 271.33) rotate(-60)"/><rect class="cls-1" x="244" y="295" width="17" height="50" rx="1.69" ry="1.69" transform="translate(-150.88 378.67) rotate(-60)"/><rect class="cls-1" x="374" y="147" width="17" height="50" rx="1.69" ry="1.69" transform="translate(801.89 169.91) rotate(155.5)"/><rect class="cls-1" x="340" y="204" width="15" height="52" rx="1.49" ry="1.49" transform="translate(457.55 -171.93) rotate(71.81)"/><rect class="cls-1" x="297" y="262" width="15" height="52" rx="1.49" ry="1.49" transform="translate(483.08 -91.18) rotate(71.81)"/><rect class="cls-1" x="435" y="207" width="11" height="58" rx="1.09" ry="1.09" transform="translate(132.35 -157.42) rotate(23.75)"/><rect class="cls-1" x="457" y="272" width="11" height="58" rx="1.09" ry="1.09"/><rect class="cls-1" x="159" y="290" width="15" height="54" rx="1.49" ry="1.49" transform="translate(-133.09 513.11) rotate(-95.5)"/><rect class="cls-1" x="90" y="271" width="15" height="54" rx="1.49" ry="1.49" transform="translate(-88.14 45.32) rotate(-18.19)"/><rect class="cls-1" x="187" y="120" width="15" height="54" rx="1.49" ry="1.49" transform="translate(-36.2 225.86) rotate(-55.95)"/><rect class="cls-1" x="137" y="178" width="14" height="36" rx="1.39" ry="1.39" transform="translate(164.73 -46.33) rotate(41.19)"/><rect class="cls-1" x="145" y="247" width="14" height="36" rx="1.39" ry="1.39" transform="translate(212.15 -34.52) rotate(41.19)"/><rect class="cls-1" x="483" y="238" width="14" height="36" rx="1.39" ry="1.39" transform="translate(289.88 -259.35) rotate(41.19)"/><rect class="cls-1" x="89" y="218" width="14" height="36" rx="1.39" ry="1.39" transform="translate(350.68 243.18) rotate(113.75)"/><rect class="cls-1" x="271" y="207" width="14" height="36" rx="1.39" ry="1.39" transform="translate(635.38 211.22) rotate(138.81)"/><rect class="cls-1" x="271" y="5" width="14" height="36" rx="1.39" ry="1.39" transform="translate(502.34 -142.78) rotate(138.81)"/><rect class="cls-1" x="324" y="42" width="14" height="36" rx="1.39" ry="1.39" transform="translate(619.59 -112.85) rotate(138.81)"/><rect class="cls-1" x="329" y="103" width="14" height="36" rx="1.39" ry="1.39" transform="translate(668.53 -9.24) rotate(138.81)"/><rect class="cls-2" width="576" height="602"/></g></g></svg>