<?xml version="1.0" encoding="utf-8"?>
<!-- Generator: Adobe Illustrator 19.1.1, SVG Export Plug-In . SVG Version: 6.00 Build 0)  -->
<svg version="1.1" id="Capa_1" xmlns="http://www.w3.org/2000/svg" xmlns:xlink="http://www.w3.org/1999/xlink" x="0px" y="0px"
	 viewBox="0 0 296 202" style="enable-background:new 0 0 296 202;" xml:space="preserve">
<style type="text/css">
	.st0{clip-path:url(#SVGID_2_);}
	.st1{fill:#19CCBE;}
	.st2{fill:#FF3960;}
	.st3{fill:#9D1822;}
	#st4{fill:#F8D675;}
	.st5{fill:#E7BE58;}
</style>
<g>
	<defs>
		<path id="SVGID_1_" d="M322.7,596.4H-22.7c-14.8,0-26.8-12-26.8-26.8V422.8c0-14.8,12-26.8,26.8-26.8h345.4
			c14.8,0,26.8,12,26.8,26.8v146.8C349.5,584.4,337.5,596.4,322.7,596.4z"/>
	</defs>
	<clipPath id="SVGID_2_">
		<use xlink:href="#SVGID_1_"  style="overflow:visible;"/>
	</clipPath>
	<g class="st0">
		<polygon class="st1" points="388.8,580 375,587.7 224.2,206.6 238,198.8 		"/>
		<polygon class="st1" points="418.1,563.6 404.3,571.3 253.5,190.1 267.4,182.4 		"/>
		<polygon class="st1" points="447.4,547.1 433.6,554.9 282.8,173.7 296.7,166 		"/>
	</g>
</g>
<path id="st4" d="M278.1,129.9c0-59.8-57.3-108.3-128.1-108.3S21.9,70.1,21.9,129.9c0,21.1,7.1,33,19.4,39.7
	c5.4,2.9,11.7,4.8,18.9,6c5.9,1,12.5,1.5,19.4,1.7c3.5,0.1,7.1,0.1,10.8,0.1c6.6,0,13.4-0.2,20.6-0.4c3.7-0.1,7.5-0.2,11.4-0.4
	c7-0.2,14.1-0.4,21.5-0.5c2,0,4,0,6,0c1.9,0,3.7,0,5.6,0c7.3,0.1,14.5,0.3,21.5,0.5c3.9,0.1,7.7,0.2,11.4,0.4
	c7.2,0.2,14.1,0.4,20.6,0.5c3.7,0,7.3,0,10.8-0.1c7-0.2,13.5-0.7,19.4-1.7c7.3-1.2,13.8-3.1,19.3-6.1
	C271,162.9,278.1,150.9,278.1,129.9z"/>
<circle class="st5" cx="252" cy="106.4" r="6.9"/>
<circle class="st5" cx="239.1" cy="139.9" r="6.7"/>
<circle class="st5" cx="218.1" cy="80.6" r="7.8"/>
<circle class="st5" cx="49.5" cy="107.9" r="5.3"/>
<circle class="st5" cx="37.3" cy="128.2" r="5"/>
</svg>
