<svg xmlns="http://www.w3.org/2000/svg" viewBox="0 0 576 602">
	<defs>
		<style>
			.colorcls-1{fill:#ff0;}
			.colorcls-2{fill:#fcf8a9;}
			.copnicls-3{fill:aqua;}
			.copnicls-4{fill:#fff;}
			.copnicls-5{fill:none;}
		</style>
	</defs>
	<title>
		Recurso 212
	</title>
	<g id="Capa_2" data-name="Capa 2">
		<g id="Capa_3" data-name="Capa 3">
			<path class="colorcls-1" d="M504.27,292.14c0,100-95.9,77.22-214.19,77.22S75.89,392.14,75.89,292.14s95.9-181.07,214.19-181.07S504.27,192.13,504.27,292.14Z"/>
			<path class="colorcls-2" d="M333.3,155.81l-75.74,6c-33.58,2.65-63.56-16.47-67-42.73l-1.52-11.77C185.68,81,257.16,9.56,290.75,6.9L319.48,49c33.58-2.65,63.56,16.47,67,42.73L388,103.47C391.35,129.72,366.88,153.15,333.3,155.81Z"/>
			<path class="colorcls-1" d="M414.5,215l-238.15,21.5c-33.58,3-63.56-18.81-67-48.79l-1.52-13.44c-3.4-30,21.07-56.73,54.66-59.76L400.68,93c33.58-3,63.56,18.81,67,48.79l1.52,13.44C472.56,185.19,448.09,211.95,414.5,215Z"/>
			<path class="colorcls-2" d="M456.36,287.88,134.49,316.94c-33.58,3-63.56-18.81-67-48.79L66,254.71c-3.4-30,21.07-56.73,54.66-59.76l321.87-29.05c33.58-3,63.56,18.81,67,48.79L511,228.12C514.42,258.09,489.95,284.85,456.36,287.88Z"/>
		</g>
		<g id="Capa_1-2" data-name="Capa 1">
			<path class="copnicls-3" d="M423.49,193a3.1,3.1,0,0,1-3-2.33l-3-11.78-7.24,8.6a3.1,3.1,0,0,1-4.74-4l10.1-12-2-8-7.22,8.57a3.1,3.1,0,0,1-4.74-4l10.07-12-4.32-16.89a7,7,0,0,0-1.17,1.14l-14.6,18.17a7.63,7.63,0,0,1-6,2.92,7.81,7.81,0,0,1-7.77-6.62l-3.56-23A6,6,0,0,0,374,131l-10.12,10.06,1.79,16.39a3.1,3.1,0,0,1-2.74,3.42l-.34,0a3.09,3.09,0,0,1-3.08-2.76l-1.26-11.47-5.06,5,1.93,17.63a3.1,3.1,0,0,1-2.74,3.42l-.34,0a3.09,3.09,0,0,1-3.08-2.76l-1.39-12.71-6.47,6.44a3.1,3.1,0,0,1-4.37-4.39l5.39-5.36-10.35-1.08a3.1,3.1,0,0,1,.32-6.18l.33,0,15.37,1.61,6.14-6.1L342.31,141a3.1,3.1,0,0,1,.32-6.18l.33,0,16.62,1.74,10.24-10.19a6.92,6.92,0,0,0-1.53-.43l-23-3.56a7.81,7.81,0,0,1-3.7-13.81L359.72,94a6.38,6.38,0,0,0,.83-.81l-14.48-3.71L333.5,100.07a3.1,3.1,0,0,1-4-4.74l9.18-7.73-8-2L318.11,96.16a3.1,3.1,0,0,1-4-4.74l9.2-7.75L310,80.27a3.1,3.1,0,1,1,1.54-6l12.36,3.16-5.19-9.82a3.1,3.1,0,1,1,5.48-2.9L332,79.5l7.3,1.87-5.21-9.85a3.1,3.1,0,1,1,5.48-2.9l7.84,14.82,14.77,3.78a6.52,6.52,0,0,0-.35-1.28l-8.43-21.73a7.67,7.67,0,0,1,.81-7.21,7.74,7.74,0,0,1,9.3-2.9l21.73,8.43a6.92,6.92,0,0,0,2.52.46h0l-4.1-16L369,39.19a3.1,3.1,0,1,1,2.9-5.48l9.69,5.13-1.87-7.3L365.13,23.8a3.1,3.1,0,1,1,2.9-5.48l9.66,5.11-3.11-12.17a3.1,3.1,0,1,1,6-1.54L384,23l7.86-9.33a3.1,3.1,0,1,1,4.74,4L385.87,30.4l2,8,7.84-9.3a3.1,3.1,0,0,1,4.74,4L389.8,45.76l3.69,14.43,14.46-18a7.63,7.63,0,0,1,6-2.92,7.81,7.81,0,0,1,7.77,6.63l3.56,23a7,7,0,0,0,.51,1.74L438.57,58l-1.72-15.75a3.1,3.1,0,0,1,2.74-3.42l.34,0A3.09,3.09,0,0,1,443,41.58l1.19,10.83,5.06-5-1.86-17A3.1,3.1,0,0,1,450.14,27l.34,0a3.09,3.09,0,0,1,3.08,2.76l1.32,12.07L460,36.7a3.1,3.1,0,0,1,4.38,4.39l-4.6,4.58,11,1.15a3.1,3.1,0,0,1-.32,6.18l-.33,0-16-1.68L448,57.41,460.2,58.7a3.1,3.1,0,0,1-.32,6.18l-.33,0-17.26-1.81L430.57,74.7a6.24,6.24,0,0,0,.65.14l23,3.56A7.81,7.81,0,0,1,458,92.21l-18.17,14.6-.22.19,16.92,4.33,12.09-10.18a3.1,3.1,0,0,1,4,4.74l-8.7,7.33,8,2L484,105.06a3.1,3.1,0,0,1,4,4.74l-8.72,7.35,11.79,3a3.1,3.1,0,0,1,1.43,5.19,3.09,3.09,0,0,1-3,.81l-11.68-3,5.52,10.43a3.1,3.1,0,1,1-5.48,2.9l-8.15-15.4-7.3-1.87,5.53,10.46a3.08,3.08,0,0,1-.55,3.64,3.1,3.1,0,0,1-4.93-.74l-8.16-15.43-17.1-4.38a6.87,6.87,0,0,0,.44,2.08l8.43,21.73a7.67,7.67,0,0,1-.81,7.21,7.74,7.74,0,0,1-9.3,2.9l-21.73-8.43a6,6,0,0,0-.81-.25l4,15.75L433,162a3.1,3.1,0,0,1,.74,4.93,3.1,3.1,0,0,1-3.64.55l-10.62-5.62,1.87,7.3,15.56,8.23a3.1,3.1,0,0,1,.74,4.93,3.1,3.1,0,0,1-3.64.55l-10.59-5.6,3,11.88a3.1,3.1,0,0,1-3,3.87Z"/>
			<path class="copnicls-4" d="M377.58,7.77a2.73,2.73,0,0,1,2.64,2.05l3.58,14,8.33-9.89a2.72,2.72,0,0,1,4.17,3.51L385.46,30.3l2.27,8.88L396,29.32a2.72,2.72,0,0,1,4.17,3.51L389.39,45.67,393.31,61c.11-.12.23-.23.33-.35l14.6-18.17A7.29,7.29,0,0,1,414,39.66a7.41,7.41,0,0,1,7.4,6.31L425,69a7.43,7.43,0,0,0,.77,2.32L439,58.15l-1.74-15.93a2.72,2.72,0,0,1,2.41-3l.3,0a2.72,2.72,0,0,1,2.7,2.43l1.27,11.6,5.74-5.71-1.88-17.17a2.72,2.72,0,0,1,2.41-3l.3,0a2.72,2.72,0,0,1,2.7,2.43l1.41,12.85L460.25,37a2.72,2.72,0,0,1,3.85,3.86h0L458.93,46l11.77,1.23a2.72,2.72,0,0,1-.28,5.43l-.29,0L454,50.92l-6.82,6.79,13,1.37a2.72,2.72,0,0,1-.28,5.43l-.29,0-17.44-1.83L429.87,74.88a7.39,7.39,0,0,0,1.3.33l23,3.56a7.44,7.44,0,0,1,3.52,13.15l-18.17,14.6a7.35,7.35,0,0,0-.72.68l17.74,4.54,12.23-10.3a2.72,2.72,0,0,1,3.51,4.17l-9.26,7.8,8.88,2.27,12.26-10.33a2.72,2.72,0,0,1,3.51,4.17l-9.28,7.82,12.5,3.2a2.72,2.72,0,1,1-1.35,5.28l-12.5-3.2L483,133.79a2.72,2.72,0,1,1-4.82,2.55L470,120.79l-8.28-2.12,5.93,11.21a2.72,2.72,0,1,1-4.82,2.55l-8.24-15.58L436.8,112.3a7.38,7.38,0,0,0,.48,2.71l8.43,21.73a7.41,7.41,0,0,1-9.62,9.62l-21.73-8.43a7.41,7.41,0,0,0-1.46-.38L417.11,154l15.74,8.33a2.72,2.72,0,1,1-2.55,4.82l-11.37-6,2.12,8.28,15.71,8.31a2.72,2.72,0,1,1-2.55,4.82l-11.34-6,3.25,12.7a2.72,2.72,0,1,1-5.28,1.35l-3.19-12.48-7.71,9.16a2.72,2.72,0,0,1-4.17-3.51L416,171.65l-2.27-8.88L406,171.89a2.72,2.72,0,0,1-4.17-3.51l10.2-12.11-4.5-17.6a7.4,7.4,0,0,0-1.69,1.53l-14.6,18.17a7.29,7.29,0,0,1-5.75,2.78,7.41,7.41,0,0,1-7.4-6.31l-3.56-23a7.35,7.35,0,0,0-.42-1.5l-10.67,10.61,1.81,16.57a2.73,2.73,0,0,1-2.41,3l-.3,0a2.72,2.72,0,0,1-2.7-2.43l-1.34-12.24-5.74,5.71,1.95,17.81a2.73,2.73,0,0,1-2.41,3l-.3,0a2.72,2.72,0,0,1-2.7-2.43l-1.48-13.49-7,7A2.72,2.72,0,0,1,337,159.6l6-5.92-11.13-1.17a2.72,2.72,0,0,1,.28-5.43l.29,0,15.54,1.63,6.82-6.79-12.38-1.3a2.72,2.72,0,0,1,.28-5.43l.29,0,16.8,1.76,10.76-10.7a7.4,7.4,0,0,0-2.13-.68l-23-3.56a7.44,7.44,0,0,1-3.52-13.15L360,94.29A7.42,7.42,0,0,0,361.21,93L346,89.07,333.26,99.78a2.72,2.72,0,0,1-3.51-4.17l9.74-8.2-8.88-2.27L317.87,95.87a2.72,2.72,0,1,1-3.51-4.17l9.76-8.22-14-3.58a2.72,2.72,0,1,1,1.35-5.28L324.67,78l-5.59-10.57a2.72,2.72,0,1,1,4.82-2.55l7.9,14.94,8.28,2.12-5.61-10.6a2.72,2.72,0,1,1,4.82-2.55l7.92,15,15.47,4a7.39,7.39,0,0,0-.44-1.91L353.8,64.08a7.41,7.41,0,0,1,9.62-9.62l21.73,8.43a7.31,7.31,0,0,0,2.65.49l.49,0L384,46.69l-14.81-7.83A2.72,2.72,0,1,1,371.77,34l10.44,5.52-2.12-8.28-14.78-7.82a2.72,2.72,0,1,1,2.55-4.82l10.41,5.51-3.32-13a2.73,2.73,0,0,1,2.64-3.4m0-.75h0a3.48,3.48,0,0,0-3.37,4.34l2.9,11.35L368.21,18A3.47,3.47,0,0,0,365,24.13l14.49,7.66,1.62,6.32-8.94-4.73a3.47,3.47,0,0,0-3.25,6.14l14.52,7.68,3.94,15.4a6.47,6.47,0,0,1-1.9-.42L363.7,53.75a8.11,8.11,0,0,0-9.74,3,8,8,0,0,0-.85,7.56l8.43,21.73a5.8,5.8,0,0,1,.2.63l-14-3.59L340,68.44a3.47,3.47,0,1,0-6.14,3.25l4.81,9.1-6.32-1.62-7.75-14.64a3.47,3.47,0,1,0-6.14,3.25l4.8,9.07-11.54-3a3.47,3.47,0,0,0-4.23,2.5,3.47,3.47,0,0,0,2.5,4.23l12.57,3.22-8.65,7.28a3.47,3.47,0,0,0,4.48,5.31L330.79,86l7.1,1.82L329.27,95a3.47,3.47,0,1,0,4.48,5.31l12.42-10.46,13.68,3.5-.36.31-18.16,14.6a8.19,8.19,0,0,0,3.88,14.47l23,3.56a6.36,6.36,0,0,1,.9.21l-9.7,9.65L343,134.48l-.37,0a3.47,3.47,0,0,0-.36,6.93l10.81,1.13-5.45,5.42-15.19-1.59-.37,0a3.47,3.47,0,0,0-.36,6.93l9.56,1-4.83,4.81a3.47,3.47,0,1,0,4.9,4.93l5.92-5.89L348.58,170a3.47,3.47,0,0,0,3.45,3.1l.38,0a3.47,3.47,0,0,0,3.08-3.83l-1.91-17.45,4.38-4.36,1.17,10.69a3.47,3.47,0,0,0,3.45,3.1l.38,0a3.48,3.48,0,0,0,3.08-3.83l-1.77-16.21,9.52-9.47,0,.2,3.56,23a8.19,8.19,0,0,0,8.14,6.94,8,8,0,0,0,6.33-3.06l14.6-18.17a6.6,6.6,0,0,1,.66-.71l4.12,16.12-9.95,11.81a3.47,3.47,0,0,0,5.31,4.48l6.75-8,1.82,7.1-10,11.84a3.47,3.47,0,0,0,5.31,4.48l6.77-8,2.83,11.07a3.47,3.47,0,1,0,6.73-1.72L424,178l9.84,5.2a3.47,3.47,0,1,0,3.25-6.14l-15.41-8.15-1.62-6.32,9.87,5.22a3.47,3.47,0,0,0,3.25-6.14l-15.44-8.17-3.82-14.95.15.06,21.73,8.43a8.11,8.11,0,0,0,9.74-3,8,8,0,0,0,.85-7.56L438,114.74a6.33,6.33,0,0,1-.37-1.45l16.43,4.2,8.09,15.29a3.47,3.47,0,1,0,6.14-3.25l-5.14-9.71,6.32,1.62,8.07,15.26a3.47,3.47,0,1,0,6.14-3.25l-5.12-9.68,10.86,2.78a3.47,3.47,0,0,0,4.23-2.5,3.47,3.47,0,0,0-2.5-4.23L480,117l8.17-6.88a3.47,3.47,0,1,0-4.48-5.31l-12,10.08-7.1-1.82,8.14-6.86a3.47,3.47,0,0,0-4.48-5.31l-11.94,10.06-16-4.1,17.81-14.32A8.19,8.19,0,0,0,454.31,78l-23-3.55,11.09-11,17.09,1.79.37,0a3.45,3.45,0,0,0,2.45-1,3.47,3.47,0,0,0-2.1-5.91l-11.46-1.2,5.45-5.42,15.83,1.66.37,0a3.47,3.47,0,0,0,.36-6.93l-10.21-1.07,4-4,0,0a3.47,3.47,0,0,0-4.93-4.9L455.17,41l-1.24-11.3a3.47,3.47,0,0,0-3.45-3.1l-.38,0A3.47,3.47,0,0,0,447,30.43l1.84,16.81-4.38,4.36-1.1-10.06a3.47,3.47,0,0,0-3.45-3.1l-.38,0a3.47,3.47,0,0,0-3.08,3.83l1.7,15.57L426,70a6.56,6.56,0,0,1-.28-1.13l-3.56-23A8.19,8.19,0,0,0,414,38.91,8,8,0,0,0,407.66,42l-14,17.4-3.46-13.51,10.57-12.54a3.47,3.47,0,0,0-5.31-4.48l-7.37,8.75-1.82-7.1,10.59-12.57a3.47,3.47,0,1,0-5.31-4.48l-7.39,8.77L380.95,9.63A3.47,3.47,0,0,0,377.58,7Z"/>
			<rect class="copnicls-5" width="576" height="602"/>
		</g>
	</g>
</svg>