<svg xmlns="http://www.w3.org/2000/svg" viewBox="0 0 576 602">
	<defs>
		<style>
			.colorcls-1{fill:#ff0;}
			.colorcls-2{fill:#fcf8a9;}
			.corascls-3{fill:#ec1e79;}
			.corascls-4{fill:#662d90;}
			.corascls-5{fill:#39b44a;}
			.corascls-6{fill:#29aae1;}
			.corascls-7{fill:none;}
		</style>
	</defs>
	<title>
		Recurso 215
	</title>
	<g id="Capa_2" data-name="Capa 2">
		<g id="Capa_3" data-name="Capa 3">
			<path class="colorcls-1" d="M504.27,292.14c0,100-95.9,77.22-214.19,77.22S75.89,392.14,75.89,292.14s95.9-181.07,214.19-181.07S504.27,192.13,504.27,292.14Z"/>
			<path class="colorcls-2" d="M333.3,155.81l-75.74,6c-33.58,2.65-63.56-16.47-67-42.73l-1.52-11.77C185.68,81,257.16,9.56,290.75,6.9L319.48,49c33.58-2.65,63.56,16.47,67,42.73L388,103.47C391.35,129.72,366.88,153.15,333.3,155.81Z"/>
			<path class="colorcls-1" d="M414.5,215l-238.15,21.5c-33.58,3-63.56-18.81-67-48.79l-1.52-13.44c-3.4-30,21.07-56.73,54.66-59.76L400.68,93c33.58-3,63.56,18.81,67,48.79l1.52,13.44C472.56,185.19,448.09,211.95,414.5,215Z"/>
			<path class="colorcls-2" d="M456.36,287.88,134.49,316.94c-33.58,3-63.56-18.81-67-48.79L66,254.71c-3.4-30,21.07-56.73,54.66-59.76l321.87-29.05c33.58-3,63.56,18.81,67,48.79L511,228.12C514.42,258.09,489.95,284.85,456.36,287.88Z"/>
		</g>
		<g id="Capa_1-2" data-name="Capa 1">
			<path class="corascls-3" d="M136.35,226.76a7.24,7.24,0,0,0-12.42,6.41,7.24,7.24,0,1,0-3.32,14.05l0,0h.13a7.29,7.29,0,0,0,1.18.06l15.5.8.72-15.49A7.22,7.22,0,0,0,136.35,226.76Z"/>
			<path class="corascls-3" d="M118.35,182.76a7.24,7.24,0,0,0-12.42,6.41,7.24,7.24,0,1,0-3.32,14.05l0,0h.13a7.29,7.29,0,0,0,1.18.06l15.5.8.72-15.49A7.22,7.22,0,0,0,118.35,182.76Z"/>
			<path class="corascls-4" d="M186.35,245.76a7.24,7.24,0,0,0-12.42,6.41,7.24,7.24,0,1,0-3.32,14.05l0,0h.13a7.29,7.29,0,0,0,1.18.06l15.5.8.72-15.49A7.22,7.22,0,0,0,186.35,245.76Z"/>
			<path class="corascls-4" d="M294.35,37.76a7.24,7.24,0,0,0-12.42,6.41,7.24,7.24,0,1,0-3.32,14.05l0,0h.13a7.29,7.29,0,0,0,1.18.06l15.5.8.72-15.49A7.22,7.22,0,0,0,294.35,37.76Z"/>
			<path class="corascls-5" d="M118.35,299.76a7.24,7.24,0,0,0-12.42,6.41,7.24,7.24,0,1,0-3.32,14.05l0,0h.13a7.29,7.29,0,0,0,1.18.06l15.5.8.72-15.49A7.22,7.22,0,0,0,118.35,299.76Z"/>
			<path class="corascls-5" d="M290.89,151.19a7.24,7.24,0,0,0-13.94-1,7.24,7.24,0,1,0-10.18,10.24l0,0,.11.07a7.29,7.29,0,0,0,1,.67L280.67,170l8.71-12.83A7.22,7.22,0,0,0,290.89,151.19Z"/>
			<path class="corascls-5" d="M380.89,70.19a7.24,7.24,0,0,0-13.94-1A7.24,7.24,0,1,0,356.77,79.4l0,0,.11.07a7.29,7.29,0,0,0,1,.67L370.67,89l8.71-12.83A7.22,7.22,0,0,0,380.89,70.19Z"/>
			<path class="corascls-5" d="M253.89,82.19a7.24,7.24,0,0,0-13.94-1A7.24,7.24,0,1,0,229.77,91.4l0,0,.11.07a7.29,7.29,0,0,0,1,.67L243.67,101l8.71-12.83A7.22,7.22,0,0,0,253.89,82.19Z"/>
			<path class="corascls-4" d="M297.89,215.19a7.24,7.24,0,0,0-13.94-1,7.24,7.24,0,1,0-10.18,10.24l0,0,.11.07a7.29,7.29,0,0,0,1,.67L287.67,234l8.71-12.83A7.22,7.22,0,0,0,297.89,215.19Z"/>
			<path class="corascls-4" d="M444.89,101.19a7.24,7.24,0,0,0-13.94-1,7.24,7.24,0,1,0-10.18,10.24l0,0,.11.07a7.29,7.29,0,0,0,1,.67L434.67,120l8.71-12.83A7.22,7.22,0,0,0,444.89,101.19Z"/>
			<path class="corascls-5" d="M253.69,253.72a7.24,7.24,0,0,0-12.37-6.51,7.24,7.24,0,1,0-13.42,5.33v0l.07.11a7.29,7.29,0,0,0,.63,1l8.22,13.16,13.11-8.29A7.22,7.22,0,0,0,253.69,253.72Z"/>
			<path class="corascls-6" d="M240.69,191.72a7.24,7.24,0,0,0-12.37-6.51,7.24,7.24,0,1,0-13.42,5.33v0l.07.11a7.29,7.29,0,0,0,.63,1l8.22,13.16,13.11-8.29A7.22,7.22,0,0,0,240.69,191.72Z"/>
			<path class="corascls-6" d="M167.69,138.72a7.24,7.24,0,0,0-12.37-6.51,7.24,7.24,0,1,0-13.42,5.33v0l.07.11a7.29,7.29,0,0,0,.63,1l8.22,13.16,13.11-8.29A7.22,7.22,0,0,0,167.69,138.72Z"/>
			<path class="corascls-3" d="M227.69,150.72a7.24,7.24,0,0,0-12.37-6.51,7.24,7.24,0,1,0-13.42,5.33v0l.07.11a7.29,7.29,0,0,0,.63,1l8.22,13.16,13.11-8.29A7.22,7.22,0,0,0,227.69,150.72Z"/>
			<path class="corascls-5" d="M240.69,323.72a7.24,7.24,0,0,0-12.37-6.51,7.24,7.24,0,1,0-13.42,5.33v0l.07.11a7.29,7.29,0,0,0,.63,1l8.22,13.16,13.11-8.29A7.22,7.22,0,0,0,240.69,323.72Z"/>
			<path class="corascls-6" d="M297.69,288.72a7.24,7.24,0,0,0-12.37-6.51,7.24,7.24,0,1,0-13.42,5.33v0l.07.11a7.29,7.29,0,0,0,.63,1l8.22,13.16,13.11-8.29A7.22,7.22,0,0,0,297.69,288.72Z"/>
			<path class="corascls-4" d="M417.69,198.72a7.24,7.24,0,0,0-12.37-6.51,7.24,7.24,0,1,0-13.42,5.33v0l.07.11a7.29,7.29,0,0,0,.63,1l8.22,13.16,13.11-8.29A7.22,7.22,0,0,0,417.69,198.72Z"/>
			<path class="corascls-3" d="M345.76,243a7.24,7.24,0,0,0-13.66-3,7.24,7.24,0,1,0-11.51,8.71l0,0,.1.09a7.29,7.29,0,0,0,.87.8L333,260.16l10.43-11.48A7.22,7.22,0,0,0,345.76,243Z"/>
			<path class="corascls-3" d="M431.76,142a7.24,7.24,0,0,0-13.66-3,7.24,7.24,0,1,0-11.51,8.71l0,0,.1.09a7.29,7.29,0,0,0,.87.8L419,159.16l10.43-11.48A7.22,7.22,0,0,0,431.76,142Z"/>
			<path class="corascls-6" d="M359.76,192a7.24,7.24,0,0,0-13.66-3,7.24,7.24,0,1,0-11.51,8.71l0,0,.1.09a7.29,7.29,0,0,0,.87.8L347,209.16l10.43-11.48A7.22,7.22,0,0,0,359.76,192Z"/>
			<path class="corascls-6" d="M311.76,103a7.24,7.24,0,0,0-13.66-3,7.24,7.24,0,1,0-11.51,8.71l0,0,.1.09a7.29,7.29,0,0,0,.87.8L299,120.16l10.43-11.48A7.22,7.22,0,0,0,311.76,103Z"/>
			<path class="corascls-3" d="M353.76,140a7.24,7.24,0,0,0-13.66-3,7.24,7.24,0,1,0-11.51,8.71l0,0,.1.09a7.29,7.29,0,0,0,.87.8L341,157.16l10.43-11.48A7.22,7.22,0,0,0,353.76,140Z"/>
			<path class="corascls-5" d="M462.76,253a7.24,7.24,0,0,0-13.66-3,7.24,7.24,0,1,0-11.51,8.71l0,0,.1.09a7.29,7.29,0,0,0,.87.8L450,270.16l10.43-11.48A7.22,7.22,0,0,0,462.76,253Z"/>
			<path class="corascls-6" d="M475.76,307a7.24,7.24,0,0,0-13.66-3,7.24,7.24,0,1,0-11.51,8.71l0,0,.1.09a7.29,7.29,0,0,0,.87.8L463,324.16l10.43-11.48A7.22,7.22,0,0,0,475.76,307Z"/>
			<path class="corascls-5" d="M180.69,183.72a7.24,7.24,0,0,0-12.37-6.51,7.24,7.24,0,1,0-13.42,5.33v0l.07.11a7.29,7.29,0,0,0,.63,1l8.22,13.16,13.11-8.29A7.22,7.22,0,0,0,180.69,183.72Z"/>
			<path class="corascls-5" d="M88.69,269.72a7.24,7.24,0,0,0-12.37-6.51,7.24,7.24,0,1,0-13.42,5.33v0l.07.11a7.29,7.29,0,0,0,.63,1l8.22,13.16,13.11-8.29A7.22,7.22,0,0,0,88.69,269.72Z"/>
			<path class="corascls-6" d="M180.69,311.72a7.24,7.24,0,0,0-12.37-6.51,7.24,7.24,0,1,0-13.42,5.33v0l.07.11a7.29,7.29,0,0,0,.63,1l8.22,13.16,13.11-8.29A7.22,7.22,0,0,0,180.69,311.72Z"/>
			<path class="corascls-3" d="M407.77,305.37A7.24,7.24,0,0,0,394,307.79a7.24,7.24,0,1,0-7.35,12.43l0,0,.12,0a7.29,7.29,0,0,0,1.11.41l14.56,5.38,5.29-14.58A7.22,7.22,0,0,0,407.77,305.37Z"/>
			<path class="corascls-3" d="M507.77,256.37A7.24,7.24,0,0,0,494,258.79a7.24,7.24,0,1,0-7.35,12.43l0,0,.12,0a7.29,7.29,0,0,0,1.11.41l14.56,5.38,5.29-14.58A7.22,7.22,0,0,0,507.77,256.37Z"/>
			<path class="corascls-6" d="M399.77,256.37A7.24,7.24,0,0,0,386,258.79a7.24,7.24,0,1,0-7.35,12.43l0,0,.12,0a7.29,7.29,0,0,0,1.11.41l14.56,5.38,5.29-14.58A7.22,7.22,0,0,0,399.77,256.37Z"/>
			<path class="corascls-6" d="M481.77,184.37A7.24,7.24,0,0,0,468,186.79a7.24,7.24,0,1,0-7.35,12.43l0,0,.12,0a7.29,7.29,0,0,0,1.11.41l14.56,5.38,5.29-14.58A7.22,7.22,0,0,0,481.77,184.37Z"/>
			<path class="corascls-4" d="M339.69,323.72a7.24,7.24,0,0,0-12.37-6.51,7.24,7.24,0,1,0-13.42,5.33v0l.07.11a7.29,7.29,0,0,0,.63,1l8.22,13.16,13.11-8.29A7.22,7.22,0,0,0,339.69,323.72Z"/>
			<rect class="corascls-7" width="576" height="602"/>
		</g>
	</g>
</svg>