<svg xmlns="http://www.w3.org/2000/svg" viewBox="0 0 576 602"><defs><style>.cls-1{fill:#ff0068;fill-rule:evenodd;}.cls-2{fill:none;}</style></defs><title>Recurso 200</title><g id="Capa_2" data-name="Capa 2"><g id="Capa_1-2" data-name="Capa 1"><path class="cls-1" d="M378.73,59.47c0-10-7.39-19.65-19.89-26-13.08-6.61-30.79-9-47.15-6.49-10.07,1.57-19.29,5-26.35,9.72-7.94-5.32-18.6-9-30.09-10.21a84.91,84.91,0,0,0-31.36,2.39c-9,2.5-16.86,6.57-22.46,11.62s-9,11.29-9.41,17.55c-.5,7.51,3.13,15,10.26,21.08q1.31,1.11,2.76,2.16l-.11,0,11.35,6.86,18,10.89L257.22,113l20.15,12.19,6.59,4,2,1.23a4.08,4.08,0,0,0,1,.62c.37.06,1.11-.58,1.42-.77l5-3.15,17.81-11.25,22.45-14.18,20.13-12.72,10.85-6.85c.15-.09.45-.23.38-.3C373.81,75.66,378.73,67.66,378.73,59.47Z"/><rect class="cls-2" width="576" height="602"/></g></g></svg>