<svg xmlns="http://www.w3.org/2000/svg" viewBox="0 0 576 602">
	<defs>
		<style>
			.colorcls-1{fill:#ff0;}
			.colorcls-2{fill:#fcf8a9;}
			.coracls-3{fill:#ff0068;fill-rule:evenodd;}
			.coracls-4{fill:none;}
		</style>
	</defs>
	<title>
		Recurso 240
	</title>
	<g id="Capa_2" data-name="Capa 2">
		<g id="Capa_3" data-name="Capa 3">
			<path class="colorcls-1" d="M504.27,292.14c0,100-95.9,77.22-214.19,77.22S75.89,392.14,75.89,292.14s95.9-181.07,214.19-181.07S504.27,192.13,504.27,292.14Z"/>
			<path class="colorcls-2" d="M333.3,155.81l-75.74,6c-33.58,2.65-63.56-16.47-67-42.73l-1.52-11.77C185.68,81,257.16,9.56,290.75,6.9L319.48,49c33.58-2.65,63.56,16.47,67,42.73L388,103.47C391.35,129.72,366.88,153.15,333.3,155.81Z"/>
			<path class="colorcls-1" d="M414.5,215l-238.15,21.5c-33.58,3-63.56-18.81-67-48.79l-1.52-13.44c-3.4-30,21.07-56.73,54.66-59.76L400.68,93c33.58-3,63.56,18.81,67,48.79l1.52,13.44C472.56,185.19,448.09,211.95,414.5,215Z"/>
			<path class="colorcls-2" d="M456.36,287.88,134.49,316.94c-33.58,3-63.56-18.81-67-48.79L66,254.71c-3.4-30,21.07-56.73,54.66-59.76l321.87-29.05c33.58-3,63.56,18.81,67,48.79L511,228.12C514.42,258.09,489.95,284.85,456.36,287.88Z"/>
		</g>
		<g id="Capa_1-2" data-name="Capa 1">
			<path class="coracls-3" d="M378.73,59.47c0-10-7.39-19.65-19.89-26-13.08-6.61-30.79-9-47.15-6.49-10.07,1.57-19.29,5-26.35,9.72-7.94-5.32-18.6-9-30.09-10.21a84.91,84.91,0,0,0-31.36,2.39c-9,2.5-16.86,6.57-22.46,11.62s-9,11.29-9.41,17.55c-.5,7.51,3.13,15,10.26,21.08q1.31,1.11,2.76,2.16l-.11,0,11.35,6.86,18,10.89L257.22,113l20.15,12.19,6.59,4,2,1.23a4.08,4.08,0,0,0,1,.62c.37.06,1.11-.58,1.42-.77l5-3.15,17.81-11.25,22.45-14.18,20.13-12.72,10.85-6.85c.15-.09.45-.23.38-.3C373.81,75.66,378.73,67.66,378.73,59.47Z"/>
			<rect class="coracls-4" width="576" height="602"/>
		</g>
	</g>
</svg>