<svg xmlns="http://www.w3.org/2000/svg" viewBox="0 0 576 602">
	<defs>
		<style>
			.colorcls-1{fill:#ff0;}
			.colorcls-2{fill:#fcf8a9;}
			.cumpcls-12,.cumpcls-3,.cumpcls-5{fill:none;}
			.cumpcls-3{stroke:#603813;}
			.cumpcls-3,.cumpcls-5{stroke-linecap:round;stroke-miterlimit:10;}
			.cumpcls-4{fill:#d86c00;}
			.cumpcls-5{stroke:#ffcd9c;}
			.cumpcls-6{font-size:46.86px;font-family:GillSansMT-ExtraCondensedBold, Gill Sans MT Ext Condensed Bold;}
			.cumpcls-11,.cumpcls-6{fill:#ec1e79;}
			.cumpcls-7{letter-spacing:-0.02em;}
			.cumpcls-8{fill:#39b44a;}
			.cumpcls-9{fill:#662d90;}
			.cumpcls-10{fill:#29aae1;}
		</style>
	</defs>
	<title>
		Recurso 213
	</title>
	<g id="Capa_2" data-name="Capa 2">
		<g id="Capa_3" data-name="Capa 3">
			<path class="colorcls-1" d="M504.27,292.14c0,100-95.9,77.22-214.19,77.22S75.89,392.14,75.89,292.14s95.9-181.07,214.19-181.07S504.27,192.13,504.27,292.14Z"/>
			<path class="colorcls-2" d="M333.3,155.81l-75.74,6c-33.58,2.65-63.56-16.47-67-42.73l-1.52-11.77C185.68,81,257.16,9.56,290.75,6.9L319.48,49c33.58-2.65,63.56,16.47,67,42.73L388,103.47C391.35,129.72,366.88,153.15,333.3,155.81Z"/>
			<path class="colorcls-1" d="M414.5,215l-238.15,21.5c-33.58,3-63.56-18.81-67-48.79l-1.52-13.44c-3.4-30,21.07-56.73,54.66-59.76L400.68,93c33.58-3,63.56,18.81,67,48.79l1.52,13.44C472.56,185.19,448.09,211.95,414.5,215Z"/>
			<path class="colorcls-2" d="M456.36,287.88,134.49,316.94c-33.58,3-63.56-18.81-67-48.79L66,254.71c-3.4-30,21.07-56.73,54.66-59.76l321.87-29.05c33.58-3,63.56,18.81,67,48.79L511,228.12C514.42,258.09,489.95,284.85,456.36,287.88Z"/>
		</g>
		<g id="Capa_1-2" data-name="Capa 1">
			<line class="cumpcls-3" x1="421.61" y1="42.74" x2="431.18" y2="11.09"/>
			<path class="cumpcls-4" d="M404,125.81,388.42,121a8.33,8.33,0,0,1-5.52-10.41l24.72-80.47c.8-2.59,8-6.54,13.79-9.34A8.89,8.89,0,0,1,433,24.35c3.22,5.56,7,12.88,6.17,15.47l-24.72,80.47A8.33,8.33,0,0,1,404,125.81Z"/>
			<line class="cumpcls-5" x1="403.1" y1="44.84" x2="441.04" y2="33.73"/>
			<line class="cumpcls-5" x1="397.78" y1="62.18" x2="435.71" y2="51.07"/>
			<line class="cumpcls-5" x1="392.45" y1="79.51" x2="430.39" y2="68.4"/>
			<line class="cumpcls-5" x1="387.13" y1="96.85" x2="425.06" y2="85.73"/>
			<line class="cumpcls-5" x1="381.8" y1="114.18" x2="419.74" y2="103.07"/>
			<text class="cumpcls-6" transform="translate(224.9 234.33) rotate(-0.73) scale(2.73 1)">
				Feliz
				<tspan x="-38.96" y="40.2">
					Cump
				</tspan>
				<tspan class="cumpcls-7" x="18.64" y="40.2">l
				</tspan>
				<tspan x="24.79" y="40.2">
					eaños
				</tspan>
			</text>
			<ellipse class="cumpcls-8" cx="355" cy="160" rx="15" ry="18" transform="translate(94.53 449.44) rotate(-72.28)"/>
			<ellipse class="cumpcls-9" cx="424" cy="197.5" rx="13.5" ry="17" transform="translate(-34.02 292.36) rotate(-36.68)"/>
			<ellipse class="cumpcls-10" cx="275" cy="315.5" rx="19" ry="14.5" transform="translate(-35.4 34.76) rotate(-6.8)"/>
			<ellipse class="cumpcls-11" cx="451" cy="309" rx="15" ry="17" transform="translate(-91.62 375.69) rotate(-41.42)"/>
			<ellipse class="cumpcls-10" cx="181" cy="198" rx="20" ry="15" transform="translate(-68.54 99.53) rotate(-26.03)"/>
			<ellipse class="cumpcls-8" cx="160" cy="331" rx="20" ry="15"/>
			<ellipse class="cumpcls-9" cx="111" cy="224" rx="19" ry="14" transform="translate(-136.78 190.77) rotate(-56)"/>
			<ellipse class="cumpcls-11" cx="243" cy="157.5" rx="18" ry="12.5"/>
			<ellipse class="cumpcls-11" cx="243" cy="42.5" rx="18" ry="12.5"/>
			<ellipse class="cumpcls-9" cx="381.5" cy="338.5" rx="18.5" ry="13.5"/>
			<ellipse class="cumpcls-10" cx="300" cy="92.5" rx="19" ry="14.5" transform="translate(-8.84 36.15) rotate(-6.8)"/>
			<ellipse class="cumpcls-8" cx="195" cy="108" rx="20" ry="15"/><rect class="cumpcls-12" width="576" height="602"/>
		</g>
	</g>
</svg>