<svg xmlns="http://www.w3.org/2000/svg" viewBox="0 0 576 602">
	<defs>
		<style>
			.elecls-1{opacity:0.3;}
			.elecls-2{fill:#64928a;}
			.elecls-3{fill:#6c9d96;}
			.elecls-4{fill:#f8f9d2;}
			.elecls-5{fill:#4f7a73;}
			.elecls-6{fill:#668d85;}
			.elecls-7{fill:#395b55;}
			.elecls-8{fill:none;}
		</style>
	</defs>
	<title>
		Recurso 61
	</title>
	<g id="Capa_2" data-name="Capa 2">
		<g id="Capa_1-2" data-name="Capa 1">
			<ellipse class="elecls-1" cx="287.8" cy="406.39" rx="253.91" ry="122.44"/>
			<path class="elecls-2" d="M515.1,394.72c0,53.9-101.59,97.59-226.92,97.59S61.27,448.62,61.27,394.72c0-9.07-.79-194-.86-211.4-.33-86.1,233.59-86,233.59-86,29.07,1.94,220.69,2.35,221.66,89.37C515.87,206.13,515.1,384.89,515.1,394.72Z"/>
			<ellipse class="elecls-3" cx="288.18" cy="183.79" rx="226.92" ry="111.05"/>
			<path class="elecls-3" d="M288.39,497.31c-7.52,0-14.11-4.64-19.92-8.74-4.25-3-8.64-6.09-12-6.31-3.7-.25-8.65,2.32-13.44,4.81-6.45,3.35-13.13,6.81-20.25,5.83-7.6-1.05-13.53-6.66-18.76-11.61-3.72-3.52-7.56-7.15-10.74-7.85-3.73-.82-9.08.93-14.25,2.62-6.91,2.26-14.06,4.61-20.85,2.42-7.65-2.47-12.53-9.34-16.83-15.4-2.85-4-5.79-8.16-8.57-9.46-3.67-1.71-9.32-1.39-14.78-1.08-7.41.42-15.07.85-20.92-3.34-7.55-5.4-9.47-14.49-11.16-22.52-.89-4.21-1.8-8.57-3.37-10.77-2.08-2.93-5.82-5.81-9.43-8.6C66.25,402,58.47,396,58.47,386.72a6,6,0,0,1,12,0c0,3.38,5.07,7.29,10,11.08,4.31,3.32,8.77,6.76,11.88,11.15s4.19,9.84,5.33,15.25c1.3,6.17,2.64,12.55,6.4,15.23,2.42,1.73,7.93,1.42,13.27,1.12,6.62-.37,14.12-.79,20.52,2.19,5.66,2.64,9.54,8.11,13.29,13.4,3.38,4.76,6.87,9.68,10.72,10.92,3.09,1,8.35-.73,13.44-2.4,6.39-2.09,13.63-4.47,20.57-2.94,6.44,1.42,11.51,6.22,16.41,10.86,4.11,3.89,8.37,7.92,12.16,8.44,3.33.46,8.29-2.11,13.08-4.59,6.25-3.25,12.72-6.6,19.76-6.13,6.72.45,12.51,4.53,18.11,8.48,4.57,3.22,9.29,6.55,13,6.55s8.44-3.33,13-6.55c5.6-3.95,11.39-8,18.11-8.48,7-.47,13.5,2.89,19.76,6.13,4.79,2.48,9.74,5.05,13.08,4.59,3.79-.52,8-4.55,12.16-8.44,4.9-4.64,10-9.44,16.41-10.86,6.93-1.53,14.18.85,20.56,2.94,5.09,1.67,10.35,3.39,13.43,2.4,3.86-1.24,7.35-6.16,10.72-10.92,3.75-5.29,7.63-10.76,13.29-13.39,6.4-3,13.9-2.56,20.52-2.19,5.34.3,10.85.61,13.27-1.12,3.75-2.68,5.1-9.06,6.4-15.23,1.14-5.41,2.32-11,5.33-15.25s7.58-7.82,11.88-11.15c4.91-3.78,10-7.7,10-11.08a6,6,0,0,1,12,0c0,9.28-7.79,15.29-14.65,20.58-3.61,2.79-7.35,5.67-9.43,8.6-1.57,2.2-2.48,6.56-3.37,10.77-1.69,8-3.61,17.12-11.16,22.52-5.85,4.19-13.51,3.76-20.92,3.34-5.46-.31-11.11-.62-14.78,1.08-2.78,1.29-5.73,5.45-8.57,9.46-4.3,6.06-9.18,12.93-16.83,15.4-6.79,2.19-13.94-.15-20.85-2.42-5.17-1.7-10.51-3.45-14.24-2.62-3.19.7-7,4.34-10.75,7.85-5.23,5-11.16,10.56-18.76,11.61-7.12,1-13.79-2.48-20.25-5.83-4.79-2.48-9.76-5.06-13.43-4.81-3.36.22-7.75,3.32-12,6.31C302.5,492.66,295.91,497.31,288.39,497.31Z"/>
			<path class="elecls-3" d="M288.39,449.31c-7.52,0-14.11-4.64-19.92-8.74-4.25-3-8.64-6.09-12-6.31-3.7-.25-8.65,2.32-13.44,4.81-6.45,3.35-13.13,6.81-20.25,5.83-7.6-1.05-13.53-6.66-18.76-11.61-3.72-3.52-7.56-7.15-10.74-7.85-3.73-.82-9.08.93-14.25,2.62-6.91,2.26-14.06,4.61-20.85,2.42-7.65-2.47-12.53-9.34-16.83-15.4-2.85-4-5.79-8.16-8.57-9.46-3.67-1.71-9.32-1.39-14.78-1.08-7.41.42-15.07.85-20.92-3.34-7.55-5.4-9.47-14.49-11.16-22.52-.89-4.21-1.8-8.57-3.37-10.77-2.08-2.93-5.82-5.81-9.43-8.6C66.25,354,58.47,348,58.47,338.72a6,6,0,0,1,12,0c0,3.38,5.07,7.29,10,11.08,4.31,3.32,8.77,6.76,11.88,11.15s4.19,9.84,5.33,15.25c1.3,6.17,2.64,12.55,6.4,15.23,2.42,1.73,7.93,1.42,13.27,1.12,6.62-.37,14.12-.79,20.52,2.19,5.66,2.64,9.54,8.11,13.29,13.4,3.38,4.76,6.87,9.68,10.72,10.92,3.09,1,8.35-.73,13.44-2.4,6.39-2.09,13.63-4.47,20.57-2.94,6.44,1.42,11.51,6.22,16.41,10.86,4.11,3.89,8.37,7.92,12.16,8.44,3.33.46,8.29-2.11,13.08-4.59,6.25-3.25,12.72-6.6,19.76-6.13,6.72.45,12.51,4.53,18.11,8.48,4.57,3.22,9.29,6.55,13,6.55s8.44-3.33,13-6.55c5.6-3.95,11.39-8,18.11-8.48,7-.47,13.5,2.89,19.76,6.13,4.79,2.48,9.74,5.05,13.08,4.59,3.79-.52,8-4.55,12.16-8.44,4.9-4.64,10-9.44,16.41-10.86,6.93-1.53,14.18.85,20.56,2.94,5.09,1.67,10.35,3.39,13.43,2.4,3.86-1.24,7.35-6.16,10.72-10.92,3.75-5.29,7.63-10.76,13.29-13.39,6.4-3,13.9-2.56,20.52-2.19,5.34.3,10.85.61,13.27-1.12,3.75-2.68,5.1-9.06,6.4-15.23,1.14-5.41,2.32-11,5.33-15.25s7.58-7.82,11.88-11.15c4.91-3.78,10-7.7,10-11.08a6,6,0,1,1,12,0c0,9.28-7.79,15.29-14.65,20.58-3.61,2.79-7.35,5.67-9.43,8.6-1.57,2.2-2.48,6.56-3.37,10.77-1.69,8-3.61,17.12-11.16,22.52-5.85,4.19-13.51,3.76-20.92,3.34-5.46-.31-11.11-.63-14.78,1.08-2.78,1.29-5.73,5.45-8.57,9.46-4.3,6.06-9.18,12.93-16.83,15.4-6.79,2.19-13.94-.15-20.85-2.42-5.17-1.7-10.51-3.45-14.24-2.62-3.19.7-7,4.34-10.75,7.85-5.23,5-11.16,10.56-18.76,11.61-7.12,1-13.79-2.48-20.25-5.83-4.79-2.48-9.76-5.05-13.43-4.81-3.36.22-7.75,3.32-12,6.31C302.5,444.66,295.91,449.31,288.39,449.31Z"/>
			<path class="elecls-3" d="M288.39,403.31c-7.52,0-14.11-4.64-19.92-8.74-4.25-3-8.64-6.09-12-6.31-3.7-.24-8.65,2.32-13.44,4.81-6.45,3.35-13.13,6.81-20.25,5.83-7.6-1.05-13.53-6.66-18.76-11.61-3.72-3.52-7.56-7.15-10.74-7.85-3.73-.82-9.08.93-14.25,2.62-6.91,2.26-14.06,4.61-20.85,2.42-7.65-2.47-12.53-9.34-16.83-15.4-2.85-4-5.79-8.16-8.57-9.46-3.67-1.71-9.32-1.39-14.78-1.08-7.41.42-15.07.85-20.92-3.34-7.55-5.4-9.47-14.49-11.16-22.52-.89-4.21-1.8-8.57-3.37-10.77-2.08-2.93-5.82-5.81-9.43-8.6C66.25,308,58.47,302,58.47,292.72a6,6,0,0,1,12,0c0,3.38,5.07,7.29,10,11.08,4.31,3.32,8.77,6.76,11.88,11.15s4.19,9.84,5.33,15.25c1.3,6.17,2.64,12.55,6.4,15.23,2.42,1.73,7.93,1.42,13.27,1.12,6.62-.37,14.12-.79,20.52,2.19,5.66,2.64,9.54,8.11,13.29,13.4,3.38,4.76,6.87,9.68,10.72,10.92,3.09,1,8.35-.73,13.44-2.4,6.39-2.09,13.63-4.47,20.57-2.94,6.44,1.42,11.51,6.22,16.41,10.86,4.11,3.89,8.37,7.92,12.16,8.44,3.33.46,8.29-2.11,13.08-4.59,6.25-3.25,12.72-6.6,19.76-6.13,6.72.45,12.51,4.53,18.11,8.48,4.57,3.22,9.29,6.55,13,6.55s8.44-3.33,13-6.55c5.6-3.95,11.39-8,18.11-8.48,7-.47,13.5,2.89,19.76,6.13,4.79,2.48,9.74,5.05,13.08,4.59,3.79-.52,8-4.55,12.16-8.44,4.9-4.64,10-9.44,16.41-10.86,6.93-1.53,14.18.85,20.56,2.94,5.09,1.67,10.35,3.39,13.43,2.4,3.86-1.24,7.35-6.16,10.72-10.92,3.75-5.29,7.63-10.76,13.29-13.39,6.4-3,13.9-2.56,20.52-2.19,5.34.3,10.85.61,13.27-1.12,3.75-2.68,5.1-9.06,6.4-15.23,1.14-5.41,2.32-11,5.33-15.25s7.58-7.82,11.88-11.15c4.91-3.78,10-7.7,10-11.08a6,6,0,1,1,12,0c0,9.28-7.79,15.29-14.65,20.58-3.61,2.79-7.35,5.67-9.43,8.6-1.57,2.2-2.48,6.56-3.37,10.77-1.69,8-3.61,17.12-11.16,22.52-5.85,4.19-13.51,3.76-20.92,3.34-5.46-.31-11.11-.62-14.78,1.08-2.78,1.29-5.73,5.45-8.57,9.46-4.3,6.06-9.18,12.93-16.83,15.4-6.79,2.19-13.94-.15-20.85-2.42-5.17-1.7-10.51-3.45-14.24-2.62-3.19.7-7,4.34-10.75,7.85-5.23,5-11.16,10.56-18.76,11.61-7.12,1-13.79-2.48-20.25-5.83-4.79-2.48-9.76-5.06-13.43-4.81-3.36.22-7.75,3.32-12,6.31C302.5,398.66,295.91,403.31,288.39,403.31Z"/>
			<path class="elecls-3" d="M288.39,357.31c-7.52,0-14.11-4.64-19.92-8.74-4.25-3-8.64-6.09-12-6.31-3.7-.24-8.65,2.32-13.44,4.81-6.45,3.35-13.13,6.81-20.25,5.83-7.6-1.05-13.53-6.66-18.76-11.61-3.72-3.52-7.56-7.15-10.74-7.85-3.73-.82-9.08.93-14.25,2.62-6.91,2.26-14.06,4.61-20.85,2.42-7.65-2.47-12.53-9.34-16.83-15.4-2.85-4-5.79-8.16-8.57-9.46-3.67-1.71-9.32-1.39-14.78-1.08-7.41.42-15.07.85-20.92-3.34-7.55-5.4-9.47-14.49-11.16-22.52-.89-4.21-1.8-8.57-3.37-10.77-2.08-2.93-5.82-5.81-9.43-8.6C66.25,262,58.47,256,58.47,246.72a6,6,0,0,1,12,0c0,3.38,5.07,7.29,10,11.08,4.31,3.32,8.77,6.76,11.88,11.15s4.19,9.84,5.33,15.25c1.3,6.17,2.64,12.55,6.4,15.23,2.42,1.73,7.93,1.42,13.27,1.12,6.62-.37,14.12-.79,20.52,2.19,5.66,2.64,9.54,8.11,13.29,13.4,3.38,4.76,6.87,9.68,10.72,10.92,3.09,1,8.35-.73,13.44-2.4,6.39-2.09,13.63-4.47,20.57-2.94,6.44,1.42,11.51,6.22,16.41,10.86,4.11,3.89,8.37,7.92,12.16,8.44,3.33.46,8.29-2.11,13.08-4.59,6.25-3.25,12.72-6.6,19.76-6.13,6.72.45,12.51,4.53,18.11,8.48,4.57,3.22,9.29,6.55,13,6.55s8.44-3.33,13-6.55c5.6-3.95,11.39-8,18.11-8.48,7-.47,13.5,2.89,19.76,6.13,4.79,2.48,9.74,5.05,13.08,4.59,3.79-.52,8-4.55,12.16-8.44,4.9-4.64,10-9.44,16.41-10.86,6.93-1.53,14.18.85,20.56,2.94,5.09,1.67,10.35,3.39,13.43,2.4,3.86-1.24,7.35-6.16,10.72-10.92,3.75-5.29,7.63-10.76,13.29-13.39,6.4-3,13.9-2.56,20.52-2.19,5.34.3,10.85.61,13.27-1.12,3.75-2.68,5.1-9.06,6.4-15.23,1.14-5.41,2.32-11,5.33-15.25s7.58-7.82,11.88-11.15c4.91-3.78,10-7.7,10-11.08a6,6,0,1,1,12,0c0,9.28-7.79,15.29-14.65,20.58-3.61,2.79-7.35,5.67-9.43,8.6-1.57,2.2-2.48,6.56-3.37,10.77-1.69,8-3.61,17.12-11.16,22.52-5.85,4.19-13.51,3.76-20.92,3.34-5.46-.31-11.11-.62-14.78,1.08-2.78,1.29-5.73,5.45-8.57,9.46-4.3,6.06-9.18,12.93-16.83,15.4-6.79,2.19-13.94-.15-20.85-2.42-5.17-1.7-10.51-3.45-14.24-2.62-3.19.7-7,4.34-10.75,7.85-5.23,5-11.16,10.56-18.76,11.61-7.12,1-13.79-2.48-20.25-5.83-4.79-2.48-9.76-5.06-13.43-4.81-3.36.22-7.75,3.32-12,6.31C302.5,352.66,295.91,357.31,288.39,357.31Z"/>
			<path class="elecls-3" d="M288.39,309.31c-7.52,0-14.11-4.64-19.92-8.74-4.25-3-8.64-6.09-12-6.31-3.7-.24-8.65,2.33-13.44,4.81-6.45,3.35-13.13,6.81-20.25,5.83-7.6-1.05-13.53-6.66-18.76-11.61-3.72-3.52-7.56-7.15-10.74-7.85-3.73-.82-9.08.93-14.25,2.62-6.91,2.26-14.06,4.61-20.85,2.42-7.65-2.47-12.53-9.34-16.83-15.4-2.85-4-5.79-8.16-8.57-9.46-3.67-1.71-9.32-1.39-14.78-1.08-7.41.42-15.07.85-20.92-3.34-7.55-5.4-9.47-14.49-11.16-22.52-.89-4.21-1.8-8.57-3.37-10.77-2.08-2.93-5.82-5.81-9.43-8.6C66.25,214,58.47,208,58.47,198.72a6,6,0,0,1,12,0c0,3.38,5.07,7.29,10,11.08,4.31,3.32,8.77,6.76,11.88,11.15s4.19,9.84,5.33,15.25c1.3,6.17,2.64,12.55,6.4,15.23,2.42,1.73,7.93,1.42,13.27,1.12,6.62-.37,14.12-.79,20.52,2.19,5.66,2.64,9.54,8.11,13.29,13.4,3.38,4.76,6.87,9.68,10.72,10.92,3.09,1,8.35-.73,13.44-2.4,6.39-2.09,13.63-4.47,20.57-2.94,6.44,1.42,11.51,6.22,16.41,10.86,4.11,3.89,8.37,7.92,12.16,8.44,3.33.46,8.29-2.11,13.08-4.59,6.25-3.25,12.72-6.6,19.76-6.13,6.72.45,12.51,4.53,18.11,8.48,4.57,3.22,9.29,6.55,13,6.55s8.44-3.33,13-6.55c5.6-3.95,11.39-8,18.11-8.48,7-.46,13.5,2.89,19.76,6.13,4.79,2.48,9.74,5.05,13.08,4.59,3.79-.52,8-4.55,12.16-8.44,4.9-4.64,10-9.44,16.41-10.86,6.93-1.53,14.18.85,20.56,2.94,5.09,1.67,10.35,3.39,13.43,2.4,3.86-1.24,7.35-6.16,10.72-10.92,3.75-5.29,7.63-10.76,13.29-13.39,6.4-3,13.9-2.56,20.52-2.19,5.34.3,10.85.61,13.27-1.12,3.75-2.68,5.1-9.06,6.4-15.23,1.14-5.41,2.32-11,5.33-15.25s7.58-7.82,11.88-11.15c4.91-3.78,10-7.7,10-11.08a6,6,0,1,1,12,0c0,9.28-7.79,15.29-14.65,20.58-3.61,2.79-7.35,5.67-9.43,8.6-1.57,2.2-2.48,6.56-3.37,10.77-1.69,8-3.61,17.12-11.16,22.52-5.85,4.19-13.51,3.76-20.92,3.34-5.46-.31-11.11-.63-14.78,1.08-2.78,1.29-5.73,5.45-8.57,9.46-4.3,6.06-9.18,12.93-16.83,15.4-6.79,2.19-13.94-.15-20.85-2.42-5.17-1.7-10.51-3.45-14.24-2.62-3.19.7-7,4.34-10.75,7.85-5.23,5-11.16,10.56-18.76,11.61-7.12,1-13.79-2.48-20.25-5.83-4.79-2.48-9.76-5.06-13.43-4.81-3.36.22-7.75,3.32-12,6.31C302.5,304.66,295.91,309.31,288.39,309.31Z"/>
			<ellipse class="elecls-4" cx="247.07" cy="110.64" rx="33.82" ry="25.78"/>
			<ellipse cx="254.19" cy="111.54" rx="11.57" ry="8.82"/>
			<ellipse class="elecls-4" cx="327.17" cy="110.64" rx="33.82" ry="25.78"/>
			<ellipse cx="314.71" cy="111.54" rx="11.57" ry="8.82"/>
			<path class="elecls-5" d="M334.07,244.57c-13.49-2.27,2.81-72,7.33-86.8,5.73-27.52-20.54-32.74-49.84-34.27-60-3.14-68.93,24-67,54.88,2,32.75,26.78,95.21,80.46,101.62,20,2.39,37.38-2.29,55.54-11.84a63.86,63.86,0,0,0,25.83-24.85c-6.06-3-15.54-7.39-23.79-9.86C353,242.48,343.53,247.92,334.07,244.57Z"/>
			<path class="elecls-6" d="M384.82,230.89c5.82,3.26,5.92,9.26.21,13.39s-15.05,4.84-20.88,1.58-5.92-9.26-.21-13.39S379,227.63,384.82,230.89Z"/>
			<path class="elecls-7" d="M370.42,240.38c1.53.86,2.24,1.94,1.58,2.42s-2.44.17-4-.69-2.24-1.94-1.58-2.42S368.89,239.52,370.42,240.38Z"/>
			<path class="elecls-7" d="M380,233.44c1.53.86,2.24,1.94,1.58,2.42s-2.44.17-4-.69-2.24-1.94-1.58-2.42S378.47,232.58,380,233.44Z"/>
			<path class="elecls-7" d="M345.31,247.35a5.23,5.23,0,0,0,.38,4.34,3,3,0,0,0,4.1,1.08,3.06,3.06,0,0,0,1.08-4.1,2.06,2.06,0,0,1-.14-.28l.3.72a3,3,0,0,1-.12-.45l.11.8a2.91,2.91,0,0,1,0-.64l-.11.8a3.49,3.49,0,0,1,.18-.66,3,3,0,0,0-.3-2.31,3,3,0,0,0-4.1-1.08,3.44,3.44,0,0,0-1.38,1.79Z"/>
			<path class="elecls-7" d="M330.93,246.49a10.92,10.92,0,0,0-6.21,4.18c-1.88,2.31-3.3,5-1.76,7.88,1.81,3.41,7,.38,5.18-3,.28.52.12.42.51-.16a11.72,11.72,0,0,1,1.24-1.51,4.6,4.6,0,0,1,2.64-1.58,3,3,0,0,0,2.1-3.69,3.06,3.06,0,0,0-3.69-2.09Z"/>
			<path class="elecls-7" d="M322.32,237c-6.5-.63-14.33,2.23-20.27,4.59a39.23,39.23,0,0,0-14.25,9.28c-2.65,2.8,1.58,7.06,4.24,4.24a34,34,0,0,1,13.28-8.37c5-1.81,11.61-4.26,17-3.74,3.84.38,3.81-5.63,0-6Z"/>
			<path class="elecls-7" d="M320.68,221.14c-10.06-.91-21.21,2.31-30.69,5.35-8.94,2.87-18,6.52-25.65,12-3.12,2.22-.13,7.42,3,5.18,7.3-5.19,15.73-8.65,24.21-11.38,9-2.9,19.53-6,29.1-5.14,3.84.35,3.82-5.66,0-6Z"/>
			<path class="elecls-7" d="M324.15,204.08c-24-4.76-51-.59-71.68,12.79-3.23,2.09-.23,7.29,3,5.18,19.26-12.49,44.6-16.64,67.06-12.18,3.77.75,5.39-5,1.6-5.79Z"/>
			<path class="elecls-7" d="M330.61,181.16c-11.41-10-29.21-10-43.4-8.22-14.43,1.79-31.26,5.81-42.11,16.19-2.8,2.67,1.45,6.91,4.24,4.24,9.63-9.21,25.06-12.79,37.86-14.43,12.29-1.58,29.15-2.31,39.16,6.46,2.89,2.53,7.15-1.69,4.24-4.24Z"/>
			<path class="elecls-7" d="M336.64,158.17c-10.21-13.46-32.2-13.78-47.4-11.69-16.95,2.33-34.8,7.74-49.64,16.31-3.34,1.93-.32,7.12,3,5.18,13.45-7.77,29.26-12.42,44.5-15.12a83.89,83.89,0,0,1,21.71-.76c7.8.67,17.57,2.45,22.62,9.11,2.3,3,7.52,0,5.18-3Z"/>
			<path class="elecls-7" d="M80.08,237.75c-7.66-2.89-12.61-10.77-13.95-22.17l-.62-5.26c-2.76-23.55,10.93-55,30.52-70.09L122.23,120c3.66-2.83,7.31-3.77,10.27-2.65s4.87,4.16,5.39,8.56l3.69,31.47c2.76,23.55-10.93,55-30.52,70.09l-4.37,3.37C97.18,238.21,87.74,240.64,80.08,237.75Z"/>
			<path class="elecls-5" d="M72.08,235.75c-7.66-2.89-12.61-10.77-13.95-22.17l-.62-5.26c-2.76-23.55,10.93-55,30.52-70.09L114.23,118c3.66-2.83,7.31-3.77,10.27-2.65s4.87,4.16,5.39,8.56l3.69,31.47c2.76,23.55-10.93,55-30.52,70.09l-4.37,3.37C89.18,236.21,79.74,238.64,72.08,235.75Z"/>
			<path class="elecls-7" d="M475.41,230.89,471,227.52c-19.59-15.1-33.28-46.54-30.52-70.09L444.21,126c.52-4.4,2.43-7.45,5.38-8.56s6.6-.18,10.27,2.65L486,140.23c19.59,15.1,33.28,46.54,30.52,70.09l-.62,5.26c-1.34,11.41-6.29,19.28-13.95,22.17S484.9,238.21,475.41,230.89Z"/>
			<path class="elecls-5" d="M483.41,228.89,479,225.52c-19.59-15.1-33.28-46.54-30.52-70.09L452.21,124c.52-4.4,2.43-7.45,5.38-8.56s6.6-.18,10.27,2.65L494,138.23c19.59,15.1,33.28,46.54,30.52,70.09l-.62,5.26c-1.34,11.41-6.29,19.28-13.95,22.17S492.9,236.21,483.41,228.89Z"/>
			<rect class="elecls-8" width="576" height="602"/>
		</g>
	</g>
</svg>