<svg xmlns="http://www.w3.org/2000/svg" xmlns:xlink="http://www.w3.org/1999/xlink" viewBox="0 0 582.06 608.31">
	<defs>
		<style>
			.festcls-1,.festcls-4{fill:none;}
			.festcls-2{fill:#f8d675;}
			.festcls-3{clip-path:url(#clip-path);}
			.festcls-4{stroke:#e7be58;stroke-miterlimit:10;}
			.festcls-5{fill:#e7be58;}
			.colorcls-1{fill:#ff0;}
			.colorcls-2{fill:#fcf8a9;}
		</style>
		
	</defs>
	<title>
		Recurso 205
	</title>
	<g id="Capa_2" data-name="Capa 2">
		<g id="Capa_4" data-name="Capa 4">
			<clipPath id="clip-path">
				<circle class="festcls-1" cx="450.34" cy="135.77" r="94.66" transform="translate(35.9 358.2) rotate(-45)"/>
			</clipPath>
			<path class="festcls-2" d="M450.34,41.11A94.66,94.66,0,1,0,545,135.77,94.66,94.66,0,0,0,450.34,41.11Zm-38.47,102.1a12,12,0,1,1,0-16.92A12,12,0,0,1,411.87,143.21ZM441.1,80.12a12,12,0,1,1,0,16.92A12,12,0,0,1,441.1,80.12Zm18.46,111.29a12,12,0,1,1,0-16.92A12,12,0,0,1,459.57,191.42Zm46.16-46.16a12,12,0,1,1,0-16.92A12,12,0,0,1,505.73,145.26Z"/>
			<g class="festcls-3">
				<path class="festcls-4" d="M444.8.37C458.9,13,454.89,17.48,469,30.12s18.1,8.18,32.19,20.82,10.09,17.11,24.18,29.75,18.1,8.18,32.19,20.82,10.09,17.11,24.18,29.75"/>
				<path class="festcls-4" d="M420.29,28.16c14.09,12.64,10.08,17.11,24.18,29.75s18.1,8.18,32.19,20.82,10.09,17.11,24.18,29.75,18.1,8.18,32.19,20.82,10.09,17.11,24.18,29.75"/>
				<path class="festcls-4" d="M395.77,58.94C409.86,71.58,405.86,76,419.95,88.69s18.1,8.18,32.19,20.82,10.09,17.11,24.18,29.75,18.1,8.18,32.19,20.82,10.09,17.11,24.18,29.75"/>
				<path class="festcls-4" d="M371.26,80.73c14.09,12.64,10.08,17.11,24.18,29.75s18.1,8.18,32.19,20.82S437.71,148.4,451.8,161s18.1,8.18,32.19,20.82,10.09,17.11,24.18,29.75"/>
				<path class="festcls-4" d="M346.74,111.51c14.09,12.64,10.08,17.11,24.18,29.75s18.1,8.18,32.19,20.82,10.09,17.11,24.18,29.75,18.1,8.18,32.19,20.82,10.09,17.11,24.18,29.75"/>
				<path class="festcls-4" d="M322.23,139.29c14.09,12.64,10.08,17.11,24.18,29.75s18.1,8.18,32.19,20.82,10.09,17.11,24.18,29.75,18.1,8.18,32.19,20.82,10.09,17.11,24.18,29.75"/>
			</g>
			<path class="festcls-5" d="M449.57,103.05a14.47,14.47,0,1,1,10.23-4.24A14.37,14.37,0,0,1,449.57,103.05Zm0-23.94a9.47,9.47,0,1,0,6.69,2.77A9.41,9.41,0,0,0,449.57,79.12Z"/>
			<path class="festcls-5" d="M497.26,151.26A14.46,14.46,0,1,1,507.49,147h0A14.42,14.42,0,0,1,497.26,151.26Zm0-23.92A9.46,9.46,0,1,0,504,130.1,9.44,9.44,0,0,0,497.26,127.33Z"/>
			<path class="festcls-5" d="M403.41,149.21A14.46,14.46,0,1,1,413.64,145h0A14.42,14.42,0,0,1,403.41,149.21Zm0-23.93a9.47,9.47,0,1,0,6.69,2.77A9.41,9.41,0,0,0,403.41,125.28Z"/>
			<path class="festcls-5" d="M451.1,197.42a14.47,14.47,0,1,1,10.23-4.24h0A14.37,14.37,0,0,1,451.1,197.42Zm0-23.94a9.47,9.47,0,1,0,6.69,16.16h0a9.47,9.47,0,0,0-6.69-16.16Z"/>
		</g>
		<g id="Capa_3" data-name="Capa 3">
			<path class="colorcls-1" d="M504.27,298.44c0,100-95.9,77.22-214.19,77.22S75.89,398.44,75.89,298.44s95.9-181.07,214.19-181.07S504.27,198.44,504.27,298.44Z"/>
			<path class="colorcls-2" d="M333.3,162.11l-75.74,6c-33.58,2.65-63.56-16.47-67-42.73l-1.52-11.77c-3.4-26.25,68.08-97.74,101.67-100.39l28.73,42.07c33.58-2.65,63.56,16.47,67,42.73L388,109.77C391.35,136,366.88,159.46,333.3,162.11Z"/>
			<path class="colorcls-1" d="M414.5,221.28l-238.15,21.5c-33.58,3-63.56-18.81-67-48.79l-1.52-13.44c-3.4-30,21.07-56.73,54.66-59.76L400.68,99.3c33.58-3,63.56,18.81,67,48.79l1.52,13.44C472.56,191.5,448.09,218.25,414.5,221.28Z"/>
			<path class="colorcls-2" d="M456.36,294.19,134.49,323.24c-33.58,3-63.56-18.81-67-48.79L66,261c-3.4-30,21.07-56.73,54.66-59.76L442.54,172.2c33.58-3,63.56,18.81,67,48.79L511,234.43C514.42,264.4,489.95,291.16,456.36,294.19Z"/>
		</g>
		<g id="Capa_1-2" data-name="Capa 1">
			<rect class="festcls-1" y="6.31" width="576" height="602"/>
		</g>
	</g>
</svg>