<svg xmlns="http://www.w3.org/2000/svg" viewBox="0 0 576 602">
	<defs>
		<style>
			.colorcls-1{fill:#ff0;}
			.colorcls-2{fill:#fcf8a9;}
			.flrcls-3{fill:#ff0068;}
			.flrcls-4{fill:#fff;}
			.flrcls-5{fill:none;}
		</style>
	</defs>
	<title>
		Recurso 238
	</title>
	<g id="Capa_2" data-name="Capa 2">
		<g id="Capa_3" data-name="Capa 3">
			<path class="colorcls-1" d="M504.27,292.14c0,100-95.9,77.22-214.19,77.22S75.89,392.14,75.89,292.14s95.9-181.07,214.19-181.07S504.27,192.13,504.27,292.14Z"/>
			<path class="colorcls-2" d="M333.3,155.81l-75.74,6c-33.58,2.65-63.56-16.47-67-42.73l-1.52-11.77C185.68,81,257.16,9.56,290.75,6.9L319.48,49c33.58-2.65,63.56,16.47,67,42.73L388,103.47C391.35,129.72,366.88,153.15,333.3,155.81Z"/>
			<path class="colorcls-1" d="M414.5,215l-238.15,21.5c-33.58,3-63.56-18.81-67-48.79l-1.52-13.44c-3.4-30,21.07-56.73,54.66-59.76L400.68,93c33.58-3,63.56,18.81,67,48.79l1.52,13.44C472.56,185.19,448.09,211.95,414.5,215Z"/>
			<path class="colorcls-2" d="M456.36,287.88,134.49,316.94c-33.58,3-63.56-18.81-67-48.79L66,254.71c-3.4-30,21.07-56.73,54.66-59.76l321.87-29.05c33.58-3,63.56,18.81,67,48.79L511,228.12C514.42,258.09,489.95,284.85,456.36,287.88Z"/>
		</g>
		<g id="Capa_1-2" data-name="Capa 1">
			<path class="flrcls-3" d="M303.07,48.45c0,11.57-2.71,21.68-6.76,27.14-2,2.74-4.39,1.72-6.91,1.72s-4.81,1.07-6.82-1.59c-4.09-5.43-6.85-15.61-6.85-27.26,0-17.37,6.12-31.45,13.67-31.45S303.07,31.08,303.07,48.45Z"/>
			<path class="flrcls-3" d="M275.73,147.55c0-11.57,2.71-21.68,6.76-27.14,2-2.74,4.39-1.72,6.91-1.72s4.81-1.07,6.82,1.59c4.09,5.43,6.85,15.61,6.85,27.26,0,17.37-6.12,31.45-13.67,31.45S275.73,164.92,275.73,147.55Z"/>
			<path class="flrcls-3" d="M360.19,107.56c-16.53,0-31-1.9-38.78-4.73C317.5,101.42,319,99.76,319,98s-1.53-3.37,2.28-4.77c7.76-2.86,22.3-4.79,39-4.79,24.82,0,44.93,4.28,44.93,9.56S385,107.56,360.19,107.56Z"/>
			<path class="flrcls-3" d="M218.61,88.44c16.53,0,31,1.9,38.78,4.73,3.91,1.42,2.45,3.07,2.45,4.84s1.53,3.37-2.28,4.77c-7.76,2.86-22.3,4.79-39,4.79-24.82,0-44.93-4.28-44.93-9.56S193.79,88.44,218.61,88.44Z"/>
			<path class="flrcls-3" d="M336.46,59.77c-8.22,10-17.76,17.86-25.14,21.2-3.7,1.67-5,0-7.21-.92s-4.93-.75-4.78-3.76c.31-6.14,5.15-15.92,13.43-26,12.34-15.07,27.65-25.16,34.2-22.53S348.8,44.7,336.46,59.77Z"/>
			<path class="flrcls-3" d="M242.34,136.23c8.22-10,17.76-17.86,25.14-21.2,3.7-1.67,5,0,7.21.92s4.93.75,4.78,3.76c-.31,6.14-5.15,15.92-13.43,26-12.34,15.07-27.65,25.16-34.2,22.53S230,151.3,242.34,136.23Z"/>
			<path class="flrcls-3" d="M344,130.94c-14.34-5.75-25.52-12.43-30.28-17.6-2.39-2.59.06-3.52,1.31-5s1.07-3.45,5.37-3.35c8.77.22,22.75,3.6,37.2,9.4,21.53,8.64,35.94,19.35,32.19,23.94S365.56,139.58,344,130.94Z"/>
			<path class="flrcls-3" d="M234.77,65.06c14.34,5.75,25.52,12.43,30.28,17.6,2.39,2.59-.06,3.52-1.31,5s-1.07,3.45-5.37,3.35c-8.77-.22-22.75-3.6-37.2-9.4C199.65,73,185.24,62.3,189,57.72S213.24,56.42,234.77,65.06Z"/>
			<path class="flrcls-3" d="M357.75,81.92c-14.39,5.7-28.29,9-37.08,9.25-4.4.11-4.29-1.83-5.54-3.36s-3.7-2.4-1.38-4.94c4.74-5.17,16-11.86,30.53-17.6,21.6-8.55,42.12-11.76,45.84-7.16S379.34,73.37,357.75,81.92Z"/>
			<path class="flrcls-3" d="M221.06,114.08c14.39-5.7,28.29-9,37.08-9.25,4.4-.11,4.29,1.83,5.54,3.36s3.7,2.4,1.38,4.94c-4.74,5.17-16,11.86-30.53,17.6-21.6,8.55-42.12,11.76-45.84,7.16S199.46,122.63,221.06,114.08Z"/>
			<path class="flrcls-3" d="M312.37,145.84c-8.14-10.07-12.89-19.8-13.21-26-.16-3.08,2.61-3,4.81-3.87s3.43-2.59,7.06-1c7.38,3.32,16.94,11.22,25.14,21.37,12.22,15.12,16.8,29.48,10.23,32.08S324.59,161,312.37,145.84Z"/>
			<path class="flrcls-3" d="M266.43,50.16c8.14,10.07,12.89,19.8,13.21,26,.16,3.08-2.61,3-4.81,3.87s-3.43,2.59-7.06,1c-7.38-3.32-16.94-11.22-25.14-21.37-12.22-15.12-16.8-29.48-10.23-32.08S254.21,35,266.43,50.16Z"/>
			<path class="flrcls-4" d="M319.64,95.39c0,13.47-13.59,24.39-30.35,24.39s-30.35-10.92-30.35-24.39S272.53,63,289.29,63,319.64,81.92,319.64,95.39Z"/>
			<rect class="flrcls-5" width="576" height="602"/>
		</g>
	</g>
</svg>