<svg xmlns="http://www.w3.org/2000/svg" viewBox="0 0 576 602"><defs><style>.cls-1{fill:#ff0068;}.cls-2{fill:#fff;}.cls-3{fill:none;}</style></defs><title>Recurso 198</title><g id="Capa_2" data-name="Capa 2"><g id="Capa_1-2" data-name="Capa 1"><path class="cls-1" d="M303.07,48.45c0,11.57-2.71,21.68-6.76,27.14-2,2.74-4.39,1.72-6.91,1.72s-4.81,1.07-6.82-1.59c-4.09-5.43-6.85-15.61-6.85-27.26,0-17.37,6.12-31.45,13.67-31.45S303.07,31.08,303.07,48.45Z"/><path class="cls-1" d="M275.73,147.55c0-11.57,2.71-21.68,6.76-27.14,2-2.74,4.39-1.72,6.91-1.72s4.81-1.07,6.82,1.59c4.09,5.43,6.85,15.61,6.85,27.26,0,17.37-6.12,31.45-13.67,31.45S275.73,164.92,275.73,147.55Z"/><path class="cls-1" d="M360.19,107.56c-16.53,0-31-1.9-38.78-4.73C317.5,101.42,319,99.76,319,98s-1.53-3.37,2.28-4.77c7.76-2.86,22.3-4.79,39-4.79,24.82,0,44.93,4.28,44.93,9.56S385,107.56,360.19,107.56Z"/><path class="cls-1" d="M218.61,88.44c16.53,0,31,1.9,38.78,4.73,3.91,1.42,2.45,3.07,2.45,4.84s1.53,3.37-2.28,4.77c-7.76,2.86-22.3,4.79-39,4.79-24.82,0-44.93-4.28-44.93-9.56S193.79,88.44,218.61,88.44Z"/><path class="cls-1" d="M336.46,59.77c-8.22,10-17.76,17.86-25.14,21.2-3.7,1.67-5,0-7.21-.92s-4.93-.75-4.78-3.76c.31-6.14,5.15-15.92,13.43-26,12.34-15.07,27.65-25.16,34.2-22.53S348.8,44.7,336.46,59.77Z"/><path class="cls-1" d="M242.34,136.23c8.22-10,17.76-17.86,25.14-21.2,3.7-1.67,5,0,7.21.92s4.93.75,4.78,3.76c-.31,6.14-5.15,15.92-13.43,26-12.34,15.07-27.65,25.16-34.2,22.53S230,151.3,242.34,136.23Z"/><path class="cls-1" d="M344,130.94c-14.34-5.75-25.52-12.43-30.28-17.6-2.39-2.59.06-3.52,1.31-5s1.07-3.45,5.37-3.35c8.77.22,22.75,3.6,37.2,9.4,21.53,8.64,35.94,19.35,32.19,23.94S365.56,139.58,344,130.94Z"/><path class="cls-1" d="M234.77,65.06c14.34,5.75,25.52,12.43,30.28,17.6,2.39,2.59-.06,3.52-1.31,5s-1.07,3.45-5.37,3.35c-8.77-.22-22.75-3.6-37.2-9.4C199.65,73,185.24,62.3,189,57.72S213.24,56.42,234.77,65.06Z"/><path class="cls-1" d="M357.75,81.92c-14.39,5.7-28.29,9-37.08,9.25-4.4.11-4.29-1.83-5.54-3.36s-3.7-2.4-1.38-4.94c4.74-5.17,16-11.86,30.53-17.6,21.6-8.55,42.12-11.76,45.84-7.16S379.34,73.37,357.75,81.92Z"/><path class="cls-1" d="M221.06,114.08c14.39-5.7,28.29-9,37.08-9.25,4.4-.11,4.29,1.83,5.54,3.36s3.7,2.4,1.38,4.94c-4.74,5.17-16,11.86-30.53,17.6-21.6,8.55-42.12,11.76-45.84,7.16S199.46,122.63,221.06,114.08Z"/><path class="cls-1" d="M312.37,145.84c-8.14-10.07-12.89-19.8-13.21-26-.16-3.08,2.61-3,4.81-3.87s3.43-2.59,7.06-1c7.38,3.32,16.94,11.22,25.14,21.37,12.22,15.12,16.8,29.48,10.23,32.08S324.59,161,312.37,145.84Z"/><path class="cls-1" d="M266.43,50.16c8.14,10.07,12.89,19.8,13.21,26,.16,3.08-2.61,3-4.81,3.87s-3.43,2.59-7.06,1c-7.38-3.32-16.94-11.22-25.14-21.37-12.22-15.12-16.8-29.48-10.23-32.08S254.21,35,266.43,50.16Z"/><path class="cls-2" d="M319.64,95.39c0,13.47-13.59,24.39-30.35,24.39s-30.35-10.92-30.35-24.39S272.53,63,289.29,63,319.64,81.92,319.64,95.39Z"/><rect class="cls-3" width="576" height="602"/></g></g></svg>