<svg xmlns="http://www.w3.org/2000/svg" viewBox="0 0 576 602">
	<defs>
		<style>
			.colorcls-1{fill:#ff0;}
			.colorcls-2{fill:#fcf8a9;}
			.frechocls-3{fill:#c0272d;}
			.frechocls-4{fill:#8bc53f;}
			.frechocls-5{opacity:0.8;}
			.frechocls-6{fill:#fbed21;}
			.frechocls-7{fill:#754c24;}
			.frechocls-8,.frechocls-9{fill:none;}
			.frechocls-8{stroke:#42210b;stroke-linecap:round;stroke-miterlimit:10;}
		</style>
	</defs>
	<title>
		Recurso 211
	</title>
	<g id="Capa_2" data-name="Capa 2">
		<g id="Capa_3" data-name="Capa 3">
			<path class="colorcls-1" d="M504.27,292.14c0,100-95.9,77.22-214.19,77.22S75.89,392.14,75.89,292.14s95.9-181.07,214.19-181.07S504.27,192.13,504.27,292.14Z"/>
			<path class="colorcls-2" d="M333.3,155.81l-75.74,6c-33.58,2.65-63.56-16.47-67-42.73l-1.52-11.77C185.68,81,257.16,9.56,290.75,6.9L319.48,49c33.58-2.65,63.56,16.47,67,42.73L388,103.47C391.35,129.72,366.88,153.15,333.3,155.81Z"/>
			<path class="colorcls-1" d="M414.5,215l-238.15,21.5c-33.58,3-63.56-18.81-67-48.79l-1.52-13.44c-3.4-30,21.07-56.73,54.66-59.76L400.68,93c33.58-3,63.56,18.81,67,48.79l1.52,13.44C472.56,185.19,448.09,211.95,414.5,215Z"/>
			<path class="colorcls-2" d="M456.36,287.88,134.49,316.94c-33.58,3-63.56-18.81-67-48.79L66,254.71c-3.4-30,21.07-56.73,54.66-59.76l321.87-29.05c33.58-3,63.56,18.81,67,48.79L511,228.12C514.42,258.09,489.95,284.85,456.36,287.88Z"/>
		</g>
		<g id="Capa_1-2" data-name="Capa 1">
			<path class="frechocls-3" d="M463.1,124.94c-21.17,25.42-69.42,45-92.67,25.65s-12.72-70.36,8.45-95.78,44.95-15.64,68.21,3.73S484.26,99.52,463.1,124.94Z"/>
			<path class="frechocls-4" d="M495,69c-17.18-13.44-37.49-11.18-37.49-11.18s28.66-15.36,25-20.75c-2.36-3.5-20.54,5.5-31,16.18,8.6-12.26,14.16-31.78,10.29-33.46-6-2.59-15.88,28.37-15.88,28.37s-1.45-20.38-17.78-34.85,10,37.17,9,36.44S422.56,34.3,421.9,39.53c-.56,4.42,13,21.67,18.07,26l0,0,.76.61.74.63,0,0c5.19,4.15,24.62,14.41,28.86,13.06,5-1.6-11.93-12.27-12.82-13.09S512.16,82.47,495,69Z"/>
			<g class="frechocls-5">
				<ellipse class="frechocls-6" cx="426.99" cy="81.38" rx="4.94" ry="2.47" transform="translate(91.21 357.41) rotate(-50.21)"/>
				<ellipse class="frechocls-6" cx="415.52" cy="66.82" rx="4.94" ry="2.47" transform="matrix(0.64, -0.77, 0.77, 0.64, 98.26, 343.36)"/>
				<ellipse class="frechocls-6" cx="400.18" cy="61.2" rx="4.94" ry="2.47" transform="translate(97.06 329.55) rotate(-50.21)"/>
				<ellipse class="frechocls-6" cx="452.6" cy="105.57" rx="4.94" ry="2.47" transform="translate(81.84 385.8) rotate(-50.21)"/>
				<ellipse class="frechocls-6" cx="443.03" cy="90.45" rx="4.94" ry="2.47" transform="translate(90.01 373) rotate(-50.21)"/>
				<ellipse class="frechocls-6" cx="412.92" cy="98.27" rx="4.94" ry="2.47" transform="translate(73.17 352.69) rotate(-50.21)"/>
				<ellipse class="frechocls-6" cx="401.45" cy="83.71" rx="4.94" ry="2.47" transform="translate(80.22 338.63) rotate(-50.21)"/>
				<ellipse class="frechocls-6" cx="386.12" cy="78.09" rx="4.94" ry="2.47" transform="translate(79.02 324.82) rotate(-50.21)"/>
				<ellipse class="frechocls-6" cx="438.54" cy="122.46" rx="4.94" ry="2.47" transform="translate(63.8 381.08) rotate(-50.21)"/>
				<ellipse class="frechocls-6" cx="428.97" cy="107.34" rx="4.94" ry="2.47" transform="translate(71.97 368.28) rotate(-50.21)"/>
				<ellipse class="frechocls-6" cx="398.86" cy="115.16" rx="4.94" ry="2.47" transform="translate(55.12 347.96) rotate(-50.21)"/>
				<ellipse class="frechocls-6" cx="387.39" cy="100.6" rx="4.94" ry="2.47" transform="translate(62.18 333.9) rotate(-50.21)"/>
				<ellipse class="frechocls-6" cx="414.9" cy="124.23" rx="4.94" ry="2.47" transform="translate(53.93 363.55) rotate(-50.21)"/>
				<ellipse class="frechocls-6" cx="385.5" cy="131.2" rx="4.94" ry="2.47" transform="translate(37.99 343.47) rotate(-50.21)"/>
				<ellipse class="frechocls-6" cx="374.03" cy="116.64" rx="4.94" ry="2.47" transform="translate(45.04 329.41) rotate(-50.21)"/>
				<ellipse class="frechocls-6" cx="401.54" cy="140.27" rx="4.94" ry="2.47" transform="translate(36.79 359.06) rotate(-50.21)"/>
				<ellipse class="frechocls-6" cx="373.46" cy="97.58" rx="4.94" ry="2.47" transform="translate(133.25 399.73) rotate(-66.16)"/>
				<ellipse class="frechocls-6" cx="422.08" cy="138.79" rx="4.94" ry="2.47" transform="translate(11.4 308.37) rotate(-40.64)"/>
			</g>
			<path class="frechocls-7" d="M378.88,54.81c-21.17,25.42-31.71,76.42-8.45,95.78s71.5-.23,92.67-25.65a51.39,51.39,0,0,0,7-10.72c-.67-4.85-3.7-10.77-13.1-15.22-19-9-42,12-46-5s-5.06-46.28-28-43.64A59.06,59.06,0,0,0,378.88,54.81Z"/>
			<path class="frechocls-8" d="M412,154s-60-42-53-50,75.06,48.7,87,39.35S359,87,364,73s100.6,50.48,106,42c7-11-83-62-82-69"/>
			<rect class="frechocls-9" width="576" height="602"/>
		</g>
	</g>
</svg>