<svg xmlns="http://www.w3.org/2000/svg" viewBox="0 0 576 602">
	<defs>
		<style>
			.gt1cls-1{fill:#ff7bab;}
			.gt1cls-2{opacity:0.3;}
			.gt1cls-3{fill:#ff3960;}
			.gt1cls-4{fill:#fc7292;}
			.gt1cls-5{fill:#fff;}
			.gt1cls-6{fill:#f8f9d2;}
			.gt1cls-7{fill:#c98224;}
			.gt1cls-8{fill:#faaf3b;}
			.gt1cls-9{fill:none;}
		</style>
	</defs>
	<title>
		Recurso 57
	</title>
	<g id="Capa_2" data-name="Capa 2">
		<g id="Capa_1-2" data-name="Capa 1">
			<path d="M176,63.46l61.82,24.31c4.27,1.68,6.75,4.2,6.75,6.86v51.15c0,7.69-18.89,11.71-30.62,6.52L152.16,125c-3.79-1.67-5.94-4-5.94-6.52V70.32C146.21,62.87,164.08,58.76,176,63.46Z"/>
			<path d="M410.79,63.46,349,87.77c-4.27,1.68-6.75,4.2-6.75,6.86v51.15c0,7.69,18.89,11.71,30.62,6.52L434.66,125c3.79-1.67,5.94-4,5.94-6.52V70.32C440.6,62.87,422.73,58.76,410.79,63.46Z"/>
			<path class="gt1cls-1" d="M181.37,75,227.32,93.1c3.17,1.25,5,3.12,5,5.1v38c0,5.71-14,8.71-22.76,4.85l-45.95-20.33c-2.81-1.24-4.42-3-4.42-4.85V80.13C159.21,74.6,172.5,71.54,181.37,75Z"/>
			<path class="gt1cls-1" d="M406.28,74.55,360.33,92.62c-3.17,1.25-5,3.12-5,5.1v38c0,5.72,14,8.71,22.76,4.85L424,120.26c2.81-1.25,4.42-3,4.42-4.85V79.65C428.44,74.11,415.16,71.06,406.28,74.55Z"/>
			<ellipse class="gt1cls-2" cx="287.8" cy="417.68" rx="253.91" ry="122.44"/>
			<path class="gt1cls-3" d="M515.1,406c0,53.9-101.59,97.59-226.92,97.59S61.27,459.9,61.27,406c0-9.07-.79-194-.86-211.4-.33-86.1,233.59-86,233.59-86C323.07,110.59,514.69,111,515.66,198,515.87,217.42,515.1,396.18,515.1,406Z"/>
			<ellipse class="gt1cls-3" cx="288.18" cy="195.07" rx="226.92" ry="111.05"/>
			<path class="gt1cls-4" d="M288.39,508.59c-7.52,0-14.11-4.64-19.92-8.74-4.25-3-8.64-6.09-12-6.31-3.7-.24-8.65,2.32-13.44,4.81-6.45,3.35-13.13,6.81-20.25,5.83-7.6-1.05-13.53-6.66-18.76-11.61-3.72-3.52-7.56-7.15-10.74-7.85-3.73-.82-9.08.93-14.25,2.62-6.91,2.27-14.06,4.61-20.85,2.42-7.65-2.47-12.53-9.34-16.83-15.4-2.85-4-5.79-8.16-8.57-9.46-3.67-1.71-9.32-1.39-14.78-1.08-7.41.42-15.07.85-20.92-3.34C89.53,455.07,87.61,446,85.92,438c-.89-4.21-1.8-8.57-3.37-10.77-2.08-2.93-5.82-5.81-9.43-8.6-6.87-5.3-14.65-11.3-14.65-20.58a6,6,0,0,1,12,0c0,3.38,5.07,7.29,10,11.08,4.31,3.32,8.77,6.76,11.88,11.15s4.19,9.84,5.33,15.25c1.3,6.17,2.64,12.55,6.4,15.23,2.42,1.73,7.93,1.42,13.27,1.12,6.62-.37,14.12-.79,20.52,2.19,5.66,2.64,9.54,8.11,13.29,13.39,3.38,4.76,6.87,9.68,10.72,10.92,3.09,1,8.35-.73,13.44-2.4,6.39-2.09,13.63-4.47,20.57-2.94,6.44,1.42,11.51,6.22,16.41,10.86,4.11,3.89,8.37,7.92,12.16,8.44,3.33.46,8.29-2.11,13.08-4.59,6.25-3.25,12.72-6.6,19.76-6.13,6.72.45,12.51,4.53,18.11,8.48,4.57,3.22,9.29,6.55,13,6.55s8.44-3.33,13-6.55c5.6-3.95,11.39-8,18.11-8.48,7-.47,13.5,2.89,19.76,6.13,4.79,2.48,9.74,5.05,13.08,4.59,3.79-.52,8-4.55,12.16-8.44,4.9-4.64,10-9.44,16.41-10.86,6.93-1.53,14.18.84,20.56,2.94,5.09,1.67,10.35,3.39,13.43,2.4,3.86-1.24,7.35-6.16,10.72-10.92,3.75-5.29,7.63-10.76,13.29-13.39,6.4-3,13.9-2.56,20.52-2.19,5.34.3,10.85.61,13.27-1.12,3.75-2.68,5.1-9.06,6.4-15.23,1.14-5.41,2.32-11,5.33-15.25s7.58-7.82,11.88-11.15c4.91-3.79,10-7.7,10-11.08a6,6,0,0,1,12,0c0,9.28-7.79,15.29-14.65,20.58-3.61,2.79-7.35,5.67-9.43,8.6-1.57,2.21-2.48,6.56-3.37,10.77-1.69,8-3.61,17.12-11.16,22.52-5.85,4.19-13.51,3.76-20.92,3.34-5.46-.31-11.11-.62-14.78,1.08-2.78,1.29-5.73,5.45-8.57,9.46-4.3,6.06-9.18,12.93-16.83,15.4-6.79,2.19-13.94-.15-20.85-2.42-5.17-1.69-10.51-3.45-14.24-2.62-3.19.7-7,4.34-10.75,7.85-5.23,4.95-11.16,10.56-18.76,11.61-7.12,1-13.79-2.48-20.25-5.83-4.79-2.49-9.76-5.06-13.43-4.81-3.36.22-7.75,3.32-12,6.31C302.5,504,295.91,508.59,288.39,508.59Z"/>
			<path class="gt1cls-4" d="M288.39,460.59c-7.52,0-14.11-4.64-19.92-8.74-4.25-3-8.64-6.09-12-6.31-3.7-.25-8.65,2.32-13.44,4.81-6.45,3.35-13.13,6.81-20.25,5.83-7.6-1.05-13.53-6.66-18.76-11.61-3.72-3.52-7.56-7.15-10.74-7.85-3.73-.82-9.08.93-14.25,2.62-6.91,2.27-14.06,4.61-20.85,2.42-7.65-2.47-12.53-9.34-16.83-15.4-2.85-4-5.79-8.16-8.57-9.46-3.67-1.71-9.32-1.39-14.78-1.08-7.41.42-15.07.85-20.92-3.34C89.53,407.07,87.61,398,85.92,390c-.89-4.21-1.8-8.57-3.37-10.77-2.08-2.93-5.82-5.81-9.43-8.6-6.87-5.3-14.65-11.3-14.65-20.58a6,6,0,0,1,12,0c0,3.38,5.07,7.29,10,11.08,4.31,3.32,8.77,6.76,11.88,11.15s4.19,9.84,5.33,15.25c1.3,6.17,2.64,12.55,6.4,15.23,2.42,1.73,7.93,1.42,13.27,1.12,6.62-.37,14.12-.79,20.52,2.19,5.66,2.64,9.54,8.11,13.29,13.39,3.38,4.76,6.87,9.68,10.72,10.92,3.09,1,8.35-.73,13.44-2.4,6.39-2.09,13.63-4.47,20.57-2.94,6.44,1.42,11.51,6.22,16.41,10.86,4.11,3.89,8.37,7.92,12.16,8.44,3.33.46,8.29-2.11,13.08-4.59,6.25-3.25,12.72-6.6,19.76-6.13,6.72.45,12.51,4.53,18.11,8.48,4.57,3.22,9.29,6.55,13,6.55s8.44-3.33,13-6.55c5.6-3.95,11.39-8,18.11-8.48,7-.47,13.5,2.89,19.76,6.13,4.79,2.48,9.74,5.05,13.08,4.59,3.79-.52,8-4.55,12.16-8.44,4.9-4.64,10-9.44,16.41-10.86,6.93-1.53,14.18.84,20.56,2.94,5.09,1.67,10.35,3.39,13.43,2.4,3.86-1.24,7.35-6.16,10.72-10.92,3.75-5.29,7.63-10.76,13.29-13.39,6.4-3,13.9-2.56,20.52-2.19,5.34.3,10.85.61,13.27-1.12,3.75-2.68,5.1-9.06,6.4-15.23,1.14-5.41,2.32-11,5.33-15.25s7.58-7.82,11.88-11.15c4.91-3.79,10-7.7,10-11.08a6,6,0,1,1,12,0c0,9.28-7.79,15.29-14.65,20.58-3.61,2.79-7.35,5.67-9.43,8.6-1.57,2.21-2.48,6.56-3.37,10.77-1.69,8-3.61,17.12-11.16,22.52-5.85,4.19-13.51,3.76-20.92,3.34-5.46-.31-11.11-.62-14.78,1.08-2.78,1.29-5.73,5.45-8.57,9.46-4.3,6.06-9.18,12.93-16.83,15.4-6.79,2.19-13.94-.15-20.85-2.42-5.17-1.69-10.51-3.45-14.24-2.62-3.19.7-7,4.34-10.75,7.85-5.23,4.95-11.16,10.56-18.76,11.61-7.12,1-13.79-2.48-20.25-5.83-4.79-2.49-9.76-5.06-13.43-4.81-3.36.22-7.75,3.32-12,6.31C302.5,456,295.91,460.59,288.39,460.59Z"/>
			<path class="gt1cls-4" d="M288.39,414.59c-7.52,0-14.11-4.64-19.92-8.74-4.25-3-8.64-6.09-12-6.31-3.7-.24-8.65,2.32-13.44,4.81-6.45,3.35-13.13,6.81-20.25,5.83-7.6-1.05-13.53-6.66-18.76-11.61-3.72-3.52-7.56-7.15-10.74-7.85-3.73-.82-9.08.93-14.25,2.62-6.91,2.27-14.06,4.61-20.85,2.42-7.65-2.47-12.53-9.34-16.83-15.4-2.85-4-5.79-8.16-8.57-9.46-3.67-1.71-9.32-1.39-14.78-1.08-7.41.42-15.07.85-20.92-3.34C89.53,361.07,87.61,352,85.92,344c-.89-4.21-1.8-8.57-3.37-10.77-2.08-2.93-5.82-5.81-9.43-8.6-6.87-5.3-14.65-11.3-14.65-20.58a6,6,0,0,1,12,0c0,3.38,5.07,7.29,10,11.08,4.31,3.32,8.77,6.76,11.88,11.15s4.19,9.84,5.33,15.25c1.3,6.17,2.64,12.55,6.4,15.23,2.42,1.73,7.93,1.42,13.27,1.12,6.62-.37,14.12-.79,20.52,2.19,5.66,2.64,9.54,8.11,13.29,13.39,3.38,4.76,6.87,9.68,10.72,10.92,3.09,1,8.35-.73,13.44-2.4,6.39-2.09,13.63-4.47,20.57-2.94,6.44,1.42,11.51,6.22,16.41,10.86,4.11,3.89,8.37,7.92,12.16,8.44,3.33.46,8.29-2.11,13.08-4.59,6.25-3.25,12.72-6.6,19.76-6.13,6.72.45,12.51,4.53,18.11,8.48,4.57,3.22,9.29,6.55,13,6.55s8.44-3.33,13-6.55c5.6-3.95,11.39-8,18.11-8.48,7-.47,13.5,2.89,19.76,6.13,4.79,2.48,9.74,5.05,13.08,4.59,3.79-.52,8-4.55,12.16-8.44,4.9-4.64,10-9.44,16.41-10.86,6.93-1.53,14.18.84,20.56,2.94,5.09,1.67,10.35,3.39,13.43,2.4,3.86-1.24,7.35-6.16,10.72-10.92,3.75-5.29,7.63-10.76,13.29-13.39,6.4-3,13.9-2.56,20.52-2.19,5.34.3,10.85.61,13.27-1.12,3.75-2.68,5.1-9.06,6.4-15.23,1.14-5.41,2.32-11,5.33-15.25s7.58-7.82,11.88-11.15c4.91-3.79,10-7.7,10-11.08a6,6,0,1,1,12,0c0,9.28-7.79,15.29-14.65,20.58-3.61,2.79-7.35,5.67-9.43,8.6-1.57,2.21-2.48,6.56-3.37,10.77-1.69,8-3.61,17.12-11.16,22.52-5.85,4.19-13.51,3.76-20.92,3.34-5.46-.31-11.11-.62-14.78,1.08-2.78,1.29-5.73,5.45-8.57,9.46-4.3,6.06-9.18,12.93-16.83,15.4-6.79,2.19-13.94-.15-20.85-2.42-5.17-1.69-10.51-3.45-14.24-2.62-3.19.7-7,4.34-10.75,7.85-5.23,4.95-11.16,10.56-18.76,11.61-7.12,1-13.79-2.48-20.25-5.83-4.79-2.49-9.76-5.06-13.43-4.81-3.36.22-7.75,3.32-12,6.31C302.5,410,295.91,414.59,288.39,414.59Z"/>
			<path class="gt1cls-4" d="M288.39,368.59c-7.52,0-14.11-4.64-19.92-8.74-4.25-3-8.64-6.09-12-6.31-3.7-.24-8.65,2.32-13.44,4.81-6.45,3.35-13.13,6.81-20.25,5.83-7.6-1.05-13.53-6.66-18.76-11.61-3.72-3.52-7.56-7.15-10.74-7.85-3.73-.82-9.08.93-14.25,2.62-6.91,2.27-14.06,4.61-20.85,2.42-7.65-2.47-12.53-9.34-16.83-15.4-2.85-4-5.79-8.16-8.57-9.46-3.67-1.71-9.32-1.39-14.78-1.08-7.41.42-15.07.85-20.92-3.34C89.53,315.07,87.61,306,85.92,298c-.89-4.21-1.8-8.57-3.37-10.77-2.08-2.93-5.82-5.81-9.43-8.6-6.87-5.3-14.65-11.3-14.65-20.58a6,6,0,0,1,12,0c0,3.38,5.07,7.29,10,11.08,4.31,3.32,8.77,6.76,11.88,11.15s4.19,9.84,5.33,15.25c1.3,6.17,2.64,12.55,6.4,15.23,2.42,1.73,7.93,1.42,13.27,1.12,6.62-.37,14.12-.79,20.52,2.19,5.66,2.64,9.54,8.11,13.29,13.39,3.38,4.76,6.87,9.68,10.72,10.92,3.09,1,8.35-.73,13.44-2.4,6.39-2.09,13.63-4.47,20.57-2.94,6.44,1.42,11.51,6.22,16.41,10.86,4.11,3.89,8.37,7.92,12.16,8.44,3.33.46,8.29-2.11,13.08-4.59,6.25-3.25,12.72-6.6,19.76-6.13,6.72.45,12.51,4.53,18.11,8.48,4.57,3.22,9.29,6.55,13,6.55s8.44-3.33,13-6.55c5.6-3.95,11.39-8,18.11-8.48,7-.47,13.5,2.89,19.76,6.13,4.79,2.48,9.74,5.05,13.08,4.59,3.79-.52,8-4.55,12.16-8.44,4.9-4.64,10-9.44,16.41-10.86,6.93-1.53,14.18.84,20.56,2.94,5.09,1.67,10.35,3.39,13.43,2.4,3.86-1.24,7.35-6.16,10.72-10.92,3.75-5.29,7.63-10.76,13.29-13.39,6.4-3,13.9-2.56,20.52-2.19,5.34.3,10.85.61,13.27-1.12,3.75-2.68,5.1-9.06,6.4-15.23,1.14-5.41,2.32-11,5.33-15.25s7.58-7.82,11.88-11.15c4.91-3.79,10-7.7,10-11.08a6,6,0,1,1,12,0c0,9.28-7.79,15.29-14.65,20.58-3.61,2.79-7.35,5.67-9.43,8.6-1.57,2.21-2.48,6.56-3.37,10.77-1.69,8-3.61,17.12-11.16,22.52-5.85,4.19-13.51,3.76-20.92,3.34-5.46-.31-11.11-.62-14.78,1.08-2.78,1.29-5.73,5.45-8.57,9.46-4.3,6.06-9.18,12.93-16.83,15.4-6.79,2.19-13.94-.15-20.85-2.42-5.17-1.69-10.51-3.45-14.24-2.62-3.19.7-7,4.34-10.75,7.85-5.23,4.95-11.16,10.56-18.76,11.61-7.12,1-13.79-2.48-20.25-5.83-4.79-2.49-9.76-5.06-13.43-4.81-3.36.22-7.75,3.32-12,6.31C302.5,364,295.91,368.59,288.39,368.59Z"/>
			<path class="gt1cls-4" d="M288.39,320.59c-7.52,0-14.11-4.64-19.92-8.74-4.25-3-8.64-6.09-12-6.31-3.7-.24-8.65,2.33-13.44,4.81-6.45,3.35-13.13,6.81-20.25,5.83-7.6-1.05-13.53-6.66-18.76-11.61-3.72-3.52-7.56-7.15-10.74-7.85-3.73-.82-9.08.93-14.25,2.62-6.91,2.27-14.06,4.61-20.85,2.42-7.65-2.47-12.53-9.34-16.83-15.4-2.85-4-5.79-8.16-8.57-9.46-3.67-1.71-9.32-1.39-14.78-1.08-7.41.42-15.07.85-20.92-3.34C89.53,267.07,87.61,258,85.92,250c-.89-4.21-1.8-8.57-3.37-10.77-2.08-2.93-5.82-5.81-9.43-8.6-6.87-5.3-14.65-11.3-14.65-20.58a6,6,0,0,1,12,0c0,3.38,5.07,7.29,10,11.08,4.31,3.32,8.77,6.76,11.88,11.15s4.19,9.84,5.33,15.25c1.3,6.17,2.64,12.55,6.4,15.23,2.42,1.73,7.93,1.42,13.27,1.12,6.62-.37,14.12-.79,20.52,2.19,5.66,2.64,9.54,8.11,13.29,13.39,3.38,4.76,6.87,9.68,10.72,10.92,3.09,1,8.35-.73,13.44-2.4,6.39-2.09,13.63-4.47,20.57-2.94,6.44,1.42,11.51,6.22,16.41,10.86,4.11,3.89,8.37,7.92,12.16,8.44,3.33.46,8.29-2.11,13.08-4.59,6.25-3.25,12.72-6.6,19.76-6.13,6.72.45,12.51,4.53,18.11,8.48,4.57,3.22,9.29,6.55,13,6.55s8.44-3.33,13-6.55c5.6-3.95,11.39-8,18.11-8.48,7-.47,13.5,2.89,19.76,6.13,4.79,2.48,9.74,5.05,13.08,4.59,3.79-.52,8-4.55,12.16-8.44,4.9-4.64,10-9.44,16.41-10.86,6.93-1.53,14.18.84,20.56,2.94,5.09,1.67,10.35,3.39,13.43,2.4,3.86-1.24,7.35-6.16,10.72-10.92,3.75-5.29,7.63-10.76,13.29-13.39,6.4-3,13.9-2.56,20.52-2.19,5.34.3,10.85.61,13.27-1.12,3.75-2.68,5.1-9.06,6.4-15.23,1.14-5.41,2.32-11,5.33-15.25s7.58-7.82,11.88-11.15c4.91-3.79,10-7.7,10-11.08a6,6,0,1,1,12,0c0,9.28-7.79,15.29-14.65,20.58-3.61,2.79-7.35,5.67-9.43,8.6-1.57,2.21-2.48,6.56-3.37,10.77-1.69,8-3.61,17.12-11.16,22.52-5.85,4.19-13.51,3.76-20.92,3.34-5.46-.31-11.11-.62-14.78,1.08-2.78,1.29-5.73,5.45-8.57,9.46-4.3,6.06-9.18,12.93-16.83,15.4-6.79,2.19-13.94-.15-20.85-2.42-5.17-1.69-10.51-3.45-14.24-2.62-3.19.7-7,4.34-10.75,7.85-5.23,4.95-11.16,10.56-18.76,11.61-7.12,1-13.79-2.48-20.25-5.83-4.79-2.49-9.76-5.06-13.43-4.81-3.36.22-7.75,3.32-12,6.31C302.5,316,295.91,320.59,288.39,320.59Z"/>
			<path class="gt1cls-5" d="M155.12,157.54a339,339,0,0,1-35.8-6.09c-6.93-1.57-9.89,7.08-3,8.64a339,339,0,0,0,35.8,6.09c3,.35,6-.6,6.87-3.13.75-2.1-.92-5.17-3.9-5.51Z"/>
			<path class="gt1cls-5" d="M146.53,174,111,171.73c-7.14-.45-7.11,8.52,0,9l35.57,2.24c7.14.45,7.11-8.52,0-9Z"/>
			<path class="gt1cls-5" d="M144.48,190c-14.08.94-28.19,2.26-42.36,2.45-9,.12-9,9.09,0,9,14.16-.19,28.28-1.51,42.36-2.45,3.75-.25,7-1.88,7-4.48,0-2.23-3.21-4.73-7-4.48Z"/>
			<path class="gt1cls-5" d="M429.55,157.54A332.69,332.69,0,0,0,465,151.45c6.87-1.57,9.8,7.08,2.94,8.64a332.71,332.71,0,0,1-35.45,6.09c-3,.35-5.91-.6-6.81-3.13-.74-2.1.91-5.17,3.86-5.51Z"/>
			<path class="gt1cls-5" d="M437.59,174l38.27-2.24c7.68-.45,7.64,8.52,0,9l-38.27,2.24c-7.68.45-7.64-8.52,0-9Z"/>
			<path class="gt1cls-5" d="M439.64,190c13.1.94,26.23,2.26,39.41,2.45,8.35.12,8.38,9.09,0,9-13.18-.19-26.31-1.51-39.41-2.45-3.49-.25-6.5-1.88-6.5-4.48,0-2.23,3-4.73,6.5-4.48Z"/>
			<ellipse class="gt1cls-6" cx="254.42" cy="133.77" rx="33.82" ry="25.78"/>
			<ellipse cx="261.54" cy="134.68" rx="11.57" ry="8.82"/>
			<ellipse class="gt1cls-6" cx="334.51" cy="133.77" rx="33.82" ry="25.78"/>
			<ellipse cx="322.05" cy="134.68" rx="11.57" ry="8.82"/>
			<path class="gt1cls-7" d="M352,159.59c-23.68,0-44.91,5.43-59.29,14-14.37-8.58-35.6-14-59.29-14-43.29,0-78.39,18.14-78.39,40.51s35.1,40.51,78.39,40.51c23.68,0,44.91-5.43,59.29-14,14.37,8.58,35.6,14,59.29,14,43.29,0,78.39-18.14,78.39-40.51S395.33,159.59,352,159.59Z"/>
			<path class="gt1cls-8" d="M352,142.59c-23.68,0-44.91,5.43-59.29,14-14.37-8.58-35.6-14-59.29-14-43.29,0-78.39,18.14-78.39,40.51s35.1,40.51,78.39,40.51c23.68,0,44.91-5.43,59.29-14,14.37,8.58,35.6,14,59.29,14,43.29,0,78.39-18.14,78.39-40.51S395.33,142.59,352,142.59Z"/>
			<path class="gt1cls-3" d="M266.37,161.16c4.38-3.12,13.23-7.32,22.93-.56a4.22,4.22,0,0,0,4.54.08c6.24-3.82,16.72-5.91,24.87,0a4.36,4.36,0,0,1,.37,7c-6.5,5.65-19.38,10.43-24.31,12.13a6.16,6.16,0,0,1-4,0c-5.13-1.74-18.89-6.69-24.83-11.75A4.28,4.28,0,0,1,266.37,161.16Z"/>
			<ellipse class="gt1cls-7" cx="204.57" cy="164.55" rx="6.63" ry="3.43"/>
			<ellipse class="gt1cls-7" cx="234.57" cy="180.06" rx="6.63" ry="3.43"/>
			<ellipse class="gt1cls-7" cx="191.57" cy="180.06" rx="6.63" ry="3.43"/>
			<ellipse class="gt1cls-7" cx="218.57" cy="194.01" rx="6.63" ry="3.43"/>
			<ellipse class="gt1cls-7" cx="374.57" cy="164.55" rx="6.63" ry="3.43"/>
			<ellipse class="gt1cls-7" cx="404.57" cy="180.06" rx="6.63" ry="3.43"/>
			<ellipse class="gt1cls-7" cx="361.57" cy="180.06" rx="6.63" ry="3.43"/>
			<ellipse class="gt1cls-7" cx="388.57" cy="194.01" rx="6.63" ry="3.43"/>
			<rect class="gt1cls-9" width="576" height="602"/>
		</g>
	</g>
</svg>