<svg xmlns="http://www.w3.org/2000/svg" viewBox="0 0 576 602">
	<defs>
		<style>
			.colorcls-1{fill:#ff0;}
			.colorcls-2{fill:#fcf8a9;}
			.maricls-3,.maricls-5{fill:#ff83cd;}
			.maricls-4,.maricls-6{fill:none;}
			.maricls-4,.maricls-5{stroke:#fff;stroke-linecap:round;stroke-linejoin:round;}
		</style>
	</defs>
	<title>
		Recurso 242
	</title>
	<g id="Capa_2" data-name="Capa 2">
		<g id="Capa_3" data-name="Capa 3">
			<path class="colorcls-1" d="M504.27,292.14c0,100-95.9,77.22-214.19,77.22S75.89,392.14,75.89,292.14s95.9-181.07,214.19-181.07S504.27,192.13,504.27,292.14Z"/>
			<path class="colorcls-2" d="M333.3,155.81l-75.74,6c-33.58,2.65-63.56-16.47-67-42.73l-1.52-11.77C185.68,81,257.16,9.56,290.75,6.9L319.48,49c33.58-2.65,63.56,16.47,67,42.73L388,103.47C391.35,129.72,366.88,153.15,333.3,155.81Z"/>
			<path class="colorcls-1" d="M414.5,215l-238.15,21.5c-33.58,3-63.56-18.81-67-48.79l-1.52-13.44c-3.4-30,21.07-56.73,54.66-59.76L400.68,93c33.58-3,63.56,18.81,67,48.79l1.52,13.44C472.56,185.19,448.09,211.95,414.5,215Z"/>
			<path class="colorcls-2" d="M456.36,287.88,134.49,316.94c-33.58,3-63.56-18.81-67-48.79L66,254.71c-3.4-30,21.07-56.73,54.66-59.76l321.87-29.05c33.58-3,63.56,18.81,67,48.79L511,228.12C514.42,258.09,489.95,284.85,456.36,287.88Z"/>
		</g>
		<g id="Capa_1-2" data-name="Capa 1">
			<path class="maricls-3" d="M268.13,77.23S179.57,10.48,168.79,21.3s8.38,44.2,8.38,44.2-9.57,19.85-2.39,27.06,37.1,11.73,37.1,11.73S178.37,120.54,183.16,135s14.17,28.33,39.49,25.71c45.78-4.74,45.48-27.06,45.48-27.06Z"/>
			<path class="maricls-4" d="M246.59,79.94s-55.05-42.4-59.84-38.79,7.18,20.75,7.18,24.36-9.57,18.94-1.2,22.55S240.6,99.79,240.6,99.79"/>
			<path class="maricls-4" d="M240.35,115.36s-56.4,6.47-33.58,24.44S249.6,123.29,240.35,115.36Z"/>
			<path class="maricls-3" d="M289.38,77.23s88.56-66.76,99.34-55.93-8.38,44.2-8.38,44.2,9.57,19.85,2.39,27.06-37.1,11.73-37.1,11.73,33.51,16.24,28.72,30.67-14.17,28.33-39.49,25.71c-45.78-4.74-45.48-27.06-45.48-27.06Z"/>
			<path class="maricls-4" d="M310.92,79.94S366,37.54,370.76,41.15s-7.18,20.75-7.18,24.36,9.57,18.94,1.2,22.55S316.9,99.79,316.9,99.79"/>
			<path class="maricls-4" d="M317.16,115.36s56.4,6.47,33.58,24.44S307.9,123.29,317.16,115.36Z"/>
			<rect class="maricls-5" x="267.83" y="70.24" width="21.54" height="74.88" rx="2.14" ry="2.14"/>
			<rect class="maricls-6" width="576" height="602"/>
		</g>
	</g>
</svg>