<svg xmlns="http://www.w3.org/2000/svg" viewBox="0 0 576 602">
	<defs>
		<style>
			.colorcls-1{fill:#ff0;}
			.colorcls-2{fill:#fcf8a9;}
			.minimocls-3{fill:#211915;}
			.minimocls-3,.minimocls-4,.minimocls-5,.minimocls-6{fill-rule:evenodd;}
			.minimocls-4{fill:#ff0068;}
			.minimocls-5{fill:#ffdbab;}
			.minimocls-6{fill:#fff;}
			.minimocls-7{fill:none;}
		</style>
	</defs>
	<title>
		Recurso 239
	</title>
	<g id="Capa_2" data-name="Capa 2">
		<g id="Capa_3" data-name="Capa 3">
			<path class="colorcls-1" d="M504.27,292.14c0,100-95.9,77.22-214.19,77.22S75.89,392.14,75.89,292.14s95.9-181.07,214.19-181.07S504.27,192.13,504.27,292.14Z"/>
			<path class="colorcls-2" d="M333.3,155.81l-75.74,6c-33.58,2.65-63.56-16.47-67-42.73l-1.52-11.77C185.68,81,257.16,9.56,290.75,6.9L319.48,49c33.58-2.65,63.56,16.47,67,42.73L388,103.47C391.35,129.72,366.88,153.15,333.3,155.81Z"/>
			<path class="colorcls-1" d="M414.5,215l-238.15,21.5c-33.58,3-63.56-18.81-67-48.79l-1.52-13.44c-3.4-30,21.07-56.73,54.66-59.76L400.68,93c33.58-3,63.56,18.81,67,48.79l1.52,13.44C472.56,185.19,448.09,211.95,414.5,215Z"/>
			<path class="colorcls-2" d="M456.36,287.88,134.49,316.94c-33.58,3-63.56-18.81-67-48.79L66,254.71c-3.4-30,21.07-56.73,54.66-59.76l321.87-29.05c33.58-3,63.56,18.81,67,48.79L511,228.12C514.42,258.09,489.95,284.85,456.36,287.88Z"/>
		</g>
		<g id="Capa_1-2" data-name="Capa 1">
			<path class="minimocls-3" d="M232.15,15.62c21.47-2.24,33.84,37.14,35.34,48a20.57,20.57,0,0,1,9.7-.59c6.65-18.91,20.18-37.25,45.51-44.12,19-5.42,23.28,2.58,23.91,3.83C350.74,32.68,336.43,54.2,331,63.1c12.1-2.49,38.29,3.7,42.62,29.16s-29.07,34.83-42.29,28.41c5.36,9.47,8.55,21.83,7.06,29.82,10.32,15.72-26.52,41.56-46.09,44.6-17.08,17.18-38.57,6.21-50.27-5.05-43-13.43-40.54-27.3-40.54-27.3-6.12-7.47-8.17-25.08,7.17-45.12-13.44,5.8-50,3.09-44.3-30.33,8.88-32.52,39.53-31.68,47-30.13,2.92-10.89.26-38.86,20.76-41.52Z"/>
			<path class="minimocls-4" d="M266,70a27.29,27.29,0,0,0-21.67-5.46C262,64.18,280.64,80.82,257.06,91c-17.48,7.57-38.59,17.76-50.87,14.13-11.23-3.85-1.6-34.68,12.7-50.39a27.21,27.21,0,0,0-5,4.36c2.17-13.25,1.29-39.12,18.45-41.9S263.77,48.92,266,70Z"/>
			<path class="minimocls-4" d="M344.24,23.37c1.31,3.79-2.1,14.67-6.77,23.78-5.64,10-11.16,19.24-12,24.75,2-2.23,2.63-3.9,4-6,2.47,10.46,17.06,44.89-7.7,42.85a66.52,66.52,0,0,0-37.17-18.13c3.42-2.93,5-10.9,4-16.22,7.1-4.23,16-5.77,24.43-5.85-7.35-2.75-19.68.62-25,4-1-2.86-3.1-6.24-6.53-7.93,12-14.24,39.08-32.21,50.26-45C315.43,34.1,293.41,46.27,279.9,63.87l-1-.45c6.74-17.51,19.42-35.38,44.68-42.87,13.89-3.89,19.61-.25,20.69,2.82Z"/>
			<path class="minimocls-4" d="M286.43,77c0,7.16-2.44,21.78-23.77,13.57,7.56-4.22,10.31-9.56,5.79-18.14.38-2-.24-6.65-.24-6.65,11-4.26,18.19,4.07,18.21,11.23Z"/>
			<path class="minimocls-5" d="M274.13,102.63C294.31,81,328.9,109,316.9,146.19c4.31.27,18-1.24,20.5,8.55,3.83,17.38-34.35,37.44-44,39.12,1.79-2,4-4.08,4.65-5.76-7.71,4.23-12.82,14.91-26.9,13.91-13.24-.94-21.44-7.47-30.5-15.27l.64,1.53c-12.35-3.89-24.31-8.7-33.05-16.94-15.67-15,15.85-19.55,22.16-17.86-11.14-13-12-36.56,2.35-50.2,9-3.48,18.22-7.23,26.88-11,0,0,8.85,2.84,14.51,10.34Z"/>
			<path class="minimocls-3" d="M261.53,109.82a17.26,17.26,0,0,1,2.23.4,37,37,0,0,0,5.73-10.28c.62,4.06-2.45,7.54-4.11,11.13,11.49,9.13,9,27.18,6,30.93a84.44,84.44,0,0,1,10.14-.67c-1-1.26-1.24-3.77-1.23-5-3.15-8.4-2.23-18.17,3.23-24.46a70.41,70.41,0,0,0,2.21-14.26c2.49,3.6.23,12.8.23,12.8l.5-.19a36.68,36.68,0,0,0,8.07-13c.65,3.57-3,10.57-5.69,12.89a4.8,4.8,0,0,1,2.33.71,60.44,60.44,0,0,0,11.72-8.48c-1.19,3.71-7.15,7.45-10.35,9.34,4.8,4.49,7.56,18.95-.51,31.16,3,1,6.14,2.5,7.86,4.39-13.68-7-31.65-4.68-46.21,1.43,1.66-2.08,8.26-4.49,8.26-4.49-2-2.2-3.35-3.58-3.72-5.12-5.67-7.91-5.68-20.41-2.89-25.54a63.76,63.76,0,0,0-2.09-14.15c3.59,4.45,3.54,9.9,3.62,12.21a7,7,0,0,1,2.75-1.54c2.31-2.45,2.7-10.73,2-14.94,2.45,5,1.91,11.73-.1,14.73Z"/>
			<path class="minimocls-6" d="M266.07,113.45c3.78,3.35,9.61,16.46,3.71,28.81l-1.56.28c3-10.58-9.17-15.82-9.95-7a26.38,26.38,0,0,1-1.75-20.41c2.25-4.5,5.75-5.06,9.55-1.69Z"/>
			<path class="minimocls-6" d="M288.37,111.62c7.34.44,9.57,19.06,2.06,30.78a10.44,10.44,0,0,1-1.94-.37c5.72-6.84-3.37-16.63-7.72-8.25-1.61-6.38.19-22.6,7.6-22.16Z"/>
			<path class="minimocls-3" d="M233.85,161.83a35.67,35.67,0,0,0-5.8,2.51c14.08,18,63.25,23.67,86.77-3.33-2.31-1.16-5.07-1.42-7.33-1.79,3.44-1.34,12.83.63,13.61,5.72a14.61,14.61,0,0,0-4.83-3.36c-3.82,5.36-11.31,10.7-17.12,13.28-7.32,9.2-10.4,24.4-27.36,23.82-19.05-.66-22.4-15.38-30.7-23a47.6,47.6,0,0,1-14.5-10.62,58,58,0,0,0-6.7,4.36c2.06-4.06,8.73-7.86,13.94-7.61Z"/>
			<path class="minimocls-3" d="M299.26,154.42c2.7,13.43-37.51,15.25-39.4,3.08-1.33-13.16,36.35-15.67,39.4-3.08Z"/>
			<path class="minimocls-4" d="M274.62,190.77c-.56-.73-2.28-2.53-2.63-2.93,5.2-2.18,11.75-2.55,16.63.05-9.77,16.33-30.55,7.39-35.89-.95,2.4-2.62,10.81-2.61,21.89,3.82Z"/>
			<rect class="minimocls-7" width="576" height="602"/>
		</g>
	</g>
</svg>