<svg xmlns="http://www.w3.org/2000/svg" viewBox="0 0 576 602">
	<defs>
		<style>
			.minijumcls-1{fill:#754c24;}
			.minijumcls-2{fill:#603813;}
			.minijumcls-3,.minijumcls-6{fill:none;}
			.minijumcls-3{stroke:#603813;stroke-miterlimit:10;}
			.colorcls-1{fill:#ff0;}
			.colorcls-2{fill:#fcf8a9;}
		</style>
	</defs>
	<title>
		Recurso 203
	</title>
	<g id="Capa_2" data-name="Capa 2">
		<g id="Capa_4" data-name="Capa 4">
			<rect class="minijumcls-1" x="415.59" y="35.81" width="90.19" height="190.41" rx="3.59" ry="3.59" transform="translate(190.91 -264.73) rotate(39.84)"/>
			<rect class="minijumcls-2" x="460.2" y="61.1" width="63.54" height="64.87" transform="translate(174.16 -293.48) rotate(39.84)"/>
			<rect class="minijumcls-2" x="397.63" y="136.07" width="63.54" height="64.87" transform="translate(207.66 -235.99) rotate(39.84)"/>
			<line class="minijumcls-3" x1="437.3" y1="111.05" x2="484.52" y2="150.45"/>
		</g>
		<g id="Capa_3" data-name="Capa 3">
			<path class="colorcls-1" d="M504.27,292.14c0,100-95.9,77.22-214.19,77.22S75.89,392.14,75.89,292.14s95.9-181.07,214.19-181.07S504.27,192.13,504.27,292.14Z"/>
			<path class="colorcls-2" d="M333.3,155.81l-75.74,6c-33.58,2.65-63.56-16.47-67-42.73l-1.52-11.77C185.68,81,257.16,9.56,290.75,6.9L319.48,49c33.58-2.65,63.56,16.47,67,42.73L388,103.47C391.35,129.72,366.88,153.15,333.3,155.81Z"/>
			<path class="colorcls-1" d="M414.5,215l-238.15,21.5c-33.58,3-63.56-18.81-67-48.79l-1.52-13.44c-3.4-30,21.07-56.73,54.66-59.76L400.68,93c33.58-3,63.56,18.81,67,48.79l1.52,13.44C472.56,185.19,448.09,211.95,414.5,215Z"/>
			<path class="colorcls-2" d="M456.36,287.88,134.49,316.94c-33.58,3-63.56-18.81-67-48.79L66,254.71c-3.4-30,21.07-56.73,54.66-59.76l321.87-29.05c33.58-3,63.56,18.81,67,48.79L511,228.12C514.42,258.09,489.95,284.85,456.36,287.88Z"/>
		</g>
		<g id="Capa_1-2" data-name="Capa 1">
			<rect class="minijumcls-6" width="576" height="602"/>
		</g>
	</g>
</svg>