<svg xmlns="http://www.w3.org/2000/svg" viewBox="0 0 576 602">
	<defs>
		<style>
			.n5cls-1{fill:#664326;}
			.n5cls-2{fill:#fbfbe2;stroke:#c0be98;stroke-miterlimit:10;stroke-width:3.04px;}
			.n5cls-3{fill:#a57c52;}
			.n5cls-4{fill:#c0be98;}
			.n5cls-5{fill:#f6921e;}
			.n5cls-6{fill:none;}
		</style>
	</defs>
	<title>
		Recurso 76
	</title>
	<g id="Capa_2" data-name="Capa 2">
		<g id="Capa_3" data-name="Capa 3">
			<path class="n5cls-1" d="M330.43,251.91c-18,0-34.14,4.12-45.06,10.64-10.92-6.52-27.06-10.64-45.06-10.64-32.9,0-59.57,13.78-59.57,30.78s26.41,30.71,59.09,30.84A32.06,32.06,0,0,0,271.2,339.3h5.65a9.14,9.14,0,0,0,8.41-5.56,9.13,9.13,0,0,0,8.4,5.56h3.2a34.52,34.52,0,0,0,33.32-25.77l.25,0c32.9,0,59.57-13.8,59.57-30.8S363.33,251.91,330.43,251.91Z"/>
			<path class="n5cls-2" d="M248.35,271.8h28.5a9.13,9.13,0,0,1,9.13,9.13v33.16a9.13,9.13,0,0,1-9.13,9.13H271.2a32,32,0,0,1-32-32v-10.3A9.13,9.13,0,0,1,248.35,271.8Z"/>
			<path class="n5cls-2" d="M293.66,271.8h28.5a9.13,9.13,0,0,1,9.13,9.13v7.85a34.44,34.44,0,0,1-34.44,34.44h-3.19a9.13,9.13,0,0,1-9.13-9.13V280.93A9.13,9.13,0,0,1,293.66,271.8Z"/>
			<path class="n5cls-3" d="M330.43,236c-18,0-34.14,4.12-45.06,10.64C274.45,240.07,258.31,236,240.31,236c-32.9,0-59.57,13.78-59.57,30.78s26.67,30.79,59.57,30.79c18,0,34.14-4.13,45.06-10.65,10.92,6.52,27.06,10.65,45.06,10.65,32.9,0,59.57-13.79,59.57-30.79S363.33,236,330.43,236Z"/>
			<path class="n5cls-4" d="M223.4,252.64c0,1.44-2.26,2.61-5,2.61s-5-1.17-5-2.61,2.26-2.6,5-2.6S223.4,251.2,223.4,252.64Z"/>
			<path class="n5cls-4" d="M246.2,264.42c0,1.44-2.26,2.61-5,2.61s-5-1.17-5-2.61,2.26-2.6,5-2.6S246.2,263,246.2,264.42Z"/>
			<path class="n5cls-4" d="M213.52,264.42c0,1.44-2.25,2.61-5,2.61s-5-1.17-5-2.61,2.26-2.6,5-2.6S213.52,263,213.52,264.42Z"/>
			<path class="n5cls-4" d="M234,275c0,1.43-2.26,2.6-5,2.6s-5-1.17-5-2.6,2.26-2.61,5-2.61S234,273.59,234,275Z"/>
			<path class="n5cls-4" d="M352.59,252.64c0,1.44-2.25,2.61-5,2.61s-5-1.17-5-2.61,2.26-2.6,5-2.6S352.59,251.2,352.59,252.64Z"/>
			<path class="n5cls-4" d="M375.39,264.42c0,1.44-2.26,2.61-5,2.61s-5-1.17-5-2.61,2.26-2.6,5-2.6S375.39,263,375.39,264.42Z"/>
			<path class="n5cls-4" d="M342.71,264.42c0,1.44-2.25,2.61-5,2.61s-5-1.17-5-2.61,2.26-2.6,5-2.6S342.71,263,342.71,264.42Z"/>
			<path class="n5cls-4" d="M363.23,275c0,1.43-2.25,2.6-5,2.6s-5-1.17-5-2.6,2.26-2.61,5-2.61S363.23,273.59,363.23,275Z"/>
			<path class="n5cls-5" d="M255.17,233.57c9.13-6.17,33.94-19.14,60.64-.42a4.6,4.6,0,0,1,.33,7.62c-7.52,6.21-22.41,11.47-28.11,13.34a7.45,7.45,0,0,1-4.6,0c-5.94-1.91-21.85-7.36-28.72-12.92C252.07,239.06,252.31,235.5,255.17,233.57Z"/>
			<rect class="n5cls-6" width="576" height="602"/>
		</g>
	</g>
</svg>