<svg xmlns="http://www.w3.org/2000/svg" viewBox="0 0 576 602">
	<defs>
		<style>
			.n4cls-1{fill:none;}
			.n4cls-2{fill:#563318;}
			.n4cls-3{fill:#7a4c26;}
		</style>
	</defs>
	<title>
		Recurso 57
	</title>
	<g id="Capa_2" data-name="Capa 2">
		<g id="Capa_3" data-name="Capa 3">
			<rect class="n4cls-1" width="576" height="602"/>
			<path class="n4cls-2" d="M348.72,335H213a42.3,42.3,0,0,1-42.3-42.3h0a42.3,42.3,0,0,1,42.3-42.3H348.72a42.3,42.3,0,0,1,42.3,42.3h0A42.3,42.3,0,0,1,348.72,335Z"/>
			<path class="n4cls-3" d="M348.72,315.93H213a42.3,42.3,0,0,1-42.3-42.3h0a42.3,42.3,0,0,1,42.3-42.3H348.72a42.3,42.3,0,0,1,42.3,42.3h0A42.3,42.3,0,0,1,348.72,315.93Z"/>
			<ellipse class="n4cls-2" cx="237.67" cy="265.49" rx="24.54" ry="16.36"/>
			<ellipse class="n4cls-2" cx="324.04" cy="265.49" rx="24.54" ry="16.36"/>
		</g>
	</g>
</svg>