<svg xmlns="http://www.w3.org/2000/svg" viewBox="0 0 576 602">
	<defs>
		<style>
			.n7cls-1{fill:#c0be98;}
			.n7cls-2{fill:#fbfbe2;stroke:#c0be98;stroke-miterlimit:10;stroke-width:3.04px;}
			.n7cls-3{fill:#ff7bab;}
			.n7cls-4{fill:none;}
		</style>
	</defs>
	<title>
		Recurso 102
	</title>
	<g id="Capa_2" data-name="Capa 2">
		<g id="Capa_3" data-name="Capa 3">
			<path class="n7cls-1" d="M326.25,210.11c-18,0-34.11,4.12-45,10.64-10.91-6.52-27-10.64-45-10.64-32.88,0-59.54,13.78-59.54,30.77s26.82,30.76,59.7,30.76a122.61,122.61,0,0,0,13.38-.76v2.35a8.78,8.78,0,0,0,8.81,9h13.88a9.14,9.14,0,0,0,8.63-6.18,9.13,9.13,0,0,0,8.63,6.18h13.87a9.13,9.13,0,0,0,9.22-9v-2.4a114.09,114.09,0,0,0,13.51.81c32.88,0,59.51-13.77,59.51-30.76S359.13,210.11,326.25,210.11Zm-45.19,52.63a9.73,9.73,0,0,0-.57-1.32l.73-.42c.16.1.33.18.48.28A9.09,9.09,0,0,0,281.06,262.74Z"/>
			<rect class="n7cls-2" x="249.37" y="243.62" width="32.11" height="25.77" rx="9.12" ry="9.12"/>
			<rect class="n7cls-2" x="280.48" y="243.62" width="32.11" height="25.77" rx="9.12" ry="9.12"/>
			<path class="n7cls-2" d="M326.14,197.2c-18,0-34.09,4.12-45,10.63-10.91-6.51-27-10.63-45-10.63-32.85,0-59.49,13.77-59.49,30.74s26.64,30.74,59.49,30.74c18,0,34.09-4.11,45-10.63,10.9,6.52,27,10.63,45,10.63,32.85,0,59.49-13.76,59.49-30.74S359,197.2,326.14,197.2Z"/>
			<path class="n7cls-3" d="M261.13,211.29c3.33-2.36,10-5.55,17.4-.42a3.22,3.22,0,0,0,3.44.06c4.74-2.9,12.69-4.48,18.87,0a3.31,3.31,0,0,1,.28,5.31c-4.93,4.28-14.71,7.91-18.44,9.2a4.7,4.7,0,0,1-3,0c-3.89-1.32-14.33-5.08-18.84-8.92A3.24,3.24,0,0,1,261.13,211.29Z"/>
			<path class="n7cls-1" d="M219.26,213.87c0,1.44-2.25,2.6-5,2.6s-5-1.16-5-2.6,2.25-2.6,5-2.6S219.26,212.44,219.26,213.87Z"/>
			<path class="n7cls-1" d="M242,225.64c0,1.43-2.25,2.6-5,2.6s-5-1.17-5-2.6,2.25-2.6,5-2.6S242,224.2,242,225.64Z"/>
			<path class="n7cls-1" d="M209.4,225.64c0,1.43-2.25,2.6-5,2.6s-5-1.17-5-2.6,2.26-2.6,5-2.6S209.4,224.2,209.4,225.64Z"/>
			<path class="n7cls-1" d="M229.89,236.22c0,1.44-2.25,2.6-5,2.6s-5-1.16-5-2.6,2.26-2.6,5-2.6S229.89,234.79,229.89,236.22Z"/>
			<path class="n7cls-1" d="M348.27,213.87c0,1.44-2.25,2.6-5,2.6s-5-1.16-5-2.6,2.25-2.6,5-2.6S348.27,212.44,348.27,213.87Z"/>
			<path class="n7cls-1" d="M371,225.64c0,1.43-2.25,2.6-5,2.6s-5-1.17-5-2.6,2.26-2.6,5-2.6S371,224.2,371,225.64Z"/>
			<path class="n7cls-1" d="M338.41,225.64c0,1.43-2.25,2.6-5,2.6s-5-1.17-5-2.6,2.26-2.6,5-2.6S338.41,224.2,338.41,225.64Z"/>
			<path class="n7cls-1" d="M358.9,236.22c0,1.44-2.26,2.6-5,2.6s-5-1.16-5-2.6,2.26-2.6,5-2.6S358.9,234.79,358.9,236.22Z"/>
			<rect class="n7cls-4" width="576" height="602"/>
		</g>
	</g>
</svg>