<svg xmlns="http://www.w3.org/2000/svg" viewBox="0 0 576 602">
	<defs>
		<style>
			.n1cls-1{fill:#b5aa7c;}
			.n1cls-2{fill:#e2d9af;}
			.n1cls-3{fill:none;}
		</style>
	</defs>
	<title>
		Recurso 95
	</title>
	<g id="Capa_2" data-name="Capa 2">
		<g id="Capa_3" data-name="Capa 3">
			<path class="n1cls-1" d="M335.08,283.48H221.55a35.39,35.39,0,0,1-35.39-35.38h0a35.39,35.39,0,0,1,35.39-35.38H335.08a35.38,35.38,0,0,1,35.38,35.38h0A35.38,35.38,0,0,1,335.08,283.48Z"/>
			<path class="n1cls-2" d="M335.08,269.56H221.55a35.39,35.39,0,0,1-35.39-35.38h0a35.39,35.39,0,0,1,35.39-35.38H335.08a35.38,35.38,0,0,1,35.38,35.38h0A35.38,35.38,0,0,1,335.08,269.56Z"/>
			<path class="n1cls-1" d="M262.71,225.39c0,7.56-9.19,13.68-20.52,13.68s-20.53-6.12-20.53-13.68,9.19-13.69,20.53-13.69S262.71,217.83,262.71,225.39Z"/>
			<path class="n1cls-1" d="M335,225.39c0,7.56-9.18,13.68-20.52,13.68s-20.52-6.12-20.52-13.68,9.18-13.69,20.52-13.69S335,217.83,335,225.39Z"/>
			<rect class="n1cls-3" width="576" height="602"/>
		</g>
	</g>
</svg>