<svg xmlns="http://www.w3.org/2000/svg" viewBox="0 0 576 602">
	<defs>
		<style>
			.n7cls-1{fill:#664326;}
			.n7cls-2{fill:#fbfbe2;stroke:#c0be98;stroke-miterlimit:10;stroke-width:3.99px;}
			.n7cls-3{fill:#a57c52;}
			.n7cls-4{fill:#c0be98;}
			.n7cls-5{fill:#f6921e;}
			.n7cls-6{fill:none;}
		</style>
	</defs>
	<title>
		Recurso 31
	</title>
	<g id="Capa_2" data-name="Capa 2">
		<g id="Capa_3" data-name="Capa 3">
			<path class="n7cls-1" d="M343.14,290.94c-23.61,0-44.78,5.41-59.12,14-14.33-8.56-35.5-14-59.11-14-43.17,0-78.17,18.08-78.17,40.39s34.66,40.29,77.53,40.46a42.06,42.06,0,0,0,41.17,33.82h7.4a12,12,0,0,0,11-7.31,12,12,0,0,0,11,7.31h4.19a45.3,45.3,0,0,0,43.72-33.81c.11,0,.21,0,.32,0,43.17,0,78.17-18.1,78.17-40.41S386.31,290.94,343.14,290.94Z"/>
			<path class="n7cls-2" d="M235.44,317h37.4a12,12,0,0,1,12,12v43.51a12,12,0,0,1-12,12h-7.4a42,42,0,0,1-42-42V329a12,12,0,0,1,12-12Z"/>
			<path class="n7cls-2" d="M294.91,317h37.4a12,12,0,0,1,12,12v10.3a45.19,45.19,0,0,1-45.19,45.19h-4.19a12,12,0,0,1-12-12V329A12,12,0,0,1,294.91,317Z"/>
			<path class="n7cls-3" d="M343.14,270c-23.61,0-44.78,5.41-59.12,14-14.33-8.56-35.5-14-59.11-14-43.17,0-78.17,18.08-78.17,40.39s35,40.39,78.17,40.39c23.61,0,44.78-5.41,59.11-14,14.34,8.55,35.51,14,59.12,14,43.17,0,78.17-18.08,78.17-40.39S386.31,270,343.14,270Z"/>
			<path class="n7cls-4" d="M202.72,291.9c0,1.89-3,3.42-6.62,3.42s-6.61-1.53-6.61-3.42,3-3.42,6.61-3.42S202.72,290,202.72,291.9Z"/>
			<path class="n7cls-4" d="M232.63,307.36c0,1.89-3,3.42-6.61,3.42s-6.62-1.53-6.62-3.42,3-3.42,6.62-3.42S232.63,305.47,232.63,307.36Z"/>
			<path class="n7cls-4" d="M189.75,307.36c0,1.89-3,3.42-6.61,3.42s-6.61-1.53-6.61-3.42,3-3.42,6.61-3.42S189.75,305.47,189.75,307.36Z"/>
			<path class="n7cls-4" d="M216.67,321.27c0,1.89-3,3.42-6.61,3.42s-6.61-1.53-6.61-3.42,3-3.42,6.61-3.42S216.67,319.38,216.67,321.27Z"/>
			<path class="n7cls-4" d="M372.23,291.9c0,1.89-3,3.42-6.62,3.42S359,293.79,359,291.9s3-3.42,6.61-3.42S372.23,290,372.23,291.9Z"/>
			<path class="n7cls-4" d="M402.14,307.36c0,1.89-3,3.42-6.61,3.42s-6.62-1.53-6.62-3.42,3-3.42,6.62-3.42S402.14,305.47,402.14,307.36Z"/>
			<path class="n7cls-4" d="M359.26,307.36c0,1.89-3,3.42-6.61,3.42s-6.61-1.53-6.61-3.42,3-3.42,6.61-3.42S359.26,305.47,359.26,307.36Z"/>
			<path class="n7cls-4" d="M386.19,321.27c0,1.89-3,3.42-6.62,3.42s-6.61-1.53-6.61-3.42,3-3.42,6.61-3.42S386.19,319.38,386.19,321.27Z"/>
			<path class="n7cls-5" d="M244.4,266.87c12-8.09,44.53-25.11,79.57-.55a6,6,0,0,1,.43,10c-9.86,8.15-29.41,15.05-36.89,17.5a9.78,9.78,0,0,1-6,0c-7.8-2.51-28.66-9.66-37.68-16.95C240.33,274.09,240.65,269.41,244.4,266.87Z"/>
			<rect class="n7cls-6" width="576" height="602"/>
		</g>
	</g>
</svg>