<svg xmlns="http://www.w3.org/2000/svg" viewBox="0 0 579.66 602.26">
	<defs>
		<style>
			.n6cls-1{fill:#c0be98;}
			.n6cls-2{fill:#fbfbe2;stroke:#c0be98;stroke-miterlimit:10;stroke-width:2.95px;}
			.n6cls-3{fill:#ff7bab;}
			.n6cls-4{fill:none;}
		</style>
	</defs>
	<title>
		Recurso 65
	</title>
	<g id="Capa_2" data-name="Capa 2">
		<g id="Capa_3" data-name="Capa 3">
			<path class="n6cls-1" d="M331.13,259.93c-17.49,0-33.16,4-43.77,10.34-10.61-6.33-26.28-10.34-43.77-10.34-32,0-57.87,13.39-57.87,29.91s25.91,29.9,57.87,29.9c17.49,0,33.16-4,43.77-10.34,10.61,6.33,26.28,10.34,43.77,10.34,32,0,57.86-13.39,57.86-29.9S363.09,259.93,331.13,259.93Z"/>
			<path class="n6cls-2" d="M331.13,247.38c-17.49,0-33.16,4-43.77,10.34-10.61-6.33-26.28-10.34-43.77-10.34-32,0-57.87,13.39-57.87,29.91s25.91,29.9,57.87,29.9c17.49,0,33.16-4,43.77-10.34,10.61,6.33,26.28,10.34,43.77,10.34,32,0,57.86-13.39,57.86-29.9S363.09,247.38,331.13,247.38Z"/>
			<path class="n6cls-3" d="M267.89,261.09c3.23-2.3,9.76-5.4,16.92-.41a3.14,3.14,0,0,0,3.35.06c4.61-2.82,12.35-4.36,18.36,0a3.22,3.22,0,0,1,.27,5.16c-4.8,4.17-14.31,7.7-17.94,8.95a4.56,4.56,0,0,1-2.92,0c-3.79-1.28-13.95-4.94-18.34-8.67A3.16,3.16,0,0,1,267.89,261.09Z"/>
			<path class="n6cls-1" d="M227.16,263.6c0,1.4-2.19,2.53-4.89,2.53s-4.9-1.13-4.9-2.53,2.19-2.53,4.9-2.53S227.16,262.2,227.16,263.6Z"/>
			<path class="n6cls-1" d="M249.31,275c0,1.4-2.19,2.53-4.9,2.53s-4.89-1.13-4.89-2.53,2.19-2.53,4.89-2.53S249.31,273.64,249.31,275Z"/>
			<path class="n6cls-1" d="M217.57,275c0,1.4-2.19,2.53-4.9,2.53s-4.89-1.13-4.89-2.53,2.19-2.53,4.89-2.53S217.57,273.64,217.57,275Z"/>
			<path class="n6cls-1" d="M237.5,285.34c0,1.4-2.19,2.53-4.9,2.53s-4.89-1.13-4.89-2.53,2.19-2.53,4.89-2.53S237.5,283.94,237.5,285.34Z"/>
			<path class="n6cls-1" d="M352.66,263.6c0,1.4-2.19,2.53-4.9,2.53s-4.89-1.13-4.89-2.53,2.19-2.53,4.89-2.53S352.66,262.2,352.66,263.6Z"/>
			<path class="n6cls-1" d="M374.8,275c0,1.4-2.19,2.53-4.89,2.53S365,276.44,365,275s2.19-2.53,4.9-2.53S374.8,273.64,374.8,275Z"/>
			<path class="n6cls-1" d="M343.06,275c0,1.4-2.19,2.53-4.89,2.53s-4.9-1.13-4.9-2.53,2.19-2.53,4.9-2.53S343.06,273.64,343.06,275Z"/>
			<path class="n6cls-1" d="M363,285.34c0,1.4-2.19,2.53-4.89,2.53s-4.9-1.13-4.9-2.53,2.19-2.53,4.9-2.53S363,283.94,363,285.34Z"/>
			<path d="M185.77,258.42a247.54,247.54,0,0,1-26.43-4.5c-5.12-1.15-7.31,5.23-2.2,6.38a248,248,0,0,0,26.43,4.5c2.22.26,4.41-.44,5.08-2.31a3.32,3.32,0,0,0-2.88-4.07Z"/>
			<path d="M179.42,270.54l-26.26-1.65c-5.27-.33-5.24,6.29,0,6.62l26.26,1.65c5.27.33,5.25-6.29,0-6.62Z"/>
			<path d="M177.91,282.39c-10.39.69-20.81,1.66-31.27,1.81-6.62.09-6.65,6.71,0,6.62,10.46-.15,20.88-1.12,31.27-1.81,2.77-.19,5.16-1.39,5.16-3.31,0-1.65-2.37-3.5-5.16-3.31Z"/>
			<path d="M388.34,258.42a243,243,0,0,0,26.18-4.5c5.06-1.15,7.23,5.23,2.17,6.38a243.22,243.22,0,0,1-26.17,4.5c-2.2.26-4.37-.44-5-2.31a3.31,3.31,0,0,1,2.85-4.07Z"/>
			<path d="M394.28,270.54l28.25-1.65c5.67-.33,5.64,6.29,0,6.62l-28.25,1.65c-5.67.33-5.64-6.29,0-6.62Z"/>
			<path d="M395.8,282.39c9.67.69,19.36,1.66,29.09,1.81,6.17.09,6.19,6.71,0,6.62-9.73-.15-19.42-1.12-29.09-1.81-2.58-.19-4.8-1.39-4.8-3.31,0-1.65,2.2-3.5,4.8-3.31Z"/>
			<rect class="n6cls-4" x="3.66" y="0.26" width="576" height="602"/>
			<rect class="n6cls-4" width="576" height="602"/>
		</g>
	</g>
</svg>