<svg xmlns="http://www.w3.org/2000/svg" viewBox="0 0 579.66 602.26">
	<defs>
		<style>
			.n5cls-1{fill:#c0be98;}
			.n5cls-2{fill:#fbfbe2;stroke:#c0be98;stroke-miterlimit:10;stroke-width:4px;}
			.n5cls-3{fill:#ff7bab;}
			.n5cls-4{fill:none;}
		</style>
	</defs>
	<title>
		Recurso 28
	</title>
	<g id="Capa_2" data-name="Capa 2">
		<g id="Capa_3" data-name="Capa 3">
			<path class="n5cls-1" d="M346.32,282.38c-23.68,0-44.91,5.43-59.29,14-14.37-8.58-35.6-14-59.29-14-43.29,0-78.39,18.14-78.39,40.51s35.1,40.51,78.39,40.51c23.69,0,44.92-5.43,59.29-14,14.38,8.58,35.61,14,59.29,14,43.29,0,78.39-18.14,78.39-40.51S389.61,282.38,346.32,282.38Z"/>
			<path class="n5cls-2" d="M346.32,265.38c-23.68,0-44.91,5.43-59.29,14-14.37-8.58-35.6-14-59.29-14-43.29,0-78.39,18.14-78.39,40.51s35.1,40.51,78.39,40.51c23.69,0,44.92-5.43,59.29-14,14.38,8.58,35.61,14,59.29,14,43.29,0,78.39-18.14,78.39-40.51S389.61,265.38,346.32,265.38Z"/>
			<path class="n5cls-3" d="M260.65,284c4.39-3.11,13.23-7.32,22.93-.56a4.23,4.23,0,0,0,4.54.09c6.24-3.83,16.72-5.91,24.87,0a4.34,4.34,0,0,1,.36,7c-6.5,5.65-19.38,10.43-24.3,12.13a6.17,6.17,0,0,1-4,0c-5.13-1.73-18.89-6.69-24.83-11.75A4.27,4.27,0,0,1,260.65,284Z"/>
			<path class="n5cls-1" d="M205.49,287.35c0,1.89-3,3.43-6.63,3.43s-6.64-1.54-6.64-3.43,3-3.43,6.64-3.43S205.49,285.46,205.49,287.35Z"/>
			<path class="n5cls-1" d="M235.49,302.85c0,1.89-3,3.43-6.63,3.43s-6.64-1.54-6.64-3.43,3-3.43,6.64-3.43S235.49,301,235.49,302.85Z"/><path class="n5cls-1" d="M192.49,302.85c0,1.89-3,3.43-6.63,3.43s-6.64-1.54-6.64-3.43,3-3.43,6.64-3.43S192.49,301,192.49,302.85Z"/><path class="n5cls-1" d="M219.49,316.8c0,1.89-3,3.43-6.63,3.43s-6.64-1.54-6.64-3.43,3-3.42,6.64-3.42S219.49,314.91,219.49,316.8Z"/>
			<path class="n5cls-1" d="M375.49,287.35c0,1.89-3,3.43-6.63,3.43s-6.64-1.54-6.64-3.43,3-3.43,6.64-3.43S375.49,285.46,375.49,287.35Z"/>
			<path class="n5cls-1" d="M405.49,302.85c0,1.89-3,3.43-6.63,3.43s-6.64-1.54-6.64-3.43,3-3.43,6.64-3.43S405.49,301,405.49,302.85Z"/><path class="n5cls-1" d="M362.49,302.85c0,1.89-3,3.43-6.63,3.43s-6.64-1.54-6.64-3.43,3-3.43,6.64-3.43S362.49,301,362.49,302.85Z"/><path class="n5cls-1" d="M389.49,316.8c0,1.89-3,3.43-6.63,3.43s-6.64-1.54-6.64-3.43,3-3.42,6.64-3.42S389.49,314.91,389.49,316.8Z"/>
			<path d="M149.41,280.33a339.21,339.21,0,0,1-35.81-6.09c-6.93-1.56-9.89,7.08-3,8.65A339.21,339.21,0,0,0,146.44,289c3,.34,6-.6,6.87-3.13.75-2.1-.92-5.17-3.9-5.52Z"/>
			<path d="M140.81,296.76l-35.57-2.24c-7.14-.45-7.11,8.52,0,9l35.57,2.24c7.14.45,7.11-8.52,0-9Z"/>
			<path d="M138.76,312.8c-14.07.94-28.19,2.26-42.35,2.45-9,.13-9,9.09,0,9,14.16-.2,28.28-1.52,42.35-2.45,3.76-.25,7-1.88,7-4.48,0-2.23-3.21-4.74-7-4.49Z"/>
			<path d="M423.83,280.33a332.14,332.14,0,0,0,35.45-6.09c6.87-1.56,9.8,7.08,3,8.65A332.76,332.76,0,0,1,426.77,289c-3,.34-5.91-.6-6.8-3.13-.74-2.1.91-5.17,3.86-5.52Z"/>
			<path d="M431.87,296.76l38.27-2.24c7.68-.45,7.64,8.52,0,9l-38.27,2.24c-7.68.45-7.64-8.52,0-9Z"/>
			<path d="M433.93,312.8c13.1.94,26.23,2.26,39.41,2.45,8.35.13,8.38,9.09,0,9-13.18-.2-26.31-1.52-39.41-2.45-3.49-.25-6.5-1.88-6.5-4.48,0-2.24,3-4.74,6.5-4.49Z"/>
			<rect class="n5cls-4" x="3.66" y="0.26" width="576" height="602"/>
			<rect class="n5cls-4" width="576" height="602"/>
		</g>
	</g>
</svg>