<svg xmlns="http://www.w3.org/2000/svg" viewBox="0 0 576 602">
	<defs>
		<style>
			.n3cls-1{fill:#4f7a73;}
			.n3cls-2{fill:#668d85;}
			.n3cls-3{fill:#395b55;}
			.n3cls-4{fill:none;}
		</style>
	</defs>
	<title>
		Recurso 83
	</title>
	<g id="Capa_2" data-name="Capa 2">
		<g id="Capa_3" data-name="Capa 3">
			<path class="n3cls-1" d="M325.69,318.07c-13.49-2.26,2.81-72,7.34-86.8,5.72-27.52-20.54-32.74-49.84-34.27-59.95-3.14-68.94,24-67,54.89,2,32.74,26.78,95.21,80.46,101.61,20.05,2.4,37.38-2.28,55.54-11.84A63.9,63.9,0,0,0,378,316.82c-6.06-3-15.54-7.39-23.79-9.87C344.58,316,335.15,321.42,325.69,318.07Z"/>
			<path class="n3cls-2" d="M376.44,304.39c5.82,3.26,5.92,9.26.21,13.39s-15,4.84-20.88,1.57-5.92-9.25-.21-13.39S370.61,301.13,376.44,304.39Z"/>
			<path class="n3cls-3" d="M362,313.88c1.53.86,2.24,1.94,1.58,2.42s-2.44.17-4-.69-2.24-1.94-1.58-2.42S360.51,313,362,313.88Z"/>
			<path class="n3cls-3" d="M371.62,306.94c1.53.86,2.24,1.94,1.58,2.42s-2.44.17-4-.69-2.24-1.94-1.58-2.42S370.09,306.08,371.62,306.94Z"/>
			<path class="n3cls-3" d="M336.93,320.85a5.24,5.24,0,0,0,.38,4.34,3,3,0,0,0,4.11,1.08,3.06,3.06,0,0,0,1.07-4.1,2.59,2.59,0,0,1-.14-.29c.11.24.21.48.31.72a2.32,2.32,0,0,1-.13-.45l.11.8a3.42,3.42,0,0,1,0-.64c0,.26-.07.53-.11.79a3,3,0,0,1,.19-.65,3,3,0,0,0-2.1-3.69,3,3,0,0,0-2.31.3,3.47,3.47,0,0,0-1.38,1.79Z"/>
			<path class="n3cls-3" d="M322.55,320a10.86,10.86,0,0,0-6.21,4.19c-1.89,2.3-3.3,5-1.77,7.88,1.81,3.41,7,.38,5.18-3,.28.53.13.42.52-.16a11.27,11.27,0,0,1,1.24-1.52,4.58,4.58,0,0,1,2.63-1.57,3,3,0,0,0,2.1-3.69,3.07,3.07,0,0,0-3.69-2.1Z"/>
			<path class="n3cls-3" d="M313.94,310.55c-6.5-.63-14.33,2.23-20.27,4.59a39.09,39.09,0,0,0-14.25,9.28c-2.65,2.8,1.58,7.05,4.24,4.24a34,34,0,0,1,13.28-8.37c5-1.82,11.61-4.27,17-3.74,3.84.37,3.81-5.63,0-6Z"/>
			<path class="n3cls-3" d="M312.3,294.64c-10.06-.91-21.2,2.31-30.69,5.35-8.94,2.87-17.95,6.52-25.65,12-3.12,2.22-.12,7.42,3,5.18,7.3-5.19,15.73-8.66,24.22-11.38,9-2.9,19.52-6,29.09-5.14,3.85.35,3.83-5.66,0-6Z"/>
			<path class="n3cls-3" d="M315.77,277.58c-24-4.77-51-.6-71.68,12.78-3.23,2.09-.23,7.29,3,5.18,19.26-12.48,44.59-16.63,67.06-12.18,3.77.75,5.38-5,1.59-5.78Z"/>
			<path class="n3cls-3" d="M322.23,254.66c-11.41-10-29.21-10-43.4-8.21-14.43,1.78-31.26,5.81-42.11,16.19-2.79,2.67,1.45,6.91,4.25,4.24,9.63-9.21,25.06-12.78,37.86-14.43,12.29-1.58,29.15-2.31,39.16,6.46,2.89,2.53,7.15-1.7,4.24-4.25Z"/>
			<path class="n3cls-3" d="M328.26,231.67c-10.22-13.46-32.2-13.79-47.4-11.7-16.95,2.34-34.81,7.74-49.65,16.32-3.34,1.93-.32,7.12,3,5.18,13.45-7.78,29.26-12.42,44.5-15.13a84,84,0,0,1,21.71-.75c7.81.67,17.57,2.45,22.63,9.1,2.3,3,7.51.05,5.18-3Z"/>
			<rect class="n3cls-4" width="576" height="602"/>
		</g>
	</g>
</svg>