<svg xmlns="http://www.w3.org/2000/svg" viewBox="0 0 206.69 44.67">
	<defs>
		<style>
			.oj9cls-1{fill:#dadaa8;}
			.oj9cls-2{fill:#f8f9d2;}
		</style>
	</defs>
	<title>
		Recurso 97
	</title>
	<g id="Capa_2" data-name="Capa 2">
		<g id="Capa_3" data-name="Capa 3">
			<path class="oj9cls-1" d="M206.69,25.59c0,10.54-14.59,19.08-32.59,19.08s-32.59-8.54-32.59-19.08S156.1,6.51,174.1,6.51,206.69,15.05,206.69,25.59Z"/>
			<path class="oj9cls-2" d="M206.69,19.08c0,10.54-14.59,19.09-32.59,19.09s-32.59-8.55-32.59-19.09S156.1,0,174.1,0,206.69,8.54,206.69,19.08Z"/>
			<path d="M192.11,19.75c0,3.61-5,6.53-11.15,6.53s-11.15-2.92-11.15-6.53,5-6.53,11.15-6.53S192.11,16.15,192.11,19.75Z"/>
			<path class="oj9cls-1" d="M61.39,25.93c0,9.93-13.74,18-30.69,18S0,35.86,0,25.93,13.74,8,30.7,8,61.39,16,61.39,25.93Z"/>
			<path class="oj9cls-2" d="M61.39,19.42c0,9.93-13.74,18-30.69,18S0,29.35,0,19.42s13.74-18,30.7-18S61.39,9.49,61.39,19.42Z"/>
			<path d="M29.89,20.05c0,3.4-4.7,6.15-10.5,6.15s-10.5-2.75-10.5-6.15,4.7-6.15,10.5-6.15S29.89,16.66,29.89,20.05Z"/>
		</g>
	</g>
</svg>