<svg xmlns="http://www.w3.org/2000/svg" viewBox="0 0 576 602">
	<defs>
		<style>
			.oj3cls-1{fill:#ff3960;}
			.oj3cls-2{fill:none;}
		</style>
	</defs>
	<title>
		Recurso 89
	</title>
	<g id="Capa_2" data-name="Capa 2">
		<g id="Capa_3" data-name="Capa 3">
			<path class="oj3cls-1" d="M349.14,167.2c0-13.19-15.05-21.46-26.17-14.33a17.17,17.17,0,0,0-22.63-7.82c-8.67,4.18-10.67,13.13-8.66,21.84,2.69,11.7,10.44,22.61,18.64,31.19,0-.1.08-.21.13-.31l-.06.33a90.7,90.7,0,0,0,18-7c8.05-4.16,22.17-13,20.77-23.86C349.16,159.75,349.31,168.48,349.14,167.2Z"/>
			<path class="oj3cls-1" d="M267.28,153.44c-6-11.75-23.2-12.21-29.83-.78a17.15,17.15,0,0,0-23.7,3.38c-5.81,7.68-3.49,16.56,2.28,23.39,7.73,9.17,19.61,15.34,30.83,19.22l0-.33c0,.1.07.21.11.31a91,91,0,0,0,12.76-14.47c5.26-7.39,13.78-21.72,7.58-30.72C263.89,146.81,268,154.51,267.28,153.44Z"/>
			<rect class="oj3cls-2" width="576" height="602"/>
		</g>
	</g>
</svg>