<svg xmlns="http://www.w3.org/2000/svg" viewBox="0 0 579.66 602.26">
	<defs>
		<style>
			.oj11cls-1{fill:#64cc21;}
			.oj11cls-2{fill:#f9f9e5;}
			.oj11cls-3{fill:#fff;}
			.oj11cls-4{fill:#29aae1;}
			.oj11cls-5{fill:none;}
		</style>
	</defs>
	<title>
		Recurso 73
	</title>
	<g id="Capa_2" data-name="Capa 2">
		<g id="Capa_3" data-name="Capa 3">
			<path class="oj11cls-1" d="M370.34,195.59c0-35-39.55-63.33-88.34-63.33s-88.34,28.35-88.34,63.33Z"/>
			<path class="oj11cls-2" d="M369,213.7c0,24.62-38.7,44.57-86.45,44.57s-86.46-19.95-86.46-44.57,38.71-44.57,86.46-44.57S369,189.08,369,213.7Z"/>
			<path class="oj11cls-3" d="M369,205.93c0,24.62-38.7,44.57-86.45,44.57s-86.46-19.95-86.46-44.57,38.71-44.57,86.46-44.57S369,181.31,369,205.93Z"/>
			<path class="oj11cls-4" d="M327.23,202.36c0,12.73-20,23-44.71,23s-44.72-10.32-44.72-23,20-23.05,44.72-23.05S327.23,189.63,327.23,202.36Z"/>
			<path d="M306.93,200.86c0,6.95-10.93,12.59-24.41,12.59s-24.41-5.64-24.41-12.59,10.93-12.58,24.41-12.58S306.93,193.92,306.93,200.86Z"/>
			<rect class="oj11cls-5" x="3.66" y="0.26" width="576" height="602"/>
			<rect class="oj11cls-5" width="576" height="602"/>
		</g>
	</g>
</svg>