<svg xmlns="http://www.w3.org/2000/svg" viewBox="0 0 579.66 602.26">
	<defs>
		<style>
			.o2cls-1{fill:#64cc21;}
			.o2cls-2{fill:#f9f9e5;}
			.o2cls-3{fill:#fff;}
			.o2cls-4{fill:#29aae1;}
			.o2cls-5{fill:none;}
		</style>
	</defs>
	<title>
		Recurso 46
	</title>
	<g id="Capa_2" data-name="Capa 2">
		<g id="Capa_3" data-name="Capa 3">
			<path class="o2cls-1" d="M402.6,259.26c0-45-50.9-81.52-113.69-81.52s-113.7,36.5-113.7,81.52Z"/>
			<path class="o2cls-2" d="M400.85,282.56c0,31.68-49.82,57.36-111.28,57.36S178.3,314.24,178.3,282.56s49.82-57.36,111.27-57.36S400.85,250.88,400.85,282.56Z"/>
			<path class="o2cls-3" d="M400.85,272.56c0,31.68-49.82,57.36-111.28,57.36S178.3,304.24,178.3,272.56s49.82-57.36,111.27-57.36S400.85,240.88,400.85,272.56Z"/>
			<path class="o2cls-4" d="M347.12,268c0,16.39-25.76,29.67-57.55,29.67S232,284.35,232,268s25.77-29.67,57.55-29.67S347.12,251.58,347.12,268Z"/>
			<path d="M321,266c0,8.94-14.07,16.19-31.42,16.19S258.16,275,258.16,266s14.06-16.19,31.41-16.19S321,257.1,321,266Z"/>
			<rect class="o2cls-5" x="3.66" y="0.26" width="576" height="602"/>
			<rect class="o2cls-5" width="576" height="602"/>
		</g>
	</g>
</svg>