<svg xmlns="http://www.w3.org/2000/svg" viewBox="0 0 576 602">
	<defs>
		<style>
			.oj7cls-1{fill:none;}
			.oj7cls-2{fill:#f8f9d2;stroke:#d2d2a0;stroke-miterlimit:10;stroke-width:6px;}
			.oj7cls-3{fill:#009145;}
		</style>
	</defs>
	<title>
		Recurso 53
	</title>
	<g id="Capa_2" data-name="Capa 2">
		<g id="Capa_3" data-name="Capa 3">
			<rect class="oj7cls-1" width="576" height="602"/>
			<path class="oj7cls-2" d="M276.86,159c0,19.55-13.84,35.39-30.91,35.39S215,178.53,215,159s13.84-35.4,30.91-35.4S276.86,139.43,276.86,159Z"/>
			<path class="oj7cls-3" d="M261.73,155.32c0,9.39-5.18,17-11.57,17s-11.57-7.62-11.57-17,5.18-17,11.57-17S261.73,145.92,261.73,155.32Z"/>
			<path class="oj7cls-2" d="M348.45,159c0,19.55-13.24,35.39-29.57,35.39S289.31,178.53,289.31,159s13.24-35.4,29.57-35.4S348.45,139.43,348.45,159Z"/>
			<path class="oj7cls-3" d="M322.24,155.32c0,9.39-5.18,17-11.57,17s-11.57-7.62-11.57-17,5.18-17,11.57-17S322.24,145.92,322.24,155.32Z"/>
		</g>
	</g>
</svg>