<svg xmlns="http://www.w3.org/2000/svg" viewBox="0 0 576 602">
	<defs>
		<style>
			.oj13cls-1{fill:#cb461d;}
			.oj13cls-2{fill:#f05a24;}
			.oj13cls-3{fill:#f8f9d2;}
			.oj13cls-4{fill:none;}
		</style>
	</defs>
	<title>
		Recurso 70
	</title>
	<g id="Capa_2" data-name="Capa 2">
		<g id="Capa_3" data-name="Capa 3">
			<ellipse class="oj13cls-1" cx="224.49" cy="189.87" rx="36.83" ry="31.79"/>
			<ellipse class="oj13cls-1" cx="332.84" cy="188.65" rx="36.83" ry="30.58"/>
			<ellipse class="oj13cls-2" cx="224.49" cy="182.35" rx="36.83" ry="28.75"/>
			<ellipse class="oj13cls-2" cx="332.84" cy="181.13" rx="36.83" ry="27.53"/>
			<ellipse class="oj13cls-3" cx="227.74" cy="172.98" rx="36.83" ry="23.5"/>
			<path d="M248.09,173.81c0,4.44-5.64,8-12.6,8s-12.6-3.59-12.6-8,5.65-8,12.6-8S248.09,169.37,248.09,173.81Z"/>
			<ellipse class="oj13cls-3" cx="327.96" cy="172.98" rx="36.83" ry="23.5"/>
			<path d="M327,173.81c0,4.44-5.64,8-12.6,8s-12.6-3.59-12.6-8,5.65-8,12.6-8S327,169.37,327,173.81Z"/>
			<rect class="oj13cls-4" width="576" height="602"/>
		</g>
	</g>
</svg>