<svg xmlns="http://www.w3.org/2000/svg" viewBox="0 0 576 602">
	<defs>
		<style>
			.orj6cls-1{fill:none;}
			.orj6cls-2{fill:#f8f9d2;}
		</style>
	</defs>
	<title>
		Recurso 79
	</title>
	<g id="Capa_2" data-name="Capa 2">
		<g id="Capa_3" data-name="Capa 3">
			<rect class="orj6cls-1" width="576" height="602"/>
			<path class="orj6cls-2" d="M157.09,90.51c-15.34,8.14-23.28,20.77-20.65,33.07,1.24,5.82,5,11.47,12.95,15.13A16,16,0,0,0,159.73,140a22,22,0,0,0,6.25-1.82c5.7-2.61,8.13-7.26,8.31-11.45.23-5.48-4.2-10.43-8.13-15.19-5.35-6.48-8.94-12.67-6.08-19.94C160.51,90.46,158.4,89.81,157.09,90.51Z"/>
			<path class="orj6cls-2" d="M405.57,91.55c2.85,7.27-.74,13.46-6.08,19.94-3.93,4.76-8.36,9.71-8.13,15.19.17,4.19,2.6,8.84,8.31,11.45a22,22,0,0,0,6.25,1.82,16,16,0,0,0,10.34-1.24c7.92-3.66,11.7-9.31,12.95-15.13,2.63-12.3-5.32-24.93-20.66-33.07C407.24,89.81,405.14,90.46,405.57,91.55Z"/>
		</g>
	</g>
</svg>