<svg xmlns="http://www.w3.org/2000/svg" viewBox="0 0 576 602">
	<defs>
		<style>
			.or4cls-1{fill:none;}
			.or4cls-2{fill:#fbfbe2;}
		</style>
	</defs>
	<title>
		Recurso 48
	</title>
	<g id="Capa_2" data-name="Capa 2">
		<g id="Capa_3" data-name="Capa 3">
			<rect class="or4cls-1" width="576" height="602"/>
			<path class="or4cls-2" d="M202.1,170.29c-10.58-.39-20.27-7.71-27.28-20.61l-3.24-5.94c-14.49-26.62-12.93-69,3.47-94.5L197,15.17C200,10.4,204,7.86,208.06,8s7.82,3,10.53,8L238,51.54c14.49,26.63,12.93,69-3.46,94.51l-3.67,5.69C222.88,164.09,212.68,170.67,202.1,170.29Z"/>
			<path class="or4cls-2" d="M351.36,151.74l-3.66-5.69c-16.4-25.49-17.95-67.88-3.47-94.51L363.59,16c2.71-5,6.46-7.8,10.54-8s8,2.39,11.09,7.16l21.92,34.07c16.4,25.48,17.95,67.88,3.47,94.5l-3.24,5.94c-7,12.9-16.71,20.22-27.28,20.61S359.31,164.09,351.36,151.74Z"/>
		</g>
	</g>
</svg>