<svg xmlns="http://www.w3.org/2000/svg" viewBox="0 0 576 602">
	<defs>
		<style>
			.or5cls-1{fill:none;}
			.or5cls-2{fill:#1fb59f;}
			.or5cls-3{fill:#c6bb8d;}
		</style>
	</defs>
	<title>
		Recurso 2
	</title>
	<g id="Capa_2" data-name="Capa 2">
		<g id="Capa_3" data-name="Capa 3">
			<rect class="or5cls-1" width="576" height="602"/>
			<path class="or5cls-2" d="M118,96.47a9.79,9.79,0,0,0-6.74,4.72l-9.82,18.54c-3.85,7.29-3.59,15.73.72,23.79s12.18,14.75,22.14,18.86a51,51,0,0,0,30.57,2.9c9.77-2.24,17.26-7.49,21.11-14.77h0c3.86-7.28,3.6-15.73-.72-23.78S163.11,112,153.15,107.86L127.79,97.39A16.3,16.3,0,0,0,118,96.47Z"/>
			<path class="or5cls-3" d="M123.67,106.83a5.29,5.29,0,0,0-4,3.35l-5,13.66c-1.95,5.36-1.2,11.73,2.12,17.92a36.24,36.24,0,0,0,15.44,14.86c6.64,3.39,13.64,4.49,19.71,3.1s10.48-5.12,12.43-10.48h0c1.94-5.36,1.19-11.73-2.13-17.92a36.24,36.24,0,0,0-15.44-14.86L130,107.82A9.31,9.31,0,0,0,123.67,106.83Z"/>
			<path class="or5cls-2" d="M435.68,97.39l-25.36,10.47c-10,4.12-17.82,10.81-22.14,18.87s-4.57,16.5-.72,23.78h0c3.86,7.28,11.35,12.53,21.12,14.77a51,51,0,0,0,30.57-2.9c10-4.11,17.82-10.81,22.13-18.86s4.58-16.5.72-23.79l-9.81-18.54a9.79,9.79,0,0,0-6.74-4.72A16.3,16.3,0,0,0,435.68,97.39Z"/>
			<path class="or5cls-3" d="M433.51,107.82l-16.92,8.64a36.21,36.21,0,0,0-15.43,14.86c-3.32,6.19-4.08,12.56-2.13,17.92h0c2,5.36,6.36,9.09,12.43,10.48s13.07.29,19.71-3.1a36.24,36.24,0,0,0,15.44-14.86c3.32-6.19,4.07-12.56,2.12-17.92l-5-13.66a5.26,5.26,0,0,0-4-3.35A9.31,9.31,0,0,0,433.51,107.82Z"/>
		</g>
	</g>
</svg>