<svg xmlns="http://www.w3.org/2000/svg" viewBox="0 0 576 602">
	<defs>
		<style>
			.orj4cls-1{fill:#395b55;}
			.orj4cls-2{fill:#4f7a73;}
			.orj4cls-3{fill:none;}
		</style>
	</defs>
	<title>
		Recurso 82
	</title>
	<g id="Capa_2" data-name="Capa 2">
		<g id="Capa_3" data-name="Capa 3">
			<path class="orj4cls-1" d="M472,280.39,467.66,277c-19.59-15.1-33.28-46.54-30.52-70.08l3.69-31.48c.52-4.4,2.43-7.44,5.39-8.56s6.6-.18,10.26,2.65l26.19,20.18c19.59,15.1,33.28,46.54,30.52,70.09l-.62,5.26c-1.33,11.4-6.29,19.28-13.94,22.17S481.53,287.71,472,280.39Z"/>
			<path class="orj4cls-2" d="M480,278.39,475.66,275c-19.59-15.1-33.28-46.54-30.52-70.08l3.69-31.48c.52-4.4,2.43-7.44,5.39-8.56s6.6-.18,10.26,2.65l26.19,20.18c19.59,15.1,33.28,46.54,30.52,70.09l-.62,5.26c-1.33,11.4-6.29,19.28-13.94,22.17S489.53,285.71,480,278.39Z"/>
			<path class="orj4cls-1" d="M76.7,287.25c-7.65-2.89-12.61-10.77-13.94-22.17l-.62-5.26c-2.76-23.55,10.93-55,30.52-70.09l26.19-20.18c3.66-2.83,7.31-3.77,10.26-2.65s4.87,4.16,5.39,8.56l3.69,31.48c2.76,23.54-10.93,55-30.52,70.08l-4.38,3.37C93.8,287.71,84.36,290.14,76.7,287.25Z"/>
			<path class="orj4cls-2" d="M68.7,285.25c-7.65-2.89-12.61-10.77-13.94-22.17l-.62-5.26c-2.76-23.55,10.93-55,30.52-70.09l26.19-20.18c3.66-2.83,7.31-3.77,10.26-2.65s4.87,4.16,5.39,8.56l3.69,31.48c2.76,23.54-10.93,55-30.52,70.08l-4.38,3.37C85.8,285.71,76.36,288.14,68.7,285.25Z"/>
			<rect class="orj4cls-3" width="576" height="602"/>
		</g>
	</g>
</svg>