<svg xmlns="http://www.w3.org/2000/svg" viewBox="0 0 576 602">
	<defs>
		<style>
			.orj10cls-1{fill:#c61a4b;}
			.orj10cls-2{fill:#ff3960;}
			.orj10cls-3{fill:none;}
		</style>
	</defs>
	<title>
		Recurso 66
	</title>
	<g id="Capa_2" data-name="Capa 2">
		<g id="Capa_3" data-name="Capa 3">
			<path class="orj10cls-1" d="M496.77,146.45c-13.81-7.75-42.09-13.27-64.56-11-.9-3.12-3.48-6.11-7.77-8.51a38.46,38.46,0,0,0-15.16-4.34c4-12.61-5.84-28.47-19.65-36.22-18.87-10.57-37.94-2-59.14,9.88S294,118.83,312.89,129.4c13.81,7.75,42.08,13.27,64.55,11,.9,3.12,3.48,6.11,7.77,8.51a38.46,38.46,0,0,0,15.17,4.34c-4,12.61,5.83,28.47,19.64,36.22,18.87,10.57,38,2,59.14-9.88S515.63,157,496.77,146.45Z"/>
			<path class="orj10cls-2" d="M398.8,125.25c-21.19,11.88-67.05,5.43-85.91-5.14S309.3,98.83,330.49,87s40.27-20.45,59.14-9.87S420,113.37,398.8,125.25Z"/>
			<path class="orj10cls-2" d="M410.85,132c21.19-11.89,67-5.43,85.92,5.14s3.58,21.27-17.61,33.16-40.27,20.45-59.13,9.87S389.66,143.89,410.85,132Z"/>
			<ellipse class="orj10cls-1" cx="404.83" cy="128.63" rx="27.74" ry="15.56"/>
			<rect class="orj10cls-3" width="576" height="602"/>
		</g>
	</g>
</svg>