<svg xmlns="http://www.w3.org/2000/svg" viewBox="0 0 576 602">
	<defs>
		<style>
			.orj2cls-1{fill:none;}
			.orj2cls-2{fill:#1fb59f;}
			.orj2cls-3{fill:#c6bb8d;}
			.orj2cls-4{fill:#fbed21;}
			.orj2cls-5{fill:#ccc27f;}
		</style>
	</defs>
	<title>
		Recurso 108
	</title>
	<g id="Capa_2" data-name="Capa 2">
		<g id="Capa_3" data-name="Capa 3">
			<rect class="orj2cls-1" width="576" height="602"/>
			<path class="orj2cls-2" d="M118,74.47a9.83,9.83,0,0,0-6.75,4.72l-9.81,18.55c-3.85,7.28-3.6,15.73.72,23.78s12.18,14.76,22.13,18.87a51,51,0,0,0,30.58,2.9c9.76-2.24,17.26-7.49,21.11-14.77h0c3.85-7.28,3.6-15.73-.72-23.78S163.11,90,153.15,85.86L127.79,75.39A16.32,16.32,0,0,0,118,74.47Z"/>
			<path class="orj2cls-3" d="M123.67,84.83a5.28,5.28,0,0,0-4,3.35l-5,13.66c-1.95,5.36-1.19,11.73,2.13,17.92a36.24,36.24,0,0,0,15.44,14.86c6.64,3.39,13.64,4.49,19.71,3.1s10.48-5.12,12.43-10.48h0c1.95-5.36,1.19-11.73-2.13-17.92a36.24,36.24,0,0,0-15.44-14.86L130,85.82A9.39,9.39,0,0,0,123.67,84.83Z"/>
			<path class="orj2cls-2" d="M435.68,75.39,410.32,85.86c-10,4.11-17.81,10.81-22.13,18.87s-4.57,16.5-.72,23.78h0c3.85,7.28,11.35,12.53,21.11,14.77a51,51,0,0,0,30.58-2.9c10-4.11,17.81-10.81,22.13-18.87s4.57-16.5.72-23.78l-9.81-18.55a9.83,9.83,0,0,0-6.75-4.72A16.32,16.32,0,0,0,435.68,75.39Z"/>
			<path class="orj2cls-3" d="M433.51,85.82l-16.91,8.64a36.24,36.24,0,0,0-15.44,14.86c-3.32,6.19-4.07,12.55-2.13,17.92h0c1.95,5.36,6.36,9.09,12.43,10.48s13.07.29,19.71-3.1a36.24,36.24,0,0,0,15.44-14.86c3.32-6.19,4.07-12.56,2.13-17.92l-5-13.66a5.28,5.28,0,0,0-4-3.35A9.39,9.39,0,0,0,433.51,85.82Z"/>
			<path class="orj2cls-4" d="M285.8,109s37.44.48,35.2-16.92c0,0-2.34-16.83-5.66-19.88,1.26-2.25-5.1-26.72-10.7-28.48.91-2-8-33.44-18.84-33.44S266,41.75,267,43.71c-5.6,1.77-12,26.23-10.7,28.48-3.32,3.06-5.66,19.88-5.66,19.88C248.35,109.48,285.8,109,285.8,109Z"/>
			<path class="orj2cls-5" d="M285,86.71a59.62,59.62,0,0,1-11.91-1.2,53.28,53.28,0,0,1-17.44-6.64,2.3,2.3,0,0,1-.55-3.53,3.21,3.21,0,0,1,4.07-.47,48.17,48.17,0,0,0,15.5,5.79c12.56,2.51,25.06.51,37.14-5.93a3.17,3.17,0,0,1,4,.82,2.33,2.33,0,0,1-1,3.46A62.93,62.93,0,0,1,285,86.71Z"/>
			<path class="orj2cls-5" d="M285.17,49.73a25.77,25.77,0,0,1-13.34-3.62,2.3,2.3,0,0,1-.55-3.53,3.21,3.21,0,0,1,4.06-.48c.4.26,9.14,5.73,20.15-.14a3.17,3.17,0,0,1,4,.83,2.33,2.33,0,0,1-1,3.46A28.14,28.14,0,0,1,285.17,49.73Z"/>
		</g>
	</g>
</svg>