<svg xmlns="http://www.w3.org/2000/svg" viewBox="0 0 576 602">
	<defs>
		<style>
			.orj3cls-1{fill:#c98fc1;}
			.orj3cls-2{fill:#e0aad6;}
			.orj3cls-3{fill:none;}
		</style>
	</defs>
	<title>
		Recurso 86
	</title>
	<g id="Capa_2" data-name="Capa 2">
		<g id="Capa_3" data-name="Capa 3">
			<path class="orj3cls-1" d="M416.06,144.62a38.37,38.37,0,0,0,26.4,1.63c17.7-5.33,46.66-15.87,56.84-30.17,15.05-21.15-75.36-50.67-84.77-49.85s-47.27,56.53-20,68.71C404.05,139.2,411,142.34,416.06,144.62Z"/>
			<path class="orj3cls-2" d="M414.53,66.23a8.25,8.25,0,0,0-3.81,2c-.85,13.08,1.33,32.32,15.46,36.52,16.36,4.87,52.68,13.58,72.81,11.77l.31-.42C514.35,94.93,423.94,65.41,414.53,66.23Z"/>
			<path class="orj3cls-1" d="M144.71,144.72a39.78,39.78,0,0,1-27.39,1.69C99,140.89,68.93,130,58.38,115.12c-15.61-21.93,78.15-52.54,87.9-51.7s49,58.63,20.76,71.26C157.16,139.1,149.93,142.36,144.71,144.72Z"/>
			<path class="orj3cls-2" d="M146.28,63.42a8.52,8.52,0,0,1,4,2.06c.88,13.56-1.38,33.52-16,37.88-17,5-54.64,14.08-75.51,12.2-.11-.15-.22-.29-.32-.44C42.77,93.19,136.53,62.58,146.28,63.42Z"/>
			<rect class="orj3cls-3" width="576" height="602"/>
		</g>
	</g>
</svg>