<svg xmlns="http://www.w3.org/2000/svg" viewBox="0 0 579.66 602.26">
	<defs>
		<style>
			.orj14cls-1{fill:#71d530;}
			.orj14cls-2{fill:#0c5b00;opacity:0.5;}
			.orj14cls-3{fill:none;}
		</style>
	</defs>
	<title>
		Recurso 58
	</title>
	<g id="Capa_2" data-name="Capa 2">
		<g id="Capa_3" data-name="Capa 3">
			<path class="orj14cls-1" d="M176.14,138.17c-11,11.2-33.79,11.78-50.88,1.28s-22-28.09-11-39.3,33.79-11.77,50.88-1.27S187.15,127,176.14,138.17Z"/>
			<path class="orj14cls-1" d="M236.14,115c-13.34.2-24.39-10-24.69-22.67S221.73,69.17,235.07,69s24.39,10,24.69,22.67S249.48,114.84,236.14,115Z"/>
			<path class="orj14cls-2" d="M171.9,137.05c-5,6.69-17.87,8-28.81,2.92s-15.77-14.63-10.8-21.32,17.87-8,28.81-2.92S176.87,130.36,171.9,137.05Z"/>
			<path class="orj14cls-2" d="M239.52,110.49c-8.21,1.09-16.32-4.82-18.1-13.21s3.42-16.08,11.64-17.17,16.32,4.82,18.1,13.21S247.74,109.4,239.52,110.49Z"/>
			<rect class="orj14cls-3" x="3.66" y="0.26" width="576" height="602"/>
			<rect class="orj14cls-3" width="576" height="602"/>
		</g>
	</g>
</svg>