<svg xmlns="http://www.w3.org/2000/svg" viewBox="0 0 576 602">
	<defs>
		<style>
			.orj2cls-1{fill:#fbed21;}
			.orj2cls-2{fill:#ccc27f;}
			.orj2cls-3{fill:none;}
		</style>
	</defs>
	<title>
		Recurso 96
	</title>
	<g id="Capa_2" data-name="Capa 2">
		<g id="Capa_3" data-name="Capa 3">
			<path class="orj2cls-1" d="M319.34,71.2A14.94,14.94,0,0,0,321,63.75V59.42c0-8.21-6.46-15.06-15.36-16.71a15.13,15.13,0,0,0,1.52-6.35h0c0-9.44-8.77-17.09-19.66-17.09h0c-10.89,0-19.69,7.65-19.69,17.09h0a15.2,15.2,0,0,0,1.59,6.35c-8.9,1.65-15.4,8.5-15.4,16.71v4.33a14.94,14.94,0,0,0,1.66,7.45c-3.32,3.06-5.66,7.17-5.66,11.7v8.18c0,9.44,9.12,16.92,20,16.92H305.1C316,108,325,100.52,325,91.08V82.9C325,78.37,322.66,74.26,319.34,71.2Z"/>
			<path class="orj2cls-2" d="M287.05,85.71a59.61,59.61,0,0,1-11.91-1.2,53.31,53.31,0,0,1-17.44-6.64,2.29,2.29,0,0,1-.54-3.52,3.19,3.19,0,0,1,4.06-.48,48.16,48.16,0,0,0,15.5,5.79c12.56,2.51,25,.51,37.14-5.93a3.17,3.17,0,0,1,4,.82,2.34,2.34,0,0,1-1,3.47A63,63,0,0,1,287.05,85.71Z"/>
			<path class="orj2cls-2" d="M287.17,48.73a25.85,25.85,0,0,1-13.34-3.61,2.3,2.3,0,0,1-.54-3.53,3.21,3.21,0,0,1,4-.48c.4.26,9.15,5.73,20.15-.13a3.18,3.18,0,0,1,4,.82,2.33,2.33,0,0,1-1,3.46A28.09,28.09,0,0,1,287.17,48.73Z"/>
			<rect class="orj2cls-3" width="576" height="602"/>
		</g>
	</g>
</svg>