<svg xmlns="http://www.w3.org/2000/svg" viewBox="0 0 579.66 602.26">
	<defs>
		<style>
			.orj13cls-1{fill:#f6921e;}
			.orj13cls-2{fill:none;}
		</style>
	</defs>
	<title>
		Recurso 61
	</title>
	<g id="Capa_2" data-name="Capa 2">
		<g id="Capa_3" data-name="Capa 3">
			<path class="orj13cls-1" d="M302.42,62.86a22.32,22.32,0,0,0-4.86-9c-4.76-6.77-11.54-11-19.07-11-14.4,0-26.07,15.48-26.07,34.58a45.2,45.2,0,0,0,.92,9.12c.64,5.56,2.88,12.24,7.23,16.18l.48.4c4.62,5.51,10.73,8.87,17.44,8.87,7.41,0,14.1-4.11,18.85-10.7h.45c6.58.22,14.25,2.43,19.62-1,3.91-2.46,6.34-7.44,6.41-13.25C324,74.53,312.18,62,302.42,62.86Z"/>
			<rect class="orj13cls-2" x="3.66" y="0.26" width="576" height="602"/>
			<rect class="orj13cls-2" width="576" height="602"/>
		</g>
	</g>
</svg>