<svg xmlns="http://www.w3.org/2000/svg" viewBox="0 0 576 602">
	<defs>
		<style>
			.orj11cls-1{fill:#fbfbe2;stroke:#c0be98;stroke-miterlimit:10;stroke-width:4px;}
			.orj11cls-2{fill:#ff7bab;}
			.orj11cls-3{fill:none;}
		</style>
	</defs>
	<title>
		Recurso 64
	</title>
	<g id="Capa_2" data-name="Capa 2">
		<g id="Capa_3" data-name="Capa 3">
			<path class="orj11cls-1" d="M174.65,51l61.83,24.32c4.27,1.68,6.74,4.2,6.74,6.86v51.15c0,7.69-18.89,11.71-30.62,6.53l-61.82-27.36c-3.79-1.67-5.94-4-5.94-6.52V57.85C144.84,50.41,162.71,46.29,174.65,51Z"/>
			<path class="orj11cls-1" d="M409.41,51,347.58,75.31c-4.27,1.68-6.74,4.2-6.74,6.86v51.15c0,7.69,18.89,11.71,30.62,6.53l61.82-27.36c3.79-1.67,5.94-4,5.94-6.52V57.85C439.22,50.41,421.35,46.29,409.41,51Z"/>
			<path class="orj11cls-2" d="M180,62.57l45.94,18.07c3.18,1.25,5,3.12,5,5.1v38c0,5.71-14,8.71-22.76,4.85l-45.95-20.33c-2.81-1.25-4.41-3-4.41-4.85V67.67C157.84,62.14,171.12,59.08,180,62.57Z"/>
			<path class="orj11cls-2" d="M404.9,62.09,359,80.16c-3.17,1.25-5,3.12-5,5.1v38c0,5.71,14,8.7,22.76,4.84l45.95-20.32c2.81-1.25,4.41-3,4.41-4.85V67.19C427.06,61.65,413.78,58.6,404.9,62.09Z"/>
			<rect class="orj11cls-3" width="576" height="602"/>
		</g>
	</g>
</svg>