<svg xmlns="http://www.w3.org/2000/svg" viewBox="0 0 579.66 602.26">
	<defs>
		<style>
			.or6cls-1{fill:#71d530;}
			.or6cls-2{fill:#0c5b00;opacity:0.5;}
			.or6cls-3{fill:none;}
		</style>
	</defs>
	<title>
		Recurso 41
	</title>
	<g id="Capa_2" data-name="Capa 2">
		<g id="Capa_3" data-name="Capa 3">
			<path class="or6cls-1" d="M172.14,221.17c-11,11.2-33.79,11.78-50.88,1.28s-22-28.09-11-39.3,33.79-11.77,50.88-1.27S183.15,210,172.14,221.17Z"/>
			<path class="or6cls-1" d="M232.14,198c-13.34.2-24.39-9.95-24.69-22.67s10.28-23.19,23.62-23.38,24.39,10,24.69,22.67S245.48,197.84,232.14,198Z"/>
			<path class="or6cls-2" d="M167.9,220.05c-5,6.69-17.87,8-28.81,2.92s-15.77-14.63-10.8-21.32,17.87-8,28.81-2.92S172.87,213.36,167.9,220.05Z"/>
			<path class="or6cls-2" d="M235.52,193.49c-8.21,1.09-16.32-4.82-18.1-13.21s3.42-16.08,11.64-17.17,16.32,4.82,18.1,13.21S243.74,192.4,235.52,193.49Z"/>
			<rect class="or6cls-3" x="3.66" y="0.26" width="576" height="602"/>
			<rect class="or6cls-3" width="576" height="602"/>
		</g>
	</g>
</svg>