<svg xmlns="http://www.w3.org/2000/svg" viewBox="0 0 576 602">
	<defs>
		<style>
			.orj12cls-1{fill:#ff7bab;}
			.orj12cls-2{fill:none;}
		</style>
	</defs>
	<title>
		Recurso 62
	</title>
	<g id="Capa_2" data-name="Capa 2">
		<g id="Capa_3" data-name="Capa 3">
			<path d="M176.65,102l61.83,24.31c4.27,1.68,6.74,4.2,6.74,6.86v51.15c0,7.69-18.89,11.72-30.62,6.53l-61.82-27.36c-3.79-1.67-5.94-4-5.94-6.52V108.82C146.84,101.37,164.71,97.26,176.65,102Z"/>
			<path d="M411.41,102l-61.83,24.31c-4.27,1.68-6.74,4.2-6.74,6.86v51.15c0,7.69,18.89,11.72,30.62,6.53l61.82-27.36c3.79-1.67,5.94-4,5.94-6.52V108.82C441.22,101.37,423.35,97.26,411.41,102Z"/>
			<path class="orj12cls-1" d="M182,113.53l45.94,18.07c3.18,1.25,5,3.13,5,5.1v38c0,5.72-14,8.71-22.76,4.85l-45.95-20.33c-2.81-1.24-4.41-3-4.41-4.85V118.63C159.84,113.1,173.12,110,182,113.53Z"/>
			<path class="orj12cls-1" d="M406.9,113.05,361,131.12c-3.17,1.25-5,3.12-5,5.1v38c0,5.71,14,8.7,22.76,4.85l45.95-20.33c2.81-1.25,4.41-3,4.41-4.85V118.15C429.06,112.61,415.78,109.56,406.9,113.05Z"/>
			<rect class="orj12cls-2" width="576" height="602"/>
		</g>
	</g>
</svg>