<svg xmlns="http://www.w3.org/2000/svg" viewBox="0 0 576 602">
	<defs>
		<style>
			.orj10cls-1{fill:#fbfbe2;}
			.orj10cls-2{fill:#c61a4b;}
			.orj10cls-3{fill:#ff3960;}
			.orj10cls-4{fill:none;}
		</style>
	</defs>
	<title>
		Recurso 157
	</title>
	<g id="Capa_2" data-name="Capa 2">
		<g id="Capa_3" data-name="Capa 3">
			<path class="orj10cls-1" d="M123.31,85.3l48.86,20.05.14.06c7,2.93,8.31,8.53,2.76,11.15l-63.56,30.07c-5.1,2.41-14.13,0-15.66-4.24l0-.09-15-43.49C75.85,84.36,101.31,76.27,123.31,85.3Z"/>
			<path class="orj10cls-1" d="M432.06,86.79,380.58,98.58l-.15,0c-7.4,1.74-9.6,7.05-4.55,10.55l57.78,40.06c4.64,3.22,13.94,2.32,16.14-1.62l0-.08,21.91-40.46C479,93.63,455.25,81.48,432.06,86.79Z"/>
			<path class="orj10cls-2" d="M496.77,146.45c-13.81-7.74-42.08-13.26-64.56-11-.9-3.12-3.48-6.11-7.76-8.51a38.53,38.53,0,0,0-15.17-4.34c4-12.6-5.84-28.47-19.65-36.21-18.86-10.58-37.94-2-59.13,9.87S294,118.83,312.89,129.4c13.81,7.74,42.08,13.26,64.56,11,.9,3.12,3.48,6.11,7.76,8.51a38.54,38.54,0,0,0,15.17,4.34c-4,12.6,5.84,28.47,19.65,36.21,18.86,10.58,37.94,2,59.13-9.87S515.63,157,496.77,146.45Z"/><path class="orj10cls-3" d="M398.8,125.25c-21.19,11.88-67.05,5.43-85.92-5.15S309.3,98.83,330.49,87s40.27-20.45,59.13-9.87S420,113.37,398.8,125.25Z"/>
			<path class="orj10cls-3" d="M410.85,132c21.19-11.88,67.05-5.43,85.92,5.15s3.58,21.27-17.61,33.15-40.27,20.45-59.13,9.87S389.66,143.89,410.85,132Z"/>
			<path class="orj10cls-2" d="M424.44,139.63c-10.83,6.08-28.4,6.08-39.24,0s-10.83-15.92,0-22,28.4-6.07,39.24,0S435.28,133.55,424.44,139.63Z"/>
			<rect class="orj10cls-4" width="576" height="602"/>
		</g>
	</g>
</svg>