<svg xmlns="http://www.w3.org/2000/svg" viewBox="0 0 576 602">
	<defs>
		<style>
			.colorcls-1{fill:#ff0;}
			.colorcls-2{fill:#fcf8a9;}
			.picls-3{fill:#39b44a;}
			.picls-3,.picls-4{fill-rule:evenodd;}
			.picls-4{fill:#f6921e;}
			.picls-5,.picls-7{fill:#fff;}
			.picls-5{opacity:0.5;}
			.picls-6{opacity:0.25;}
			.picls-8{fill:none;}
		</style>
	</defs>
	<title>
		Recurso 241
	</title>
	<g id="Capa_2" data-name="Capa 2">
		<g id="Capa_3" data-name="Capa 3">
			<path class="colorcls-1" d="M504.27,292.14c0,100-95.9,77.22-214.19,77.22S75.89,392.14,75.89,292.14s95.9-181.07,214.19-181.07S504.27,192.13,504.27,292.14Z"/>
			<path class="colorcls-2" d="M333.3,155.81l-75.74,6c-33.58,2.65-63.56-16.47-67-42.73l-1.52-11.77C185.68,81,257.16,9.56,290.75,6.9L319.48,49c33.58-2.65,63.56,16.47,67,42.73L388,103.47C391.35,129.72,366.88,153.15,333.3,155.81Z"/>
			<path class="colorcls-1" d="M414.5,215l-238.15,21.5c-33.58,3-63.56-18.81-67-48.79l-1.52-13.44c-3.4-30,21.07-56.73,54.66-59.76L400.68,93c33.58-3,63.56,18.81,67,48.79l1.52,13.44C472.56,185.19,448.09,211.95,414.5,215Z"/>
			<path class="colorcls-2" d="M456.36,287.88,134.49,316.94c-33.58,3-63.56-18.81-67-48.79L66,254.71c-3.4-30,21.07-56.73,54.66-59.76l321.87-29.05c33.58-3,63.56,18.81,67,48.79L511,228.12C514.42,258.09,489.95,284.85,456.36,287.88Z"/>
		</g>
		<g id="Capa_1-2" data-name="Capa 1">
			<path class="picls-3" d="M243.09,67.72c-7.44-4.49-12.38-11.19-13.45-18.26l9.56.41a74.76,74.76,0,0,1-8.43-19.49c-.38-1.42-.62-3.1.77-4.11s3.78-.81,5.7-.38a42,42,0,0,1,15,6.43,9.91,9.91,0,0,0,4.35,2.16c3.94.53,6.45-3.1,6.82-6.05s.38-6.51,3.77-8.09c4.45-2.08,9.83,1.24,13.16,4.26l8.3,7.53a4,4,0,0,0,2.82,1.33A3.32,3.32,0,0,0,294,31.33L301,18c6.35,4.72,10.78,10.84,12.57,17.37,4.39-4.42,11.77-7.11,19.17-7A49,49,0,0,1,325.24,47l21.37-4.51C345.4,54,335.47,64.86,321.45,69.92Z"/>
			<path class="picls-4" d="M326.82,62.68c11.54,0,20.89,6,20.89,13.3,0,3.09-1.66,5.93-4.43,8.19,6.83,2.19,11.53,6.69,11.53,11.89,0,4-2.79,7.6-7.19,10,4.4,2.44,7.19,6,7.19,10,0,4.22-3.08,8-7.89,10.41a9.66,9.66,0,0,1,2.37,6.16c0,6.71-7.79,12.25-17.93,13.17-2.21,5.84-10.46,10.18-20.3,10.18a31.91,31.91,0,0,1-6.53-.67q-.35.32-.73.62h0a18.72,18.72,0,0,1-2.53,1.7h0l-.89.48-.11.05-.88.41-.09,0q-1,.44-2.06.8l-.09,0-.94.3-.25.07-.83.22-.28.07-.92.21-.19,0-1.15.21-.17,0-1,.14-.37,0-.81.08-.41,0-.83,0-.37,0-1.21,0-1.21,0-.37,0-.83,0-.41,0-.81-.08-.37,0-1-.14-.17,0-1.15-.21-.19,0-.92-.21-.28-.07-.83-.22-.25-.07-.94-.3-.09,0q-1.07-.36-2.06-.8l-.09,0-.88-.41-.11-.05-.89-.48h0A18.72,18.72,0,0,1,271,156h0q-.38-.3-.73-.62a31.91,31.91,0,0,1-6.53.67c-9.84,0-18.09-4.34-20.3-10.18-10.13-.92-17.93-6.46-17.93-13.17a9.66,9.66,0,0,1,2.37-6.16c-4.81-2.44-7.89-6.19-7.89-10.41,0-4,2.79-7.6,7.19-10-4.4-2.44-7.19-6-7.19-10,0-5.2,4.69-9.71,11.53-11.89-2.77-2.26-4.43-5.1-4.43-8.19,0-7.35,9.35-13.3,20.89-13.3Z"/>
			<path class="picls-5" d="M334.06,104.72,333,104l-8.87,5.36-18-10.85,12.15-7.34-1.08-.73L305,97.81l-19.21-11.6L302.53,76.1l-1.08-.73-16.8,10.14-16.8-10.14-1.08.73L283.5,86.21l-19.21,11.6-12.21-7.37-1.08.73,12.15,7.34-18,10.85L236.31,104l-1.08.73L244,110l-3.29,2,1.08.73,3.35-2,19.21,11.6-7.88,4.76,1.08.73,7.94-4.79,18,10.85-11.22,6.78,1.08.73,11.28-6.81,11.28,6.81,1.08-.73-11.22-6.78,18-10.85,7.94,4.79,1.08-.73-7.88-4.76,19.21-11.6,3.35,2,1.08-.73-3.29-2ZM284.64,86.9l19.21,11.6-19.21,11.6L265.43,98.5ZM246.32,110l18-10.85,19.21,11.6-18,10.85Zm38.32,23.14-18-10.85,18-10.85,18,10.85Zm19.11-11.54-18-10.85L305,99.19,323,110Z"/>
			<g class="picls-6">
				<path class="picls-7" d="M249.32,39.51c-1-.76-2.62.32-1.67,1.07a73,73,0,0,1,16.07,17.31c.57.88,2.86.5,2.28-.4A75.52,75.52,0,0,0,249.32,39.51Z"/>
				<path class="picls-7" d="M318.35,42.49c-6.71,4.89-10.81,10.74-12.09,17.18-.19,1,2.18,1,2.36,0,1.19-6,5.14-11.56,11.39-16.11C321,42.83,319.35,41.76,318.35,42.49Z"/>
				<path class="picls-7" d="M301.41,41.21a56,56,0,0,0-14.34,15c-1.37-6.25-4.77-12.15-10.15-17.49-.82-.81-2.87-.06-2,.76,5.7,5.66,9.18,12,10.19,18.67a.79.79,0,0,0,.53.57l-.09.16c-.49.92,1.79,1.31,2.28.4a52,52,0,0,1,15.29-17C304.07,41.54,302.4,40.47,301.41,41.21Z"/>
			</g>
			<rect class="picls-8" width="576" height="602"/>
		</g>
	</g>
</svg>