<svg xmlns="http://www.w3.org/2000/svg" viewBox="0 0 576 602"><defs><style>.cls-1{fill:#39b44a;}.cls-2{fill:#fbed21;}.cls-3{fill:#29aae1;}.cls-4{fill:#f05a24;}.cls-5{fill:#ec1e79;}.cls-6{fill:#fff;}.cls-7{fill:#aa7dd1;}.cls-8{fill:none;}</style></defs><title>Recurso 178</title><g id="Capa_2" data-name="Capa 2"><g id="Capa_1-2" data-name="Capa 1"><ellipse class="cls-1" cx="206.76" cy="169" rx="18" ry="15" transform="translate(-41.63 70.96) rotate(-17.72)"/><ellipse class="cls-1" cx="242.76" cy="57" rx="18" ry="15" transform="translate(-5.83 76.61) rotate(-17.72)"/><ellipse class="cls-2" cx="144.76" cy="204.5" rx="17" ry="13.5" transform="translate(-105.72 198.45) rotate(-53.32)"/><ellipse class="cls-3" cx="219.76" cy="241.5" rx="19" ry="14.5" transform="translate(-106.4 226.13) rotate(-45)"/><ellipse class="cls-3" cx="87.76" cy="298.5" rx="19" ry="14.5" transform="translate(-185.37 149.49) rotate(-45)"/><ellipse class="cls-4" cx="153.76" cy="275" rx="17" ry="15" transform="translate(-154.18 208.35) rotate(-48.58)"/><ellipse class="cls-5" cx="171.76" cy="331" rx="17" ry="15" transform="translate(-190.08 240.8) rotate(-48.58)"/><ellipse class="cls-4" cx="334.76" cy="275" rx="15" ry="20" transform="translate(-59.27 455.09) rotate(-63.97)"/><ellipse class="cls-6" cx="414.76" cy="331" rx="20" ry="15"/><ellipse class="cls-1" cx="485.76" cy="311" rx="20" ry="15" transform="translate(-86.8 380.73) rotate(-39.57)"/><ellipse class="cls-2" cx="438.76" cy="261" rx="14" ry="19" transform="translate(-70.94 289.96) rotate(-34)"/><ellipse class="cls-6" cx="290.76" cy="236" rx="14" ry="19" transform="translate(-82.26 202.93) rotate(-34)"/><ellipse class="cls-6" cx="313.76" cy="84" rx="14" ry="19" transform="translate(6.67 189.81) rotate(-34)"/><ellipse class="cls-2" cx="251.76" cy="139" rx="14" ry="19" transform="translate(-34.69 164.54) rotate(-34)"/><ellipse class="cls-5" cx="296.76" cy="171.5" rx="18" ry="12.5"/><ellipse class="cls-5" cx="323.76" cy="39.5" rx="18" ry="12.5"/><ellipse class="cls-3" cx="362.76" cy="151.5" rx="18" ry="12.5"/><ellipse class="cls-2" cx="243.26" cy="311.5" rx="18.5" ry="13.5"/><ellipse class="cls-7" cx="378.26" cy="209.5" rx="18.5" ry="13.5"/><ellipse class="cls-4" cx="438.26" cy="199.5" rx="18.5" ry="13.5"/><ellipse class="cls-1" cx="314.26" cy="336.5" rx="18.5" ry="13.5"/><rect class="cls-8" width="576" height="602"/></g></g></svg>