<svg xmlns="http://www.w3.org/2000/svg" viewBox="0 0 576 602">
	<defs>
		<style>
			.colorcls-1{fill:#ff0;}
			.colorcls-2{fill:#fcf8a9;}
			.sparcls-3{fill:#39b44a;}
			.sparcls-4{fill:#fbed21;}
			.sparcls-5{fill:#29aae1;}
			.sparcls-6{fill:#f05a24;}
			.sparcls-7{fill:#ec1e79;}
			.sparcls-8{fill:#fff;}
			.sparcls-9{fill:#aa7dd1;}
			.sparcls-10{fill:none;}
		</style>
	</defs>
	<title>
		Recurso 218
	</title>
	<g id="Capa_2" data-name="Capa 2">
		<g id="Capa_3" data-name="Capa 3">
			<path class="colorcls-1" d="M504.27,292.14c0,100-95.9,77.22-214.19,77.22S75.89,392.14,75.89,292.14s95.9-181.07,214.19-181.07S504.27,192.13,504.27,292.14Z"/>
			<path class="colorcls-2" d="M333.3,155.81l-75.74,6c-33.58,2.65-63.56-16.47-67-42.73l-1.52-11.77C185.68,81,257.16,9.56,290.75,6.9L319.48,49c33.58-2.65,63.56,16.47,67,42.73L388,103.47C391.35,129.72,366.88,153.15,333.3,155.81Z"/>
			<path class="colorcls-1" d="M414.5,215l-238.15,21.5c-33.58,3-63.56-18.81-67-48.79l-1.52-13.44c-3.4-30,21.07-56.73,54.66-59.76L400.68,93c33.58-3,63.56,18.81,67,48.79l1.52,13.44C472.56,185.19,448.09,211.95,414.5,215Z"/>
			<path class="colorcls-2" d="M456.36,287.88,134.49,316.94c-33.58,3-63.56-18.81-67-48.79L66,254.71c-3.4-30,21.07-56.73,54.66-59.76l321.87-29.05c33.58-3,63.56,18.81,67,48.79L511,228.12C514.42,258.09,489.95,284.85,456.36,287.88Z"/>
		</g>
		<g id="Capa_1-2" data-name="Capa 1">
			<ellipse class="sparcls-3" cx="206.76" cy="169" rx="18" ry="15" transform="translate(-41.63 70.96) rotate(-17.72)"/>
			<ellipse class="sparcls-3" cx="242.76" cy="57" rx="18" ry="15" transform="translate(-5.83 76.61) rotate(-17.72)"/>
			<ellipse class="sparcls-4" cx="144.76" cy="204.5" rx="17" ry="13.5" transform="translate(-105.72 198.45) rotate(-53.32)"/>
			<ellipse class="sparcls-5" cx="219.76" cy="241.5" rx="19" ry="14.5" transform="translate(-106.4 226.13) rotate(-45)"/>
			<ellipse class="sparcls-5" cx="87.76" cy="298.5" rx="19" ry="14.5" transform="translate(-185.37 149.49) rotate(-45)"/>
			<ellipse class="sparcls-6" cx="153.76" cy="275" rx="17" ry="15" transform="translate(-154.18 208.35) rotate(-48.58)"/>
			<ellipse class="sparcls-7" cx="171.76" cy="331" rx="17" ry="15" transform="translate(-190.08 240.8) rotate(-48.58)"/>
			<ellipse class="sparcls-6" cx="334.76" cy="275" rx="15" ry="20" transform="translate(-59.27 455.09) rotate(-63.97)"/>
			<ellipse class="sparcls-8" cx="414.76" cy="331" rx="20" ry="15"/>
			<ellipse class="sparcls-3" cx="485.76" cy="311" rx="20" ry="15" transform="translate(-86.8 380.73) rotate(-39.57)"/>
			<ellipse class="sparcls-4" cx="438.76" cy="261" rx="14" ry="19" transform="translate(-70.94 289.96) rotate(-34)"/>
			<ellipse class="sparcls-8" cx="290.76" cy="236" rx="14" ry="19" transform="translate(-82.26 202.93) rotate(-34)"/>
			<ellipse class="sparcls-8" cx="313.76" cy="84" rx="14" ry="19" transform="translate(6.67 189.81) rotate(-34)"/>
			<ellipse class="sparcls-4" cx="251.76" cy="139" rx="14" ry="19" transform="translate(-34.69 164.54) rotate(-34)"/>
			<ellipse class="sparcls-7" cx="296.76" cy="171.5" rx="18" ry="12.5"/>
			<ellipse class="sparcls-7" cx="323.76" cy="39.5" rx="18" ry="12.5"/>
			<ellipse class="sparcls-5" cx="362.76" cy="151.5" rx="18" ry="12.5"/>
			<ellipse class="sparcls-4" cx="243.26" cy="311.5" rx="18.5" ry="13.5"/>
			<ellipse class="sparcls-9" cx="378.26" cy="209.5" rx="18.5" ry="13.5"/>
			<ellipse class="sparcls-6" cx="438.26" cy="199.5" rx="18.5" ry="13.5"/>
			<ellipse class="sparcls-3" cx="314.26" cy="336.5" rx="18.5" ry="13.5"/>
			<rect class="sparcls-10" width="576" height="602"/>
		</g>
	</g>
</svg>