<svg xmlns="http://www.w3.org/2000/svg" viewBox="0 0 576 602"><defs><style>.cls-1{fill:#ec1e79;}.cls-2{fill:lime;}.cls-3{fill:aqua;}.cls-4{fill:none;}</style></defs><title>Recurso 180</title><g id="Capa_2" data-name="Capa 2"><g id="Capa_1-2" data-name="Capa 1"><ellipse class="cls-1" cx="206.76" cy="169" rx="18" ry="15" transform="matrix(0.95, -0.3, 0.3, 0.95, -41.63, 70.96)"/><ellipse class="cls-2" cx="144.76" cy="204.5" rx="17" ry="13.5" transform="translate(-105.72 198.45) rotate(-53.32)"/><ellipse class="cls-3" cx="219.76" cy="241.5" rx="19" ry="14.5" transform="translate(-106.4 226.13) rotate(-45)"/><ellipse class="cls-3" cx="87.76" cy="298.5" rx="19" ry="14.5" transform="translate(-185.37 149.49) rotate(-45)"/><ellipse class="cls-1" cx="153.76" cy="275" rx="17" ry="15" transform="translate(-154.18 208.35) rotate(-48.58)"/><ellipse class="cls-1" cx="171.76" cy="331" rx="17" ry="15" transform="translate(-190.08 240.8) rotate(-48.58)"/><ellipse class="cls-1" cx="362.76" cy="277" rx="15" ry="20" transform="translate(-45.35 481.37) rotate(-63.97)"/><ellipse class="cls-1" cx="414.76" cy="331" rx="20" ry="15"/><ellipse class="cls-3" cx="485.76" cy="311" rx="20" ry="15" transform="translate(-86.8 380.73) rotate(-39.57)"/><ellipse class="cls-2" cx="438.76" cy="261" rx="14" ry="19" transform="translate(-70.94 289.96) rotate(-34)"/><ellipse class="cls-1" cx="290.76" cy="236" rx="14" ry="19" transform="translate(-82.26 202.93) rotate(-34)"/><ellipse class="cls-1" cx="394.76" cy="111" rx="14" ry="19" transform="translate(5.42 239.71) rotate(-34)"/><ellipse class="cls-2" cx="251.76" cy="139" rx="14" ry="19" transform="translate(-34.69 164.54) rotate(-34)"/><ellipse class="cls-2" cx="153.76" cy="111" rx="14" ry="19" transform="translate(-35.78 104.95) rotate(-34)"/><ellipse class="cls-1" cx="296.76" cy="171.5" rx="18" ry="12.5"/><ellipse class="cls-1" cx="261.76" cy="47.5" rx="18" ry="12.5"/><ellipse class="cls-2" cx="362.76" cy="151.5" rx="18" ry="12.5"/><ellipse class="cls-2" cx="243.26" cy="311.5" rx="18.5" ry="13.5"/><ellipse class="cls-3" cx="378.26" cy="209.5" rx="18.5" ry="13.5"/><ellipse class="cls-3" cx="314.26" cy="98.5" rx="18.5" ry="13.5"/><ellipse class="cls-1" cx="438.26" cy="199.5" rx="18.5" ry="13.5"/><ellipse class="cls-3" cx="314.26" cy="336.5" rx="18.5" ry="13.5"/><rect class="cls-4" width="576" height="602"/></g></g></svg>