<svg xmlns="http://www.w3.org/2000/svg" viewBox="0 0 576 602">
	<defs>
		<style>
			.colorcls-1{fill:#ff0;}
			.colorcls-2{fill:#fcf8a9;}
			.spar2cls-3{fill:#009145;}
			.spar2cls-4{fill:#ff31d8;}
			.spar2cls-5{fill:#77007a;}
			.spar2cls-6{fill:#ff3364;}
			.spar2cls-7{fill:none;}
		</style>
	</defs>
	<title>
		Recurso 230
	</title>
	<g id="Capa_2" data-name="Capa 2">
		<g id="Capa_3" data-name="Capa 3">
			<path class="colorcls-1" d="M504.27,292.14c0,100-95.9,77.22-214.19,77.22S75.89,392.14,75.89,292.14s95.9-181.07,214.19-181.07S504.27,192.13,504.27,292.14Z"/>
			<path class="colorcls-2" d="M333.3,155.81l-75.74,6c-33.58,2.65-63.56-16.47-67-42.73l-1.52-11.77C185.68,81,257.16,9.56,290.75,6.9L319.48,49c33.58-2.65,63.56,16.47,67,42.73L388,103.47C391.35,129.72,366.88,153.15,333.3,155.81Z"/>
			<path class="colorcls-1" d="M414.5,215l-238.15,21.5c-33.58,3-63.56-18.81-67-48.79l-1.52-13.44c-3.4-30,21.07-56.73,54.66-59.76L400.68,93c33.58-3,63.56,18.81,67,48.79l1.52,13.44C472.56,185.19,448.09,211.95,414.5,215Z"/>
			<path class="colorcls-2" d="M456.36,287.88,134.49,316.94c-33.58,3-63.56-18.81-67-48.79L66,254.71c-3.4-30,21.07-56.73,54.66-59.76l321.87-29.05c33.58-3,63.56,18.81,67,48.79L511,228.12C514.42,258.09,489.95,284.85,456.36,287.88Z"/>
		</g>
		<g id="Capa_1-2" data-name="Capa 1">
			<circle class="spar2cls-3" cx="212.51" cy="233.63" r="19.54"/>
			<circle class="spar2cls-4" cx="264.76" cy="269.74" r="19.54"/>
			<circle class="spar2cls-3" cx="333.76" cy="315.74" r="19.54"/>
			<circle class="spar2cls-5" cx="192.76" cy="315.74" r="19.54"/>
			<circle class="spar2cls-6" cx="383.07" cy="272.04" r="19.54"/>
			<circle class="spar2cls-6" cx="441.46" cy="229.02" r="19.54"/>
			<circle class="spar2cls-5" cx="470.46" cy="301.02" r="19.54"/>
			<circle class="spar2cls-6" cx="129.54" cy="255.14" r="19.54"/>
			<circle class="spar2cls-3" cx="97.54" cy="319.14" r="19.54"/>
			<circle class="spar2cls-5" cx="136.45" cy="195.21" r="19.54"/>
			<circle class="spar2cls-4" cx="200.49" cy="145.3" r="19.54"/>
			<circle class="spar2cls-3" cx="264.59" cy="117.83" r="19.54"/>
			<circle class="spar2cls-6" cx="277.41" cy="173.99" r="19.54"/>
			<circle class="spar2cls-4" cx="334.19" cy="128.21" r="19.54"/>
			<circle class="spar2cls-4" cx="382.42" cy="184.37" r="19.54"/>
			<circle class="spar2cls-5" cx="334.19" cy="227.1" r="19.54"/>
			<circle class="spar2cls-6" cx="306.41" cy="53.99" r="19.54"/>
			<circle class="spar2cls-6" cx="415.41" cy="123.99" r="19.54"/>
			<rect class="spar2cls-7" width="576" height="602"/>
		</g>
	</g>
</svg>