<svg xmlns="http://www.w3.org/2000/svg" viewBox="0 0 576 602"><defs><style>.cls-1{fill:#754c24;}.cls-2,.cls-3{fill:none;}.cls-2{stroke:#603813;stroke-miterlimit:10;stroke-width:4px;}</style></defs><title>Recurso 164</title><g id="Capa_2" data-name="Capa 2"><g id="Capa_4" data-name="Capa 4"><rect class="cls-1" x="364.75" y="18" width="132" height="273" rx="7.67" ry="7.67" transform="translate(231.77 -257.59) rotate(44.49)"/><path class="cls-2" d="M403.5,118c5.35,5.25-3.65,14.41,1.7,19.67s14.35-3.9,19.7,1.35-3.65,14.42,1.7,19.67,14.35-3.9,19.7,1.35-3.65,14.42,1.71,19.68,14.35-3.9,19.7,1.36"/><path class="cls-2" d="M429.66,91.86c5.35,5.25-3.65,14.41,1.7,19.67s14.35-3.9,19.7,1.35-3.65,14.42,1.7,19.67,14.35-3.9,19.7,1.35-3.65,14.42,1.71,19.68,14.35-3.9,19.7,1.36"/><path class="cls-2" d="M455.83,65.7c5.35,5.25-3.65,14.41,1.7,19.67s14.35-3.9,19.7,1.35-3.65,14.42,1.7,19.67,14.35-3.9,19.7,1.35-3.65,14.42,1.71,19.68,14.35-3.9,19.7,1.36"/><path class="cls-2" d="M482,39.54c5.35,5.25-3.65,14.41,1.7,19.67s14.35-3.9,19.7,1.35-3.65,14.42,1.7,19.67,14.35-3.9,19.7,1.35-3.65,14.42,1.71,19.68,14.35-3.9,19.7,1.36"/><path class="cls-2" d="M325,196.52c5.35,5.25-3.65,14.41,1.7,19.67s14.35-3.9,19.7,1.35-3.65,14.42,1.7,19.67,14.35-3.9,19.7,1.35-3.65,14.42,1.71,19.68,14.35-3.9,19.7,1.36"/><path class="cls-2" d="M351.17,170.35c5.35,5.25-3.65,14.41,1.7,19.67s14.35-3.9,19.7,1.35-3.65,14.42,1.7,19.67,14.35-3.9,19.7,1.35-3.65,14.42,1.71,19.68,14.35-3.9,19.7,1.36"/><path class="cls-2" d="M377.34,144.19c5.35,5.25-3.65,14.41,1.7,19.67s14.35-3.9,19.7,1.35-3.65,14.42,1.7,19.67,14.35-3.9,19.7,1.35-3.65,14.42,1.71,19.68,14.35-3.9,19.7,1.36"/></g><g id="Capa_1-2" data-name="Capa 1"><rect class="cls-3" width="576" height="602"/></g></g></svg>