<svg xmlns="http://www.w3.org/2000/svg" viewBox="0 0 576 602"><defs><style>.cls-1{fill:#f8f9d2;}.cls-2{fill:none;}</style></defs><title>Recurso 93</title><g id="Capa_2" data-name="Capa 2"><g id="Capa_3" data-name="Capa 3"><path class="cls-1" d="M271.24,165.33c0,19.44-20.67,35.2-46.17,35.2s-46.18-15.76-46.18-35.2,20.68-35.19,46.18-35.19S271.24,145.89,271.24,165.33Z"/><path d="M255.59,173.57c0,6.65-7.08,12-15.8,12s-15.8-5.39-15.8-12,7.08-12,15.8-12S255.59,166.92,255.59,173.57Z"/><path class="cls-1" d="M380.61,165.33c0,19.44-20.68,35.2-46.18,35.2s-46.17-15.76-46.17-35.2,20.67-35.19,46.17-35.19S380.61,145.89,380.61,165.33Z"/><ellipse cx="315.42" cy="172.57" rx="15.8" ry="12.04"/><rect class="cls-2" width="576" height="602"/></g></g></svg>