<svg xmlns="http://www.w3.org/2000/svg" viewBox="0 0 576 602"><defs><style>.cls-1{fill:#f8f9d2;}.cls-2{fill:none;}</style></defs><title>Recurso 85</title><g id="Capa_2" data-name="Capa 2"><g id="Capa_3" data-name="Capa 3"><path class="cls-1" d="M278.75,172c0,13.86-14.74,25.1-32.93,25.1s-32.93-11.24-32.93-25.1,14.75-25.1,32.93-25.1S278.75,158.11,278.75,172Z"/><path d="M267.59,177.84c0,4.75-5,8.59-11.27,8.59s-11.26-3.84-11.26-8.59,5-8.58,11.26-8.58S267.59,173.1,267.59,177.84Z"/><path class="cls-1" d="M356.74,172c0,13.86-14.74,25.1-32.93,25.1s-32.93-11.24-32.93-25.1,14.75-25.1,32.93-25.1S356.74,158.11,356.74,172Z"/><ellipse cx="307.4" cy="172.85" rx="11.27" ry="8.59"/><rect class="cls-2" width="576" height="602"/></g></g></svg>