<svg xmlns="http://www.w3.org/2000/svg" xmlns:xlink="http://www.w3.org/1999/xlink" viewBox="0 0 576 602"><defs><style>.cls-1{fill:none;}.cls-2{fill:#232d1c;}.cls-3{clip-path:url(#clip-path);}.cls-4{fill:#fff;}</style><clipPath id="clip-path"><path class="cls-1" d="M137.44,243.31c0,33,66,61.2,147.47,61.2s147.47-28.2,147.47-61.2Z"/></clipPath></defs><title>Recurso 78</title><g id="Capa_2" data-name="Capa 2"><g id="Capa_3" data-name="Capa 3"><rect class="cls-1" width="576" height="602"/><path class="cls-2" d="M141.44,246.31c0,38,66,68.31,147.47,68.31s147.47-30.31,147.47-68.31Z"/><path d="M137.44,256.45c0,37.86,66,68.37,147.47,68.37s147.47-30.54,147.47-68.4l-.13-16.11H136.31Z"/><g class="cls-3"><path class="cls-4" d="M179.94,257.5H163.82a10.07,10.07,0,0,1-10-10h0a10.07,10.07,0,0,1,10-10h16.12a10.07,10.07,0,0,1,10,10h0A10.07,10.07,0,0,1,179.94,257.5Z"/><path class="cls-4" d="M217.41,257.5H201.29a10.07,10.07,0,0,1-10-10h0a10.07,10.07,0,0,1,10-10h16.12a10.06,10.06,0,0,1,10,10h0A10.06,10.06,0,0,1,217.41,257.5Z"/><path class="cls-4" d="M404.73,257.5H388.61a10.07,10.07,0,0,1-10-10h0a10.07,10.07,0,0,1,10-10h16.12a10.07,10.07,0,0,1,10,10h0A10.07,10.07,0,0,1,404.73,257.5Z"/><path class="cls-4" d="M367.27,257.5H351.15a10.07,10.07,0,0,1-10-10h0a10.07,10.07,0,0,1,10-10h16.12a10.06,10.06,0,0,1,10,10h0A10.06,10.06,0,0,1,367.27,257.5Z"/><path class="cls-4" d="M329.8,257.5H313.68a10.07,10.07,0,0,1-10-10h0a10.07,10.07,0,0,1,10-10H329.8a10.07,10.07,0,0,1,10,10h0A10.07,10.07,0,0,1,329.8,257.5Z"/><path class="cls-4" d="M254.87,257.5H238.75a10.07,10.07,0,0,1-10-10h0a10.07,10.07,0,0,1,10-10h16.12a10.07,10.07,0,0,1,10,10h0A10.07,10.07,0,0,1,254.87,257.5Z"/><path class="cls-4" d="M292.34,257.5H276.22a10.07,10.07,0,0,1-10-10h0a10.07,10.07,0,0,1,10-10h16.12a10.06,10.06,0,0,1,10,10h0A10.06,10.06,0,0,1,292.34,257.5Z"/><path class="cls-4" d="M179.94,307.68H163.82a10.07,10.07,0,0,1-10-10h0a10.06,10.06,0,0,1,10-10h16.12a10.06,10.06,0,0,1,10,10h0A10.07,10.07,0,0,1,179.94,307.68Z"/><path class="cls-4" d="M217.41,307.68H201.29a10.07,10.07,0,0,1-10-10h0a10.06,10.06,0,0,1,10-10h16.12a10.05,10.05,0,0,1,10,10h0A10.06,10.06,0,0,1,217.41,307.68Z"/><path class="cls-4" d="M404.73,307.68H388.61a10.07,10.07,0,0,1-10-10h0a10.06,10.06,0,0,1,10-10h16.12a10.06,10.06,0,0,1,10,10h0A10.07,10.07,0,0,1,404.73,307.68Z"/><path class="cls-4" d="M367.27,307.68H351.15a10.07,10.07,0,0,1-10-10h0a10.06,10.06,0,0,1,10-10h16.12a10.05,10.05,0,0,1,10,10h0A10.06,10.06,0,0,1,367.27,307.68Z"/><path class="cls-4" d="M329.8,307.68H313.68a10.07,10.07,0,0,1-10-10h0a10.06,10.06,0,0,1,10-10H329.8a10.06,10.06,0,0,1,10,10h0A10.07,10.07,0,0,1,329.8,307.68Z"/><path class="cls-4" d="M254.87,307.68H238.75a10.07,10.07,0,0,1-10-10h0a10.06,10.06,0,0,1,10-10h16.12a10.06,10.06,0,0,1,10,10h0A10.07,10.07,0,0,1,254.87,307.68Z"/><path class="cls-4" d="M292.34,307.68H276.22a10.07,10.07,0,0,1-10-10h0a10.06,10.06,0,0,1,10-10h16.12a10.05,10.05,0,0,1,10,10h0A10.06,10.06,0,0,1,292.34,307.68Z"/></g></g></g></svg>