<svg xmlns="http://www.w3.org/2000/svg" viewBox="0 0 576 602"><defs><style>.cls-1{opacity:0.3;}.cls-2{fill:#ffa100;}.cls-3{fill:#e58800;}.cls-4,.cls-9{fill:none;}.cls-4{stroke:#b26b04;stroke-miterlimit:10;stroke-width:3.28px;}.cls-5{fill:#faaf3b;}.cls-6{fill:#f8f9d2;}.cls-7{fill:#b2803f;}.cls-8{fill:#ffb852;}</style></defs><title>02Recurso 22</title><g id="Capa_2" data-name="Capa 2"><g id="Capa_1-2" data-name="Capa 1"><ellipse class="cls-1" cx="287.8" cy="406.41" rx="253.91" ry="122.44"/><path class="cls-2" d="M515.1,394.74c0,53.9-101.59,97.59-226.92,97.59S61.26,448.64,61.26,394.74c0-9.07-.79-194-.86-211.4-.33-86.1,233.59-86,233.59-86,29.07,1.94,220.69,2.35,221.66,89.37C515.87,206.15,515.1,384.91,515.1,394.74Z"/><ellipse class="cls-2" cx="288.18" cy="183.81" rx="226.92" ry="111.05"/><path class="cls-3" d="M288.39,497.33c-7.52,0-14.11-4.64-19.92-8.74-4.25-3-8.64-6.09-12-6.31-3.7-.25-8.65,2.32-13.44,4.81-6.45,3.35-13.13,6.81-20.25,5.83-7.6-1.05-13.53-6.66-18.76-11.61-3.72-3.52-7.56-7.15-10.74-7.85-3.73-.82-9.08.93-14.25,2.62-6.91,2.26-14.06,4.61-20.85,2.42-7.65-2.47-12.53-9.34-16.83-15.4-2.85-4-5.79-8.17-8.57-9.46-3.67-1.71-9.32-1.39-14.78-1.08-7.41.42-15.07.85-20.92-3.34-7.55-5.4-9.47-14.49-11.16-22.52-.89-4.21-1.8-8.57-3.37-10.77-2.08-2.93-5.82-5.81-9.43-8.6C66.25,402,58.47,396,58.47,386.74a6,6,0,0,1,12,0c0,3.38,5.07,7.29,10,11.08,4.31,3.32,8.77,6.76,11.88,11.15s4.19,9.84,5.33,15.25c1.3,6.17,2.64,12.55,6.4,15.23,2.42,1.73,7.93,1.42,13.27,1.12,6.62-.37,14.12-.79,20.52,2.19,5.66,2.64,9.54,8.11,13.29,13.4,3.38,4.76,6.87,9.68,10.72,10.92,3.09,1,8.35-.73,13.44-2.4,6.39-2.09,13.63-4.47,20.57-2.94,6.44,1.42,11.51,6.22,16.41,10.86,4.11,3.89,8.37,7.92,12.16,8.44,3.33.46,8.29-2.11,13.08-4.59,6.25-3.25,12.72-6.6,19.76-6.13,6.72.45,12.51,4.53,18.11,8.48,4.57,3.22,9.29,6.55,13,6.55s8.44-3.33,13-6.55c5.6-3.95,11.39-8,18.11-8.48,7-.47,13.5,2.89,19.76,6.13,4.79,2.48,9.74,5.05,13.08,4.59,3.79-.52,8-4.55,12.16-8.44,4.9-4.64,10-9.44,16.41-10.86,6.93-1.53,14.18.85,20.56,2.94,5.09,1.67,10.35,3.39,13.43,2.4,3.86-1.24,7.35-6.16,10.72-10.92,3.75-5.29,7.63-10.76,13.29-13.39,6.4-3,13.9-2.56,20.52-2.19,5.34.3,10.85.61,13.27-1.12,3.75-2.68,5.1-9.06,6.4-15.23,1.14-5.41,2.32-11,5.33-15.25s7.58-7.82,11.88-11.15c4.91-3.78,10-7.7,10-11.08a6,6,0,0,1,12,0c0,9.28-7.79,15.29-14.65,20.58-3.61,2.79-7.35,5.67-9.43,8.6-1.57,2.2-2.48,6.56-3.37,10.77-1.69,8-3.61,17.12-11.16,22.52-5.85,4.19-13.51,3.76-20.92,3.34-5.46-.31-11.11-.62-14.78,1.08-2.78,1.3-5.73,5.45-8.57,9.46-4.3,6.06-9.18,12.93-16.83,15.4-6.79,2.19-13.94-.15-20.85-2.42-5.17-1.7-10.51-3.45-14.24-2.62-3.19.7-7,4.34-10.75,7.85-5.23,5-11.16,10.56-18.76,11.61-7.12,1-13.79-2.48-20.25-5.83-4.79-2.48-9.76-5.06-13.43-4.81-3.36.22-7.75,3.32-12,6.31C302.5,492.69,295.91,497.33,288.39,497.33Z"/><path class="cls-3" d="M288.39,449.33c-7.52,0-14.11-4.64-19.92-8.74-4.25-3-8.64-6.09-12-6.31-3.7-.25-8.65,2.32-13.44,4.81-6.45,3.35-13.13,6.81-20.25,5.83-7.6-1.05-13.53-6.66-18.76-11.61-3.72-3.52-7.56-7.15-10.74-7.85-3.73-.82-9.08.93-14.25,2.62-6.91,2.26-14.06,4.61-20.85,2.42-7.65-2.47-12.53-9.34-16.83-15.4-2.85-4-5.79-8.17-8.57-9.46-3.67-1.71-9.32-1.39-14.78-1.08-7.41.42-15.07.85-20.92-3.34-7.55-5.4-9.47-14.49-11.16-22.52-.89-4.21-1.8-8.57-3.37-10.77-2.08-2.93-5.82-5.81-9.43-8.6C66.25,354,58.47,348,58.47,338.74a6,6,0,0,1,12,0c0,3.38,5.07,7.29,10,11.08,4.31,3.32,8.77,6.76,11.88,11.15s4.19,9.84,5.33,15.25c1.3,6.17,2.64,12.55,6.4,15.23,2.42,1.73,7.93,1.42,13.27,1.12,6.62-.37,14.12-.79,20.52,2.19,5.66,2.64,9.54,8.11,13.29,13.4,3.38,4.76,6.87,9.68,10.72,10.92,3.09,1,8.35-.73,13.44-2.4,6.39-2.09,13.63-4.47,20.57-2.94,6.44,1.42,11.51,6.22,16.41,10.86,4.11,3.89,8.37,7.92,12.16,8.44,3.33.46,8.29-2.11,13.08-4.59,6.25-3.25,12.72-6.6,19.76-6.13,6.72.45,12.51,4.53,18.11,8.48,4.57,3.22,9.29,6.55,13,6.55s8.44-3.33,13-6.55c5.6-3.95,11.39-8,18.11-8.48,7-.47,13.5,2.89,19.76,6.13,4.79,2.48,9.74,5.05,13.08,4.59,3.79-.52,8-4.55,12.16-8.44,4.9-4.64,10-9.44,16.41-10.86,6.93-1.53,14.18.85,20.56,2.94,5.09,1.67,10.35,3.39,13.43,2.4,3.86-1.24,7.35-6.16,10.72-10.92,3.75-5.29,7.63-10.76,13.29-13.39,6.4-3,13.9-2.56,20.52-2.19,5.34.3,10.85.61,13.27-1.12,3.75-2.68,5.1-9.06,6.4-15.23,1.14-5.41,2.32-11,5.33-15.25s7.58-7.82,11.88-11.15c4.91-3.78,10-7.7,10-11.08a6,6,0,0,1,12,0c0,9.28-7.79,15.29-14.65,20.58-3.61,2.79-7.35,5.67-9.43,8.6-1.57,2.2-2.48,6.56-3.37,10.77-1.69,8-3.61,17.12-11.16,22.52-5.85,4.19-13.51,3.76-20.92,3.34-5.46-.31-11.11-.63-14.78,1.08-2.78,1.3-5.73,5.45-8.57,9.46-4.3,6.06-9.18,12.93-16.83,15.4-6.79,2.19-13.94-.15-20.85-2.42-5.17-1.7-10.51-3.45-14.24-2.62-3.19.7-7,4.34-10.75,7.85-5.23,5-11.16,10.56-18.76,11.61-7.12,1-13.79-2.48-20.25-5.83-4.79-2.48-9.76-5.05-13.43-4.81-3.36.22-7.75,3.32-12,6.31C302.5,444.69,295.91,449.33,288.39,449.33Z"/><path class="cls-3" d="M288.39,403.33c-7.52,0-14.11-4.64-19.92-8.74-4.25-3-8.64-6.09-12-6.31-3.7-.24-8.65,2.32-13.44,4.81-6.45,3.35-13.13,6.81-20.25,5.83-7.6-1.05-13.53-6.66-18.76-11.61-3.72-3.52-7.56-7.15-10.74-7.85-3.73-.82-9.08.93-14.25,2.62-6.91,2.26-14.06,4.61-20.85,2.42-7.65-2.47-12.53-9.34-16.83-15.4-2.85-4-5.79-8.17-8.57-9.46-3.67-1.71-9.32-1.39-14.78-1.08-7.41.42-15.07.85-20.92-3.34-7.55-5.4-9.47-14.49-11.16-22.52-.89-4.21-1.8-8.57-3.37-10.77-2.08-2.93-5.82-5.81-9.43-8.6C66.25,308,58.47,302,58.47,292.74a6,6,0,0,1,12,0c0,3.38,5.07,7.29,10,11.08,4.31,3.32,8.77,6.76,11.88,11.15s4.19,9.84,5.33,15.25c1.3,6.17,2.64,12.55,6.4,15.23,2.42,1.73,7.93,1.42,13.27,1.12,6.62-.37,14.12-.79,20.52,2.19,5.66,2.64,9.54,8.11,13.29,13.4,3.38,4.76,6.87,9.68,10.72,10.92,3.09,1,8.35-.73,13.44-2.4,6.39-2.09,13.63-4.47,20.57-2.94,6.44,1.42,11.51,6.22,16.41,10.86,4.11,3.89,8.37,7.92,12.16,8.44,3.33.46,8.29-2.11,13.08-4.59,6.25-3.25,12.72-6.6,19.76-6.13,6.72.45,12.51,4.53,18.11,8.48,4.57,3.22,9.29,6.55,13,6.55s8.44-3.33,13-6.55c5.6-3.95,11.39-8,18.11-8.48,7-.47,13.5,2.89,19.76,6.13,4.79,2.48,9.74,5.05,13.08,4.59,3.79-.52,8-4.55,12.16-8.44,4.9-4.64,10-9.44,16.41-10.86,6.93-1.53,14.18.85,20.56,2.94,5.09,1.67,10.35,3.39,13.43,2.4,3.86-1.24,7.35-6.16,10.72-10.92,3.75-5.29,7.63-10.76,13.29-13.39,6.4-3,13.9-2.56,20.52-2.19,5.34.3,10.85.61,13.27-1.12,3.75-2.68,5.1-9.06,6.4-15.23,1.14-5.41,2.32-11,5.33-15.25s7.58-7.82,11.88-11.15c4.91-3.78,10-7.7,10-11.08a6,6,0,0,1,12,0c0,9.28-7.79,15.29-14.65,20.58-3.61,2.79-7.35,5.67-9.43,8.6-1.57,2.2-2.48,6.56-3.37,10.77-1.69,8-3.61,17.12-11.16,22.52-5.85,4.19-13.51,3.76-20.92,3.34-5.46-.31-11.11-.62-14.78,1.08-2.78,1.3-5.73,5.45-8.57,9.46-4.3,6.06-9.18,12.93-16.83,15.4-6.79,2.19-13.94-.15-20.85-2.42-5.17-1.7-10.51-3.45-14.24-2.62-3.19.7-7,4.34-10.75,7.85-5.23,5-11.16,10.56-18.76,11.61-7.12,1-13.79-2.48-20.25-5.83-4.79-2.48-9.76-5.06-13.43-4.81-3.36.22-7.75,3.32-12,6.31C302.5,398.69,295.91,403.33,288.39,403.33Z"/><path class="cls-3" d="M288.39,357.33c-7.52,0-14.11-4.64-19.92-8.74-4.25-3-8.64-6.09-12-6.31-3.7-.24-8.65,2.32-13.44,4.81-6.45,3.35-13.13,6.81-20.25,5.83-7.6-1.05-13.53-6.66-18.76-11.61-3.72-3.52-7.56-7.15-10.74-7.85-3.73-.82-9.08.93-14.25,2.62-6.91,2.26-14.06,4.61-20.85,2.42-7.65-2.47-12.53-9.34-16.83-15.4-2.85-4-5.79-8.17-8.57-9.46-3.67-1.71-9.32-1.39-14.78-1.08-7.41.42-15.07.85-20.92-3.34-7.55-5.4-9.47-14.49-11.16-22.52-.89-4.21-1.8-8.57-3.37-10.77-2.08-2.93-5.82-5.81-9.43-8.6C66.25,262,58.47,256,58.47,246.74a6,6,0,0,1,12,0c0,3.38,5.07,7.29,10,11.08,4.31,3.32,8.77,6.76,11.88,11.15s4.19,9.84,5.33,15.25c1.3,6.17,2.64,12.55,6.4,15.23,2.42,1.73,7.93,1.42,13.27,1.12,6.62-.37,14.12-.79,20.52,2.19,5.66,2.64,9.54,8.11,13.29,13.4,3.38,4.76,6.87,9.68,10.72,10.92,3.09,1,8.35-.73,13.44-2.4,6.39-2.09,13.63-4.47,20.57-2.94,6.44,1.42,11.51,6.22,16.41,10.86,4.11,3.89,8.37,7.92,12.16,8.44,3.33.46,8.29-2.11,13.08-4.59,6.25-3.25,12.72-6.6,19.76-6.13,6.72.45,12.51,4.53,18.11,8.48,4.57,3.22,9.29,6.55,13,6.55s8.44-3.33,13-6.55c5.6-3.95,11.39-8,18.11-8.48,7-.47,13.5,2.89,19.76,6.13,4.79,2.48,9.74,5.05,13.08,4.59,3.79-.52,8-4.55,12.16-8.44,4.9-4.64,10-9.44,16.41-10.86,6.93-1.53,14.18.85,20.56,2.94,5.09,1.67,10.35,3.39,13.43,2.4,3.86-1.24,7.35-6.16,10.72-10.92,3.75-5.29,7.63-10.76,13.29-13.39,6.4-3,13.9-2.56,20.52-2.19,5.34.3,10.85.61,13.27-1.12,3.75-2.68,5.1-9.06,6.4-15.23,1.14-5.41,2.32-11,5.33-15.25s7.58-7.82,11.88-11.15c4.91-3.78,10-7.7,10-11.08a6,6,0,0,1,12,0c0,9.28-7.79,15.29-14.65,20.58-3.61,2.79-7.35,5.67-9.43,8.6-1.57,2.2-2.48,6.56-3.37,10.77-1.69,8-3.61,17.12-11.16,22.52-5.85,4.19-13.51,3.76-20.92,3.34-5.46-.31-11.11-.62-14.78,1.08-2.78,1.3-5.73,5.45-8.57,9.46-4.3,6.06-9.18,12.93-16.83,15.4-6.79,2.19-13.94-.15-20.85-2.42-5.17-1.7-10.51-3.45-14.24-2.62-3.19.7-7,4.34-10.75,7.85-5.23,5-11.16,10.56-18.76,11.61-7.12,1-13.79-2.48-20.25-5.83-4.79-2.48-9.76-5.06-13.43-4.81-3.36.22-7.75,3.32-12,6.31C302.5,352.69,295.91,357.33,288.39,357.33Z"/><path class="cls-3" d="M288.39,309.33c-7.52,0-14.11-4.64-19.92-8.74-4.25-3-8.64-6.09-12-6.31-3.7-.24-8.65,2.33-13.44,4.81-6.45,3.35-13.13,6.81-20.25,5.83-7.6-1.05-13.53-6.66-18.76-11.61-3.72-3.52-7.56-7.15-10.74-7.85-3.73-.82-9.08.93-14.25,2.62-6.91,2.26-14.06,4.61-20.85,2.42-7.65-2.47-12.53-9.34-16.83-15.4-2.85-4-5.79-8.17-8.57-9.46-3.67-1.71-9.32-1.39-14.78-1.08-7.41.42-15.07.85-20.92-3.34-7.55-5.4-9.47-14.49-11.16-22.52-.89-4.21-1.8-8.57-3.37-10.77-2.08-2.93-5.82-5.81-9.43-8.6C66.25,214,58.47,208,58.47,198.74a6,6,0,0,1,12,0c0,3.38,5.07,7.29,10,11.08,4.31,3.32,8.77,6.76,11.88,11.15s4.19,9.84,5.33,15.25c1.3,6.17,2.64,12.55,6.4,15.23,2.42,1.73,7.93,1.42,13.27,1.12,6.62-.37,14.12-.79,20.52,2.19,5.66,2.64,9.54,8.11,13.29,13.4,3.38,4.76,6.87,9.68,10.72,10.92,3.09,1,8.35-.73,13.44-2.4,6.39-2.09,13.63-4.47,20.57-2.94,6.44,1.42,11.51,6.22,16.41,10.86,4.11,3.89,8.37,7.92,12.16,8.44,3.33.46,8.29-2.11,13.08-4.59,6.25-3.25,12.72-6.6,19.76-6.13,6.72.45,12.51,4.53,18.11,8.48,4.57,3.22,9.29,6.55,13,6.55s8.44-3.33,13-6.55c5.6-3.95,11.39-8,18.11-8.48,7-.46,13.5,2.89,19.76,6.13,4.79,2.48,9.74,5.05,13.08,4.59,3.79-.52,8-4.55,12.16-8.44,4.9-4.64,10-9.44,16.41-10.86,6.93-1.53,14.18.85,20.56,2.94,5.09,1.67,10.35,3.39,13.43,2.4,3.86-1.24,7.35-6.16,10.72-10.92,3.75-5.29,7.63-10.76,13.29-13.39,6.4-3,13.9-2.56,20.52-2.19,5.34.3,10.85.61,13.27-1.12,3.75-2.68,5.1-9.06,6.4-15.23,1.14-5.41,2.32-11,5.33-15.25s7.58-7.82,11.88-11.15c4.91-3.78,10-7.7,10-11.08a6,6,0,0,1,12,0c0,9.28-7.79,15.29-14.65,20.58-3.61,2.79-7.35,5.67-9.43,8.6-1.57,2.2-2.48,6.56-3.37,10.77-1.69,8-3.61,17.12-11.16,22.52-5.85,4.19-13.51,3.76-20.92,3.34-5.46-.31-11.11-.63-14.78,1.08-2.78,1.3-5.73,5.45-8.57,9.46-4.3,6.06-9.18,12.93-16.83,15.4-6.79,2.19-13.94-.15-20.85-2.42-5.17-1.7-10.51-3.45-14.24-2.62-3.19.7-7,4.34-10.75,7.85-5.23,5-11.16,10.56-18.76,11.61-7.12,1-13.79-2.48-20.25-5.83-4.79-2.48-9.76-5.06-13.43-4.81-3.36.22-7.75,3.32-12,6.31C302.5,304.69,295.91,309.33,288.39,309.33Z"/><path class="cls-2" d="M146.28,76,202,100l.11.05c5.57,2.45,5,7.09-1,9.24L132.58,134c-5.5,2-13.1,0-13.16-3.57,0,0,0,0,0-.07V82.76C119.42,75.4,135.52,71.33,146.28,76Z"/><path class="cls-4" d="M146.28,76,202,100l.11.05c5.57,2.45,5,7.09-1,9.24L132.58,134c-5.5,2-13.1,0-13.16-3.57,0,0,0,0,0-.07V82.76C119.42,75.4,135.52,71.33,146.28,76Z"/><path class="cls-2" d="M433.4,76l-55.69,24-.11.05c-5.57,2.45-5,7.09,1,9.24L447.1,134c5.5,2,13.1,0,13.16-3.57V82.76C460.26,75.4,444.16,71.33,433.4,76Z"/><path class="cls-4" d="M433.4,76l-55.69,24-.11.05c-5.57,2.45-5,7.09,1,9.24L447.1,134c5.5,2,13.1,0,13.16-3.57V82.76C460.26,75.4,444.16,71.33,433.4,76Z"/><path class="cls-5" d="M148.39,83.6l41.39,17.87.09,0c4.14,1.82,3.68,5.28-.77,6.88L138.23,126.7c-4.09,1.47-9.76,0-9.8-2.64V88.64C128.43,83.17,140.39,80.15,148.39,83.6Z"/><path class="cls-5" d="M432,83.12,390.66,101l-.08,0c-4.14,1.82-3.68,5.28.77,6.88l50.86,18.31c4.09,1.47,9.76,0,9.8-2.64V88.17C452,82.69,440,79.67,432,83.12Z"/><path d="M155,169.39q-21.94-1.68-43.29-4.87c-8.38-1.25-12,5.67-3.59,6.92q21.34,3.19,43.29,4.87c3.64.28,7.22-.48,8.31-2.51.91-1.68-1.11-4.14-4.72-4.41Z"/><path d="M147.28,182.54l-43.18-1.79c-8.67-.36-8.63,6.82,0,7.17l43.18,1.79c8.67.36,8.63-6.82,0-7.17Z"/><path d="M149.52,195.38c-13.61.75-27.27,1.8-41,2-8.68.1-8.71,7.27,0,7.17,13.7-.15,27.35-1.21,41-2,3.63-.2,6.76-1.51,6.76-3.59,0-1.79-3.1-3.79-6.76-3.59Z"/><path d="M421.41,169.39q21.94-1.68,43.29-4.87c8.38-1.25,12,5.67,3.59,6.92Q447,174.63,425,176.31c-3.64.28-7.22-.48-8.31-2.51-.91-1.68,1.11-4.14,4.72-4.41Z"/><path d="M429.09,182.54l43.18-1.79c8.67-.36,8.63,6.82,0,7.17l-43.18,1.79c-8.67.36-8.63-6.82,0-7.17Z"/><path d="M426.85,195.38c13.61.75,27.27,1.8,41,2,8.68.1,8.71,7.27,0,7.17-13.7-.15-27.35-1.21-41-2-3.63-.2-6.76-1.51-6.76-3.59,0-1.79,3.1-3.79,6.76-3.59Z"/><ellipse class="cls-6" cx="251.33" cy="143.59" rx="30.46" ry="16.17"/><ellipse cx="257.74" cy="144.16" rx="10.42" ry="5.53"/><ellipse class="cls-6" cx="323.48" cy="143.59" rx="30.46" ry="16.17"/><ellipse cx="312.25" cy="144.16" rx="10.42" ry="5.53"/><path class="cls-7" d="M342.86,159.64c-21.33,0-40.46,5.2-53.4,13.43-12.95-8.23-32.07-13.43-53.41-13.43-39,0-70.61,17.39-70.61,38.85s67.64,63.62,106.64,63.62h34.75c39,0,106.64-42.17,106.64-63.62S381.86,159.64,342.86,159.64Z"/><path class="cls-8" d="M342.86,154.48c-21.33,0-40.46,5-53.4,13-12.95-7.94-32.07-13-53.41-13-39,0-70.61,16.79-70.61,37.49s67.64,61.4,106.64,61.4h34.75c39,0,106.64-40.7,106.64-61.4S381.86,154.48,342.86,154.48Z"/><path d="M259.52,170.17c5-3.64,51.67-4.38,59.46-.51,3.5,1.74,3,5.87.41,8.16-7.38,6.59-22,12.18-27.62,14.16a6.83,6.83,0,0,1-4.5,0c-5.83-2-21.46-7.81-28.21-13.71A5.07,5.07,0,0,1,259.52,170.17Z"/><ellipse cx="210.03" cy="174.81" rx="5.97" ry="3.17"/><ellipse cx="237.06" cy="189.16" rx="5.97" ry="3.17"/><ellipse cx="198.32" cy="189.16" rx="5.97" ry="3.17"/><ellipse cx="222.64" cy="202.07" rx="5.97" ry="3.17"/><ellipse cx="363.16" cy="174.81" rx="5.97" ry="3.17"/><ellipse cx="390.19" cy="189.16" rx="5.97" ry="3.17"/><ellipse cx="351.45" cy="189.16" rx="5.97" ry="3.17"/><ellipse cx="375.77" cy="202.07" rx="5.97" ry="3.17"/><path d="M334.33,225a7.28,7.28,0,0,0-6.1-.09c-.1.05-10.15,5-20.14,4a22.49,22.49,0,0,1-14.95-7.84V189.4c0-1.19-1.81-2.15-4.05-2.15s-4.05,1-4.05,2.15v31.74a1.53,1.53,0,0,0-.21.43,22.55,22.55,0,0,1-15,7.86c-10.11,1.05-20.34-3.93-20.48-4a7.27,7.27,0,0,0-6.09.1c-1.63.92-1.55,2.37.18,3.24A58,58,0,0,0,267,234.15a44,44,0,0,0,4.48-.23,32.39,32.39,0,0,0,17.81-7.13,32.43,32.43,0,0,0,17.24,6.66,43.11,43.11,0,0,0,4.35.22,56.87,56.87,0,0,0,23.32-5.4C335.91,227.4,336,226,334.33,225Z"/><path d="M326.59,93.75a97.85,97.85,0,0,1-3.19-19.39q-6.67-.64-13.49-1a97.62,97.62,0,0,0,3.3,21.4C314.43,99.29,327.83,98.32,326.59,93.75Z"/><path d="M295.3,95.58l2.35-22.75q-4.28-.1-8.6-.11-2.45,0-4.88,0Q283,83.69,281.91,94.63C281.43,99.22,294.82,100.19,295.3,95.58Z"/><path d="M264.91,91c1.77-6,4.72-12,7.52-17.93q-7.22.33-14.28.94a111.76,111.76,0,0,0-6.63,16C250.19,94.66,263.58,95.59,264.91,91Z"/><rect class="cls-9" width="576" height="602"/></g></g></svg>