<svg xmlns="http://www.w3.org/2000/svg" viewBox="0 0 576 602"><defs><style>.cls-1{opacity:0.3;}.cls-2,.cls-7,.cls-9{fill:#fdc325;}.cls-3{fill:#e5ad23;}.cls-12,.cls-14,.cls-4{fill:none;}.cls-4,.cls-7,.cls-9{stroke:#d09b18;}.cls-10,.cls-12,.cls-4,.cls-7,.cls-9{stroke-miterlimit:10;}.cls-4{stroke-width:9.15px;}.cls-5{fill:#7c5c14;}.cls-6{fill:#d09b18;}.cls-7{stroke-width:4.1px;}.cls-8{fill:#c4c4a9;}.cls-9{stroke-width:5.64px;}.cls-10,.cls-11{fill:#d60028;}.cls-10,.cls-12{stroke:#9b0525;stroke-width:3.28px;}.cls-13{fill:#f8f9d2;}</style></defs><title>02Recurso 3</title><g id="Capa_2" data-name="Capa 2"><g id="Capa_1-2" data-name="Capa 1"><ellipse class="cls-1" cx="287.8" cy="422.43" rx="253.91" ry="122.44"/><path class="cls-2" d="M515.1,410.76c0,53.9-101.59,97.59-226.92,97.59S61.26,464.65,61.26,410.76c0-9.07-.79-194-.86-211.4-.33-86.1,233.59-86,233.59-86,29.07,1.94,220.69,2.35,221.66,89.37C515.87,222.17,515.1,400.93,515.1,410.76Z"/><ellipse class="cls-2" cx="288.18" cy="199.83" rx="226.92" ry="111.05"/><path class="cls-3" d="M288.39,513.35c-7.52,0-14.11-4.64-19.92-8.74-4.25-3-8.64-6.09-12-6.31-3.7-.24-8.65,2.32-13.44,4.81-6.45,3.35-13.13,6.81-20.25,5.83-7.6-1.05-13.53-6.66-18.76-11.61-3.72-3.52-7.56-7.15-10.74-7.85-3.73-.82-9.08.93-14.25,2.62-6.91,2.27-14.06,4.61-20.85,2.42-7.65-2.47-12.53-9.34-16.83-15.4-2.85-4-5.79-8.16-8.57-9.46-3.67-1.71-9.32-1.39-14.78-1.08-7.41.42-15.07.85-20.92-3.34-7.55-5.4-9.47-14.49-11.16-22.52-.89-4.21-1.8-8.57-3.37-10.77-2.08-2.93-5.82-5.81-9.43-8.6C66.25,418,58.47,412,58.47,402.76a6,6,0,0,1,12,0c0,3.38,5.07,7.29,10,11.08,4.31,3.32,8.77,6.76,11.88,11.15s4.19,9.84,5.33,15.25c1.3,6.17,2.64,12.55,6.4,15.23,2.42,1.73,7.93,1.42,13.27,1.12,6.62-.37,14.12-.79,20.52,2.19,5.66,2.64,9.54,8.11,13.29,13.4,3.38,4.76,6.87,9.68,10.72,10.92,3.09,1,8.35-.73,13.44-2.4,6.39-2.09,13.63-4.47,20.57-2.94,6.44,1.42,11.51,6.22,16.41,10.86,4.11,3.89,8.37,7.92,12.16,8.44,3.33.46,8.29-2.11,13.08-4.59,6.25-3.24,12.72-6.6,19.76-6.13,6.72.45,12.51,4.53,18.11,8.48,4.57,3.22,9.29,6.55,13,6.55s8.44-3.33,13-6.55c5.6-3.95,11.39-8,18.11-8.48,7-.47,13.5,2.89,19.76,6.13,4.79,2.48,9.74,5.05,13.08,4.59,3.79-.52,8-4.55,12.16-8.44,4.9-4.64,10-9.44,16.41-10.86,6.93-1.53,14.18.84,20.56,2.94,5.09,1.67,10.35,3.39,13.43,2.4,3.86-1.24,7.35-6.16,10.72-10.92,3.75-5.29,7.63-10.76,13.29-13.39,6.4-3,13.9-2.56,20.52-2.19,5.34.3,10.85.61,13.27-1.12,3.75-2.68,5.1-9.06,6.4-15.23,1.14-5.41,2.32-11,5.33-15.25s7.58-7.82,11.88-11.15c4.91-3.78,10-7.7,10-11.08a6,6,0,0,1,12,0c0,9.28-7.79,15.29-14.65,20.58-3.61,2.79-7.35,5.67-9.43,8.6-1.57,2.2-2.48,6.56-3.37,10.77-1.69,8-3.61,17.12-11.16,22.52-5.85,4.19-13.51,3.76-20.92,3.34-5.46-.31-11.11-.62-14.78,1.08-2.78,1.29-5.73,5.45-8.57,9.46-4.3,6.06-9.18,12.93-16.83,15.4-6.79,2.19-13.94-.15-20.85-2.42-5.17-1.69-10.51-3.45-14.24-2.62-3.19.7-7,4.34-10.75,7.85-5.23,4.95-11.16,10.56-18.76,11.61-7.12,1-13.79-2.48-20.25-5.83-4.79-2.49-9.76-5.06-13.43-4.81-3.36.22-7.75,3.32-12,6.31C302.5,508.7,295.91,513.35,288.39,513.35Z"/><path class="cls-3" d="M288.39,465.35c-7.52,0-14.11-4.64-19.92-8.74-4.25-3-8.64-6.09-12-6.31-3.7-.25-8.65,2.32-13.44,4.81-6.45,3.35-13.13,6.81-20.25,5.83-7.6-1.05-13.53-6.66-18.76-11.61-3.72-3.52-7.56-7.15-10.74-7.85-3.73-.82-9.08.93-14.25,2.62-6.91,2.27-14.06,4.61-20.85,2.42-7.65-2.47-12.53-9.34-16.83-15.4-2.85-4-5.79-8.16-8.57-9.46-3.67-1.71-9.32-1.39-14.78-1.08-7.41.42-15.07.85-20.92-3.34-7.55-5.4-9.47-14.49-11.16-22.52-.89-4.21-1.8-8.57-3.37-10.77-2.08-2.93-5.82-5.81-9.43-8.6C66.25,370,58.47,364,58.47,354.76a6,6,0,0,1,12,0c0,3.38,5.07,7.29,10,11.08,4.31,3.32,8.77,6.76,11.88,11.15s4.19,9.84,5.33,15.25c1.3,6.17,2.64,12.55,6.4,15.23,2.42,1.73,7.93,1.42,13.27,1.12,6.62-.37,14.12-.79,20.52,2.19,5.66,2.64,9.54,8.11,13.29,13.4,3.38,4.76,6.87,9.68,10.72,10.92,3.09,1,8.35-.73,13.44-2.4,6.39-2.09,13.63-4.47,20.57-2.94,6.44,1.42,11.51,6.22,16.41,10.86,4.11,3.89,8.37,7.92,12.16,8.44,3.33.46,8.29-2.11,13.08-4.59,6.25-3.24,12.72-6.6,19.76-6.13,6.72.45,12.51,4.53,18.11,8.48,4.57,3.22,9.29,6.55,13,6.55s8.44-3.33,13-6.55c5.6-3.95,11.39-8,18.11-8.48,7-.47,13.5,2.89,19.76,6.13,4.79,2.48,9.74,5.05,13.08,4.59,3.79-.52,8-4.55,12.16-8.44,4.9-4.64,10-9.44,16.41-10.86,6.93-1.53,14.18.84,20.56,2.94,5.09,1.67,10.35,3.39,13.43,2.4,3.86-1.24,7.35-6.16,10.72-10.92,3.75-5.29,7.63-10.76,13.29-13.39,6.4-3,13.9-2.56,20.52-2.19,5.34.3,10.85.61,13.27-1.12,3.75-2.68,5.1-9.06,6.4-15.23,1.14-5.41,2.32-11,5.33-15.25s7.58-7.82,11.88-11.15c4.91-3.78,10-7.7,10-11.08a6,6,0,0,1,12,0c0,9.28-7.79,15.29-14.65,20.58-3.61,2.79-7.35,5.67-9.43,8.6-1.57,2.2-2.48,6.56-3.37,10.77-1.69,8-3.61,17.12-11.16,22.52-5.85,4.19-13.51,3.76-20.92,3.34-5.46-.31-11.11-.63-14.78,1.08-2.78,1.29-5.73,5.45-8.57,9.46-4.3,6.06-9.18,12.93-16.83,15.4-6.79,2.19-13.94-.15-20.85-2.42-5.17-1.69-10.51-3.45-14.24-2.62-3.19.7-7,4.34-10.75,7.85-5.23,4.95-11.16,10.56-18.76,11.61-7.12,1-13.79-2.48-20.25-5.83-4.79-2.49-9.76-5.06-13.43-4.81-3.36.22-7.75,3.32-12,6.31C302.5,460.7,295.91,465.35,288.39,465.35Z"/><path class="cls-3" d="M288.39,419.35c-7.52,0-14.11-4.64-19.92-8.74-4.25-3-8.64-6.09-12-6.31-3.7-.24-8.65,2.32-13.44,4.81-6.45,3.35-13.13,6.81-20.25,5.83-7.6-1.05-13.53-6.66-18.76-11.61-3.72-3.52-7.56-7.15-10.74-7.85-3.73-.82-9.08.93-14.25,2.62-6.91,2.27-14.06,4.61-20.85,2.42-7.65-2.47-12.53-9.34-16.83-15.4-2.85-4-5.79-8.16-8.57-9.46-3.67-1.71-9.32-1.39-14.78-1.08-7.41.42-15.07.85-20.92-3.34-7.55-5.4-9.47-14.49-11.16-22.52-.89-4.21-1.8-8.57-3.37-10.77-2.08-2.93-5.82-5.81-9.43-8.6C66.25,324,58.47,318,58.47,308.76a6,6,0,0,1,12,0c0,3.38,5.07,7.29,10,11.08,4.31,3.32,8.77,6.76,11.88,11.15s4.19,9.84,5.33,15.25c1.3,6.17,2.64,12.55,6.4,15.23,2.42,1.73,7.93,1.42,13.27,1.12,6.62-.37,14.12-.79,20.52,2.19,5.66,2.64,9.54,8.11,13.29,13.4,3.38,4.76,6.87,9.68,10.72,10.92,3.09,1,8.35-.73,13.44-2.4,6.39-2.09,13.63-4.47,20.57-2.94,6.44,1.42,11.51,6.22,16.41,10.86,4.11,3.89,8.37,7.92,12.16,8.44,3.33.46,8.29-2.11,13.08-4.59,6.25-3.24,12.72-6.6,19.76-6.13,6.72.45,12.51,4.53,18.11,8.48,4.57,3.22,9.29,6.55,13,6.55s8.44-3.33,13-6.55c5.6-3.95,11.39-8,18.11-8.48,7-.47,13.5,2.89,19.76,6.13,4.79,2.48,9.74,5.05,13.08,4.59,3.79-.52,8-4.55,12.16-8.44,4.9-4.64,10-9.44,16.41-10.86,6.93-1.53,14.18.84,20.56,2.94,5.09,1.67,10.35,3.39,13.43,2.4,3.86-1.24,7.35-6.16,10.72-10.92,3.75-5.29,7.63-10.76,13.29-13.39,6.4-3,13.9-2.56,20.52-2.19,5.34.3,10.85.61,13.27-1.12,3.75-2.68,5.1-9.06,6.4-15.23,1.14-5.41,2.32-11,5.33-15.25s7.58-7.82,11.88-11.15c4.91-3.78,10-7.7,10-11.08a6,6,0,0,1,12,0c0,9.28-7.79,15.29-14.65,20.58-3.61,2.79-7.35,5.67-9.43,8.6-1.57,2.2-2.48,6.56-3.37,10.77-1.69,8-3.61,17.12-11.16,22.52-5.85,4.19-13.51,3.76-20.92,3.34-5.46-.31-11.11-.62-14.78,1.08-2.78,1.29-5.73,5.45-8.57,9.46-4.3,6.06-9.18,12.93-16.83,15.4-6.79,2.19-13.94-.15-20.85-2.42-5.17-1.69-10.51-3.45-14.24-2.62-3.19.7-7,4.34-10.75,7.85-5.23,4.95-11.16,10.56-18.76,11.61-7.12,1-13.79-2.48-20.25-5.83-4.79-2.49-9.76-5.06-13.43-4.81-3.36.22-7.75,3.32-12,6.31C302.5,414.7,295.91,419.35,288.39,419.35Z"/><path class="cls-3" d="M288.39,373.35c-7.52,0-14.11-4.64-19.92-8.74-4.25-3-8.64-6.09-12-6.31-3.7-.24-8.65,2.32-13.44,4.81-6.45,3.35-13.13,6.81-20.25,5.83-7.6-1.05-13.53-6.66-18.76-11.61-3.72-3.52-7.56-7.15-10.74-7.85-3.73-.82-9.08.93-14.25,2.62-6.91,2.27-14.06,4.61-20.85,2.42-7.65-2.47-12.53-9.34-16.83-15.4-2.85-4-5.79-8.16-8.57-9.46-3.67-1.71-9.32-1.39-14.78-1.08-7.41.42-15.07.85-20.92-3.34-7.55-5.4-9.47-14.49-11.16-22.52-.89-4.21-1.8-8.57-3.37-10.77-2.08-2.93-5.82-5.81-9.43-8.6C66.25,278,58.47,272,58.47,262.76a6,6,0,0,1,12,0c0,3.38,5.07,7.29,10,11.08,4.31,3.32,8.77,6.76,11.88,11.15s4.19,9.84,5.33,15.25c1.3,6.17,2.64,12.55,6.4,15.23,2.42,1.73,7.93,1.42,13.27,1.12,6.62-.37,14.12-.79,20.52,2.19,5.66,2.64,9.54,8.11,13.29,13.4,3.38,4.76,6.87,9.68,10.72,10.92,3.09,1,8.35-.73,13.44-2.4,6.39-2.09,13.63-4.47,20.57-2.94,6.44,1.42,11.51,6.22,16.41,10.86,4.11,3.89,8.37,7.92,12.16,8.44,3.33.46,8.29-2.11,13.08-4.59,6.25-3.24,12.72-6.6,19.76-6.13,6.72.45,12.51,4.53,18.11,8.48,4.57,3.22,9.29,6.55,13,6.55s8.44-3.33,13-6.55c5.6-3.95,11.39-8,18.11-8.48,7-.47,13.5,2.89,19.76,6.13,4.79,2.48,9.74,5.05,13.08,4.59,3.79-.52,8-4.55,12.16-8.44,4.9-4.64,10-9.44,16.41-10.86,6.93-1.53,14.18.84,20.56,2.94,5.09,1.67,10.35,3.39,13.43,2.4,3.86-1.24,7.35-6.16,10.72-10.92,3.75-5.29,7.63-10.76,13.29-13.39,6.4-3,13.9-2.56,20.52-2.19,5.34.3,10.85.61,13.27-1.12,3.75-2.68,5.1-9.06,6.4-15.23,1.14-5.41,2.32-11,5.33-15.25s7.58-7.82,11.88-11.15c4.91-3.78,10-7.7,10-11.08a6,6,0,0,1,12,0c0,9.28-7.79,15.29-14.65,20.58-3.61,2.79-7.35,5.67-9.43,8.6-1.57,2.2-2.48,6.56-3.37,10.77-1.69,8-3.61,17.12-11.16,22.52-5.85,4.19-13.51,3.76-20.92,3.34-5.46-.31-11.11-.62-14.78,1.08-2.78,1.29-5.73,5.45-8.57,9.46-4.3,6.06-9.18,12.93-16.83,15.4-6.79,2.19-13.94-.15-20.85-2.42-5.17-1.69-10.51-3.45-14.24-2.62-3.19.7-7,4.34-10.75,7.85-5.23,4.95-11.16,10.56-18.76,11.61-7.12,1-13.79-2.48-20.25-5.83-4.79-2.49-9.76-5.06-13.43-4.81-3.36.22-7.75,3.32-12,6.31C302.5,368.7,295.91,373.35,288.39,373.35Z"/><path class="cls-3" d="M288.39,325.35c-7.52,0-14.11-4.64-19.92-8.74-4.25-3-8.64-6.09-12-6.31-3.7-.24-8.65,2.32-13.44,4.81-6.45,3.35-13.13,6.81-20.25,5.83-7.6-1.05-13.53-6.66-18.76-11.61-3.72-3.52-7.56-7.15-10.74-7.85-3.73-.82-9.08.93-14.25,2.62-6.91,2.27-14.06,4.61-20.85,2.42-7.65-2.47-12.53-9.34-16.83-15.4-2.85-4-5.79-8.16-8.57-9.46-3.67-1.71-9.32-1.39-14.78-1.08-7.41.42-15.07.85-20.92-3.34-7.55-5.4-9.47-14.49-11.16-22.52-.89-4.21-1.8-8.57-3.37-10.77-2.08-2.93-5.82-5.81-9.43-8.6C66.25,230,58.47,224,58.47,214.76a6,6,0,0,1,12,0c0,3.38,5.07,7.29,10,11.08,4.31,3.32,8.77,6.76,11.88,11.15s4.19,9.84,5.33,15.25c1.3,6.17,2.64,12.55,6.4,15.23,2.42,1.73,7.93,1.42,13.27,1.12,6.62-.37,14.12-.79,20.52,2.19,5.66,2.64,9.54,8.11,13.29,13.4,3.38,4.76,6.87,9.68,10.72,10.92,3.09,1,8.35-.73,13.44-2.4,6.39-2.09,13.63-4.47,20.57-2.94,6.44,1.42,11.51,6.22,16.41,10.86,4.11,3.89,8.37,7.92,12.16,8.44,3.33.46,8.29-2.11,13.08-4.59,6.25-3.24,12.72-6.6,19.76-6.13,6.72.45,12.51,4.53,18.11,8.48,4.57,3.22,9.29,6.55,13,6.55s8.44-3.33,13-6.55c5.6-3.95,11.39-8,18.11-8.48,7-.47,13.5,2.89,19.76,6.13,4.79,2.48,9.74,5.05,13.08,4.59,3.79-.52,8-4.55,12.16-8.44,4.9-4.64,10-9.44,16.41-10.86,6.93-1.53,14.18.84,20.56,2.94,5.09,1.67,10.35,3.39,13.43,2.4,3.86-1.24,7.35-6.16,10.72-10.92,3.75-5.29,7.63-10.76,13.29-13.39,6.4-3,13.9-2.56,20.52-2.19,5.34.3,10.85.61,13.27-1.12,3.75-2.68,5.1-9.06,6.4-15.23,1.14-5.41,2.32-11,5.33-15.25s7.58-7.82,11.88-11.15c4.91-3.78,10-7.7,10-11.08a6,6,0,0,1,12,0c0,9.28-7.79,15.29-14.65,20.58-3.61,2.79-7.35,5.67-9.43,8.6-1.57,2.2-2.48,6.56-3.37,10.77-1.69,8-3.61,17.12-11.16,22.52-5.85,4.19-13.51,3.76-20.92,3.34-5.46-.31-11.11-.63-14.78,1.08-2.78,1.29-5.73,5.45-8.57,9.46-4.3,6.06-9.18,12.93-16.83,15.4-6.79,2.19-13.94-.15-20.85-2.42-5.17-1.69-10.51-3.45-14.24-2.62-3.19.7-7,4.34-10.75,7.85-5.23,4.95-11.16,10.56-18.76,11.61-7.12,1-13.79-2.48-20.25-5.83-4.79-2.49-9.76-5.06-13.43-4.81-3.36.22-7.75,3.32-12,6.31C302.5,320.7,295.91,325.35,288.39,325.35Z"/><path class="cls-2" d="M407.61,153.85l29.52-3.22a69,69,0,0,0,31.36-11.25c8.63-6,13.73-13.25,14.35-20.45h0c.62-7.2-3.3-13.48-11.06-17.67s-18.4-5.81-30-4.54A69,69,0,0,0,410.43,108c-8.63,6-13.73,13.25-14.35,20.45l-1.58,18.34c-.2,2.3,1.06,4.31,3.53,5.65A16.68,16.68,0,0,0,407.61,153.85Z"/><path class="cls-4" d="M407.61,153.85l29.52-3.22a69,69,0,0,0,31.36-11.25c8.63-6,13.73-13.25,14.35-20.45h0c.62-7.2-3.3-13.48-11.06-17.67s-18.4-5.81-30-4.54A69,69,0,0,0,410.43,108c-8.63,6-13.73,13.25-14.35,20.45l-1.58,18.34c-.2,2.3,1.06,4.31,3.53,5.65A16.68,16.68,0,0,0,407.61,153.85Z"/><path class="cls-5" d="M415.62,145.31l20.64-3.59a58.52,58.52,0,0,0,22.85-9.32c6.64-4.6,11-9.94,12.28-15h0c1.28-5.1-.67-9.34-5.49-12s-11.94-3.27-20-1.86A58.51,58.51,0,0,0,423,112.87c-6.64,4.6-11,9.94-12.28,15l-3.27,13a3.19,3.19,0,0,0,1.75,3.82A10.17,10.17,0,0,0,415.62,145.31Z"/><path class="cls-2" d="M178.34,152.4c2.48-1.34,3.73-3.35,3.53-5.65l-1.58-18.34c-.62-7.2-5.72-14.46-14.35-20.45a69,69,0,0,0-31.36-11.24c-11.59-1.27-22.24.35-30,4.54s-11.68,10.47-11.06,17.67h0c.62,7.2,5.72,14.46,14.35,20.45a69,69,0,0,0,31.36,11.25l29.52,3.22A16.68,16.68,0,0,0,178.34,152.4Z"/><path class="cls-4" d="M178.34,152.4c2.48-1.34,3.73-3.35,3.53-5.65l-1.58-18.34c-.62-7.2-5.72-14.46-14.35-20.45a69,69,0,0,0-31.36-11.24c-11.59-1.27-22.24.35-30,4.54s-11.68,10.47-11.06,17.67h0c.62,7.2,5.72,14.46,14.35,20.45a69,69,0,0,0,31.36,11.25l29.52,3.22A16.68,16.68,0,0,0,178.34,152.4Z"/><path class="cls-5" d="M167.15,144.72a3.19,3.19,0,0,0,1.75-3.82l-3.27-13c-1.28-5.1-5.64-10.44-12.28-15a58.51,58.51,0,0,0-22.85-9.32c-8.1-1.41-15.22-.75-20,1.86s-6.77,6.85-5.49,12h0c1.28,5.1,5.65,10.44,12.28,15a58.52,58.52,0,0,0,22.85,9.32l20.64,3.59A10.17,10.17,0,0,0,167.15,144.72Z"/><ellipse class="cls-6" cx="288.18" cy="232.11" rx="104.09" ry="44.75"/><ellipse class="cls-7" cx="288.18" cy="224.71" rx="104.09" ry="44.75"/><ellipse class="cls-8" cx="248.37" cy="164.95" rx="33.82" ry="14.54"/><ellipse class="cls-8" cx="328.46" cy="164.95" rx="33.82" ry="14.54"/><ellipse class="cls-6" cx="245.69" cy="223.86" rx="31.15" ry="13.39"/><ellipse class="cls-6" cx="327.73" cy="224.71" rx="31.15" ry="13.39"/><path class="cls-9" d="M256.45,111.08c1.29,2-1.48,4.11-6.18,4.67l-18.45,2.18c-4.7.56-9.56-.63-10.85-2.66l-43.12-47c-1.29-2,6.74-6.59,12-8.45,5-1.79,18.55-3.07,25.07-3.13,5.84-.05,20.55,3.86,21.84,5.88Z"/><path class="cls-10" d="M204.24,127.87c-.83-.29-1-.81-.29-1.16l2.61-1.39a3.88,3.88,0,0,1,2.7-.13l21.52,5.93c.83.29,1.05,1.79.39,2.15l-3.5,1.92a16.23,16.23,0,0,1-5.6.16Z"/><path class="cls-10" d="M198.7,128.84c-.12-.45.64-.86,1.69-.91l4.14-.2c1.05-.05,2,.27,2.13.73l5.61,10.72c.12.45-2.17,1.59-3.23,1.64l-5.63.31c-1.05.06-4.12-1.13-4.24-1.58Z"/><path class="cls-9" d="M319.44,111.08c-1.29,2,1.48,4.11,6.18,4.67l18.45,2.18c4.7.56,9.56-.63,10.85-2.66l43.12-47c1.29-2-6.71-6.9-10.6-8.18-5.2-1.7-19.89-3.34-26.42-3.4-5.63-.05-20.55,3.86-21.84,5.88Z"/><path class="cls-11" d="M207.85,129.09l18.67-1.43a56.36,56.36,0,0,0,19.83-5c5.46-2.66,8.68-5.88,9.08-9.08h0c.39-3.2-2.09-6-7-7.84s-11.64-2.58-19-2a56.39,56.39,0,0,0-19.83,5c-5.46,2.66-8.68,5.88-9.08,9.08l-1,8.14c-.13,1,.67,1.91,2.23,2.51A14.57,14.57,0,0,0,207.85,129.09Z"/><path class="cls-12" d="M207.85,129.09l18.67-1.43a56.36,56.36,0,0,0,19.83-5c5.46-2.66,8.68-5.88,9.08-9.08h0c.39-3.2-2.09-6-7-7.84s-11.64-2.58-19-2a56.39,56.39,0,0,0-19.83,5c-5.46,2.66-8.68,5.88-9.08,9.08l-1,8.14c-.13,1,.67,1.91,2.23,2.51A14.57,14.57,0,0,0,207.85,129.09Z"/><path class="cls-11" d="M200.22,125.81l-17.85-2.75a79.87,79.87,0,0,0-23,.09c-7.81,1.14-14.33,3.25-18.37,5.94h0c-4,2.69-5.1,5.64-3,8.3s7.12,4.72,14.13,5.8a79.83,79.83,0,0,0,23-.09c7.81-1.14,14.33-3.25,18.37-5.94l10.28-6.85c1.29-.86,1.63-1.8,1-2.65S202.46,126.15,200.22,125.81Z"/><path class="cls-12" d="M200.22,125.81l-17.85-2.75a79.87,79.87,0,0,0-23,.09c-7.81,1.14-14.33,3.25-18.37,5.94h0c-4,2.69-5.1,5.64-3,8.3s7.12,4.72,14.13,5.8a79.83,79.83,0,0,0,23-.09c7.81-1.14,14.33-3.25,18.37-5.94l10.28-6.85c1.29-.86,1.63-1.8,1-2.65S202.46,126.15,200.22,125.81Z"/><ellipse class="cls-13" cx="248.37" cy="162.93" rx="33.82" ry="14.54"/><ellipse cx="255.48" cy="163.44" rx="11.57" ry="4.97"/><ellipse class="cls-13" cx="328.46" cy="162.93" rx="33.82" ry="14.54"/><ellipse cx="316" cy="163.44" rx="11.57" ry="4.97"/><rect class="cls-14" width="576" height="602"/></g></g></svg>