<svg xmlns="http://www.w3.org/2000/svg" viewBox="0 0 443.72 443.72"><defs><style>.cls-1{fill:#ff3960;}.cls-2{fill:#fc7292;}.cls-3{fill:#ff7bab;}.cls-4{fill:#fff;}.cls-5{fill:#f8f9d2;}.cls-6{fill:#faaf3b;}.cls-7{fill:#c98224;}</style></defs><title>Recurso 20</title><g id="Capa_2" data-name="Capa 2"><g id="Capa_1-2" data-name="Capa 1"><circle class="cls-1" cx="221.86" cy="221.86" r="213.1"/><path class="cls-2" d="M221.86,443.72c-5.76,0-9.82-5.23-13.75-10.3-1.76-2.27-5-6.51-6.44-6.68s-5.59,3.46-7.81,5.39c-4.78,4.16-9.72,8.47-15.28,7.36s-8.59-7-11.45-12.75c-1.29-2.59-3.7-7.41-5-7.84s-6.13,2.29-8.68,3.75c-5.52,3.15-11.22,6.4-16.47,4.23s-7-8.56-8.7-14.72c-.77-2.81-2.19-8-3.43-8.71s-6.44,1-9.22,2c-6,2-12.27,4.08-17,.92s-5.2-9.75-5.65-16.11c-.2-2.91-.58-8.34-1.67-9.23s-6.5-.22-9.4.15c-6.32.8-12.85,1.62-16.88-2.41s-3.21-10.56-2.41-16.88c.37-2.9,1-8.31.15-9.4s-6.32-1.47-9.23-1.67c-6.36-.44-12.93-.9-16.11-5.65s-1.09-11,.92-17c.93-2.78,2.65-8,2-9.22s-5.9-2.66-8.71-3.43c-6.16-1.68-12.53-3.41-14.72-8.7s1.08-11,4.23-16.47c1.46-2.55,4.17-7.3,3.75-8.68s-5.25-3.75-7.84-5c-5.72-2.86-11.64-5.82-12.75-11.45s3.2-10.5,7.36-15.28c1.93-2.22,5.54-6.36,5.39-7.82s-4.41-4.68-6.68-6.44c-5.06-3.93-10.3-8-10.3-13.75S5.23,212,10.3,208.12c2.27-1.76,6.51-5,6.68-6.44s-3.46-5.59-5.39-7.82c-4.16-4.78-8.46-9.72-7.36-15.28s7-8.59,12.75-11.45c2.59-1.29,7.41-3.7,7.84-5s-2.29-6.13-3.75-8.68c-3.15-5.52-6.4-11.22-4.23-16.47s8.56-7,14.72-8.7c2.81-.77,8-2.19,8.71-3.43s-1-6.44-2-9.22c-2-6-4.09-12.27-.92-17s9.75-5.2,16.11-5.65c2.91-.2,8.34-.58,9.23-1.67s.22-6.5-.15-9.4C61.78,75.54,61,69,65,65s10.56-3.21,16.88-2.41c2.9.37,8.31,1,9.4.15s1.47-6.32,1.67-9.23c.44-6.36.9-12.93,5.65-16.11s11-1.09,17,.92c2.78.92,8,2.65,9.22,2s2.66-5.9,3.43-8.71c1.68-6.16,3.41-12.53,8.7-14.72s11,1.08,16.47,4.23c2.55,1.46,7.31,4.17,8.68,3.75s3.75-5.25,5-7.84c2.86-5.72,5.82-11.64,11.45-12.75s10.5,3.2,15.28,7.36c2.22,1.93,6.34,5.54,7.82,5.39s4.68-4.41,6.44-6.68C212,5.23,216.11,0,221.86,0s9.82,5.23,13.75,10.3c1.76,2.27,5,6.5,6.44,6.68s5.59-3.46,7.82-5.39c4.78-4.16,9.72-8.46,15.28-7.36s8.59,7,11.45,12.75c1.29,2.59,3.71,7.41,5,7.84s6.13-2.29,8.68-3.75c5.52-3.15,11.22-6.4,16.47-4.23s7,8.56,8.7,14.72c.77,2.81,2.19,8,3.43,8.71s6.44-1,9.22-2c6-2,12.28-4.08,17-.92s5.2,9.75,5.65,16.11c.2,2.91.58,8.34,1.67,9.23s6.5.22,9.4-.15c6.32-.8,12.85-1.62,16.88,2.41s3.21,10.56,2.41,16.88c-.37,2.9-1,8.31-.15,9.4s6.32,1.47,9.23,1.67c6.36.44,12.93.9,16.11,5.65s1.09,11-.92,17c-.93,2.78-2.65,8-2,9.22s5.9,2.66,8.71,3.43c6.16,1.68,12.53,3.41,14.72,8.7s-1.08,11-4.22,16.47c-1.46,2.55-4.17,7.3-3.75,8.68s5.25,3.75,7.84,5c5.72,2.86,11.64,5.82,12.75,11.45s-3.2,10.5-7.36,15.28c-1.93,2.22-5.54,6.36-5.39,7.82s4.41,4.68,6.68,6.44c5.06,3.93,10.3,8,10.3,13.75s-5.23,9.82-10.3,13.75c-2.27,1.76-6.5,5-6.68,6.44s3.46,5.59,5.39,7.82c4.16,4.78,8.46,9.72,7.36,15.28s-7,8.59-12.75,11.45c-2.59,1.29-7.41,3.71-7.84,5s2.29,6.13,3.75,8.68c3.15,5.52,6.4,11.22,4.23,16.47s-8.56,7-14.72,8.7c-2.81.77-8,2.19-8.71,3.43s1,6.44,2,9.22c2,6,4.08,12.27.92,17s-9.75,5.2-16.11,5.65c-2.91.2-8.34.58-9.23,1.67s-.22,6.5.15,9.4c.8,6.32,1.62,12.85-2.41,16.88s-10.56,3.21-16.88,2.41c-2.9-.37-8.31-1-9.4-.15s-1.47,6.32-1.67,9.23c-.44,6.36-.9,12.93-5.65,16.11s-11,1.09-17-.92c-2.78-.93-8-2.65-9.22-2s-2.66,5.9-3.43,8.71c-1.68,6.16-3.42,12.53-8.7,14.72s-11-1.08-16.47-4.22c-2.55-1.46-7.31-4.16-8.68-3.75s-3.75,5.25-5,7.84c-2.86,5.72-5.82,11.64-11.45,12.75s-10.5-3.2-15.28-7.36c-2.22-1.93-6.36-5.49-7.82-5.39s-4.68,4.41-6.44,6.68C231.68,438.49,227.62,443.72,221.86,443.72Zm-20.23-26c.3,0,.61,0,.91,0,5.22.51,9,5.4,12.68,10.12,1.7,2.19,5.23,6.74,6.64,6.81,1.41-.08,4.94-4.63,6.63-6.81,3.67-4.73,7.46-9.61,12.68-10.12s10,3.59,14.59,7.56c2.15,1.87,6.12,5.32,7.58,5.32h.06c1.34-.37,3.9-5.49,5.13-7.95,2.68-5.36,5.45-10.9,10.48-12.43s10.51,1.55,15.75,4.54c2.52,1.44,7.21,4.12,8.57,3.72,1.24-.64,2.73-6.13,3.45-8.77,1.58-5.79,3.21-11.79,7.86-14.27s10.59-.54,16.31,1.37c2.77.92,7.92,2.63,9.16,2,1.08-.88,1.48-6.54,1.67-9.25.42-6,.85-12.2,4.94-15.56S357,371.47,363,372.22c2.9.37,8.3,1,9.39.15.88-1.08.2-6.48-.16-9.38-.75-6-1.53-12.15,1.83-16.24s9.56-4.52,15.56-4.94c2.72-.19,8.38-.58,9.26-1.68.65-1.23-1.06-6.38-2-9.15-1.9-5.72-3.87-11.63-1.37-16.31s8.48-6.28,14.28-7.86c2.64-.72,8.13-2.22,8.78-3.47.39-1.33-2.29-6-3.73-8.55-3-5.24-6.09-10.67-4.54-15.75s7.07-7.8,12.43-10.48c2.46-1.23,7.58-3.79,7.95-5.15.1-1.38-3.43-5.44-5.32-7.62-4-4.56-8.08-9.29-7.56-14.6s5.39-9,10.12-12.68c2.19-1.7,6.73-5.22,6.81-6.64-.08-1.41-4.63-4.94-6.81-6.64-4.73-3.67-9.61-7.46-10.12-12.68s3.59-10,7.56-14.6c1.9-2.18,5.43-6.24,5.32-7.64-.37-1.34-5.49-3.9-7.95-5.13-5.36-2.68-10.9-5.45-12.43-10.48s1.55-10.51,4.54-15.75c1.44-2.52,4.12-7.22,3.72-8.57-.64-1.24-6.13-2.73-8.77-3.45-5.79-1.58-11.79-3.21-14.27-7.86s-.54-10.59,1.37-16.31c.92-2.77,2.63-7.92,2-9.16-.88-1.08-6.53-1.48-9.25-1.67-6-.42-12.2-.85-15.56-4.94s-2.58-10.27-1.83-16.24c.37-2.9,1-8.31.15-9.4-1.08-.89-6.48-.2-9.38.16-6,.75-12.15,1.53-16.24-1.83s-4.52-9.56-4.94-15.56c-.19-2.72-.58-8.38-1.68-9.26-1.23-.65-6.38,1.06-9.15,2-5.72,1.9-11.63,3.87-16.31,1.37s-6.28-8.48-7.86-14.28c-.72-2.64-2.22-8.13-3.47-8.78-1.34-.38-6,2.29-8.55,3.73-5.24,3-10.66,6.09-15.75,4.54s-7.8-7.07-10.48-12.43c-1.23-2.46-3.79-7.58-5.15-7.95-1.33-.11-5.44,3.43-7.62,5.32-4.56,4-9.28,8.09-14.6,7.56s-9-5.39-12.68-10.12c-1.7-2.19-5.23-6.74-6.64-6.81-1.41.08-4.94,4.63-6.63,6.81-3.67,4.73-7.46,9.61-12.68,10.12s-10-3.59-14.6-7.56c-2.18-1.9-6.23-5.41-7.64-5.32-1.34.37-3.9,5.49-5.13,7.94-2.68,5.36-5.45,10.9-10.48,12.43s-10.51-1.55-15.75-4.54c-2.52-1.44-7.22-4.11-8.57-3.72-1.24.64-2.73,6.13-3.45,8.77-1.58,5.79-3.21,11.78-7.86,14.27s-10.59.54-16.31-1.37c-2.77-.92-7.92-2.63-9.16-2-1.08.88-1.48,6.53-1.67,9.25-.42,6-.85,12.21-4.94,15.56S86.71,72.26,80.73,71.5c-2.9-.37-8.3-1-9.39-.15-.88,1.08-.2,6.48.16,9.38.75,6,1.53,12.15-1.83,16.24s-9.56,4.52-15.56,4.94c-2.72.19-8.38.58-9.26,1.68-.65,1.23,1.06,6.38,2,9.15,1.9,5.72,3.87,11.63,1.37,16.31s-8.48,6.28-14.27,7.86c-2.64.72-8.13,2.22-8.78,3.47-.39,1.33,2.29,6,3.73,8.55,3,5.24,6.08,10.67,4.54,15.75S26.36,172.5,21,175.18c-2.46,1.23-7.58,3.79-7.95,5.15-.1,1.38,3.43,5.44,5.32,7.62,4,4.57,8.08,9.29,7.56,14.6s-5.4,9-10.12,12.68c-2.19,1.7-6.74,5.23-6.81,6.64.08,1.41,4.63,4.94,6.81,6.63,4.73,3.67,9.61,7.46,10.12,12.68s-3.59,10-7.56,14.59c-1.9,2.18-5.43,6.24-5.32,7.64.37,1.34,5.49,3.9,7.94,5.13C26.36,271.23,31.9,274,33.43,279s-1.55,10.51-4.54,15.75c-1.44,2.52-4.12,7.22-3.72,8.57.64,1.24,6.13,2.73,8.77,3.45,5.79,1.58,11.78,3.21,14.27,7.86s.54,10.59-1.37,16.31c-.92,2.77-2.63,7.92-2,9.16.88,1.08,6.53,1.48,9.25,1.67,6,.42,12.2.85,15.56,4.94S72.26,357,71.5,363c-.37,2.9-1,8.31-.15,9.4,1.08.89,6.48.2,9.38-.16,6-.75,12.15-1.53,16.24,1.83s4.52,9.56,4.94,15.56c.19,2.72.58,8.38,1.68,9.26,1.23.65,6.38-1.06,9.15-2,5.72-1.9,11.64-3.87,16.31-1.37s6.28,8.48,7.86,14.28c.72,2.64,2.22,8.13,3.47,8.78,1.33.38,6-2.29,8.55-3.73,5.24-3,10.67-6.09,15.75-4.54s7.8,7.07,10.49,12.43c1.23,2.46,3.79,7.58,5.15,7.95h.06c1.44,0,5.41-3.46,7.56-5.33C192.25,421.61,196.69,417.74,201.63,417.74Z"/><path class="cls-2" d="M222.15,411.8c-5.24,0-8.84-4.55-12.31-9-1.49-1.88-4-5-5.12-5.4-1.21.11-4.38,2.76-6.09,4.19-4.2,3.51-8.53,7.14-13.58,6s-7.63-6.23-10.14-11.2c-1-2.05-3-5.87-4-6.4-1.1-.18-4.83,1.87-6.84,3-4.79,2.62-9.75,5.33-14.47,3.37s-6.35-7.43-7.89-12.7c-.63-2.17-1.82-6.22-2.76-6.91-1.07-.36-5.18,1-7.38,1.71-5.26,1.73-10.69,3.51-15,.75s-4.91-8.73-5.37-13.95c-.2-2.19-.56-6.25-1.32-7.19-1.11-.57-5.28-.08-7.54.19C96.77,359,91,359.65,87.37,356s-3-9.4-2.34-14.94c.27-2.26.76-6.43.19-7.54-.94-.76-5-1.12-7.19-1.32-5.22-.47-11.14-1-14-5.38s-1-9.73.75-15c.72-2.21,2.07-6.32,1.68-7.46-.66-.87-4.7-2.06-6.87-2.69-5.27-1.54-10.72-3.13-12.7-7.89s.75-9.68,3.37-14.47c1.1-2,3.14-5.75,2.94-6.92-.51-1-4.32-2.92-6.37-4-5-2.51-10.1-5.1-11.2-10.14s2.53-9.38,6-13.57c1.43-1.71,4.08-4.88,4.19-6.09-.39-1.16-3.52-3.63-5.4-5.12-4.4-3.48-9-7.07-9-12.31s4.55-8.84,9-12.31c1.88-1.49,5-4,5.4-5.12-.11-1.21-2.76-4.38-4.19-6.09-3.51-4.2-7.14-8.53-6-13.58s6.23-7.63,11.2-10.13c2.05-1,5.87-3,6.4-4,.17-1.09-1.87-4.83-3-6.84-2.62-4.79-5.33-9.75-3.37-14.47s7.43-6.35,12.7-7.89c2.17-.63,6.22-1.82,6.91-2.76.36-1.06-1-5.18-1.71-7.38-1.72-5.25-3.51-10.69-.75-15s8.72-4.91,13.95-5.37c2.19-.2,6.24-.56,7.19-1.32.57-1.11.08-5.28-.19-7.54-.65-5.54-1.33-11.26,2.34-14.94h0c3.67-3.67,9.4-3,14.94-2.34,2.26.27,6.43.76,7.54.19.76-.94,1.12-5,1.32-7.19.47-5.22,1-11.14,5.38-13.95s9.73-1,15,.75c2.21.73,6.32,2.08,7.46,1.68.87-.66,2.06-4.7,2.69-6.87,1.54-5.27,3.13-10.72,7.89-12.7s9.68.75,14.47,3.37c2,1.1,5.76,3.15,6.92,2.94,1-.51,2.92-4.32,4-6.37,2.51-5,5.1-10.1,10.14-11.2s9.38,2.53,13.57,6c1.71,1.43,4.88,4.08,6.09,4.19,1.16-.39,3.63-3.52,5.12-5.4,3.48-4.4,7.07-9,12.31-9s8.84,4.55,12.31,9c1.48,1.88,4,5,5.12,5.4,1.21-.11,4.38-2.76,6.09-4.19,4.2-3.51,8.53-7.13,13.58-6s7.63,6.23,10.14,11.2c1,2.05,3,5.87,4,6.4,1.08.18,4.83-1.87,6.84-3C285,46.73,290,44,294.73,46s6.35,7.42,7.89,12.7c.63,2.17,1.82,6.22,2.76,6.91,1.06.36,5.17-1,7.38-1.71,5.26-1.72,10.69-3.51,15-.75s4.91,8.73,5.37,13.95c.2,2.19.56,6.25,1.32,7.19,1.11.57,5.28.08,7.54-.19,5.54-.65,11.26-1.33,14.94,2.34s3,9.4,2.34,14.94c-.27,2.26-.76,6.43-.19,7.54.94.76,5,1.12,7.19,1.32,5.22.47,11.14,1,14,5.38s1,9.73-.75,15c-.73,2.21-2.07,6.32-1.68,7.46.66.87,4.7,2.06,6.87,2.69,5.27,1.54,10.72,3.13,12.69,7.89s-.75,9.68-3.37,14.47c-1.1,2-3.14,5.75-2.94,6.92.51,1,4.32,2.92,6.37,4,5,2.51,10.1,5.1,11.2,10.14s-2.53,9.38-6,13.57c-1.43,1.71-4.08,4.88-4.19,6.09.39,1.16,3.52,3.63,5.4,5.12,4.4,3.48,9,7.07,9,12.31s-4.55,8.84-9,12.31c-1.88,1.49-5,4-5.4,5.12.11,1.21,2.76,4.38,4.19,6.09,3.51,4.2,7.14,8.54,6,13.58s-6.23,7.63-11.2,10.14c-2,1-5.87,3-6.4,4-.17,1.09,1.87,4.83,3,6.84,2.62,4.79,5.33,9.75,3.37,14.47s-7.42,6.35-12.7,7.89c-2.17.63-6.22,1.82-6.91,2.76-.36,1.07,1,5.18,1.71,7.38,1.72,5.26,3.51,10.69.75,15s-8.73,4.91-13.95,5.37c-2.19.2-6.25.56-7.19,1.32-.57,1.11-.08,5.28.19,7.54.65,5.54,1.33,11.26-2.34,14.94s-9.4,3-14.94,2.34c-2.26-.27-6.43-.76-7.54-.19-.76.94-1.12,5-1.32,7.19-.47,5.22-1,11.14-5.37,13.95s-9.73,1-15-.75c-2.21-.72-6.32-2.08-7.46-1.68-.87.66-2.06,4.7-2.69,6.87-1.54,5.27-3.13,10.72-7.89,12.7s-9.68-.75-14.47-3.37c-2-1.1-5.74-3.14-6.92-2.94-1,.51-2.92,4.32-4,6.37-2.51,5-5.1,10.1-10.14,11.2s-9.37-2.53-13.57-6c-1.71-1.43-4.88-4.08-6.09-4.19-1.16.39-3.64,3.52-5.12,5.4C231,407.25,227.39,411.8,222.15,411.8Zm-17.41-23.36a8.81,8.81,0,0,1,1,.06c4.66.54,8,4.73,11.16,8.77,1.42,1.8,4,5.1,5.25,5.51,1.22-.42,3.83-3.72,5.25-5.51,3.2-4,6.5-8.23,11.15-8.77s8.92,2.9,12.9,6.23c1.66,1.39,4.71,3.94,5.93,4.12,1-.58,2.94-4.38,4-6.44,2.35-4.65,4.78-9.46,9.28-10.9s9.35,1.12,13.94,3.63c1.94,1.06,5.5,3,6.74,2.93.87-.72,2-4.72,2.67-6.88,1.46-5,3-10.17,7.24-12.36s9.37-.49,14.35,1.14c2.13.7,6,2,7.31,1.7.74-1,1.09-5,1.29-7.16.46-5.14.94-10.46,4.68-13.43s9-2.31,14.2-1.7c2.23.26,6.32.75,7.5.21.53-1.18,0-5.27-.21-7.5-.61-5.15-1.24-10.48,1.69-14.19s8.3-4.23,13.44-4.69c2.16-.19,6.13-.55,7.16-1.29.28-1.27-1-5.18-1.7-7.3-1.64-5-3.32-10.13-1.14-14.36s7.36-5.77,12.36-7.23c2.13-.62,6-1.76,6.88-2.71,0-1.26-1.88-4.79-2.93-6.71-2.51-4.59-5.11-9.34-3.62-14s6.24-6.92,10.89-9.27c2-1,5.74-2.9,6.43-4-.22-1.24-2.74-4.25-4.12-5.9-3.33-4-6.77-8.1-6.23-12.89s4.73-8,8.77-11.16c1.79-1.42,5.1-4,5.51-5.25-.41-1.22-3.72-3.83-5.51-5.25-4-3.19-8.23-6.5-8.77-11.15-.54-4.8,2.9-8.92,6.23-12.9,1.39-1.66,3.94-4.71,4.12-5.93-.58-1-4.38-2.94-6.44-4-4.65-2.35-9.46-4.78-10.9-9.28s1.12-9.35,3.63-13.94c1.06-1.94,3-5.51,2.93-6.74-.72-.87-4.72-2-6.88-2.67-5-1.46-10.17-3-12.37-7.24s-.49-9.37,1.14-14.35c.7-2.13,2-6,1.7-7.31-1-.74-5-1.09-7.16-1.29-5.14-.46-10.46-.94-13.43-4.68s-2.31-9-1.7-14.2c.26-2.23.75-6.32.21-7.5-1.18-.53-5.27-.05-7.5.21-5.15.61-10.48,1.24-14.19-1.69s-4.23-8.3-4.69-13.44c-.19-2.16-.55-6.13-1.29-7.16-1.27-.27-5.18,1-7.31,1.7-5,1.63-10.13,3.32-14.36,1.14S295.44,66.4,294,61.4c-.62-2.12-1.76-5.68-2.7-6.68h0c-1.3,0-4.76,1.69-6.66,2.73-4.59,2.51-9.34,5-14,3.53S263.7,54.68,261.35,50c-1-2-2.9-5.76-4-6.46-1.24.22-4.25,2.73-5.9,4.1-4,3.33-8.09,6.77-12.89,6.23s-8-4.73-11.16-8.78c-1.42-1.8-4-5.1-5.25-5.52-1.22.41-3.83,3.72-5.25,5.51-3.19,4-6.5,8.23-11.15,8.77-4.8.54-8.92-2.9-12.9-6.23-1.66-1.39-4.71-3.94-5.93-4.12-1,.58-2.94,4.38-4,6.44-2.35,4.65-4.78,9.46-9.28,10.9s-9.35-1.12-13.94-3.63c-1.94-1.06-5.51-3-6.74-2.93-.87.72-2,4.72-2.67,6.88-1.46,5-3,10.17-7.24,12.37s-9.37.49-14.35-1.14c-2.13-.7-6-2-7.31-1.7-.74,1-1.09,5-1.29,7.16-.46,5.14-.94,10.46-4.68,13.43s-9,2.31-14.2,1.7c-2.23-.26-6.32-.75-7.5-.21-.53,1.18,0,5.27.21,7.5.61,5.15,1.24,10.48-1.69,14.19s-8.3,4.23-13.44,4.69c-2.16.19-6.13.55-7.16,1.29-.28,1.27,1,5.18,1.7,7.31,1.63,5,3.32,10.13,1.14,14.36s-7.36,5.77-12.36,7.23c-2.12.62-6,1.76-6.88,2.7,0,1.26,1.88,4.79,2.93,6.71,2.51,4.59,5.11,9.34,3.63,14s-6.24,6.92-10.89,9.27c-2,1-5.74,2.9-6.43,4,.22,1.24,2.74,4.25,4.12,5.9,3.33,4,6.77,8.1,6.23,12.89s-4.73,8-8.77,11.16c-1.79,1.42-5.1,4-5.51,5.25.41,1.22,3.72,3.83,5.51,5.25,4,3.19,8.23,6.5,8.77,11.15s-2.9,8.92-6.23,12.9c-1.39,1.66-3.94,4.71-4.12,5.93.58,1,4.38,2.94,6.44,4,4.65,2.35,9.46,4.78,10.9,9.28S60.71,279,58.2,283.62c-1.06,1.94-3,5.51-2.93,6.74.72.87,4.72,2,6.88,2.67,5,1.46,10.17,3,12.37,7.24s.49,9.37-1.14,14.35c-.7,2.13-2,6-1.7,7.31,1,.74,5,1.09,7.16,1.29,5.14.46,10.46.94,13.43,4.67s2.31,9,1.7,14.2c-.26,2.23-.75,6.32-.21,7.5,1.18.53,5.27,0,7.5-.21,5.15-.61,10.48-1.24,14.19,1.69s4.23,8.3,4.69,13.44c.19,2.16.55,6.13,1.29,7.16,1.27.28,5.18-1,7.3-1.7,5-1.63,10.13-3.33,14.36-1.14s5.77,7.69,7.23,12.69c.62,2.13,1.76,6.21,2.7,7.21h0c1.3,0,4.76-2.22,6.66-3.25,4.59-2.51,9.34-5.27,14-3.79s6.92,6.16,9.27,10.81c1,2,2.9,5.69,4,6.39,1.24-.22,4.25-2.76,5.9-4.14C196.55,391.65,200.37,388.44,204.74,388.44Z"/><path class="cls-2" d="M222.43,379.88c-4.72,0-8-4-10.86-7.6-1.1-1.35-2.89-3.57-3.82-4.11a21.83,21.83,0,0,0-4.4,3c-3.44,2.72-7.35,5.8-11.87,4.67s-6.73-5.62-8.78-9.63c-.81-1.59-2.14-4.18-3-4.9-1,.08-3.55,1.36-5.08,2.14-3.87,2-8.26,4.23-12.44,2.49s-5.73-6.47-7.07-10.63c-.52-1.62-1.37-4.26-2-5.07-1.1-.07-3.91.82-5.62,1.37-4.26,1.37-9.08,2.92-12.94.58-4-2.42-4.6-7.38-5.12-11.76a22,22,0,0,0-1-5.15c-1-.29-3.92,0-5.68.2-4.53.48-9.67,1-13-2.28s-2.76-8.44-2.28-13c.19-1.76.49-4.63.2-5.68a22.11,22.11,0,0,0-5.15-1c-4.38-.52-9.34-1.11-11.76-5.12-2.33-3.85-.78-8.68.59-12.94.55-1.72,1.46-4.53,1.37-5.63-.8-.67-3.45-1.52-5.06-2C83.5,286.49,78.78,285,77,280.76s.51-8.57,2.49-12.45c.78-1.53,2.06-4,2.15-5.08-.72-.82-3.32-2.15-4.9-3-4-2.05-8.54-4.38-9.63-8.79s2-8.42,4.67-11.86a21.82,21.82,0,0,0,3-4.4c-.53-.93-2.75-2.73-4.11-3.82-3.56-2.88-7.6-6.15-7.6-10.86s4-8,7.6-10.86c1.36-1.1,3.57-2.89,4.11-3.82-.29-1-2-3.1-3-4.4-2.72-3.45-5.8-7.35-4.67-11.87s5.62-6.73,9.63-8.78c1.59-.81,4.18-2.14,4.9-3-.08-1-1.36-3.55-2.15-5.08-2-3.87-4.23-8.26-2.49-12.44s6.47-5.73,10.63-7.07c1.62-.52,4.26-1.37,5.07-2,.08-1.1-.82-3.91-1.37-5.62-1.37-4.26-2.92-9.08-.59-12.94,2.42-4,7.38-4.6,11.76-5.12a22.06,22.06,0,0,0,5.15-1c.3-1,0-3.92-.2-5.68-.48-4.53-1-9.67,2.28-13h0c3.31-3.31,8.44-2.76,13-2.28,1.76.19,4.63.5,5.68.2a22.09,22.09,0,0,0,1-5.15c.52-4.38,1.11-9.34,5.12-11.76,3.86-2.33,8.68-.78,12.94.59,1.72.55,4.53,1.44,5.63,1.37.67-.8,1.52-3.45,2-5.06,1.34-4.17,2.86-8.89,7.07-10.63s8.57.51,12.44,2.49c1.53.78,4,2.06,5.08,2.15.82-.72,2.15-3.31,3-4.9,2.05-4,4.38-8.54,8.79-9.63s8.42,2,11.86,4.67c1.3,1,3.42,2.69,4.4,3,.93-.53,2.73-2.75,3.82-4.11,2.88-3.56,6.15-7.6,10.86-7.6s8,4,10.86,7.6c1.1,1.36,2.89,3.57,3.82,4.11,1-.29,3.1-2,4.4-3,3.45-2.72,7.34-5.79,11.87-4.67s6.73,5.62,8.78,9.63c.81,1.59,2.14,4.18,3,4.9,1-.08,3.55-1.36,5.08-2.15,3.87-2,8.26-4.23,12.45-2.49s5.73,6.47,7.07,10.63c.52,1.62,1.37,4.26,2,5.06,1.09.09,3.91-.82,5.62-1.37,4.26-1.37,9.08-2.92,12.94-.59s4.6,7.38,5.12,11.76a22,22,0,0,0,1,5.15c1,.29,3.92,0,5.68-.2,4.53-.48,9.67-1,13,2.28s2.76,8.45,2.28,13c-.19,1.76-.5,4.63-.2,5.68a22.09,22.09,0,0,0,5.15,1c4.38.52,9.34,1.11,11.76,5.12,2.33,3.85.78,8.68-.59,12.94-.55,1.72-1.46,4.53-1.37,5.63.8.67,3.45,1.52,5.07,2,4.17,1.34,8.89,2.86,10.63,7.07s-.51,8.57-2.49,12.44c-.78,1.53-2.06,4-2.15,5.08.72.82,3.32,2.15,4.9,3,4,2.05,8.54,4.38,9.63,8.79s-2,8.42-4.67,11.86a21.83,21.83,0,0,0-3,4.4c.53.93,2.75,2.73,4.11,3.82,3.56,2.88,7.6,6.15,7.6,10.86s-4,8-7.6,10.86c-1.36,1.1-3.57,2.89-4.11,3.82.29,1,2,3.1,3,4.4,2.72,3.45,5.8,7.35,4.67,11.87s-5.62,6.73-9.62,8.78c-1.59.81-4.18,2.14-4.9,3,.08,1,1.36,3.55,2.15,5.08,2,3.87,4.23,8.26,2.49,12.44s-6.47,5.73-10.63,7.07c-1.62.52-4.26,1.37-5.07,2-.08,1.1.82,3.91,1.37,5.62,1.37,4.26,2.92,9.08.59,12.94-2.41,4-7.38,4.6-11.76,5.12a22,22,0,0,0-5.15,1c-.29,1,0,3.92.2,5.68.48,4.53,1,9.67-2.28,13s-8.45,2.76-13,2.28c-1.76-.19-4.63-.49-5.68-.2a22,22,0,0,0-1,5.15c-.52,4.38-1.11,9.34-5.12,11.76-3.86,2.33-8.68.78-12.94-.59-1.72-.55-4.52-1.47-5.63-1.37-.67.8-1.52,3.45-2,5.07-1.34,4.17-2.86,8.89-7.07,10.63s-8.57-.51-12.45-2.49c-1.53-.78-4-2.06-5.08-2.14-.82.72-2.15,3.32-3,4.9-2.05,4-4.38,8.54-8.79,9.63s-8.42-2-11.86-4.67c-1.3-1-3.42-2.69-4.4-3-.93.53-2.73,2.75-3.82,4.1C230.41,375.84,227.15,379.88,222.43,379.88Zm-14.59-20.75a8.21,8.21,0,0,1,1.13.08c4.06.56,6.87,4,9.59,7.41a25,25,0,0,0,3.87,4.17,25,25,0,0,0,3.87-4.17c2.72-3.36,5.53-6.84,9.59-7.4,4.26-.59,7.95,2.31,11.2,4.87a24.93,24.93,0,0,0,4.16,2.88,26.28,26.28,0,0,0,2.91-4.87c2-3.93,4.09-8,8-9.34,4.12-1.42,8.37.76,12.13,2.68a24.41,24.41,0,0,0,4.87,2.1,24.18,24.18,0,0,0,2-5c1.29-4,2.74-8.53,6.63-10.42s8.14-.44,12.37.92a26.46,26.46,0,0,0,5.45,1.37,24.54,24.54,0,0,0,.92-5c.49-4.09,1-8.73,4.45-11.3s7.78-2,12.11-1.55a25.8,25.8,0,0,0,5.58.23,25.92,25.92,0,0,0-.23-5.58c-.46-4.33-.94-8.8,1.55-12.1s7.21-4,11.29-4.45a24.66,24.66,0,0,0,5-.92,26.45,26.45,0,0,0-1.37-5.45c-1.36-4.22-2.76-8.59-.92-12.36s6.43-5.34,10.43-6.62a24.2,24.2,0,0,0,5-2,24.44,24.44,0,0,0-2.1-4.87c-1.92-3.76-4.1-8-2.68-12.13,1.36-3.93,5.42-6,9.34-8a26.26,26.26,0,0,0,4.87-2.91,24.93,24.93,0,0,0-2.88-4.16c-2.56-3.25-5.47-6.93-4.87-11.2.57-4.06,4-6.87,7.41-9.59a25,25,0,0,0,4.16-3.86,25,25,0,0,0-4.16-3.86c-3.36-2.72-6.84-5.53-7.41-9.59-.59-4.26,2.31-7.95,4.87-11.2a24.92,24.92,0,0,0,2.88-4.16A26.24,26.24,0,0,0,364,188.8c-3.92-2-8-4.09-9.34-8-1.42-4.12.76-8.37,2.68-12.13a24.42,24.42,0,0,0,2.1-4.87,24.13,24.13,0,0,0-5-2c-4-1.29-8.53-2.74-10.43-6.62s-.44-8.14.92-12.37a26.45,26.45,0,0,0,1.37-5.45,24.64,24.64,0,0,0-5-.92c-4.09-.49-8.72-1-11.29-4.45s-2-7.78-1.55-12.11a25.92,25.92,0,0,0,.23-5.58,26,26,0,0,0-5.58.23c-4.33.46-8.8.94-12.11-1.55s-4-7.2-4.45-11.29a24.63,24.63,0,0,0-.92-5A26.49,26.49,0,0,0,300.16,98c-4.22,1.36-8.59,2.76-12.36.92s-5.34-6.43-6.62-10.43a24.17,24.17,0,0,0-2-5,24.39,24.39,0,0,0-4.87,2.1c-3.76,1.92-8,4.1-12.13,2.68-3.93-1.36-6-5.42-8-9.34a26.29,26.29,0,0,0-2.91-4.87A25,25,0,0,0,247.09,77c-3.25,2.56-6.94,5.47-11.2,4.87-4.06-.57-6.87-4-9.59-7.41a25,25,0,0,0-3.87-4.17,25,25,0,0,0-3.86,4.17c-2.72,3.36-5.53,6.84-9.59,7.41-4.26.6-7.95-2.31-11.2-4.87a24.93,24.93,0,0,0-4.16-2.88A26.31,26.31,0,0,0,190.7,79c-2,3.93-4.09,8-8,9.34-4.11,1.42-8.37-.76-12.13-2.68a24.38,24.38,0,0,0-4.87-2.1,24.17,24.17,0,0,0-2,5c-1.28,4-2.74,8.53-6.62,10.43s-8.14.44-12.37-.92a26.45,26.45,0,0,0-5.45-1.37,24.61,24.61,0,0,0-.92,5c-.49,4.09-1,8.72-4.45,11.29s-7.78,2-12.11,1.55a25.88,25.88,0,0,0-5.58-.23,25.9,25.9,0,0,0,.23,5.58c.46,4.33.94,8.8-1.55,12.1s-7.21,4-11.29,4.45a24.64,24.64,0,0,0-5,.92,26.5,26.5,0,0,0,1.37,5.45c1.36,4.22,2.76,8.59.92,12.36s-6.43,5.34-10.43,6.62a24.17,24.17,0,0,0-5,2,24.37,24.37,0,0,0,2.1,4.87c1.92,3.76,4.1,8,2.68,12.13-1.36,3.93-5.42,6-9.34,8A26.29,26.29,0,0,0,76,191.71a25,25,0,0,0,2.88,4.16c2.56,3.25,5.47,6.93,4.87,11.2-.57,4.06-4,6.87-7.41,9.59a25,25,0,0,0-4.17,3.87,25,25,0,0,0,4.17,3.87c3.36,2.72,6.84,5.53,7.41,9.59.59,4.26-2.31,7.95-4.87,11.2A24.92,24.92,0,0,0,76,249.35a26.23,26.23,0,0,0,4.87,2.91c3.93,2,8,4.09,9.34,8,1.42,4.12-.76,8.37-2.68,12.13a24.39,24.39,0,0,0-2.1,4.87,24.11,24.11,0,0,0,5,2c4,1.29,8.53,2.74,10.43,6.62s.44,8.14-.92,12.37a26.52,26.52,0,0,0-1.37,5.45,24.65,24.65,0,0,0,5,.92c4.09.49,8.72,1,11.29,4.45s2,7.78,1.55,12.11a25.89,25.89,0,0,0-.23,5.58,26.11,26.11,0,0,0,5.58-.23c4.33-.46,8.8-.94,12.1,1.55s4,7.21,4.45,11.29a24.61,24.61,0,0,0,.93,5,26.49,26.49,0,0,0,5.45-1.37c4.22-1.36,8.59-2.76,12.36-.92s5.34,6.43,6.62,10.42a24.19,24.19,0,0,0,2,5,24.38,24.38,0,0,0,4.87-2.1c3.76-1.92,8-4.1,12.13-2.68,3.94,1.36,6,5.42,8,9.34a26.28,26.28,0,0,0,2.91,4.87,25,25,0,0,0,4.16-2.88C200.74,361.75,204.06,359.13,207.85,359.13Z"/><path class="cls-2" d="M222.72,348c-4.18,0-7-3.31-9.4-6.23a25.93,25.93,0,0,0-2.56-2.79,23.44,23.44,0,0,0-2.74,1.78c-2.76,2-6.19,4.41-10.16,3.24-3.73-1.08-5.66-4.77-7.36-8a26.25,26.25,0,0,0-2-3.4,23.4,23.4,0,0,0-3.31,1.33c-3.16,1.45-6.74,3.09-10.34,1.59s-5.06-5.38-6.22-8.5a23.59,23.59,0,0,0-1.38-3.25,26,26,0,0,0-3.85,1c-3.49,1.08-7.44,2.31-10.82.45-3.65-2-4.35-6.16-4.91-9.51a23.64,23.64,0,0,0-.67-3.15,25.68,25.68,0,0,0-3.84.16c-3.78.34-8.06.72-11-2.22s-2.55-7.22-2.21-11a25.68,25.68,0,0,0,.16-3.83,23.73,23.73,0,0,0-3.15-.67c-3.35-.56-7.52-1.26-9.52-4.92-1.85-3.38-.63-7.33.46-10.81a26,26,0,0,0,1-3.86,23.67,23.67,0,0,0-3.25-1.38c-3.12-1.15-7-2.59-8.5-6.22s.15-7.18,1.6-10.34a23.25,23.25,0,0,0,1.33-3.31,26.1,26.1,0,0,0-3.4-2c-3.25-1.7-6.93-3.63-8-7.36-1.16-4,1.28-7.4,3.24-10.15a23.27,23.27,0,0,0,1.78-2.75,25.83,25.83,0,0,0-2.79-2.57c-2.92-2.45-6.23-5.23-6.23-9.4s3.31-7,6.23-9.41a25.86,25.86,0,0,0,2.79-2.56,23.28,23.28,0,0,0-1.78-2.74c-2-2.76-4.41-6.18-3.24-10.16,1.08-3.73,4.77-5.66,8-7.36a26.18,26.18,0,0,0,3.4-2,23.3,23.3,0,0,0-1.33-3.31c-1.45-3.16-3.09-6.74-1.6-10.34s5.39-5.06,8.5-6.22a23.69,23.69,0,0,0,3.25-1.38,26,26,0,0,0-1-3.86c-1.08-3.48-2.31-7.43-.45-10.82,2-3.65,6.16-4.35,9.51-4.91a23.64,23.64,0,0,0,3.15-.67,25.7,25.7,0,0,0-.16-3.84c-.34-3.78-.72-8.06,2.22-11s7.22-2.55,11-2.22a25.86,25.86,0,0,0,3.83.16,23.76,23.76,0,0,0,.67-3.15c.56-3.35,1.26-7.52,4.92-9.52,3.38-1.86,7.33-.63,10.81.46a26,26,0,0,0,3.86,1,23.61,23.61,0,0,0,1.38-3.25c1.15-3.12,2.59-7,6.22-8.5s7.18.15,10.34,1.6a23.34,23.34,0,0,0,3.31,1.33,26.34,26.34,0,0,0,2-3.4c1.7-3.25,3.63-6.93,7.36-8,4-1.16,7.4,1.28,10.15,3.24a23.32,23.32,0,0,0,2.75,1.78A25.9,25.9,0,0,0,213.31,98c2.45-2.92,5.23-6.23,9.4-6.23s7,3.31,9.41,6.23a25.92,25.92,0,0,0,2.56,2.79A23.33,23.33,0,0,0,237.43,99c2.76-2,6.18-4.41,10.16-3.24,3.73,1.08,5.66,4.77,7.36,8a26.33,26.33,0,0,0,2,3.4,23.37,23.37,0,0,0,3.31-1.33c3.16-1.45,6.74-3.09,10.34-1.6s5.06,5.38,6.22,8.5A23.67,23.67,0,0,0,278.2,116a26,26,0,0,0,3.85-1c3.49-1.08,7.44-2.31,10.82-.45,3.65,2,4.35,6.16,4.91,9.51a23.73,23.73,0,0,0,.67,3.15,25.29,25.29,0,0,0,3.84-.16c3.78-.34,8.06-.72,11,2.22s2.55,7.22,2.22,11a25.81,25.81,0,0,0-.16,3.83,23.66,23.66,0,0,0,3.15.67c3.35.56,7.52,1.26,9.52,4.92,1.85,3.38.63,7.33-.46,10.81a26.11,26.11,0,0,0-1,3.86,23.68,23.68,0,0,0,3.25,1.38c3.12,1.15,7,2.59,8.5,6.22s-.15,7.18-1.59,10.34a23.32,23.32,0,0,0-1.33,3.31,26.42,26.42,0,0,0,3.4,2c3.25,1.7,6.93,3.63,8,7.36,1.16,4-1.28,7.4-3.24,10.15a23.18,23.18,0,0,0-1.78,2.75,25.93,25.93,0,0,0,2.79,2.56c2.92,2.45,6.23,5.23,6.23,9.4s-3.31,7-6.23,9.41a26,26,0,0,0-2.79,2.56,23.28,23.28,0,0,0,1.78,2.74c2,2.75,4.41,6.18,3.24,10.16-1.08,3.73-4.77,5.66-8,7.36a26.25,26.25,0,0,0-3.41,2,23.31,23.31,0,0,0,1.33,3.31c1.45,3.16,3.09,6.74,1.6,10.34s-5.39,5.06-8.5,6.22a23.63,23.63,0,0,0-3.25,1.38,26.05,26.05,0,0,0,1,3.86c1.08,3.48,2.31,7.43.45,10.82-2,3.65-6.16,4.35-9.51,4.91a23.73,23.73,0,0,0-3.15.67,25.64,25.64,0,0,0,.16,3.84c.34,3.78.72,8.06-2.22,11s-7.22,2.55-11,2.21a26.09,26.09,0,0,0-3.83-.16,23.69,23.69,0,0,0-.67,3.15c-.56,3.35-1.26,7.52-4.92,9.52-3.38,1.85-7.33.63-10.81-.46a25.93,25.93,0,0,0-3.86-1,23.66,23.66,0,0,0-1.38,3.25c-1.15,3.12-2.59,7-6.22,8.5s-7.18-.15-10.34-1.6a23.38,23.38,0,0,0-3.31-1.33,26.16,26.16,0,0,0-2,3.4c-1.7,3.25-3.63,6.93-7.36,8-4,1.16-7.4-1.28-10.15-3.24a23.16,23.16,0,0,0-2.75-1.78,25.75,25.75,0,0,0-2.56,2.79C229.67,344.64,226.9,348,222.72,348Zm-11.77-18.13a7.61,7.61,0,0,1,1.32.12c3.42.6,5.82,3.47,7.95,6a28.81,28.81,0,0,0,2.51,2.75,28.9,28.9,0,0,0,2.51-2.75c2.12-2.53,4.53-5.4,7.95-6,3.72-.66,6.91,1.62,9.48,3.45a28.81,28.81,0,0,0,2.45,1.62,30.92,30.92,0,0,0,1.87-3.25c1.59-3,3.4-6.48,6.73-7.76,3.6-1.38,7.16.25,10.29,1.68a26.84,26.84,0,0,0,3.07,1.26,26.82,26.82,0,0,0,1.3-3.11c1.19-3.22,2.54-6.87,6-8.44,3.29-1.48,7-.31,10.32.71a31.15,31.15,0,0,0,3.59,1,28.58,28.58,0,0,0,.59-2.92c.52-3.1,1.17-7,4.25-9.09,2.87-2,6.62-1.66,9.93-1.37a30.32,30.32,0,0,0,3.63.18,30.33,30.33,0,0,0-.18-3.63c-.29-3.31-.63-7.06,1.37-9.93,2.14-3.08,6-3.73,9.09-4.25a28.19,28.19,0,0,0,2.92-.6,31.17,31.17,0,0,0-1-3.58c-1-3.29-2.19-7-.71-10.31,1.57-3.5,5.22-4.85,8.44-6a26.61,26.61,0,0,0,3.11-1.3,27,27,0,0,0-1.26-3.07c-1.44-3.14-3.06-6.69-1.68-10.3,1.28-3.33,4.72-5.14,7.76-6.73a31,31,0,0,0,3.25-1.87,28.6,28.6,0,0,0-1.63-2.45c-1.83-2.57-4.11-5.77-3.46-9.48.61-3.42,3.47-5.82,6-7.95a28.88,28.88,0,0,0,2.75-2.51,29,29,0,0,0-2.75-2.51c-2.53-2.12-5.4-4.53-6-7.95-.66-3.71,1.62-6.91,3.45-9.48a28.71,28.71,0,0,0,1.63-2.45,31,31,0,0,0-3.25-1.87c-3-1.59-6.48-3.4-7.76-6.73-1.38-3.6.25-7.16,1.68-10.29a27,27,0,0,0,1.26-3.07,26.61,26.61,0,0,0-3.11-1.3c-3.22-1.19-6.87-2.54-8.44-6-1.47-3.29-.31-7,.71-10.32a31.2,31.2,0,0,0,1-3.59,28.32,28.32,0,0,0-2.92-.6c-3.1-.52-7-1.17-9.09-4.25-2-2.87-1.66-6.62-1.37-9.93a30.23,30.23,0,0,0,.18-3.63,30.29,30.29,0,0,0-3.63.18c-3.31.3-7.06.63-9.93-1.37-3.08-2.14-3.73-6-4.25-9.09a28.32,28.32,0,0,0-.6-2.93,30.9,30.9,0,0,0-3.59,1c-3.29,1-7,2.19-10.31.71-3.5-1.57-4.85-5.22-6-8.44a26.61,26.61,0,0,0-1.3-3.11,27,27,0,0,0-3.07,1.26c-3.13,1.44-6.69,3.07-10.29,1.68-3.33-1.28-5.14-4.72-6.73-7.76a31.06,31.06,0,0,0-1.87-3.25,28.84,28.84,0,0,0-2.45,1.63c-2.57,1.83-5.76,4.12-9.48,3.45-3.42-.6-5.82-3.47-7.95-6a28.94,28.94,0,0,0-2.51-2.75,29,29,0,0,0-2.51,2.75c-2.12,2.53-4.53,5.4-7.95,6-3.71.66-6.91-1.62-9.48-3.45a28.68,28.68,0,0,0-2.45-1.62,30.75,30.75,0,0,0-1.87,3.25c-1.59,3-3.4,6.48-6.73,7.76-3.6,1.38-7.16-.25-10.29-1.68a26.85,26.85,0,0,0-3.07-1.26,26.51,26.51,0,0,0-1.3,3.11c-1.19,3.22-2.54,6.87-6,8.44-3.28,1.47-7,.31-10.32-.71a31,31,0,0,0-3.59-1,28.46,28.46,0,0,0-.6,2.92c-.52,3.1-1.17,7-4.25,9.09-2.87,2-6.62,1.66-9.93,1.37a30.1,30.1,0,0,0-3.63-.18,30.24,30.24,0,0,0,.18,3.63c.29,3.31.63,7.06-1.37,9.93-2.14,3.08-6,3.73-9.09,4.25a28.14,28.14,0,0,0-2.92.6,30.93,30.93,0,0,0,1,3.59c1,3.29,2.19,7,.71,10.31-1.57,3.5-5.22,4.85-8.44,6a26.66,26.66,0,0,0-3.11,1.3,27,27,0,0,0,1.26,3.07c1.44,3.14,3.06,6.69,1.68,10.3-1.28,3.33-4.72,5.14-7.76,6.73a31,31,0,0,0-3.26,1.87,29.09,29.09,0,0,0,1.63,2.45c1.83,2.57,4.11,5.76,3.46,9.48-.6,3.42-3.47,5.82-6,7.95a28.89,28.89,0,0,0-2.75,2.51,29.07,29.07,0,0,0,2.75,2.51c2.53,2.12,5.4,4.53,6,7.95.66,3.71-1.62,6.91-3.45,9.48a28.85,28.85,0,0,0-1.62,2.45,30.82,30.82,0,0,0,3.25,1.87c3,1.59,6.48,3.4,7.76,6.73,1.38,3.6-.25,7.16-1.68,10.29a27,27,0,0,0-1.26,3.07,26.72,26.72,0,0,0,3.11,1.3c3.22,1.19,6.87,2.54,8.44,6,1.47,3.28.31,7-.71,10.32a31.13,31.13,0,0,0-1,3.59,28.32,28.32,0,0,0,2.92.59c3.1.52,7,1.17,9.09,4.25,2,2.87,1.66,6.62,1.37,9.93a30.26,30.26,0,0,0-.18,3.63,30.77,30.77,0,0,0,3.63-.18c3.31-.3,7.06-.63,9.93,1.37,3.08,2.14,3.73,6,4.25,9.09a28.39,28.39,0,0,0,.6,2.92,31.16,31.16,0,0,0,3.59-1c3.29-1,7-2.19,10.31-.71,3.5,1.57,4.85,5.22,6,8.44a26.66,26.66,0,0,0,1.3,3.11,26.79,26.79,0,0,0,3.07-1.26c3.14-1.44,6.69-3.06,10.29-1.68,3.33,1.28,5.14,4.72,6.73,7.76a30.92,30.92,0,0,0,1.87,3.25,29.07,29.07,0,0,0,2.45-1.63C205,331.78,207.79,329.82,210.94,329.82Z"/><path class="cls-2" d="M223,316c-3.61,0-6-2.67-7.92-4.82-.41-.46-1-1.08-1.4-1.5-.38.2-.85.47-1.2.67-2,1.16-5,2.91-8.38,1.66-3-1.1-4.47-3.88-5.81-6.34-.32-.59-.76-1.4-1.12-1.94-.5.14-1.16.38-1.64.56-2.29.83-5.14,1.87-8.07.65s-4.24-4-5.27-6.22c-.22-.47-.51-1.09-.76-1.54-.65.13-1.56.4-2.18.58-2.67.78-5.69,1.66-8.53.36-3.27-1.5-4.18-4.88-4.78-7.11-.1-.39-.24-.89-.37-1.29-.61,0-1.46,0-2.08.07-2.87.17-6.43.37-9-2.16s-2.33-6.1-2.16-9c0-.62.09-1.47.07-2.08-.4-.13-.9-.26-1.29-.37-2.24-.6-5.63-1.5-7.12-4.78-1.3-2.83-.42-5.86.36-8.53.18-.62.45-1.53.58-2.18-.45-.25-1.08-.54-1.54-.76-2.23-1-5-2.32-6.22-5.27s-.18-5.77.65-8.07c.18-.49.41-1.14.56-1.64-.54-.35-1.34-.79-1.93-1.11-2.45-1.34-5.24-2.85-6.33-5.8-1.25-3.36.5-6.38,1.65-8.38.21-.36.48-.83.67-1.21-.42-.43-1-1-1.5-1.4-2.15-1.92-4.82-4.31-4.82-7.92s2.67-6,4.82-7.92c.46-.41,1.08-1,1.5-1.4-.19-.38-.46-.85-.67-1.2-1.16-2-2.9-5-1.66-8.38,1.1-3,3.88-4.47,6.34-5.81.59-.32,1.4-.76,1.94-1.12-.14-.5-.38-1.16-.56-1.64-.83-2.29-1.87-5.14-.65-8.07s4-4.24,6.22-5.27c.47-.22,1.09-.51,1.54-.75-.13-.65-.4-1.56-.58-2.18-.78-2.67-1.67-5.69-.36-8.53,1.5-3.27,4.88-4.18,7.11-4.78.38-.1.89-.24,1.29-.37,0-.61,0-1.46-.07-2.09-.17-2.87-.37-6.43,2.16-9h0c2.54-2.54,6.1-2.33,9-2.16.63,0,1.47.09,2.08.07.13-.4.26-.9.36-1.29.6-2.24,1.5-5.63,4.78-7.12,2.83-1.31,5.86-.42,8.53.37.62.18,1.53.45,2.18.58.25-.45.54-1.08.75-1.54,1-2.23,2.32-5,5.27-6.22s5.78-.18,8.07.65c.49.18,1.14.41,1.64.56.35-.54.79-1.34,1.11-1.93,1.34-2.45,2.85-5.24,5.8-6.33,3.36-1.25,6.38.5,8.38,1.65.36.21.82.48,1.21.67.43-.42,1-1,1.4-1.5,1.92-2.15,4.31-4.82,7.92-4.82s6,2.67,7.92,4.82c.41.46,1,1.08,1.4,1.5.38-.2.85-.47,1.2-.67,2-1.16,5-2.9,8.38-1.66,3,1.1,4.47,3.88,5.81,6.33.32.59.76,1.4,1.12,1.94.5-.14,1.16-.38,1.65-.56,2.29-.83,5.15-1.87,8.07-.65s4.24,4,5.27,6.22c.22.46.51,1.09.76,1.54.65-.13,1.56-.4,2.18-.58,2.67-.78,5.69-1.66,8.53-.36,3.27,1.5,4.18,4.88,4.78,7.11.1.38.24.89.37,1.29.61,0,1.46,0,2.08-.07,2.87-.16,6.43-.37,9,2.16s2.33,6.1,2.16,9c0,.63-.08,1.47-.07,2.08.4.13.9.26,1.29.36,2.24.6,5.63,1.5,7.12,4.78,1.3,2.83.42,5.86-.36,8.53-.18.62-.45,1.53-.58,2.18.45.25,1.07.54,1.54.75,2.23,1,5,2.32,6.22,5.27s.18,5.77-.65,8.07c-.18.49-.41,1.14-.56,1.64.54.35,1.34.79,1.93,1.11,2.45,1.34,5.24,2.85,6.33,5.8,1.25,3.36-.5,6.38-1.65,8.38-.21.35-.48.82-.67,1.21.42.43,1,1,1.5,1.4,2.15,1.92,4.82,4.31,4.82,7.92s-2.67,6-4.82,7.92c-.46.41-1.08,1-1.5,1.4.2.38.46.85.67,1.2,1.16,2,2.9,5,1.66,8.38-1.1,3-3.88,4.47-6.34,5.81-.59.32-1.4.76-1.93,1.11.14.5.38,1.16.56,1.65.83,2.29,1.87,5.14.65,8.07s-4,4.24-6.22,5.27c-.46.22-1.09.51-1.54.75.13.65.4,1.56.58,2.18.78,2.67,1.66,5.69.36,8.53-1.5,3.27-4.88,4.18-7.11,4.78-.38.1-.89.24-1.29.37,0,.61,0,1.46.07,2.08.17,2.87.37,6.43-2.16,9s-6.1,2.33-9,2.16c-.62,0-1.47-.09-2.08-.07-.13.4-.26.9-.36,1.29-.6,2.24-1.5,5.63-4.78,7.12-2.83,1.31-5.86.42-8.53-.36-.62-.18-1.53-.45-2.18-.58-.25.45-.54,1.07-.75,1.54-1,2.23-2.32,5-5.27,6.22s-5.78.18-8.07-.65c-.49-.18-1.14-.41-1.64-.56-.35.54-.79,1.34-1.11,1.93-1.34,2.45-2.85,5.24-5.8,6.33-3.35,1.25-6.38-.5-8.38-1.65-.36-.21-.82-.48-1.21-.67-.43.42-1,1-1.4,1.5C229,313.36,226.61,316,223,316Zm-9-15.54a7.06,7.06,0,0,1,1.66.2c2.67.64,4.51,2.7,6.14,4.52.33.37.8.89,1.21,1.31.41-.42.88-.94,1.21-1.31,1.63-1.82,3.47-3.87,6.14-4.52,3.09-.75,5.74.78,7.68,1.9l.84.47c.33-.53.69-1.19.95-1.67,1.26-2.3,2.68-4.91,5.33-6.1,3-1.37,6.14-.24,8.4.58.42.15,1,.35,1.43.49.23-.43.48-1,.68-1.39,1-2.17,2.39-5.14,5.48-6.33,2.74-1.05,5.61-.21,8.14.53.51.15,1.23.36,1.83.5.09-.32.19-.67.26-.95.58-2.15,1.36-5.1,4.08-6.75,2.36-1.43,5.13-1.27,7.58-1.13.48,0,1.13.07,1.7.07,0-.57,0-1.22-.07-1.7-.14-2.45-.3-5.22,1.13-7.58,1.64-2.71,4.59-3.51,6.74-4.08l1-.26c-.14-.6-.35-1.31-.5-1.82-.74-2.53-1.58-5.41-.53-8.14,1.19-3.09,4.16-4.47,6.33-5.48.42-.19,1-.45,1.39-.68-.14-.46-.34-1-.49-1.43-.82-2.26-1.94-5.36-.58-8.4,1.19-2.65,3.8-4.08,6.11-5.33.47-.26,1.14-.62,1.67-.95-.16-.29-.33-.59-.47-.83-1.12-1.94-2.65-4.59-1.91-7.68.64-2.67,2.7-4.51,4.52-6.14.37-.33.89-.8,1.31-1.21-.42-.41-.94-.88-1.31-1.21-1.82-1.63-3.88-3.47-4.52-6.14-.75-3.09.78-5.74,1.9-7.68.14-.25.32-.55.47-.84-.53-.33-1.19-.69-1.67-.95-2.3-1.26-4.91-2.68-6.1-5.33-1.37-3-.24-6.14.58-8.4.15-.42.35-1,.49-1.43-.43-.23-1-.48-1.39-.68-2.17-1-5.14-2.39-6.33-5.48-1.05-2.74-.21-5.61.53-8.15.15-.51.36-1.22.5-1.82l-.95-.26c-2.15-.58-5.1-1.36-6.75-4.08-1.43-2.36-1.27-5.14-1.13-7.58,0-.48.07-1.13.07-1.7-.57,0-1.22,0-1.7.07-2.45.14-5.22.3-7.58-1.13-2.71-1.64-3.51-4.59-4.08-6.74-.08-.28-.17-.63-.26-1-.6.14-1.31.35-1.82.5-2.53.74-5.41,1.58-8.14.53-3.09-1.19-4.47-4.16-5.48-6.33-.19-.42-.45-1-.68-1.39-.46.14-1,.34-1.43.49-2.26.82-5.36,1.94-8.4.58-2.65-1.19-4.08-3.8-5.33-6.11-.26-.47-.62-1.14-.95-1.67l-.83.47c-1.93,1.12-4.59,2.65-7.68,1.91-2.67-.64-4.51-2.7-6.14-4.52-.33-.37-.8-.89-1.21-1.31-.41.42-.88.94-1.21,1.31-1.63,1.82-3.47,3.88-6.14,4.52-3.09.75-5.74-.78-7.68-1.9l-.84-.47c-.33.53-.69,1.19-.95,1.67-1.25,2.3-2.68,4.91-5.33,6.1-3,1.36-6.14.24-8.4-.58-.42-.15-1-.35-1.43-.49-.23.43-.48,1-.68,1.39-1,2.17-2.39,5.14-5.48,6.33-2.74,1.05-5.61.21-8.14-.53-.51-.15-1.23-.36-1.83-.5-.09.32-.19.67-.26.95-.58,2.15-1.36,5.1-4.08,6.75-2.36,1.43-5.13,1.27-7.58,1.13-.48,0-1.13-.07-1.7-.07,0,.57,0,1.22.07,1.7.14,2.45.3,5.22-1.13,7.58-1.64,2.71-4.59,3.51-6.74,4.08l-1,.26c.14.6.35,1.31.5,1.82.74,2.53,1.58,5.4.53,8.14-1.19,3.09-4.16,4.47-6.33,5.48-.42.19-1,.45-1.39.68.14.46.34,1,.49,1.43.82,2.26,1.94,5.36.58,8.4-1.19,2.65-3.8,4.08-6.11,5.33-.47.26-1.14.62-1.67.95l.47.83c1.12,1.93,2.65,4.58,1.91,7.68-.64,2.67-2.7,4.51-4.52,6.14-.37.33-.89.8-1.31,1.21.42.41.94.88,1.31,1.21,1.82,1.63,3.88,3.47,4.52,6.14.75,3.09-.78,5.74-1.9,7.68-.14.25-.32.55-.47.84.53.33,1.19.69,1.67.95,2.3,1.26,4.91,2.68,6.1,5.33,1.37,3,.24,6.14-.58,8.4-.15.42-.35,1-.49,1.43.43.23,1,.48,1.39.68,2.17,1,5.15,2.39,6.33,5.48,1.05,2.74.21,5.61-.53,8.14-.15.51-.36,1.22-.5,1.83l.95.26c2.15.58,5.1,1.36,6.75,4.08,1.43,2.36,1.27,5.13,1.13,7.58,0,.48-.07,1.13-.07,1.7.57,0,1.22,0,1.7-.07,2.45-.14,5.22-.3,7.58,1.13,2.71,1.64,3.51,4.59,4.08,6.74.08.28.17.63.26,1,.6-.14,1.31-.35,1.82-.5,2.53-.74,5.41-1.58,8.14-.53,3.09,1.19,4.47,4.16,5.48,6.33.19.42.45,1,.68,1.39.46-.14,1-.34,1.43-.49,2.26-.82,5.36-1.94,8.4-.58,2.65,1.19,4.08,3.8,5.33,6.11.26.47.62,1.13.95,1.67l.83-.47A12.19,12.19,0,0,1,214,300.49Z"/><path class="cls-2" d="M223.29,284.1c-3,0-5-2-6.36-3.31l-.56-.54-.1,0a8,8,0,0,1-6.2-.33,10.94,10.94,0,0,1-3.92-4.4l-.46-.77-.37.05a8.11,8.11,0,0,1-9.17-3.84l-.22-.29-.87.21a10.9,10.9,0,0,1-5.83.33,8,8,0,0,1-4.63-4.14l0-.07h-.8c-1.89,0-4.75,0-6.84-2.13s-2.11-4.94-2.13-6.83c0-.23,0-.53,0-.79l-.06,0a8,8,0,0,1-4.15-4.62,10.9,10.9,0,0,1,.33-5.84c.07-.26.15-.58.21-.88l-.29-.22a8.11,8.11,0,0,1-3.84-9.17l.05-.37-.76-.46a10.94,10.94,0,0,1-4.4-3.91,8,8,0,0,1-.34-6.2l0-.11-.54-.57c-1.32-1.36-3.31-3.4-3.31-6.36s2-5,3.31-6.36l.54-.56,0-.1a8,8,0,0,1,.32-6.2,10.94,10.94,0,0,1,4.41-3.92l.77-.46-.05-.37a8.11,8.11,0,0,1,3.84-9.17l.29-.22c-.07-.29-.15-.62-.21-.87a10.89,10.89,0,0,1-.33-5.83,8,8,0,0,1,4.14-4.62l.07,0c0-.27,0-.56,0-.8,0-1.89,0-4.75,2.13-6.84h0c2.09-2.09,4.94-2.11,6.83-2.13h.79l0-.06a8,8,0,0,1,4.62-4.15,10.91,10.91,0,0,1,5.84.33l.88.21.22-.29a8.11,8.11,0,0,1,9.17-3.84l.37.05.46-.76a10.93,10.93,0,0,1,3.91-4.4,8,8,0,0,1,6.19-.34l.11,0,.57-.54c1.36-1.32,3.4-3.31,6.36-3.31s5,2,6.36,3.31l.56.54.1,0a8,8,0,0,1,6.2.32,10.94,10.94,0,0,1,3.92,4.4l.46.77.37-.05a8.11,8.11,0,0,1,9.17,3.84l.22.29.87-.21a10.89,10.89,0,0,1,5.83-.33A8,8,0,0,1,262,170l0,.07h.8c1.89,0,4.75,0,6.83,2.13s2.11,4.94,2.13,6.83c0,.23,0,.53,0,.79l.06,0a8,8,0,0,1,4.15,4.62,10.9,10.9,0,0,1-.33,5.84c-.07.26-.15.58-.21.88l.29.22a8.11,8.11,0,0,1,3.83,9.17l-.05.37.76.46a10.93,10.93,0,0,1,4.4,3.91,8,8,0,0,1,.34,6.19l0,.11.54.57c1.32,1.36,3.31,3.4,3.31,6.36s-2,5-3.31,6.36l-.54.56,0,.1a8,8,0,0,1-.33,6.2,11,11,0,0,1-4.4,3.92l-.77.46.05.37a8.11,8.11,0,0,1-3.84,9.17l-.29.22c.07.29.15.62.21.87a10.88,10.88,0,0,1,.33,5.83,8,8,0,0,1-4.14,4.63l-.07,0c0,.27,0,.56,0,.8,0,1.89,0,4.75-2.13,6.83s-4.94,2.11-6.84,2.13H262l0,.06a8,8,0,0,1-4.62,4.15,10.92,10.92,0,0,1-5.84-.33l-.88-.21-.22.29a8.11,8.11,0,0,1-9.17,3.84l-.37-.05-.46.76a10.94,10.94,0,0,1-3.91,4.4,8,8,0,0,1-6.2.34l-.11,0-.57.54C228.29,282.11,226.24,284.1,223.29,284.1Zm-6.41-13a6.81,6.81,0,0,1,2.44.44,11.59,11.59,0,0,1,3.88,2.79l.09.09.09-.09a11.6,11.6,0,0,1,3.88-2.79,8.14,8.14,0,0,1,5.1,0l.33-.55a11.18,11.18,0,0,1,3.67-4.24,9,9,0,0,1,6.22-.78l.37.05.24-.32a9,9,0,0,1,4.9-3.85,11.22,11.22,0,0,1,5.66.38l.6.15a7.59,7.59,0,0,1,3.65-3.23c1.63-.72,3.36-.41,4.75-.41h-.87V258a12.6,12.6,0,0,1,1.21-4.74,8.43,8.43,0,0,1,3.8-3.66c-.05-.21,0-.42,0-.6a11.21,11.21,0,0,1-.32-5.65,9,9,0,0,1,3.88-4.9l.33-.24c0-.13,0-.26,0-.37a9,9,0,0,1,.79-6.22,11.19,11.19,0,0,1,4.25-3.68l.54-.33a8.11,8.11,0,0,1,0-5.09,11.61,11.61,0,0,1,2.79-3.88l.09-.09-.09-.09a11.59,11.59,0,0,1-2.79-3.88,8.14,8.14,0,0,1,0-5.1l-.55-.33a11.17,11.17,0,0,1-4.24-3.67,9,9,0,0,1-.78-6.22l.05-.37-.32-.24a9,9,0,0,1-3.85-4.9,11.18,11.18,0,0,1,.38-5.66l.15-.6c-1.1-.64-3.16-1.68-4-3.65a12.58,12.58,0,0,1-1.21-4.74v.63h.87a12.25,12.25,0,0,1-4.74-1.09,8.33,8.33,0,0,1-3.66-3.74c-.21.05-.42,0-.6.06a11.19,11.19,0,0,1-5.65.34,9,9,0,0,1-4.9-3.87l-.24-.33-.37,0a9,9,0,0,1-6.22-.79,11.2,11.2,0,0,1-3.68-4.25l-.33-.54a8.1,8.1,0,0,1-5.09,0,11.62,11.62,0,0,1-3.88-2.79l-.09-.09-.09.09a11.6,11.6,0,0,1-3.88,2.79,8.14,8.14,0,0,1-5.1,0l-.33.55a11.16,11.16,0,0,1-3.67,4.24,9,9,0,0,1-6.22.78l-.37-.05-.24.32a9,9,0,0,1-4.9,3.85,11.19,11.19,0,0,1-5.66-.38l-.6-.15c-.64,1.1-1.67,3-3.65,3.91a12.26,12.26,0,0,1-4.74,1.09h-1v-.63c0,1.39.44,3.11-.28,4.74a7.77,7.77,0,0,1-3.34,3.66c.05.21.22.42.27.6a11.14,11.14,0,0,1,.44,5.65,8.94,8.94,0,0,1-3.82,4.9l-.31.24c0,.13,0,.26.06.37a9,9,0,0,1-.78,6.22,11.19,11.19,0,0,1-4.25,3.68l-.54.33a8.11,8.11,0,0,1,0,5.09,11.61,11.61,0,0,1-2.79,3.88l-.09.09.09.09a11.6,11.6,0,0,1,2.79,3.88,8.14,8.14,0,0,1,0,5.1l.55.33a11.16,11.16,0,0,1,4.24,3.67,9,9,0,0,1,.78,6.22l-.05.37.32.24a9,9,0,0,1,3.85,4.9,11.19,11.19,0,0,1-.38,5.65l-.15.6a7.45,7.45,0,0,1,3.11,3.65c.72,1.63.29,3.36.29,4.75v.74h1c1.39,0,3.11-.32,4.74.4a7.85,7.85,0,0,1,3.66,3.4c.21-.05.42-.19.6-.24a11.17,11.17,0,0,1,5.65-.42,9,9,0,0,1,4.9,3.83l.24.31.37-.06a9,9,0,0,1,6.22.78A11.19,11.19,0,0,1,213.9,271l.33.54A10.27,10.27,0,0,1,216.87,271.12Z"/><path class="cls-2" d="M223.57,252.18c-4.25,0-6.9-3.38-8.84-5.85a16.15,16.15,0,0,0-2-2.3,15.83,15.83,0,0,0-3.24.18c-3.06.35-7.25.84-10.16-2.08s-2.43-7.1-2.08-10.16a16,16,0,0,0,.18-3.24,16.25,16.25,0,0,0-2.3-2c-2.47-1.94-5.85-4.59-5.85-8.84s3.38-6.9,5.85-8.84a16.2,16.2,0,0,0,2.3-2,16,16,0,0,0-.18-3.24c-.35-3.06-.83-7.25,2.08-10.16s7.1-2.43,10.16-2.08a15.83,15.83,0,0,0,3.24.18,16.23,16.23,0,0,0,2-2.3c1.94-2.47,4.59-5.85,8.84-5.85s6.9,3.38,8.84,5.85a16.13,16.13,0,0,0,2,2.3,16.11,16.11,0,0,0,3.24-.18c3.06-.35,7.25-.83,10.16,2.08s2.43,7.1,2.08,10.16a15.94,15.94,0,0,0-.18,3.24,16.23,16.23,0,0,0,2.3,2c2.47,1.94,5.85,4.59,5.85,8.84s-3.38,6.9-5.85,8.84a16.2,16.2,0,0,0-2.3,2,15.93,15.93,0,0,0,.18,3.24c.35,3.06.83,7.25-2.08,10.16s-7.1,2.43-10.16,2.08a16,16,0,0,0-3.24-.18,16.1,16.1,0,0,0-2,2.3C230.48,248.8,227.82,252.18,223.57,252.18ZM212.08,235a10.6,10.6,0,0,1,4.1.72c2.46,1,4.14,3.16,5.63,5.06a26.56,26.56,0,0,0,1.76,2.09,26.43,26.43,0,0,0,1.76-2.09c1.48-1.89,3.17-4,5.63-5.05s5.3-.73,7.74-.45c.71.08,1.74.2,2.49.22,0-.75-.14-1.78-.22-2.49-.28-2.44-.6-5.21.45-7.74s3.16-4.14,5.05-5.63a26.51,26.51,0,0,0,2.09-1.76,26.35,26.35,0,0,0-2.09-1.76c-1.89-1.49-4-3.17-5.06-5.63s-.73-5.3-.45-7.74c.08-.71.2-1.74.22-2.49-.75,0-1.78.14-2.49.22-2.44.28-5.21.6-7.74-.45s-4.14-3.16-5.63-5.05a26.63,26.63,0,0,0-1.76-2.09,26.64,26.64,0,0,0-1.76,2.09c-1.49,1.89-3.17,4-5.63,5.06s-5.3.73-7.74.45c-.71-.08-1.74-.2-2.49-.22,0,.75.14,1.78.22,2.49.28,2.44.6,5.21-.45,7.74s-3.16,4.14-5.05,5.63a26.67,26.67,0,0,0-2.09,1.76,26.62,26.62,0,0,0,2.09,1.76c1.89,1.49,4,3.17,5.06,5.63s.73,5.3.45,7.74c-.08.71-.2,1.74-.22,2.49.75,0,1.78-.14,2.49-.22A31.75,31.75,0,0,1,212.08,235Z"/><path d="M63.36,15.58l61.82,50.27.13.11a12.14,12.14,0,0,1-1.11,19.33l-76,51.58c-6.11,4.14-14.54-.08-14.6-7.46,0-.05,0-.1,0-.15V29.76A18.28,18.28,0,0,1,63.36,15.58Z"/><path d="M382.12,15.58,320.29,65.84l-.13.11a12.14,12.14,0,0,0,1.11,19.33l76,51.58c6.11,4.14,14.54-.08,14.6-7.46,0-.05,0-.1,0-.15V29.76A18.28,18.28,0,0,0,382.12,15.58Z"/><path class="cls-3" d="M65.7,31.51l45.95,37.36.09.08a9,9,0,0,1-.86,14.38L54.43,121.63a7,7,0,0,1-10.88-5.53s0-.08,0-.11V42.06A13.59,13.59,0,0,1,65.7,31.51Z"/><path class="cls-3" d="M380.61,30.51,334.66,67.88l-.09.08a9,9,0,0,0,.86,14.38l56.46,38.29a7,7,0,0,0,10.88-5.53s0-.08,0-.11V41.06A13.59,13.59,0,0,0,380.61,30.51Z"/><path class="cls-4" d="M73,210.9a373.83,373.83,0,0,1-48.06-10.19c-9.31-2.62-13.28,11.85-4,14.46A373.9,373.9,0,0,0,69,225.36c4,.58,8-1,9.23-5.24,1-3.52-1.23-8.65-5.24-9.23Z"/><path class="cls-4" d="M64.47,238.38l-47.94-3.74c-9.62-.75-9.58,14.25,0,15l47.94,3.74c9.63.75,9.58-14.25,0-15Z"/><path class="cls-4" d="M67,265.23c-15.11,1.57-30.27,3.78-45.48,4.1-9.64.21-9.67,15.21,0,15,15.21-.32,30.36-2.53,45.48-4.1,4-.42,7.5-3.15,7.5-7.5,0-3.73-3.45-7.92-7.5-7.5Z"/><path class="cls-4" d="M368.81,210.9a373.85,373.85,0,0,0,48.06-10.19c9.31-2.62,13.28,11.85,4,14.46a373.92,373.92,0,0,1-48.06,10.19c-4,.58-8-1-9.23-5.24-1-3.52,1.23-8.65,5.24-9.23Z"/><path class="cls-4" d="M377.33,238.38l47.94-3.74c9.63-.75,9.58,14.25,0,15l-47.94,3.74c-9.63.75-9.58-14.25,0-15Z"/><path class="cls-4" d="M374.84,265.23c15.11,1.57,30.27,3.78,45.48,4.1,9.64.21,9.67,15.21,0,15-15.21-.32-30.36-2.53-45.48-4.1-4-.42-7.5-3.15-7.5-7.5,0-3.73,3.45-7.92,7.5-7.5Z"/><circle class="cls-5" cx="179.98" cy="156.94" r="33.82"/><circle cx="187.1" cy="158.13" r="11.57"/><circle class="cls-5" cx="260.08" cy="156.94" r="33.82"/><circle cx="247.62" cy="158.13" r="11.57"/><path class="cls-6" d="M281.6,179.72a78.21,78.21,0,0,0-59.29,27.1,78.39,78.39,0,1,0,0,102.57A78.39,78.39,0,1,0,281.6,179.72Z"/><path class="cls-1" d="M195.93,215.66c4.38-6,13.23-14.16,22.93-1.09a2.65,2.65,0,0,0,4.54.16c6.24-7.4,16.72-11.43,24.87.08,2.44,3.45,2.62,9.74.37,13.52-6.5,10.93-19.38,20.18-24.31,23.47a3.42,3.42,0,0,1-4,0c-5.13-3.36-18.89-13-24.83-22.74C193.25,225.33,193.46,219.06,195.93,215.66Z"/><circle class="cls-7" cx="134.14" cy="222.23" r="6.63"/><circle class="cls-7" cx="164.14" cy="252.23" r="6.63"/><circle class="cls-7" cx="121.14" cy="252.23" r="6.63"/><circle class="cls-7" cx="148.14" cy="279.23" r="6.63"/><circle class="cls-7" cx="304.14" cy="222.23" r="6.63"/><circle class="cls-7" cx="334.14" cy="252.23" r="6.63"/><circle class="cls-7" cx="291.14" cy="252.23" r="6.63"/><circle class="cls-7" cx="318.14" cy="279.23" r="6.63"/></g></g></svg>