<svg xmlns="http://www.w3.org/2000/svg" viewBox="0 0 507.82 456.09"><defs><style>.cls-1{opacity:0.3;}.cls-2{fill:#64928a;}.cls-3{fill:#6c9d96;}.cls-4{fill:#f8f9d2;}.cls-5{fill:#4f7a73;}.cls-6{fill:#668d85;}.cls-7{fill:#395b55;}</style></defs><title>Recurso 29</title><g id="Capa_2" data-name="Capa 2"><g id="Capa_1-2" data-name="Capa 1"><ellipse class="cls-1" cx="253.91" cy="333.65" rx="253.91" ry="122.44"/><path class="cls-2" d="M481.21,322c0,53.9-101.59,97.59-226.92,97.59S27.38,375.87,27.38,322c0-9.07-.79-194-.86-211.4-.33-86.1,233.59-86,233.59-86C289.18,26.56,480.8,27,481.77,114,482,133.39,481.21,312.15,481.21,322Z"/><ellipse class="cls-3" cx="254.29" cy="111.05" rx="226.92" ry="111.05"/><path class="cls-3" d="M254.5,424.56c-7.52,0-14.11-4.64-19.92-8.74-4.25-3-8.64-6.09-12-6.31-3.7-.25-8.65,2.32-13.44,4.81-6.45,3.35-13.13,6.81-20.25,5.83-7.6-1.05-13.53-6.66-18.76-11.61-3.72-3.52-7.56-7.15-10.74-7.85-3.73-.82-9.08.93-14.25,2.62-6.91,2.26-14.06,4.61-20.85,2.42-7.65-2.47-12.53-9.34-16.83-15.4-2.85-4-5.79-8.17-8.57-9.46-3.67-1.71-9.32-1.39-14.78-1.08-7.41.42-15.07.85-20.92-3.34C55.64,371,53.72,361.95,52,353.92c-.89-4.21-1.8-8.57-3.37-10.77-2.08-2.93-5.82-5.81-9.43-8.6-6.87-5.3-14.65-11.3-14.65-20.58a6,6,0,0,1,12,0c0,3.38,5.07,7.29,10,11.08,4.31,3.32,8.77,6.76,11.88,11.15s4.19,9.84,5.33,15.25c1.3,6.17,2.64,12.55,6.4,15.23,2.42,1.73,7.93,1.42,13.27,1.12,6.62-.37,14.12-.79,20.52,2.19,5.66,2.64,9.54,8.11,13.29,13.4,3.38,4.76,6.87,9.68,10.72,10.92,3.09,1,8.35-.73,13.44-2.4C147.8,389.81,155,387.44,162,389c6.44,1.42,11.51,6.22,16.41,10.86,4.11,3.89,8.37,7.92,12.16,8.44,3.33.46,8.29-2.11,13.08-4.59,6.25-3.25,12.72-6.6,19.76-6.13,6.72.45,12.51,4.53,18.11,8.48,4.57,3.22,9.29,6.55,13,6.55s8.44-3.33,13-6.55c5.6-3.95,11.39-8,18.11-8.48,7-.47,13.5,2.89,19.76,6.13,4.79,2.48,9.74,5.05,13.08,4.59,3.79-.52,8-4.55,12.16-8.44,4.9-4.64,10-9.44,16.41-10.86,6.93-1.53,14.18.85,20.56,2.94,5.09,1.67,10.35,3.39,13.43,2.4,3.86-1.24,7.35-6.16,10.72-10.92,3.75-5.29,7.63-10.76,13.29-13.39,6.4-3,13.9-2.56,20.52-2.19,5.34.3,10.85.61,13.27-1.12,3.75-2.68,5.1-9.06,6.4-15.23,1.14-5.41,2.32-11,5.33-15.25s7.58-7.82,11.88-11.15c4.91-3.78,10-7.7,10-11.08a6,6,0,0,1,12,0c0,9.28-7.79,15.29-14.65,20.58-3.61,2.79-7.35,5.67-9.43,8.6-1.57,2.2-2.48,6.56-3.37,10.77-1.69,8-3.61,17.12-11.16,22.52-5.85,4.19-13.51,3.76-20.92,3.34-5.46-.31-11.11-.62-14.78,1.08-2.78,1.29-5.73,5.45-8.57,9.46-4.3,6.06-9.18,12.93-16.83,15.4-6.79,2.19-13.94-.15-20.85-2.42-5.17-1.7-10.51-3.45-14.24-2.62-3.19.7-7,4.34-10.75,7.85-5.23,5-11.16,10.56-18.76,11.61-7.12,1-13.79-2.48-20.25-5.83-4.79-2.48-9.76-5.06-13.43-4.81-3.36.22-7.75,3.32-12,6.31C268.61,419.92,262,424.56,254.5,424.56Z"/><path class="cls-3" d="M254.5,376.56c-7.52,0-14.11-4.64-19.92-8.74-4.25-3-8.64-6.09-12-6.31-3.7-.25-8.65,2.32-13.44,4.81-6.45,3.35-13.13,6.81-20.25,5.83-7.6-1.05-13.53-6.66-18.76-11.61-3.72-3.52-7.56-7.15-10.74-7.85-3.73-.82-9.08.93-14.25,2.62-6.91,2.26-14.06,4.61-20.85,2.42-7.65-2.47-12.53-9.34-16.83-15.4-2.85-4-5.79-8.17-8.57-9.46-3.67-1.71-9.32-1.39-14.78-1.08-7.41.42-15.07.85-20.92-3.34C55.64,323,53.72,313.95,52,305.92c-.89-4.21-1.8-8.57-3.37-10.77-2.08-2.93-5.82-5.81-9.43-8.6-6.87-5.3-14.65-11.3-14.65-20.58a6,6,0,0,1,12,0c0,3.38,5.07,7.29,10,11.08,4.31,3.32,8.77,6.76,11.88,11.15s4.19,9.84,5.33,15.25c1.3,6.17,2.64,12.55,6.4,15.23,2.42,1.73,7.93,1.42,13.27,1.12,6.62-.37,14.12-.79,20.52,2.19,5.66,2.64,9.54,8.11,13.29,13.4,3.38,4.76,6.87,9.68,10.72,10.92,3.09,1,8.35-.73,13.44-2.4C147.8,341.81,155,339.44,162,341c6.44,1.42,11.51,6.22,16.41,10.86,4.11,3.89,8.37,7.92,12.16,8.44,3.33.46,8.29-2.11,13.08-4.59,6.25-3.25,12.72-6.6,19.76-6.13,6.72.45,12.51,4.53,18.11,8.48,4.57,3.22,9.29,6.55,13,6.55s8.44-3.33,13-6.55c5.6-3.95,11.39-8,18.11-8.48,7-.47,13.5,2.89,19.76,6.13,4.79,2.48,9.74,5.05,13.08,4.59,3.79-.52,8-4.55,12.16-8.44,4.9-4.64,10-9.44,16.41-10.86,6.93-1.53,14.18.85,20.56,2.94,5.09,1.67,10.35,3.39,13.43,2.4,3.86-1.24,7.35-6.16,10.72-10.92,3.75-5.29,7.63-10.76,13.29-13.39,6.4-3,13.9-2.56,20.52-2.19,5.34.3,10.85.61,13.27-1.12,3.75-2.68,5.1-9.06,6.4-15.23,1.14-5.41,2.32-11,5.33-15.25s7.58-7.82,11.88-11.15c4.91-3.78,10-7.7,10-11.08a6,6,0,0,1,12,0c0,9.28-7.79,15.29-14.65,20.58-3.61,2.79-7.35,5.67-9.43,8.6-1.57,2.2-2.48,6.56-3.37,10.77-1.69,8-3.61,17.12-11.16,22.52-5.85,4.19-13.51,3.76-20.92,3.34-5.46-.31-11.11-.63-14.78,1.08-2.78,1.29-5.73,5.45-8.57,9.46-4.3,6.06-9.18,12.93-16.83,15.4-6.79,2.19-13.94-.15-20.85-2.42-5.17-1.7-10.51-3.45-14.24-2.62-3.19.7-7,4.34-10.75,7.85-5.23,5-11.16,10.56-18.76,11.61-7.12,1-13.79-2.48-20.25-5.83-4.79-2.48-9.76-5.05-13.43-4.81-3.36.22-7.75,3.32-12,6.31C268.61,371.92,262,376.56,254.5,376.56Z"/><path class="cls-3" d="M254.5,330.56c-7.52,0-14.11-4.64-19.92-8.74-4.25-3-8.64-6.09-12-6.31-3.7-.24-8.65,2.32-13.44,4.81-6.45,3.35-13.13,6.81-20.25,5.83-7.6-1.05-13.53-6.66-18.76-11.61-3.72-3.52-7.56-7.15-10.74-7.85-3.73-.82-9.08.93-14.25,2.62-6.91,2.26-14.06,4.61-20.85,2.42-7.65-2.47-12.53-9.34-16.83-15.4-2.85-4-5.79-8.17-8.57-9.46-3.67-1.71-9.32-1.39-14.78-1.08-7.41.42-15.07.85-20.92-3.34C55.64,277,53.72,267.95,52,259.92c-.89-4.21-1.8-8.57-3.37-10.77-2.08-2.93-5.82-5.81-9.43-8.6-6.87-5.3-14.65-11.3-14.65-20.58a6,6,0,0,1,12,0c0,3.38,5.07,7.29,10,11.08,4.31,3.32,8.77,6.76,11.88,11.15s4.19,9.84,5.33,15.25c1.3,6.17,2.64,12.55,6.4,15.23,2.42,1.73,7.93,1.42,13.27,1.12,6.62-.37,14.12-.79,20.52,2.19,5.66,2.64,9.54,8.11,13.29,13.4,3.38,4.76,6.87,9.68,10.72,10.92,3.09,1,8.35-.73,13.44-2.4C147.8,295.81,155,293.44,162,295c6.44,1.42,11.51,6.22,16.41,10.86,4.11,3.89,8.37,7.92,12.16,8.44,3.33.46,8.29-2.11,13.08-4.59,6.25-3.25,12.72-6.6,19.76-6.13,6.72.45,12.51,4.53,18.11,8.48,4.57,3.22,9.29,6.55,13,6.55s8.44-3.33,13-6.55c5.6-3.95,11.39-8,18.11-8.48,7-.47,13.5,2.89,19.76,6.13,4.79,2.48,9.74,5.05,13.08,4.59,3.79-.52,8-4.55,12.16-8.44,4.9-4.64,10-9.44,16.41-10.86,6.93-1.53,14.18.85,20.56,2.94,5.09,1.67,10.35,3.39,13.43,2.4,3.86-1.24,7.35-6.16,10.72-10.92,3.75-5.29,7.63-10.76,13.29-13.39,6.4-3,13.9-2.56,20.52-2.19,5.34.3,10.85.61,13.27-1.12,3.75-2.68,5.1-9.06,6.4-15.23,1.14-5.41,2.32-11,5.33-15.25s7.58-7.82,11.88-11.15c4.91-3.78,10-7.7,10-11.08a6,6,0,1,1,12,0c0,9.28-7.79,15.29-14.65,20.58-3.61,2.79-7.35,5.67-9.43,8.6-1.57,2.2-2.48,6.56-3.37,10.77-1.69,8-3.61,17.12-11.16,22.52-5.85,4.19-13.51,3.76-20.92,3.34-5.46-.31-11.11-.62-14.78,1.08-2.78,1.29-5.73,5.45-8.57,9.46-4.3,6.06-9.18,12.93-16.83,15.4-6.79,2.19-13.94-.15-20.85-2.42-5.17-1.7-10.51-3.45-14.24-2.62-3.19.7-7,4.34-10.75,7.85-5.23,5-11.16,10.56-18.76,11.61-7.12,1-13.79-2.48-20.25-5.83-4.79-2.48-9.76-5.06-13.43-4.81-3.36.22-7.75,3.32-12,6.31C268.61,325.92,262,330.56,254.5,330.56Z"/><path class="cls-3" d="M254.5,284.56c-7.52,0-14.11-4.64-19.92-8.74-4.25-3-8.64-6.09-12-6.31-3.7-.24-8.65,2.32-13.44,4.81-6.45,3.35-13.13,6.81-20.25,5.83-7.6-1.05-13.53-6.66-18.76-11.61-3.72-3.52-7.56-7.15-10.74-7.85-3.73-.82-9.08.93-14.25,2.62-6.91,2.26-14.06,4.61-20.85,2.42-7.65-2.47-12.53-9.34-16.83-15.4-2.85-4-5.79-8.16-8.57-9.46-3.67-1.71-9.32-1.39-14.78-1.08-7.41.42-15.07.85-20.92-3.34C55.64,231,53.72,221.95,52,213.92c-.89-4.21-1.8-8.57-3.37-10.77-2.08-2.93-5.82-5.81-9.43-8.6-6.87-5.3-14.65-11.3-14.65-20.58a6,6,0,0,1,12,0c0,3.38,5.07,7.29,10,11.08,4.31,3.32,8.77,6.76,11.88,11.15s4.19,9.84,5.33,15.25c1.3,6.17,2.64,12.55,6.4,15.23,2.42,1.73,7.93,1.42,13.27,1.12,6.62-.37,14.12-.79,20.52,2.19,5.66,2.64,9.54,8.11,13.29,13.4,3.38,4.76,6.87,9.68,10.72,10.92,3.09,1,8.35-.73,13.44-2.4C147.8,249.81,155,247.44,162,249c6.44,1.42,11.51,6.22,16.41,10.86,4.11,3.89,8.37,7.92,12.16,8.44,3.33.46,8.29-2.11,13.08-4.59,6.25-3.25,12.72-6.6,19.76-6.13,6.72.45,12.51,4.53,18.11,8.48,4.57,3.22,9.29,6.55,13,6.55s8.44-3.33,13-6.55c5.6-3.95,11.39-8,18.11-8.48,7-.47,13.5,2.89,19.76,6.13,4.79,2.48,9.74,5.05,13.08,4.59,3.79-.52,8-4.55,12.16-8.44,4.9-4.64,10-9.44,16.41-10.86,6.93-1.53,14.18.85,20.56,2.94,5.09,1.67,10.35,3.39,13.43,2.4,3.86-1.24,7.35-6.16,10.72-10.92,3.75-5.29,7.63-10.76,13.29-13.39,6.4-3,13.9-2.56,20.52-2.19,5.34.3,10.85.61,13.27-1.12,3.75-2.68,5.1-9.06,6.4-15.23,1.14-5.41,2.32-11,5.33-15.25s7.58-7.82,11.88-11.15c4.91-3.78,10-7.7,10-11.08a6,6,0,1,1,12,0c0,9.28-7.79,15.29-14.65,20.58-3.61,2.79-7.35,5.67-9.43,8.6-1.57,2.2-2.48,6.56-3.37,10.77-1.69,8-3.61,17.12-11.16,22.52-5.85,4.19-13.51,3.76-20.92,3.34-5.46-.31-11.11-.62-14.78,1.08-2.78,1.29-5.73,5.45-8.57,9.46-4.3,6.06-9.18,12.93-16.83,15.4-6.79,2.19-13.94-.15-20.85-2.42-5.17-1.7-10.51-3.45-14.24-2.62-3.19.7-7,4.34-10.75,7.85-5.23,5-11.16,10.56-18.76,11.61-7.12,1-13.79-2.48-20.25-5.83-4.79-2.48-9.76-5.06-13.43-4.81-3.36.22-7.75,3.32-12,6.31C268.61,279.92,262,284.56,254.5,284.56Z"/><path class="cls-3" d="M254.5,236.56c-7.52,0-14.11-4.64-19.92-8.74-4.25-3-8.64-6.09-12-6.31-3.7-.24-8.65,2.33-13.44,4.81-6.45,3.35-13.13,6.81-20.25,5.83-7.6-1.05-13.53-6.66-18.76-11.61-3.72-3.52-7.56-7.15-10.74-7.85-3.73-.82-9.08.93-14.25,2.62-6.91,2.26-14.06,4.61-20.85,2.42-7.65-2.47-12.53-9.34-16.83-15.4-2.85-4-5.79-8.16-8.57-9.46-3.67-1.71-9.32-1.39-14.78-1.08-7.41.42-15.07.85-20.92-3.34C55.64,183,53.72,173.95,52,165.92c-.89-4.21-1.8-8.57-3.37-10.77-2.08-2.93-5.82-5.81-9.43-8.6-6.87-5.3-14.65-11.3-14.65-20.58a6,6,0,0,1,12,0c0,3.38,5.07,7.29,10,11.08,4.31,3.32,8.77,6.76,11.88,11.15s4.19,9.84,5.33,15.25c1.3,6.17,2.64,12.55,6.4,15.23,2.42,1.73,7.93,1.42,13.27,1.12,6.62-.37,14.12-.79,20.52,2.19,5.66,2.64,9.54,8.11,13.29,13.4,3.38,4.76,6.87,9.68,10.72,10.92,3.09,1,8.35-.73,13.44-2.4C147.8,201.81,155,199.44,162,201c6.44,1.42,11.51,6.22,16.41,10.86,4.11,3.89,8.37,7.92,12.16,8.44,3.33.46,8.29-2.11,13.08-4.59,6.25-3.25,12.72-6.6,19.76-6.13,6.72.45,12.51,4.53,18.11,8.48,4.57,3.22,9.29,6.55,13,6.55s8.44-3.33,13-6.55c5.6-3.95,11.39-8,18.11-8.48,7-.46,13.5,2.89,19.76,6.13,4.79,2.48,9.74,5.05,13.08,4.59,3.79-.52,8-4.55,12.16-8.44,4.9-4.64,10-9.44,16.41-10.86,6.93-1.53,14.18.85,20.56,2.94,5.09,1.67,10.35,3.39,13.43,2.4,3.86-1.24,7.35-6.16,10.72-10.92,3.75-5.29,7.63-10.76,13.29-13.39,6.4-3,13.9-2.56,20.52-2.19,5.34.3,10.85.61,13.27-1.12,3.75-2.68,5.1-9.06,6.4-15.23,1.14-5.41,2.32-11,5.33-15.25s7.58-7.82,11.88-11.15c4.91-3.78,10-7.7,10-11.08a6,6,0,1,1,12,0c0,9.28-7.79,15.29-14.65,20.58-3.61,2.79-7.35,5.67-9.43,8.6-1.57,2.2-2.48,6.56-3.37,10.77-1.69,8-3.61,17.12-11.16,22.52-5.85,4.19-13.51,3.76-20.92,3.34-5.46-.31-11.11-.63-14.78,1.08-2.78,1.29-5.73,5.45-8.57,9.46-4.3,6.06-9.18,12.93-16.83,15.4-6.79,2.19-13.94-.15-20.85-2.42-5.17-1.7-10.51-3.45-14.24-2.62-3.19.7-7,4.34-10.75,7.85-5.23,5-11.16,10.56-18.76,11.61-7.12,1-13.79-2.48-20.25-5.83-4.79-2.48-9.76-5.06-13.43-4.81-3.36.22-7.75,3.32-12,6.31C268.61,231.92,262,236.56,254.5,236.56Z"/><ellipse class="cls-4" cx="213.18" cy="37.9" rx="33.82" ry="25.78"/><ellipse cx="220.3" cy="38.8" rx="11.57" ry="8.82"/><ellipse class="cls-4" cx="293.28" cy="37.9" rx="33.82" ry="25.78"/><ellipse cx="280.82" cy="38.8" rx="11.57" ry="8.82"/><path class="cls-5" d="M300.18,171.83c-13.49-2.27,2.81-72,7.33-86.8,5.73-27.52-20.54-32.74-49.84-34.27-60-3.14-68.93,24-67,54.88,2,32.75,26.78,95.21,80.46,101.62,20,2.39,37.38-2.29,55.54-11.84a63.86,63.86,0,0,0,25.83-24.85c-6.06-3-15.54-7.39-23.79-9.86C319.07,169.74,309.64,175.17,300.18,171.83Z"/><path class="cls-6" d="M350.93,158.15c5.82,3.26,5.92,9.26.21,13.39s-15.05,4.84-20.88,1.58-5.92-9.26-.21-13.39S345.1,154.88,350.93,158.15Z"/><path class="cls-7" d="M336.53,167.64c1.53.86,2.24,1.94,1.58,2.42s-2.44.17-4-.69-2.24-1.94-1.58-2.42S335,166.78,336.53,167.64Z"/><path class="cls-7" d="M346.11,160.7c1.53.86,2.24,1.94,1.58,2.42s-2.44.17-4-.69-2.24-1.94-1.58-2.42S344.58,159.84,346.11,160.7Z"/><path class="cls-7" d="M311.42,174.61a5.23,5.23,0,0,0,.38,4.34,3,3,0,0,0,4.1,1.08,3.06,3.06,0,0,0,1.08-4.1,2.06,2.06,0,0,1-.14-.28l.3.72a3,3,0,0,1-.12-.45l.11.8a2.91,2.91,0,0,1,0-.64l-.11.8a3.49,3.49,0,0,1,.18-.66,3,3,0,0,0-.3-2.31,3,3,0,0,0-4.1-1.08,3.44,3.44,0,0,0-1.38,1.79Z"/><path class="cls-7" d="M297,173.75a10.92,10.92,0,0,0-6.21,4.18c-1.88,2.31-3.3,5-1.76,7.88,1.81,3.41,7,.38,5.18-3,.28.52.12.42.51-.16a11.72,11.72,0,0,1,1.24-1.51,4.6,4.6,0,0,1,2.64-1.58,3,3,0,0,0,2.1-3.69,3.06,3.06,0,0,0-3.69-2.09Z"/><path class="cls-7" d="M288.43,164.31c-6.5-.63-14.33,2.23-20.27,4.59a39.23,39.23,0,0,0-14.25,9.28c-2.65,2.8,1.58,7.06,4.24,4.24A34,34,0,0,1,271.43,174c5-1.81,11.61-4.26,17-3.74,3.84.38,3.81-5.63,0-6Z"/><path class="cls-7" d="M286.79,148.4c-10.06-.91-21.21,2.31-30.69,5.35-8.94,2.87-18,6.52-25.65,12-3.12,2.22-.13,7.42,3,5.18,7.3-5.19,15.73-8.65,24.21-11.38,9-2.9,19.53-6,29.1-5.14,3.84.35,3.82-5.66,0-6Z"/><path class="cls-7" d="M290.26,131.33c-24-4.76-51-.59-71.68,12.79-3.23,2.09-.23,7.29,3,5.18,19.26-12.49,44.6-16.64,67.06-12.18,3.77.75,5.39-5,1.6-5.79Z"/><path class="cls-7" d="M296.72,108.42c-11.41-10-29.21-10-43.4-8.22C238.89,102,222.06,106,211.21,116.4c-2.8,2.67,1.45,6.91,4.24,4.24,9.63-9.21,25.06-12.79,37.86-14.43,12.29-1.58,29.15-2.31,39.16,6.46,2.89,2.53,7.15-1.69,4.24-4.24Z"/><path class="cls-7" d="M302.75,85.42c-10.21-13.46-32.2-13.78-47.4-11.69C238.4,76.06,220.54,81.47,205.7,90c-3.34,1.93-.32,7.12,3,5.18,13.45-7.77,29.26-12.42,44.5-15.12a83.89,83.89,0,0,1,21.71-.76c7.8.67,17.57,2.45,22.62,9.11,2.3,3,7.52,0,5.18-3Z"/><path class="cls-7" d="M46.19,165c-7.66-2.89-12.61-10.77-13.95-22.17l-.62-5.26c-2.76-23.55,10.93-55,30.52-70.09L88.34,47.31c3.66-2.83,7.31-3.77,10.27-2.65s4.87,4.16,5.39,8.56l3.69,31.47c2.76,23.55-10.93,55-30.52,70.09l-4.37,3.37C63.3,165.47,53.85,167.9,46.19,165Z"/><path class="cls-5" d="M38.19,163c-7.66-2.89-12.61-10.77-13.95-22.17l-.62-5.26c-2.76-23.55,10.93-55,30.52-70.09L80.34,45.31c3.66-2.83,7.31-3.77,10.27-2.65s4.87,4.16,5.39,8.56l3.69,31.47c2.76,23.55-10.93,55-30.52,70.09l-4.37,3.37C55.3,163.47,45.85,165.9,38.19,163Z"/><path class="cls-7" d="M441.53,158.15l-4.37-3.37c-19.59-15.1-33.28-46.54-30.52-70.09l3.69-31.47c.52-4.4,2.43-7.45,5.38-8.56s6.6-.18,10.27,2.65l26.19,20.18c19.59,15.1,33.28,46.54,30.52,70.09l-.62,5.26c-1.34,11.41-6.29,19.28-13.95,22.17S451,165.47,441.53,158.15Z"/><path class="cls-5" d="M449.53,156.15l-4.37-3.37c-19.59-15.1-33.28-46.54-30.52-70.09l3.69-31.47c.52-4.4,2.43-7.45,5.38-8.56s6.6-.18,10.27,2.65l26.19,20.18c19.59,15.1,33.28,46.54,30.52,70.09l-.62,5.26c-1.34,11.41-6.29,19.28-13.95,22.17S459,163.47,449.53,156.15Z"/></g></g></svg>