<svg xmlns="http://www.w3.org/2000/svg" xmlns:xlink="http://www.w3.org/1999/xlink" viewBox="0 0 2221.37 2121.59"><defs><style>.cls-1{fill:none;}.cls-2{fill:#f62347;}.cls-3{opacity:0.2;}.cls-4{clip-path:url(#clip-path);}.cls-5,.cls-6{fill:#fff;}.cls-6{font-size:105.65px;font-family:Raleway-Bold, Raleway;font-weight:700;}.cls-7{letter-spacing:-0.01em;}.cls-8{letter-spacing:-0.07em;}.cls-9{letter-spacing:-0.03em;}</style><clipPath id="clip-path"><polygon class="cls-1" points="1704.45 1526.73 525.67 1526.73 525.67 598.55 1707.44 595.57 1704.45 1526.73"/></clipPath></defs><title>Recurso 3</title><g id="Capa_2" data-name="Capa 2"><g id="Capa_1-2" data-name="Capa 1"><rect class="cls-2" x="529.12" y="595.56" width="1174.86" height="931.16"/><g class="cls-3"><g class="cls-4"><path class="cls-5" d="M1052.29,2111.76c8.91-34.09,35.25-62.5,68.51-73.37,7-2.29,11.7-9.25,9.75-16.69-1.78-6.82-9.64-12.06-16.69-9.75-42.74,14-76.6,49.24-88,92.87-4.45,17,22,24,26.45,6.94Z"/><path class="cls-5" d="M1146.17,1961.93c34.08-8.92,62.49-35.25,73.36-68.51,2.3-7,9.26-11.71,16.69-9.76,6.83,1.79,12.06,9.65,9.76,16.69-14,42.74-49.24,76.61-92.88,88-17,4.45-24-22-6.93-26.44Z"/><path class="cls-5" d="M1296,1868.05c8.91-34.09,35.25-62.49,68.51-73.37,7-2.29,11.7-9.25,9.75-16.69-1.78-6.82-9.64-12.06-16.69-9.75-42.74,14-76.61,49.24-88,92.87-4.45,17,22,24,26.45,6.94Z"/><path class="cls-5" d="M1389.88,1718.22c34.08-8.92,62.49-35.25,73.36-68.51,2.3-7,9.26-11.71,16.69-9.76,6.83,1.79,12.06,9.65,9.76,16.69-14,42.74-49.24,76.61-92.88,88-17,4.45-24-22-6.93-26.44Z"/><path class="cls-5" d="M1539.71,1624.34c8.91-34.09,35.25-62.49,68.51-73.37,7-2.29,11.7-9.25,9.75-16.69-1.78-6.82-9.64-12.06-16.69-9.75-42.74,14-76.61,49.24-88,92.87-4.45,17,22,24,26.45,6.94Z"/><path class="cls-5" d="M1633.59,1474.51c34.08-8.92,62.49-35.25,73.36-68.51,2.3-7,9.26-11.71,16.69-9.76,6.83,1.79,12.06,9.65,9.76,16.69-14,42.74-49.24,76.61-92.88,88-17,4.45-24-22-6.93-26.44Z"/><path class="cls-5" d="M1783.42,1380.63c8.91-34.09,35.24-62.49,68.51-73.37,7-2.29,11.7-9.25,9.75-16.69-1.78-6.82-9.64-12.06-16.69-9.75-42.74,14-76.61,49.24-88,92.87-4.45,17,22,24,26.45,6.94Z"/><path class="cls-5" d="M1877.3,1230.8c34.08-8.92,62.49-35.25,73.36-68.51,2.3-7,9.26-11.7,16.69-9.76,6.83,1.79,12.06,9.65,9.76,16.69-14,42.74-49.24,76.61-92.88,88-17,4.45-24-22-6.93-26.44Z"/><path class="cls-5" d="M2027.12,1136.92c8.92-34.09,35.25-62.49,68.52-73.37,7-2.29,11.7-9.25,9.75-16.69-1.78-6.82-9.64-12.06-16.69-9.75-42.74,14-76.61,49.24-88,92.87-4.45,17,22,24,26.44,6.94Z"/><path class="cls-5" d="M2121,987.09c34.08-8.92,62.49-35.25,73.36-68.51,2.29-7,9.26-11.7,16.69-9.76,6.83,1.79,12.06,9.65,9.76,16.69-14,42.74-49.24,76.61-92.88,88-17,4.44-24-22-6.93-26.45Z"/><path class="cls-5" d="M2111.76,936.84c-34.09,8.92-62.5,35.25-73.37,68.52-2.29,7-9.25,11.7-16.69,9.75-6.82-1.78-12.06-9.64-9.75-16.69,14-42.74,49.24-76.61,92.87-88,17-4.45,24,22,6.94,26.44Z"/><path class="cls-5" d="M1961.93,1030.73c-8.92,34.08-35.25,62.49-68.51,73.36-7,2.29-11.71,9.26-9.76,16.69,1.79,6.83,9.65,12.06,16.69,9.76,42.74-14,76.61-49.24,88-92.88,4.45-17-22-24-26.44-6.93Z"/><path class="cls-5" d="M1868.05,1180.55c-34.09,8.92-62.49,35.25-73.37,68.52-2.29,7-9.25,11.7-16.69,9.75-6.82-1.79-12.06-9.65-9.75-16.69,14-42.74,49.24-76.61,92.87-88,17-4.45,24,22,6.94,26.44Z"/><path class="cls-5" d="M1718.22,1274.44c-8.92,34.08-35.25,62.49-68.51,73.36-7,2.29-11.71,9.26-9.76,16.69,1.79,6.82,9.65,12.06,16.69,9.76,42.74-14,76.61-49.24,88-92.88,4.45-17-22-24-26.44-6.93Z"/><path class="cls-5" d="M1624.34,1424.26c-34.09,8.92-62.49,35.25-73.37,68.52-2.29,7-9.25,11.7-16.69,9.75-6.82-1.79-12.06-9.65-9.75-16.69,14-42.74,49.24-76.61,92.87-88,17-4.45,24,22,6.94,26.44Z"/><path class="cls-5" d="M1474.51,1518.15c-8.92,34.08-35.25,62.49-68.51,73.36-7,2.29-11.71,9.26-9.76,16.69,1.79,6.82,9.65,12.06,16.69,9.76,42.74-14,76.61-49.24,88-92.88,4.45-17-22-24-26.44-6.93Z"/><path class="cls-5" d="M1380.63,1668c-34.09,8.92-62.49,35.25-73.37,68.52-2.29,7-9.25,11.7-16.69,9.75-6.82-1.79-12.06-9.65-9.75-16.69,14-42.74,49.24-76.61,92.87-88,17-4.45,24,22,6.94,26.44Z"/><path class="cls-5" d="M1230.8,1761.86c-8.92,34.08-35.25,62.49-68.51,73.36-7,2.29-11.7,9.26-9.76,16.69,1.79,6.82,9.65,12.06,16.69,9.76,42.74-14,76.61-49.24,88-92.88,4.45-17-22-24-26.44-6.93Z"/><path class="cls-5" d="M1136.92,1911.68c-34.09,8.92-62.49,35.25-73.37,68.52-2.29,7-9.25,11.7-16.69,9.75-6.82-1.79-12.06-9.65-9.75-16.69,14-42.74,49.24-76.61,92.87-88,17-4.45,24,22,6.94,26.44Z"/><path class="cls-5" d="M987.09,2005.57c-8.92,34.08-35.25,62.49-68.51,73.36-7,2.29-11.7,9.26-9.76,16.69,1.79,6.82,9.65,12.06,16.69,9.76,42.74-14,76.61-49.24,88-92.88,4.44-17-22-24-26.45-6.93Z"/><path class="cls-5" d="M922.52,1982c8.91-34.09,35.25-62.49,68.51-73.37,7-2.29,11.7-9.25,9.76-16.69-1.79-6.82-9.65-12-16.69-9.75-42.74,14-76.61,49.24-88,92.87-4.45,17,22,24,26.45,6.94Z"/><path class="cls-5" d="M1016.4,1832.16c34.08-8.92,62.49-35.25,73.37-68.51,2.29-7,9.25-11.7,16.68-9.76,6.83,1.79,12.06,9.65,9.76,16.69-14,42.74-49.24,76.61-92.87,88-17,4.44-24-22-6.94-26.45Z"/><path class="cls-5" d="M1166.23,1738.28c8.91-34.09,35.25-62.49,68.51-73.37,7-2.29,11.7-9.25,9.75-16.69-1.78-6.82-9.64-12-16.68-9.75-42.74,14-76.61,49.24-88,92.87-4.45,17,22,24,26.45,6.94Z"/><path class="cls-5" d="M1260.11,1588.45c34.08-8.91,62.49-35.25,73.36-68.51,2.3-7,9.26-11.7,16.69-9.76,6.83,1.79,12.06,9.65,9.76,16.69-14,42.74-49.24,76.61-92.88,88-17,4.45-24-22-6.93-26.45Z"/><path class="cls-5" d="M1409.94,1494.57c8.91-34.09,35.25-62.49,68.51-73.37,7-2.29,11.7-9.25,9.75-16.69-1.78-6.82-9.64-12-16.69-9.75-42.74,14-76.6,49.24-88,92.87-4.45,17,22,24,26.45,6.94Z"/><path class="cls-5" d="M1503.82,1344.74c34.08-8.91,62.49-35.25,73.36-68.51,2.3-7,9.26-11.7,16.69-9.76,6.83,1.79,12.06,9.65,9.76,16.69-14,42.74-49.24,76.61-92.88,88-17,4.45-24-22-6.93-26.45Z"/><path class="cls-5" d="M1653.65,1250.86c8.91-34.09,35.25-62.49,68.51-73.37,7-2.29,11.7-9.25,9.75-16.69-1.78-6.82-9.64-12-16.69-9.75-42.74,14-76.6,49.24-88,92.87-4.45,17,22,24,26.45,6.94Z"/><path class="cls-5" d="M1747.53,1101c34.08-8.91,62.49-35.25,73.36-68.51,2.3-7,9.26-11.7,16.69-9.76,6.83,1.79,12.06,9.65,9.76,16.69-14,42.74-49.24,76.61-92.88,88-17,4.45-24-22-6.93-26.45Z"/><path class="cls-5" d="M1897.36,1007.15c8.91-34.09,35.25-62.49,68.51-73.37,7-2.29,11.7-9.25,9.75-16.69-1.78-6.82-9.64-12.05-16.69-9.75-42.74,14-76.6,49.24-88,92.87-4.45,17,22,24,26.45,6.94Z"/><path class="cls-5" d="M1991.24,857.32c34.08-8.91,62.49-35.25,73.36-68.51,2.3-7,9.26-11.7,16.69-9.76,6.83,1.79,12.06,9.65,9.76,16.69-14,42.74-49.24,76.61-92.88,88-17,4.45-24-22-6.93-26.45Z"/><path class="cls-5" d="M1982,807.08c-34.09,8.91-62.49,35.25-73.37,68.51-2.29,7-9.25,11.7-16.69,9.75-6.82-1.78-12-9.64-9.75-16.69,14-42.74,49.24-76.6,92.87-88,17-4.45,24,22,6.94,26.45Z"/><path class="cls-5" d="M1832.16,901c-8.92,34.08-35.25,62.49-68.51,73.36-7,2.3-11.7,9.26-9.76,16.69,1.79,6.83,9.65,12.06,16.69,9.76,42.74-14,76.61-49.24,88-92.88,4.44-17-22-24-26.45-6.93Z"/><path class="cls-5" d="M1738.28,1050.79c-34.09,8.91-62.49,35.25-73.37,68.51-2.29,7-9.25,11.7-16.69,9.75-6.82-1.78-12-9.64-9.75-16.69,14-42.74,49.24-76.61,92.87-88,17-4.45,24,22,6.94,26.45Z"/><path class="cls-5" d="M1588.45,1144.67c-8.91,34.08-35.25,62.49-68.51,73.36-7,2.3-11.7,9.26-9.76,16.69,1.79,6.83,9.65,12.06,16.69,9.76,42.74-14,76.61-49.24,88-92.88,4.45-17-22-24-26.45-6.93Z"/><path class="cls-5" d="M1494.57,1294.5c-34.09,8.91-62.49,35.25-73.37,68.51-2.29,7-9.25,11.7-16.69,9.75-6.82-1.78-12-9.64-9.75-16.69,14-42.74,49.24-76.61,92.87-88,17-4.45,24,22,6.94,26.45Z"/><path class="cls-5" d="M1344.74,1388.38c-8.91,34.08-35.25,62.49-68.51,73.36-7,2.3-11.7,9.26-9.76,16.69,1.79,6.83,9.65,12.06,16.69,9.76,42.74-14,76.61-49.24,88-92.88,4.45-17-22-24-26.45-6.93Z"/><path class="cls-5" d="M1250.86,1538.21c-34.09,8.91-62.49,35.24-73.37,68.51-2.29,7-9.25,11.7-16.69,9.75-6.82-1.78-12-9.64-9.75-16.69,14-42.74,49.24-76.61,92.87-88,17-4.45,24,22,6.94,26.45Z"/><path class="cls-5" d="M1101,1632.09c-8.91,34.08-35.25,62.49-68.51,73.36-7,2.3-11.7,9.26-9.76,16.69,1.79,6.83,9.65,12.06,16.69,9.76,42.74-14,76.61-49.24,88-92.88,4.45-17-22-24-26.45-6.93Z"/><path class="cls-5" d="M1007.15,1781.91c-34.09,8.92-62.49,35.25-73.37,68.52-2.29,7-9.25,11.7-16.69,9.75-6.82-1.78-12.05-9.64-9.75-16.69,14-42.74,49.24-76.61,92.87-88,17-4.45,24,22,6.94,26.44Z"/><path class="cls-5" d="M857.32,1875.8c-8.91,34.08-35.25,62.49-68.51,73.36-7,2.29-11.7,9.26-9.76,16.69,1.79,6.83,9.65,12.06,16.69,9.76,42.74-14,76.61-49.24,88-92.88,4.45-17-22-24-26.45-6.93Z"/><path class="cls-5" d="M792.75,1852.22c8.91-34.09,35.25-62.49,68.51-73.37,7-2.29,11.7-9.25,9.76-16.69-1.79-6.82-9.65-12.05-16.69-9.75-42.74,14-76.61,49.24-88,92.87-4.45,17,22,24,26.45,6.94Z"/><path class="cls-5" d="M886.63,1702.39c34.09-8.91,62.49-35.25,73.37-68.51,2.29-7,9.25-11.7,16.69-9.76,6.82,1.79,12,9.65,9.75,16.69-14,42.74-49.24,76.61-92.87,88-17,4.45-24-22-6.94-26.45Z"/><path class="cls-5" d="M1036.46,1608.51c8.91-34.08,35.25-62.49,68.51-73.37,7-2.29,11.7-9.25,9.76-16.69-1.79-6.82-9.65-12-16.69-9.75-42.74,14-76.61,49.24-88,92.87-4.45,17,22,24,26.45,6.94Z"/><path class="cls-5" d="M1130.34,1458.68c34.09-8.91,62.49-35.25,73.37-68.51,2.29-7,9.25-11.7,16.69-9.76,6.82,1.79,12,9.65,9.75,16.69-14,42.74-49.24,76.61-92.87,88-17,4.45-24-22-6.94-26.45Z"/><path class="cls-5" d="M1280.17,1364.8c8.91-34.08,35.25-62.49,68.51-73.37,7-2.29,11.7-9.25,9.76-16.68-1.79-6.83-9.65-12.06-16.69-9.76-42.74,14-76.61,49.24-88,92.87-4.45,17,22,24,26.45,6.94Z"/><path class="cls-5" d="M1374.05,1215c34.09-8.91,62.49-35.25,73.37-68.51,2.29-7,9.25-11.7,16.69-9.75,6.82,1.78,12.05,9.64,9.75,16.68-14,42.74-49.24,76.61-92.87,88-17,4.45-24-22-6.94-26.45Z"/><path class="cls-5" d="M1523.88,1121.09c8.91-34.08,35.25-62.49,68.51-73.36,7-2.3,11.7-9.26,9.76-16.69-1.79-6.83-9.65-12.06-16.69-9.76-42.74,14-76.61,49.24-88,92.88-4.45,17,22,24,26.45,6.93Z"/><path class="cls-5" d="M1617.76,971.26c34.08-8.91,62.49-35.25,73.37-68.51,2.29-7,9.25-11.7,16.69-9.75,6.82,1.78,12,9.64,9.75,16.69-14,42.74-49.24,76.6-92.87,88-17,4.45-24-22-6.94-26.45Z"/><path class="cls-5" d="M1767.59,877.38c8.91-34.08,35.25-62.49,68.51-73.36,7-2.3,11.7-9.26,9.76-16.69-1.79-6.83-9.65-12.06-16.69-9.76-42.74,14-76.61,49.24-88,92.88-4.45,17,22,24,26.45,6.93Z"/><path class="cls-5" d="M1861.47,727.55c34.08-8.91,62.49-35.25,73.37-68.51,2.29-7,9.25-11.7,16.68-9.75,6.83,1.78,12.06,9.64,9.76,16.69-14,42.74-49.24,76.6-92.87,88-17,4.45-24-22-6.94-26.45Z"/><path class="cls-5" d="M1852.22,677.31c-34.09,8.91-62.49,35.25-73.37,68.51-2.29,7-9.25,11.7-16.69,9.76-6.82-1.79-12.05-9.65-9.75-16.69,14-42.74,49.24-76.61,92.87-88,17-4.45,24,22,6.94,26.45Z"/><path class="cls-5" d="M1702.39,771.19c-8.91,34.08-35.25,62.49-68.51,73.37-7,2.29-11.7,9.25-9.76,16.68,1.79,6.83,9.65,12.06,16.69,9.76,42.74-14,76.61-49.24,88-92.87,4.45-17-22-24-26.45-6.94Z"/><path class="cls-5" d="M1608.51,921c-34.08,8.91-62.49,35.25-73.37,68.51-2.29,7-9.25,11.7-16.69,9.75-6.82-1.78-12-9.64-9.75-16.68,14-42.74,49.24-76.61,92.87-88,17-4.45,24,22,6.94,26.45Z"/><path class="cls-5" d="M1458.68,1014.9c-8.91,34.08-35.25,62.49-68.51,73.36-7,2.3-11.7,9.26-9.76,16.69,1.79,6.83,9.65,12.06,16.69,9.76,42.74-14,76.61-49.24,88-92.88,4.45-17-22-24-26.45-6.93Z"/><path class="cls-5" d="M1364.8,1164.73c-34.08,8.91-62.49,35.25-73.37,68.51-2.29,7-9.25,11.7-16.68,9.75-6.83-1.78-12.06-9.64-9.76-16.69,14-42.74,49.24-76.6,92.87-88,17-4.45,24,22,6.94,26.45Z"/><path class="cls-5" d="M1215,1258.61c-8.91,34.08-35.25,62.49-68.51,73.36-7,2.3-11.7,9.26-9.75,16.69,1.78,6.83,9.64,12.06,16.68,9.76,42.74-14,76.61-49.24,88-92.88,4.45-17-22-24-26.45-6.93Z"/><path class="cls-5" d="M1121.09,1408.44c-34.08,8.91-62.49,35.25-73.36,68.51-2.3,7-9.26,11.7-16.69,9.75-6.83-1.78-12.06-9.64-9.76-16.69,14-42.74,49.24-76.6,92.88-88,17-4.45,24,22,6.93,26.45Z"/><path class="cls-5" d="M971.26,1502.32c-8.91,34.08-35.25,62.49-68.51,73.36-7,2.3-11.7,9.26-9.75,16.69,1.78,6.83,9.64,12.06,16.69,9.76,42.74-14,76.6-49.24,88-92.88,4.45-17-22-24-26.45-6.93Z"/><path class="cls-5" d="M877.38,1652.15c-34.08,8.91-62.49,35.25-73.36,68.51-2.3,7-9.26,11.7-16.69,9.75-6.83-1.78-12.06-9.64-9.76-16.69,14-42.74,49.24-76.6,92.88-88,17-4.45,24,22,6.93,26.45Z"/><path class="cls-5" d="M727.55,1746c-8.91,34.08-35.25,62.49-68.51,73.36-7,2.3-11.7,9.26-9.75,16.69,1.78,6.83,9.64,12.06,16.69,9.76,42.74-14,76.6-49.24,88-92.88,4.45-17-22-24-26.45-6.93Z"/><path class="cls-5" d="M663,1722.45c8.92-34.08,35.25-62.49,68.51-73.36,7-2.3,11.71-9.26,9.76-16.69-1.79-6.83-9.65-12.06-16.69-9.76-42.74,14-76.61,49.24-88,92.88-4.45,17,22,24,26.44,6.93Z"/><path class="cls-5" d="M756.86,1572.62c34.09-8.91,62.49-35.25,73.37-68.51,2.29-7,9.25-11.7,16.69-9.75,6.82,1.78,12.06,9.64,9.75,16.69-14,42.74-49.24,76.6-92.87,88-17,4.45-24-22-6.94-26.45Z"/><path class="cls-5" d="M906.69,1478.74c8.92-34.08,35.25-62.49,68.51-73.36,7-2.3,11.71-9.26,9.76-16.69-1.79-6.83-9.65-12.06-16.69-9.76-42.74,14-76.61,49.24-88,92.88-4.45,17,22,24,26.44,6.93Z"/><path class="cls-5" d="M1000.57,1328.91c34.09-8.91,62.49-35.25,73.37-68.51,2.29-7,9.25-11.7,16.69-9.75,6.82,1.78,12.06,9.64,9.75,16.69-14,42.74-49.24,76.6-92.87,88-17,4.45-24-22-6.94-26.45Z"/><path class="cls-5" d="M1150.4,1235c8.92-34.08,35.25-62.49,68.51-73.36,7-2.3,11.7-9.26,9.76-16.69-1.79-6.83-9.65-12.06-16.69-9.76-42.74,14-76.61,49.24-88,92.88-4.44,17,22,24,26.45,6.93Z"/><path class="cls-5" d="M1244.28,1085.2c34.09-8.91,62.49-35.25,73.37-68.51,2.29-7,9.25-11.7,16.69-9.75,6.82,1.78,12.05,9.64,9.75,16.69-14,42.74-49.24,76.6-92.87,88-17,4.45-24-22-6.94-26.45Z"/><path class="cls-5" d="M1394.11,991.32c8.92-34.08,35.25-62.49,68.51-73.36,7-2.3,11.7-9.26,9.76-16.69-1.79-6.83-9.65-12.06-16.69-9.76-42.74,14-76.61,49.24-88,92.88-4.44,17,22,24,26.45,6.93Z"/><path class="cls-5" d="M1488,841.49c34.09-8.91,62.49-35.25,73.37-68.51,2.29-7,9.25-11.7,16.69-9.75,6.82,1.78,12,9.64,9.75,16.69-14,42.74-49.24,76.61-92.87,88-17,4.45-24-22-6.94-26.45Z"/><path class="cls-5" d="M1637.82,747.61c8.91-34.08,35.25-62.49,68.51-73.36,7-2.3,11.7-9.26,9.76-16.69-1.79-6.83-9.65-12.06-16.69-9.76-42.74,14-76.61,49.24-88,92.88-4.45,17,22,24,26.45,6.93Z"/><path class="cls-5" d="M1731.7,597.78c34.09-8.91,62.49-35.24,73.37-68.51,2.29-7,9.25-11.7,16.69-9.75,6.82,1.78,12,9.64,9.75,16.69-14,42.74-49.24,76.61-92.87,88-17,4.45-24-22-6.94-26.45Z"/><path class="cls-5" d="M1722.45,547.54c-34.08,8.91-62.49,35.25-73.36,68.51-2.3,7-9.26,11.7-16.69,9.76-6.83-1.79-12.06-9.65-9.76-16.69,14-42.74,49.24-76.61,92.88-88,17-4.45,24,22,6.93,26.45Z"/><path class="cls-5" d="M1572.62,641.42c-8.91,34.09-35.25,62.49-68.51,73.37-7,2.29-11.7,9.25-9.75,16.69,1.78,6.82,9.64,12,16.69,9.75,42.74-14,76.6-49.24,88-92.87,4.45-17-22-24-26.45-6.94Z"/><path class="cls-5" d="M1478.74,791.25c-34.08,8.91-62.49,35.25-73.36,68.51-2.3,7-9.26,11.7-16.69,9.76-6.83-1.79-12.06-9.65-9.76-16.69,14-42.74,49.24-76.61,92.88-88,17-4.45,24,22,6.93,26.45Z"/><path class="cls-5" d="M1328.91,885.13c-8.91,34.09-35.25,62.49-68.51,73.37-7,2.29-11.7,9.25-9.75,16.69,1.78,6.82,9.64,12,16.69,9.75,42.74-14,76.6-49.24,88-92.87,4.45-17-22-24-26.45-6.94Z"/><path class="cls-5" d="M1235,1035c-34.08,8.91-62.49,35.25-73.36,68.51-2.3,7-9.26,11.7-16.69,9.76-6.83-1.79-12.06-9.65-9.76-16.69,14-42.74,49.24-76.61,92.88-88,17-4.45,24,22,6.93,26.45Z"/><path class="cls-5" d="M1085.2,1128.84c-8.91,34.09-35.25,62.49-68.51,73.37-7,2.29-11.7,9.25-9.75,16.69,1.78,6.82,9.64,12,16.69,9.75,42.74-14,76.6-49.24,88-92.87,4.45-17-22-24-26.45-6.94Z"/><path class="cls-5" d="M991.32,1278.67c-34.08,8.91-62.49,35.25-73.36,68.51-2.3,7-9.26,11.7-16.69,9.76-6.83-1.79-12.06-9.65-9.76-16.69,14-42.74,49.24-76.61,92.88-88,17-4.45,24,22,6.93,26.45Z"/><path class="cls-5" d="M841.49,1372.55c-8.91,34.08-35.25,62.49-68.51,73.37-7,2.29-11.7,9.25-9.75,16.69,1.78,6.82,9.64,12.05,16.69,9.75,42.74-14,76.61-49.24,88-92.87,4.45-17-22-24-26.45-6.94Z"/><path class="cls-5" d="M747.61,1522.38c-34.08,8.91-62.49,35.25-73.36,68.51-2.3,7-9.26,11.7-16.69,9.76-6.83-1.79-12.06-9.65-9.76-16.69,14-42.74,49.24-76.61,92.88-88,17-4.45,24,22,6.93,26.45Z"/><path class="cls-5" d="M597.78,1616.26c-8.91,34.08-35.24,62.49-68.51,73.37-7,2.29-11.7,9.25-9.75,16.68,1.78,6.83,9.64,12.06,16.69,9.76,42.74-14,76.61-49.24,88-92.87,4.45-17-22-24-26.45-6.94Z"/><path class="cls-5" d="M533.21,1592.68c8.92-34.08,35.25-62.49,68.51-73.36,7-2.3,11.71-9.26,9.76-16.69-1.79-6.83-9.65-12.06-16.69-9.76-42.74,14-76.61,49.24-88,92.88-4.45,17,22,24,26.44,6.93Z"/><path class="cls-5" d="M627.1,1442.85c34.08-8.91,62.49-35.24,73.36-68.51,2.29-7,9.25-11.7,16.69-9.75,6.82,1.78,12.06,9.64,9.75,16.69-14,42.74-49.24,76.61-92.87,88-17,4.45-24-22-6.93-26.45Z"/><path class="cls-5" d="M776.92,1349c8.92-34.08,35.25-62.49,68.51-73.36,7-2.3,11.71-9.26,9.76-16.69-1.79-6.83-9.65-12.06-16.69-9.76-42.74,14-76.61,49.24-88,92.88-4.45,17,22,24,26.44,6.93Z"/><path class="cls-5" d="M870.81,1199.15c34.08-8.92,62.49-35.25,73.36-68.52,2.29-7,9.25-11.7,16.69-9.75,6.82,1.78,12.06,9.64,9.75,16.69-14,42.74-49.24,76.61-92.87,88-17,4.45-24-22-6.93-26.44Z"/><path class="cls-5" d="M1020.63,1105.26c8.92-34.08,35.25-62.49,68.51-73.36,7-2.3,11.71-9.26,9.76-16.69-1.79-6.83-9.65-12.06-16.69-9.76-42.74,14-76.61,49.24-88,92.88-4.45,17,22,24,26.44,6.93Z"/><path class="cls-5" d="M1114.51,955.44c34.09-8.92,62.5-35.25,73.37-68.52,2.29-7,9.25-11.7,16.69-9.75,6.82,1.79,12.06,9.65,9.75,16.69-14,42.74-49.24,76.61-92.87,88-17,4.45-24-22-6.94-26.44Z"/><path class="cls-5" d="M1264.34,861.55c8.92-34.08,35.25-62.49,68.51-73.36,7-2.29,11.71-9.26,9.76-16.69-1.79-6.82-9.65-12.06-16.69-9.76-42.74,14-76.61,49.24-88,92.88-4.45,17,22,24,26.44,6.93Z"/><path class="cls-5" d="M1358.22,711.73c34.09-8.92,62.49-35.25,73.37-68.52,2.29-7,9.25-11.7,16.69-9.75,6.82,1.79,12.06,9.65,9.75,16.69-14,42.74-49.24,76.61-92.87,88-17,4.45-24-22-6.94-26.44Z"/><path class="cls-5" d="M1508.05,617.84c8.92-34.08,35.25-62.49,68.51-73.36,7-2.29,11.71-9.26,9.76-16.69-1.79-6.82-9.65-12.06-16.69-9.76-42.74,14-76.61,49.24-88,92.88-4.45,17,22,24,26.44,6.93Z"/><path class="cls-5" d="M1601.93,468c34.09-8.92,62.49-35.25,73.37-68.52,2.29-7,9.25-11.7,16.69-9.75,6.82,1.79,12.06,9.65,9.75,16.69-14,42.74-49.24,76.61-92.87,88-17,4.45-24-22-6.94-26.44Z"/><path class="cls-5" d="M1592.68,417.77c-34.08,8.92-62.49,35.25-73.36,68.51-2.3,7-9.26,11.71-16.69,9.76-6.83-1.79-12.06-9.65-9.76-16.69,14-42.74,49.24-76.61,92.88-88,17-4.45,24,22,6.93,26.44Z"/><path class="cls-5" d="M1442.85,511.65c-8.91,34.09-35.24,62.49-68.51,73.37-7,2.29-11.7,9.25-9.75,16.69,1.78,6.82,9.64,12.06,16.69,9.75,42.74-14,76.61-49.24,88-92.87,4.45-17-22-24-26.45-6.94Z"/><path class="cls-5" d="M1349,661.48c-34.08,8.92-62.49,35.25-73.36,68.51-2.3,7-9.26,11.71-16.69,9.76-6.83-1.79-12.06-9.65-9.76-16.69,14-42.74,49.24-76.61,92.88-88,17-4.45,24,22,6.93,26.44Z"/><path class="cls-5" d="M1199.15,755.36c-8.92,34.09-35.25,62.49-68.52,73.37-7,2.29-11.7,9.25-9.75,16.69,1.78,6.82,9.64,12.06,16.69,9.75,42.74-14,76.61-49.24,88-92.87,4.45-17-22-24-26.44-6.94Z"/><path class="cls-5" d="M1105.26,905.19c-34.08,8.92-62.49,35.25-73.36,68.51-2.3,7-9.26,11.7-16.69,9.76-6.83-1.79-12.06-9.65-9.76-16.69,14-42.74,49.24-76.61,92.88-88,17-4.44,24,22,6.93,26.45Z"/><path class="cls-5" d="M955.44,999.07c-8.92,34.09-35.25,62.49-68.52,73.37-7,2.29-11.7,9.25-9.75,16.69,1.79,6.82,9.65,12,16.69,9.75,42.74-14,76.61-49.24,88-92.87,4.45-17-22-24-26.44-6.94Z"/><path class="cls-5" d="M861.55,1148.9c-34.08,8.92-62.49,35.25-73.36,68.51-2.29,7-9.26,11.7-16.69,9.76-6.82-1.79-12.06-9.65-9.76-16.69,14-42.74,49.24-76.61,92.88-88,17-4.44,24,22,6.93,26.45Z"/><path class="cls-5" d="M711.73,1242.78c-8.92,34.09-35.25,62.49-68.52,73.37-7,2.29-11.7,9.25-9.75,16.69,1.79,6.82,9.65,12.05,16.69,9.75,42.74-14,76.61-49.24,88-92.87,4.45-17-22-24-26.44-6.94Z"/><path class="cls-5" d="M617.84,1392.61c-34.08,8.91-62.49,35.25-73.36,68.51-2.29,7-9.26,11.7-16.69,9.76-6.82-1.79-12.06-9.65-9.76-16.69,14-42.74,49.24-76.61,92.88-88,17-4.45,24,22,6.93,26.45Z"/><path class="cls-5" d="M468,1486.49c-8.92,34.09-35.25,62.49-68.52,73.37-7,2.29-11.7,9.25-9.75,16.69,1.79,6.82,9.65,12,16.69,9.75,42.74-14,76.61-49.24,88-92.87,4.45-17-22-24-26.44-6.94Z"/><path class="cls-5" d="M403.44,1462.91c8.92-34.08,35.25-62.49,68.52-73.36,7-2.29,11.7-9.26,9.75-16.69-1.79-6.82-9.65-12.06-16.69-9.76-42.74,14-76.61,49.24-88,92.88-4.45,17,22,24,26.44,6.93Z"/><path class="cls-5" d="M497.33,1313.09c34.08-8.92,62.49-35.25,73.36-68.52,2.29-7,9.26-11.7,16.69-9.75,6.82,1.79,12.06,9.65,9.76,16.69-14,42.74-49.24,76.61-92.88,88-17,4.45-24-22-6.93-26.44Z"/><path class="cls-5" d="M647.15,1219.2c8.92-34.08,35.25-62.49,68.52-73.36,7-2.29,11.7-9.26,9.75-16.69-1.79-6.82-9.65-12.06-16.69-9.76-42.74,14-76.61,49.24-88,92.88-4.45,17,22,24,26.44,6.93Z"/><path class="cls-5" d="M741,1069.38c34.08-8.92,62.49-35.25,73.36-68.52,2.29-7,9.26-11.7,16.69-9.75,6.82,1.79,12.06,9.65,9.76,16.69-14,42.74-49.24,76.61-92.88,88-17,4.45-24-22-6.93-26.44Z"/><path class="cls-5" d="M890.86,975.49c8.92-34.08,35.25-62.49,68.51-73.36,7-2.29,11.71-9.26,9.76-16.69-1.79-6.82-9.65-12.06-16.69-9.76-42.74,14-76.61,49.24-88,92.88-4.45,17,22,24,26.44,6.93Z"/><path class="cls-5" d="M984.75,825.67c34.08-8.92,62.49-35.25,73.36-68.51,2.29-7,9.25-11.71,16.69-9.76,6.82,1.79,12.06,9.65,9.76,16.69-14,42.74-49.24,76.61-92.88,88-17,4.45-24-22-6.93-26.44Z"/><path class="cls-5" d="M1134.57,731.78c8.92-34.08,35.25-62.49,68.51-73.36,7-2.29,11.71-9.25,9.76-16.69-1.79-6.82-9.65-12.06-16.69-9.76-42.74,14-76.61,49.24-88,92.88-4.45,17,22,24,26.44,6.93Z"/><path class="cls-5" d="M1228.46,582c34.08-8.92,62.49-35.25,73.36-68.51,2.29-7,9.25-11.71,16.69-9.76,6.82,1.79,12.06,9.65,9.76,16.69-14,42.74-49.24,76.61-92.88,88-17,4.45-24-22-6.93-26.44Z"/><path class="cls-5" d="M1378.28,488.07c8.92-34.08,35.25-62.49,68.51-73.36,7-2.29,11.71-9.25,9.76-16.69-1.79-6.82-9.65-12.06-16.69-9.76-42.74,14-76.61,49.24-88,92.88-4.45,17,22,24,26.44,6.93Z"/><path class="cls-5" d="M1472.17,338.25c34.08-8.92,62.49-35.25,73.36-68.51,2.29-7,9.25-11.71,16.69-9.76,6.82,1.79,12.06,9.65,9.75,16.69-14,42.74-49.24,76.61-92.87,88-17,4.45-24-22-6.93-26.44Z"/><path class="cls-5" d="M1462.91,288c-34.08,8.92-62.49,35.25-73.36,68.51-2.29,7-9.26,11.71-16.69,9.76-6.82-1.79-12.06-9.65-9.76-16.69,14-42.74,49.24-76.61,92.88-88,17-4.45,24,22,6.93,26.44Z"/><path class="cls-5" d="M1313.09,381.89c-8.92,34.08-35.25,62.49-68.52,73.36-7,2.29-11.7,9.25-9.75,16.69,1.79,6.82,9.65,12.06,16.69,9.75,42.74-14,76.61-49.24,88-92.87,4.45-17-22-24-26.44-6.93Z"/><path class="cls-5" d="M1219.2,531.71c-34.08,8.92-62.49,35.25-73.36,68.51-2.29,7-9.26,11.71-16.69,9.76-6.82-1.79-12.06-9.65-9.76-16.69,14-42.74,49.24-76.61,92.88-88,17-4.45,24,22,6.93,26.44Z"/><path class="cls-5" d="M1069.38,625.6c-8.92,34.08-35.25,62.49-68.52,73.36-7,2.29-11.7,9.25-9.75,16.69,1.79,6.82,9.65,12.06,16.69,9.75,42.74-14,76.61-49.24,88-92.87,4.45-17-22-24-26.44-6.93Z"/><path class="cls-5" d="M975.49,775.42c-34.08,8.92-62.49,35.25-73.36,68.51-2.29,7-9.26,11.71-16.69,9.76-6.82-1.79-12.06-9.65-9.76-16.69,14-42.74,49.24-76.61,92.88-88,17-4.45,24,22,6.93,26.44Z"/><path class="cls-5" d="M825.67,869.3c-8.92,34.09-35.25,62.5-68.51,73.37-7,2.29-11.71,9.25-9.76,16.69,1.79,6.82,9.65,12.06,16.69,9.75,42.74-14,76.61-49.24,88-92.87,4.45-17-22-24-26.44-6.94Z"/><path class="cls-5" d="M731.78,1019.13c-34.08,8.92-62.49,35.25-73.36,68.51-2.29,7-9.25,11.71-16.69,9.76-6.82-1.79-12.06-9.65-9.76-16.69,14-42.74,49.24-76.61,92.88-88,17-4.45,24,22,6.93,26.44Z"/><path class="cls-5" d="M582,1113c-8.92,34.09-35.25,62.49-68.51,73.37-7,2.29-11.71,9.25-9.76,16.69,1.79,6.82,9.65,12.06,16.69,9.75,42.74-14,76.61-49.24,88-92.87,4.45-17-22-24-26.44-6.94Z"/><path class="cls-5" d="M488.07,1262.84c-34.08,8.92-62.49,35.25-73.36,68.51-2.29,7-9.25,11.71-16.69,9.76-6.82-1.79-12.06-9.65-9.76-16.69,14-42.74,49.24-76.61,92.88-88,17-4.45,24,22,6.93,26.44Z"/><path class="cls-5" d="M338.25,1356.72c-8.92,34.09-35.25,62.49-68.51,73.37-7,2.29-11.71,9.25-9.76,16.69,1.79,6.82,9.65,12.06,16.69,9.75,42.74-14,76.61-49.24,88-92.87,4.45-17-22-24-26.44-6.94Z"/><path class="cls-5" d="M273.68,1333.14c8.91-34.08,35.24-62.49,68.51-73.36,7-2.29,11.7-9.25,9.75-16.69-1.78-6.82-9.64-12.06-16.69-9.76-42.74,14-76.61,49.24-88,92.88-4.45,17,22,24,26.45,6.93Z"/><path class="cls-5" d="M367.56,1183.32c34.08-8.92,62.49-35.25,73.36-68.51,2.3-7,9.26-11.71,16.69-9.76,6.83,1.79,12.06,9.65,9.76,16.69-14,42.74-49.24,76.61-92.88,88-17,4.45-24-22-6.93-26.44Z"/><path class="cls-5" d="M517.38,1089.43c8.92-34.08,35.25-62.49,68.52-73.36,7-2.29,11.7-9.25,9.75-16.69-1.78-6.82-9.64-12.06-16.69-9.75-42.74,14-76.61,49.24-88,92.87-4.45,17,22,24,26.44,6.93Z"/><path class="cls-5" d="M611.27,939.61c34.08-8.92,62.49-35.25,73.36-68.51,2.29-7,9.26-11.71,16.69-9.76,6.83,1.79,12.06,9.65,9.76,16.69-14,42.74-49.24,76.61-92.88,88-17,4.45-24-22-6.93-26.44Z"/><path class="cls-5" d="M761.09,845.72c8.92-34.08,35.25-62.49,68.52-73.36,7-2.29,11.7-9.25,9.75-16.69-1.79-6.82-9.65-12.06-16.69-9.75-42.74,14-76.61,49.24-88,92.87-4.45,17,22,24,26.44,6.93Z"/><path class="cls-5" d="M855,695.9c34.08-8.92,62.49-35.25,73.36-68.51,2.29-7,9.26-11.71,16.69-9.76,6.82,1.79,12.06,9.65,9.76,16.69-14,42.74-49.24,76.61-92.88,88-17,4.45-24-22-6.93-26.44Z"/><path class="cls-5" d="M1004.8,602c8.92-34.09,35.25-62.5,68.52-73.37,7-2.29,11.7-9.25,9.75-16.69-1.79-6.82-9.65-12.06-16.69-9.75-42.74,14-76.61,49.24-88,92.87-4.45,17,22,24,26.44,6.94Z"/><path class="cls-5" d="M1098.69,452.19c34.08-8.92,62.49-35.25,73.36-68.51,2.29-7,9.26-11.71,16.69-9.76,6.82,1.79,12.06,9.65,9.76,16.69-14,42.74-49.24,76.61-92.88,88-17,4.45-24-22-6.93-26.44Z"/><path class="cls-5" d="M1248.51,358.31c8.92-34.09,35.25-62.49,68.52-73.37,7-2.29,11.7-9.25,9.75-16.69-1.79-6.82-9.65-12.06-16.69-9.75-42.74,14-76.61,49.24-88,92.87-4.45,17,22,24,26.44,6.94Z"/><path class="cls-5" d="M1342.4,208.48c34.08-8.92,62.49-35.25,73.36-68.51,2.29-7,9.26-11.71,16.69-9.76,6.82,1.79,12.06,9.65,9.76,16.69-14,42.74-49.24,76.61-92.88,88-17,4.45-24-22-6.93-26.44Z"/><path class="cls-5" d="M1333.14,158.23c-34.08,8.92-62.49,35.25-73.36,68.52-2.29,7-9.25,11.7-16.69,9.75-6.82-1.79-12.06-9.65-9.76-16.69,14-42.74,49.24-76.61,92.88-88,17-4.45,24,22,6.93,26.44Z"/><path class="cls-5" d="M1183.32,252.12c-8.92,34.08-35.25,62.49-68.51,73.36-7,2.29-11.71,9.26-9.76,16.69,1.79,6.82,9.65,12.06,16.69,9.76,42.74-14,76.61-49.24,88-92.88,4.45-17-22-24-26.44-6.93Z"/><path class="cls-5" d="M1089.43,401.94c-34.08,8.92-62.49,35.25-73.36,68.52-2.29,7-9.25,11.7-16.69,9.75-6.82-1.79-12.06-9.65-9.75-16.69,14-42.74,49.24-76.61,92.87-88,17-4.45,24,22,6.93,26.44Z"/><path class="cls-5" d="M939.61,495.83c-8.92,34.08-35.25,62.49-68.51,73.36-7,2.29-11.71,9.26-9.76,16.69,1.79,6.82,9.65,12.06,16.69,9.76,42.74-14,76.61-49.24,88-92.88,4.45-17-22-24-26.44-6.93Z"/><path class="cls-5" d="M845.72,645.65c-34.08,8.92-62.49,35.25-73.36,68.51-2.29,7-9.25,11.71-16.69,9.76-6.82-1.79-12.06-9.65-9.75-16.69,14-42.74,49.24-76.61,92.87-88,17-4.45,24,22,6.93,26.44Z"/><path class="cls-5" d="M695.9,739.54C687,773.62,660.65,802,627.39,812.9c-7,2.29-11.71,9.25-9.76,16.69,1.79,6.82,9.65,12.06,16.69,9.76,42.74-14,76.61-49.24,88-92.88,4.45-17-22-24-26.44-6.93Z"/><path class="cls-5" d="M602,889.36c-34.09,8.92-62.5,35.25-73.37,68.51-2.29,7-9.25,11.71-16.69,9.76-6.82-1.79-12.06-9.65-9.75-16.69,14-42.74,49.24-76.61,92.87-88,17-4.45,24,22,6.94,26.44Z"/><path class="cls-5" d="M452.19,983.25c-8.92,34.08-35.25,62.49-68.51,73.36-7,2.29-11.71,9.25-9.76,16.69,1.79,6.82,9.65,12.06,16.69,9.76,42.74-14,76.61-49.24,88-92.88,4.45-17-22-24-26.44-6.93Z"/><path class="cls-5" d="M358.31,1133.07c-34.09,8.92-62.49,35.25-73.37,68.51-2.29,7-9.25,11.71-16.69,9.76-6.82-1.79-12.06-9.65-9.75-16.69,14-42.74,49.24-76.61,92.87-88,17-4.45,24,22,6.94,26.44Z"/><path class="cls-5" d="M208.48,1227c-8.92,34.08-35.25,62.49-68.51,73.36-7,2.29-11.71,9.25-9.76,16.69,1.79,6.82,9.65,12.06,16.69,9.75,42.74-14,76.61-49.24,88-92.87,4.45-17-22-24-26.44-6.93Z"/><path class="cls-5" d="M143.91,1203.38c8.91-34.09,35.25-62.49,68.51-73.37,7-2.29,11.7-9.25,9.75-16.69-1.78-6.82-9.64-12.06-16.69-9.75-42.74,14-76.6,49.24-88,92.87-4.45,17,22,24,26.45,6.94Z"/><path class="cls-5" d="M237.79,1053.55c34.08-8.92,62.49-35.25,73.36-68.51,2.3-7,9.26-11.71,16.69-9.76,6.83,1.79,12.06,9.65,9.76,16.69-14,42.74-49.24,76.61-92.88,88-17,4.45-24-22-6.93-26.44Z"/><path class="cls-5" d="M387.62,959.67c8.91-34.09,35.25-62.49,68.51-73.37,7-2.29,11.7-9.25,9.75-16.69-1.78-6.82-9.64-12.06-16.69-9.75-42.74,14-76.6,49.24-88,92.87-4.45,17,22,24,26.45,6.94Z"/><path class="cls-5" d="M481.5,809.84c34.08-8.92,62.49-35.25,73.36-68.51,2.3-7,9.26-11.71,16.69-9.76,6.83,1.79,12.06,9.65,9.76,16.69-14,42.74-49.24,76.61-92.88,88-17,4.45-24-22-6.93-26.44Z"/><path class="cls-5" d="M631.33,716c8.91-34.09,35.25-62.49,68.51-73.37,7-2.29,11.7-9.25,9.75-16.69-1.78-6.82-9.64-12.06-16.69-9.75-42.74,14-76.61,49.24-88,92.87-4.45,17,22,24,26.45,6.94Z"/><path class="cls-5" d="M725.21,566.13c34.08-8.92,62.49-35.25,73.36-68.51,2.3-7,9.26-11.7,16.69-9.76,6.83,1.79,12.06,9.65,9.76,16.69-14,42.74-49.24,76.61-92.88,88-17,4.44-24-22-6.93-26.45Z"/><path class="cls-5" d="M875,472.25c8.91-34.09,35.25-62.49,68.51-73.37,7-2.29,11.7-9.25,9.75-16.69-1.78-6.82-9.64-12.05-16.69-9.75-42.74,14-76.61,49.24-88,92.87-4.45,17,22,24,26.45,6.94Z"/><path class="cls-5" d="M968.92,322.42c34.08-8.92,62.49-35.25,73.36-68.51,2.3-7,9.26-11.7,16.69-9.76,6.83,1.79,12.06,9.65,9.76,16.69-14,42.74-49.24,76.61-92.88,88-17,4.44-24-22-6.93-26.45Z"/><path class="cls-5" d="M1118.75,228.54c8.91-34.09,35.24-62.49,68.51-73.37,7-2.29,11.7-9.25,9.75-16.69-1.78-6.82-9.64-12-16.69-9.75-42.74,14-76.61,49.24-88,92.87-4.45,17,22,24,26.45,6.94Z"/><path class="cls-5" d="M1212.63,78.71c34.08-8.91,62.49-35.25,73.36-68.51,2.3-7,9.26-11.7,16.69-9.76,6.83,1.79,12.06,9.65,9.76,16.69-14,42.74-49.24,76.61-92.88,88-17,4.45-24-22-6.93-26.45Z"/><path class="cls-5" d="M1203.38,28.47C1169.29,37.38,1140.89,63.71,1130,97c-2.29,7-9.25,11.7-16.69,9.75-6.82-1.78-12.06-9.64-9.75-16.69,14-42.74,49.24-76.61,92.87-88,17-4.45,24,22,6.94,26.45Z"/><path class="cls-5" d="M1053.55,122.35c-8.92,34.08-35.25,62.49-68.51,73.36-7,2.3-11.71,9.26-9.76,16.69,1.79,6.83,9.65,12.06,16.69,9.76,42.74-14,76.61-49.24,88-92.88,4.45-17-22-24-26.44-6.93Z"/><path class="cls-5" d="M959.67,272.17c-34.09,8.92-62.49,35.25-73.37,68.52-2.29,7-9.25,11.7-16.69,9.75-6.82-1.78-12.06-9.64-9.75-16.69,14-42.74,49.24-76.61,92.87-88,17-4.45,24,22,6.94,26.44Z"/><path class="cls-5" d="M809.84,366.06c-8.92,34.08-35.25,62.49-68.51,73.36-7,2.29-11.71,9.26-9.76,16.69,1.79,6.83,9.65,12.06,16.69,9.76,42.74-14,76.61-49.24,88-92.88,4.45-17-22-24-26.44-6.93Z"/><path class="cls-5" d="M716,515.88c-34.09,8.92-62.49,35.25-73.37,68.52-2.29,7-9.25,11.7-16.69,9.75-6.82-1.79-12.06-9.65-9.75-16.69,14-42.74,49.24-76.61,92.87-88,17-4.45,24,22,6.94,26.44Z"/><path class="cls-5" d="M566.13,609.77c-8.92,34.08-35.25,62.49-68.51,73.36-7,2.29-11.7,9.26-9.76,16.69,1.79,6.82,9.65,12.06,16.69,9.76,42.74-14,76.61-49.24,88-92.88,4.44-17-22-24-26.45-6.93Z"/><path class="cls-5" d="M472.25,759.59c-34.09,8.92-62.49,35.25-73.37,68.52-2.29,7-9.25,11.7-16.69,9.75-6.82-1.79-12.05-9.65-9.75-16.69,14-42.74,49.24-76.61,92.87-88,17-4.45,24,22,6.94,26.44Z"/><path class="cls-5" d="M322.42,853.48c-8.92,34.08-35.25,62.49-68.51,73.36-7,2.29-11.7,9.26-9.76,16.69,1.79,6.82,9.65,12.06,16.69,9.76,42.74-14,76.61-49.24,88-92.88,4.44-17-22-24-26.45-6.93Z"/><path class="cls-5" d="M228.54,1003.3c-34.09,8.92-62.49,35.25-73.37,68.52-2.29,7-9.25,11.7-16.69,9.75-6.82-1.79-12-9.65-9.75-16.69,14-42.74,49.24-76.61,92.87-88,17-4.45,24,22,6.94,26.44Z"/><path class="cls-5" d="M78.71,1097.19c-8.91,34.08-35.25,62.49-68.51,73.36-7,2.29-11.7,9.26-9.76,16.69,1.79,6.82,9.65,12.06,16.69,9.76,42.74-14,76.61-49.24,88-92.88,4.45-17-22-24-26.45-6.93Z"/></g></g></g></g></svg>