<svg xmlns="http://www.w3.org/2000/svg" viewBox="0 0 576 602"><defs><style>.cls-1{fill:lime;}.cls-2{fill:#39b44a;}.cls-3{fill:#f6921e;}.cls-4{fill:none;}</style></defs><title>Recurso 192</title><g id="Capa_2" data-name="Capa 2"><g id="Capa_1-2" data-name="Capa 1"><circle class="cls-1" cx="354.81" cy="205.35" r="12.42"/><circle class="cls-1" cx="443.81" cy="144.35" r="12.42"/><circle class="cls-1" cx="321.59" cy="228.32" r="12.42"/><circle class="cls-2" cx="277.71" cy="257.57" r="12.42"/><circle class="cls-3" cx="367.37" cy="257.57" r="12.42"/><circle class="cls-1" cx="246.35" cy="229.78" r="12.42"/><circle class="cls-2" cx="209.21" cy="202.42" r="12.42"/><circle class="cls-3" cx="190.77" cy="248.21" r="12.42"/><circle class="cls-1" cx="407.58" cy="219.04" r="12.42"/><circle class="cls-2" cx="426.91" cy="258.68" r="12.73"/><circle class="cls-2" cx="403.18" cy="180.93" r="12.42"/><circle class="cls-1" cx="496.58" cy="231.04" r="12.42"/><circle class="cls-3" cx="486.93" cy="280.73" r="12.42"/><circle class="cls-1" cx="450.18" cy="201.93" r="12.42"/><circle class="cls-1" cx="371.45" cy="139.18" r="12.42"/><circle class="cls-2" cx="321.69" cy="131.71" r="12.42"/><circle class="cls-3" cx="313.54" cy="167.43" r="12.42"/><circle class="cls-1" cx="277.43" cy="138.31" r="12.42"/><circle class="cls-1" cx="246.76" cy="174.03" r="12.42"/><circle class="cls-1" cx="221.76" cy="119.03" r="12.42"/><circle class="cls-2" cx="277.43" cy="201.21" r="12.42"/><circle class="cls-1" cx="144.21" cy="202.42" r="12.42"/><circle class="cls-2" cx="125.77" cy="248.21" r="12.42"/><circle class="cls-1" cx="181.76" cy="164.03" r="12.42"/><circle class="cls-2" cx="247.71" cy="304.57" r="12.42"/><circle class="cls-1" cx="337.37" cy="304.57" r="12.42"/><circle class="cls-1" cx="160.77" cy="295.21" r="12.42"/><circle class="cls-1" cx="397.93" cy="306.73" r="12.42"/><circle class="cls-2" cx="456.62" cy="328.35" r="12.73"/><circle class="cls-3" cx="95.77" cy="295.21" r="12.42"/><circle class="cls-2" cx="202.71" cy="343.57" r="12.42"/><circle class="cls-3" cx="292.37" cy="343.57" r="12.42"/><circle class="cls-2" cx="350.08" cy="346.79" r="12.73"/><circle class="cls-1" cx="352.68" cy="89.3" r="12.42" transform="translate(64.53 311.39) rotate(-51.83)"/><circle class="cls-2" cx="318.17" cy="52.68" r="12.42" transform="translate(80.14 270.27) rotate(-51.83)"/><circle class="cls-3" cx="279.69" cy="84.72" r="12.42" transform="translate(40.25 252.26) rotate(-51.83)"/><rect class="cls-4" width="576" height="602"/></g></g></svg>