<svg xmlns="http://www.w3.org/2000/svg" viewBox="0 0 576 602"><defs><style>.cls-1{fill:#feeeff;}.cls-2{fill:#ff0068;}.cls-3{fill:#39b44a;}.cls-4{fill:none;}</style></defs><title>Recurso 194</title><g id="Capa_2" data-name="Capa 2"><g id="Capa_1-2" data-name="Capa 1"><circle class="cls-1" cx="237.54" cy="205.35" r="12.42"/><circle class="cls-2" cx="270.76" cy="228.32" r="12.42"/><circle class="cls-1" cx="314.64" cy="257.57" r="12.42"/><circle class="cls-1" cx="224.98" cy="257.57" r="12.42"/><circle class="cls-3" cx="346" cy="229.78" r="12.42"/><circle class="cls-2" cx="383.14" cy="202.42" r="12.42"/><circle class="cls-3" cx="401.58" cy="248.21" r="12.42"/><circle class="cls-3" cx="184.77" cy="219.04" r="12.42"/><circle class="cls-1" cx="164.42" cy="259.73" r="12.42"/><circle class="cls-2" cx="189.17" cy="180.93" r="12.42"/><circle class="cls-2" cx="95.77" cy="231.04" r="12.42"/><circle class="cls-1" cx="105.42" cy="280.73" r="12.42"/><circle class="cls-1" cx="142.17" cy="201.93" r="12.42"/><circle class="cls-1" cx="220.9" cy="139.18" r="12.42"/><circle class="cls-3" cx="270.66" cy="131.71" r="12.42"/><circle class="cls-2" cx="278.81" cy="167.43" r="12.42"/><circle class="cls-1" cx="314.92" cy="138.31" r="12.42"/><circle class="cls-2" cx="345.59" cy="174.03" r="12.42"/><circle class="cls-1" cx="314.92" cy="201.21" r="12.42"/><circle class="cls-3" cx="448.14" cy="202.42" r="12.42"/><circle class="cls-1" cx="466.58" cy="248.21" r="12.42"/><circle class="cls-1" cx="410.59" cy="164.03" r="12.42"/><circle class="cls-2" cx="344.64" cy="304.57" r="12.42"/><circle class="cls-3" cx="254.98" cy="304.57" r="12.42"/><circle class="cls-2" cx="431.58" cy="295.21" r="12.42"/><circle class="cls-3" cx="194.42" cy="306.73" r="12.42"/><circle class="cls-2" cx="135.42" cy="327.73" r="12.42"/><circle class="cls-2" cx="496.58" cy="295.21" r="12.42"/><circle class="cls-1" cx="389.64" cy="343.57" r="12.42"/><circle class="cls-1" cx="299.98" cy="343.57" r="12.42"/><circle class="cls-2" cx="239.42" cy="345.73" r="12.42"/><circle class="cls-3" cx="261.66" cy="72.71" r="12.42"/><circle class="cls-1" cx="310.92" cy="58.31" r="12.42"/><circle class="cls-2" cx="358.59" cy="102.03" r="12.42"/><rect class="cls-4" width="576" height="602"/></g></g></svg>