<svg xmlns="http://www.w3.org/2000/svg" viewBox="0 0 576 602"><defs><style>.cls-1,.cls-10,.cls-3{fill:none;}.cls-1{stroke:#603813;}.cls-1,.cls-3{stroke-linecap:round;stroke-miterlimit:10;}.cls-2{fill:#d86c00;}.cls-3{stroke:#ffcd9c;}.cls-4{font-size:46.86px;font-family:GillSansMT-ExtraCondensedBold, Gill Sans MT Ext Condensed Bold;}.cls-4,.cls-9{fill:#ec1e79;}.cls-5{letter-spacing:-0.02em;}.cls-6{fill:#39b44a;}.cls-7{fill:#662d90;}.cls-8{fill:#29aae1;}</style></defs><title>Recurso 173</title><g id="Capa_2" data-name="Capa 2"><g id="Capa_1-2" data-name="Capa 1"><line class="cls-1" x1="421.61" y1="42.74" x2="431.18" y2="11.09"/><path class="cls-2" d="M404,125.81,388.42,121a8.33,8.33,0,0,1-5.52-10.41l24.72-80.47c.8-2.59,8-6.54,13.79-9.34A8.89,8.89,0,0,1,433,24.35c3.22,5.56,7,12.88,6.17,15.47l-24.72,80.47A8.33,8.33,0,0,1,404,125.81Z"/><line class="cls-3" x1="403.1" y1="44.84" x2="441.04" y2="33.73"/><line class="cls-3" x1="397.78" y1="62.18" x2="435.71" y2="51.07"/><line class="cls-3" x1="392.45" y1="79.51" x2="430.39" y2="68.4"/><line class="cls-3" x1="387.13" y1="96.85" x2="425.06" y2="85.73"/><line class="cls-3" x1="381.8" y1="114.18" x2="419.74" y2="103.07"/><text class="cls-4" transform="translate(224.9 234.33) rotate(-0.73) scale(2.73 1)">Feliz<tspan x="-38.96" y="40.2">Cump</tspan><tspan class="cls-5" x="18.64" y="40.2">l</tspan><tspan x="24.79" y="40.2">eaños</tspan></text><ellipse class="cls-6" cx="355" cy="160" rx="15" ry="18" transform="translate(94.53 449.44) rotate(-72.28)"/><ellipse class="cls-7" cx="424" cy="197.5" rx="13.5" ry="17" transform="translate(-34.02 292.36) rotate(-36.68)"/><ellipse class="cls-8" cx="275" cy="315.5" rx="19" ry="14.5" transform="translate(-35.4 34.76) rotate(-6.8)"/><ellipse class="cls-9" cx="451" cy="309" rx="15" ry="17" transform="translate(-91.62 375.69) rotate(-41.42)"/><ellipse class="cls-8" cx="181" cy="198" rx="20" ry="15" transform="translate(-68.54 99.53) rotate(-26.03)"/><ellipse class="cls-6" cx="160" cy="331" rx="20" ry="15"/><ellipse class="cls-7" cx="111" cy="224" rx="19" ry="14" transform="translate(-136.78 190.77) rotate(-56)"/><ellipse class="cls-9" cx="243" cy="157.5" rx="18" ry="12.5"/><ellipse class="cls-9" cx="243" cy="42.5" rx="18" ry="12.5"/><ellipse class="cls-7" cx="381.5" cy="338.5" rx="18.5" ry="13.5"/><ellipse class="cls-8" cx="300" cy="92.5" rx="19" ry="14.5" transform="translate(-8.84 36.15) rotate(-6.8)"/><ellipse class="cls-6" cx="195" cy="108" rx="20" ry="15"/><rect class="cls-10" width="576" height="602"/></g></g></svg>