<svg xmlns="http://www.w3.org/2000/svg" viewBox="0 0 576 602"><defs><style>.cls-1{fill:#ff0068;}.cls-2{fill:none;}</style></defs><title>Recurso 197</title><g id="Capa_2" data-name="Capa 2"><g id="Capa_1-2" data-name="Capa 1"><path class="cls-1" d="M285.39,14.94l27.74,34.92A3,3,0,0,0,315.18,51l58.72,5.3a3,3,0,0,1,1.27,5.5L334.91,86.15a3,3,0,0,0-1.32,3.33l9.72,35.19a3,3,0,0,1-3.78,3.61L284,110.15a3,3,0,0,0-1.84,0L226.6,128.28a3,3,0,0,1-3.78-3.61l9.72-35.19a3,3,0,0,0-1.32-3.33L190.94,61.76a3,3,0,0,1,1.27-5.5L250.94,51A3,3,0,0,0,253,49.85l27.74-34.92A3,3,0,0,1,285.39,14.94Z"/><rect class="cls-2" width="576" height="602"/></g></g></svg>