<svg xmlns="http://www.w3.org/2000/svg" viewBox="0 0 576 602"><defs><style>.cls-1{fill:#f354fc;}.cls-2{fill:#aadd58;}.cls-3{fill:#fff927;}.cls-4{fill:#b3fffd;}.cls-5{fill:none;}</style></defs><title>Recurso 177</title><g id="Capa_2" data-name="Capa 2"><g id="Capa_1-2" data-name="Capa 1"><polygon class="cls-1" points="96.98 246.45 109.75 253.22 122.57 246.54 120.08 260.78 130.4 270.9 116.08 272.93 109.64 285.88 103.29 272.89 88.99 270.76 99.38 260.71 96.98 246.45"/><polygon class="cls-2" points="151.98 289.45 164.75 296.22 177.57 289.54 175.08 303.78 185.4 313.9 171.08 315.93 164.64 328.88 158.29 315.89 143.99 313.76 154.38 303.71 151.98 289.45"/><polygon class="cls-2" points="291.98 64.45 304.75 71.22 317.57 64.54 315.08 78.78 325.4 88.9 311.08 90.93 304.64 103.88 298.29 90.89 283.99 88.76 294.38 78.71 291.98 64.45"/><polygon class="cls-3" points="142.98 176.45 155.75 183.22 168.57 176.54 166.08 190.78 176.4 200.9 162.08 202.93 155.64 215.88 149.29 202.89 134.99 200.76 145.38 190.71 142.98 176.45"/><polygon class="cls-1" points="444.98 236.45 457.75 243.22 470.57 236.54 468.08 250.78 478.4 260.9 464.08 262.93 457.64 275.88 451.29 262.89 436.99 260.76 447.38 250.71 444.98 236.45"/><polygon class="cls-1" points="405.98 299.45 418.75 306.22 431.57 299.54 429.08 313.78 439.4 323.9 425.08 325.93 418.64 338.88 412.29 325.89 397.99 323.76 408.38 313.71 405.98 299.45"/><polygon class="cls-2" points="399.98 203.45 412.75 210.22 425.57 203.54 423.08 217.78 433.4 227.9 419.08 229.93 412.64 242.88 406.29 229.89 391.99 227.76 402.38 217.71 399.98 203.45"/><polygon class="cls-1" points="303.95 155.88 308.68 169.54 322.62 173.38 311.1 182.11 311.75 196.55 299.89 188.28 286.36 193.37 290.55 179.53 281.54 168.24 295.99 167.95 303.95 155.88"/><polygon class="cls-1" points="246.95 29.88 251.68 43.54 265.62 47.38 254.09 56.11 254.75 70.55 242.89 62.28 229.36 67.37 233.55 53.53 224.53 42.24 238.99 41.95 246.95 29.88"/><polygon class="cls-4" points="257.54 234.41 268.63 243.68 282.56 239.8 277.17 253.22 285.16 265.26 270.74 264.28 261.75 275.6 258.23 261.58 244.69 256.54 256.93 248.85 257.54 234.41"/><polygon class="cls-1" points="204.54 189.41 215.63 198.68 229.56 194.8 224.17 208.22 232.16 220.26 217.74 219.28 208.75 230.6 205.23 216.58 191.69 211.54 203.93 203.85 204.54 189.41"/><polygon class="cls-2" points="304.35 311.79 318.78 310.92 326.24 298.54 331.53 311.99 345.61 315.26 334.45 324.44 335.69 338.85 323.5 331.07 310.19 336.7 313.82 322.71 304.35 311.79"/><polygon class="cls-3" points="229.64 295.82 237.23 308.12 251.67 308.84 242.32 319.86 246.1 333.81 232.72 328.33 220.62 336.23 221.71 321.82 210.45 312.75 224.5 309.33 229.64 295.82"/><polygon class="cls-3" points="338.64 229.82 346.23 242.12 360.67 242.84 351.32 253.86 355.1 267.81 341.73 262.33 329.62 270.23 330.71 255.82 319.45 246.75 333.5 243.33 338.64 229.82"/><polygon class="cls-4" points="231.98 131.45 244.75 138.22 257.57 131.54 255.08 145.78 265.4 155.9 251.08 157.93 244.64 170.88 238.29 157.89 223.99 155.76 234.38 145.71 231.98 131.45"/><polygon class="cls-4" points="352.98 151.45 365.75 158.22 378.57 151.54 376.08 165.78 386.4 175.9 372.08 177.93 365.64 190.88 359.29 177.89 344.99 175.76 355.38 165.71 352.98 151.45"/><rect class="cls-5" width="576" height="602"/></g></g></svg>