<svg xmlns="http://www.w3.org/2000/svg" viewBox="0 0 576 602"><defs><style>.cls-1,.cls-3,.cls-9{fill:none;}.cls-1{stroke:#603813;}.cls-1,.cls-3{stroke-linecap:round;stroke-miterlimit:10;}.cls-2{fill:#d86c00;}.cls-3{stroke:#ffcd9c;}.cls-4{font-size:31.48px;font-family:GillSansMT-ExtraCondensedBold, Gill Sans MT Ext Condensed Bold;}.cls-4,.cls-8{fill:#ec1e79;}.cls-5{fill:#39b44a;}.cls-6{fill:#662d90;}.cls-7{fill:#29aae1;}</style></defs><title>Recurso 169</title><g id="Capa_2" data-name="Capa 2"><g id="Capa_1-2" data-name="Capa 1"><line class="cls-1" x1="176.8" y1="49.21" x2="169.3" y2="16.34"/><path class="cls-2" d="M201.77,127.58,186.46,131a8.09,8.09,0,0,1-9.59-6.22l-18-80.49c-.58-2.59,3.54-9.43,7-14.6a8.42,8.42,0,0,1,11.36-2.54c5.35,3.2,12,7.62,12.57,10.22l18,80.49A8.09,8.09,0,0,1,201.77,127.58Z"/><line class="cls-3" x1="162.16" y1="59.01" x2="188.45" y2="31.28"/><line class="cls-3" x1="165.83" y1="78.4" x2="193.19" y2="49.54"/><line class="cls-3" x1="169.86" y1="96.44" x2="197.23" y2="67.59"/><line class="cls-3" x1="173.9" y1="114.49" x2="201.26" y2="85.64"/><line class="cls-3" x1="177.93" y1="132.54" x2="205.3" y2="103.68"/><text class="cls-4" transform="matrix(2.33, -1.42, 0.52, 0.85, 156.31, 218.58)">Feliz<tspan x="3.6" y="27">Día</tspan></text><ellipse class="cls-5" cx="368" cy="129" rx="15" ry="18" transform="translate(133.1 440.26) rotate(-72.28)"/><ellipse class="cls-6" cx="430" cy="204.5" rx="13.5" ry="17" transform="matrix(0.8, -0.6, 0.6, 0.8, -37.01, 297.33)"/><ellipse class="cls-7" cx="355" cy="241.5" rx="14.5" ry="19" transform="translate(-66.79 321.76) rotate(-45)"/><ellipse class="cls-8" cx="448" cy="285" rx="15" ry="17" transform="translate(-76.49 367.7) rotate(-41.42)"/><ellipse class="cls-7" cx="240" cy="275" rx="20" ry="15" transform="translate(-96.35 133.24) rotate(-26.03)"/><ellipse class="cls-5" cx="160" cy="331" rx="20" ry="15"/><ellipse class="cls-6" cx="136" cy="261" rx="19" ry="14" transform="translate(-156.43 227.81) rotate(-56)"/><ellipse class="cls-8" cx="278" cy="92.5" rx="18" ry="12.5"/><ellipse class="cls-8" cx="306" cy="176.5" rx="18" ry="12.5"/><ellipse class="cls-6" cx="331.5" cy="311.5" rx="18.5" ry="13.5"/><rect class="cls-9" width="576" height="602"/></g></g></svg>