<svg xmlns="http://www.w3.org/2000/svg" viewBox="0 0 576 602"><defs><style>.cls-1{fill:#c0272d;}.cls-2{fill:#8bc53f;}.cls-3{opacity:0.8;}.cls-4{fill:#fbed21;}.cls-5{fill:none;}</style></defs><title>Recurso 170</title><g id="Capa_2" data-name="Capa 2"><g id="Capa_1-2" data-name="Capa 1"><path class="cls-1" d="M479.1,122.94c-21.17,25.42-69.42,45-92.67,25.65s-12.72-70.36,8.45-95.78,44.95-15.64,68.21,3.73S500.26,97.52,479.1,122.94Z"/><path class="cls-2" d="M511,67c-17.18-13.44-37.49-11.18-37.49-11.18s28.66-15.36,25-20.75c-2.36-3.5-20.54,5.5-31,16.18,8.6-12.26,14.16-31.78,10.29-33.46-6-2.59-15.88,28.37-15.88,28.37s-1.45-20.38-17.78-34.85,10,37.17,9,36.44S438.56,32.3,437.9,37.53c-.56,4.42,13,21.67,18.07,26l0,0,.76.61.74.63,0,0c5.19,4.15,24.62,14.41,28.86,13.06,5-1.6-11.93-12.27-12.82-13.09S528.16,80.47,511,67Z"/><g class="cls-3"><ellipse class="cls-4" cx="442.99" cy="79.38" rx="4.94" ry="2.47" transform="translate(98.5 368.99) rotate(-50.21)"/><ellipse class="cls-4" cx="431.52" cy="64.82" rx="4.94" ry="2.47" transform="translate(105.56 354.93) rotate(-50.21)"/><ellipse class="cls-4" cx="416.18" cy="59.2" rx="4.94" ry="2.47" transform="translate(104.36 341.12) rotate(-50.21)"/><ellipse class="cls-4" cx="468.6" cy="103.57" rx="4.94" ry="2.47" transform="translate(89.14 397.38) rotate(-50.21)"/><ellipse class="cls-4" cx="459.03" cy="88.45" rx="4.94" ry="2.47" transform="translate(97.31 384.58) rotate(-50.21)"/><ellipse class="cls-4" cx="428.92" cy="96.27" rx="4.94" ry="2.47" transform="matrix(0.64, -0.77, 0.77, 0.64, 80.46, 364.26)"/><ellipse class="cls-4" cx="417.45" cy="81.71" rx="4.94" ry="2.47" transform="translate(87.52 350.2) rotate(-50.21)"/><ellipse class="cls-4" cx="402.12" cy="76.09" rx="4.94" ry="2.47" transform="translate(86.32 336.39) rotate(-50.21)"/><ellipse class="cls-4" cx="454.54" cy="120.46" rx="4.94" ry="2.47" transform="translate(71.1 392.65) rotate(-50.21)"/><ellipse class="cls-4" cx="444.97" cy="105.34" rx="4.94" ry="2.47" transform="translate(79.27 379.85) rotate(-50.21)"/><ellipse class="cls-4" cx="414.86" cy="113.16" rx="4.94" ry="2.47" transform="translate(62.42 359.53) rotate(-50.21)"/><ellipse class="cls-4" cx="403.39" cy="98.6" rx="4.94" ry="2.47" transform="translate(69.48 345.48) rotate(-50.21)"/><ellipse class="cls-4" cx="430.9" cy="122.23" rx="4.94" ry="2.47" transform="translate(61.23 375.13) rotate(-50.21)"/><ellipse class="cls-4" cx="401.5" cy="129.2" rx="4.94" ry="2.47" transform="translate(45.28 355.04) rotate(-50.21)"/><ellipse class="cls-4" cx="390.03" cy="114.64" rx="4.94" ry="2.47" transform="translate(52.34 340.99) rotate(-50.21)"/><ellipse class="cls-4" cx="417.54" cy="138.27" rx="4.94" ry="2.47" transform="translate(44.09 370.64) rotate(-50.21)"/><ellipse class="cls-4" cx="389.46" cy="95.58" rx="4.94" ry="2.47" transform="translate(144.61 413.17) rotate(-66.16)"/><ellipse class="cls-4" cx="438.08" cy="136.79" rx="4.94" ry="2.47" transform="translate(16.56 318.31) rotate(-40.64)"/></g><rect class="cls-5" width="576" height="602"/></g></g></svg>