<svg xmlns="http://www.w3.org/2000/svg" viewBox="0 0 576 602"><defs><style>.cls-1{fill:#c0272d;}.cls-2{fill:#8bc53f;}.cls-3{opacity:0.8;}.cls-4{fill:#fbed21;}.cls-5{fill:#754c24;}.cls-6,.cls-7{fill:none;}.cls-6{stroke:#42210b;stroke-linecap:round;stroke-miterlimit:10;}</style></defs><title>Recurso 171</title><g id="Capa_2" data-name="Capa 2"><g id="Capa_1-2" data-name="Capa 1"><path class="cls-1" d="M463.1,124.94c-21.17,25.42-69.42,45-92.67,25.65s-12.72-70.36,8.45-95.78,44.95-15.64,68.21,3.73S484.26,99.52,463.1,124.94Z"/><path class="cls-2" d="M495,69c-17.18-13.44-37.49-11.18-37.49-11.18s28.66-15.36,25-20.75c-2.36-3.5-20.54,5.5-31,16.18,8.6-12.26,14.16-31.78,10.29-33.46-6-2.59-15.88,28.37-15.88,28.37s-1.45-20.38-17.78-34.85,10,37.17,9,36.44S422.56,34.3,421.9,39.53c-.56,4.42,13,21.67,18.07,26l0,0,.76.61.74.63,0,0c5.19,4.15,24.62,14.41,28.86,13.06,5-1.6-11.93-12.27-12.82-13.09S512.16,82.47,495,69Z"/><g class="cls-3"><ellipse class="cls-4" cx="426.99" cy="81.38" rx="4.94" ry="2.47" transform="translate(91.21 357.41) rotate(-50.21)"/><ellipse class="cls-4" cx="415.52" cy="66.82" rx="4.94" ry="2.47" transform="matrix(0.64, -0.77, 0.77, 0.64, 98.26, 343.36)"/><ellipse class="cls-4" cx="400.18" cy="61.2" rx="4.94" ry="2.47" transform="translate(97.06 329.55) rotate(-50.21)"/><ellipse class="cls-4" cx="452.6" cy="105.57" rx="4.94" ry="2.47" transform="translate(81.84 385.8) rotate(-50.21)"/><ellipse class="cls-4" cx="443.03" cy="90.45" rx="4.94" ry="2.47" transform="translate(90.01 373) rotate(-50.21)"/><ellipse class="cls-4" cx="412.92" cy="98.27" rx="4.94" ry="2.47" transform="translate(73.17 352.69) rotate(-50.21)"/><ellipse class="cls-4" cx="401.45" cy="83.71" rx="4.94" ry="2.47" transform="translate(80.22 338.63) rotate(-50.21)"/><ellipse class="cls-4" cx="386.12" cy="78.09" rx="4.94" ry="2.47" transform="translate(79.02 324.82) rotate(-50.21)"/><ellipse class="cls-4" cx="438.54" cy="122.46" rx="4.94" ry="2.47" transform="translate(63.8 381.08) rotate(-50.21)"/><ellipse class="cls-4" cx="428.97" cy="107.34" rx="4.94" ry="2.47" transform="translate(71.97 368.28) rotate(-50.21)"/><ellipse class="cls-4" cx="398.86" cy="115.16" rx="4.94" ry="2.47" transform="translate(55.12 347.96) rotate(-50.21)"/><ellipse class="cls-4" cx="387.39" cy="100.6" rx="4.94" ry="2.47" transform="translate(62.18 333.9) rotate(-50.21)"/><ellipse class="cls-4" cx="414.9" cy="124.23" rx="4.94" ry="2.47" transform="translate(53.93 363.55) rotate(-50.21)"/><ellipse class="cls-4" cx="385.5" cy="131.2" rx="4.94" ry="2.47" transform="translate(37.99 343.47) rotate(-50.21)"/><ellipse class="cls-4" cx="374.03" cy="116.64" rx="4.94" ry="2.47" transform="translate(45.04 329.41) rotate(-50.21)"/><ellipse class="cls-4" cx="401.54" cy="140.27" rx="4.94" ry="2.47" transform="translate(36.79 359.06) rotate(-50.21)"/><ellipse class="cls-4" cx="373.46" cy="97.58" rx="4.94" ry="2.47" transform="translate(133.25 399.73) rotate(-66.16)"/><ellipse class="cls-4" cx="422.08" cy="138.79" rx="4.94" ry="2.47" transform="translate(11.4 308.37) rotate(-40.64)"/></g><path class="cls-5" d="M378.88,54.81c-21.17,25.42-31.71,76.42-8.45,95.78s71.5-.23,92.67-25.65a51.39,51.39,0,0,0,7-10.72c-.67-4.85-3.7-10.77-13.1-15.22-19-9-42,12-46-5s-5.06-46.28-28-43.64A59.06,59.06,0,0,0,378.88,54.81Z"/><path class="cls-6" d="M412,154s-60-42-53-50,75.06,48.7,87,39.35S359,87,364,73s100.6,50.48,106,42c7-11-83-62-82-69"/><rect class="cls-7" width="576" height="602"/></g></g></svg>