<svg xmlns="http://www.w3.org/2000/svg" viewBox="0 0 576 602"><defs><style>.cls-1{fill:#39b44a;}.cls-2{fill:#fbed21;}.cls-3{fill:blue;}.cls-4{fill:#f05a24;}.cls-5{fill:#ec1e79;}.cls-6{fill:#ec1c24;}.cls-7{fill:none;}</style></defs><title>Recurso 179</title><g id="Capa_2" data-name="Capa 2"><g id="Capa_1-2" data-name="Capa 1"><ellipse class="cls-1" cx="368" cy="169" rx="15" ry="18" transform="translate(94.99 468.09) rotate(-72.28)"/><ellipse class="cls-2" cx="430" cy="204.5" rx="13.5" ry="17" transform="matrix(0.8, -0.6, 0.6, 0.8, -37.01, 297.33)"/><ellipse class="cls-3" cx="355" cy="241.5" rx="14.5" ry="19" transform="translate(-66.79 321.76) rotate(-45)"/><ellipse class="cls-3" cx="487" cy="298.5" rx="14.5" ry="19" transform="translate(-68.43 431.79) rotate(-45)"/><ellipse class="cls-4" cx="421" cy="275" rx="15" ry="17" transform="translate(-76.63 347.34) rotate(-41.42)"/><ellipse class="cls-5" cx="403" cy="331" rx="15" ry="17" transform="translate(-118.18 349.44) rotate(-41.42)"/><ellipse class="cls-4" cx="212" cy="277" rx="20" ry="15" transform="translate(-100.07 121.16) rotate(-26.03)"/><ellipse class="cls-6" cx="160" cy="331" rx="20" ry="15"/><ellipse class="cls-3" cx="89" cy="311" rx="15" ry="20" transform="translate(-207.42 181.48) rotate(-50.43)"/><ellipse class="cls-2" cx="136" cy="261" rx="19" ry="14" transform="translate(-156.43 227.81) rotate(-56)"/><ellipse class="cls-6" cx="284" cy="236" rx="19" ry="14" transform="translate(-70.46 339.49) rotate(-56)"/><ellipse class="cls-6" cx="265" cy="98" rx="19" ry="14" transform="translate(35.57 262.9) rotate(-56)"/><ellipse class="cls-2" cx="323" cy="139" rx="19" ry="14" transform="translate(27.15 329.06) rotate(-56)"/><ellipse class="cls-2" cx="258" cy="39" rx="19" ry="14" transform="translate(81.4 231.09) rotate(-56)"/><ellipse class="cls-4" cx="278" cy="171.5" rx="18" ry="12.5"/><ellipse class="cls-4" cx="197" cy="98.5" rx="18" ry="12.5"/><ellipse class="cls-1" cx="212" cy="151.5" rx="18" ry="12.5"/><ellipse class="cls-1" cx="341" cy="69.5" rx="18" ry="12.5"/><ellipse class="cls-1" cx="331.5" cy="311.5" rx="18.5" ry="13.5"/><ellipse class="cls-3" cx="196.5" cy="209.5" rx="18.5" ry="13.5"/><ellipse class="cls-4" cx="136.5" cy="199.5" rx="18.5" ry="13.5"/><ellipse class="cls-3" cx="260.5" cy="336.5" rx="18.5" ry="13.5"/><rect class="cls-7" width="576" height="602"/></g></g></svg>