<svg xmlns="http://www.w3.org/2000/svg" viewBox="0 0 576 602"><defs><style>.cls-1{fill:#ba6f31;}.cls-2{fill:#dba167;}.cls-3{fill:#42210b;}.cls-4{fill:none;}</style></defs><title>Recurso 166</title><g id="Capa_2" data-name="Capa 2"><g id="Capa_1-2" data-name="Capa 1"><ellipse class="cls-1" cx="159.64" cy="189.99" rx="43.66" ry="31.7" transform="translate(-68.35 92.01) rotate(-26.71)"/><ellipse class="cls-2" cx="157.03" cy="184.81" rx="43.66" ry="31.7" transform="translate(-66.3 90.28) rotate(-26.71)"/><path class="cls-3" d="M148.6,169c-2.21,1.06-5.17.83-6.63-.51s-.85-3.29,1.36-4.35,5.17-.83,6.63.51S150.81,167.93,148.6,169Z"/><path class="cls-3" d="M180.05,164.39c.51,2-1.09,4.67-3.58,6s-4.92.74-5.43-1.26,1.09-4.67,3.58-6S179.54,162.39,180.05,164.39Z"/><path class="cls-3" d="M141.18,185.45c.35,3.19-2.46,7.62-6.27,9.9s-7.17,1.55-7.52-1.63,2.46-7.62,6.27-9.9S140.84,182.26,141.18,185.45Z"/><path class="cls-3" d="M189.88,179.83c.35,3.19-2.46,7.62-6.27,9.9s-7.17,1.55-7.52-1.63,2.46-7.62,6.27-9.9S189.54,176.64,189.88,179.83Z"/><path class="cls-3" d="M175.3,200.72a13,13,0,0,1-11.13,5.6c-4-.34-5.56-3.4-3.44-6.84a13,13,0,0,1,11.13-5.6C175.88,194.22,177.42,197.28,175.3,200.72Z"/><path class="cls-3" d="M149.47,204.67a6.8,6.8,0,0,1-5.81,2.92c-2.1-.18-2.9-1.78-1.8-3.57a6.8,6.8,0,0,1,5.81-2.92C149.77,201.28,150.58,202.88,149.47,204.67Z"/><path class="cls-3" d="M166,185.38a9.88,9.88,0,0,1-8.44,4.24c-3-.26-4.22-2.58-2.61-5.18a9.88,9.88,0,0,1,8.44-4.24C166.41,180.45,167.58,182.77,166,185.38Z"/><ellipse class="cls-1" cx="211.04" cy="270.22" rx="43.66" ry="31.7" transform="translate(-59.4 59.47) rotate(-14.08)"/><ellipse class="cls-2" cx="209.63" cy="264.58" rx="43.66" ry="31.7" transform="translate(-58.08 58.96) rotate(-14.08)"/><path class="cls-3" d="M204.86,247.31c-2.38.55-5.23-.32-6.36-1.94s-.11-3.4,2.28-3.95,5.23.32,6.36,1.94S207.25,246.75,204.86,247.31Z"/><path class="cls-3" d="M236.56,249.69c.06,2.06-2.09,4.32-4.8,5s-5-.36-5-2.42,2.09-4.32,4.8-5S236.49,247.63,236.56,249.69Z"/><path class="cls-3" d="M194,261.75c-.36,3.18-4.07,6.9-8.28,8.29s-7.34-.05-7-3.24,4.07-6.9,8.28-8.29S194.38,258.57,194,261.75Z"/><path class="cls-3" d="M242.77,266.91c-.36,3.18-4.07,6.9-8.28,8.29s-7.34-.05-7-3.24,4.07-6.9,8.28-8.29S243.13,263.72,242.77,266.91Z"/><path class="cls-3" d="M224,284.1a13,13,0,0,1-12.09,3c-3.85-1.21-4.69-4.54-1.86-7.43a13,13,0,0,1,12.09-3C226,277.89,226.8,281.21,224,284.1Z"/><path class="cls-3" d="M197.91,282.31a6.8,6.8,0,0,1-6.31,1.58c-2-.63-2.44-2.37-1-3.87a6.8,6.8,0,0,1,6.31-1.58C198.95,279.07,199.38,280.81,197.91,282.31Z"/><path class="cls-3" d="M218.23,267.09a9.88,9.88,0,0,1-9.16,2.3c-2.92-.92-3.55-3.44-1.41-5.63a9.88,9.88,0,0,1,9.16-2.3C219.73,262.38,220.37,264.9,218.23,267.09Z"/><ellipse class="cls-1" cx="406.85" cy="188.89" rx="31.7" ry="43.66" transform="translate(36.46 441.91) rotate(-59.24)"/><ellipse class="cls-2" cx="409.82" cy="183.9" rx="31.7" ry="43.66" transform="translate(42.2 442.02) rotate(-59.24)"/><path class="cls-3" d="M418.62,168.29c-2.08-1.29-3.49-3.91-3.14-5.86s2.32-2.48,4.4-1.19,3.49,3.91,3.14,5.86S420.7,169.58,418.62,168.29Z"/><path class="cls-3" d="M439.41,192.33c-1.41,1.51-4.52,1.59-7,.19s-3.27-3.75-1.86-5.26,4.52-1.59,7-.19S440.82,190.83,439.41,192.33Z"/><path class="cls-3" d="M400.75,170.89c-2.5,2-7.75,2-11.72,0s-5.17-5.21-2.67-7.22,7.75-2,11.72,0S403.25,168.89,400.75,170.89Z"/><path class="cls-3" d="M431.68,208.92c-2.5,2-7.75,2-11.72,0s-5.17-5.21-2.67-7.22,7.75-2,11.72,0S434.18,206.92,431.68,208.92Z"/><path class="cls-3" d="M406.23,207.86a13,13,0,0,1-10.71-6.37c-1.88-3.58-.12-6.52,3.92-6.58a13,13,0,0,1,10.71,6.37C412,204.86,410.27,207.8,406.23,207.86Z"/><path class="cls-3" d="M389,188.21a6.8,6.8,0,0,1-5.59-3.32c-1-1.87-.06-3.4,2-3.43a6.8,6.8,0,0,1,5.59,3.32C392,186.64,391.11,188.18,389,188.21Z"/><path class="cls-3" d="M414.15,191.75a9.88,9.88,0,0,1-8.12-4.83c-1.42-2.71-.09-4.94,3-5a9.88,9.88,0,0,1,8.12,4.83C418.54,189.47,417.21,191.7,414.15,191.75Z"/><ellipse class="cls-1" cx="349.81" cy="262.26" rx="31.7" ry="43.66" transform="translate(28.79 559.06) rotate(-79.61)"/><ellipse class="cls-2" cx="350.86" cy="256.54" rx="31.7" ry="43.66" transform="translate(35.27 555.41) rotate(-79.61)"/><path class="cls-3" d="M354.5,239c2.42.4,5.2-.65,6.22-2.35s-.11-3.4-2.53-3.79-5.2.65-6.22,2.35S352.09,238.6,354.5,239Z"/><path class="cls-3" d="M323,243.42c.07,2.06,2.36,4.18,5.11,4.73s4.93-.67,4.86-2.73-2.36-4.18-5.11-4.73S323,241.36,323,243.42Z"/><path class="cls-3" d="M366.25,252.71c.56,3.15,4.5,6.62,8.8,7.74s7.32-.53,6.76-3.68-4.5-6.62-8.8-7.74S365.68,249.55,366.25,252.71Z"/><path class="cls-3" d="M317.93,261c.56,3.15,4.5,6.62,8.8,7.74s7.32-.53,6.76-3.68-4.5-6.62-8.8-7.74S317.37,257.84,317.93,261Z"/><path class="cls-3" d="M337.8,276.94a13,13,0,0,0,12.26,2.25c3.77-1.46,4.38-4.83,1.38-7.53a13,13,0,0,0-12.26-2.25C335.41,270.87,334.8,274.24,337.8,276.94Z"/><path class="cls-3" d="M363.7,273.48a6.8,6.8,0,0,0,6.39,1.17c2-.76,2.29-2.52.72-3.93a6.8,6.8,0,0,0-6.39-1.17C362.45,270.31,362.13,272.07,363.7,273.48Z"/><path class="cls-3" d="M342.44,259.6a9.88,9.88,0,0,0,9.29,1.7c2.85-1.11,3.32-3.66,1-5.71a9.88,9.88,0,0,0-9.29-1.7C340.63,255,340.16,257.55,342.44,259.6Z"/><ellipse class="cls-1" cx="280.59" cy="110.29" rx="43.66" ry="31.7" transform="translate(-8.75 25.58) rotate(-5.14)"/><ellipse class="cls-2" cx="280.07" cy="104.51" rx="43.66" ry="31.7" transform="translate(-8.24 25.51) rotate(-5.14)"/><path class="cls-3" d="M278.89,86.62c2.43-.26,4.83-2,5.36-3.93s-1-3.24-3.45-3-4.83,2-5.36,3.93S276.45,86.89,278.89,86.62Z"/><path class="cls-3" d="M249.75,99.31c.62,2,3.39,3.39,6.19,3.18s4.57-2,4-3.94-3.39-3.39-6.19-3.18S249.13,97.34,249.75,99.31Z"/><path class="cls-3" d="M293.88,96.69c1.39,2.89,6.11,5.17,10.55,5.1s6.91-2.47,5.53-5.35-6.11-5.17-10.55-5.1S292.49,93.81,293.88,96.69Z"/><path class="cls-3" d="M249.54,117.61c1.39,2.89,6.11,5.17,10.55,5.1s6.91-2.47,5.53-5.35-6.11-5.17-10.55-5.1S248.15,114.72,249.54,117.61Z"/><path class="cls-3" d="M273,127.66a13,13,0,0,0,12.41-1.12c3.24-2.41,2.93-5.83-.69-7.63A13,13,0,0,0,272.27,120C269,122.45,269.34,125.86,273,127.66Z"/><path class="cls-3" d="M297,117.39a6.8,6.8,0,0,0,6.47-.58c1.69-1.26,1.53-3-.36-4a6.8,6.8,0,0,0-6.47.58C294.93,114.67,295.09,116.45,297,117.39Z"/><path class="cls-3" d="M272.78,109.71a9.88,9.88,0,0,0,9.41-.85c2.45-1.83,2.22-4.42-.52-5.78a9.88,9.88,0,0,0-9.41.85C269.81,105.76,270,108.34,272.78,109.71Z"/><rect class="cls-4" width="576" height="602"/></g></g></svg>