<svg xmlns="http://www.w3.org/2000/svg" xmlns:xlink="http://www.w3.org/1999/xlink" viewBox="0 0 576 602">
	<defs>
		<style>
			.acls-1{fill:none;}
			.acls-2{opacity:0.3;}
			.acls-3{fill:#d60028;}
			.acls-4{fill:#aa042f;}
			.acls-5{clip-path:url(#clip-path);}
			.acls-6{fill:#f8f9d2;}
			.acls-7{clip-path:url(#clip-path-2);}
			.acls-8{fill:#e1e1b4;}
			.acls-9{fill:#b68313;}
			.acls-10,.acls-11{fill:#fdc325;}
			.acls-11{stroke:#d09b18;stroke-miterlimit:10;stroke-width:9px;}
		</style>
		<clipPath id="clip-path">
			<ellipse class="acls-1" cx="288.18" cy="188.41" rx="226.92" ry="111.05"/>
		</clipPath>
		<clipPath id="clip-path-2">
			<ellipse class="acls-1" cx="296.36" cy="312.21" rx="149.97" ry="94.95"/>
		</clipPath>
	</defs>
	<title>
		Recurso 50
	</title>
	<g id="Capa_2" data-name="Capa 2">
		<clipPath id="clip-path">
			<ellipse class="acls-1" cx="288.18" cy="188.41" rx="226.92" ry="111.05"/>
		</clipPath>
		<clipPath id="clip-path-2">
			<ellipse class="acls-1" cx="296.36" cy="312.21" rx="149.97" ry="94.95"/>
		</clipPath>
		<g id="Capa_1-2" data-name="Capa 1">
			<ellipse class="acls-2" cx="287.8" cy="426.02" rx="253.91" ry="122.44"/>
			<path class="acls-3" d="M515.1,414.34c0,53.9-101.59,97.59-226.92,97.59S61.27,468.24,61.27,414.34c0-9.07-.79-194-.86-211.4C60.08,116.84,294,117,294,117c29.07,1.94,220.69,2.35,221.66,89.37C515.87,225.76,515.1,404.52,515.1,414.34Z"/>
			<ellipse class="acls-3" cx="288.18" cy="203.42" rx="226.92" ry="111.05"/>
			<path class="acls-4" d="M288.39,516.93c-7.52,0-14.11-4.64-19.92-8.74-4.25-3-8.64-6.09-12-6.31-3.7-.24-8.65,2.32-13.44,4.81-6.45,3.35-13.13,6.81-20.25,5.83-7.6-1.05-13.53-6.66-18.76-11.61-3.72-3.52-7.56-7.15-10.74-7.85-3.73-.82-9.08.93-14.25,2.62-6.91,2.27-14.06,4.61-20.85,2.42-7.65-2.47-12.53-9.34-16.83-15.4-2.85-4-5.79-8.17-8.57-9.46-3.67-1.71-9.32-1.39-14.78-1.08-7.41.42-15.07.85-20.92-3.34-7.55-5.4-9.47-14.49-11.16-22.52-.89-4.21-1.8-8.57-3.37-10.77-2.08-2.93-5.82-5.81-9.43-8.6-6.87-5.3-14.65-11.3-14.65-20.58a6,6,0,0,1,12,0c0,3.38,5.07,7.29,10,11.08,4.31,3.32,8.77,6.76,11.88,11.15s4.19,9.84,5.33,15.25c1.3,6.17,2.64,12.55,6.4,15.23,2.42,1.73,7.93,1.42,13.27,1.12,6.62-.37,14.12-.79,20.52,2.19,5.66,2.64,9.54,8.11,13.29,13.39,3.38,4.76,6.87,9.68,10.72,10.92,3.09,1,8.35-.73,13.44-2.4,6.39-2.09,13.63-4.47,20.57-2.94,6.44,1.42,11.51,6.22,16.41,10.86,4.11,3.89,8.37,7.92,12.16,8.44,3.33.46,8.29-2.11,13.08-4.59,6.25-3.25,12.72-6.6,19.76-6.13,6.72.45,12.51,4.53,18.11,8.48,4.57,3.22,9.29,6.55,13,6.55s8.44-3.33,13-6.55c5.6-3.95,11.39-8,18.11-8.48,7-.47,13.5,2.89,19.76,6.13,4.79,2.48,9.74,5.05,13.08,4.59,3.79-.52,8-4.55,12.16-8.44,4.9-4.64,10-9.44,16.41-10.86,6.93-1.53,14.18.84,20.56,2.94,5.09,1.67,10.35,3.39,13.43,2.4,3.86-1.24,7.35-6.16,10.72-10.92,3.75-5.29,7.63-10.76,13.29-13.39,6.4-3,13.9-2.56,20.52-2.19,5.34.3,10.85.61,13.27-1.12,3.75-2.68,5.1-9.06,6.4-15.23,1.14-5.41,2.32-11,5.33-15.25s7.58-7.82,11.88-11.15c4.91-3.79,10-7.7,10-11.08a6,6,0,0,1,12,0c0,9.28-7.79,15.29-14.65,20.58-3.61,2.79-7.35,5.67-9.43,8.6-1.57,2.21-2.48,6.56-3.37,10.77-1.69,8-3.61,17.12-11.16,22.52-5.85,4.19-13.51,3.76-20.92,3.34-5.46-.31-11.11-.62-14.78,1.08-2.78,1.29-5.73,5.45-8.57,9.46-4.3,6.06-9.18,12.93-16.83,15.4-6.79,2.19-13.94-.15-20.85-2.42-5.17-1.69-10.51-3.45-14.24-2.62-3.19.7-7,4.34-10.75,7.85-5.23,4.95-11.16,10.56-18.76,11.61-7.12,1-13.79-2.48-20.25-5.83-4.79-2.49-9.76-5.06-13.43-4.81-3.36.22-7.75,3.32-12,6.31C302.5,512.29,295.91,516.93,288.39,516.93Z"/>
			<path class="acls-4" d="M288.39,468.93c-7.52,0-14.11-4.64-19.92-8.74-4.25-3-8.64-6.09-12-6.31-3.7-.25-8.65,2.32-13.44,4.81-6.45,3.35-13.13,6.81-20.25,5.83-7.6-1.05-13.53-6.66-18.76-11.61-3.72-3.52-7.56-7.15-10.74-7.85-3.73-.82-9.08.93-14.25,2.62-6.91,2.27-14.06,4.61-20.85,2.42-7.65-2.47-12.53-9.34-16.83-15.4-2.85-4-5.79-8.17-8.57-9.46-3.67-1.71-9.32-1.39-14.78-1.08-7.41.42-15.07.85-20.92-3.34-7.55-5.4-9.47-14.49-11.16-22.52-.89-4.21-1.8-8.57-3.37-10.77-2.08-2.93-5.82-5.81-9.43-8.6-6.87-5.3-14.65-11.3-14.65-20.58a6,6,0,0,1,12,0c0,3.38,5.07,7.29,10,11.08,4.31,3.32,8.77,6.76,11.88,11.15s4.19,9.84,5.33,15.25c1.3,6.17,2.64,12.55,6.4,15.23,2.42,1.73,7.93,1.42,13.27,1.12,6.62-.37,14.12-.79,20.52,2.19,5.66,2.64,9.54,8.11,13.29,13.39,3.38,4.76,6.87,9.68,10.72,10.92,3.09,1,8.35-.73,13.44-2.4,6.39-2.09,13.63-4.47,20.57-2.94,6.44,1.42,11.51,6.22,16.41,10.86,4.11,3.89,8.37,7.92,12.16,8.44,3.33.46,8.29-2.11,13.08-4.59,6.25-3.25,12.72-6.6,19.76-6.13,6.72.45,12.51,4.53,18.11,8.48,4.57,3.22,9.29,6.55,13,6.55s8.44-3.33,13-6.55c5.6-3.95,11.39-8,18.11-8.48,7-.47,13.5,2.89,19.76,6.13,4.79,2.48,9.74,5.05,13.08,4.59,3.79-.52,8-4.55,12.16-8.44,4.9-4.64,10-9.44,16.41-10.86,6.93-1.53,14.18.84,20.56,2.94,5.09,1.67,10.35,3.39,13.43,2.4,3.86-1.24,7.35-6.16,10.72-10.92,3.75-5.29,7.63-10.76,13.29-13.39,6.4-3,13.9-2.56,20.52-2.19,5.34.3,10.85.61,13.27-1.12,3.75-2.68,5.1-9.06,6.4-15.23,1.14-5.41,2.32-11,5.33-15.25s7.58-7.82,11.88-11.15c4.91-3.79,10-7.7,10-11.08a6,6,0,1,1,12,0c0,9.28-7.79,15.29-14.65,20.58-3.61,2.79-7.35,5.67-9.43,8.6-1.57,2.21-2.48,6.56-3.37,10.77-1.69,8-3.61,17.12-11.16,22.52-5.85,4.19-13.51,3.76-20.92,3.34-5.46-.31-11.11-.62-14.78,1.08-2.78,1.29-5.73,5.45-8.57,9.46-4.3,6.06-9.18,12.93-16.83,15.4-6.79,2.19-13.94-.15-20.85-2.42-5.17-1.69-10.51-3.45-14.24-2.62-3.19.7-7,4.34-10.75,7.85-5.23,4.95-11.16,10.56-18.76,11.61-7.12,1-13.79-2.48-20.25-5.83-4.79-2.49-9.76-5.06-13.43-4.81-3.36.22-7.75,3.32-12,6.31C302.5,464.29,295.91,468.93,288.39,468.93Z"/>
			<path class="acls-4" d="M288.39,422.93c-7.52,0-14.11-4.64-19.92-8.74-4.25-3-8.64-6.09-12-6.31-3.7-.24-8.65,2.32-13.44,4.81-6.45,3.35-13.13,6.81-20.25,5.83-7.6-1.05-13.53-6.66-18.76-11.61-3.72-3.52-7.56-7.15-10.74-7.85-3.73-.82-9.08.93-14.25,2.62-6.91,2.27-14.06,4.61-20.85,2.42-7.65-2.47-12.53-9.34-16.83-15.4-2.85-4-5.79-8.17-8.57-9.46-3.67-1.71-9.32-1.39-14.78-1.08-7.41.42-15.07.85-20.92-3.34-7.55-5.4-9.47-14.49-11.16-22.52-.89-4.21-1.8-8.57-3.37-10.77-2.08-2.93-5.82-5.81-9.43-8.6-6.87-5.3-14.65-11.3-14.65-20.58a6,6,0,0,1,12,0c0,3.38,5.07,7.29,10,11.08,4.31,3.32,8.77,6.76,11.88,11.15s4.19,9.84,5.33,15.25c1.3,6.17,2.64,12.55,6.4,15.23,2.42,1.73,7.93,1.42,13.27,1.12,6.62-.37,14.12-.79,20.52,2.19,5.66,2.64,9.54,8.11,13.29,13.39,3.38,4.76,6.87,9.68,10.72,10.92,3.09,1,8.35-.73,13.44-2.4,6.39-2.09,13.63-4.47,20.57-2.94,6.44,1.42,11.51,6.22,16.41,10.86,4.11,3.89,8.37,7.92,12.16,8.44,3.33.46,8.29-2.11,13.08-4.59,6.25-3.25,12.72-6.6,19.76-6.13,6.72.45,12.51,4.53,18.11,8.48,4.57,3.22,9.29,6.55,13,6.55s8.44-3.33,13-6.55c5.6-3.95,11.39-8,18.11-8.48,7-.47,13.5,2.89,19.76,6.13,4.79,2.48,9.74,5.05,13.08,4.59,3.79-.52,8-4.55,12.16-8.44,4.9-4.64,10-9.44,16.41-10.86,6.93-1.53,14.18.84,20.56,2.94,5.09,1.67,10.35,3.39,13.43,2.4,3.86-1.24,7.35-6.16,10.72-10.92,3.75-5.29,7.63-10.76,13.29-13.39,6.4-3,13.9-2.56,20.52-2.19,5.34.3,10.85.61,13.27-1.12,3.75-2.68,5.1-9.06,6.4-15.23,1.14-5.41,2.32-11,5.33-15.25s7.58-7.82,11.88-11.15c4.91-3.79,10-7.7,10-11.08a6,6,0,1,1,12,0c0,9.28-7.79,15.29-14.65,20.58-3.61,2.79-7.35,5.67-9.43,8.6-1.57,2.21-2.48,6.56-3.37,10.77-1.69,8-3.61,17.12-11.16,22.52-5.85,4.19-13.51,3.76-20.92,3.34-5.46-.31-11.11-.62-14.78,1.08-2.78,1.29-5.73,5.45-8.57,9.46-4.3,6.06-9.18,12.93-16.83,15.4-6.79,2.19-13.94-.15-20.85-2.42-5.17-1.69-10.51-3.45-14.24-2.62-3.19.7-7,4.34-10.75,7.85-5.23,4.95-11.16,10.56-18.76,11.61-7.12,1-13.79-2.48-20.25-5.83-4.79-2.49-9.76-5.06-13.43-4.81-3.36.22-7.75,3.32-12,6.31C302.5,418.29,295.91,422.93,288.39,422.93Z"/>
			<path class="acls-4" d="M288.39,376.93c-7.52,0-14.11-4.64-19.92-8.74-4.25-3-8.64-6.09-12-6.31-3.7-.24-8.65,2.32-13.44,4.81-6.45,3.35-13.13,6.81-20.25,5.83-7.6-1.05-13.53-6.66-18.76-11.61-3.72-3.52-7.56-7.15-10.74-7.85-3.73-.82-9.08.93-14.25,2.62-6.91,2.27-14.06,4.61-20.85,2.42-7.65-2.47-12.53-9.34-16.83-15.4-2.85-4-5.79-8.17-8.57-9.46-3.67-1.71-9.32-1.39-14.78-1.08-7.41.42-15.07.85-20.92-3.34-7.55-5.4-9.47-14.49-11.16-22.52-.89-4.21-1.8-8.57-3.37-10.77-2.08-2.93-5.82-5.81-9.43-8.6-6.87-5.3-14.65-11.3-14.65-20.58a6,6,0,0,1,12,0c0,3.38,5.07,7.29,10,11.08,4.31,3.32,8.77,6.76,11.88,11.15s4.19,9.84,5.33,15.25c1.3,6.17,2.64,12.55,6.4,15.23,2.42,1.73,7.93,1.42,13.27,1.12,6.62-.37,14.12-.79,20.52,2.19,5.66,2.64,9.54,8.11,13.29,13.39,3.38,4.76,6.87,9.68,10.72,10.92,3.09,1,8.35-.73,13.44-2.4,6.39-2.09,13.63-4.47,20.57-2.94,6.44,1.42,11.51,6.22,16.41,10.86,4.11,3.89,8.37,7.92,12.16,8.44,3.33.46,8.29-2.11,13.08-4.59,6.25-3.25,12.72-6.6,19.76-6.13,6.72.45,12.51,4.53,18.11,8.48,4.57,3.22,9.29,6.55,13,6.55s8.44-3.33,13-6.55c5.6-3.95,11.39-8,18.11-8.48,7-.47,13.5,2.89,19.76,6.13,4.79,2.48,9.74,5.05,13.08,4.59,3.79-.52,8-4.55,12.16-8.44,4.9-4.64,10-9.44,16.41-10.86,6.93-1.53,14.18.84,20.56,2.94,5.09,1.67,10.35,3.39,13.43,2.4,3.86-1.24,7.35-6.16,10.72-10.92,3.75-5.29,7.63-10.76,13.29-13.39,6.4-3,13.9-2.56,20.52-2.19,5.34.3,10.85.61,13.27-1.12,3.75-2.68,5.1-9.06,6.4-15.23,1.14-5.41,2.32-11,5.33-15.25s7.58-7.82,11.88-11.15c4.91-3.79,10-7.7,10-11.08a6,6,0,1,1,12,0c0,9.28-7.79,15.29-14.65,20.58-3.61,2.79-7.35,5.67-9.43,8.6-1.57,2.21-2.48,6.56-3.37,10.77-1.69,8-3.61,17.12-11.16,22.52-5.85,4.19-13.51,3.76-20.92,3.34-5.46-.31-11.11-.62-14.78,1.08-2.78,1.29-5.73,5.45-8.57,9.46-4.3,6.06-9.18,12.93-16.83,15.4-6.79,2.19-13.94-.15-20.85-2.42-5.17-1.69-10.51-3.45-14.24-2.62-3.19.7-7,4.34-10.75,7.85-5.23,4.95-11.16,10.56-18.76,11.61-7.12,1-13.79-2.48-20.25-5.83-4.79-2.49-9.76-5.06-13.43-4.81-3.36.22-7.75,3.32-12,6.31C302.5,372.29,295.91,376.93,288.39,376.93Z"/>
			<path class="acls-4" d="M288.39,328.93c-7.52,0-14.11-4.64-19.92-8.74-4.25-3-8.64-6.09-12-6.31-3.7-.24-8.65,2.33-13.44,4.81-6.45,3.35-13.13,6.81-20.25,5.83-7.6-1.05-13.53-6.66-18.76-11.61-3.72-3.52-7.56-7.15-10.74-7.85-3.73-.82-9.08.93-14.25,2.62-6.91,2.27-14.06,4.61-20.85,2.42-7.65-2.47-12.53-9.34-16.83-15.4-2.85-4-5.79-8.17-8.57-9.46-3.67-1.71-9.32-1.39-14.78-1.08-7.41.42-15.07.85-20.92-3.34-7.55-5.4-9.47-14.49-11.16-22.52-.89-4.21-1.8-8.57-3.37-10.77-2.08-2.93-5.82-5.81-9.43-8.6-6.87-5.3-14.65-11.3-14.65-20.58a6,6,0,0,1,12,0c0,3.38,5.07,7.29,10,11.08,4.31,3.32,8.77,6.76,11.88,11.15s4.19,9.84,5.33,15.25c1.3,6.17,2.64,12.55,6.4,15.23,2.42,1.73,7.93,1.42,13.27,1.12,6.62-.37,14.12-.79,20.52,2.19,5.66,2.64,9.54,8.11,13.29,13.39,3.38,4.76,6.87,9.68,10.72,10.92,3.09,1,8.35-.73,13.44-2.4,6.39-2.09,13.63-4.47,20.57-2.94,6.44,1.42,11.51,6.22,16.41,10.86,4.11,3.89,8.37,7.92,12.16,8.44,3.33.46,8.29-2.11,13.08-4.59,6.25-3.25,12.72-6.6,19.76-6.13,6.72.45,12.51,4.53,18.11,8.48,4.57,3.22,9.29,6.55,13,6.55s8.44-3.33,13-6.55c5.6-3.95,11.39-8,18.11-8.48,7-.47,13.5,2.89,19.76,6.13,4.79,2.48,9.74,5.05,13.08,4.59,3.79-.52,8-4.55,12.16-8.44,4.9-4.64,10-9.44,16.41-10.86,6.93-1.53,14.18.84,20.56,2.94,5.09,1.67,10.35,3.39,13.43,2.4,3.86-1.24,7.35-6.16,10.72-10.92,3.75-5.29,7.63-10.76,13.29-13.39,6.4-3,13.9-2.56,20.52-2.19,5.34.3,10.85.61,13.27-1.12,3.75-2.68,5.1-9.06,6.4-15.23,1.14-5.41,2.32-11,5.33-15.25s7.58-7.82,11.88-11.15c4.91-3.79,10-7.7,10-11.08a6,6,0,1,1,12,0c0,9.28-7.79,15.29-14.65,20.58-3.61,2.79-7.35,5.67-9.43,8.6-1.57,2.21-2.48,6.56-3.37,10.77-1.69,8-3.61,17.12-11.16,22.52-5.85,4.19-13.51,3.76-20.92,3.34-5.46-.31-11.11-.62-14.78,1.08-2.78,1.29-5.73,5.45-8.57,9.46-4.3,6.06-9.18,12.93-16.83,15.4-6.79,2.19-13.94-.15-20.85-2.42-5.17-1.69-10.51-3.45-14.24-2.62-3.19.7-7,4.34-10.75,7.85-5.23,4.95-11.16,10.56-18.76,11.61-7.12,1-13.79-2.48-20.25-5.83-4.79-2.49-9.76-5.06-13.43-4.81-3.36.22-7.75,3.32-12,6.31C302.5,324.29,295.91,328.93,288.39,328.93Z"/>
			<g class="acls-5">
				<ellipse class="acls-6" cx="296.36" cy="312.21" rx="149.97" ry="94.95"/>
				<g class="acls-7">
					<path class="acls-8" d="M341,343.55a25.4,25.4,0,0,1-9.67-2,32.26,32.26,0,0,1-9-5.92c-.58.53-1.19,1.06-1.84,1.57-6.29,5-13.11,7-20.29,6.08A19.35,19.35,0,0,1,287.49,336c-1.07-1.33-2.09-2.68-3.09-4-.71.88-1.43,1.75-2.16,2.62-3.82,4.54-8.28,7.33-13.27,8.28-7.9,1.51-15-1.14-20.43-7.66-.92-1.09-1.8-2.21-2.65-3.34l-.07.08-.73.86a47,47,0,0,1-4.16,4.52,20.29,20.29,0,0,1-29.69-1.51c-1.25-1.4-2.4-2.86-3.51-4.29l-.2.24-.79.94a40.28,40.28,0,0,1-5,5.27,20.47,20.47,0,0,1-28.13-1.89c-1.49-1.62-2.88-3.32-4.22-5l0,0c-1.12,1.37-2.27,2.79-3.58,4.16-8.35,8.75-20.86,9.27-29.74,1.25a49.64,49.64,0,0,1-5.8-6.58l-1-1.26a46.17,46.17,0,0,1-3-4.24l-2.61.81a12.87,12.87,0,0,1-14.86-5.71L107,316.59a11.75,11.75,0,0,1-.83-10.41,11.16,11.16,0,0,1,7.49-6.7c.71-.19,1.42-.37,2.14-.52a133.43,133.43,0,0,1,14-2.29c7.37-.78,13.74,2.15,18.47,8.47q1.12,1.5,2.23,3c.84-1,1.7-2.08,2.63-3.13a21.55,21.55,0,0,1,33.66.81c.68.83,1.34,1.68,2,2.53l.73-.93c4.79-6,11.5-9.37,18.44-9.37h.2c7,.07,13.43,3.44,18.1,9.49q.45.58.87,1.15l.6-.75c2.55-3.17,5.8-6.68,10.51-8.64,8.61-3.59,17.87-1.18,24.18,6.28,1,1.19,2,2.42,2.95,3.64,1.08-1.36,2.19-2.75,3.36-4.1a20.65,20.65,0,0,1,15.36-7.22,21,21,0,0,1,15.59,6.89c1.82,2,3.51,4.1,5.14,6.16,1.15-1.77,2.34-3.6,3.58-5.4a17.12,17.12,0,0,1,11.44-7.24,15.86,15.86,0,0,1,12.3,3.21,23.33,23.33,0,0,1,4.62,5.35l.08.11c.89,1.29,1.76,2.6,2.63,3.91l2.78-3.63a22.72,22.72,0,0,1,11.32-8.24,21.58,21.58,0,0,1,23,7.19c.82,1,1.63,2,2.44,3,1.15-1.49,2.34-3,3.66-4.47,5.86-6.49,13.58-8.55,22.33-6,4.12,1.21,6.9,3.94,9.29,6.7q1.43,1.66,2.85,3.34c.7-.95,1.43-1.9,2.24-2.84,4.77-5.52,10.83-8.56,17.08-8.58h0c6.23,0,12.28,3,17.05,8.48.71.82,1.4,1.66,2.06,2.5.91-1.17,1.84-2.34,2.8-3.49,7.15-8.54,18.34-10.42,27.23-4.57a33.87,33.87,0,0,1,6.16,5.57c.69.75,1.35,1.51,2,2.28l.6-.79.36-.47a49.77,49.77,0,0,1,4.25-5,18.84,18.84,0,0,1,12.85-5.33h.32c11.48,0,15.68,4.82,17.18,8.87,2.25,6.09-.86,13.08-4.94,16.56A8.55,8.55,0,0,1,518,324.3l-.7,1c-1.77,2.51-3.59,5.11-5.47,7.64a22.72,22.72,0,0,1-17.38,9.26,21.14,21.14,0,0,1-17-8c-.82-1-1.62-2-2.42-3a41.84,41.84,0,0,1-3.23,4c-4.66,4.95-10.53,7.6-16.61,7.47s-11.91-3.07-16.39-8.28c-.76-.88-1.49-1.78-2.2-2.69-.65.87-1.32,1.74-2,2.59a22.2,22.2,0,0,1-16.81,8.4h-.28a22.1,22.1,0,0,1-16.65-7.88c-.83-1-1.64-1.95-2.44-2.93l-.56.72a46.14,46.14,0,0,1-3.45,4.14c-8,8.32-20.45,8.81-28.84,1.15a56.22,56.22,0,0,1-5.48-6c-.51.71-1,1.42-1.55,2.11C353.75,340.32,347.71,343.55,341,343.55ZM326.57,324.9l.31.28c2.8,2.63,5.45,5.1,8.51,6.36,6,2.47,10.61,1.19,14.56-4,.71-.94,1.39-1.89,2.08-2.85l1.45-2c.48-.65,1-1.29,1.47-1.94l5-6.56,4.61,6.24.19.27c.88,1,1.76,2.09,2.63,3.17a56.4,56.4,0,0,0,5.43,6.08c4.13,3.76,9.83,3.49,13.86-.68a37.64,37.64,0,0,0,2.65-3.21l.82-1.06c.88-1.13,1.74-2.28,2.61-3.44l.83-1.11a5.89,5.89,0,0,1,4.64-2.37,6,6,0,0,1,4.72,2.21l1.88,2.36c1.43,1.8,2.78,3.51,4.18,5.13a11.2,11.2,0,0,0,8.64,4.15,11.34,11.34,0,0,0,8.62-4.45c1.08-1.32,2.1-2.7,3.18-4.17.65-.88,1.3-1.76,2-2.62.26-.34.53-.66.81-1l4.54-5.48,4.11,5.3c.7.91,1.38,1.81,2.06,2.7,1.38,1.83,2.68,3.55,4,5.14,2.5,2.91,5.44,4.48,8.48,4.55s6-1.35,8.54-4.09a42.51,42.51,0,0,0,3.3-4.2c.56-.77,1.11-1.54,1.69-2.29l1-1.3.22-.3a6,6,0,0,1,4.68-2.4h.09a6,6,0,0,1,4.66,2.26l1.69,2.17c1.52,2,3,3.79,4.44,5.58a10.37,10.37,0,0,0,8.42,4.11,11.88,11.88,0,0,0,9-4.92c1.8-2.42,3.59-5,5.31-7.42l1.44-2c2.18-3.09,4.71-4.29,8.06-3.79.8-1,1.65-2.94,1.31-4-.23-.76-2.3-1.89-7-1.9a8.18,8.18,0,0,0-5.65,2.17,41.34,41.34,0,0,0-3.32,4L503,314c-1,1.35-2,2.75-3.11,4.22l-1,1.38a5.92,5.92,0,0,1-9.37.3L488,318.1c-1.41-1.73-2.74-3.37-4.13-4.89a24.52,24.52,0,0,0-4.15-3.86c-4.3-2.83-9.43-1.85-13.06,2.49-1.56,1.86-3,3.8-4.6,5.85l-1.76,2.3a5.9,5.9,0,0,1-4.69,2.31h0a5.88,5.88,0,0,1-4.69-2.31l-1.56-2c-1.34-1.76-2.6-3.43-3.92-4.95-2.74-3.14-5.83-4.8-8.94-4.8h0c-3.13,0-6.23,1.68-9,4.85-1,1.1-1.85,2.36-2.8,3.7-.5.71-1,1.41-1.52,2.11-.33.44-.67.88-1,1.31l-.13.17a5.9,5.9,0,0,1-9.18.18l-1.79-2.13c-1.66-2-3.29-3.92-4.94-5.83s-2.81-3-4.19-3.42c-4.77-1.41-8.25-.52-11.3,2.86-1.32,1.46-2.55,3.07-3.85,4.78-.66.86-1.32,1.73-2,2.58-.39.5-.8,1-1.21,1.45A6,6,0,0,1,379,323a5.91,5.91,0,0,1-4.53-2.21l-1.84-2.31c-1.43-1.81-2.84-3.57-4.28-5.31a10.88,10.88,0,0,0-11.54-3.79,12,12,0,0,0-6,4.49c-1.66,2.19-3.34,4.36-5.08,6.62l-1.89,2.45a5.93,5.93,0,0,1-9.67-.37l-1.57-2.42c-1.57-2.42-3.06-4.71-4.61-7l-.07-.11a15.27,15.27,0,0,0-2.41-3,5.19,5.19,0,0,0-4-1,6.32,6.32,0,0,0-4.2,2.7c-1.16,1.69-2.32,3.46-3.43,5.18-.84,1.29-1.68,2.58-2.53,3.86a20,20,0,0,1-1.59,2l-.53.62-4.38,5.31-4.51-6.1c-.15-.2-.27-.37-.4-.53-.92-1.13-1.82-2.27-2.73-3.41-1.85-2.33-3.59-4.53-5.46-6.6a9.75,9.75,0,0,0-14.82.14c-1.26,1.46-2.45,3-3.72,4.58-.66.84-1.32,1.67-2,2.5L270,320.63l-.17.21A5.9,5.9,0,0,1,265.3,323h-.08a5.9,5.9,0,0,1-4.6-2.29l-1.8-2.33c-1.58-2-3.06-4-4.63-5.82-3.26-3.87-7.57-5.07-11.81-3.3-2.48,1-4.48,3.23-6.27,5.46-1.14,1.42-2.27,2.84-3.43,4.31l-1.09,1.38a5.89,5.89,0,0,1-4.64,2.25h0a5.88,5.88,0,0,1-4.64-2.27c-.31-.39-.59-.75-.85-1.12-.52-.71-1-1.42-1.53-2.14-.74-1-1.44-2-2.16-3-2.61-3.39-6.05-5.27-9.68-5.31H208c-3.71,0-7.28,1.9-10,5.35-.86,1.07-1.68,2.17-2.5,3.27-.58.78-1.17,1.56-1.76,2.32a12.26,12.26,0,0,1-.83.95l-.14.14-4.35,4.78-3.91-5.14c-.75-1-1.48-2-2.21-3-1.28-1.73-2.49-3.36-3.75-4.92a11.46,11.46,0,0,0-8.61-4.53,11.3,11.3,0,0,0-8.66,4.08c-.79.89-1.56,1.84-2.38,2.84l-1.33,1.62c-.69.82-1.36,1.65-2,2.5l-.56.69a5.93,5.93,0,0,1-9.41-.27l-1.57-2.19c-1.41-2-2.79-3.9-4.21-5.79-2.43-3.25-5.21-4.59-8.73-4.22a122.59,122.59,0,0,0-12.9,2.1c-.54.12-1.08.25-1.61.39a.52.52,0,0,0-.3.33.94.94,0,0,0,.06.83L118,314a2.1,2.1,0,0,0,2.44,1l4.3-1.34c6.46-2,9.09,2.46,10.21,4.37a35,35,0,0,0,2.74,4l1,1.32a41.06,41.06,0,0,0,4.52,5.21c4.59,4.15,10.38,3.87,14.74-.7,1-1.06,2-2.26,3-3.52l.73-.9c.81-1,1.6-2,2.38-3l.65-.83a5.86,5.86,0,0,1,4.61-2.26h0a5.88,5.88,0,0,1,4.62,2.23c.72.91,1.44,1.82,2.14,2.73,1.8,2.31,3.5,4.5,5.34,6.49a9.71,9.71,0,0,0,13.35.9,31.17,31.17,0,0,0,3.65-3.91l.84-1c.92-1.09,1.82-2.27,2.77-3.52l1.38-1.81,4.15-5.36,4.63,5.69.66.82c.71.9,1.4,1.81,2.09,2.72,1.44,1.9,2.81,3.7,4.27,5.34a9.56,9.56,0,0,0,14.35.74,38.44,38.44,0,0,0,3.21-3.53l.77-.91c1-1.18,2-2.38,2.93-3.6l.87-1.09a5.88,5.88,0,0,1,4.62-2.22h.09a5.88,5.88,0,0,1,4.64,2.35l1.67,2.24c1.48,2,2.87,3.87,4.35,5.63,2.93,3.5,6.16,4.77,10.16,4,2.56-.49,4.81-2,7.05-4.64,1.46-1.73,2.86-3.49,4.35-5.35l2-2.49,4.23-5.24,4.53,5.74c.28.36.55.69.81,1l1.94,2.61c1.36,1.84,2.64,3.57,4,5.26a8.56,8.56,0,0,0,5.71,3.35c4.23.56,8.21-.69,12.18-3.84,1-.82,2.06-1.82,3.14-2.87.56-.54,1.12-1.09,1.7-1.62l4-3.7Zm12.81-32.12a30.44,30.44,0,0,1-16.09-4.91,50.09,50.09,0,0,1-4.52-3.31,39.7,39.7,0,0,1-3.15,2.42c-7.37,5-15.12,6.79-23,5.21a21.6,21.6,0,0,1-12.32-7.44c-1.14-1.33-2.26-2.69-3.36-4-.83.94-1.67,1.87-2.51,2.8-4.48,4.91-9.39,7.74-15,8.67-8.37,1.38-15.92-1.32-21.83-7.8-1.13-1.24-2.21-2.51-3.27-3.78l-1,1.06c-1.29,1.41-2.62,2.88-4.14,4.26-9.8,8.94-23.61,8.56-32.85-.9-1.52-1.55-2.92-3.18-4.26-4.77L188.73,284a24,24,0,0,1-36.15-.79c-.95-1.16-1.93-2.32-2.91-3.48-.81.91-1.6,1.81-2.38,2.72a24.53,24.53,0,0,1-18,9,25.14,25.14,0,0,1-18.76-7.95c-1-1.05-2.89-2.77-4.87-4.58-3.81-3.49-7.74-7.1-9.69-9.63l-.06-.08c-4.32-5.84-5.06-12.85-1.87-17.85,3-4.7,8.71-6.7,15.32-5.37l.14,0c1.92.44,11.7,2.89,15.87,7.82,1.14,1.35,2.27,2.73,3.36,4.11l.44-.49a52.22,52.22,0,0,1,5.72-5.76,23.74,23.74,0,0,1,33,2.77c1.08,1.22,2.13,2.47,3.16,3.71,1.21-1.4,2.46-2.84,3.88-4.23a24.67,24.67,0,0,1,18.18-7.23,25.32,25.32,0,0,1,18,9c.82.93,1.59,1.88,2.33,2.81l.09-.11L214,258c1.21-1.34,2.46-2.72,3.85-4.05A23.52,23.52,0,0,1,252.27,255c1.22,1.32,2.4,2.69,3.56,4,1.1-1.26,2.23-2.55,3.42-3.82a23.89,23.89,0,0,1,17.54-7.63h.07a24.32,24.32,0,0,1,17.87,7.9c1.64,1.77,3.24,3.58,4.79,5.36l.4-.55c1.44-2,2.92-4.09,4.52-6.11a18.13,18.13,0,0,1,13.14-6.7,17.88,17.88,0,0,1,13.71,4.91,27.46,27.46,0,0,1,3.25,4.06c.31.44.61.88.93,1.31l2.23,3c.51-.59,1-1.18,1.57-1.76s.89-1,1.34-1.47a36.32,36.32,0,0,1,6.59-6.17c10.34-7,22.75-5.19,31.63,4.51.94,1,1.87,2.09,2.79,3.14l.07-.08c.89-1,1.78-2,2.68-3l1.63-1.81c3.89-4.37,10.18-7,16.83-7.09a21.31,21.31,0,0,1,16,6.41c1.63,1.77,3.29,3.49,5,5.28a45.57,45.57,0,0,1,4.63-5.13c10.32-9.43,24.46-9.08,34.39.85,1.25,1.25,2.38,2.54,3.46,3.83l1.84-2.19c2.76-3.27,6.68-7.22,12.61-8.82,9-2.44,17.4-.07,24.14,6.86,1.26,1.29,2.5,2.62,3.73,3.94.55-.69,1.09-1.37,1.62-2.07,4.9-6.37,10.37-9.62,16.72-9.93a13.38,13.38,0,0,1,13.19,8.38c2.12,5.06,1.83,12.66-5.18,19-2.1,2.71-4.56,5.85-7.12,9a25.13,25.13,0,0,1-18.43,9,23.42,23.42,0,0,1-18.13-7.61c-1.19-1.27-2.32-2.54-3.45-3.84l-.38.48a31.24,31.24,0,0,1-9.72,8.53c-9.64,5.17-21,3.32-28.89-4.72-1.25-1.27-2.44-2.6-3.59-3.92l-.21.25a54.87,54.87,0,0,1-5,5.51,23.77,23.77,0,0,1-32.66-.81c-1.52-1.53-3-3.13-4.37-4.72-.76.92-1.52,1.83-2.31,2.71a24.86,24.86,0,0,1-18.12,8.49,25.23,25.23,0,0,1-18.79-7.69c-1.12-1.14-2.19-2.31-3.22-3.47-.43.55-.85,1.09-1.25,1.63C353.78,289.77,346.56,292.78,339.38,292.78ZM318.7,272.71a7.12,7.12,0,0,1,4.46,1.57l1.19,1a51,51,0,0,0,4.69,3.54c3.11,2,13.85,7.61,21.57-2.88,1.22-1.65,2.52-3.23,3.77-4.76.58-.7,1.16-1.42,1.75-2.15l4.08-5.08,4.62,5.46c.1.13.18.23.27.32,1,1,1.92,2.09,2.87,3.14,1.18,1.31,2.29,2.56,3.44,3.73a14.53,14.53,0,0,0,10.85,4.47,14.21,14.21,0,0,0,10.34-4.87c.82-.93,1.62-1.89,2.41-2.85s1.43-1.73,2.17-2.57l.33-.38a7.15,7.15,0,0,1,5.37-2.45h0a7.15,7.15,0,0,1,5.36,2.42l1.29,1.47c1.85,2.1,3.59,4.09,5.42,5.94a12.91,12.91,0,0,0,17.74.46,45.79,45.79,0,0,0,4-4.46c.63-.75,1.25-1.5,1.89-2.24.35-.4.69-.81,1-1.23a7.15,7.15,0,0,1,5.47-2.63h.08a7.13,7.13,0,0,1,5.44,2.51l1,1.17c1.65,1.94,3.2,3.77,4.84,5.43,4.54,4.62,10.73,5.68,16.14,2.78a21,21,0,0,0,6.38-5.74l2.75-3.5L482,270a7.17,7.17,0,0,1,11.06-.29l1.06,1.22c1.7,2,3.32,3.82,5,5.61a12.63,12.63,0,0,0,9.9,4.2,14.42,14.42,0,0,0,10.45-5.07c2.61-3.21,5.14-6.45,7.27-9.19l.33-.42.4-.35c2.61-2.26,3.63-4.92,2.72-7.1a2.64,2.64,0,0,0-2.52-1.8h-.18c-3.15.14-5.77,1.86-8.76,5.75-1.29,1.67-2.62,3.32-3.91,4.9l-.49.61a7.17,7.17,0,0,1-10.83.35l-1.12-1.21c-1.79-1.94-3.48-3.78-5.23-5.57-4-4.14-8.36-5.4-13.63-4-2.41.65-4.56,2.26-7.19,5.37-1.34,1.59-2.67,3.19-4,4.81l-5.88,7-4.51-5.09-.71-.81c-.68-.79-1.35-1.59-2-2.4-1.35-1.62-2.63-3.16-4-4.52-5.92-5.92-13.4-6.11-19.53-.52a37.94,37.94,0,0,0-3.64,4.1c-.59.73-1.19,1.47-1.8,2.18l-.67.81a7.15,7.15,0,0,1-10.73.46l-1.58-1.64c-2.2-2.28-4.28-4.44-6.37-6.7a10.6,10.6,0,0,0-7.84-3h-.14c-3.61,0-7,1.37-8.9,3.48l-1.66,1.85c-.87,1-1.73,1.93-2.59,2.91s-1.81,2.09-2.72,3.15a7.15,7.15,0,0,1-5.43,2.51h0a7.15,7.15,0,0,1-5.43-2.49l-.8-.93c-1.54-1.79-3-3.49-4.5-5.13-5.23-5.72-11.84-6.78-17.69-2.85a27.53,27.53,0,0,0-4.59,4.43c-.49.54-1,1.08-1.46,1.61-1.24,1.34-2.45,2.81-3.72,4.38l-.35.43a7.17,7.17,0,0,1-11.31-.27l-.41-.55-4.52-6.09c-.39-.52-.76-1.05-1.13-1.59a18.88,18.88,0,0,0-2-2.53,7.17,7.17,0,0,0-5.49-1.85,7.37,7.37,0,0,0-5.37,2.63c-1.44,1.82-2.78,3.7-4.21,5.7-.87,1.21-1.73,2.42-2.61,3.61a22.28,22.28,0,0,1-1.72,2l-.6.65-4.07,4.56L295,272.07c-1-1.16-2.06-2.33-3.08-3.5-1.67-1.91-3.39-3.88-5.11-5.73a13.66,13.66,0,0,0-10-4.47h0a13.23,13.23,0,0,0-9.71,4.25c-1.12,1.19-2.2,2.44-3.35,3.75-.84,1-1.68,1.92-2.53,2.87l-.15.17a7.17,7.17,0,0,1-10.74-.22l-1.07-1.26c-1.67-2-3.25-3.84-4.9-5.63a12.78,12.78,0,0,0-19-.61c-1.11,1.06-2.18,2.25-3.31,3.5l-.43.48c-.95,1-1.88,2.12-2.83,3.21a7.13,7.13,0,0,1-5.39,2.46h-.14a7.13,7.13,0,0,1-5.43-2.67l-.08-.11c-.47-.59-1-1.27-1.55-2-1-1.34-2-2.6-3.07-3.78a14.68,14.68,0,0,0-10.37-5.31,14,14,0,0,0-10.25,4.19c-1.14,1.1-2.22,2.36-3.37,3.7l-1.2,1.39c-.44.51-.87,1-1.31,1.55a7.15,7.15,0,0,1-5.53,2.63h0a7.14,7.14,0,0,1-5.53-2.6l-.93-1.13c-1.62-2-3.14-3.81-4.73-5.61a12.87,12.87,0,0,0-18.09-1.58,43.61,43.61,0,0,0-4.54,4.62c-.76.85-1.51,1.69-2.29,2.51l-1.11,1.2A7.15,7.15,0,0,1,123,268l-1-1.2c-1.64-2.08-3.2-4-4.81-5.94-1.18-1.39-6.23-3.4-10-4.28-2-.39-3.55-.16-4,.61s-.55,3,1.41,5.63A104.38,104.38,0,0,0,113,271c2.2,2,4.1,3.76,5.35,5.05A14.5,14.5,0,0,0,129,280.75a13.74,13.74,0,0,0,10.09-5.23c1.5-1.76,3.06-3.5,4.57-5.17l.72-.8a7.18,7.18,0,0,1,5.34-2.38h.07a7.17,7.17,0,0,1,5.36,2.5l.88,1c1.61,1.87,3.28,3.81,4.88,5.78a12.68,12.68,0,0,0,9.75,4.66,12.92,12.92,0,0,0,10-4.21l4.79-5.43,2.9-3.29,7.63.06,1.59,1.86,1.81,2.15c1.57,1.87,3,3.64,4.62,5.25,5.11,5.23,12.47,5.42,17.91.47,1.16-1.05,2.27-2.27,3.44-3.56l1.27-1.38c.83-.89,1.63-1.79,2.44-2.7a7.16,7.16,0,0,1,10.88.22l.91,1.11c1.58,1.93,3.07,3.75,4.64,5.47,3.47,3.81,7.33,5.22,12.13,4.43,3.18-.52,6-2.21,8.81-5.31,1.5-1.64,3-3.31,4.45-5l2.07-2.36,4-4.5,4.34,4.78c.3.32.58.62.84.94l2.13,2.6c1.38,1.69,2.76,3.37,4.17,5a11,11,0,0,0,6.27,3.89c5,1,9.88-.15,14.84-3.54a43.33,43.33,0,0,0,3.75-3l.74-.64A7.14,7.14,0,0,1,318.7,272.71ZM253.23,262l-.1.11,4.09,3.5Zm91.86-16.72a37.87,37.87,0,0,1-21-6.39c-1-.67-2-1.38-3-2.1-2.46,1.43-5,2.88-7.58,4.22a35.17,35.17,0,0,1-25.48,3.11c-6.14-1.54-10.5-5.34-14.44-9.1L272,233.42c-1.79,1.43-3.57,2.84-5.36,4.22-7.57,5.84-15.37,8-23.87,6.75a30.21,30.21,0,0,1-14.82-6.85c-1.84-1.54-3.67-3.15-5.45-4.72l-2.66,2.25c-5.79,5-11.32,7.69-17.39,8.6-9.14,1.37-17.45-1.13-24.71-7.43-1.59-1.38-3.14-2.82-4.65-4.24l-.14.1c-.87.65-1.72,1.32-2.58,2a46.89,46.89,0,0,1-8.09,5.51c-11.45,5.72-22.71,4.52-32.57-3.48-3.51-2.85-6.77-6-10.09-9.19l0,0-1.63.35a10.26,10.26,0,0,1-9.82-3.28,10.81,10.81,0,0,1-2.17-10.55h0L107,210a14.55,14.55,0,0,1,12.57-10.08,36.9,36.9,0,0,1,13.08.89,27.53,27.53,0,0,1,11.51,6.72l4.32,4.15.46.44c1.91-1.5,3.79-3,5.69-4.41,9.15-7,19.06-8.58,29.45-4.81a32.94,32.94,0,0,1,10.67,6.95l3.52,3.2,2.56-2.08c4-3.25,8.68-6.83,14.77-8.25,9.51-2.22,18.07-.36,25.44,5.52,2.2,1.76,4.29,3.62,6.31,5.43l.14.12,3.86-3.26c6.84-5.78,14.5-8.47,22.76-8,6.81.41,13,3.15,19,8.39l5,4.36c1.85-1.71,3.74-3.45,5.56-5.2A24,24,0,0,1,319.34,203a22.27,22.27,0,0,1,16,5.09c2.1,1.77,4.1,3.62,6,5.42l2,1.84,1.78-1.56L346,213c3.27-2.9,6.65-5.9,11.12-7.85,10.14-4.43,20.24-3.52,29.23,2.63a81.62,81.62,0,0,1,6.86,5.44l.65.56,3.22-3c7.28-6.79,15.72-9.72,25.09-8.73a30.93,30.93,0,0,1,15.9,6.73c1.74,1.39,3.47,2.82,5.09,4.19l.66-.61c1-.92,2-1.83,2.94-2.77,12.25-12,29.34-10.2,39.89-2.25,2,1.5,4,3.1,5.85,4.66l1.88-1.86c2.73-2.7,5.83-5.75,10-7.65a34.17,34.17,0,0,1,15.52-2.75c3.92,0,7.39,2.39,9.53,6.51,2.44,4.66,3.26,12.13,0,16.8a8.78,8.78,0,0,1-7.51,3.82l-2,1.94a102.14,102.14,0,0,1-8.3,7.55,30.82,30.82,0,0,1-38-.27c-1.75-1.36-3.49-2.78-5.17-4.17-1.56,1.44-3.16,2.91-4.81,4.33a30.78,30.78,0,0,1-39.21,1c-1.85-1.43-3.65-2.95-5.41-4.43l-.47.44-1,1c-2.73,2.59-5.82,5.52-9.89,7.37-10.8,4.9-21.43,4-30.73-2.46-2.43-1.7-4.67-3.56-6.85-5.36l-.57-.47c-1.19,1.1-2.37,2.19-3.54,3.31a30.14,30.14,0,0,1-20.12,8.66Zm-23.56-20.11a6.67,6.67,0,0,1,4.14,1.5l.17.13c1.43,1.12,2.79,2.18,4.16,3.08a26.87,26.87,0,0,0,15.63,4.63,19.44,19.44,0,0,0,12.9-5.69c1.6-1.52,3.22-3,4.85-4.52l2.23-2.06,3.39-3.14,4.93,3.93c1,.8,2,1.63,3,2.44,2.1,1.74,4.09,3.38,6.16,4.83,6.18,4.33,12.76,4.81,20.11,1.48,2.42-1.1,4.61-3.18,6.93-5.38l1.06-1,2.78-2.58,4.7-4.35,3.63,3c1,.81,1.93,1.62,2.87,2.42,2,1.7,3.89,3.31,5.84,4.81a20.11,20.11,0,0,0,25.62-.67c1.81-1.55,3.55-3.17,5.39-4.88l2.59-2.39,3.42-3.13,3.6,2.93,2.79,2.29c2,1.64,3.87,3.19,5.81,4.69a20.08,20.08,0,0,0,24.77.31,92.86,92.86,0,0,0,7.42-6.77l2.43-2.36a8.84,8.84,0,0,1,6-2.74c.19-1.71-.49-4.62-1.39-5.52a23.19,23.19,0,0,0-10.62,1.8c-2.45,1.11-4.62,3.25-6.91,5.51l-8.75,8.63-3.74-3-3.06-2.5c-2.14-1.76-4.15-3.42-6.22-5-6.88-5.19-18-6.39-25.89,1.35-1,1-2.1,2-3.16,3S449,222.2,448,223.18a6.48,6.48,0,0,1-9.23.28c-2.24-1.93-4.85-4.15-7.46-6.22A20.2,20.2,0,0,0,421,212.79c-6.22-.66-11.66,1.27-16.62,5.9-1.5,1.4-3,2.8-4.55,4.2l-5.66,5.21-4.09-3.4-1-.81c-1-.81-2-1.63-2.93-2.46a72.36,72.36,0,0,0-6-4.74c-5.93-4.06-12.1-4.6-18.85-1.65-2.91,1.27-5.52,3.59-8.28,6l-.87.77c-1.2,1.06-2.4,2.1-3.61,3.15l-5.12,4.46L340,226.58l-.84-.68c-.69-.55-1.34-1.07-2-1.63-1.05-1-2.1-1.92-3.14-2.89-1.93-1.79-3.75-3.48-5.65-5.08a11.72,11.72,0,0,0-8.51-2.58,13.16,13.16,0,0,0-8.74,4.13c-2.15,2.07-4.35,4.09-6.49,6.06l-2.8,2.58-3.57,3.31-6.46-5.7c-1.95-1.72-3.84-3.4-5.75-5.06-4.17-3.65-8.16-5.48-12.55-5.74-5.48-.32-10.45,1.45-15.17,5.44l-5.15,4.34L247.37,228,243,224.12c-.92-.81-1.84-1.62-2.75-2.44-2-1.78-3.88-3.47-5.84-5-4.73-3.77-10.05-4.9-16.28-3.45-3.84.89-7.23,3.49-10.39,6.08-1.41,1.16-2.83,2.3-4.25,3.46l-5.54,4.49-5.59-5.09c-1.59-1.45-3.16-2.88-4.73-4.3a22.91,22.91,0,0,0-7.13-4.82c-6.92-2.51-13-1.47-19.27,3.26-2.09,1.59-4.15,3.2-6.25,4.85l-6.56,5.13-3.74-3.42c-.3-.27-.56-.51-.82-.75l-2.76-2.65-4.29-4.12a16.76,16.76,0,0,0-7-4.13,27,27,0,0,0-9.34-.53,3.82,3.82,0,0,0-3.22,2.73l-1.07,3.23,1.39-.3a9.94,9.94,0,0,1,9.48,2.9c3.25,3.16,6.2,6,9.37,8.55,6.52,5.29,13.38,6,21,2.21a38.47,38.47,0,0,0,6.23-4.33c.94-.74,1.88-1.49,2.84-2.2.63-.46,1.29-1.07,2-1.71l1.19-1.06,3.65-3.16,3.54,3.29,2.58,2.42c1.82,1.72,3.53,3.34,5.3,4.88,4.84,4.2,10.09,5.81,16.06,4.92,4-.6,7.81-2.55,12-6.14,1.44-1.23,2.9-2.45,4.33-3.65l5.47-4.59,3.47,3,3,2.63c2,1.74,3.85,3.39,5.76,5a19.48,19.48,0,0,0,9.53,4.45c5.58.86,10.42-.57,15.67-4.63,2-1.56,4-3.16,6.07-4.79l6.52-5.17,8.49,8.11c3,2.88,6,5.55,9.63,6.45a24.41,24.41,0,0,0,17.9-2.22c2.9-1.51,5.83-3.22,8.67-4.87l.8-.46A6.81,6.81,0,0,1,321.53,225.18Zm-9.13-24-1.07,0c-6.1-.22-11.83-2.91-17.51-8.23-1.38-1.29-2.77-2.57-4.17-3.84l-1.29,1.06a55.69,55.69,0,0,1-8.72,6.32c-12,6.56-23.78,5.15-34-4.07l-2.27-2-2.09-1.87a63.89,63.89,0,0,1-7.12,5.42c-12.42,7.81-24.82,6.93-35.87-2.56-1.65-1.42-3.24-2.92-4.78-4.43-1.75,1.45-3.56,2.89-5.48,4.21-12.73,8.74-25.61,8.13-37.22-1.76a83.92,83.92,0,0,1-6.87-6.83l-1.58-1.69a1.91,1.91,0,0,0-.52-.43l-.58.09a10,10,0,0,1-9.52-4.7c-3.12-5.2-1.12-12.23,1.55-16.67,3.48-5.8,8.87-9.09,14.33-8.84s11.53,1,16.95,6.25l1.8,1.73c1.57,1.51,3.17,3,4.78,4.61a79.29,79.29,0,0,1,6.57-4.79c13.07-8.31,26-7.11,37.51,3.48,1.1,1,2.18,2,3.27,3.09,1.93-1.58,3.92-3.17,6-4.62,12.76-8.66,25.92-7.67,38,2.84,1.2,1,2.35,2.13,3.47,3.22l.58-.49a62.65,62.65,0,0,1,8.16-6.19c9.29-5.58,19.8-5.41,30.4.49a48.75,48.75,0,0,1,6.58,4.65l.69.55.74-.55c1.63-1.23,3.32-2.49,5.12-3.65,11.53-7.4,23.25-7.42,33.89,0,2.33,1.61,4.52,3.42,6.64,5.19a57.9,57.9,0,0,1,6.16-5.49c11.42-8.4,23.88-8.4,36,0,1.84,1.28,3.58,2.68,5.25,4.08l2.86-2.77c10.6-10.26,22.95-12,35.7-5.06a63.22,63.22,0,0,1,8.57,6c1.22-1.31,2.4-2.54,3.45-3.64,5.31-5.52,11.29-8.43,17.78-8.65,11.2-1.52,20.92,3.7,27.43,14.72h0a12.23,12.23,0,0,1-.45,13,9,9,0,0,1-9.15,4l-9.21-1.69c-.38-.07-.47-.09-1,.47-2,2.26-4,4.32-5.67,6-10.69,10.78-22.94,13.11-35.39,6.76a58.18,58.18,0,0,1-9.52-6.56l-.45-.36-1.85,1.75-1.38,1.3c-11.74,11.16-25.2,12.24-38.93,3.14a57.18,57.18,0,0,1-5.65-4.41c-.81.73-1.67,1.47-2.59,2.23l-1.6,1.34a38.35,38.35,0,0,1-7,5.08c-9.72,5.07-20.06,4.16-29.91-2.64-2.53-1.75-5-3.65-7.41-5.48l-1,.91c-2.18,2-4.44,4.09-6.79,6A22.71,22.71,0,0,1,312.4,201.21ZM289.9,174.74l6,5.48c1.78,1.62,3.55,3.24,5.3,4.88,3.75,3.52,7.1,5.21,10.54,5.34a12.16,12.16,0,0,0,8.67-2.64c2.12-1.74,4.17-3.62,6.33-5.62,1-.9,2-1.81,3-2.7l1.15-1,3.61-3.2,3.51,2.63c1.17.88,2.32,1.76,3.46,2.63,2.45,1.88,4.76,3.65,7.13,5.28,6.63,4.58,12.61,5.2,18.81,2a30.19,30.19,0,0,0,5-3.74c.58-.49,1.16-1,1.74-1.46a48.84,48.84,0,0,0,4.37-4,6.42,6.42,0,0,1,9.17-.55c.67.56,1.34,1.14,2,1.72a56.46,56.46,0,0,0,5.46,4.36c9.57,6.35,17.46,5.74,25.57-2l1.43-1.35c1.37-1.29,2.67-2.5,3.9-3.79a6.62,6.62,0,0,1,9.3-.64c1.06.8,2.1,1.63,3.15,2.46a49.52,49.52,0,0,0,7.72,5.41c8.22,4.2,15.49,2.69,22.86-4.75,1.58-1.59,3.43-3.49,5.17-5.5a11.28,11.28,0,0,1,11-4l7.75,1.42a1.28,1.28,0,0,0-.16-.66h0c-6.52-11-14.36-9.88-16.93-9.5l-.68.06c-3.66.07-7.22,1.87-10.57,5.36-1.7,1.77-3.71,3.89-5.71,6.12a6.67,6.67,0,0,1-9,.95c-1-.73-2-1.5-2.93-2.26a55.85,55.85,0,0,0-7.28-5.12c-8.56-4.66-15.89-3.6-23.07,3.35l-9.75,9.43-3.7-3c-.94-.76-1.86-1.53-2.78-2.3-1.89-1.59-3.67-3.08-5.48-4.33-8.36-5.78-15.84-5.84-23.53-.18a49.43,49.43,0,0,0-5,4.52c-.87.85-1.73,1.7-2.62,2.52l-4.36,4.12-3.66-3c-1.08-.87-2.15-1.77-3.21-2.66-2.21-1.85-4.3-3.6-6.43-5.08-7.08-4.9-14.05-4.82-22,.25-1.47.94-2.93,2-4.48,3.2-1.15.86-2.33,1.75-3.56,2.61a6.77,6.77,0,0,1-7.7-.22c-1.16-.83-2.26-1.71-3.32-2.56a40.24,40.24,0,0,0-5.11-3.67c-7.34-4.08-13.58-4.3-19.63-.66a54.09,54.09,0,0,0-6.74,5.17c-1.14,1-2.27,1.93-3.43,2.85l-.55.46-4.08,3.44-3.49-3.34c-.71-.68-1.42-1.38-2.13-2.08-1.5-1.47-2.92-2.87-4.38-4.13-8.39-7.28-16.32-7.93-25-2.07-2,1.37-4,3-6.08,4.69-1,.81-2,1.63-3,2.42L217.9,179l-3.38-3.23-2.11-2c-1.48-1.42-2.95-2.84-4.44-4.22-7.8-7.21-15.57-7.94-24.44-2.31a81,81,0,0,0-6.68,4.95L175,173.58a6.39,6.39,0,0,1-8.82-.48c-2.39-2.37-4.86-4.74-7.25-7l-1.81-1.74c-2.65-2.54-5.73-3.13-9.85-3.25h-.13c-1.26-.07-2.8,1-4.1,2.84a11,11,0,0,0-2.13,5.84,11,11,0,0,1,9.27,3.74l1.64,1.75a74.75,74.75,0,0,0,6,6c7.83,6.67,15.51,7,24.16,1.08,2-1.39,4-3,6.08-4.77l1.32-1.1a6.52,6.52,0,0,1,9.19.37l.33.33c2.19,2.18,4.26,4.25,6.42,6.1,7.42,6.37,14.77,6.88,23.13,1.62a60.8,60.8,0,0,0,6.56-5.08l2-1.71a6.56,6.56,0,0,1,9.08.29c1.44,1.36,2.89,2.65,4.43,4l2.33,2.09c6.77,6.12,13.64,6.95,21.61,2.6a47.19,47.19,0,0,0,7-5.15c1.15-1,2.35-1.95,3.58-2.89.21-.16.42-.36.63-.55l.56-.5Zm32.78-19.15a31.06,31.06,0,0,1-15.3-4.21c-2.49-1.4-4.86-2.9-7.57-4.68-4.43,2.57-9,5.22-14.31,6.64a32.16,32.16,0,0,1-26.25-3.87c-2.38-1.48-4.51-2.93-6.48-4.4a54.15,54.15,0,0,1-14.18,6.07,33,33,0,0,1-27.87-5.49c-2.46-1.75-4.81-3.69-6.89-5.39-.17-.14-.19-.16-.5-.14-6.52.38-14.11.83-21.62,1.21l-.66,0-.65-.13a7.94,7.94,0,0,1-6.78-8.44c.53-8.27,12.85-18.47,23.13-19.15,3.71-.24,7.71-.3,12.24-.18a30,30,0,0,1,18,6.48l.63.49c1.32,1,2.67,2.07,4,3.2l.4-.2a89,89,0,0,1,10.49-4.78c10.48-3.74,20.75-2.33,30.51,4.17,1.39.92,3,2,4.51,3.15l1.08-.59a75.09,75.09,0,0,1,10.07-4.91c10.27-3.82,20.8-2.44,31.32,4.09l1.24.76,1.54.95.84-.51a65.81,65.81,0,0,1,8.67-4.65c10.37-4.32,20.76-3.6,30.87,2.13l1.71,1c1,.57,2.07,1.16,3.13,1.77,2.37-1.68,4.42-3.05,6.4-4.27,10-6.19,20.84-6.74,32.27-1.63,2.52,1.13,4.93,2.36,7.19,3.56.65-.52,1.3-1,1.93-1.5s1.5-1.14,2.23-1.75a31,31,0,0,1,20.25-7c8.46-1.23,15.52,3.59,19,8.17,3.35,4.36,4.29,9.25,2.53,13.08-.94,2-3.46,5.5-9.86,5.84h-.26l-1.6-.08c-2.18-.11-4.24-.21-6.24-.14a2,2,0,0,0-.5.26c-1.21.83-2.4,1.74-3.66,2.7s-2.61,2-4,3c-9.82,6.77-20.79,7.93-31.73,3.37-3.15-1.32-6.13-2.83-9.36-4.52l-.89.61a74.53,74.53,0,0,1-9.31,5.76c-9.5,4.67-19.59,4.34-30-1l-.45-.23c-2.1-1.07-4.26-2.18-6.4-3.5l-.89.58a69,69,0,0,1-10.35,5.91A29.39,29.39,0,0,1,322.69,155.59Zm-22.81-19.92a9.26,9.26,0,0,1,5.12,1.55c2.84,1.88,5.23,3.41,7.67,4.78,5.92,3.33,11.62,3.74,17.42,1.26a60,60,0,0,0,8.72-5l1-.67c4.68-3,8.59-1.81,11-.26,1.86,1.18,3.87,2.2,6,3.29l.45.23c7.32,3.75,14,4,20.35.91a65.64,65.64,0,0,0,8-5l1.54-1.06a9,9,0,0,1,9.74-.6c3.28,1.72,6.23,3.25,9.21,4.49,7.61,3.17,14.64,2.42,21.49-2.3,1.18-.81,2.34-1.7,3.57-2.64s2.67-2,4.11-3a11.78,11.78,0,0,1,6.1-2.13c2.5-.09,4.91,0,7.26.14l1,0h.09a9.07,9.07,0,0,0-2.5-3.21,9.68,9.68,0,0,0-7.63-2.42l-.48.08h-.48c-5.58-.06-10,1.4-13.76,4.54-.84.7-1.7,1.36-2.57,2s-1.68,1.28-2.45,1.93a8.85,8.85,0,0,1-9.94,1.11c-2.41-1.29-5-2.65-7.65-3.84-8.2-3.67-15.26-3.37-22.21.95-2.09,1.3-4.32,2.8-7,4.74a8.12,8.12,0,0,1-9.32.38c-1.33-.81-2.68-1.57-4.12-2.37l-1.77-1c-7.17-4.06-14.19-4.57-21.43-1.56a57,57,0,0,0-7.24,3.93c-.93.56-1.85,1.12-2.79,1.66a7,7,0,0,1-7.76-.23c-1-.65-2-1.26-3-1.9l-1.3-.8c-7.65-4.75-14.81-5.78-21.89-3.14a66.06,66.06,0,0,0-8.62,4.25L281.57,136a8.31,8.31,0,0,1-9.6-.73c-1.61-1.28-3.39-2.48-4.94-3.51-6.88-4.58-13.73-5.56-20.93-3a79.89,79.89,0,0,0-9.21,4.23l-1.48.75a9,9,0,0,1-10-1.28c-1.4-1.21-2.87-2.36-4.42-3.56l-.64-.5a19.19,19.19,0,0,0-11.64-4.21c-4.19-.11-7.86-.06-11.24.16-3.83.25-8.16,3.26-10.77,5.91,5.61-.3,11.11-.62,16-.91a11.11,11.11,0,0,1,8,2.57c2,1.68,4.15,3.41,6.31,4.95a22.4,22.4,0,0,0,19.13,3.78c3.86-.91,7.6-2.8,12-5.35a9,9,0,0,1,10.49.69c1.88,1.44,3.95,2.86,6.31,4.33a21.5,21.5,0,0,0,17.78,2.61c4-1.07,7.8-3.29,11.85-5.64l.64-.37A9.28,9.28,0,0,1,299.87,135.67ZM315,115.36a26.29,26.29,0,0,1-12.67-3.47c-2.1-1.15-4.14-2.4-6.12-3.61l-1.86.85a74.89,74.89,0,0,1-8.47,3.44c-6.5,2.06-13.24,1.08-19.49-2.82a57.76,57.76,0,0,1-6.84-5.2,7.8,7.8,0,0,0-4.28-1.72,6.61,6.61,0,0,1-5.53-4.76c-1.33-4.54,2-9.93,5.63-13,5.84-4.94,13.36-5.75,20.64-2.23a15.58,15.58,0,0,1,4.07,3.07l.95-.42a83.38,83.38,0,0,1,9.29-3.68,23,23,0,0,1,18,2.07l.23.13c2.13,1.18,4.32,2.4,6.48,3.77l.19-.11a86,86,0,0,1,9-4.91,22.91,22.91,0,0,1,18.3-.05c2.77,1.12,5.22,2.18,7.47,3.23,1-.85,2-1.62,3-2.37l1.39-1.08c6-4.72,13.88-5.07,21.64-1C381,84.1,388.6,90.4,388.2,96.25a6.17,6.17,0,0,1-4.07,5.45l-.54.2L383,102c-1.39.19-2.78.35-4.18.51-1.91.22-3.71.42-5.49.72a5,5,0,0,0-1.88.78c-1.22.81-2.44,1.72-3.72,2.69s-2.49,1.87-3.83,2.78a23,23,0,0,1-22.27,2.33c-2.33-.92-4.83-2-7.89-3.55-.5.31-1,.63-1.58.94a62.64,62.64,0,0,1-9,4.65A22.5,22.5,0,0,1,315,115.36ZM296.33,97.31a9.09,9.09,0,0,1,4.75,1.34l.24.15c2.12,1.3,4.13,2.54,6.18,3.66,4.24,2.32,8.09,2.76,11.79,1.33a53.87,53.87,0,0,0,7.46-3.89l1.67-1a10.7,10.7,0,0,1,10.09-.34c2.83,1.39,5,2.38,7.11,3.2a12.24,12.24,0,0,0,12.27-1.23c1.12-.76,2.22-1.59,3.4-2.47,1.36-1,2.76-2.08,4.26-3.07a15.54,15.54,0,0,1,6-2.42l1.56-.24a16.76,16.76,0,0,0-5.44-2.62,7.07,7.07,0,0,0-6.66,1.21l-1.49,1.16c-1.16.89-2.25,1.73-3.24,2.61a8.68,8.68,0,0,1-10,1.36c-2.28-1.09-4.82-2.2-7.76-3.39a12.09,12.09,0,0,0-9.88-.1,76.91,76.91,0,0,0-7.89,4.33l-.68.41a9.15,9.15,0,0,1-10.23-.09c-2.06-1.34-4.22-2.54-6.5-3.8l-.23-.13a12.3,12.3,0,0,0-9.64-1.19,74.29,74.29,0,0,0-8.09,3.23l-2,.88a8.52,8.52,0,0,1-9.53-1.35c-.41-.36-.81-.75-1.21-1.14a10.38,10.38,0,0,0-1.36-1.2c-2.68-1.29-5.13-1.41-7.31-.35a8.31,8.31,0,0,0-2,1.4,17.26,17.26,0,0,1,4.56,2.81,48.28,48.28,0,0,0,5.55,4.25c3.6,2.25,7.05,2.8,10.55,1.69a65.8,65.8,0,0,0,7.25-3c.94-.43,1.87-.85,2.81-1.27A9.07,9.07,0,0,1,296.33,97.31Z"/>
				</g>
			</g>
			<path class="acls-3" d="M331.37,109.81c-12.09,6.74-44.57,1.72-72.56-11.21S217.92,69.72,230,63s44.58-1.72,72.57,11.21S343.45,103.07,331.37,109.81Z"/><path class="acls-3" d="M353.36,119.22c-16.94,3-40.83-9.24-53.35-27.37s-8.94-35.27,8-38.28,40.83,9.24,53.35,27.37S370.3,116.21,353.36,119.22Z"/>
			<ellipse class="acls-8" cx="311.62" cy="171.19" rx="45.34" ry="28.93"/>
			<ellipse class="acls-8" cx="418.99" cy="171.19" rx="45.34" ry="28.93"/>
			<ellipse class="acls-6" cx="311.62" cy="165.19" rx="45.34" ry="28.93"/>
			<ellipse cx="321.16" cy="166.21" rx="15.51" ry="9.9"/>
			<ellipse class="acls-6" cx="418.99" cy="165.19" rx="45.34" ry="28.93"/>
			<ellipse cx="402.29" cy="166.21" rx="15.51" ry="9.9"/>
			<polygon points="365.03 165.27 267.76 138.57 280.41 119.81 375.31 150.03 365.03 165.27"/>
			<polygon points="365.04 165.27 462.31 138.57 449.66 119.81 354.76 150.03 365.04 165.27"/>
			<path class="acls-9" d="M435.24,216.58c-17.92-18.69-48.47-31.74-74.28-31.74-39.87,0-68.81,26.46-70.72,28.69-1.21,1.36-14.28,46.78,69,57.69C384,262,398.87,255,407.59,250.31c17.1,2.35,31.33,4.34,37.89,5.55l5.1.94,1.83-10.89C452.9,234.11,445.91,227.7,435.24,216.58Z"/>
			<path class="acls-10" d="M298.47,212c-.51.85-35.85,26.37,62.82,50.19,51.33-19.14,60-28.5,60-28.5Z"/>
			<path class="acls-11" d="M293.63,216.49S324.3,180.33,363,180.33s86.67,30.2,85.33,62.1C423,237.75,288.3,222.07,293.63,216.49Z"/>
			<rect class="acls-1" width="576" height="602"/>
		</g>
	</g>
</svg>