<svg xmlns="http://www.w3.org/2000/svg" xmlns:xlink="http://www.w3.org/1999/xlink" viewBox="0 0 576 602">
	<defs>
		<style>
			.b2cls-1{fill:none;}
			.b2cls-2{fill:#232d1c;}
			.b2cls-3{clip-path:url(#clip-path);}
			.b2cls-4{fill:#fff;}
		</style>
		
	</defs>
	<title>
		Recurso 3
	</title>
	<g id="Capa_2" data-name="Capa 2">
		<g id="Capa_3" data-name="Capa 3">
			<clipPath id="clip-path">
				<path class="b2cls-1" d="M141.44,249.31c0,33,66,61.2,147.47,61.2s147.47-28.2,147.47-61.2Z"/>
			</clipPath>
			<rect class="b2cls-1" width="576" height="602"/>
			<path d="M141.44,262.45c0,37.86,66,68.37,147.47,68.37s147.47-30.54,147.47-68.4l-.13-16.11H140.31Z"/>
			<path class="b2cls-2" d="M141.44,246.31c0,38,66,68.31,147.47,68.31s147.47-30.31,147.47-68.31Z"/>
			<g class="b2cls-3">
				<path class="b2cls-4" d="M183.94,263.5H167.82a10.07,10.07,0,0,1-10-10h0a10.07,10.07,0,0,1,10-10h16.12a10.07,10.07,0,0,1,10,10h0A10.07,10.07,0,0,1,183.94,263.5Z"/>
				<path class="b2cls-4" d="M221.41,263.5H205.29a10.07,10.07,0,0,1-10-10h0a10.07,10.07,0,0,1,10-10h16.12a10.06,10.06,0,0,1,10,10h0A10.06,10.06,0,0,1,221.41,263.5Z"/>
				<path class="b2cls-4" d="M408.73,263.5H392.61a10.07,10.07,0,0,1-10-10h0a10.07,10.07,0,0,1,10-10h16.12a10.07,10.07,0,0,1,10,10h0A10.07,10.07,0,0,1,408.73,263.5Z"/>
				<path class="b2cls-4" d="M371.27,263.5H355.15a10.07,10.07,0,0,1-10-10h0a10.07,10.07,0,0,1,10-10h16.12a10.06,10.06,0,0,1,10,10h0A10.06,10.06,0,0,1,371.27,263.5Z"/>
				<path class="b2cls-4" d="M333.8,263.5H317.68a10.07,10.07,0,0,1-10-10h0a10.07,10.07,0,0,1,10-10H333.8a10.07,10.07,0,0,1,10,10h0A10.07,10.07,0,0,1,333.8,263.5Z"/>
				<path class="b2cls-4" d="M258.87,263.5H242.75a10.07,10.07,0,0,1-10-10h0a10.07,10.07,0,0,1,10-10h16.12a10.07,10.07,0,0,1,10,10h0A10.07,10.07,0,0,1,258.87,263.5Z"/>
				<path class="b2cls-4" d="M296.34,263.5H280.22a10.07,10.07,0,0,1-10-10h0a10.07,10.07,0,0,1,10-10h16.12a10.06,10.06,0,0,1,10,10h0A10.06,10.06,0,0,1,296.34,263.5Z"/>
				<path class="b2cls-4" d="M183.94,313.68H167.82a10.07,10.07,0,0,1-10-10h0a10.06,10.06,0,0,1,10-10h16.12a10.06,10.06,0,0,1,10,10h0A10.07,10.07,0,0,1,183.94,313.68Z"/>
				<path class="b2cls-4" d="M221.41,313.68H205.29a10.07,10.07,0,0,1-10-10h0a10.06,10.06,0,0,1,10-10h16.12a10.05,10.05,0,0,1,10,10h0A10.06,10.06,0,0,1,221.41,313.68Z"/>
				<path class="b2cls-4" d="M408.73,313.68H392.61a10.07,10.07,0,0,1-10-10h0a10.06,10.06,0,0,1,10-10h16.12a10.06,10.06,0,0,1,10,10h0A10.07,10.07,0,0,1,408.73,313.68Z"/>
				<path class="b2cls-4" d="M371.27,313.68H355.15a10.07,10.07,0,0,1-10-10h0a10.06,10.06,0,0,1,10-10h16.12a10.05,10.05,0,0,1,10,10h0A10.06,10.06,0,0,1,371.27,313.68Z"/>
				<path class="b2cls-4" d="M333.8,313.68H317.68a10.07,10.07,0,0,1-10-10h0a10.06,10.06,0,0,1,10-10H333.8a10.06,10.06,0,0,1,10,10h0A10.07,10.07,0,0,1,333.8,313.68Z"/>
				<path class="b2cls-4" d="M258.87,313.68H242.75a10.07,10.07,0,0,1-10-10h0a10.06,10.06,0,0,1,10-10h16.12a10.06,10.06,0,0,1,10,10h0A10.07,10.07,0,0,1,258.87,313.68Z"/>
				<path class="b2cls-4" d="M296.34,313.68H280.22a10.07,10.07,0,0,1-10-10h0a10.06,10.06,0,0,1,10-10h16.12a10.05,10.05,0,0,1,10,10h0A10.06,10.06,0,0,1,296.34,313.68Z"/>
			</g>
		</g>
	</g>
</svg>