<?xml version="1.0" encoding="utf-8"?>
<!-- Generator: Adobe Illustrator 19.1.1, SVG Export Plug-In . SVG Version: 6.00 Build 0)  -->
<svg version="1.1" id="Capa_1" xmlns="http://www.w3.org/2000/svg" xmlns:xlink="http://www.w3.org/1999/xlink" x="0px" y="0px"
	 viewBox="0 0 420 235" style="enable-background:new 0 0 420 235;" xml:space="preserve">
<style type="text/css">
	.st0{clip-path:url(#SVGID_2_);}
	.st1{fill:#19CCBE;}
	.st2{fill:#FF3960;}
	.st3{fill:#9D1822;}
	.st4{fill:#F8D675;}
	.st5{fill:#E7BE58;}
</style>
<g>
	<defs>
		<path id="SVGID_1_" d="M382.7,213.4H37.3c-14.8,0-26.8-12-26.8-26.8V39.8C10.5,25,22.5,13,37.3,13h345.4c14.8,0,26.8,12,26.8,26.8
			v146.8C409.5,201.4,397.5,213.4,382.7,213.4z"/>
	</defs>
	<clipPath id="SVGID_2_">
		<use xlink:href="#SVGID_1_"  style="overflow:visible;"/>
	</clipPath>
	<g class="st0">
		<polygon class="st1" points="67.8,410.6 54,418.4 -96.8,37.2 -82.9,29.4 		"/>
		<polygon class="st1" points="97.1,394.2 83.3,401.9 -67.5,20.7 -53.6,13 		"/>
		<polygon class="st1" points="126.4,377.7 112.6,385.5 -38.1,4.3 -24.3,-3.4 		"/>
		<polygon class="st1" points="155.7,361.3 141.9,369.1 -8.8,-12.1 5,-19.9 		"/>
		<polygon class="st1" points="185,344.9 171.2,352.6 20.5,-28.5 34.3,-36.3 		"/>
		<polygon class="st1" points="214.3,328.4 200.5,336.2 49.8,-45 63.6,-52.7 		"/>
		<polygon class="st1" points="243.6,312 229.8,319.8 79.1,-61.4 92.9,-69.2 		"/>
		<polygon class="st1" points="272.9,295.6 259.1,303.3 108.4,-77.8 122.2,-85.6 		"/>
		<polygon class="st1" points="302.2,279.2 288.4,286.9 137.7,-94.3 151.5,-102 		"/>
		<polygon class="st1" points="331.5,262.7 317.7,270.5 167,-110.7 180.8,-118.4 		"/>
		<polygon class="st1" points="360.9,246.3 347,254 196.3,-127.1 210.1,-134.9 		"/>
		<polygon class="st1" points="390.2,229.9 376.3,237.6 225.6,-143.6 239.4,-151.3 		"/>
		<polygon class="st1" points="419.5,213.4 405.7,221.2 254.9,-160 268.7,-167.7 		"/>
		<polygon class="st1" points="448.8,197 435,204.7 284.2,-176.4 298,-184.2 		"/>
		<polygon class="st1" points="478.1,180.6 464.3,188.3 313.5,-192.9 327.4,-200.6 		"/>
		<polygon class="st1" points="507.4,164.1 493.6,171.9 342.8,-209.3 356.7,-217 		"/>
	</g>
</g>
</svg>
