<?xml version="1.0" encoding="utf-8"?>
<!-- Generator: Adobe Illustrator 19.1.1, SVG Export Plug-In . SVG Version: 6.00 Build 0)  -->
<svg version="1.1" id="Capa_1" xmlns="http://www.w3.org/2000/svg" xmlns:xlink="http://www.w3.org/1999/xlink" x="0px" y="0px"
	 viewBox="0 0 235.7 140" style="enable-background:new 0 0 235.7 140;" xml:space="preserve">
<style type="text/css">
	.st0{clip-path:url(#SVGID_2_);}
	.st1{fill:#19CCBE;}
	.st2{fill:#FF3960;}
	.st3{fill:#9D1822;}
	.st4{fill:#F8D675;}
	.st5{fill:#E7BE58;}
</style>
<g>
	<defs>
		<path id="SVGID_1_" d="M290.4,361.4H-55c-14.8,0-26.8-12-26.8-26.8V187.8c0-14.8,12-26.8,26.8-26.8h345.4
			c14.8,0,26.8,12,26.8,26.8v146.8C317.2,349.4,305.2,361.4,290.4,361.4z"/>
	</defs>
	<clipPath id="SVGID_2_">
		<use xlink:href="#SVGID_1_"  style="overflow:visible;"/>
	</clipPath>
	<g class="st0">
		<polygon class="st1" points="63.4,509.3 49.6,517.1 -101.1,135.9 -87.3,128.1 		"/>
		<polygon class="st1" points="92.7,492.9 78.9,500.6 -71.8,119.5 -58,111.7 		"/>
		<polygon class="st1" points="122,476.4 108.2,484.2 -42.5,103 -28.7,95.3 		"/>
		<polygon class="st1" points="151.4,460 137.5,467.8 -13.2,86.6 0.6,78.8 		"/>
		<polygon class="st1" points="180.7,443.6 166.9,451.3 16.1,70.2 29.9,62.4 		"/>
		<polygon class="st1" points="210,427.2 196.2,434.9 45.4,53.7 59.2,46 		"/>
		<polygon class="st1" points="239.3,410.7 225.5,418.5 74.7,37.3 88.5,29.6 		"/>
		<polygon class="st1" points="268.6,394.3 254.8,402 104,20.9 117.9,13.1 		"/>
		<polygon class="st1" points="297.9,377.9 284.1,385.6 133.4,4.4 147.2,-3.3 		"/>
		<polygon class="st1" points="327.2,361.4 313.4,369.2 162.7,-12 176.5,-19.7 		"/>
		<polygon class="st1" points="356.5,345 342.7,352.7 192,-28.4 205.8,-36.2 		"/>
		<polygon class="st1" points="385.8,328.6 372,336.3 221.3,-44.9 235.1,-52.6 		"/>
	</g>
</g>
<g>
	<path class="st2" d="M188.7,119c-7.4,0-10.9,0-17.7,0c5.6-32,10.9-64.5,16.7-96.6c-3.5,0.1-7.1,0.2-10.8,0.2
		c-5.2,32.1-9.9,64.4-14.9,96.4c-6.6,0-9.8,0-16,0c3.4-33,6.5-64.7,10.3-97c-3.7-0.1-7.5-0.2-11.4-0.3c-2.8,32.4-4.8,64.3-7.2,97.3
		c-6.1,0-9.1,0-15.2,0c0.4-33,0.2-65.2,0.9-97.8c-1.9,0-3.7-0.1-5.6-0.1c-2,0-4,0.1-6,0.1c0.5,32.6,2,64.8,2.7,97.8c-6,0-9,0-15.2,0
		c-2.7-33-6.4-64.9-9-97.3c-3.9,0.1-7.7,0.3-11.4,0.4C82.4,54.4,87.2,86,90.9,119c-6.3,0-9.4,0-16,0c-5.2-32-11.5-64.3-16.6-96.5
		c-3.7,0-7.3,0-10.8-0.1C53.2,54.7,60,87,65.8,119c-6.8,0-10.3,0-17.7,0C41.6,86,34.4,53.5,28,20.6c-7.2-1.2-13.5-3.2-18.9-6.1
		l20.8,91.7C32,115.5,43.3,122,56.6,122h122.2c13.3,0,24.6-6.6,26.7-15.8l20.8-91.8c-5.5,3-12,5-19.3,6.2
		C200.7,53.3,195,86,188.7,119z"/>
	<path class="st3" d="M65.8,119C60,87,53.2,54.6,47.4,22.4c-7-0.2-13.5-0.7-19.4-1.7C34.4,53.5,41.6,86,48.1,119
		C55.5,119,59,119,65.8,119z"/>
	<path class="st3" d="M90.9,119c-3.7-33-8.5-64.6-12.1-96.9c-7.2,0.2-14.1,0.5-20.6,0.5C63.4,54.8,69.7,87,74.9,119
		C81.4,119,84.6,119,90.9,119z"/>
	<path class="st3" d="M114.3,119c-0.7-33-2.2-65.2-2.7-97.8c-7.3,0.1-14.5,0.3-21.5,0.6c2.6,32.4,6.3,64.2,9,97.2
		C105.3,119,108.3,119,114.3,119z"/>
	<path class="st3" d="M137.6,119c2.5-33,4.5-64.9,7.2-97.3c-7-0.2-14.2-0.3-21.5-0.4c-0.7,32.6-0.4,64.7-0.9,97.7
		C128.5,119,131.5,119,137.6,119z"/>
	<path class="st3" d="M161.9,119c5-32,9.7-64.4,14.9-96.5c-6.6,0-13.5-0.2-20.6-0.4c-3.7,32.2-6.9,63.9-10.3,96.9
		C152.2,119,155.4,119,161.9,119z"/>
	<path class="st3" d="M188.7,119c6.3-33,12-65.6,18.4-98.3c-6,1-12.5,1.5-19.4,1.7C181.8,54.6,176.5,87,171,119
		C177.8,119,181.3,119,188.7,119z"/>
</g>
</svg>
