<svg xmlns="http://www.w3.org/2000/svg" viewBox="0 0 576 602">
	<defs>
		<style>
			.em3cls-1{opacity:0.3;}
			.em3cls-2{fill:#fdc325;}
			.em3cls-3{fill:#fcda4c;}
			.em3cls-4{fill:#ff3960;}
			.em3cls-5{fill:none;}
		</style>
	</defs>
	<title>
		Recurso 67
	</title>
	<g id="Capa_2" data-name="Capa 2">
		<g id="Capa_1-2" data-name="Capa 1">
			<ellipse class="em3cls-1" cx="287.8" cy="406.39" rx="253.91" ry="122.44"/>
			<path class="em3cls-2" d="M515.1,394.72c0,53.9-101.59,97.59-226.92,97.59S61.27,448.62,61.27,394.72c0-9.07-.79-194-.86-211.4-.33-86.1,233.59-86,233.59-86,29.07,1.94,220.69,2.35,221.66,89.37C515.87,206.13,515.1,384.89,515.1,394.72Z"/>
			<ellipse class="em3cls-2" cx="288.18" cy="183.79" rx="226.92" ry="111.05"/>
			<path class="em3cls-3" d="M288.39,497.31c-7.52,0-14.11-4.64-19.92-8.74-4.25-3-8.64-6.09-12-6.31-3.7-.25-8.65,2.32-13.44,4.81-6.45,3.35-13.13,6.81-20.25,5.83-7.6-1.05-13.53-6.66-18.76-11.61-3.72-3.52-7.56-7.15-10.74-7.85-3.73-.82-9.08.93-14.25,2.62-6.91,2.26-14.06,4.61-20.85,2.42-7.65-2.47-12.53-9.34-16.83-15.4-2.85-4-5.79-8.16-8.57-9.46-3.67-1.71-9.32-1.39-14.78-1.08-7.41.42-15.07.85-20.92-3.34-7.55-5.4-9.47-14.49-11.16-22.52-.89-4.21-1.8-8.57-3.37-10.77-2.08-2.93-5.82-5.81-9.43-8.6C66.25,402,58.47,396,58.47,386.72a6,6,0,0,1,12,0c0,3.38,5.07,7.29,10,11.08,4.31,3.32,8.77,6.76,11.88,11.15s4.19,9.84,5.33,15.25c1.3,6.17,2.64,12.55,6.4,15.23,2.42,1.73,7.93,1.42,13.27,1.12,6.62-.37,14.12-.79,20.52,2.19,5.66,2.64,9.54,8.11,13.29,13.4,3.38,4.76,6.87,9.68,10.72,10.92,3.09,1,8.35-.73,13.44-2.4,6.39-2.09,13.63-4.47,20.57-2.94,6.44,1.42,11.51,6.22,16.41,10.86,4.11,3.89,8.37,7.92,12.16,8.44,3.33.46,8.29-2.11,13.08-4.59,6.25-3.25,12.72-6.6,19.76-6.13,6.72.45,12.51,4.53,18.11,8.48,4.57,3.22,9.29,6.55,13,6.55s8.44-3.33,13-6.55c5.6-3.95,11.39-8,18.11-8.48,7-.47,13.5,2.89,19.76,6.13,4.79,2.48,9.74,5.05,13.08,4.59,3.79-.52,8-4.55,12.16-8.44,4.9-4.64,10-9.44,16.41-10.86,6.93-1.53,14.18.85,20.56,2.94,5.09,1.67,10.35,3.39,13.43,2.4,3.86-1.24,7.35-6.16,10.72-10.92,3.75-5.29,7.63-10.76,13.29-13.39,6.4-3,13.9-2.56,20.52-2.19,5.34.3,10.85.61,13.27-1.12,3.75-2.68,5.1-9.06,6.4-15.23,1.14-5.41,2.32-11,5.33-15.25s7.58-7.82,11.88-11.15c4.91-3.78,10-7.7,10-11.08a6,6,0,0,1,12,0c0,9.28-7.79,15.29-14.65,20.58-3.61,2.79-7.35,5.67-9.43,8.6-1.57,2.2-2.48,6.56-3.37,10.77-1.69,8-3.61,17.12-11.16,22.52-5.85,4.19-13.51,3.76-20.92,3.34-5.46-.31-11.11-.62-14.78,1.08-2.78,1.29-5.73,5.45-8.57,9.46-4.3,6.06-9.18,12.93-16.83,15.4-6.79,2.19-13.94-.15-20.85-2.42-5.17-1.7-10.51-3.45-14.24-2.62-3.19.7-7,4.34-10.75,7.85-5.23,5-11.16,10.56-18.76,11.61-7.12,1-13.79-2.48-20.25-5.83-4.79-2.48-9.76-5.06-13.43-4.81-3.36.22-7.75,3.32-12,6.31C302.5,492.66,295.91,497.31,288.39,497.31Z"/>
			<path class="em3cls-3" d="M288.39,449.31c-7.52,0-14.11-4.64-19.92-8.74-4.25-3-8.64-6.09-12-6.31-3.7-.25-8.65,2.32-13.44,4.81-6.45,3.35-13.13,6.81-20.25,5.83-7.6-1.05-13.53-6.66-18.76-11.61-3.72-3.52-7.56-7.15-10.74-7.85-3.73-.82-9.08.93-14.25,2.62-6.91,2.26-14.06,4.61-20.85,2.42-7.65-2.47-12.53-9.34-16.83-15.4-2.85-4-5.79-8.16-8.57-9.46-3.67-1.71-9.32-1.39-14.78-1.08-7.41.42-15.07.85-20.92-3.34-7.55-5.4-9.47-14.49-11.16-22.52-.89-4.21-1.8-8.57-3.37-10.77-2.08-2.93-5.82-5.81-9.43-8.6C66.25,354,58.47,348,58.47,338.72a6,6,0,0,1,12,0c0,3.38,5.07,7.29,10,11.08,4.31,3.32,8.77,6.76,11.88,11.15s4.19,9.84,5.33,15.25c1.3,6.17,2.64,12.55,6.4,15.23,2.42,1.73,7.93,1.42,13.27,1.12,6.62-.37,14.12-.79,20.52,2.19,5.66,2.64,9.54,8.11,13.29,13.4,3.38,4.76,6.87,9.68,10.72,10.92,3.09,1,8.35-.73,13.44-2.4,6.39-2.09,13.63-4.47,20.57-2.94,6.44,1.42,11.51,6.22,16.41,10.86,4.11,3.89,8.37,7.92,12.16,8.44,3.33.46,8.29-2.11,13.08-4.59,6.25-3.25,12.72-6.6,19.76-6.13,6.72.45,12.51,4.53,18.11,8.48,4.57,3.22,9.29,6.55,13,6.55s8.44-3.33,13-6.55c5.6-3.95,11.39-8,18.11-8.48,7-.47,13.5,2.89,19.76,6.13,4.79,2.48,9.74,5.05,13.08,4.59,3.79-.52,8-4.55,12.16-8.44,4.9-4.64,10-9.44,16.41-10.86,6.93-1.53,14.18.85,20.56,2.94,5.09,1.67,10.35,3.39,13.43,2.4,3.86-1.24,7.35-6.16,10.72-10.92,3.75-5.29,7.63-10.76,13.29-13.39,6.4-3,13.9-2.56,20.52-2.19,5.34.3,10.85.61,13.27-1.12,3.75-2.68,5.1-9.06,6.4-15.23,1.14-5.41,2.32-11,5.33-15.25s7.58-7.82,11.88-11.15c4.91-3.78,10-7.7,10-11.08a6,6,0,1,1,12,0c0,9.28-7.79,15.29-14.65,20.58-3.61,2.79-7.35,5.67-9.43,8.6-1.57,2.2-2.48,6.56-3.37,10.77-1.69,8-3.61,17.12-11.16,22.52-5.85,4.19-13.51,3.76-20.92,3.34-5.46-.31-11.11-.63-14.78,1.08-2.78,1.29-5.73,5.45-8.57,9.46-4.3,6.06-9.18,12.93-16.83,15.4-6.79,2.19-13.94-.15-20.85-2.42-5.17-1.7-10.51-3.45-14.24-2.62-3.19.7-7,4.34-10.75,7.85-5.23,5-11.16,10.56-18.76,11.61-7.12,1-13.79-2.48-20.25-5.83-4.79-2.48-9.76-5.05-13.43-4.81-3.36.22-7.75,3.32-12,6.31C302.5,444.66,295.91,449.31,288.39,449.31Z"/>
			<path class="em3cls-3" d="M288.39,403.31c-7.52,0-14.11-4.64-19.92-8.74-4.25-3-8.64-6.09-12-6.31-3.7-.24-8.65,2.32-13.44,4.81-6.45,3.35-13.13,6.81-20.25,5.83-7.6-1.05-13.53-6.66-18.76-11.61-3.72-3.52-7.56-7.15-10.74-7.85-3.73-.82-9.08.93-14.25,2.62-6.91,2.26-14.06,4.61-20.85,2.42-7.65-2.47-12.53-9.34-16.83-15.4-2.85-4-5.79-8.16-8.57-9.46-3.67-1.71-9.32-1.39-14.78-1.08-7.41.42-15.07.85-20.92-3.34-7.55-5.4-9.47-14.49-11.16-22.52-.89-4.21-1.8-8.57-3.37-10.77-2.08-2.93-5.82-5.81-9.43-8.6C66.25,308,58.47,302,58.47,292.72a6,6,0,0,1,12,0c0,3.38,5.07,7.29,10,11.08,4.31,3.32,8.77,6.76,11.88,11.15s4.19,9.84,5.33,15.25c1.3,6.17,2.64,12.55,6.4,15.23,2.42,1.73,7.93,1.42,13.27,1.12,6.62-.37,14.12-.79,20.52,2.19,5.66,2.64,9.54,8.11,13.29,13.4,3.38,4.76,6.87,9.68,10.72,10.92,3.09,1,8.35-.73,13.44-2.4,6.39-2.09,13.63-4.47,20.57-2.94,6.44,1.42,11.51,6.22,16.41,10.86,4.11,3.89,8.37,7.92,12.16,8.44,3.33.46,8.29-2.11,13.08-4.59,6.25-3.25,12.72-6.6,19.76-6.13,6.72.45,12.51,4.53,18.11,8.48,4.57,3.22,9.29,6.55,13,6.55s8.44-3.33,13-6.55c5.6-3.95,11.39-8,18.11-8.48,7-.47,13.5,2.89,19.76,6.13,4.79,2.48,9.74,5.05,13.08,4.59,3.79-.52,8-4.55,12.16-8.44,4.9-4.64,10-9.44,16.41-10.86,6.93-1.53,14.18.85,20.56,2.94,5.09,1.67,10.35,3.39,13.43,2.4,3.86-1.24,7.35-6.16,10.72-10.92,3.75-5.29,7.63-10.76,13.29-13.39,6.4-3,13.9-2.56,20.52-2.19,5.34.3,10.85.61,13.27-1.12,3.75-2.68,5.1-9.06,6.4-15.23,1.14-5.41,2.32-11,5.33-15.25s7.58-7.82,11.88-11.15c4.91-3.78,10-7.7,10-11.08a6,6,0,1,1,12,0c0,9.28-7.79,15.29-14.65,20.58-3.61,2.79-7.35,5.67-9.43,8.6-1.57,2.2-2.48,6.56-3.37,10.77-1.69,8-3.61,17.12-11.16,22.52-5.85,4.19-13.51,3.76-20.92,3.34-5.46-.31-11.11-.62-14.78,1.08-2.78,1.29-5.73,5.45-8.57,9.46-4.3,6.06-9.18,12.93-16.83,15.4-6.79,2.19-13.94-.15-20.85-2.42-5.17-1.7-10.51-3.45-14.24-2.62-3.19.7-7,4.34-10.75,7.85-5.23,5-11.16,10.56-18.76,11.61-7.12,1-13.79-2.48-20.25-5.83-4.79-2.48-9.76-5.06-13.43-4.81-3.36.22-7.75,3.32-12,6.31C302.5,398.66,295.91,403.31,288.39,403.31Z"/>
			<path class="em3cls-3" d="M288.39,357.31c-7.52,0-14.11-4.64-19.92-8.74-4.25-3-8.64-6.09-12-6.31-3.7-.24-8.65,2.32-13.44,4.81-6.45,3.35-13.13,6.81-20.25,5.83-7.6-1.05-13.53-6.66-18.76-11.61-3.72-3.52-7.56-7.15-10.74-7.85-3.73-.82-9.08.93-14.25,2.62-6.91,2.26-14.06,4.61-20.85,2.42-7.65-2.47-12.53-9.34-16.83-15.4-2.85-4-5.79-8.16-8.57-9.46-3.67-1.71-9.32-1.39-14.78-1.08-7.41.42-15.07.85-20.92-3.34-7.55-5.4-9.47-14.49-11.16-22.52-.89-4.21-1.8-8.57-3.37-10.77-2.08-2.93-5.82-5.81-9.43-8.6C66.25,262,58.47,256,58.47,246.72a6,6,0,0,1,12,0c0,3.38,5.07,7.29,10,11.08,4.31,3.32,8.77,6.76,11.88,11.15s4.19,9.84,5.33,15.25c1.3,6.17,2.64,12.55,6.4,15.23,2.42,1.73,7.93,1.42,13.27,1.12,6.62-.37,14.12-.79,20.52,2.19,5.66,2.64,9.54,8.11,13.29,13.4,3.38,4.76,6.87,9.68,10.72,10.92,3.09,1,8.35-.73,13.44-2.4,6.39-2.09,13.63-4.47,20.57-2.94,6.44,1.42,11.51,6.22,16.41,10.86,4.11,3.89,8.37,7.92,12.16,8.44,3.33.46,8.29-2.11,13.08-4.59,6.25-3.25,12.72-6.6,19.76-6.13,6.72.45,12.51,4.53,18.11,8.48,4.57,3.22,9.29,6.55,13,6.55s8.44-3.33,13-6.55c5.6-3.95,11.39-8,18.11-8.48,7-.47,13.5,2.89,19.76,6.13,4.79,2.48,9.74,5.05,13.08,4.59,3.79-.52,8-4.55,12.16-8.44,4.9-4.64,10-9.44,16.41-10.86,6.93-1.53,14.18.85,20.56,2.94,5.09,1.67,10.35,3.39,13.43,2.4,3.86-1.24,7.35-6.16,10.72-10.92,3.75-5.29,7.63-10.76,13.29-13.39,6.4-3,13.9-2.56,20.52-2.19,5.34.3,10.85.61,13.27-1.12,3.75-2.68,5.1-9.06,6.4-15.23,1.14-5.41,2.32-11,5.33-15.25s7.58-7.82,11.88-11.15c4.91-3.78,10-7.7,10-11.08a6,6,0,1,1,12,0c0,9.28-7.79,15.29-14.65,20.58-3.61,2.79-7.35,5.67-9.43,8.6-1.57,2.2-2.48,6.56-3.37,10.77-1.69,8-3.61,17.12-11.16,22.52-5.85,4.19-13.51,3.76-20.92,3.34-5.46-.31-11.11-.62-14.78,1.08-2.78,1.29-5.73,5.45-8.57,9.46-4.3,6.06-9.18,12.93-16.83,15.4-6.79,2.19-13.94-.15-20.85-2.42-5.17-1.7-10.51-3.45-14.24-2.62-3.19.7-7,4.34-10.75,7.85-5.23,5-11.16,10.56-18.76,11.61-7.12,1-13.79-2.48-20.25-5.83-4.79-2.48-9.76-5.06-13.43-4.81-3.36.22-7.75,3.32-12,6.31C302.5,352.66,295.91,357.31,288.39,357.31Z"/>
			<path class="em3cls-3" d="M288.39,309.31c-7.52,0-14.11-4.64-19.92-8.74-4.25-3-8.64-6.09-12-6.31-3.7-.24-8.65,2.33-13.44,4.81-6.45,3.35-13.13,6.81-20.25,5.83-7.6-1.05-13.53-6.66-18.76-11.61-3.72-3.52-7.56-7.15-10.74-7.85-3.73-.82-9.08.93-14.25,2.62-6.91,2.26-14.06,4.61-20.85,2.42-7.65-2.47-12.53-9.34-16.83-15.4-2.85-4-5.79-8.16-8.57-9.46-3.67-1.71-9.32-1.39-14.78-1.08-7.41.42-15.07.85-20.92-3.34-7.55-5.4-9.47-14.49-11.16-22.52-.89-4.21-1.8-8.57-3.37-10.77-2.08-2.93-5.82-5.81-9.43-8.6C66.25,214,58.47,208,58.47,198.72a6,6,0,0,1,12,0c0,3.38,5.07,7.29,10,11.08,4.31,3.32,8.77,6.76,11.88,11.15s4.19,9.84,5.33,15.25c1.3,6.17,2.64,12.55,6.4,15.23,2.42,1.73,7.93,1.42,13.27,1.12,6.62-.37,14.12-.79,20.52,2.19,5.66,2.64,9.54,8.11,13.29,13.4,3.38,4.76,6.87,9.68,10.72,10.92,3.09,1,8.35-.73,13.44-2.4,6.39-2.09,13.63-4.47,20.57-2.94,6.44,1.42,11.51,6.22,16.41,10.86,4.11,3.89,8.37,7.92,12.16,8.44,3.33.46,8.29-2.11,13.08-4.59,6.25-3.25,12.72-6.6,19.76-6.13,6.72.45,12.51,4.53,18.11,8.48,4.57,3.22,9.29,6.55,13,6.55s8.44-3.33,13-6.55c5.6-3.95,11.39-8,18.11-8.48,7-.46,13.5,2.89,19.76,6.13,4.79,2.48,9.74,5.05,13.08,4.59,3.79-.52,8-4.55,12.16-8.44,4.9-4.64,10-9.44,16.41-10.86,6.93-1.53,14.18.85,20.56,2.94,5.09,1.67,10.35,3.39,13.43,2.4,3.86-1.24,7.35-6.16,10.72-10.92,3.75-5.29,7.63-10.76,13.29-13.39,6.4-3,13.9-2.56,20.52-2.19,5.34.3,10.85.61,13.27-1.12,3.75-2.68,5.1-9.06,6.4-15.23,1.14-5.41,2.32-11,5.33-15.25s7.58-7.82,11.88-11.15c4.91-3.78,10-7.7,10-11.08a6,6,0,1,1,12,0c0,9.28-7.79,15.29-14.65,20.58-3.61,2.79-7.35,5.67-9.43,8.6-1.57,2.2-2.48,6.56-3.37,10.77-1.69,8-3.61,17.12-11.16,22.52-5.85,4.19-13.51,3.76-20.92,3.34-5.46-.31-11.11-.63-14.78,1.08-2.78,1.29-5.73,5.45-8.57,9.46-4.3,6.06-9.18,12.93-16.83,15.4-6.79,2.19-13.94-.15-20.85-2.42-5.17-1.7-10.51-3.45-14.24-2.62-3.19.7-7,4.34-10.75,7.85-5.23,5-11.16,10.56-18.76,11.61-7.12,1-13.79-2.48-20.25-5.83-4.79-2.48-9.76-5.06-13.43-4.81-3.36.22-7.75,3.32-12,6.31C302.5,304.66,295.91,309.31,288.39,309.31Z"/>
			<ellipse cx="366.18" cy="158.38" rx="20.74" ry="26.8" transform="translate(-31.98 133.04) rotate(-19.75)"/>
			<path d="M200.61,169.77a7.41,7.41,0,0,1-3.21-.72,6.25,6.25,0,0,1-3-8.73c.48-.86,12-21,32.72-23,14.17-1.35,28.39,6,42.27,21.89a6.16,6.16,0,0,1-1,9.11,7.39,7.39,0,0,1-9.85-1c-10.72-12.25-20.8-18-30-17.16-13.09,1.24-21.62,15.9-21.71,16.05A7.09,7.09,0,0,1,200.61,169.77Z"/>
			<path d="M294.36,246.86c-3.44,0-6.44-1.87-6.93-4.45-.53-2.82,2.15-5.43,6-5.82,10.13-1,21.15-3.94,23-6-2.16-1.88-13-4.25-22.7-4.9-3.54-.24-6.28-2.4-6.36-5s2.52-4.87,6-5.23c9.93-1,20.71-3.82,22.9-5.87-2.86-1.79-14.06-3.64-24.28-3.93-3.86-.11-6.87-2.51-6.73-5.35s3.4-5.06,7.27-5a150.2,150.2,0,0,1,16.94,1.57c14.2,2.24,21.29,6.52,21.06,12.73-.17,4.69-4.64,8.07-10.44,10.49,6,2.31,10.62,5.69,10.44,10.65-.42,11.58-27.08,15.19-35.24,16A9.5,9.5,0,0,1,294.36,246.86Z"/>
			<path d="M173.67,139.2a10.11,10.11,0,0,1-4.42-1c-3.68-1.8-4.68-5.46-2.24-8.18,16.47-18.27,55.45-28.54,71.75-30.64,6.93-.9,11-.6,13.91,1,3.55,1.94,4.3,5.41,1.67,8-2.17,2.16-6,2.8-9.2,1.8h-.05c-8.3,0-49.72,9.43-64.75,26.11A9.21,9.21,0,0,1,173.67,139.2Z"/>
			<path d="M407.46,127.71c-3.76,0-7.11-2-7.85-4.78-4.68-17.86-47.27-31.24-63.29-34.89-4.22-1-6.59-4.26-5.29-7.37s5.77-4.86,10-3.9c2.72.62,66.83,15.46,74.29,43.92.84,3.2-2,6.29-6.34,6.91A10.67,10.67,0,0,1,407.46,127.71Z"/>
			<path class="em3cls-4" d="M448.95,254.93c9.64-15.68-3-37.88-21.92-38.52,1-13.16-9.12-25.82-22.27-27.86-13.77-2.14-22.74,6.88-26.6,18.89-5.18,16.12-3.55,35.47.35,52.4l.38-.26-.3.35a135.15,135.15,0,0,0,27.33,6.36c13,1.65,36.88,2.69,43-11.36C454.39,246.08,448.22,256.59,448.95,254.93Z"/>
			<rect class="em3cls-5" width="576" height="602"/>
		</g>
	</g>
</svg>