<svg xmlns="http://www.w3.org/2000/svg" viewBox="0 0 576 602">
	<defs>
		<style>
			.n4cls-1{fill:#c0be98;}
			.n4cls-2{fill:#fbfbe2;stroke:#c0be98;stroke-miterlimit:10;stroke-width:4px;}
			.n4cls-3{fill:#ff7bab;}
			.n4cls-4{fill:none;}
		</style>
	</defs>
	<title>
		Recurso 22
	</title>
	<g id="Capa_2" data-name="Capa 2">
		<g id="Capa_3" data-name="Capa 3">
			<path class="n4cls-1" d="M343.32,280.2c-23.68,0-44.91,5.43-59.29,14-14.37-8.58-35.6-14-59.29-14-43.29,0-78.39,18.14-78.39,40.51s35.31,40.51,78.6,40.51a158,158,0,0,0,17.63-1v3.1a11.56,11.56,0,0,0,11.6,11.89h18.27a12,12,0,0,0,11.36-8.13,12,12,0,0,0,11.37,8.13h18.27a12,12,0,0,0,12.13-11.89v-3.15a152,152,0,0,0,17.8,1.06c43.29,0,78.36-18.14,78.36-40.51S386.61,280.2,343.32,280.2Zm-59.51,69.3a11.14,11.14,0,0,0-.75-1.74c.32-.18.66-.36,1-.55l.64.36A11.13,11.13,0,0,0,283.81,349.5Z"/>
			<rect class="n4cls-2" x="242.16" y="324.37" width="42.31" height="33.95" rx="12.02" ry="12.02"/>
			<rect class="n4cls-2" x="283.16" y="324.37" width="42.31" height="33.95" rx="12.02" ry="12.02"/>
			<path class="n4cls-2" d="M343.32,263.2c-23.68,0-44.91,5.43-59.29,14-14.37-8.58-35.6-14-59.29-14-43.29,0-78.39,18.14-78.39,40.51s35.1,40.51,78.39,40.51c23.69,0,44.92-5.43,59.29-14,14.38,8.58,35.61,14,59.29,14,43.29,0,78.39-18.14,78.39-40.51S386.61,263.2,343.32,263.2Z"/>
			<path class="n4cls-3" d="M257.65,281.77c4.39-3.12,13.23-7.32,22.93-.56a4.21,4.21,0,0,0,4.54.08c6.24-3.82,16.72-5.9,24.87,0a4.34,4.34,0,0,1,.36,7c-6.5,5.65-19.38,10.43-24.3,12.13a6.17,6.17,0,0,1-4,0c-5.13-1.74-18.89-6.69-24.83-11.75A4.27,4.27,0,0,1,257.65,281.77Z"/>
			<path class="n4cls-1" d="M202.49,285.17c0,1.89-3,3.42-6.63,3.42s-6.64-1.53-6.64-3.42,3-3.43,6.64-3.43S202.49,283.27,202.49,285.17Z"/>
			<path class="n4cls-1" d="M232.49,300.67c0,1.89-3,3.43-6.63,3.43s-6.64-1.54-6.64-3.43,3-3.43,6.64-3.43S232.49,298.78,232.49,300.67Z"/>
			<path class="n4cls-1" d="M189.49,300.67c0,1.89-3,3.43-6.63,3.43s-6.64-1.54-6.64-3.43,3-3.43,6.64-3.43S189.49,298.78,189.49,300.67Z"/>
			<path class="n4cls-1" d="M216.49,314.62c0,1.89-3,3.43-6.63,3.43s-6.64-1.54-6.64-3.43,3-3.43,6.64-3.43S216.49,312.73,216.49,314.62Z"/>
			<path class="n4cls-1" d="M372.49,285.17c0,1.89-3,3.42-6.63,3.42s-6.64-1.53-6.64-3.42,3-3.43,6.64-3.43S372.49,283.27,372.49,285.17Z"/>
			<path class="n4cls-1" d="M402.49,300.67c0,1.89-3,3.43-6.63,3.43s-6.64-1.54-6.64-3.43,3-3.43,6.64-3.43S402.49,298.78,402.49,300.67Z"/>
			<path class="n4cls-1" d="M359.49,300.67c0,1.89-3,3.43-6.63,3.43s-6.64-1.54-6.64-3.43,3-3.43,6.64-3.43S359.49,298.78,359.49,300.67Z"/>
			<path class="n4cls-1" d="M386.49,314.62c0,1.89-3,3.43-6.63,3.43s-6.64-1.54-6.64-3.43,3-3.43,6.64-3.43S386.49,312.73,386.49,314.62Z"/>
			<rect class="n4cls-4" width="576" height="602"/>
		</g>
	</g>
</svg>