<svg xmlns="http://www.w3.org/2000/svg" viewBox="0 0 576 602">
	<defs>
		<style>
			.n9cls-1{fill:#b5aa7c;}
			.n9cls-2{fill:#e2d9af;}
			.n9cls-3{fill:none;}
		</style>
	</defs>
	<title>
		Recurso 19
	</title>
	<g id="Capa_2" data-name="Capa 2">
		<g id="Capa_3" data-name="Capa 3">
			<path class="n9cls-1" d="M372.83,316.56H201.54a53.38,53.38,0,0,1-53.38-53.38h0a53.38,53.38,0,0,1,53.38-53.38H372.83a53.38,53.38,0,0,1,53.38,53.38h0A53.38,53.38,0,0,1,372.83,316.56Z"/>
			<path class="n9cls-2" d="M372.83,295.56H201.54a53.38,53.38,0,0,1-53.38-53.38h0a53.38,53.38,0,0,1,53.38-53.38H372.83a53.38,53.38,0,0,1,53.38,53.38h0A53.38,53.38,0,0,1,372.83,295.56Z"/>
			<path class="n9cls-1" d="M263.65,228.91c0,11.4-13.86,20.65-31,20.65s-31-9.25-31-20.65,13.86-20.65,31-20.65S263.65,217.51,263.65,228.91Z"/>
			<path class="n9cls-1" d="M372.65,228.91c0,11.4-13.86,20.65-31,20.65s-31-9.25-31-20.65,13.86-20.65,31-20.65S372.65,217.51,372.65,228.91Z"/>
			<rect class="n9cls-3" width="576" height="602"/>
		</g>
	</g>
</svg>