<svg xmlns="http://www.w3.org/2000/svg" viewBox="0 0 576 602">
	<defs>
		<style>
			.o14cls-1{fill:none;}
		</style>
	</defs>
	<title>
		Recurso 33
	</title>
	<g id="Capa_2" data-name="Capa 2">
		<g id="Capa_3" data-name="Capa 3">
			<rect class="o14cls-1" width="576" height="602"/>
			<path d="M373,289.39c5,13.93.31,28.36-10.47,32.22S339,317.33,334,303.4s-.32-28.36,10.46-32.22S368,275.46,373,289.39Z"/>
			<path d="M187.9,307.79a7.31,7.31,0,0,1-3.21-.73,6.25,6.25,0,0,1-3-8.72c.48-.86,12-21,32.72-23,14.17-1.35,28.39,6,42.28,21.89a6.16,6.16,0,0,1-1,9.12,7.4,7.4,0,0,1-9.84-1c-10.72-12.26-20.81-18-30-17.16-13.09,1.24-21.63,15.9-21.71,16A7.08,7.08,0,0,1,187.9,307.79Z"/>
			<path d="M161,277.22a10.06,10.06,0,0,1-4.42-1c-3.68-1.8-4.68-5.46-2.24-8.17,16.47-18.28,55.45-28.54,71.75-30.65,6.93-.89,11-.6,13.91,1,3.55,1.94,4.3,5.42,1.67,8-2.16,2.16-5.95,2.81-9.2,1.81h-.05c-8.3,0-49.72,9.43-64.75,26.1A9.21,9.21,0,0,1,161,277.22Z"/>
			<path d="M394.75,265.72c-3.76,0-7.11-2-7.85-4.78-4.68-17.86-47.27-31.24-63.29-34.89-4.22-1-6.58-4.26-5.28-7.37s5.77-4.85,10-3.9c2.73.62,66.83,15.46,74.29,43.92.84,3.2-2,6.29-6.33,6.91A11.48,11.48,0,0,1,394.75,265.72Z"/>
		</g>
	</g>
</svg>