<svg xmlns="http://www.w3.org/2000/svg" viewBox="0 0 576 602">
	<defs>
		<style>
			.o1cls-1{fill:#f8f9d2;}
			.o1cls-2{fill:none;}
		</style>
	</defs>
	<title>
		Recurso 1
	</title>
	<g id="Capa_2" data-name="Capa 2">
		<g id="Capa_3" data-name="Capa 3">
			<path class="o1cls-1" d="M282.18,160.91c0,14.24-15.14,25.78-33.81,25.78s-33.82-11.54-33.82-25.78,15.14-25.78,33.82-25.78S282.18,146.67,282.18,160.91Z"/>
			<path d="M267.05,161.82c0,4.87-5.17,8.81-11.56,8.81s-11.57-3.94-11.57-8.81S249.1,153,255.49,153,267.05,156.94,267.05,161.82Z"/>
			<path class="o1cls-1" d="M362.28,160.91c0,14.24-15.14,25.78-33.82,25.78s-33.82-11.54-33.82-25.78,15.14-25.78,33.82-25.78S362.28,146.67,362.28,160.91Z"/>
			<path d="M327.57,161.82c0,4.87-5.18,8.81-11.57,8.81s-11.57-3.94-11.57-8.81S309.61,153,316,153,327.57,156.94,327.57,161.82Z"/>
			<rect class="o1cls-2" width="576" height="602"/>
		</g>
	</g>
</svg>