<svg xmlns="http://www.w3.org/2000/svg" viewBox="0 0 353.54 61.77">
	<defs>
		<style>
			.o7cls-1{fill:#dadaa8;}
			.o7cls-2{fill:#f8f9d2;}
		</style>
	</defs>
	<title>
		Recurso 40
	</title>
	<g id="Capa_2" data-name="Capa 2">
		<g id="Capa_3" data-name="Capa 3">
			<path class="o7cls-1" d="M353.54,35.39c0,14.57-20.17,26.38-45.06,26.38S263.42,50,263.42,35.39,283.6,9,308.48,9,353.54,20.81,353.54,35.39Z"/>
			<path class="o7cls-2" d="M353.54,26.39c0,14.57-20.17,26.38-45.06,26.38S263.42,41,263.42,26.39,283.6,0,308.48,0,353.54,11.81,353.54,26.39Z"/>
			<path d="M333.38,27.31c0,5-6.9,9-15.41,9s-15.42-4-15.42-9,6.9-9,15.42-9S333.38,22.33,333.38,27.31Z"/>
			<path class="o7cls-1" d="M84.89,35.85c0,13.73-19,24.86-42.45,24.86S0,49.58,0,35.85,19,11,42.44,11,84.89,22.13,84.89,35.85Z"/>
			<path class="o7cls-2" d="M84.89,26.85c0,13.73-19,24.86-42.45,24.86S0,40.58,0,26.85,19,2,42.44,2,84.89,13.13,84.89,26.85Z"/>
			<path d="M41.33,27.73c0,4.69-6.5,8.5-14.52,8.5s-14.52-3.81-14.52-8.5,6.5-8.51,14.52-8.51S41.33,23,41.33,27.73Z"/>
		</g>
	</g>
</svg>