<svg xmlns="http://www.w3.org/2000/svg" viewBox="0 0 576 602">
	<defs>
		<style>
			.o11cls-1{fill:#ff3960;}
			.o11cls-2{fill:none;}
		</style>
	</defs>
	<title>
		Recurso 13
	</title>
	<g id="Capa_2" data-name="Capa 2">
		<g id="Capa_3" data-name="Capa 3">
			<path class="o11cls-1" d="M393.84,210.28c0-20.3-23.16-33-40.26-22.05a26.4,26.4,0,0,0-34.81-12c-13.35,6.44-16.41,20.21-13.33,33.61,4.13,18,16.06,34.78,28.67,48l.2-.47c0,.17-.05.34-.08.51A140.6,140.6,0,0,0,361.88,247c12.38-6.41,34.11-20,32-36.7C393.86,198.81,394.09,212.24,393.84,210.28Z"/>
			<path class="o11cls-1" d="M267.91,189.11C258.68,171,232.22,170.32,222,187.9a26.39,26.39,0,0,0-36.46,5.2c-8.93,11.82-5.36,25.47,3.5,36,11.9,14.11,30.18,23.6,47.43,29.57,0-.17,0-.34,0-.51.05.16.11.32.16.49a140,140,0,0,0,19.64-22.27c8.09-11.36,21.19-33.41,11.66-47.25C262.69,178.9,269,190.74,267.91,189.11Z"/>
			<rect class="o11cls-2" width="576" height="602"/>
		</g>
	</g>
</svg>