<svg xmlns="http://www.w3.org/2000/svg" viewBox="0 0 576 602">
	<defs>
		<style>
			.o15cls-1{fill:#f8f9d2;}
			.o15cls-2{fill:none;}
		</style>
	</defs>
	<title>
		Recurso 17
	</title>
	<g id="Capa_2" data-name="Capa 2">
		<g id="Capa_3" data-name="Capa 3">
			<path class="o15cls-1" d="M279.24,208.33c0,19.44-20.67,35.2-46.17,35.2s-46.18-15.76-46.18-35.2,20.68-35.19,46.18-35.19S279.24,188.89,279.24,208.33Z"/>
			<path d="M263.59,216.57c0,6.65-7.08,12-15.8,12s-15.8-5.39-15.8-12,7.08-12,15.8-12S263.59,209.92,263.59,216.57Z"/>
			<path class="o15cls-1" d="M388.61,208.33c0,19.44-20.68,35.2-46.18,35.2s-46.17-15.76-46.17-35.2,20.67-35.19,46.17-35.19S388.61,188.89,388.61,208.33Z"/>
			<ellipse cx="323.42" cy="215.57" rx="15.8" ry="12.04"/>
			<rect class="o15cls-2" width="576" height="602"/>
		</g>
	</g>
</svg>