<svg xmlns="http://www.w3.org/2000/svg" viewBox="0 0 576 602">
	<defs>
		<style>
			.or1cls-1{fill:#fbfbe2;stroke:#c0be98;stroke-miterlimit:10;stroke-width:4px;}
			.or1cls-2{fill:#ff7bab;}
			.or1cls-3{fill:none;}
		</style>
	</defs>
	<title>
		Recurso 21
	</title>
	<g id="Capa_2" data-name="Capa 2">
		<g id="Capa_3" data-name="Capa 3">
			<path class="or1cls-1" d="M132.86,116.15,174,132.84c17.37,7,27.45,17.63,27.45,28.8v39.49c0,7.94-18.89,12.09-30.63,6.74L126.88,187.8c-15.18-6.93-23.83-16.74-23.83-27V123.23C103.05,115.54,120.92,111.3,132.86,116.15Z"/>
			<path class="or1cls-1" d="M451.62,116.15,417.75,129.9c-22,8.91-34.7,22.29-34.7,36.41v34.82c0,7.94,18.89,12.09,30.62,6.74l38.09-17.4c18.91-8.64,29.68-20.84,29.68-33.63V123.23C481.44,115.54,463.57,111.3,451.62,116.15Z"/><path class="or1cls-2" d="M138.21,128.1,168,140.2c13.4,5.43,21.17,13.59,21.17,22.21v28.85c0,5.9-14,9-22.76,5L137,182.81c-13.32-6.08-20.91-14.68-20.91-23.69V133.36C116.05,127.65,129.33,124.5,138.21,128.1Z"/>
			<path class="or1cls-2" d="M447.12,127.6l-21,8.52c-19,7.7-30,19.25-30,31.46v23.18c0,5.9,14,9,22.76,5l26.72-12.21c15.07-6.88,23.65-16.6,23.65-26.79V132.86C469.28,127.15,456,124,447.12,127.6Z"/>
			<rect class="or1cls-3" width="576" height="602"/>
		</g>
	</g>
</svg>