<svg xmlns="http://www.w3.org/2000/svg" viewBox="0 0 576 602">
	<defs>
		<style>
			.or3cls-1{fill:#fbfbe2;stroke:#c0be98;stroke-miterlimit:10;stroke-width:4px;}
			.or3cls-2{fill:#ff7bab;}
			.or3cls-3{fill:none;}
		</style>
	</defs>
	<title>
		Recurso 24
	</title>
	<g id="Capa_2" data-name="Capa 2">
		<g id="Capa_3" data-name="Capa 3">
			<path class="or3cls-1" d="M174.65,101l61.83,24.32c4.27,1.68,6.74,4.2,6.74,6.86v51.15c0,7.69-18.89,11.71-30.62,6.53l-61.82-27.36c-3.79-1.67-5.94-4-5.94-6.52V107.85C144.84,100.41,162.71,96.29,174.65,101Z"/>
			<path class="or3cls-1" d="M409.41,101l-61.83,24.32c-4.27,1.68-6.74,4.2-6.74,6.86v51.15c0,7.69,18.89,11.71,30.62,6.53l61.82-27.36c3.79-1.67,5.94-4,5.94-6.52V107.85C439.22,100.41,421.35,96.29,409.41,101Z"/>
			<path class="or3cls-2" d="M180,112.57l45.94,18.07c3.18,1.25,5,3.12,5,5.1v38c0,5.71-14,8.71-22.76,4.85l-45.95-20.33c-2.81-1.25-4.41-3-4.41-4.85V117.67C157.84,112.14,171.12,109.08,180,112.57Z"/>
			<path class="or3cls-2" d="M404.9,112.09,359,130.16c-3.17,1.25-5,3.12-5,5.1v38c0,5.71,14,8.7,22.76,4.84l45.95-20.32c2.81-1.25,4.41-3,4.41-4.85V117.19C427.06,111.65,413.78,108.6,404.9,112.09Z"/>
			<rect class="or3cls-3" width="576" height="602"/>
		</g>
	</g>
</svg>