<svg xmlns="http://www.w3.org/2000/svg" viewBox="0 0 576 602">
	<defs>
		<style>
			.or7cls-1{fill:#c61a4b;}
			.or7cls-2{fill:#ff3960;}
			.or7cls-3{fill:none;}
		</style>
	</defs>
	<title>
		Recurso 29
	</title>
	<g id="Capa_2" data-name="Capa 2">
		<g id="Capa_3" data-name="Capa 3">
			<path class="or7cls-1" d="M491.77,226.45c-13.81-7.75-42.09-13.27-64.56-11-.9-3.12-3.48-6.11-7.77-8.51a38.46,38.46,0,0,0-15.16-4.34c4-12.61-5.84-28.47-19.65-36.22-18.87-10.57-37.94-2-59.14,9.88S289,198.83,307.89,209.4c13.81,7.75,42.08,13.27,64.55,11,.9,3.12,3.48,6.11,7.77,8.51a38.46,38.46,0,0,0,15.17,4.34c-4,12.61,5.83,28.47,19.64,36.22,18.87,10.57,38,2,59.14-9.88S510.63,237,491.77,226.45Z"/>
			<path class="or7cls-2" d="M393.8,205.25c-21.19,11.88-67.05,5.43-85.91-5.14s-3.59-21.28,17.6-33.16,40.27-20.45,59.14-9.87S415,193.37,393.8,205.25Z"/>
			<path class="or7cls-2" d="M405.85,212c21.19-11.89,67-5.43,85.92,5.14s3.58,21.27-17.61,33.16-40.27,20.45-59.13,9.87S384.66,223.89,405.85,212Z"/>
			<ellipse class="or7cls-1" cx="399.83" cy="208.63" rx="27.74" ry="15.56"/>
			<rect class="or7cls-3" width="576" height="602"/>
		</g>
	</g>
</svg>