<svg xmlns="http://www.w3.org/2000/svg" viewBox="0 0 576 602">
	<defs>
		<style>
			.polcls-1{opacity:0.3;}
			.polcls-2{fill:#eeedd9;}
			.polcls-3{fill:#fbfbe2;}
			.polcls-4{fill:#f8f9d2;stroke:#d2d2a0;stroke-miterlimit:10;stroke-width:6px;}
			.polcls-5{fill:#009145;}
			.polcls-6{fill:#fdc325;}
			.polcls-7,.polcls-9{fill:none;}
			.polcls-7{stroke:#d09b18;stroke-linecap:round;stroke-linejoin:round;stroke-width:9px;}
			.polcls-8{fill:#f6921e;}
		</style>
	</defs>
	<title>
		Recurso 58
	</title>
	<g id="Capa_2" data-name="Capa 2">
		<g id="Capa_1-2" data-name="Capa 1">
			<ellipse class="polcls-1" cx="287.8" cy="430.56" rx="253.91" ry="122.44"/>
			<path class="polcls-2" d="M515.1,418.89c0,53.9-101.59,97.59-226.92,97.59S61.27,472.78,61.27,418.89c0-9.07-.79-194-.86-211.4-.33-86.1,233.59-86,233.59-86,29.07,1.94,220.69,2.35,221.66,89.37C515.87,230.3,515.1,409.06,515.1,418.89Z"/>
			<ellipse class="polcls-2" cx="288.18" cy="207.96" rx="226.92" ry="111.05"/>
			<path class="polcls-3" d="M288.39,521.48c-7.52,0-14.11-4.64-19.92-8.74-4.25-3-8.64-6.09-12-6.31-3.7-.24-8.65,2.32-13.44,4.81-6.45,3.35-13.13,6.81-20.25,5.83-7.6-1.05-13.53-6.66-18.76-11.61-3.72-3.52-7.56-7.15-10.74-7.85-3.73-.82-9.08.93-14.25,2.62-6.91,2.27-14.06,4.61-20.85,2.42-7.65-2.47-12.53-9.34-16.83-15.4-2.85-4-5.79-8.16-8.57-9.46-3.67-1.71-9.32-1.39-14.78-1.08-7.41.42-15.07.85-20.92-3.34-7.55-5.4-9.47-14.49-11.16-22.52-.89-4.21-1.8-8.57-3.37-10.77-2.08-2.93-5.82-5.81-9.43-8.6-6.87-5.3-14.65-11.3-14.65-20.58a6,6,0,0,1,12,0c0,3.38,5.07,7.29,10,11.08,4.31,3.32,8.77,6.76,11.88,11.15s4.19,9.84,5.33,15.25c1.3,6.17,2.64,12.55,6.4,15.23,2.42,1.73,7.93,1.42,13.27,1.12,6.62-.37,14.12-.79,20.52,2.19,5.66,2.64,9.54,8.11,13.29,13.39,3.38,4.76,6.87,9.68,10.72,10.92,3.09,1,8.35-.73,13.44-2.4,6.39-2.09,13.63-4.47,20.57-2.94,6.44,1.42,11.51,6.22,16.41,10.86,4.11,3.89,8.37,7.92,12.16,8.44,3.33.46,8.29-2.11,13.08-4.59,6.25-3.25,12.72-6.6,19.76-6.13,6.72.45,12.51,4.53,18.11,8.48,4.57,3.22,9.29,6.55,13,6.55s8.44-3.33,13-6.55c5.6-3.95,11.39-8,18.11-8.48,7-.47,13.5,2.89,19.76,6.13,4.79,2.48,9.74,5.05,13.08,4.59,3.79-.52,8-4.55,12.16-8.44,4.9-4.64,10-9.44,16.41-10.86,6.93-1.53,14.18.84,20.56,2.94,5.09,1.67,10.35,3.39,13.43,2.4,3.86-1.24,7.35-6.16,10.72-10.92,3.75-5.29,7.63-10.76,13.29-13.39,6.4-3,13.9-2.56,20.52-2.19,5.34.3,10.85.61,13.27-1.12,3.75-2.68,5.1-9.06,6.4-15.23,1.14-5.41,2.32-11,5.33-15.25S492,425.29,496.32,422c4.91-3.79,10-7.7,10-11.08a6,6,0,0,1,12,0c0,9.28-7.79,15.29-14.65,20.58-3.61,2.79-7.35,5.67-9.43,8.6-1.57,2.21-2.48,6.56-3.37,10.77-1.69,8-3.61,17.12-11.16,22.52-5.85,4.19-13.51,3.76-20.92,3.34-5.46-.31-11.11-.62-14.78,1.08-2.78,1.29-5.73,5.45-8.57,9.46-4.3,6.06-9.18,12.93-16.83,15.4-6.79,2.19-13.94-.15-20.85-2.42-5.17-1.69-10.51-3.45-14.24-2.62-3.19.7-7,4.34-10.75,7.85C367.51,510.4,361.58,516,354,517.06c-7.12,1-13.79-2.48-20.25-5.83-4.79-2.49-9.76-5.06-13.43-4.81-3.36.22-7.75,3.32-12,6.31C302.5,516.83,295.91,521.48,288.39,521.48Z"/>
			<path class="polcls-3" d="M288.39,473.48c-7.52,0-14.11-4.64-19.92-8.74-4.25-3-8.64-6.09-12-6.31-3.7-.25-8.65,2.32-13.44,4.81-6.45,3.35-13.13,6.81-20.25,5.83-7.6-1.05-13.53-6.66-18.76-11.61-3.72-3.52-7.56-7.15-10.74-7.85-3.73-.82-9.08.93-14.25,2.62-6.91,2.27-14.06,4.61-20.85,2.42-7.65-2.47-12.53-9.34-16.83-15.4-2.85-4-5.79-8.16-8.57-9.46-3.67-1.71-9.32-1.39-14.78-1.08-7.41.42-15.07.85-20.92-3.34-7.55-5.4-9.47-14.49-11.16-22.52-.89-4.21-1.8-8.57-3.37-10.77-2.08-2.93-5.82-5.81-9.43-8.6-6.87-5.3-14.65-11.3-14.65-20.58a6,6,0,0,1,12,0c0,3.38,5.07,7.29,10,11.08,4.31,3.32,8.77,6.76,11.88,11.15s4.19,9.84,5.33,15.25c1.3,6.17,2.64,12.55,6.4,15.23,2.42,1.73,7.93,1.42,13.27,1.12,6.62-.37,14.12-.79,20.52,2.19,5.66,2.64,9.54,8.11,13.29,13.39,3.38,4.76,6.87,9.68,10.72,10.92,3.09,1,8.35-.73,13.44-2.4,6.39-2.09,13.63-4.47,20.57-2.94,6.44,1.42,11.51,6.22,16.41,10.86,4.11,3.89,8.37,7.92,12.16,8.44,3.33.46,8.29-2.11,13.08-4.59,6.25-3.25,12.72-6.6,19.76-6.13,6.72.45,12.51,4.53,18.11,8.48,4.57,3.22,9.29,6.55,13,6.55s8.44-3.33,13-6.55c5.6-3.95,11.39-8,18.11-8.48,7-.47,13.5,2.89,19.76,6.13,4.79,2.48,9.74,5.05,13.08,4.59,3.79-.52,8-4.55,12.16-8.44,4.9-4.64,10-9.44,16.41-10.86,6.93-1.53,14.18.84,20.56,2.94,5.09,1.67,10.35,3.39,13.43,2.4,3.86-1.24,7.35-6.16,10.72-10.92,3.75-5.29,7.63-10.76,13.29-13.39,6.4-3,13.9-2.56,20.52-2.19,5.34.3,10.85.61,13.27-1.12,3.75-2.68,5.1-9.06,6.4-15.23,1.14-5.41,2.32-11,5.33-15.25S492,377.29,496.32,374c4.91-3.79,10-7.7,10-11.08a6,6,0,1,1,12,0c0,9.28-7.79,15.29-14.65,20.58-3.61,2.79-7.35,5.67-9.43,8.6-1.57,2.21-2.48,6.56-3.37,10.77-1.69,8-3.61,17.12-11.16,22.52-5.85,4.19-13.51,3.76-20.92,3.34-5.46-.31-11.11-.62-14.78,1.08-2.78,1.29-5.73,5.45-8.57,9.46-4.3,6.06-9.18,12.93-16.83,15.4-6.79,2.19-13.94-.15-20.85-2.42-5.17-1.69-10.51-3.45-14.24-2.62-3.19.7-7,4.34-10.75,7.85C367.51,462.4,361.58,468,354,469.06c-7.12,1-13.79-2.48-20.25-5.83-4.79-2.49-9.76-5.06-13.43-4.81-3.36.22-7.75,3.32-12,6.31C302.5,468.83,295.91,473.48,288.39,473.48Z"/>
			<path class="polcls-3" d="M288.39,427.48c-7.52,0-14.11-4.64-19.92-8.74-4.25-3-8.64-6.09-12-6.31-3.7-.24-8.65,2.32-13.44,4.81-6.45,3.35-13.13,6.81-20.25,5.83-7.6-1.05-13.53-6.66-18.76-11.61-3.72-3.52-7.56-7.15-10.74-7.85-3.73-.82-9.08.93-14.25,2.62-6.91,2.27-14.06,4.61-20.85,2.42-7.65-2.47-12.53-9.34-16.83-15.4-2.85-4-5.79-8.16-8.57-9.46-3.67-1.71-9.32-1.39-14.78-1.08-7.41.42-15.07.85-20.92-3.34-7.55-5.4-9.47-14.49-11.16-22.52-.89-4.21-1.8-8.57-3.37-10.77-2.08-2.93-5.82-5.81-9.43-8.6-6.87-5.3-14.65-11.3-14.65-20.58a6,6,0,0,1,12,0c0,3.38,5.07,7.29,10,11.08,4.31,3.32,8.77,6.76,11.88,11.15s4.19,9.84,5.33,15.25c1.3,6.17,2.64,12.55,6.4,15.23,2.42,1.73,7.93,1.42,13.27,1.12,6.62-.37,14.12-.79,20.52,2.19,5.66,2.64,9.54,8.11,13.29,13.39,3.38,4.76,6.87,9.68,10.72,10.92,3.09,1,8.35-.73,13.44-2.4,6.39-2.09,13.63-4.47,20.57-2.94,6.44,1.42,11.51,6.22,16.41,10.86,4.11,3.89,8.37,7.92,12.16,8.44,3.33.46,8.29-2.11,13.08-4.59,6.25-3.25,12.72-6.6,19.76-6.13,6.72.45,12.51,4.53,18.11,8.48,4.57,3.22,9.29,6.55,13,6.55s8.44-3.33,13-6.55c5.6-3.95,11.39-8,18.11-8.48,7-.47,13.5,2.89,19.76,6.13,4.79,2.48,9.74,5.05,13.08,4.59,3.79-.52,8-4.55,12.16-8.44,4.9-4.64,10-9.44,16.41-10.86,6.93-1.53,14.18.84,20.56,2.94,5.09,1.67,10.35,3.39,13.43,2.4,3.86-1.24,7.35-6.16,10.72-10.92,3.75-5.29,7.63-10.76,13.29-13.39,6.4-3,13.9-2.56,20.52-2.19,5.34.3,10.85.61,13.27-1.12,3.75-2.68,5.1-9.06,6.4-15.23,1.14-5.41,2.32-11,5.33-15.25S492,331.29,496.32,328c4.91-3.79,10-7.7,10-11.08a6,6,0,1,1,12,0c0,9.28-7.79,15.29-14.65,20.58-3.61,2.79-7.35,5.67-9.43,8.6-1.57,2.21-2.48,6.56-3.37,10.77-1.69,8-3.61,17.12-11.16,22.52-5.85,4.19-13.51,3.76-20.92,3.34-5.46-.31-11.11-.62-14.78,1.08-2.78,1.29-5.73,5.45-8.57,9.46-4.3,6.06-9.18,12.93-16.83,15.4-6.79,2.19-13.94-.15-20.85-2.42-5.17-1.69-10.51-3.45-14.24-2.62-3.19.7-7,4.34-10.75,7.85C367.51,416.4,361.58,422,354,423.06c-7.12,1-13.79-2.48-20.25-5.83-4.79-2.49-9.76-5.06-13.43-4.81-3.36.22-7.75,3.32-12,6.31C302.5,422.83,295.91,427.48,288.39,427.48Z"/>
			<path class="polcls-3" d="M288.39,381.48c-7.52,0-14.11-4.64-19.92-8.74-4.25-3-8.64-6.09-12-6.31-3.7-.24-8.65,2.32-13.44,4.81-6.45,3.35-13.13,6.81-20.25,5.83-7.6-1.05-13.53-6.66-18.76-11.61-3.72-3.52-7.56-7.15-10.74-7.85-3.73-.82-9.08.93-14.25,2.62-6.91,2.27-14.06,4.61-20.85,2.42-7.65-2.47-12.53-9.34-16.83-15.4-2.85-4-5.79-8.16-8.57-9.46-3.67-1.71-9.32-1.39-14.78-1.08-7.41.42-15.07.85-20.92-3.34-7.55-5.4-9.47-14.49-11.16-22.52-.89-4.21-1.8-8.57-3.37-10.77-2.08-2.93-5.82-5.81-9.43-8.6-6.87-5.3-14.65-11.3-14.65-20.58a6,6,0,0,1,12,0c0,3.38,5.07,7.29,10,11.08,4.31,3.32,8.77,6.76,11.88,11.15s4.19,9.84,5.33,15.25c1.3,6.17,2.64,12.55,6.4,15.23,2.42,1.73,7.93,1.42,13.27,1.12,6.62-.37,14.12-.79,20.52,2.19,5.66,2.64,9.54,8.11,13.29,13.39,3.38,4.76,6.87,9.68,10.72,10.92,3.09,1,8.35-.73,13.44-2.4,6.39-2.09,13.63-4.47,20.57-2.94,6.44,1.42,11.51,6.22,16.41,10.86,4.11,3.89,8.37,7.92,12.16,8.44,3.33.46,8.29-2.11,13.08-4.59,6.25-3.25,12.72-6.6,19.76-6.13,6.72.45,12.51,4.53,18.11,8.48,4.57,3.22,9.29,6.55,13,6.55s8.44-3.33,13-6.55c5.6-3.95,11.39-8,18.11-8.48,7-.47,13.5,2.89,19.76,6.13,4.79,2.48,9.74,5.05,13.08,4.59,3.79-.52,8-4.55,12.16-8.44,4.9-4.64,10-9.44,16.41-10.86,6.93-1.53,14.18.84,20.56,2.94,5.09,1.67,10.35,3.39,13.43,2.4,3.86-1.24,7.35-6.16,10.72-10.92,3.75-5.29,7.63-10.76,13.29-13.39,6.4-3,13.9-2.56,20.52-2.19,5.34.3,10.85.61,13.27-1.12,3.75-2.68,5.1-9.06,6.4-15.23,1.14-5.41,2.32-11,5.33-15.25S492,285.29,496.32,282c4.91-3.79,10-7.7,10-11.08a6,6,0,1,1,12,0c0,9.28-7.79,15.29-14.65,20.58-3.61,2.79-7.35,5.67-9.43,8.6-1.57,2.21-2.48,6.56-3.37,10.77-1.69,8-3.61,17.12-11.16,22.52-5.85,4.19-13.51,3.76-20.92,3.34-5.46-.31-11.11-.62-14.78,1.08-2.78,1.29-5.73,5.45-8.57,9.46-4.3,6.06-9.18,12.93-16.83,15.4-6.79,2.19-13.94-.15-20.85-2.42-5.17-1.69-10.51-3.45-14.24-2.62-3.19.7-7,4.34-10.75,7.85C367.51,370.4,361.58,376,354,377.06c-7.12,1-13.79-2.48-20.25-5.83-4.79-2.49-9.76-5.06-13.43-4.81-3.36.22-7.75,3.32-12,6.31C302.5,376.83,295.91,381.48,288.39,381.48Z"/>
			<path class="polcls-3" d="M288.39,333.48c-7.52,0-14.11-4.64-19.92-8.74-4.25-3-8.64-6.09-12-6.31-3.7-.24-8.65,2.33-13.44,4.81-6.45,3.35-13.13,6.81-20.25,5.83-7.6-1.05-13.53-6.66-18.76-11.61-3.72-3.52-7.56-7.15-10.74-7.85-3.73-.82-9.08.93-14.25,2.62-6.91,2.27-14.06,4.61-20.85,2.42-7.65-2.47-12.53-9.34-16.83-15.4-2.85-4-5.79-8.16-8.57-9.46-3.67-1.71-9.32-1.39-14.78-1.08-7.41.42-15.07.85-20.92-3.34-7.55-5.4-9.47-14.49-11.16-22.52-.89-4.21-1.8-8.57-3.37-10.77-2.08-2.93-5.82-5.81-9.43-8.6-6.87-5.3-14.65-11.3-14.65-20.58a6,6,0,0,1,12,0c0,3.38,5.07,7.29,10,11.08,4.31,3.32,8.77,6.76,11.88,11.15s4.19,9.84,5.33,15.25c1.3,6.17,2.64,12.55,6.4,15.23,2.42,1.73,7.93,1.42,13.27,1.12,6.62-.37,14.12-.79,20.52,2.19,5.66,2.64,9.54,8.11,13.29,13.39,3.38,4.76,6.87,9.68,10.72,10.92,3.09,1,8.35-.73,13.44-2.4,6.39-2.09,13.63-4.47,20.57-2.94,6.44,1.42,11.51,6.22,16.41,10.86,4.11,3.89,8.37,7.92,12.16,8.44,3.33.46,8.29-2.11,13.08-4.59,6.25-3.25,12.72-6.6,19.76-6.13,6.72.45,12.51,4.53,18.11,8.48,4.57,3.22,9.29,6.55,13,6.55s8.44-3.33,13-6.55c5.6-3.95,11.39-8,18.11-8.48,7-.47,13.5,2.89,19.76,6.13,4.79,2.48,9.74,5.05,13.08,4.59,3.79-.52,8-4.55,12.16-8.44,4.9-4.64,10-9.44,16.41-10.86,6.93-1.53,14.18.84,20.56,2.94,5.09,1.67,10.35,3.39,13.43,2.4,3.86-1.24,7.35-6.16,10.72-10.92,3.75-5.29,7.63-10.76,13.29-13.39,6.4-3,13.9-2.56,20.52-2.19,5.34.3,10.85.61,13.27-1.12,3.75-2.68,5.1-9.06,6.4-15.23,1.14-5.41,2.32-11,5.33-15.25S492,237.29,496.32,234c4.91-3.79,10-7.7,10-11.08a6,6,0,1,1,12,0c0,9.28-7.79,15.29-14.65,20.58-3.61,2.79-7.35,5.67-9.43,8.6-1.57,2.21-2.48,6.56-3.37,10.77-1.69,8-3.61,17.12-11.16,22.52-5.85,4.19-13.51,3.76-20.92,3.34-5.46-.31-11.11-.62-14.78,1.08-2.78,1.29-5.73,5.45-8.57,9.46-4.3,6.06-9.18,12.93-16.83,15.4-6.79,2.19-13.94-.15-20.85-2.42-5.17-1.69-10.51-3.45-14.24-2.62-3.19.7-7,4.34-10.75,7.85C367.51,322.4,361.58,328,354,329.06c-7.12,1-13.79-2.48-20.25-5.83-4.79-2.49-9.76-5.06-13.43-4.81-3.36.22-7.75,3.32-12,6.31C302.5,328.83,295.91,333.48,288.39,333.48Z"/>
			<ellipse class="polcls-4" cx="251.33" cy="156" rx="30.91" ry="35.4"/>
			<ellipse class="polcls-5" cx="255.54" cy="152.34" rx="11.57" ry="17.01"/>
			<ellipse class="polcls-4" cx="324.26" cy="156" rx="29.57" ry="35.4"/>
			<ellipse class="polcls-5" cx="316.05" cy="152.34" rx="11.57" ry="17.01"/>
			<path class="polcls-6" d="M206.18,203.39c24.44-20.07,90.87-62.26,162.38-1.36a16.9,16.9,0,0,1,.89,24.81c-20.14,20.2-60,37.31-75.29,43.4a16.69,16.69,0,0,1-12.3,0c-15.92-6.23-58.51-24-76.91-42A16.74,16.74,0,0,1,206.18,203.39Z"/>
			<path class="polcls-7" d="M200,215.54l71.54-19.8a63.43,63.43,0,0,1,35.57.51l67.16,20.66"/>
			<path class="polcls-8" d="M315.13,68.62a22.32,22.32,0,0,0-4.86-9c-4.76-6.77-11.54-11-19.07-11-14.4,0-26.08,15.48-26.08,34.57a45.28,45.28,0,0,0,.92,9.12c.64,5.57,2.88,12.24,7.23,16.18.16.15.32.27.49.4,4.62,5.51,10.73,8.87,17.44,8.87,7.41,0,14.1-4.11,18.85-10.7h.45c6.57.22,14.25,2.43,19.62-1,3.91-2.46,6.34-7.44,6.41-13.25C336.7,80.3,324.89,67.79,315.13,68.62Z"/>
			<rect class="polcls-9" width="576" height="602"/>
		</g>
	</g>
</svg>