<svg xmlns="http://www.w3.org/2000/svg" viewBox="0 0 576 602">
	<defs>
		<style>
			.trcrcls-1{opacity:0.3;}
			.trcrcls-2{fill:#eeedd9;}
			.trcrcls-3{fill:#fbfbe2;}
			.trcrcls-4{fill:#1fb59f;}
			.trcrcls-5{fill:#c6bb8d;}
			.trcrcls-6{fill:#fcfcf5;}
			.trcrcls-7{fill:#b5aa7c;}
			.trcrcls-8{fill:#e2d9af;}
			.trcrcls-9{fill:#fbed21;}
			.trcrcls-10{fill:#ccc27f;}
			.trcrcls-11{fill:none;}
			.a1cls-1{fill:none;}
			.a1cls-2{opacity:0.3;}
			.a1cls-3{fill:#fff133;}
			.a1cls-4{fill:#e7d531;}
			.a1cls-5{clip-path:url(#clip-path);}
			.a1cls-6{fill:#f8f9d2;}
			.a1cls-7{clip-path:url(#clip-path-2);}
			.a1cls-8{fill:#e1e1b4;}
			.a1cls-9{fill:#924a09;}
			.a1cls-10{fill:#b68313;}
			.a1cls-11,.a1cls-12{fill:#fdc325;}
			.a1cls-12{stroke:#d09b18;stroke-miterlimit:10;stroke-width:9px;}
			.a2cls-1{opacity:0.3;}
			.a2cls-2{fill:#7bbed5;}
			.a2cls-3{fill:#5296a9;}
			.a2cls-4{fill:#3d8090;}
			.a2cls-5{fill:#cb461d;}
			.a2cls-6{fill:#f05a24;}
			.a2cls-7{fill:#f8f9d2;}
			.a2cls-8{fill:#b68313;}
			.a2cls-10,.a2cls-9{fill:#fdc325;}
			.a2cls-10{stroke:#d09b18;stroke-miterlimit:10;stroke-width:9px;}
			.a2cls-11{fill:none;}
			.acls-1{fill:none;}
			.acls-2{opacity:0.3;}
			.acls-3{fill:#d60028;}
			.acls-4{fill:#aa042f;}
			.acls-5{clip-path:url(#clip-path);}
			.acls-6{fill:#f8f9d2;}
			.acls-7{clip-path:url(#clip-path-2);}
			.acls-8{fill:#e1e1b4;}
			.acls-9{fill:#b68313;}
			.acls-10,.acls-11{fill:#fdc325;}
			.acls-11{stroke:#d09b18;stroke-miterlimit:10;stroke-width:9px;}
			.cabcls-1{opacity:0.3;}
			.cabcls-2{fill:#8b5a2d;}
			.cabcls-3{fill:#664122;}
			.cabcls-4{fill:#7a4c26;}
			.cabcls-5{fill:#54331c;}
			.cabcls-6{fill:#f8f9d2;}
			.cabcls-7{fill:#8bc53f;}
			.cabcls-8{fill:#563318;}
			.cabcls-9{fill:none;}
			.cascls-1{opacity:0.3;}
			.cascls-2{fill:#8b5a2d;}
			.cascls-3{fill:#664122;}
			.cascls-4{fill:#f8f9d2;}
			.cascls-5{fill:#664326;}
			.cascls-6{fill:#fbfbe2;stroke:#c0be98;stroke-miterlimit:10;stroke-width:4px;}
			.cascls-7{fill:#a57c52;}
			.cascls-8{fill:#c0be98;}
			.cascls-9{fill:#f6921e;}
			.cascls-10{fill:#603813;}
			.cascls-11{fill:none;}
			.cercls-1{opacity:0.3;}
			.cercls-2{fill:#f4c3ea;}
			.cercls-3{fill:#ffd4f5;}
			.cercls-4{fill:#c98fc1;}
			.cercls-5{fill:#e0aad6;}
			.cercls-6{fill:#f8f9d2;}
			.cercls-7{fill:#b276ac;}
			.cercls-8{fill:none;}
			.concls-1{opacity:0.3;}
			.concls-2{fill:#eeedd9;}
			.concls-3,.concls-5{fill:#fbfbe2;}
			.concls-4{fill:#c0be98;}
			.concls-5{stroke:#c0be98;stroke-miterlimit:10;stroke-width:4px;}
			.concls-6{fill:#ff7bab;}
			.concls-7{fill:none;}
			.elecls-1{opacity:0.3;}
			.elecls-2{fill:#64928a;}
			.elecls-3{fill:#6c9d96;}
			.elecls-4{fill:#f8f9d2;}
			.elecls-5{fill:#4f7a73;}
			.elecls-6{fill:#668d85;}
			.elecls-7{fill:#395b55;}
			.elecls-8{fill:none;}
			.elm1cls-1{opacity:0.3;}
			.elm1cls-2{fill:#ff3960;}
			.elm1cls-3{fill:#ec1c24;}
			.elm1cls-4{fill:#f8f9d2;}
			.elm1cls-5{fill:#f6921e;}
			.elm1cls-6{fill:none;}
			.elmcls-1{fill:none;}
			.elmcls-2{opacity:0.3;}
			.elmcls-3{fill:#29aae1;}
			.elmcls-4{fill:#22a5d3;}
			.elmcls-5{fill:#f8f9d2;}
			.elmcls-6{clip-path:url(#clip-path);}
			.elmcls-7{fill:#755031;}
			.elmcls-8{fill:#946843;}
			.elmcls-9{fill:#835937;}
			.elmcls-10{fill:#a3784b;}
			.elmcls-11{fill:#5e3d23;}
			.elmcls-12{fill:#8d6340;}
			.elmcls-13{fill:#70492b;}
			.elmcls-14{fill:#4e311d;}
			.elmcls-15{fill:#3a2219;}
			.em1cls-1{opacity:0.3;}
			.em1cls-2{fill:#fdc325;}
			.em1cls-3{fill:#fcda4c;}
			.em1cls-4{fill:#ff3960;}
			.em1cls-5{fill:none;}
			.em2cls-1{opacity:0.3;}
			.em2cls-2{fill:#fdc325;}
			.em2cls-3{fill:#fcda4c;}
			.em2cls-4,.em2cls-7,.em2cls-8{fill:none;}
			.em2cls-4,.em2cls-7{stroke:#000;stroke-linecap:round;stroke-miterlimit:10;}
			.em2cls-4{stroke-width:12px;}
			.em2cls-5{fill:#e57393;}
			.em2cls-6{fill:#ff97b0;}
			.em2cls-7{stroke-width:20px;}
			.em3cls-1{opacity:0.3;}
			.em3cls-2{fill:#fdc325;}
			.em3cls-3{fill:#fcda4c;}
			.em3cls-4{fill:#ff3960;}
			.em3cls-5{fill:none;}
			.emcls-1{opacity:0.3;}
			.emcls-2{fill:#fdc325;}
			.emcls-3{fill:#fcda4c;}
			.emcls-4{fill:none;}
			.gllcls-1{opacity:0.3;}
			.gllcls-2{fill:#fdc325;}
			.gllcls-3{fill:#fcda4c;}
			.gllcls-4{fill:#f8f9d2;stroke:#d2d2a0;stroke-width:6px;}
			.gllcls-4,.gllcls-7{stroke-miterlimit:10;}
			.gllcls-5{fill:#009145;}
			.gllcls-6{fill:#f6921e;}
			.gllcls-7,.gllcls-8{fill:none;}
			.gllcls-7{stroke:#d37313;stroke-width:8px;}
			.gt1cls-1{fill:#ff7bab;}
			.gt1cls-2{opacity:0.3;}
			.gt1cls-3{fill:#ff3960;}
			.gt1cls-4{fill:#fc7292;}
			.gt1cls-5{fill:#fff;}
			.gt1cls-6{fill:#f8f9d2;}
			.gt1cls-7{fill:#c98224;}
			.gt1cls-8{fill:#faaf3b;}
			.gt1cls-9{fill:none;}
			.gtcls-1,.gtcls-5{fill:#fbfbe2;}
			.gtcls-1{stroke:#c0be98;stroke-miterlimit:10;stroke-width:4px;}
			.gtcls-2{fill:#ff7bab;}
			.gtcls-3{opacity:0.3;}
			.gtcls-4{fill:#eeedd9;}
			.gtcls-6{fill:#c0be98;}
			.gtcls-7{fill:none;}
			.hkcls-1{opacity:0.3;}
			.hkcls-2{fill:#eeedd9;}
			.hkcls-3{fill:#fbfbe2;}
			.hkcls-4{fill:#ff7bab;}
			.hkcls-5{fill:#c61a4b;}
			.hkcls-6{fill:#ff3960;}
			.hkcls-7{fill:none;}
			.marcls-1{opacity:0.3;}
			.marcls-2{fill:#7ef13b;}
			.marcls-3{fill:#5fcb1f;}
			.marcls-4{fill:#dadaa8;}
			.marcls-5{fill:#f8f9d2;}
			.marcls-6{fill:#71d530;}
			.marcls-7,.marcls-8{fill:#0c5b00;}
			.marcls-7{opacity:0.5;}
			.marcls-9{fill:#8ad300;}
			.marcls-10{fill:none;}
			.polcls-1{opacity:0.3;}
			.polcls-2{fill:#eeedd9;}
			.polcls-3{fill:#fbfbe2;}
			.polcls-4{fill:#f8f9d2;stroke:#d2d2a0;stroke-miterlimit:10;stroke-width:6px;}
			.polcls-5{fill:#009145;}
			.polcls-6{fill:#fdc325;}
			.polcls-7,.polcls-9{fill:none;}
			.polcls-7{stroke:#d09b18;stroke-linecap:round;stroke-linejoin:round;stroke-width:9px;}
			.polcls-8{fill:#f6921e;}
			.sullcls-1{isolation:isolate;}
			.sullcls-2{opacity:0.3;}
			.sullcls-3{fill:#539cad;}
			.sullcls-4{fill:#67aec1;}
			.sullcls-5{fill:#662d90;mix-blend-mode:hue;}
			.sullcls-6{fill:#f8f9d2;}
			.sullcls-7{fill:#dfdeb5;}
			.sullcls-8,.sullcls-9{fill:none;}
			.sullcls-8{stroke:#000;stroke-linecap:round;stroke-miterlimit:10;stroke-width:14px;}
			.unicls-1{opacity:0.3;}
			.unicls-2{fill:#eeedd9;}
			.unicls-3{fill:#fbfbe2;}
			.unicls-4{fill:#1fb59f;}
			.unicls-5{fill:#c6bb8d;}
			.unicls-6{fill:#fcfcf5;}
			.unicls-7{fill:#b5aa7c;}
			.unicls-8{fill:#e2d9af;}
			.unicls-9{fill:#fbed21;}
			.unicls-10{fill:#ccc27f;}
			.unicls-11{fill:none;}
			.wascls-1{fill:none;}
			.wascls-2{opacity:0.3;}
			.wascls-3{fill:#64cc21;}
			.wascls-4{fill:#7ef13b;}
			.wascls-5{fill:#f8f9d2;}
			.wascls-6{fill:#f9f9e5;}
			.wascls-7{fill:#fff;}
			.wascls-8{fill:#29aae1;}
			.wascls-9{fill:#232d1c;}
			.wascls-10{clip-path:url(#clip-path);}

		</style>
	</defs>
	<title>
		Recurso 70
	</title>
	<g id="Capa_2" data-name="Capa 2">
		<g id="Capa_1-2" data-name="Capa 1">
			<ellipse class="trcrcls-1" cx="287.8" cy="446.72" rx="253.91" ry="122.44"/>
			<path class="trcrcls-2" d="M515.1,435c0,53.9-101.59,97.59-226.92,97.59S61.27,488.94,61.27,435c0-9.07-.79-194-.86-211.4-.33-86.1,233.59-86,233.59-86,29.07,1.94,220.69,2.35,221.66,89.37C515.87,246.46,515.1,425.22,515.1,435Z"/>
			<ellipse class="trcrcls-2" cx="288.18" cy="224.12" rx="226.92" ry="111.05"/>
			<path class="trcrcls-3" d="M288.39,537.63c-7.52,0-14.11-4.64-19.92-8.74-4.25-3-8.64-6.09-12-6.31-3.7-.24-8.65,2.32-13.44,4.81-6.45,3.35-13.13,6.81-20.25,5.83-7.6-1.05-13.53-6.66-18.76-11.61-3.72-3.52-7.56-7.15-10.74-7.85-3.73-.82-9.08.93-14.25,2.62-6.91,2.27-14.06,4.61-20.85,2.42-7.65-2.47-12.53-9.34-16.83-15.4-2.85-4-5.79-8.17-8.57-9.46-3.67-1.71-9.32-1.39-14.78-1.08-7.41.42-15.07.85-20.92-3.34C89.53,484.11,87.61,475,85.92,467c-.89-4.21-1.8-8.57-3.37-10.77-2.08-2.93-5.82-5.81-9.43-8.6-6.87-5.3-14.65-11.3-14.65-20.58a6,6,0,0,1,12,0c0,3.38,5.07,7.29,10,11.08,4.31,3.32,8.77,6.76,11.88,11.15s4.19,9.84,5.33,15.25c1.3,6.17,2.64,12.55,6.4,15.23,2.42,1.73,7.93,1.42,13.27,1.12,6.62-.37,14.12-.79,20.52,2.19,5.66,2.64,9.54,8.11,13.29,13.39,3.38,4.76,6.87,9.68,10.72,10.92,3.09,1,8.35-.73,13.44-2.4,6.39-2.09,13.63-4.47,20.57-2.94,6.44,1.42,11.51,6.22,16.41,10.86,4.11,3.89,8.37,7.92,12.16,8.44,3.33.46,8.29-2.11,13.08-4.59,6.25-3.25,12.72-6.6,19.76-6.13,6.72.45,12.51,4.53,18.11,8.48,4.57,3.22,9.29,6.55,13,6.55s8.44-3.33,13-6.55c5.6-3.95,11.39-8,18.11-8.48,7-.47,13.5,2.89,19.76,6.13,4.79,2.48,9.74,5.05,13.08,4.59,3.79-.52,8-4.55,12.16-8.44,4.9-4.64,10-9.44,16.41-10.86,6.93-1.53,14.18.84,20.56,2.94,5.09,1.67,10.35,3.39,13.43,2.4,3.86-1.24,7.35-6.16,10.72-10.92,3.75-5.29,7.63-10.76,13.29-13.39,6.4-3,13.9-2.56,20.52-2.19,5.34.3,10.85.61,13.27-1.12,3.75-2.68,5.1-9.06,6.4-15.23,1.14-5.41,2.32-11,5.33-15.25s7.58-7.82,11.88-11.15c4.91-3.79,10-7.7,10-11.08a6,6,0,0,1,12,0c0,9.28-7.79,15.29-14.65,20.58-3.61,2.79-7.35,5.67-9.43,8.6-1.57,2.21-2.48,6.56-3.37,10.77-1.69,8-3.61,17.12-11.16,22.52-5.85,4.19-13.51,3.76-20.92,3.34-5.46-.31-11.11-.62-14.78,1.08-2.78,1.29-5.73,5.45-8.57,9.46-4.3,6.06-9.18,12.93-16.83,15.4-6.79,2.19-13.94-.15-20.85-2.42-5.17-1.69-10.51-3.45-14.24-2.62-3.19.7-7,4.34-10.75,7.85-5.23,4.95-11.16,10.56-18.76,11.61-7.12,1-13.79-2.48-20.25-5.83-4.79-2.49-9.76-5.06-13.43-4.81-3.36.22-7.75,3.32-12,6.31C302.5,533,295.91,537.63,288.39,537.63Z"/>
			<path class="trcrcls-3" d="M288.39,489.63c-7.52,0-14.11-4.64-19.92-8.74-4.25-3-8.64-6.09-12-6.31-3.7-.25-8.65,2.32-13.44,4.81-6.45,3.35-13.13,6.81-20.25,5.83-7.6-1.05-13.53-6.66-18.76-11.61-3.72-3.52-7.56-7.15-10.74-7.85-3.73-.82-9.08.93-14.25,2.62-6.91,2.27-14.06,4.61-20.85,2.42-7.65-2.47-12.53-9.34-16.83-15.4-2.85-4-5.79-8.17-8.57-9.46-3.67-1.71-9.32-1.39-14.78-1.08-7.41.42-15.07.85-20.92-3.34C89.53,436.11,87.61,427,85.92,419c-.89-4.21-1.8-8.57-3.37-10.77-2.08-2.93-5.82-5.81-9.43-8.6-6.87-5.3-14.65-11.3-14.65-20.58a6,6,0,0,1,12,0c0,3.38,5.07,7.29,10,11.08,4.31,3.32,8.77,6.76,11.88,11.15s4.19,9.84,5.33,15.25c1.3,6.17,2.64,12.55,6.4,15.23,2.42,1.73,7.93,1.42,13.27,1.12,6.62-.37,14.12-.79,20.52,2.19,5.66,2.64,9.54,8.11,13.29,13.39,3.38,4.76,6.87,9.68,10.72,10.92,3.09,1,8.35-.73,13.44-2.4,6.39-2.09,13.63-4.47,20.57-2.94,6.44,1.42,11.51,6.22,16.41,10.86,4.11,3.89,8.37,7.92,12.16,8.44,3.33.46,8.29-2.11,13.08-4.59,6.25-3.25,12.72-6.6,19.76-6.13,6.72.45,12.51,4.53,18.11,8.48,4.57,3.22,9.29,6.55,13,6.55s8.44-3.33,13-6.55c5.6-3.95,11.39-8,18.11-8.48,7-.47,13.5,2.89,19.76,6.13,4.79,2.48,9.74,5.05,13.08,4.59,3.79-.52,8-4.55,12.16-8.44,4.9-4.64,10-9.44,16.41-10.86,6.93-1.53,14.18.84,20.56,2.94,5.09,1.67,10.35,3.39,13.43,2.4,3.86-1.24,7.35-6.16,10.72-10.92,3.75-5.29,7.63-10.76,13.29-13.39,6.4-3,13.9-2.56,20.52-2.19,5.34.3,10.85.61,13.27-1.12,3.75-2.68,5.1-9.06,6.4-15.23,1.14-5.41,2.32-11,5.33-15.25s7.58-7.82,11.88-11.15c4.91-3.79,10-7.7,10-11.08a6,6,0,1,1,12,0c0,9.28-7.79,15.29-14.65,20.58-3.61,2.79-7.35,5.67-9.43,8.6-1.57,2.21-2.48,6.56-3.37,10.77-1.69,8-3.61,17.12-11.16,22.52-5.85,4.19-13.51,3.76-20.92,3.34-5.46-.31-11.11-.62-14.78,1.08-2.78,1.29-5.73,5.45-8.57,9.46-4.3,6.06-9.18,12.93-16.83,15.4-6.79,2.19-13.94-.15-20.85-2.42-5.17-1.69-10.51-3.45-14.24-2.62-3.19.7-7,4.34-10.75,7.85-5.23,4.95-11.16,10.56-18.76,11.61-7.12,1-13.79-2.48-20.25-5.83-4.79-2.49-9.76-5.06-13.43-4.81-3.36.22-7.75,3.32-12,6.31C302.5,485,295.91,489.63,288.39,489.63Z"/>
			<path class="trcrcls-3" d="M288.39,443.63c-7.52,0-14.11-4.64-19.92-8.74-4.25-3-8.64-6.09-12-6.31-3.7-.24-8.65,2.32-13.44,4.81-6.45,3.35-13.13,6.81-20.25,5.83-7.6-1.05-13.53-6.66-18.76-11.61-3.72-3.52-7.56-7.15-10.74-7.85-3.73-.82-9.08.93-14.25,2.62-6.91,2.27-14.06,4.61-20.85,2.42-7.65-2.47-12.53-9.34-16.83-15.4-2.85-4-5.79-8.17-8.57-9.46-3.67-1.71-9.32-1.39-14.78-1.08-7.41.42-15.07.85-20.92-3.34C89.53,390.11,87.61,381,85.92,373c-.89-4.21-1.8-8.57-3.37-10.77-2.08-2.93-5.82-5.81-9.43-8.6-6.87-5.3-14.65-11.3-14.65-20.58a6,6,0,0,1,12,0c0,3.38,5.07,7.29,10,11.08,4.31,3.32,8.77,6.76,11.88,11.15s4.19,9.84,5.33,15.25c1.3,6.17,2.64,12.55,6.4,15.23,2.42,1.73,7.93,1.42,13.27,1.12,6.62-.37,14.12-.79,20.52,2.19,5.66,2.64,9.54,8.11,13.29,13.39,3.38,4.76,6.87,9.68,10.72,10.92,3.09,1,8.35-.73,13.44-2.4,6.39-2.09,13.63-4.47,20.57-2.94,6.44,1.42,11.51,6.22,16.41,10.86,4.11,3.89,8.37,7.92,12.16,8.44,3.33.46,8.29-2.11,13.08-4.59,6.25-3.25,12.72-6.6,19.76-6.13,6.72.45,12.51,4.53,18.11,8.48,4.57,3.22,9.29,6.55,13,6.55s8.44-3.33,13-6.55c5.6-3.95,11.39-8,18.11-8.48,7-.47,13.5,2.89,19.76,6.13,4.79,2.48,9.74,5.05,13.08,4.59,3.79-.52,8-4.55,12.16-8.44,4.9-4.64,10-9.44,16.41-10.86,6.93-1.53,14.18.84,20.56,2.94,5.09,1.67,10.35,3.39,13.43,2.4,3.86-1.24,7.35-6.16,10.72-10.92,3.75-5.29,7.63-10.76,13.29-13.39,6.4-3,13.9-2.56,20.52-2.19,5.34.3,10.85.61,13.27-1.12,3.75-2.68,5.1-9.06,6.4-15.23,1.14-5.41,2.32-11,5.33-15.25s7.58-7.82,11.88-11.15c4.91-3.79,10-7.7,10-11.08a6,6,0,1,1,12,0c0,9.28-7.79,15.29-14.65,20.58-3.61,2.79-7.35,5.67-9.43,8.6-1.57,2.21-2.48,6.56-3.37,10.77-1.69,8-3.61,17.12-11.16,22.52-5.85,4.19-13.51,3.76-20.92,3.34-5.46-.31-11.11-.62-14.78,1.08-2.78,1.29-5.73,5.45-8.57,9.46-4.3,6.06-9.18,12.93-16.83,15.4-6.79,2.19-13.94-.15-20.85-2.42-5.17-1.69-10.51-3.45-14.24-2.62-3.19.7-7,4.34-10.75,7.85-5.23,4.95-11.16,10.56-18.76,11.61-7.12,1-13.79-2.48-20.25-5.83-4.79-2.49-9.76-5.06-13.43-4.81-3.36.22-7.75,3.32-12,6.31C302.5,439,295.91,443.63,288.39,443.63Z"/>
			<path class="trcrcls-3" d="M288.39,397.63c-7.52,0-14.11-4.64-19.92-8.74-4.25-3-8.64-6.09-12-6.31-3.7-.24-8.65,2.32-13.44,4.81-6.45,3.35-13.13,6.81-20.25,5.83-7.6-1.05-13.53-6.66-18.76-11.61-3.72-3.52-7.56-7.15-10.74-7.85-3.73-.82-9.08.93-14.25,2.62-6.91,2.27-14.06,4.61-20.85,2.42-7.65-2.47-12.53-9.34-16.83-15.4-2.85-4-5.79-8.17-8.57-9.46-3.67-1.71-9.32-1.39-14.78-1.08-7.41.42-15.07.85-20.92-3.34C89.53,344.11,87.61,335,85.92,327c-.89-4.21-1.8-8.57-3.37-10.77-2.08-2.93-5.82-5.81-9.43-8.6-6.87-5.3-14.65-11.3-14.65-20.58a6,6,0,0,1,12,0c0,3.38,5.07,7.29,10,11.08,4.31,3.32,8.77,6.76,11.88,11.15s4.19,9.84,5.33,15.25c1.3,6.17,2.64,12.55,6.4,15.23,2.42,1.73,7.93,1.42,13.27,1.12,6.62-.37,14.12-.79,20.52,2.19,5.66,2.64,9.54,8.11,13.29,13.39,3.38,4.76,6.87,9.68,10.72,10.92,3.09,1,8.35-.73,13.44-2.4,6.39-2.09,13.63-4.47,20.57-2.94,6.44,1.42,11.51,6.22,16.41,10.86,4.11,3.89,8.37,7.92,12.16,8.44,3.33.46,8.29-2.11,13.08-4.59,6.25-3.25,12.72-6.6,19.76-6.13,6.72.45,12.51,4.53,18.11,8.48,4.57,3.22,9.29,6.55,13,6.55s8.44-3.33,13-6.55c5.6-3.95,11.39-8,18.11-8.48,7-.47,13.5,2.89,19.76,6.13,4.79,2.48,9.74,5.05,13.08,4.59,3.79-.52,8-4.55,12.16-8.44,4.9-4.64,10-9.44,16.41-10.86,6.93-1.53,14.18.84,20.56,2.94,5.09,1.67,10.35,3.39,13.43,2.4,3.86-1.24,7.35-6.16,10.72-10.92,3.75-5.29,7.63-10.76,13.29-13.39,6.4-3,13.9-2.56,20.52-2.19,5.34.3,10.85.61,13.27-1.12,3.75-2.68,5.1-9.06,6.4-15.23,1.14-5.41,2.32-11,5.33-15.25s7.58-7.82,11.88-11.15c4.91-3.79,10-7.7,10-11.08a6,6,0,1,1,12,0c0,9.28-7.79,15.29-14.65,20.58-3.61,2.79-7.35,5.67-9.43,8.6-1.57,2.21-2.48,6.56-3.37,10.77-1.69,8-3.61,17.12-11.16,22.52-5.85,4.19-13.51,3.76-20.92,3.34-5.46-.31-11.11-.62-14.78,1.08-2.78,1.29-5.73,5.45-8.57,9.46-4.3,6.06-9.18,12.93-16.83,15.4-6.79,2.19-13.94-.15-20.85-2.42-5.17-1.69-10.51-3.45-14.24-2.62-3.19.7-7,4.34-10.75,7.85-5.23,4.95-11.16,10.56-18.76,11.61-7.12,1-13.79-2.48-20.25-5.83-4.79-2.49-9.76-5.06-13.43-4.81-3.36.22-7.75,3.32-12,6.31C302.5,393,295.91,397.63,288.39,397.63Z"/>
			<path class="trcrcls-3" d="M288.39,349.63c-7.52,0-14.11-4.64-19.92-8.74-4.25-3-8.64-6.09-12-6.31-3.7-.24-8.65,2.33-13.44,4.81-6.45,3.35-13.13,6.81-20.25,5.83-7.6-1.05-13.53-6.66-18.76-11.61-3.72-3.52-7.56-7.15-10.74-7.85-3.73-.82-9.08.93-14.25,2.62-6.91,2.27-14.06,4.61-20.85,2.42-7.65-2.47-12.53-9.34-16.83-15.4-2.85-4-5.79-8.17-8.57-9.46-3.67-1.71-9.32-1.39-14.78-1.08-7.41.42-15.07.85-20.92-3.34C89.53,296.11,87.61,287,85.92,279c-.89-4.21-1.8-8.57-3.37-10.77-2.08-2.93-5.82-5.81-9.43-8.6-6.87-5.3-14.65-11.3-14.65-20.58a6,6,0,0,1,12,0c0,3.38,5.07,7.29,10,11.08,4.31,3.32,8.77,6.76,11.88,11.15s4.19,9.84,5.33,15.25c1.3,6.17,2.64,12.55,6.4,15.23,2.42,1.73,7.93,1.42,13.27,1.12,6.62-.37,14.12-.79,20.52,2.19,5.66,2.64,9.54,8.11,13.29,13.39,3.38,4.76,6.87,9.68,10.72,10.92,3.09,1,8.35-.73,13.44-2.4,6.39-2.09,13.63-4.47,20.57-2.94,6.44,1.42,11.51,6.22,16.41,10.86,4.11,3.89,8.37,7.92,12.16,8.44,3.33.46,8.29-2.11,13.08-4.59,6.25-3.25,12.72-6.6,19.76-6.13,6.72.45,12.51,4.53,18.11,8.48,4.57,3.22,9.29,6.55,13,6.55s8.44-3.33,13-6.55c5.6-3.95,11.39-8,18.11-8.48,7-.47,13.5,2.89,19.76,6.13,4.79,2.48,9.74,5.05,13.08,4.59,3.79-.52,8-4.55,12.16-8.44,4.9-4.64,10-9.44,16.41-10.86,6.93-1.53,14.18.84,20.56,2.94,5.09,1.67,10.35,3.39,13.43,2.4,3.86-1.24,7.35-6.16,10.72-10.92,3.75-5.29,7.63-10.76,13.29-13.39,6.4-3,13.9-2.56,20.52-2.19,5.34.3,10.85.61,13.27-1.12,3.75-2.68,5.1-9.06,6.4-15.23,1.14-5.41,2.32-11,5.33-15.25s7.58-7.82,11.88-11.15c4.91-3.79,10-7.7,10-11.08a6,6,0,1,1,12,0c0,9.28-7.79,15.29-14.65,20.58-3.61,2.79-7.35,5.67-9.43,8.6-1.57,2.21-2.48,6.56-3.37,10.77-1.69,8-3.61,17.12-11.16,22.52-5.85,4.19-13.51,3.76-20.92,3.34-5.46-.31-11.11-.62-14.78,1.08-2.78,1.29-5.73,5.45-8.57,9.46-4.3,6.06-9.18,12.93-16.83,15.4-6.79,2.19-13.94-.15-20.85-2.42-5.17-1.69-10.51-3.45-14.24-2.62-3.19.7-7,4.34-10.75,7.85-5.23,4.95-11.16,10.56-18.76,11.61-7.12,1-13.79-2.48-20.25-5.83-4.79-2.49-9.76-5.06-13.43-4.81-3.36.22-7.75,3.32-12,6.31C302.5,345,295.91,349.63,288.39,349.63Z"/>
			<rect class="trcrcls-11" width="576" height="602"/>
		</g>
	</g>
</svg>