<svg xmlns="http://www.w3.org/2000/svg" viewBox="0 0 576 602"><defs><style>.cls-1{fill:none;}</style></defs><title>Recurso 55</title><g id="Capa_2" data-name="Capa 2"><g id="Capa_3" data-name="Capa 3"><rect class="cls-1" width="576" height="602"/><path d="M353.69,175.37c3.95,11,.25,22.39-8.26,25.45s-18.61-3.38-22.56-14.38-.25-22.39,8.26-25.45S349.74,164.37,353.69,175.37Z"/><path d="M207.55,189.9a5.87,5.87,0,0,1-2.54-.57,4.94,4.94,0,0,1-2.37-6.89c.38-.68,9.45-16.61,25.83-18.16,11.19-1.06,22.42,4.75,33.38,17.28a4.87,4.87,0,0,1-.81,7.2,5.84,5.84,0,0,1-7.78-.76c-8.46-9.67-16.42-14.22-23.66-13.54-10.34,1-17.07,12.55-17.14,12.67A5.59,5.59,0,0,1,207.55,189.9Z"/><path d="M186.28,165.76a8,8,0,0,1-3.49-.77c-2.91-1.43-3.7-4.32-1.77-6.46,13-14.43,43.78-22.53,56.65-24.2,5.47-.7,8.65-.47,11,.8,2.8,1.53,3.39,4.27,1.32,6.34a7.52,7.52,0,0,1-7.27,1.43h0c-6.55,0-39.26,7.44-51.13,20.61A7.25,7.25,0,0,1,186.28,165.76Z"/><path d="M370.87,156.68c-3,0-5.61-1.54-6.19-3.77-3.7-14.11-37.33-24.67-50-27.55-3.34-.75-5.2-3.36-4.18-5.82s4.56-3.83,7.89-3.08c2.16.49,52.77,12.21,58.66,34.68.66,2.53-1.58,5-5,5.46A8.29,8.29,0,0,1,370.87,156.68Z"/></g></g></svg>