<svg xmlns="http://www.w3.org/2000/svg" viewBox="0 0 576 602"><defs><style>.cls-1{fill:#e1e1b4;}.cls-2{fill:#f8f9d2;}.cls-3{fill:none;}</style></defs><title>Recurso 72</title><g id="Capa_2" data-name="Capa 2"><g id="Capa_3" data-name="Capa 3"><ellipse class="cls-1" cx="234.24" cy="171.69" rx="45.34" ry="28.93"/><ellipse class="cls-1" cx="341.61" cy="171.69" rx="45.34" ry="28.93"/><ellipse class="cls-2" cx="234.24" cy="165.69" rx="45.34" ry="28.93"/><path d="M259.29,166.71c0,5.46-6.94,9.89-15.51,9.89s-15.51-4.43-15.51-9.89,6.95-9.9,15.51-9.9S259.29,161.24,259.29,166.71Z"/><ellipse class="cls-2" cx="341.61" cy="165.69" rx="45.34" ry="28.93"/><path d="M340.42,166.71c0,5.46-6.94,9.89-15.51,9.89s-15.51-4.43-15.51-9.89,7-9.9,15.51-9.9S340.42,161.24,340.42,166.71Z"/><polygon points="287.65 165.77 190.39 139.07 203.03 120.31 297.93 150.53 287.65 165.77"/><polygon points="287.66 165.77 384.93 139.07 372.28 120.31 277.39 150.53 287.66 165.77"/><rect class="cls-3" width="576" height="602"/></g></g></svg>