<svg xmlns="http://www.w3.org/2000/svg" viewBox="0 0 576 602"><defs><style>.cls-1{fill:none;}.cls-2{fill:#fbfbe2;}</style></defs><title>Recurso 51</title><g id="Capa_2" data-name="Capa 2"><g id="Capa_3" data-name="Capa 3"><rect class="cls-1" width="576" height="602"/><path class="cls-2" d="M145.62,145.29c-8.88-.33-17-6.47-22.91-17.3L120,123c-12.16-22.35-10.86-58,2.91-79.36L141.31,15c2.58-4,5.88-6.14,9.31-6s6.58,2.49,8.85,6.68l16.26,29.88c12.17,22.36,10.86,58-2.91,79.36l-3.08,4.78C163.07,140.08,154.51,145.61,145.62,145.29Z"/><path class="cls-2" d="M401,131.71l-3.07-4.78c-13.77-21.4-15.08-57-2.92-79.36l16.26-29.88c2.28-4.19,5.42-6.56,8.85-6.68s6.74,2,9.32,6l18.4,28.61c13.77,21.4,15.08,57,2.92,79.36L448,130c-5.89,10.83-14,17-22.92,17.3S407.64,142.08,401,131.71Z"/></g></g></svg>