<svg xmlns="http://www.w3.org/2000/svg" viewBox="0 0 576 602"><defs><style>.cls-1{fill:#fbfbe2;stroke:#c0be98;stroke-miterlimit:10;stroke-width:4px;}.cls-2{fill:#ff7bab;}.cls-3{fill:none;}</style></defs><title>Recurso 81</title><g id="Capa_2" data-name="Capa 2"><g id="Capa_3" data-name="Capa 3"><path class="cls-1" d="M113.86,53.15,155,69.84c17.37,7,27.45,17.63,27.45,28.8v39.49c0,7.94-18.89,12.09-30.63,6.74L107.88,124.8c-15.18-6.93-23.83-16.74-23.83-27V60.23C84.05,52.54,101.92,48.3,113.86,53.15Z"/><path class="cls-1" d="M450.62,53.15,416.75,66.9c-22,8.91-34.7,22.29-34.7,36.41v34.82c0,7.94,18.89,12.09,30.62,6.74l38.09-17.4c18.91-8.64,29.68-20.84,29.68-33.63V60.23C480.44,52.54,462.57,48.3,450.62,53.15Z"/><path class="cls-2" d="M119.49,65.49l29.63,12c13.32,5.41,21,13.53,21,22.1V128.3c0,5.86-14,8.94-22.63,5L118.25,119.9c-13.25-6.05-20.8-14.61-20.8-23.57V70.72C97.45,65,110.66,61.9,119.49,65.49Z"/><path class="cls-2" d="M446.12,64.6l-21,8.52c-19,7.7-30,19.25-30,31.46v23.18c0,5.9,14,9,22.76,5l26.72-12.21c15.07-6.88,23.65-16.6,23.65-26.79V69.86C468.28,64.15,455,61,446.12,64.6Z"/><rect class="cls-3" width="576" height="602"/></g></g></svg>