<svg xmlns="http://www.w3.org/2000/svg" viewBox="0 0 576 602"><defs><style>.cls-1{fill:#ff7bab;}.cls-2{fill:none;}</style></defs><title>Recurso 74</title><g id="Capa_2" data-name="Capa 2"><g id="Capa_3" data-name="Capa 3"><path d="M136.71,266.83q-24.36-2-48.07-5.71c-9.3-1.47-13.27,6.64-4,8.11q23.69,3.74,48.06,5.71c4,.33,8-.56,9.23-2.93,1-2-1.24-4.85-5.24-5.18Z"/><path d="M128.18,282.24l-47.94-2.1c-9.62-.42-9.57,8,0,8.41l47.94,2.1c9.63.42,9.58-8,0-8.41Z"/><path d="M130.67,297.3c-15.11.88-30.27,2.11-45.48,2.3-9.63.11-9.67,8.52,0,8.41,15.21-.19,30.37-1.42,45.48-2.3,4-.24,7.5-1.77,7.5-4.21,0-2.09-3.44-4.44-7.5-4.2Z"/><path d="M432.52,266.83q24.36-2,48.07-5.71c9.3-1.47,13.28,6.64,4,8.11q-23.68,3.74-48.06,5.71c-4,.33-8-.56-9.23-2.93-1-2,1.24-4.85,5.24-5.18Z"/><path d="M441,282.24l47.94-2.1c9.63-.42,9.58,8,0,8.41L441,290.65c-9.62.42-9.57-8,0-8.41Z"/><path d="M438.56,297.3c15.11.88,30.27,2.11,45.48,2.3,9.63.11,9.67,8.52,0,8.41-15.21-.19-30.37-1.42-45.48-2.3-4-.24-7.5-1.77-7.5-4.21,0-2.09,3.44-4.44,7.5-4.2Z"/><ellipse class="cls-1" cx="288.06" cy="277.5" rx="16.08" ry="10.77"/><rect class="cls-2" width="576" height="602"/></g></g></svg>