<svg xmlns="http://www.w3.org/2000/svg" viewBox="0 0 576 602"><defs><style>.cls-1{fill:#fbfbe2;}.cls-2{fill:none;}</style></defs><title>Recurso 75</title><g id="Capa_2" data-name="Capa 2"><g id="Capa_3" data-name="Capa 3"><path class="cls-1" d="M126.19,87.3l48.86,20,.14.06c7,2.93,8.32,8.52,2.77,11.15L114.4,148.63c-5.1,2.42-14.13,0-15.66-4.24l0-.09-15-43.49C78.73,86.36,104.19,78.27,126.19,87.3Z"/><path class="cls-1" d="M434.94,88.79l-51.48,11.79-.15,0c-7.4,1.74-9.6,7-4.55,10.55l57.78,40.06c4.64,3.22,13.94,2.32,16.14-1.62l.05-.09,21.91-40.45C481.91,95.63,458.12,83.48,434.94,88.79Z"/><rect class="cls-2" width="576" height="602"/></g></g></svg>