<svg xmlns="http://www.w3.org/2000/svg" viewBox="0 0 576 602"><defs><style>.cls-1{fill:none;}.cls-2{fill:#8bc53f;}.cls-3{fill:#563318;}.cls-4{fill:#7a4c26;}</style></defs><title>Recurso 26</title><g id="Capa_2" data-name="Capa 2"><g id="Capa_3" data-name="Capa 3"><rect class="cls-1" width="576" height="602"/><path class="cls-2" d="M75.42,367.73a12.51,12.51,0,0,1-12.29-10.3C60.05,340.2,64,324.9,74.89,312c17.28-20.55,51-33.85,103-40.64,39.72-5.19,79.51-5,98.63-4.95,2,0,3.66,0,5.21,0h5.11c69.62-.24,166.21,4.2,201,45.47,10.92,13,14.93,28.28,11.91,45.54a12.5,12.5,0,1,1-24.63-4.31c1.74-9.9-.3-17.88-6.39-25.11-8.86-10.5-31.06-24.54-86.56-31.82-37.85-5-76.63-4.83-95.26-4.77H276.38c-18.58-.08-57.24-.23-95.29,4.74-55.91,7.3-78.2,21.4-87.06,31.93-6,7.2-8,15.14-6.29,25a12.49,12.49,0,0,1-10.1,14.5A12.06,12.06,0,0,1,75.42,367.73Z"/><path class="cls-2" d="M179.36,295.43a12.47,12.47,0,0,1-9.78-4.71c-19.24-24.13-59.17-23.51-59.57-23.49a12.5,12.5,0,1,1-.83-25c2.14-.07,52.66-1.34,79.95,32.9a12.5,12.5,0,0,1-9.77,20.29Z"/><path class="cls-2" d="M389.59,295.43a12.5,12.5,0,0,1-9.77-20.29c27.28-34.24,77.81-33,79.95-32.9a12.5,12.5,0,0,1-.8,25c-.57,0-40.25-.78-59.6,23.49A12.47,12.47,0,0,1,389.59,295.43Z"/><path class="cls-3" d="M368.27,386.52H197a53.37,53.37,0,0,1-53.38-53.38h0A53.37,53.37,0,0,1,197,279.77H368.27a53.37,53.37,0,0,1,53.38,53.37h0A53.38,53.38,0,0,1,368.27,386.52Z"/><path class="cls-4" d="M368.27,365.52H197a53.37,53.37,0,0,1-53.38-53.38h0A53.37,53.37,0,0,1,197,258.77H368.27a53.37,53.37,0,0,1,53.38,53.37h0A53.38,53.38,0,0,1,368.27,365.52Z"/><ellipse class="cls-3" cx="228.13" cy="298.88" rx="30.96" ry="20.65"/><ellipse class="cls-3" cx="337.13" cy="298.88" rx="30.96" ry="20.65"/></g></g></svg>